<svg width="158" height="26" viewBox="0 0 158 26" fill="none" xmlns="http://www.w3.org/2000/svg">
<g filter="url(#filter0_d_566_4419)">
<path d="M15.5492 11.448L13.4372 5.676C13.3332 5.42 13.2252 5.116 13.1132 4.764C13.0012 4.412 12.8892 4.032 12.7772 3.624C12.6732 4.032 12.5652 4.416 12.4532 4.776C12.3412 5.128 12.2332 5.436 12.1292 5.7L10.0292 11.448H15.5492ZM21.2492 18H18.7532C18.4732 18 18.2452 17.932 18.0692 17.796C17.8932 17.652 17.7612 17.476 17.6732 17.268L16.3772 13.728H9.18922L7.89322 17.268C7.82922 17.452 7.70522 17.62 7.52122 17.772C7.33722 17.924 7.10922 18 6.83722 18H4.31722L11.1452 0.647999H14.4332L21.2492 18ZM26.2733 7.92H27.0293C27.3333 7.92 27.5853 7.88 27.7853 7.8C27.9853 7.712 28.1573 7.576 28.3013 7.392L33.0893 1.332C33.2893 1.076 33.4973 0.899999 33.7133 0.803999C33.9373 0.699999 34.2173 0.647999 34.5533 0.647999H37.3373L31.4933 7.86C31.1493 8.3 30.7933 8.612 30.4253 8.796C30.6893 8.892 30.9253 9.028 31.1333 9.204C31.3493 9.372 31.5533 9.596 31.7453 9.876L37.7693 18H34.9253C34.5413 18 34.2533 17.948 34.0613 17.844C33.8773 17.732 33.7213 17.572 33.5933 17.364L28.6853 10.956C28.5333 10.74 28.3573 10.588 28.1573 10.5C27.9573 10.412 27.6693 10.368 27.2933 10.368H26.2733V18H23.0453V0.647999H26.2733V7.92ZM48.6664 11.448L46.5544 5.676C46.4504 5.42 46.3424 5.116 46.2304 4.764C46.1184 4.412 46.0064 4.032 45.8944 3.624C45.7904 4.032 45.6824 4.416 45.5704 4.776C45.4584 5.128 45.3504 5.436 45.2464 5.7L43.1464 11.448H48.6664ZM54.3664 18H51.8704C51.5904 18 51.3624 17.932 51.1864 17.796C51.0104 17.652 50.8784 17.476 50.7904 17.268L49.4944 13.728H42.3064L41.0104 17.268C40.9464 17.452 40.8224 17.62 40.6384 17.772C40.4544 17.924 40.2264 18 39.9544 18H37.4344L44.2624 0.647999H47.5504L54.3664 18ZM71.5705 9.324C71.5705 10.596 71.3585 11.764 70.9345 12.828C70.5105 13.892 69.9145 14.808 69.1465 15.576C68.3785 16.344 67.4545 16.94 66.3745 17.364C65.2945 17.788 64.0945 18 62.7745 18H56.1625V0.647999H62.7745C64.0945 0.647999 65.2945 0.863999 66.3745 1.296C67.4545 1.72 68.3785 2.316 69.1465 3.084C69.9145 3.844 70.5105 4.756 70.9345 5.82C71.3585 6.884 71.5705 8.052 71.5705 9.324ZM68.2585 9.324C68.2585 8.372 68.1305 7.52 67.8745 6.768C67.6265 6.008 67.2625 5.368 66.7825 4.848C66.3105 4.32 65.7345 3.916 65.0545 3.636C64.3825 3.356 63.6225 3.216 62.7745 3.216H59.4025V15.432H62.7745C63.6225 15.432 64.3825 15.292 65.0545 15.012C65.7345 14.732 66.3105 14.332 66.7825 13.812C67.2625 13.284 67.6265 12.644 67.8745 11.892C68.1305 11.132 68.2585 10.276 68.2585 9.324ZM94.8842 0.647999V18H93.2282C92.9722 18 92.7562 17.96 92.5802 17.88C92.4122 17.792 92.2482 17.648 92.0882 17.448L83.0282 5.88C83.0762 6.408 83.1002 6.896 83.1002 7.344V18H80.2562V0.647999H81.9482C82.0842 0.647999 82.2002 0.655999 82.2962 0.671999C82.4002 0.679999 82.4882 0.703999 82.5602 0.743999C82.6402 0.776 82.7162 0.828 82.7882 0.899999C82.8602 0.963999 82.9402 1.052 83.0282 1.164L92.1242 12.78C92.1002 12.5 92.0802 12.224 92.0642 11.952C92.0482 11.68 92.0402 11.428 92.0402 11.196V0.647999H94.8842ZM101.988 18H98.7484V0.647999H101.988V18ZM109.101 7.92H109.857C110.161 7.92 110.413 7.88 110.613 7.8C110.813 7.712 110.985 7.576 111.129 7.392L115.917 1.332C116.117 1.076 116.325 0.899999 116.541 0.803999C116.765 0.699999 117.045 0.647999 117.381 0.647999H120.165L114.321 7.86C113.977 8.3 113.621 8.612 113.253 8.796C113.517 8.892 113.753 9.028 113.961 9.204C114.177 9.372 114.381 9.596 114.573 9.876L120.597 18H117.753C117.369 18 117.081 17.948 116.889 17.844C116.705 17.732 116.549 17.572 116.421 17.364L111.513 10.956C111.361 10.74 111.185 10.588 110.985 10.5C110.785 10.412 110.497 10.368 110.121 10.368H109.101V18H105.873V0.647999H109.101V7.92ZM131.495 11.448L129.383 5.676C129.279 5.42 129.171 5.116 129.059 4.764C128.947 4.412 128.835 4.032 128.723 3.624C128.619 4.032 128.511 4.416 128.399 4.776C128.287 5.128 128.179 5.436 128.075 5.7L125.975 11.448H131.495ZM137.195 18H134.699C134.419 18 134.191 17.932 134.015 17.796C133.839 17.652 133.707 17.476 133.619 17.268L132.323 13.728H125.135L123.839 17.268C123.775 17.452 123.651 17.62 123.467 17.772C123.283 17.924 123.055 18 122.783 18H120.263L127.091 0.647999H130.379L137.195 18ZM153.619 0.647999V18H150.379V10.416H142.231V18H138.991V0.647999H142.231V8.112H150.379V0.647999H153.619Z" fill="#7A4200"/>
</g>
<defs>
<filter id="filter0_d_566_4419" x="0.316406" y="0.647949" width="157.303" height="25.3521" filterUnits="userSpaceOnUse" color-interpolation-filters="sRGB">
<feFlood flood-opacity="0" result="BackgroundImageFix"/>
<feColorMatrix in="SourceAlpha" type="matrix" values="0 0 0 0 0 0 0 0 0 0 0 0 0 0 0 0 0 0 127 0" result="hardAlpha"/>
<feOffset dy="4"/>
<feGaussianBlur stdDeviation="2"/>
<feComposite in2="hardAlpha" operator="out"/>
<feColorMatrix type="matrix" values="0 0 0 0 0 0 0 0 0 0 0 0 0 0 0 0 0 0 0.25 0"/>
<feBlend mode="normal" in2="BackgroundImageFix" result="effect1_dropShadow_566_4419"/>
<feBlend mode="normal" in="SourceGraphic" in2="effect1_dropShadow_566_4419" result="shape"/>
</filter>
</defs>
</svg>
