<svg width="428" height="150" viewBox="0 0 428 150" fill="none" xmlns="http://www.w3.org/2000/svg">
<path d="M237.159 89.7316C235.678 86.4557 230.408 85.8289 227.958 86.655C218.729 89.8455 217.874 99.6163 216.507 107.421C218.13 99.9296 220.723 90.6431 228.471 88.5351C229.895 88.1648 231.718 88.4212 232.459 88.9624C233.655 89.817 232.345 90.7001 232.943 91.982C233.541 93.2638 235.478 93.3778 236.532 92.6941C237.244 92.2099 237.786 91.1843 237.13 89.7031L237.159 89.7316Z" fill="#800000"/>
<path d="M190.841 89.7316C192.322 86.4557 197.592 85.8289 200.013 86.655C209.243 89.8455 210.097 99.6163 211.465 107.421C209.841 99.9296 207.249 90.6431 199.501 88.5351C198.076 88.1648 196.253 88.4212 195.513 88.9624C194.316 89.817 195.627 90.7001 195.028 91.982C194.43 93.2638 192.493 93.3778 191.439 92.6941C190.727 92.2099 190.186 91.1843 190.841 89.7031V89.7316Z" fill="#800000"/>
<path d="M200.783 103.12C202.064 106.538 206.195 108.988 211.123 111.21C204.856 107.45 206.451 104.032 205.454 100.87C204.144 96.7961 199.273 99.189 200.783 103.149V103.12Z" fill="url(#paint0_linear_618_22698)"/>
<path d="M227.189 103.12C225.907 106.538 221.777 108.988 216.849 111.21C223.115 107.45 221.52 104.032 222.517 100.87C223.799 96.7961 228.699 99.189 227.189 103.149V103.12Z" fill="url(#paint1_linear_618_22698)"/>
<path d="M218.729 89.0479C216.706 84.718 211.265 84.718 209.243 89.0479C206.793 94.2324 209.1 101.553 211.977 109.529C210.211 101.895 211.721 98.5908 213.972 95.7706C216.25 98.5908 217.732 101.895 215.966 109.529C218.871 101.553 221.15 94.2324 218.7 89.0479H218.729Z" fill="url(#paint2_linear_618_22698)"/>
<path d="M178.051 113.005C176.399 116.195 179.162 120.724 181.327 122.12C189.531 127.419 197.763 122.006 204.742 118.246C197.849 121.608 188.932 125.311 182.495 120.525C181.327 119.642 180.415 118.047 180.358 117.107C180.301 115.626 181.811 116.138 182.438 114.856C183.064 113.574 181.953 112.008 180.786 111.609C179.959 111.324 178.82 111.552 178.079 112.976L178.051 113.005Z" fill="#800000"/>
<path d="M206.708 149.41C203.232 150.265 199.472 146.533 198.618 144.083C195.399 134.854 202.577 128.131 207.876 122.234C203.004 128.159 197.307 135.936 200.441 143.314C201.01 144.653 202.349 145.935 203.261 146.191C204.657 146.59 204.543 145.023 205.939 144.71C207.334 144.397 208.616 145.849 208.702 147.074C208.787 147.929 208.303 149.011 206.736 149.382L206.708 149.41Z" fill="#800000"/>
<path d="M211.066 133.315C212.946 130.182 212.348 125.425 211.009 120.183C211.921 127.419 208.274 128.302 206.394 131.037C204.001 134.569 208.901 136.933 211.066 133.315Z" fill="url(#paint3_linear_618_22698)"/>
<path d="M194.715 112.577C198.19 111.495 202.663 113.176 207.477 115.711C200.669 113.119 198.931 116.48 195.826 117.648C191.838 119.158 190.67 113.831 194.715 112.577Z" fill="url(#paint4_linear_618_22698)"/>
<path d="M188.904 127.903C186.768 132.176 190.129 136.449 194.772 135.366C200.355 134.085 204.685 127.761 209.157 120.525C204.258 126.65 200.726 127.504 197.136 127.476C197.934 123.943 199.615 120.725 206.708 117.392C198.646 120.041 191.468 122.776 188.932 127.903H188.904Z" fill="url(#paint5_linear_618_22698)"/>
<path d="M249.949 113.005C251.601 116.195 248.838 120.724 246.673 122.12C238.469 127.419 230.237 122.006 223.258 118.246C230.151 121.608 239.068 125.311 245.505 120.525C246.673 119.642 247.585 118.047 247.642 117.107C247.699 115.626 246.189 116.138 245.562 114.856C244.936 113.574 246.047 112.008 247.214 111.609C248.041 111.324 249.18 111.552 249.921 112.976L249.949 113.005Z" fill="#800000"/>
<path d="M221.264 149.41C224.739 150.265 228.499 146.533 229.354 144.083C232.573 134.854 225.394 128.131 220.096 122.234C224.967 128.159 230.664 135.936 227.531 143.314C226.961 144.653 225.622 145.935 224.711 146.191C223.315 146.59 223.429 145.023 222.033 144.71C220.637 144.397 219.355 145.849 219.27 147.074C219.184 147.929 219.669 149.011 221.235 149.382L221.264 149.41Z" fill="#800000"/>
<path d="M216.934 133.315C215.054 130.182 215.652 125.425 216.991 120.183C216.079 127.419 219.726 128.302 221.606 131.037C223.999 134.569 219.099 136.933 216.934 133.315Z" fill="url(#paint6_linear_618_22698)"/>
<path d="M233.256 112.577C229.781 111.495 225.309 113.176 220.495 115.711C227.303 113.119 229.04 116.48 232.145 117.648C236.133 119.158 237.301 113.831 233.256 112.577Z" fill="url(#paint7_linear_618_22698)"/>
<path d="M239.068 127.903C241.204 132.176 237.843 136.449 233.199 135.366C227.616 134.085 223.286 127.761 218.814 120.525C223.714 126.65 227.246 127.504 230.835 127.476C230.038 123.943 228.357 120.725 221.264 117.392C229.325 120.041 236.504 122.776 239.039 127.903H239.068Z" fill="url(#paint8_linear_618_22698)"/>
<path d="M210.126 115.569C210.126 113.432 211.864 111.694 214 111.694C216.136 111.694 217.874 113.432 217.874 115.569C217.874 117.705 216.136 119.443 214 119.443C211.864 119.443 210.126 117.705 210.126 115.569Z" fill="#800000"/>
<path d="M163.267 115.768C165.346 116.964 165.375 117.933 165.033 119.5C164.919 120.012 163.922 121.693 163.723 122.149C163.409 122.804 163.352 123.602 163.609 124.257C164.207 125.738 165.973 125.653 166.827 124.513C168.85 121.779 167.169 117.135 163.295 115.768H163.267Z" fill="url(#paint9_linear_618_22698)"/>
<path d="M146.375 98.192C146.517 101.838 143.697 105.712 140.022 109.7C144.295 103.775 141.532 101.268 141.19 97.9356C140.82 93.6911 146.232 93.976 146.375 98.192Z" fill="url(#paint10_linear_618_22698)"/>
<path d="M128.628 44.9227C128.201 40.7068 133.528 39.6528 133.727 43.9257C133.869 47.2301 131.477 50.1357 136.576 55.3772C132.36 51.9588 128.998 48.5405 128.628 44.8943V44.9227Z" fill="url(#paint11_linear_618_22698)"/>
<path d="M169.106 70.076C172.667 69.6203 175.971 73.7793 176.541 76.286C178.649 85.8289 170.759 91.6686 164.833 96.91C170.36 91.5831 176.911 84.5186 174.661 76.8273C174.234 75.4315 173.066 74.0071 172.183 73.6368C170.815 73.0671 170.759 74.6623 169.363 74.8048C167.938 74.9757 166.856 73.3805 166.884 72.1271C166.884 71.2725 167.511 70.2755 169.106 70.076Z" fill="#800000"/>
<path d="M193.376 109.558C195.37 106.595 193.177 101.753 191.183 100.129C183.634 93.9191 174.86 98.3344 167.483 101.268C174.718 98.7332 183.976 96.084 189.844 101.553C190.926 102.55 191.639 104.26 191.582 105.2C191.496 106.681 190.043 106.026 189.274 107.194C188.505 108.39 189.417 110.099 190.556 110.612C191.354 110.954 192.493 110.897 193.405 109.558H193.376Z" fill="#800000"/>
<path d="M176.769 108.077C173.18 108.76 168.935 106.567 164.463 103.49C170.929 106.852 173.037 103.718 176.256 102.892C180.387 101.867 180.928 107.308 176.769 108.077Z" fill="url(#paint12_linear_618_22698)"/>
<path d="M162.925 85.601C160.703 88.4781 160.76 93.2923 161.472 98.6477C161.387 91.3553 165.147 90.8995 167.312 88.3927C170.103 85.1452 165.489 82.2397 162.925 85.601Z" fill="url(#paint13_linear_618_22698)"/>
<path d="M179.333 85.4016C184.09 84.8604 186.938 89.5037 184.318 93.4917C181.184 98.2774 173.75 100.186 165.432 101.895C172.866 99.4168 174.889 96.3973 176.114 92.9789C172.525 92.5232 168.935 92.979 163.352 98.4768C168.622 91.8395 173.664 86.0568 179.361 85.4016H179.333Z" fill="url(#paint14_linear_618_22698)"/>
<path d="M154.294 38.4279C154.066 39.8522 152.528 40.7353 151.331 39.6813C150.79 39.197 150.477 38.4849 150.448 37.7442C150.391 37.26 150.534 35.2944 150.391 34.7816C149.964 33.2149 149.508 32.3888 147.115 32.2749C151.189 31.7051 154.835 35.038 154.294 38.3994V38.4279Z" fill="url(#paint15_linear_618_22698)"/>
<path d="M167.454 120.269C167.055 118.246 163.523 113.66 156.943 113.005C157.57 112.72 158.225 112.435 158.794 112.093C167.369 106.966 166.628 96.9385 159.022 97.081C156.031 97.1379 152.357 100.072 150.733 101.895C150.42 102.237 150.078 102.636 149.679 103.092C158.88 87.9084 153.952 76.1436 152.186 72.298C148.824 65.0055 141.902 56.8015 140.25 48.8823C137.373 36.149 145.435 28.828 152.642 34.1265C147.998 29.1414 141.646 30.4233 138.171 35.8926C136.091 39.1401 132.73 50.3351 139.168 61.9575C136.889 59.935 134.268 58.3682 131.078 57.9125C124.469 57.0009 120.396 60.9889 119.513 64.4643C118.345 68.9651 121.877 69.9051 122.56 68.2245C123.33 66.4013 120.025 65.8886 121.507 63.04C122.988 60.1629 126.89 58.6816 130.878 59.3083C135.664 60.0489 139.851 63.9515 142.387 67.085C142.785 67.5693 143.241 68.1675 143.754 68.7942C149.337 78.4225 152.129 89.4182 148.597 100.243C146.773 105.826 143.441 109.188 139.965 110.754C131.961 114.315 125.181 107.336 125.181 103.547C125.181 101.126 128.799 99.132 127.602 95.7706C126.492 92.6086 122.39 93.7196 121.649 97.4798C121.022 100.585 121.791 102.864 122.361 104.573C125.608 114.429 136.319 119.015 141.589 119.557C144.665 119.841 148.34 119.215 150.363 118.901C153.325 118.417 157.968 117.363 160.931 117.392C162.811 117.392 165.916 118.161 167.454 120.326V120.269ZM139.253 113.261C145.349 111.267 150.192 105.798 152.357 103.291C154.066 101.354 157.199 99.2459 159.079 99.1889C164.235 99.1035 164.406 106.254 157.712 110.242C152.841 113.147 145.378 113.973 139.253 113.233V113.261Z" fill="#800000"/>
<path d="M117.575 62.1284C120.282 60.1913 121.079 56.4882 128.343 57.2573C123.045 56.0609 118.288 55.5481 115.211 57.5137C111.622 59.7926 114.1 64.6067 117.575 62.1569V62.1284Z" fill="url(#paint16_linear_618_22698)"/>
<path d="M32.4883 37.5448C30.2664 38.4564 30.124 39.3964 30.2379 41.0201C30.2664 41.5329 31.064 43.3275 31.1779 43.8118C31.4058 44.4955 31.3773 45.293 31.007 45.9197C30.2379 47.2871 28.5003 47.0022 27.8166 45.7488C26.1644 42.7578 28.4718 38.3994 32.4883 37.5448Z" fill="url(#paint17_linear_618_22698)"/>
<path d="M25.6517 69.3354C48.3549 90.8425 71.5993 52.8419 104.5 50.7054C116.151 49.452 133.471 56.4596 139.168 61.9005C140.108 62.6696 143.498 66.088 145.121 68.6802C146.261 70.5034 147.286 71.0731 146.147 68.3954C145.15 66.088 144.153 64.037 142.671 62.1284C138.541 56.83 132.36 53.0413 128.429 50.9903C125.039 49.2242 121.535 47.7144 118.145 46.2331C114.243 44.5524 110.198 42.8148 106.381 40.6783C99.43 36.8042 90.2576 26.5776 94.6444 15.3541C94.7583 15.0692 94.6444 14.7559 94.331 14.6419L93.5619 14.3286C93.3625 14.2431 93.1631 14.2431 92.9922 14.3286C92.7928 14.414 92.6504 14.5565 92.5934 14.7559C88.4629 25.5521 95.442 35.4083 102.279 40.5643C90.7703 38.143 90.286 47.8283 96.0971 50.1927C85.7853 52.7849 76.4704 57.9979 67.9531 62.8121C62.8827 65.1195 56.7297 66.8286 50.6907 67.5123C42.3729 68.4523 37.16 64.4927 36.7042 60.4192C36.4478 58.0549 38.5273 56.9154 38.157 54.9214C37.7867 52.8419 36.2769 52.5855 35.2229 53.5825C33.8271 54.8929 33.7986 57.9124 34.055 59.3937C35.1945 65.8601 41.5468 70.247 50.8617 69.2215C53.5393 68.9081 56.2455 68.3954 58.8662 67.7402C47.5288 73.4944 37.5588 76.1151 28.3009 66.7717C19.926 57.4567 21.037 45.8628 27.5602 40.308C28.8706 39.1685 33.172 36.3769 37.8436 37.2315C40.0086 37.6303 42.1165 38.5988 43.7972 39.1115C45.7912 39.6813 49.3519 40.7922 52.3999 40.9062C57.6983 41.0771 68.9217 37.9151 73.4509 28.6001C74.22 27.0049 75.274 24.8115 75.0746 21.678C74.8467 17.8609 70.9157 16.2086 69.3774 19.1997C67.7538 22.3901 71.0866 24.84 70.7448 27.2328C70.2605 30.9645 62.7118 36.7472 55.22 32.4458C50.178 29.5402 47.8706 25.8939 45.6203 22.2477C44.3384 20.1682 41.0056 16.8354 38.043 16.3796C30.5228 15.2401 28.4433 25.0678 36.2769 31.3063C36.3909 31.3918 36.5333 31.4773 36.6472 31.5627C30.6082 31.4203 26.2784 34.7247 24.5977 36.206C16.3083 43.6124 14.9695 58.2828 25.6232 69.3354H25.6517ZM103.56 43.0996C108.147 44.41 112.818 46.3755 116.863 48.1417C117.234 48.3126 117.604 48.4835 117.974 48.6544C111.451 47.6574 105.839 48.1987 101.025 48.6544C92.2516 49.4805 91.4255 39.5958 103.56 43.0996ZM37.7297 18.516C39.6098 18.8009 42.4299 21.3077 43.8541 23.4726C45.6772 26.2358 49.7507 32.3318 55.5333 35.095C49.3519 35.0095 42.088 33.1864 37.6442 29.6541C31.5483 24.8115 32.6307 17.7469 37.7582 18.516H37.7297Z" fill="#800000"/>
<path d="M91.6818 24.8969C91.7673 17.6045 95.4989 17.2057 97.7493 14.7558C100.598 11.5654 96.0687 8.57434 93.4195 11.8787C91.1406 14.6989 90.7418 20.8804 91.6818 24.8969Z" fill="url(#paint18_linear_618_22698)"/>
<path d="M20.4673 0C16.8781 0 14.1149 4.50082 13.8586 7.06458C12.9185 16.7784 21.4643 21.6495 27.9875 26.1219C21.8346 21.5071 14.4853 15.2971 15.7671 7.37793C16.0235 5.92513 17.0205 4.38687 17.8181 3.93109C19.1 3.19045 19.3563 4.7572 20.7806 4.7572C22.2049 4.7572 23.088 3.01952 22.9171 1.79462C22.7746 0.940031 22.0625 0.0284729 20.4673 0.0284729V0Z" fill="#800000"/>
<path d="M1.18237 42.1595C-1.18195 39.4534 0.441739 34.3828 2.20786 32.5312C8.959 25.4667 18.1884 28.771 25.8796 30.7651C18.3878 29.1129 8.87354 27.6031 3.71761 33.7846C2.77758 34.8956 2.26483 36.6902 2.43575 37.6018C2.72061 39.0546 4.05944 38.2285 4.97099 39.3109C5.88253 40.3934 5.17039 42.2165 4.11641 42.8717C3.37578 43.3275 2.23635 43.3845 1.15388 42.1595H1.18237Z" fill="#800000"/>
<path d="M17.5047 38.6558C21.1224 38.9122 25.1105 36.1775 29.1555 32.6167C23.1449 36.7472 20.6667 33.8701 17.3908 33.4713C13.1464 32.9585 13.2888 38.3994 17.5047 38.6843V38.6558Z" fill="url(#paint19_linear_618_22698)"/>
<path d="M28.5003 14.6419C31.064 17.2341 31.5767 21.9913 31.5198 27.4322C30.7222 20.1682 26.962 20.1967 24.4838 17.9748C21.3219 15.0977 25.5093 11.6508 28.5003 14.6419Z" fill="url(#paint20_linear_618_22698)"/>
<path d="M12.1779 16.465C7.42077 16.522 5.1419 21.4501 8.24685 25.0963C11.95 29.4832 19.5557 30.4518 28.016 31.1069C20.3248 29.5402 17.9605 26.8055 16.3653 23.5866C19.8691 22.7035 23.4868 22.7035 29.6967 27.4892C23.6577 21.5356 17.9605 16.4081 12.2064 16.465H12.1779Z" fill="url(#paint21_linear_618_22698)"/>
<path d="M69.6623 95.8276C72.9667 96.3118 73.4794 99.8441 78.1511 98.2489C75.4164 100.101 73.1661 101.098 69.5768 100.499C65.3894 99.8441 66.3295 95.3433 69.6908 95.8276H69.6623Z" fill="url(#paint22_linear_618_22698)"/>
<path d="M72.9951 100.499C79.376 99.4738 81.7118 94.4318 82.367 88.7915C83.3925 90.7001 84.7598 92.3808 86.5259 93.7766C90.7703 97.1664 96.8378 98.6762 103.162 97.9071C107.805 97.3374 114.072 94.6882 116.408 89.0764C117.832 85.658 116.749 81.0718 112.961 81.8124C110.454 82.2967 110.255 84.7465 110.027 87.0823C109.77 89.9594 109.457 93.2353 105.725 95.1724C104.785 95.4573 103.817 95.6567 102.905 95.7706C96.382 96.5397 89.4315 94.8306 85.415 89.5037C88.292 91.925 91.9667 91.1559 93.7328 87.6236C95.7268 83.664 93.2486 78.8498 93.2486 75.0896C93.2486 67.6263 96.6384 60.4193 101.908 56.6876C104.102 55.1493 108.659 51.9019 116.237 51.9019C117.832 51.9019 119.997 52.0728 122.247 52.3861C125.01 52.7565 127.859 53.3262 129.824 53.9529C131.676 54.5511 131.704 54.0953 130.166 53.2407C128.742 52.4431 126.036 51.3321 122.247 50.3066C114.328 48.2271 103.048 49.452 98.6324 50.506C84.247 53.9244 76.6128 64.8631 75.1316 74.6339C73.7927 83.4076 79.3475 98.5053 72.9951 100.471V100.499ZM91.1121 75.0896C91.1121 78.9353 93.3625 83.607 91.8243 86.655C90.2006 89.9025 86.3835 89.5037 84.5889 84.4616C83.1931 80.559 83.9337 73.0386 88.0072 66.8001C90.4 63.1254 94.1886 59.4222 98.7178 56.5451C94.0177 60.9035 91.0836 67.9111 91.1121 75.0896Z" fill="#800000"/>
<path d="M264.762 115.768C262.682 116.964 262.654 117.933 262.996 119.5C263.11 120.012 264.107 121.693 264.306 122.149C264.619 122.804 264.676 123.602 264.42 124.257C263.822 125.738 262.056 125.653 261.201 124.513C259.179 121.779 260.859 117.135 264.733 115.768H264.762Z" fill="url(#paint23_linear_618_22698)"/>
<path d="M281.654 98.192C281.511 101.838 284.331 105.712 288.006 109.7C283.733 103.775 286.496 101.268 286.838 97.9356C287.209 93.6911 281.796 93.976 281.654 98.192Z" fill="url(#paint24_linear_618_22698)"/>
<path d="M299.401 44.9227C299.828 40.7068 294.501 39.6528 294.302 43.9257C294.159 47.2301 296.552 50.1357 291.453 55.3772C295.669 51.9588 299.03 48.5405 299.401 44.8943V44.9227Z" fill="url(#paint25_linear_618_22698)"/>
<path d="M258.922 70.076C255.361 69.6203 252.057 73.7793 251.487 76.286C249.379 85.8289 257.27 91.6686 263.195 96.91C257.669 91.5831 251.117 84.5186 253.367 76.8273C253.795 75.4315 254.963 74.0071 255.846 73.6368C257.213 73.0671 257.27 74.6623 258.666 74.8048C260.09 74.9757 261.173 73.3805 261.144 72.1271C261.144 71.2725 260.517 70.2755 258.922 70.076Z" fill="#800000"/>
<path d="M234.624 109.558C232.63 106.595 234.823 101.753 236.817 100.129C244.366 93.9191 253.14 98.3344 260.517 101.268C253.282 98.7332 244.024 96.084 238.156 101.553C237.102 102.55 236.361 104.26 236.418 105.2C236.504 106.681 237.957 106.026 238.726 107.194C239.495 108.39 238.583 110.099 237.444 110.612C236.646 110.954 235.507 110.897 234.595 109.558H234.624Z" fill="#800000"/>
<path d="M251.259 108.077C254.849 108.76 259.093 106.567 263.565 103.49C257.099 106.852 254.991 103.718 251.772 102.892C247.642 101.867 247.1 107.308 251.259 108.077Z" fill="url(#paint26_linear_618_22698)"/>
<path d="M265.075 85.601C267.297 88.4781 267.24 93.2923 266.528 98.6477C266.613 91.3553 262.853 90.8995 260.688 88.3927C257.897 85.1452 262.511 82.2397 265.075 85.601Z" fill="url(#paint27_linear_618_22698)"/>
<path d="M248.667 85.4016C243.91 84.8604 241.062 89.5037 243.682 93.4917C246.816 98.2774 254.25 100.186 262.568 101.895C255.134 99.4168 253.111 96.3973 251.886 92.9789C255.475 92.5232 259.065 92.979 264.648 98.4768C259.378 91.8395 254.336 86.0568 248.639 85.4016H248.667Z" fill="url(#paint28_linear_618_22698)"/>
<path d="M273.706 38.4279C273.934 39.8522 275.472 40.7353 276.669 39.6813C277.21 39.197 277.523 38.4849 277.552 37.7442C277.609 37.26 277.466 35.2944 277.609 34.7816C278.036 33.2149 278.492 32.3888 280.885 32.2749C276.811 31.7051 273.165 35.038 273.706 38.3994V38.4279Z" fill="url(#paint29_linear_618_22698)"/>
<path d="M267.069 117.363C270.032 117.363 274.646 118.389 277.637 118.873C279.688 119.186 283.363 119.785 286.411 119.528C291.681 118.987 302.391 114.372 305.639 104.544C306.209 102.835 306.949 100.556 306.351 97.4513C305.61 93.6911 301.508 92.5801 300.397 95.7421C299.201 99.132 302.819 101.098 302.819 103.519C302.819 107.279 296.039 114.258 288.12 110.754C284.559 109.159 281.227 105.769 279.403 100.186C275.871 89.3612 278.663 78.394 284.246 68.7372C284.73 68.1105 285.215 67.5123 285.613 67.028C288.149 63.8945 292.336 59.9919 297.122 59.2513C301.11 58.6531 305.012 60.1344 306.493 62.983C307.975 65.8601 304.67 66.3728 305.439 68.1675C306.123 69.8197 309.627 68.8796 308.487 64.4073C307.604 60.9035 303.502 56.9154 296.922 57.8555C293.732 58.3112 291.14 59.878 288.832 61.9005C295.27 50.2781 291.909 39.1115 289.829 35.8356C286.354 30.3948 280.002 29.0844 275.358 34.0695C282.565 28.7995 290.627 36.1205 287.75 48.8253C286.098 56.773 279.176 64.977 275.814 72.241C274.048 76.0866 269.092 87.8799 278.321 103.035C277.922 102.579 277.58 102.18 277.267 101.838C275.643 100.015 271.969 97.081 268.978 97.024C261.372 96.8816 260.631 106.909 269.206 112.036C269.804 112.378 270.43 112.663 271.057 112.948C264.505 113.603 260.945 118.189 260.546 120.212C262.084 118.047 265.189 117.306 267.069 117.278V117.363ZM270.288 110.27C263.594 106.254 263.736 99.132 268.921 99.2175C270.829 99.2459 273.934 101.354 275.643 103.319C277.808 105.826 282.651 111.296 288.747 113.29C282.622 114.002 275.159 113.176 270.288 110.299V110.27Z" fill="#800000"/>
<path d="M310.425 62.1284C307.718 60.1913 306.921 56.4882 299.657 57.2573C304.955 56.0609 309.712 55.5481 312.789 57.5137C316.378 59.7926 313.9 64.6067 310.425 62.1569V62.1284Z" fill="url(#paint30_linear_618_22698)"/>
<path d="M395.512 37.5448C397.734 38.4564 397.876 39.3964 397.762 41.0201C397.734 41.5329 396.936 43.3275 396.822 43.8118C396.594 44.4955 396.623 45.293 396.993 45.9197C397.762 47.2871 399.5 47.0022 400.183 45.7488C401.836 42.7578 399.528 38.3994 395.512 37.5448Z" fill="url(#paint31_linear_618_22698)"/>
<path d="M403.374 36.1775C401.722 34.6962 397.363 31.3918 391.324 31.5342C391.438 31.4488 391.581 31.3918 391.695 31.2778C399.528 25.0394 397.449 15.2116 389.928 16.3511C386.966 16.8068 383.633 20.1397 382.351 22.2192C380.101 25.8655 377.794 29.5117 372.752 32.4173C365.26 36.7187 357.711 30.936 357.227 27.2043C356.885 24.8115 360.218 22.3617 358.594 19.1712C357.056 16.1802 353.153 17.8323 352.897 21.6495C352.697 24.8115 353.751 26.9764 354.521 28.5717C359.05 37.8866 370.273 41.0486 375.572 40.8777C378.648 40.7638 382.209 39.6528 384.174 39.0831C385.855 38.5703 387.963 37.6018 390.128 37.203C394.8 36.3484 399.101 39.14 400.411 40.2795C406.935 45.8343 408.046 57.3997 399.671 66.7432C390.441 76.0867 380.443 73.4659 369.105 67.7117C371.755 68.3669 374.432 68.8796 377.11 69.193C386.425 70.247 392.777 65.8316 393.916 59.3652C394.173 57.8555 394.144 54.8359 392.749 53.554C391.695 52.5855 390.185 52.8134 389.814 54.8929C389.473 56.8869 391.552 58.0264 391.267 60.3907C390.812 64.4643 385.599 68.4239 377.281 67.4838C371.242 66.8002 365.089 65.1195 360.018 62.7836C351.473 57.9979 342.186 52.7565 331.874 50.1642C337.685 47.7714 337.201 38.1145 325.693 40.5358C332.53 35.3798 339.509 25.5236 335.378 14.7274C335.321 14.528 335.179 14.3855 334.979 14.3001C334.808 14.2146 334.581 14.2146 334.41 14.3001L333.64 14.6134C333.356 14.7274 333.242 15.0407 333.327 15.3256C337.714 26.5491 328.513 36.7757 321.591 40.6498C317.774 42.7863 313.729 44.5239 309.826 46.2046C306.437 47.6574 302.933 49.1672 299.543 50.9618C295.583 53.0128 289.43 56.83 285.3 62.0999C283.819 64.0085 282.793 66.0595 281.825 68.3669C280.685 71.0446 281.711 70.4749 282.85 68.6518C284.445 66.0595 287.864 62.6412 288.804 61.872C294.472 56.4312 311.82 49.4236 323.471 50.677C356.344 52.8134 379.617 90.814 402.32 69.3069C412.973 58.2543 411.635 43.5839 403.345 36.1775H403.374ZM326.975 48.6259C322.161 48.1702 316.549 47.6289 310.026 48.6259C310.396 48.455 310.766 48.2556 311.137 48.1132C315.182 46.3471 319.853 44.3815 324.44 43.0711C336.603 39.5958 335.748 49.4805 326.975 48.6259ZM390.384 29.6256C385.94 33.1579 378.648 34.9526 372.495 35.0665C378.278 32.3033 382.351 26.2073 384.174 23.4441C385.627 21.2792 388.419 18.7724 390.299 18.4875C395.398 17.7184 396.509 24.783 390.413 29.6256H390.384Z" fill="#800000"/>
<path d="M336.318 24.8969C336.233 17.6045 332.501 17.2057 330.251 14.7558C327.402 11.5654 331.931 8.57434 334.58 11.8787C336.859 14.6989 337.258 20.8804 336.318 24.8969Z" fill="url(#paint32_linear_618_22698)"/>
<path d="M407.533 0C411.122 0 413.885 4.50082 414.141 7.06458C415.081 16.7784 406.536 21.6495 400.012 26.1219C406.165 21.5071 413.515 15.2971 412.233 7.37793C411.977 5.92513 410.979 4.38687 410.182 3.93109C408.9 3.19045 408.644 4.7572 407.219 4.7572C405.795 4.7572 404.912 3.01952 405.083 1.79462C405.225 0.940031 405.937 0.0284729 407.533 0.0284729V0Z" fill="#800000"/>
<path d="M426.818 42.1595C429.182 39.4534 427.558 34.3828 425.792 32.5312C419.041 25.4667 409.812 28.771 402.149 30.7651C409.641 29.1129 419.155 27.6031 424.311 33.7846C425.251 34.8956 425.764 36.6902 425.593 37.6018C425.308 39.0546 423.969 38.2285 423.057 39.3109C422.146 40.3934 422.858 42.2165 423.912 42.8717C424.653 43.3275 425.792 43.3845 426.875 42.1595H426.818Z" fill="#800000"/>
<path d="M410.495 38.6558C406.849 38.9122 402.889 36.1775 398.845 32.6167C404.855 36.7472 407.333 33.8701 410.609 33.4713C414.854 32.9585 414.711 38.3994 410.495 38.6843V38.6558Z" fill="url(#paint33_linear_618_22698)"/>
<path d="M399.528 14.6419C396.964 17.2341 396.423 21.9913 396.509 27.4322C397.306 20.1682 401.066 20.1967 403.545 17.9748C406.707 15.0977 402.491 11.6508 399.528 14.6419Z" fill="url(#paint34_linear_618_22698)"/>
<path d="M415.851 16.465C420.608 16.522 422.887 21.4501 419.782 25.0963C416.078 29.4832 408.473 30.4518 400.012 31.1069C407.704 29.5402 410.068 26.8055 411.663 23.5866C408.159 22.7035 404.542 22.7035 398.332 27.4892C404.371 21.5356 410.068 16.4081 415.822 16.465H415.851Z" fill="url(#paint35_linear_618_22698)"/>
<path d="M358.338 95.8276C355.033 96.3118 354.521 99.8441 349.849 98.2489C352.584 100.101 354.834 101.098 358.423 100.499C362.611 99.8441 361.671 95.3433 358.309 95.8276H358.338Z" fill="url(#paint36_linear_618_22698)"/>
<path d="M352.868 74.6623C351.387 64.8916 343.753 53.9529 329.368 50.5345C324.952 49.4805 313.643 48.2556 305.753 50.3351C301.964 51.3321 299.258 52.4716 297.834 53.2692C296.296 54.1238 296.296 54.5795 298.176 53.9813C300.141 53.3546 302.99 52.7849 305.753 52.4146C308.003 52.1013 310.168 51.9303 311.763 51.9303C319.312 51.9303 323.898 55.1493 326.092 56.716C331.362 60.4477 334.78 67.6547 334.751 75.1181C334.751 78.8783 332.273 83.6925 334.267 87.6521C336.033 91.1843 339.708 91.9535 342.585 89.5322C338.569 94.8876 331.618 96.5967 325.095 95.7991C324.183 95.6851 323.243 95.4858 322.275 95.2009C318.514 93.2638 318.23 89.9879 317.973 87.1108C317.774 84.7465 317.546 82.3251 315.039 81.8409C311.251 81.1002 310.168 85.715 311.592 89.1049C313.928 94.7166 320.195 97.3659 324.838 97.9356C331.162 98.7047 337.23 97.1949 341.474 93.8051C343.212 92.4093 344.608 90.7286 345.633 88.82C346.317 94.4603 348.652 99.5023 355.005 100.528C348.652 98.5623 354.207 83.4646 352.868 74.6908V74.6623ZM329.254 56.5451C333.811 59.4222 337.572 63.1254 339.964 66.8001C344.038 73.0386 344.778 80.559 343.383 84.4616C341.588 89.5037 337.771 89.9025 336.147 86.655C334.609 83.607 336.859 78.9068 336.859 75.0896C336.859 67.9111 333.925 60.9035 329.254 56.5451Z" fill="#800000"/>
<defs>
<linearGradient id="paint0_linear_618_22698" x1="214" y1="0" x2="214" y2="149.535" gradientUnits="userSpaceOnUse">
<stop stop-color="#F4DDC0"/>
<stop offset="1" stop-color="#DFB075"/>
</linearGradient>
<linearGradient id="paint1_linear_618_22698" x1="214" y1="0" x2="214" y2="149.535" gradientUnits="userSpaceOnUse">
<stop stop-color="#F4DDC0"/>
<stop offset="1" stop-color="#DFB075"/>
</linearGradient>
<linearGradient id="paint2_linear_618_22698" x1="214" y1="0" x2="214" y2="149.535" gradientUnits="userSpaceOnUse">
<stop stop-color="#F4DDC0"/>
<stop offset="1" stop-color="#DFB075"/>
</linearGradient>
<linearGradient id="paint3_linear_618_22698" x1="214" y1="0" x2="214" y2="149.535" gradientUnits="userSpaceOnUse">
<stop stop-color="#F4DDC0"/>
<stop offset="1" stop-color="#DFB075"/>
</linearGradient>
<linearGradient id="paint4_linear_618_22698" x1="214" y1="0" x2="214" y2="149.535" gradientUnits="userSpaceOnUse">
<stop stop-color="#F4DDC0"/>
<stop offset="1" stop-color="#DFB075"/>
</linearGradient>
<linearGradient id="paint5_linear_618_22698" x1="214" y1="0" x2="214" y2="149.535" gradientUnits="userSpaceOnUse">
<stop stop-color="#F4DDC0"/>
<stop offset="1" stop-color="#DFB075"/>
</linearGradient>
<linearGradient id="paint6_linear_618_22698" x1="214" y1="0" x2="214" y2="149.535" gradientUnits="userSpaceOnUse">
<stop stop-color="#F4DDC0"/>
<stop offset="1" stop-color="#DFB075"/>
</linearGradient>
<linearGradient id="paint7_linear_618_22698" x1="214" y1="0" x2="214" y2="149.535" gradientUnits="userSpaceOnUse">
<stop stop-color="#F4DDC0"/>
<stop offset="1" stop-color="#DFB075"/>
</linearGradient>
<linearGradient id="paint8_linear_618_22698" x1="214" y1="0" x2="214" y2="149.535" gradientUnits="userSpaceOnUse">
<stop stop-color="#F4DDC0"/>
<stop offset="1" stop-color="#DFB075"/>
</linearGradient>
<linearGradient id="paint9_linear_618_22698" x1="214" y1="0" x2="214" y2="149.535" gradientUnits="userSpaceOnUse">
<stop stop-color="#F4DDC0"/>
<stop offset="1" stop-color="#DFB075"/>
</linearGradient>
<linearGradient id="paint10_linear_618_22698" x1="214" y1="0" x2="214" y2="149.535" gradientUnits="userSpaceOnUse">
<stop stop-color="#F4DDC0"/>
<stop offset="1" stop-color="#DFB075"/>
</linearGradient>
<linearGradient id="paint11_linear_618_22698" x1="214" y1="0" x2="214" y2="149.535" gradientUnits="userSpaceOnUse">
<stop stop-color="#F4DDC0"/>
<stop offset="1" stop-color="#DFB075"/>
</linearGradient>
<linearGradient id="paint12_linear_618_22698" x1="214" y1="0" x2="214" y2="149.535" gradientUnits="userSpaceOnUse">
<stop stop-color="#F4DDC0"/>
<stop offset="1" stop-color="#DFB075"/>
</linearGradient>
<linearGradient id="paint13_linear_618_22698" x1="214" y1="0" x2="214" y2="149.535" gradientUnits="userSpaceOnUse">
<stop stop-color="#F4DDC0"/>
<stop offset="1" stop-color="#DFB075"/>
</linearGradient>
<linearGradient id="paint14_linear_618_22698" x1="214" y1="0" x2="214" y2="149.535" gradientUnits="userSpaceOnUse">
<stop stop-color="#F4DDC0"/>
<stop offset="1" stop-color="#DFB075"/>
</linearGradient>
<linearGradient id="paint15_linear_618_22698" x1="214" y1="0" x2="214" y2="149.535" gradientUnits="userSpaceOnUse">
<stop stop-color="#F4DDC0"/>
<stop offset="1" stop-color="#DFB075"/>
</linearGradient>
<linearGradient id="paint16_linear_618_22698" x1="214" y1="0" x2="214" y2="149.535" gradientUnits="userSpaceOnUse">
<stop stop-color="#F4DDC0"/>
<stop offset="1" stop-color="#DFB075"/>
</linearGradient>
<linearGradient id="paint17_linear_618_22698" x1="214" y1="0" x2="214" y2="149.535" gradientUnits="userSpaceOnUse">
<stop stop-color="#F4DDC0"/>
<stop offset="1" stop-color="#DFB075"/>
</linearGradient>
<linearGradient id="paint18_linear_618_22698" x1="214" y1="0" x2="214" y2="149.535" gradientUnits="userSpaceOnUse">
<stop stop-color="#F4DDC0"/>
<stop offset="1" stop-color="#DFB075"/>
</linearGradient>
<linearGradient id="paint19_linear_618_22698" x1="214" y1="0" x2="214" y2="149.535" gradientUnits="userSpaceOnUse">
<stop stop-color="#F4DDC0"/>
<stop offset="1" stop-color="#DFB075"/>
</linearGradient>
<linearGradient id="paint20_linear_618_22698" x1="214" y1="0" x2="214" y2="149.535" gradientUnits="userSpaceOnUse">
<stop stop-color="#F4DDC0"/>
<stop offset="1" stop-color="#DFB075"/>
</linearGradient>
<linearGradient id="paint21_linear_618_22698" x1="214" y1="0" x2="214" y2="149.535" gradientUnits="userSpaceOnUse">
<stop stop-color="#F4DDC0"/>
<stop offset="1" stop-color="#DFB075"/>
</linearGradient>
<linearGradient id="paint22_linear_618_22698" x1="214" y1="0" x2="214" y2="149.535" gradientUnits="userSpaceOnUse">
<stop stop-color="#F4DDC0"/>
<stop offset="1" stop-color="#DFB075"/>
</linearGradient>
<linearGradient id="paint23_linear_618_22698" x1="214" y1="0" x2="214" y2="149.535" gradientUnits="userSpaceOnUse">
<stop stop-color="#F4DDC0"/>
<stop offset="1" stop-color="#DFB075"/>
</linearGradient>
<linearGradient id="paint24_linear_618_22698" x1="214" y1="0" x2="214" y2="149.535" gradientUnits="userSpaceOnUse">
<stop stop-color="#F4DDC0"/>
<stop offset="1" stop-color="#DFB075"/>
</linearGradient>
<linearGradient id="paint25_linear_618_22698" x1="214" y1="0" x2="214" y2="149.535" gradientUnits="userSpaceOnUse">
<stop stop-color="#F4DDC0"/>
<stop offset="1" stop-color="#DFB075"/>
</linearGradient>
<linearGradient id="paint26_linear_618_22698" x1="214" y1="0" x2="214" y2="149.535" gradientUnits="userSpaceOnUse">
<stop stop-color="#F4DDC0"/>
<stop offset="1" stop-color="#DFB075"/>
</linearGradient>
<linearGradient id="paint27_linear_618_22698" x1="214" y1="0" x2="214" y2="149.535" gradientUnits="userSpaceOnUse">
<stop stop-color="#F4DDC0"/>
<stop offset="1" stop-color="#DFB075"/>
</linearGradient>
<linearGradient id="paint28_linear_618_22698" x1="214" y1="0" x2="214" y2="149.535" gradientUnits="userSpaceOnUse">
<stop stop-color="#F4DDC0"/>
<stop offset="1" stop-color="#DFB075"/>
</linearGradient>
<linearGradient id="paint29_linear_618_22698" x1="214" y1="0" x2="214" y2="149.535" gradientUnits="userSpaceOnUse">
<stop stop-color="#F4DDC0"/>
<stop offset="1" stop-color="#DFB075"/>
</linearGradient>
<linearGradient id="paint30_linear_618_22698" x1="214" y1="0" x2="214" y2="149.535" gradientUnits="userSpaceOnUse">
<stop stop-color="#F4DDC0"/>
<stop offset="1" stop-color="#DFB075"/>
</linearGradient>
<linearGradient id="paint31_linear_618_22698" x1="214" y1="0" x2="214" y2="149.535" gradientUnits="userSpaceOnUse">
<stop stop-color="#F4DDC0"/>
<stop offset="1" stop-color="#DFB075"/>
</linearGradient>
<linearGradient id="paint32_linear_618_22698" x1="214" y1="0" x2="214" y2="149.535" gradientUnits="userSpaceOnUse">
<stop stop-color="#F4DDC0"/>
<stop offset="1" stop-color="#DFB075"/>
</linearGradient>
<linearGradient id="paint33_linear_618_22698" x1="214" y1="0" x2="214" y2="149.535" gradientUnits="userSpaceOnUse">
<stop stop-color="#F4DDC0"/>
<stop offset="1" stop-color="#DFB075"/>
</linearGradient>
<linearGradient id="paint34_linear_618_22698" x1="214" y1="0" x2="214" y2="149.535" gradientUnits="userSpaceOnUse">
<stop stop-color="#F4DDC0"/>
<stop offset="1" stop-color="#DFB075"/>
</linearGradient>
<linearGradient id="paint35_linear_618_22698" x1="214" y1="0" x2="214" y2="149.535" gradientUnits="userSpaceOnUse">
<stop stop-color="#F4DDC0"/>
<stop offset="1" stop-color="#DFB075"/>
</linearGradient>
<linearGradient id="paint36_linear_618_22698" x1="214" y1="0" x2="214" y2="149.535" gradientUnits="userSpaceOnUse">
<stop stop-color="#F4DDC0"/>
<stop offset="1" stop-color="#DFB075"/>
</linearGradient>
</defs>
</svg>
