<svg width="428" height="211" viewBox="0 0 428 211" fill="none" xmlns="http://www.w3.org/2000/svg">
<g filter="url(#filter0_d_662_9)">
<path d="M142.121 178.09C142.699 178.09 143.223 177.957 143.691 177.691C144.16 177.418 144.52 177.148 144.77 176.883C145.348 176.266 145.637 175.523 145.637 174.656C145.637 173.297 145.191 172.262 144.301 171.551C143.41 170.832 142.211 170.473 140.703 170.473H139.133C139.031 170.473 138.98 170.363 138.98 170.145V168.82C138.98 168.602 139.031 168.492 139.133 168.492H140.703C141.93 168.492 142.828 168.168 143.398 167.52C143.969 166.871 144.254 166.172 144.254 165.422C144.254 164.953 144.168 164.543 143.996 164.191C143.832 163.832 143.562 163.516 143.188 163.242C142.82 162.961 142.441 162.793 142.051 162.738L141.793 162.703H139.051C138.871 162.703 138.715 162.762 138.582 162.879C138.449 162.988 138.383 163.129 138.383 163.301V177.492C138.383 177.664 138.449 177.809 138.582 177.926C138.715 178.035 138.871 178.09 139.051 178.09H142.121ZM141.688 180H135.348C135.246 180 135.195 179.934 135.195 179.801C135.195 179.66 135.211 179.578 135.242 179.555C135.281 179.523 135.332 179.496 135.395 179.473C135.457 179.441 135.535 179.379 135.629 179.285C135.73 179.184 135.836 179.004 135.945 178.746C136.055 178.48 136.109 178.215 136.109 177.949V162.855C136.109 162.285 135.922 161.812 135.547 161.438C135.516 161.406 135.449 161.367 135.348 161.32C135.246 161.273 135.195 161.176 135.195 161.027C135.195 160.879 135.246 160.805 135.348 160.805H141.629C142.293 160.805 142.93 160.934 143.539 161.191C144.148 161.449 144.664 161.789 145.086 162.211C146.016 163.141 146.48 164.141 146.48 165.211C146.48 166.023 146.277 166.719 145.871 167.297C145.465 167.867 144.797 168.496 143.867 169.184V169.43C146.594 170.547 147.957 172.281 147.957 174.633C147.957 175.883 147.398 177.07 146.281 178.195C145.758 178.727 145.094 179.16 144.289 179.496C143.484 179.832 142.617 180 141.688 180ZM149.773 170.789L149.785 170.578C149.785 170.539 149.805 170.508 149.844 170.484C149.891 170.453 149.918 170.434 149.926 170.426L152.035 168.867C152.066 168.844 152.152 168.832 152.293 168.832C152.441 168.832 152.543 168.852 152.598 168.891C152.652 168.922 152.68 169.023 152.68 169.195V171.211C152.727 171.133 152.789 171.047 152.867 170.953C153.43 170.25 154.016 169.707 154.625 169.324C155.234 168.941 155.93 168.75 156.711 168.75C156.961 168.75 157.098 168.781 157.121 168.844C157.254 169.203 157.363 169.543 157.449 169.863L157.812 171.246C157.836 171.332 157.773 171.418 157.625 171.504C157.484 171.582 157.375 171.617 157.297 171.609C157.219 171.602 157.137 171.527 157.051 171.387L156.922 171.176C156.5 170.785 156.008 170.633 155.445 170.719C154.891 170.797 154.363 171 153.863 171.328C153.371 171.656 153.008 172.012 152.773 172.395C152.766 172.41 152.746 172.441 152.715 172.488C152.691 172.527 152.68 172.555 152.68 172.57V177.949C152.68 177.988 152.676 178.074 152.668 178.207C152.668 178.332 152.668 178.414 152.668 178.453C152.73 178.945 152.898 179.25 153.172 179.367C153.445 179.484 153.586 179.586 153.594 179.672C153.594 179.891 153.543 180 153.441 180H149.973C149.871 180 149.82 179.93 149.82 179.789C149.82 179.648 149.852 179.559 149.914 179.52C149.977 179.48 150.055 179.441 150.148 179.402C150.25 179.363 150.328 179.316 150.383 179.262C150.5 179.145 150.59 179.012 150.652 178.863C150.723 178.707 150.754 178.523 150.746 178.312C150.746 178.102 150.746 177.98 150.746 177.949V171.75C150.738 171.492 150.672 171.312 150.547 171.211C150.43 171.102 150.301 171.043 150.16 171.035C150.02 171.027 149.926 171.008 149.879 170.977C149.809 170.922 149.773 170.859 149.773 170.789ZM161.926 162.996V163.945C161.926 164.023 161.906 164.078 161.867 164.109C161.828 164.141 161.66 164.211 161.363 164.32C161.074 164.43 160.859 164.52 160.719 164.59C160.578 164.66 160.457 164.711 160.355 164.742C160.262 164.773 160.203 164.777 160.18 164.754C160.156 164.723 160.145 164.57 160.145 164.297V163.184C160.145 163.16 160.141 163.125 160.133 163.078C160.133 163.031 160.133 163 160.133 162.984C160.141 162.969 160.145 162.945 160.145 162.914C160.152 162.883 160.172 162.852 160.203 162.82C160.234 162.789 160.395 162.719 160.684 162.609C160.98 162.5 161.199 162.41 161.34 162.34C161.66 162.191 161.836 162.137 161.867 162.176C161.906 162.207 161.926 162.48 161.926 162.996ZM159.254 180C159.152 180 159.102 179.93 159.102 179.789C159.102 179.648 159.133 179.559 159.195 179.52C159.258 179.48 159.34 179.441 159.441 179.402C159.824 179.246 160.02 178.871 160.027 178.277V171.75C160.027 171.5 159.965 171.32 159.84 171.211C159.715 171.102 159.582 171.043 159.441 171.035C159.301 171.027 159.203 171.004 159.148 170.965C159.094 170.926 159.066 170.848 159.066 170.73C159.066 170.605 159.07 170.535 159.078 170.52C159.094 170.504 159.117 170.488 159.148 170.473C159.18 170.449 159.199 170.434 159.207 170.426L161.316 168.867C161.371 168.828 161.414 168.82 161.445 168.844C161.477 168.859 161.57 168.891 161.727 168.938C161.883 168.984 161.961 169.07 161.961 169.195V178.324C161.961 178.895 162.152 179.254 162.535 179.402C162.762 179.496 162.875 179.586 162.875 179.672C162.875 179.891 162.824 180 162.723 180H159.254ZM172.473 162.762L172.484 162.551C172.484 162.512 172.504 162.48 172.543 162.457C172.59 162.426 172.617 162.406 172.625 162.398L174.734 160.84C174.766 160.816 174.848 160.805 174.98 160.805C175.121 160.805 175.223 160.824 175.285 160.863C175.348 160.895 175.379 160.996 175.379 161.168C175.379 168.207 175.391 173.652 175.414 177.504C175.438 177.629 175.426 177.688 175.379 177.68C175.371 177.68 175.391 177.703 175.438 177.75C175.492 177.789 175.59 177.812 175.73 177.82C175.871 177.828 175.965 177.852 176.012 177.891C176.059 177.922 176.082 178.012 176.082 178.16C176.082 178.301 176.062 178.383 176.023 178.406L174.078 180C174.047 180.023 173.945 180.035 173.773 180.035C173.609 180.035 173.508 180.02 173.469 179.988C173.438 179.949 173.422 179.898 173.422 179.836C173.422 179.766 173.426 179.699 173.434 179.637C173.449 179.566 173.445 179.48 173.422 179.379C173.398 179.277 173.367 179.223 173.328 179.215C173.297 179.199 173.234 179.223 173.141 179.285L172.824 179.484C172.027 179.969 171.223 180.211 170.41 180.211C169.598 180.211 168.844 180.062 168.148 179.766C167.461 179.469 166.855 179.07 166.332 178.57C165.816 178.07 165.398 177.469 165.078 176.766C164.766 176.062 164.609 175.23 164.609 174.27C164.609 173.309 164.855 172.375 165.348 171.469C165.84 170.562 166.547 169.855 167.469 169.348C168.391 168.84 169.453 168.586 170.656 168.586C171.133 168.586 171.633 168.703 172.156 168.938C172.688 169.164 173.09 169.414 173.363 169.688H173.492C173.492 167.141 173.477 165.152 173.445 163.723C173.445 163.473 173.383 163.293 173.258 163.184C173.133 163.074 173 163.016 172.859 163.008C172.719 163 172.625 162.977 172.578 162.938C172.508 162.891 172.473 162.832 172.473 162.762ZM173.434 177.34L173.469 172.23C173.102 171.59 172.574 171.086 171.887 170.719C171.199 170.352 170.426 170.168 169.566 170.168C168.434 170.168 167.523 170.746 166.836 171.902C166.477 172.52 166.297 173.105 166.297 173.66C166.297 175.105 166.746 176.285 167.645 177.199C168.543 178.105 169.699 178.559 171.113 178.559C171.512 178.559 171.922 178.438 172.344 178.195C172.773 177.953 173.137 177.668 173.434 177.34ZM185.809 171.855C185.348 170.535 184.352 169.875 182.82 169.875C182.125 169.875 181.488 170.062 180.91 170.438C180.332 170.805 179.887 171.277 179.574 171.855C179.27 172.426 179.117 172.965 179.117 173.473C179.117 173.98 179.133 174.23 179.164 174.223L185.785 171.914V171.844L185.809 171.855ZM179.422 175.465C179.758 176.387 180.324 177.109 181.121 177.633C181.918 178.156 182.824 178.418 183.84 178.418C185.129 178.418 186.305 177.812 187.367 176.602C187.531 176.445 187.773 176.527 188.094 176.848C188.117 176.871 188.113 176.906 188.082 176.953C187.191 178.188 186.5 178.977 186.008 179.32C185.172 179.914 184.207 180.211 183.113 180.211C182.371 180.211 181.652 180.062 180.957 179.766C179.527 179.141 178.508 178.141 177.898 176.766C177.586 176.062 177.43 175.23 177.43 174.27C177.43 173.301 177.672 172.371 178.156 171.48C178.648 170.582 179.355 169.875 180.277 169.359C181.207 168.844 182.273 168.586 183.477 168.586C184.945 168.586 186.25 169.266 187.391 170.625C187.969 171.312 188.258 171.859 188.258 172.266L179.422 175.465ZM204.031 167.707C204.031 167.926 203.98 168.035 203.879 168.035H202.473C201.559 168.035 200.691 168.332 199.871 168.926C198.441 169.965 197.723 171.344 197.715 173.062C197.715 173.766 197.891 174.449 198.242 175.113C198.594 175.77 199.047 176.336 199.602 176.812C200.156 177.281 200.789 177.66 201.5 177.949C202.219 178.23 202.871 178.371 203.457 178.371C204.043 178.371 204.539 178.309 204.945 178.184C205.352 178.059 205.695 177.895 205.977 177.691C206.266 177.488 206.527 177.25 206.762 176.977C207.16 176.508 207.453 175.984 207.641 175.406C207.836 174.82 207.93 174.363 207.922 174.035C207.922 173.699 207.773 173.516 207.477 173.484H203.516C202.633 173.484 202.09 173.562 201.887 173.719C201.691 173.867 201.551 174 201.465 174.117C201.387 174.234 201.324 174.293 201.277 174.293C201.238 174.293 201.16 174.273 201.043 174.234C200.934 174.195 200.879 174.16 200.879 174.129C200.879 174.098 200.934 173.961 201.043 173.719L201.418 172.852C201.559 172.523 201.656 172.266 201.711 172.078C201.766 171.883 201.832 171.773 201.91 171.75H212.785C213.348 171.75 213.816 171.562 214.191 171.188C214.223 171.156 214.262 171.09 214.309 170.988C214.363 170.887 214.461 170.836 214.602 170.836C214.75 170.836 214.824 170.891 214.824 171C214.691 171.914 214.523 172.645 214.32 173.191C214.25 173.371 214.109 173.469 213.898 173.484C213.43 173.516 212.793 173.512 211.988 173.473C211.184 173.426 210.574 173.426 210.16 173.473C209.746 173.52 209.539 173.664 209.539 173.906C209.539 174.992 209.23 176.117 208.613 177.281C207.504 179.375 205.629 180.422 202.988 180.422C202.152 180.422 201.293 180.25 200.41 179.906C199.527 179.562 198.758 179.086 198.102 178.477C197.453 177.867 196.938 177.117 196.555 176.227C196.172 175.328 195.98 174.461 195.98 173.625C195.98 172.781 196.059 172.078 196.215 171.516C196.496 170.5 196.938 169.672 197.539 169.031C198.141 168.391 198.832 167.805 199.613 167.273V167.203C198.895 166.641 198.434 166.156 198.23 165.75C198.027 165.336 197.926 164.852 197.926 164.297C197.926 163.133 198.289 162.188 199.016 161.461C199.75 160.734 200.672 160.371 201.781 160.371C202.172 160.371 202.66 160.477 203.246 160.688C203.363 160.734 203.492 160.711 203.633 160.617C203.773 160.523 203.922 160.477 204.078 160.477C204.242 160.477 204.363 160.551 204.441 160.699C204.473 160.723 204.484 160.805 204.477 160.945C204.469 161.125 204.562 161.645 204.758 162.504L205.051 163.781C205.129 164.125 205.168 164.344 205.168 164.438C205.168 164.484 205.066 164.559 204.863 164.66C204.668 164.754 204.555 164.773 204.523 164.719L203.75 163.02C203.359 162.332 202.781 161.988 202.016 161.988C201.258 161.988 200.676 162.191 200.27 162.598C199.863 162.996 199.66 163.551 199.66 164.262C199.66 164.66 199.801 165.031 200.082 165.375C200.668 166.086 201.465 166.441 202.473 166.441H203.879C203.98 166.441 204.031 166.551 204.031 166.77V167.707ZM239.398 177.879C239.398 177.957 239.34 177.996 239.223 177.996C239.113 177.996 239.039 178.004 239 178.02C238.172 178.684 237.164 179.258 235.977 179.742C234.789 180.219 233.531 180.457 232.203 180.457C230.875 180.457 229.59 180.184 228.348 179.637C227.105 179.082 226.059 178.344 225.207 177.422C224.355 176.5 223.684 175.422 223.191 174.188C222.707 172.945 222.465 171.66 222.465 170.332C222.465 169.004 222.727 167.734 223.25 166.523C223.781 165.305 224.488 164.254 225.371 163.371C226.254 162.48 227.301 161.77 228.512 161.238C229.723 160.699 230.945 160.43 232.18 160.43C233.648 160.43 235.129 160.711 236.621 161.273L237.16 161.484C237.238 161.516 237.348 161.484 237.488 161.391C237.629 161.297 237.777 161.25 237.934 161.25C238.098 161.25 238.219 161.324 238.297 161.473C238.328 161.496 238.34 161.578 238.332 161.719C238.316 161.938 238.41 162.461 238.613 163.289L238.906 164.555C238.984 164.898 239.023 165.117 239.023 165.211C239.023 165.258 238.922 165.332 238.719 165.434C238.523 165.527 238.41 165.547 238.379 165.492C237.73 164.359 236.914 163.578 235.93 163.148C234.953 162.719 233.73 162.504 232.262 162.504C230.801 162.504 229.48 162.836 228.301 163.5C227.121 164.164 226.211 165.09 225.57 166.277C224.93 167.457 224.609 168.797 224.609 170.297C224.609 171.281 224.836 172.277 225.289 173.285C225.742 174.285 226.324 175.164 227.035 175.922C227.754 176.68 228.586 177.301 229.531 177.785C230.477 178.262 231.387 178.5 232.262 178.5C233.137 178.5 234.102 178.281 235.156 177.844C236.211 177.398 236.867 177.023 237.125 176.719V171.926C237.125 171.355 236.938 170.883 236.562 170.508C236.531 170.477 236.465 170.438 236.363 170.391C236.262 170.344 236.211 170.246 236.211 170.098C236.211 169.949 236.262 169.875 236.363 169.875H240.16C240.262 169.875 240.312 169.945 240.312 170.086C240.312 170.219 240.293 170.301 240.254 170.332C240.223 170.355 240.176 170.383 240.113 170.414C240.051 170.438 239.969 170.5 239.867 170.602C239.773 170.695 239.672 170.875 239.562 171.141C239.453 171.398 239.398 171.66 239.398 171.926V177.879ZM242.609 170.789L242.621 170.578C242.621 170.539 242.641 170.508 242.68 170.484C242.727 170.453 242.754 170.434 242.762 170.426L244.871 168.867C244.902 168.844 244.988 168.832 245.129 168.832C245.277 168.832 245.379 168.852 245.434 168.891C245.488 168.922 245.516 169.023 245.516 169.195V171.211C245.562 171.133 245.625 171.047 245.703 170.953C246.266 170.25 246.852 169.707 247.461 169.324C248.07 168.941 248.766 168.75 249.547 168.75C249.797 168.75 249.934 168.781 249.957 168.844C250.09 169.203 250.199 169.543 250.285 169.863L250.648 171.246C250.672 171.332 250.609 171.418 250.461 171.504C250.32 171.582 250.211 171.617 250.133 171.609C250.055 171.602 249.973 171.527 249.887 171.387L249.758 171.176C249.336 170.785 248.844 170.633 248.281 170.719C247.727 170.797 247.199 171 246.699 171.328C246.207 171.656 245.844 172.012 245.609 172.395C245.602 172.41 245.582 172.441 245.551 172.488C245.527 172.527 245.516 172.555 245.516 172.57V177.949C245.516 177.988 245.512 178.074 245.504 178.207C245.504 178.332 245.504 178.414 245.504 178.453C245.566 178.945 245.734 179.25 246.008 179.367C246.281 179.484 246.422 179.586 246.43 179.672C246.43 179.891 246.379 180 246.277 180H242.809C242.707 180 242.656 179.93 242.656 179.789C242.656 179.648 242.688 179.559 242.75 179.52C242.812 179.48 242.891 179.441 242.984 179.402C243.086 179.363 243.164 179.316 243.219 179.262C243.336 179.145 243.426 179.012 243.488 178.863C243.559 178.707 243.59 178.523 243.582 178.312C243.582 178.102 243.582 177.98 243.582 177.949V171.75C243.574 171.492 243.508 171.312 243.383 171.211C243.266 171.102 243.137 171.043 242.996 171.035C242.855 171.027 242.762 171.008 242.715 170.977C242.645 170.922 242.609 170.859 242.609 170.789ZM254.668 170.66C254.16 170.98 253.785 171.402 253.543 171.926C253.301 172.441 253.18 173.098 253.18 173.895C253.18 174.691 253.398 175.488 253.836 176.285C254.281 177.082 254.887 177.715 255.652 178.184C256.426 178.645 257.191 178.875 257.949 178.875C258.715 178.875 259.336 178.703 259.812 178.359C260.297 178.016 260.664 177.57 260.914 177.023C261.172 176.477 261.301 175.875 261.301 175.219C261.301 173.836 260.859 172.648 259.977 171.656C259.102 170.664 257.926 170.168 256.449 170.168C255.77 170.168 255.176 170.332 254.668 170.66ZM253.215 178.57C252.699 178.07 252.281 177.469 251.961 176.766C251.648 176.062 251.492 175.23 251.492 174.27C251.492 173.309 251.738 172.375 252.23 171.469C252.723 170.562 253.43 169.855 254.352 169.348C255.273 168.84 256.23 168.586 257.223 168.586C259.035 168.586 260.477 169.156 261.547 170.297C262.617 171.43 263.152 172.809 263.152 174.434C263.16 176.059 262.598 177.43 261.465 178.547C260.332 179.656 258.902 180.211 257.176 180.211C256.441 180.211 255.727 180.062 255.031 179.766C254.344 179.469 253.738 179.07 253.215 178.57ZM267.605 170.66C267.098 170.98 266.723 171.402 266.48 171.926C266.238 172.441 266.117 173.098 266.117 173.895C266.117 174.691 266.336 175.488 266.773 176.285C267.219 177.082 267.824 177.715 268.59 178.184C269.363 178.645 270.129 178.875 270.887 178.875C271.652 178.875 272.273 178.703 272.75 178.359C273.234 178.016 273.602 177.57 273.852 177.023C274.109 176.477 274.238 175.875 274.238 175.219C274.238 173.836 273.797 172.648 272.914 171.656C272.039 170.664 270.863 170.168 269.387 170.168C268.707 170.168 268.113 170.332 267.605 170.66ZM266.152 178.57C265.637 178.07 265.219 177.469 264.898 176.766C264.586 176.062 264.43 175.23 264.43 174.27C264.43 173.309 264.676 172.375 265.168 171.469C265.66 170.562 266.367 169.855 267.289 169.348C268.211 168.84 269.168 168.586 270.16 168.586C271.973 168.586 273.414 169.156 274.484 170.297C275.555 171.43 276.09 172.809 276.09 174.434C276.098 176.059 275.535 177.43 274.402 178.547C273.27 179.656 271.84 180.211 270.113 180.211C269.379 180.211 268.664 180.062 267.969 179.766C267.281 179.469 266.676 179.07 266.152 178.57ZM277.719 170.789L277.73 170.578C277.73 170.539 277.75 170.508 277.789 170.484C277.836 170.453 277.863 170.434 277.871 170.426L279.98 168.867C280.012 168.844 280.098 168.832 280.238 168.832C280.379 168.832 280.477 168.852 280.531 168.891C280.586 168.922 280.613 169.023 280.613 169.195V170.062C282.035 169.164 283.332 168.715 284.504 168.715C285.043 168.715 285.543 168.852 286.004 169.125C286.465 169.398 286.836 169.773 287.117 170.25C290.016 168.391 292.156 168.219 293.539 169.734C294.156 170.406 294.465 171.223 294.465 172.184V178.453C294.465 178.625 294.512 178.809 294.605 179.004C294.699 179.191 294.852 179.328 295.062 179.414C295.273 179.5 295.379 179.586 295.379 179.672C295.379 179.891 295.328 180 295.227 180H291.793C291.691 180 291.641 179.93 291.641 179.789C291.641 179.648 291.672 179.559 291.734 179.52C291.805 179.48 291.887 179.441 291.98 179.402C292.082 179.363 292.164 179.312 292.227 179.25C292.297 179.188 292.355 179.117 292.402 179.039C292.449 178.961 292.48 178.871 292.496 178.77C292.52 178.668 292.531 178.594 292.531 178.547C292.539 178.492 292.539 178.391 292.531 178.242C292.531 178.094 292.531 177.996 292.531 177.949V172.477C292.523 171.711 292.371 171.152 292.074 170.801C291.777 170.441 291.301 170.262 290.645 170.262C289.598 170.262 288.543 170.527 287.48 171.059C287.59 171.426 287.645 171.801 287.645 172.184V178.453C287.645 178.625 287.691 178.809 287.785 179.004C287.879 179.191 288.031 179.328 288.242 179.414C288.453 179.5 288.559 179.586 288.559 179.672C288.559 179.891 288.508 180 288.406 180H284.961C284.859 180 284.809 179.93 284.809 179.789C284.809 179.648 284.84 179.559 284.902 179.52C284.973 179.48 285.055 179.441 285.148 179.402C285.25 179.363 285.332 179.312 285.395 179.25C285.465 179.188 285.523 179.121 285.57 179.051C285.617 178.973 285.652 178.879 285.676 178.77C285.699 178.66 285.711 178.586 285.711 178.547C285.719 178.508 285.719 178.406 285.711 178.242C285.711 178.078 285.711 177.98 285.711 177.949V172.477C285.703 171.703 285.551 171.141 285.254 170.789C284.965 170.438 284.391 170.262 283.531 170.262C282.68 170.262 281.707 170.535 280.613 171.082V178.453C280.613 178.625 280.652 178.809 280.73 179.004C280.816 179.191 280.969 179.328 281.188 179.414C281.406 179.5 281.516 179.586 281.516 179.672C281.516 179.891 281.465 180 281.363 180H277.918C277.816 180 277.766 179.93 277.766 179.789C277.766 179.648 277.797 179.559 277.859 179.52C277.93 179.48 278.012 179.441 278.105 179.402C278.207 179.363 278.285 179.316 278.34 179.262C278.402 179.199 278.457 179.133 278.504 179.062C278.551 178.984 278.586 178.922 278.609 178.875C278.633 178.82 278.648 178.746 278.656 178.652C278.672 178.551 278.68 178.484 278.68 178.453C278.688 178.414 278.688 178.332 278.68 178.207C278.68 178.074 278.68 177.988 278.68 177.949V171.75C278.656 171.289 278.465 171.051 278.105 171.035C277.855 171.027 277.727 170.945 277.719 170.789Z" fill="#7B4200"/>
</g>
<g filter="url(#filter1_d_662_9)">
<rect x="337.95" y="182.745" width="0.490196" height="4.0098" rx="0.245098" fill="url(#paint0_linear_662_9)" stroke="#7A4200" stroke-width="0.490196"/>
<rect x="332.56" y="182.745" width="0.490196" height="4.0098" rx="0.245098" fill="url(#paint1_linear_662_9)" stroke="#7A4200" stroke-width="0.490196"/>
<rect x="327.657" y="182.745" width="0.490196" height="4.0098" rx="0.245098" fill="url(#paint2_linear_662_9)" stroke="#7A4200" stroke-width="0.490196"/>
<rect x="342.608" y="182.745" width="0.490196" height="4.0098" rx="0.245098" fill="url(#paint3_linear_662_9)" stroke="#7A4200" stroke-width="0.490196"/>
<path d="M343.343 182.95L344.937 171.475H343.588H342.608H341.628H340.647H339.422L338.319 182.95H343.343Z" fill="url(#paint4_linear_662_9)"/>
<path d="M327.412 182.95L325.941 171.25H327.289H328.27H329.25H330.231H331.456L332.682 182.95H327.412Z" fill="url(#paint5_linear_662_9)"/>
<path d="M340.647 171.475H339.422L338.319 182.95H343.343L344.937 171.475H343.588M340.647 171.475L340.157 175.3M340.647 171.475H341.628M341.628 171.475L341.015 177.1M341.628 171.475H342.608M342.608 171.475L341.75 179.125M342.608 171.475H343.588M343.588 171.475L342.608 182.05M330.231 171.25H331.456L332.682 182.95H327.412L325.941 171.25H327.289M330.231 171.25L330.721 175.075M330.231 171.25H329.25M329.25 171.25L329.863 176.875M329.25 171.25H328.27M328.27 171.25L329.128 178.9M328.27 171.25H327.289M327.289 171.25L328.27 181.825" stroke="#7A4200" stroke-width="0.5" stroke-linecap="round"/>
<path d="M335.498 162.475V158.13C341.262 158.13 343.946 153.377 344.567 151L341.834 162.475H335.498Z" fill="url(#paint6_linear_662_9)"/>
<path d="M335.498 162.475V158.13C329.734 158.13 327.051 153.377 326.43 151L329.163 162.475H335.498Z" fill="url(#paint7_linear_662_9)"/>
<path d="M335.498 158.13V162.475M335.498 158.13C341.262 158.13 343.946 153.377 344.567 151L341.834 162.475H335.498M335.498 158.13C329.734 158.13 327.051 153.377 326.43 151L329.163 162.475H335.498" stroke="#7A4200" stroke-width="0.5"/>
<path d="M335.5 171.475V167.65C348 167.65 347.51 160.787 348 160.45L345.426 171.475H335.5Z" fill="url(#paint8_linear_662_9)"/>
<path d="M335.5 171.475V167.65C323 167.65 323.49 160.787 323 160.45L325.574 171.475H335.5Z" fill="url(#paint9_linear_662_9)"/>
<path d="M335.5 167.65V171.475M335.5 167.65C348 167.65 347.51 160.787 348 160.45L345.426 171.475H335.5M335.5 167.65C323 167.65 323.49 160.787 323 160.45L325.574 171.475H335.5" stroke="#7A4200" stroke-width="0.5"/>
<path d="M340.157 162.475L339.426 170.013L338.128 183.4H336.814H335.501V177.775V170.013V162.475H337.247H338.411H340.157Z" fill="url(#paint10_linear_662_9)"/>
<path d="M330.844 162.475L331.575 170.013L332.874 183.4H334.187H335.501V177.775V170.013V162.475H333.754H332.59H330.844Z" fill="url(#paint11_linear_662_9)"/>
<path d="M339.426 170.013L340.157 162.475H338.411M339.426 170.013L338.128 183.4M339.426 170.013L335.501 177.775M339.426 170.013H337.463M338.128 183.4L335.501 177.775M338.128 183.4H336.814M335.501 183.4V177.775M335.501 183.4H336.814M335.501 183.4H334.187M335.501 177.775V170.013M335.501 177.775L331.575 170.013M335.501 177.775L332.874 183.4M335.501 170.013H336.482M335.501 170.013H334.519M335.501 170.013V162.475M337.463 170.013V171.813M337.463 170.013H336.482M336.482 170.013V173.275M338.411 162.475V164.5M338.411 162.475H337.247M335.501 162.475H337.247M335.501 162.475H333.754M337.247 162.475V163.825M336.814 183.4V182.275M331.575 170.013L330.844 162.475H332.59M331.575 170.013L332.874 183.4M331.575 170.013H333.538M332.874 183.4H334.187M333.538 170.013V171.813M333.538 170.013H334.519M334.519 170.013V173.275M332.59 162.475V164.5M332.59 162.475H333.754M333.754 162.475V163.825M334.187 183.4V182.275" stroke="#7A4200" stroke-width="0.5" stroke-linecap="round"/>
<path d="M342.362 170.8C336.747 167.987 335.749 157.975 335.499 157.75V165.512C336.697 168.302 338.91 170.2 339.867 170.8H342.362Z" fill="url(#paint12_linear_662_9)"/>
<path d="M328.637 170.8C334.252 167.987 335.25 157.975 335.499 157.75V165.512C334.302 168.302 332.089 170.2 331.132 170.8H328.637Z" fill="url(#paint13_linear_662_9)"/>
<path d="M335.499 157.75C335.749 157.975 336.747 167.987 342.362 170.8H339.867C338.91 170.2 336.697 168.302 335.499 165.512M335.499 157.75V165.512M335.499 157.75C335.25 157.975 334.252 167.987 328.637 170.8H331.132C332.089 170.2 334.302 168.302 335.499 165.512" stroke="#7A4200" stroke-width="0.5"/>
</g>
<g filter="url(#filter2_d_662_9)">
<rect x="99.9502" y="182.745" width="0.490196" height="4.0098" rx="0.245098" fill="url(#paint14_linear_662_9)" stroke="#7A4200" stroke-width="0.490196"/>
<rect x="94.5596" y="182.745" width="0.490196" height="4.0098" rx="0.245098" fill="url(#paint15_linear_662_9)" stroke="#7A4200" stroke-width="0.490196"/>
<rect x="89.6572" y="182.745" width="0.490196" height="4.0098" rx="0.245098" fill="url(#paint16_linear_662_9)" stroke="#7A4200" stroke-width="0.490196"/>
<rect x="104.608" y="182.745" width="0.490196" height="4.0098" rx="0.245098" fill="url(#paint17_linear_662_9)" stroke="#7A4200" stroke-width="0.490196"/>
<path d="M105.343 182.95L106.937 171.475H105.588H104.608H103.628H102.647H101.422L100.319 182.95H105.343Z" fill="url(#paint18_linear_662_9)"/>
<path d="M89.412 182.95L87.9414 171.25H89.2894H90.2698H91.2502H92.2306H93.4561L94.6816 182.95H89.412Z" fill="url(#paint19_linear_662_9)"/>
<path d="M102.647 171.475H101.422L100.319 182.95H105.343L106.937 171.475H105.588M102.647 171.475L102.157 175.3M102.647 171.475H103.628M103.628 171.475L103.015 177.1M103.628 171.475H104.608M104.608 171.475L103.75 179.125M104.608 171.475H105.588M105.588 171.475L104.608 182.05M92.2306 171.25H93.4561L94.6816 182.95H89.412L87.9414 171.25H89.2894M92.2306 171.25L92.7208 175.075M92.2306 171.25H91.2502M91.2502 171.25L91.863 176.875M91.2502 171.25H90.2698M90.2698 171.25L91.1277 178.9M90.2698 171.25H89.2894M89.2894 171.25L90.2698 181.825" stroke="#7A4200" stroke-width="0.5" stroke-linecap="round"/>
<path d="M97.4983 162.475V158.13C103.262 158.13 105.946 153.377 106.567 151L103.834 162.475H97.4983Z" fill="url(#paint20_linear_662_9)"/>
<path d="M97.4983 162.475V158.13C91.7341 158.13 89.0508 153.377 88.4297 151L91.1627 162.475H97.4983Z" fill="url(#paint21_linear_662_9)"/>
<path d="M97.4983 158.13V162.475M97.4983 158.13C103.262 158.13 105.946 153.377 106.567 151L103.834 162.475H97.4983M97.4983 158.13C91.7341 158.13 89.0508 153.377 88.4297 151L91.1627 162.475H97.4983" stroke="#7A4200" stroke-width="0.5"/>
<path d="M97.5 171.475V167.65C110 167.65 109.51 160.787 110 160.45L107.426 171.475H97.5Z" fill="url(#paint22_linear_662_9)"/>
<path d="M97.5 171.475V167.65C85 167.65 85.4902 160.787 85 160.45L87.5735 171.475H97.5Z" fill="url(#paint23_linear_662_9)"/>
<path d="M97.5 167.65V171.475M97.5 167.65C110 167.65 109.51 160.787 110 160.45L107.426 171.475H97.5M97.5 167.65C85 167.65 85.4902 160.787 85 160.45L87.5735 171.475H97.5" stroke="#7A4200" stroke-width="0.5"/>
<path d="M102.157 162.475L101.426 170.013L100.128 183.4H98.8141H97.5006V177.775V170.013V162.475H99.2469H100.411H102.157Z" fill="url(#paint24_linear_662_9)"/>
<path d="M92.8438 162.475L93.575 170.013L94.8737 183.4H96.1871H97.5006V177.775V170.013V162.475H95.7543H94.5901H92.8438Z" fill="url(#paint25_linear_662_9)"/>
<path d="M101.426 170.013L102.157 162.475H100.411M101.426 170.013L100.128 183.4M101.426 170.013L97.5006 177.775M101.426 170.013H99.4634M100.128 183.4L97.5006 177.775M100.128 183.4H98.8141M97.5006 183.4V177.775M97.5006 183.4H98.8141M97.5006 183.4H96.1871M97.5006 177.775V170.013M97.5006 177.775L93.575 170.013M97.5006 177.775L94.8737 183.4M97.5006 170.013H98.482M97.5006 170.013H96.5192M97.5006 170.013V162.475M99.4634 170.013V171.813M99.4634 170.013H98.482M98.482 170.013V173.275M100.411 162.475V164.5M100.411 162.475H99.2469M97.5006 162.475H99.2469M97.5006 162.475H95.7543M99.2469 162.475V163.825M98.8141 183.4V182.275M93.575 170.013L92.8438 162.475H94.5901M93.575 170.013L94.8737 183.4M93.575 170.013H95.5378M94.8737 183.4H96.1871M95.5378 170.013V171.813M95.5378 170.013H96.5192M96.5192 170.013V173.275M94.5901 162.475V164.5M94.5901 162.475H95.7543M95.7543 162.475V163.825M96.1871 183.4V182.275" stroke="#7A4200" stroke-width="0.5" stroke-linecap="round"/>
<path d="M104.362 170.8C98.7472 167.987 97.749 157.975 97.4995 157.75V165.512C98.6973 168.302 100.91 170.2 101.867 170.8H104.362Z" fill="url(#paint26_linear_662_9)"/>
<path d="M90.6367 170.8C96.2517 167.987 97.2499 157.975 97.4995 157.75V165.512C96.3016 168.302 94.0889 170.2 93.1323 170.8H90.6367Z" fill="url(#paint27_linear_662_9)"/>
<path d="M97.4995 157.75C97.749 157.975 98.7472 167.987 104.362 170.8H101.867C100.91 170.2 98.6973 168.302 97.4995 165.512M97.4995 157.75V165.512M97.4995 157.75C97.2499 157.975 96.2517 167.987 90.6367 170.8H93.1323C94.0889 170.2 96.3016 168.302 97.4995 165.512" stroke="#7A4200" stroke-width="0.5"/>
</g>
<defs>
<filter id="filter0_d_662_9" x="131.195" y="160.371" width="168.184" height="28.0859" filterUnits="userSpaceOnUse" color-interpolation-filters="sRGB">
<feFlood flood-opacity="0" result="BackgroundImageFix"/>
<feColorMatrix in="SourceAlpha" type="matrix" values="0 0 0 0 0 0 0 0 0 0 0 0 0 0 0 0 0 0 127 0" result="hardAlpha"/>
<feOffset dy="4"/>
<feGaussianBlur stdDeviation="2"/>
<feComposite in2="hardAlpha" operator="out"/>
<feColorMatrix type="matrix" values="0 0 0 0 0 0 0 0 0 0 0 0 0 0 0 0 0 0 0.25 0"/>
<feBlend mode="normal" in2="BackgroundImageFix" result="effect1_dropShadow_662_9"/>
<feBlend mode="normal" in="SourceGraphic" in2="effect1_dropShadow_662_9" result="shape"/>
</filter>
<filter id="filter1_d_662_9" x="302.609" y="134.937" width="65.7812" height="76.0632" filterUnits="userSpaceOnUse" color-interpolation-filters="sRGB">
<feFlood flood-opacity="0" result="BackgroundImageFix"/>
<feColorMatrix in="SourceAlpha" type="matrix" values="0 0 0 0 0 0 0 0 0 0 0 0 0 0 0 0 0 0 127 0" result="hardAlpha"/>
<feOffset dy="4"/>
<feGaussianBlur stdDeviation="10"/>
<feComposite in2="hardAlpha" operator="out"/>
<feColorMatrix type="matrix" values="0 0 0 0 0 0 0 0 0 0 0 0 0 0 0 0 0 0 0.7 0"/>
<feBlend mode="normal" in2="BackgroundImageFix" result="effect1_dropShadow_662_9"/>
<feBlend mode="normal" in="SourceGraphic" in2="effect1_dropShadow_662_9" result="shape"/>
</filter>
<filter id="filter2_d_662_9" x="64.6094" y="134.937" width="65.7812" height="76.0632" filterUnits="userSpaceOnUse" color-interpolation-filters="sRGB">
<feFlood flood-opacity="0" result="BackgroundImageFix"/>
<feColorMatrix in="SourceAlpha" type="matrix" values="0 0 0 0 0 0 0 0 0 0 0 0 0 0 0 0 0 0 127 0" result="hardAlpha"/>
<feOffset dy="4"/>
<feGaussianBlur stdDeviation="10"/>
<feComposite in2="hardAlpha" operator="out"/>
<feColorMatrix type="matrix" values="0 0 0 0 0 0 0 0 0 0 0 0 0 0 0 0 0 0 0.7 0"/>
<feBlend mode="normal" in2="BackgroundImageFix" result="effect1_dropShadow_662_9"/>
<feBlend mode="normal" in="SourceGraphic" in2="effect1_dropShadow_662_9" result="shape"/>
</filter>
<linearGradient id="paint0_linear_662_9" x1="338.195" y1="182.5" x2="338.195" y2="187" gradientUnits="userSpaceOnUse">
<stop stop-color="#F4DDC0"/>
<stop offset="1" stop-color="#957C13"/>
</linearGradient>
<linearGradient id="paint1_linear_662_9" x1="332.805" y1="182.5" x2="332.805" y2="187" gradientUnits="userSpaceOnUse">
<stop stop-color="#F4DDC0"/>
<stop offset="1" stop-color="#957C13"/>
</linearGradient>
<linearGradient id="paint2_linear_662_9" x1="327.902" y1="182.5" x2="327.902" y2="187" gradientUnits="userSpaceOnUse">
<stop stop-color="#F4DDC0"/>
<stop offset="1" stop-color="#957C13"/>
</linearGradient>
<linearGradient id="paint3_linear_662_9" x1="342.853" y1="182.5" x2="342.853" y2="187" gradientUnits="userSpaceOnUse">
<stop stop-color="#F4DDC0"/>
<stop offset="1" stop-color="#957C13"/>
</linearGradient>
<linearGradient id="paint4_linear_662_9" x1="335.5" y1="162.74" x2="335.449" y2="182.95" gradientUnits="userSpaceOnUse">
<stop stop-color="#F4DDC0"/>
<stop offset="1" stop-color="#957C13"/>
</linearGradient>
<linearGradient id="paint5_linear_662_9" x1="335.5" y1="162.74" x2="335.449" y2="182.95" gradientUnits="userSpaceOnUse">
<stop stop-color="#F4DDC0"/>
<stop offset="1" stop-color="#957C13"/>
</linearGradient>
<linearGradient id="paint6_linear_662_9" x1="335.498" y1="151" x2="335.498" y2="162.475" gradientUnits="userSpaceOnUse">
<stop stop-color="#F4DDC0"/>
<stop offset="1" stop-color="#957C13"/>
</linearGradient>
<linearGradient id="paint7_linear_662_9" x1="335.498" y1="151" x2="335.498" y2="162.475" gradientUnits="userSpaceOnUse">
<stop stop-color="#F4DDC0"/>
<stop offset="1" stop-color="#957C13"/>
</linearGradient>
<linearGradient id="paint8_linear_662_9" x1="335.5" y1="160.45" x2="335.5" y2="171.475" gradientUnits="userSpaceOnUse">
<stop stop-color="#F4DDC0"/>
<stop offset="1" stop-color="#957C13"/>
</linearGradient>
<linearGradient id="paint9_linear_662_9" x1="335.5" y1="160.45" x2="335.5" y2="171.475" gradientUnits="userSpaceOnUse">
<stop stop-color="#F4DDC0"/>
<stop offset="1" stop-color="#957C13"/>
</linearGradient>
<linearGradient id="paint10_linear_662_9" x1="335.5" y1="153.825" x2="335.5" y2="177.569" gradientUnits="userSpaceOnUse">
<stop stop-color="#F4DDC0"/>
<stop offset="1" stop-color="#957C13"/>
</linearGradient>
<linearGradient id="paint11_linear_662_9" x1="335.5" y1="153.825" x2="335.5" y2="177.569" gradientUnits="userSpaceOnUse">
<stop stop-color="#F4DDC0"/>
<stop offset="1" stop-color="#957C13"/>
</linearGradient>
<linearGradient id="paint12_linear_662_9" x1="335.499" y1="157.75" x2="335.499" y2="170.8" gradientUnits="userSpaceOnUse">
<stop stop-color="#F1C81F"/>
<stop offset="1" stop-color="#8B7312"/>
</linearGradient>
<linearGradient id="paint13_linear_662_9" x1="335.499" y1="157.75" x2="335.499" y2="170.8" gradientUnits="userSpaceOnUse">
<stop stop-color="#F1C81F"/>
<stop offset="1" stop-color="#8B7312"/>
</linearGradient>
<linearGradient id="paint14_linear_662_9" x1="100.195" y1="182.5" x2="100.195" y2="187" gradientUnits="userSpaceOnUse">
<stop stop-color="#F4DDC0"/>
<stop offset="1" stop-color="#957C13"/>
</linearGradient>
<linearGradient id="paint15_linear_662_9" x1="94.8046" y1="182.5" x2="94.8046" y2="187" gradientUnits="userSpaceOnUse">
<stop stop-color="#F4DDC0"/>
<stop offset="1" stop-color="#957C13"/>
</linearGradient>
<linearGradient id="paint16_linear_662_9" x1="89.9023" y1="182.5" x2="89.9023" y2="187" gradientUnits="userSpaceOnUse">
<stop stop-color="#F4DDC0"/>
<stop offset="1" stop-color="#957C13"/>
</linearGradient>
<linearGradient id="paint17_linear_662_9" x1="104.853" y1="182.5" x2="104.853" y2="187" gradientUnits="userSpaceOnUse">
<stop stop-color="#F4DDC0"/>
<stop offset="1" stop-color="#957C13"/>
</linearGradient>
<linearGradient id="paint18_linear_662_9" x1="97.5001" y1="162.74" x2="97.4486" y2="182.95" gradientUnits="userSpaceOnUse">
<stop stop-color="#F4DDC0"/>
<stop offset="1" stop-color="#957C13"/>
</linearGradient>
<linearGradient id="paint19_linear_662_9" x1="97.5001" y1="162.74" x2="97.4486" y2="182.95" gradientUnits="userSpaceOnUse">
<stop stop-color="#F4DDC0"/>
<stop offset="1" stop-color="#957C13"/>
</linearGradient>
<linearGradient id="paint20_linear_662_9" x1="97.4983" y1="151" x2="97.4983" y2="162.475" gradientUnits="userSpaceOnUse">
<stop stop-color="#F4DDC0"/>
<stop offset="1" stop-color="#957C13"/>
</linearGradient>
<linearGradient id="paint21_linear_662_9" x1="97.4983" y1="151" x2="97.4983" y2="162.475" gradientUnits="userSpaceOnUse">
<stop stop-color="#F4DDC0"/>
<stop offset="1" stop-color="#957C13"/>
</linearGradient>
<linearGradient id="paint22_linear_662_9" x1="97.5" y1="160.45" x2="97.5" y2="171.475" gradientUnits="userSpaceOnUse">
<stop stop-color="#F4DDC0"/>
<stop offset="1" stop-color="#957C13"/>
</linearGradient>
<linearGradient id="paint23_linear_662_9" x1="97.5" y1="160.45" x2="97.5" y2="171.475" gradientUnits="userSpaceOnUse">
<stop stop-color="#F4DDC0"/>
<stop offset="1" stop-color="#957C13"/>
</linearGradient>
<linearGradient id="paint24_linear_662_9" x1="97.5005" y1="153.825" x2="97.5005" y2="177.569" gradientUnits="userSpaceOnUse">
<stop stop-color="#F4DDC0"/>
<stop offset="1" stop-color="#957C13"/>
</linearGradient>
<linearGradient id="paint25_linear_662_9" x1="97.5005" y1="153.825" x2="97.5005" y2="177.569" gradientUnits="userSpaceOnUse">
<stop stop-color="#F4DDC0"/>
<stop offset="1" stop-color="#957C13"/>
</linearGradient>
<linearGradient id="paint26_linear_662_9" x1="97.4995" y1="157.75" x2="97.4995" y2="170.8" gradientUnits="userSpaceOnUse">
<stop stop-color="#F1C81F"/>
<stop offset="1" stop-color="#8B7312"/>
</linearGradient>
<linearGradient id="paint27_linear_662_9" x1="97.4995" y1="157.75" x2="97.4995" y2="170.8" gradientUnits="userSpaceOnUse">
<stop stop-color="#F1C81F"/>
<stop offset="1" stop-color="#8B7312"/>
</linearGradient>
</defs>
</svg>
