<svg width="310" height="513" viewBox="0 0 310 513" fill="none" xmlns="http://www.w3.org/2000/svg">
<g filter="url(#filter0_d_659_18)">
<path d="M37.3008 446.719C37.3008 446.875 37.1953 446.953 36.9844 446.953L34.3477 447.047C34.2305 447.039 34.1445 446.965 34.0898 446.824L31.1484 439.371L30.3281 446.672C30.3047 446.859 30.207 446.957 30.0352 446.965L27.5859 447.047C27.4141 447.031 27.3281 446.957 27.3281 446.824L29.3555 429.188C29.3711 429.047 29.4062 428.953 29.4609 428.906C29.5156 428.852 29.9297 428.793 30.7031 428.73C31.4766 428.66 32.5078 428.625 33.7969 428.625C35.0859 428.625 36.0781 428.969 36.7734 429.656C37.4766 430.336 37.8281 431.215 37.8281 432.293C37.8281 433.371 37.6992 434.324 37.4414 435.152C37.1836 435.973 36.7578 436.711 36.1641 437.367C35.5703 438.023 34.8281 438.512 33.9375 438.832L37.2656 446.578C37.2891 446.625 37.3008 446.672 37.3008 446.719ZM32.0508 431.355L31.3945 437.18C32.8398 437.094 33.8359 436.438 34.3828 435.211C34.6797 434.539 34.8281 433.859 34.8281 433.172C34.8281 432.477 34.6836 431.992 34.3945 431.719C34.1133 431.438 33.7031 431.297 33.1641 431.297C32.625 431.297 32.2539 431.316 32.0508 431.355ZM42.5156 431.555C42.0312 431.555 41.6445 431.402 41.3555 431.098C41.0664 430.793 40.9219 430.402 40.9219 429.926C40.9219 429.441 41.1133 429.012 41.4961 428.637C41.8867 428.254 42.3242 428.062 42.8086 428.062C43.293 428.062 43.6836 428.215 43.9805 428.52C44.2852 428.824 44.4375 429.219 44.4375 429.703C44.4375 430.18 44.2383 430.609 43.8398 430.992C43.4414 431.367 43 431.555 42.5156 431.555ZM43.8164 433.137L42.293 446.648C42.2773 446.758 42.25 446.836 42.2109 446.883C42.1719 446.93 42.0977 446.957 41.9883 446.965L39.6328 447.047C39.4609 447.031 39.375 446.957 39.375 446.824L40.9219 433.195C40.9531 433.023 41.0508 432.93 41.2148 432.914L43.5 432.832C43.7109 432.848 43.8164 432.949 43.8164 433.137ZM51.832 445.406C51.1211 446.555 50.2617 447.129 49.2539 447.129C47.9023 447.129 46.9766 446.434 46.4766 445.043C46.2031 444.293 46.0664 443.27 46.0664 441.973C46.0664 440.668 46.1523 439.562 46.3242 438.656C46.5039 437.75 46.6602 437.062 46.793 436.594C46.9258 436.117 47.1016 435.629 47.3203 435.129C47.5469 434.629 47.8008 434.211 48.082 433.875C48.7227 433.109 49.5312 432.727 50.5078 432.727C51.2266 432.727 51.7773 432.898 52.1602 433.242C52.543 433.586 52.8672 434.098 53.1328 434.777L53.8008 427.57C53.8242 427.367 53.9297 427.262 54.1172 427.254L56.4141 427.172C56.6094 427.195 56.707 427.301 56.707 427.488L54.5391 446.648C54.5156 446.852 54.4141 446.957 54.2344 446.965L51.8789 447.047C51.7148 447.031 51.6328 446.957 51.6328 446.824L51.832 445.406ZM49.0195 441.633C49.0195 443.5 49.5195 444.434 50.5195 444.434C50.957 444.434 51.3125 444.234 51.5859 443.836C51.8594 443.43 52.0938 442.621 52.2891 441.41C52.4922 440.199 52.5938 439.316 52.5938 438.762C52.5938 438.207 52.5898 437.855 52.582 437.707C52.5742 437.559 52.5586 437.363 52.5352 437.121C52.5117 436.871 52.4688 436.664 52.4062 436.5C52.3438 436.328 52.2617 436.156 52.1602 435.984C51.957 435.648 51.6289 435.48 51.1758 435.48C50.7227 435.48 50.3633 435.684 50.0977 436.09C49.832 436.488 49.625 437.023 49.4766 437.695C49.1719 439.133 49.0195 440.445 49.0195 441.633ZM63.1055 427.488L62.3672 434.062C63.4219 433.172 64.4961 432.727 65.5898 432.727C66.9023 432.727 67.7305 433.445 68.0742 434.883C68.168 435.273 68.2148 435.645 68.2148 435.996C68.2148 436.34 68.2031 436.617 68.1797 436.828L67.0547 446.648C67.0234 446.844 66.9258 446.949 66.7617 446.965L64.3945 447.047C64.2227 447.031 64.1367 446.957 64.1367 446.824L65.2031 437.543C65.2266 437.34 65.2383 437.156 65.2383 436.992C65.2383 436.352 65.0859 435.918 64.7812 435.691C64.4844 435.457 64.1016 435.34 63.6328 435.34C63.1719 435.34 62.6914 435.438 62.1914 435.633L60.9492 446.648C60.918 446.844 60.8203 446.949 60.6562 446.965L58.2891 447.047C58.1172 447.031 58.0312 446.957 58.0312 446.824L60.2109 427.57C60.2266 427.461 60.25 427.383 60.2812 427.336C60.3203 427.289 60.3945 427.262 60.5039 427.254L62.8008 427.172C63.0039 427.195 63.1055 427.301 63.1055 427.488ZM79.7461 443.402L82.1719 433.195C82.2188 433.016 82.3203 432.922 82.4766 432.914L84.6328 432.832C84.8359 432.848 84.9375 432.949 84.9375 433.137L80.7305 446.648C80.6758 446.844 80.5742 446.949 80.4258 446.965L78.0703 447.047C77.9375 447.039 77.8516 446.965 77.8125 446.824L77.3438 438.691L75.1758 446.648C75.1289 446.852 75.0312 446.957 74.8828 446.965L72.5273 447.047C72.3945 447.039 72.3086 446.965 72.2695 446.824L71.0742 433.195C71.0977 433.016 71.1953 432.922 71.3672 432.914L73.5469 432.832C73.7266 432.84 73.8242 432.941 73.8398 433.137L74.2266 443.32L76.6055 433.195C76.6367 433.031 76.7422 432.938 76.9219 432.914L78.8438 432.844C79.0391 432.852 79.1445 432.953 79.1602 433.148L79.7461 443.402ZM96.2227 433.137L94.6992 446.648C94.6758 446.852 94.5742 446.957 94.3945 446.965L92.0273 447.047C91.8633 447.031 91.7812 446.957 91.7812 446.824L92.0039 445.23C91.6445 445.84 91.25 446.309 90.8203 446.637C90.3984 446.965 89.9219 447.129 89.3906 447.129C88.8594 447.129 88.4062 447.039 88.0312 446.859C87.6562 446.672 87.3477 446.43 87.1055 446.133C86.8711 445.828 86.6797 445.465 86.5312 445.043C86.2578 444.293 86.1211 443.27 86.1211 441.973C86.1211 440.668 86.207 439.562 86.3789 438.656C86.5586 437.75 86.7148 437.062 86.8477 436.594C86.9805 436.117 87.1562 435.629 87.375 435.129C87.6016 434.629 87.8555 434.211 88.1367 433.875C88.7773 433.109 89.5859 432.727 90.5625 432.727C91.2891 432.727 91.8438 432.902 92.2266 433.254C92.6094 433.598 92.9297 434.109 93.1875 434.789L93.3281 433.195C93.3438 433.023 93.4414 432.93 93.6211 432.914L95.918 432.832C96.1211 432.848 96.2227 432.949 96.2227 433.137ZM89.0742 441.633C89.0742 443.5 89.5742 444.434 90.5742 444.434C91.0117 444.434 91.3672 444.234 91.6406 443.836C91.9141 443.43 92.1484 442.621 92.3438 441.41C92.5469 440.199 92.6484 439.316 92.6484 438.762C92.6484 438.207 92.6445 437.855 92.6367 437.707C92.6289 437.559 92.6133 437.363 92.5898 437.121C92.5664 436.871 92.5234 436.664 92.4609 436.5C92.3984 436.328 92.3164 436.156 92.2148 435.984C92.0117 435.648 91.6836 435.48 91.2305 435.48C90.7773 435.48 90.418 435.684 90.1523 436.09C89.8867 436.488 89.6797 437.023 89.5312 437.695C89.2266 439.133 89.0742 440.445 89.0742 441.633ZM102.633 433.137L102.504 434.215C103.629 433.223 104.707 432.727 105.738 432.727C107.051 432.727 107.879 433.445 108.223 434.883C108.316 435.273 108.363 435.645 108.363 435.996C108.363 436.34 108.352 436.617 108.328 436.828L107.203 446.648C107.172 446.844 107.074 446.949 106.91 446.965L104.543 447.047C104.371 447.031 104.285 446.957 104.285 446.824L105.352 437.543C105.375 437.34 105.387 437.156 105.387 436.992C105.387 436.352 105.234 435.918 104.93 435.691C104.633 435.457 104.254 435.34 103.793 435.34C103.332 435.34 102.852 435.438 102.352 435.633L101.098 446.648C101.066 446.844 100.969 446.949 100.805 446.965L98.4375 447.047C98.2656 447.031 98.1797 446.957 98.1797 446.824L99.7266 433.195C99.7578 433.023 99.8555 432.93 100.02 432.914L102.316 432.832C102.527 432.84 102.633 432.941 102.633 433.137ZM126.562 429.012L124.559 446.672C124.527 446.852 124.43 446.949 124.266 446.965L121.852 447.047C121.68 447.047 121.594 446.973 121.594 446.824L122.461 439.125L119.484 439.23L118.641 446.672C118.617 446.859 118.516 446.957 118.336 446.965L115.922 447.047C115.75 447.047 115.664 446.973 115.664 446.824L117.68 429.094C117.711 428.93 117.812 428.84 117.984 428.824L120.34 428.73C120.543 428.738 120.645 428.832 120.645 429.012L119.789 436.477L122.777 436.371L123.598 429.094C123.621 428.922 123.727 428.832 123.914 428.824L126.258 428.73C126.461 428.738 126.562 428.832 126.562 429.012ZM138.457 433.137L136.934 446.648C136.91 446.852 136.809 446.957 136.629 446.965L134.262 447.047C134.098 447.031 134.016 446.957 134.016 446.824L134.238 445.23C133.879 445.84 133.484 446.309 133.055 446.637C132.633 446.965 132.156 447.129 131.625 447.129C131.094 447.129 130.641 447.039 130.266 446.859C129.891 446.672 129.582 446.43 129.34 446.133C129.105 445.828 128.914 445.465 128.766 445.043C128.492 444.293 128.355 443.27 128.355 441.973C128.355 440.668 128.441 439.562 128.613 438.656C128.793 437.75 128.949 437.062 129.082 436.594C129.215 436.117 129.391 435.629 129.609 435.129C129.836 434.629 130.09 434.211 130.371 433.875C131.012 433.109 131.82 432.727 132.797 432.727C133.523 432.727 134.078 432.902 134.461 433.254C134.844 433.598 135.164 434.109 135.422 434.789L135.562 433.195C135.578 433.023 135.676 432.93 135.855 432.914L138.152 432.832C138.355 432.848 138.457 432.949 138.457 433.137ZM131.309 441.633C131.309 443.5 131.809 444.434 132.809 444.434C133.246 444.434 133.602 444.234 133.875 443.836C134.148 443.43 134.383 442.621 134.578 441.41C134.781 440.199 134.883 439.316 134.883 438.762C134.883 438.207 134.879 437.855 134.871 437.707C134.863 437.559 134.848 437.363 134.824 437.121C134.801 436.871 134.758 436.664 134.695 436.5C134.633 436.328 134.551 436.156 134.449 435.984C134.246 435.648 133.918 435.48 133.465 435.48C133.012 435.48 132.652 435.684 132.387 436.09C132.121 436.488 131.914 437.023 131.766 437.695C131.461 439.133 131.309 440.445 131.309 441.633ZM148.301 435.82L147.047 435.691C146.031 435.691 145.18 435.895 144.492 436.301L143.332 446.637C143.301 446.832 143.203 446.938 143.039 446.953L140.672 447.047C140.5 447.031 140.414 446.957 140.414 446.824L141.961 433.195C141.992 433.023 142.09 432.93 142.254 432.914L144.539 432.832C144.75 432.84 144.855 432.941 144.855 433.137L144.715 434.344C145.215 433.836 145.699 433.441 146.168 433.16C146.637 432.871 147.105 432.727 147.574 432.727C148.051 432.727 148.414 432.746 148.664 432.785C148.828 432.816 148.91 432.926 148.91 433.113C148.91 433.652 148.82 434.453 148.641 435.516C148.602 435.719 148.488 435.82 148.301 435.82ZM155.777 445.406C155.066 446.555 154.207 447.129 153.199 447.129C151.848 447.129 150.922 446.434 150.422 445.043C150.148 444.293 150.012 443.27 150.012 441.973C150.012 440.668 150.098 439.562 150.27 438.656C150.449 437.75 150.605 437.062 150.738 436.594C150.871 436.117 151.047 435.629 151.266 435.129C151.492 434.629 151.746 434.211 152.027 433.875C152.668 433.109 153.477 432.727 154.453 432.727C155.172 432.727 155.723 432.898 156.105 433.242C156.488 433.586 156.812 434.098 157.078 434.777L157.746 427.57C157.77 427.367 157.875 427.262 158.062 427.254L160.359 427.172C160.555 427.195 160.652 427.301 160.652 427.488L158.484 446.648C158.461 446.852 158.359 446.957 158.18 446.965L155.824 447.047C155.66 447.031 155.578 446.957 155.578 446.824L155.777 445.406ZM152.965 441.633C152.965 443.5 153.465 444.434 154.465 444.434C154.902 444.434 155.258 444.234 155.531 443.836C155.805 443.43 156.039 442.621 156.234 441.41C156.438 440.199 156.539 439.316 156.539 438.762C156.539 438.207 156.535 437.855 156.527 437.707C156.52 437.559 156.504 437.363 156.48 437.121C156.457 436.871 156.414 436.664 156.352 436.5C156.289 436.328 156.207 436.156 156.105 435.984C155.902 435.648 155.574 435.48 155.121 435.48C154.668 435.48 154.309 435.684 154.043 436.09C153.777 436.488 153.57 437.023 153.422 437.695C153.117 439.133 152.965 440.445 152.965 441.633ZM165.117 431.555C164.633 431.555 164.246 431.402 163.957 431.098C163.668 430.793 163.523 430.402 163.523 429.926C163.523 429.441 163.715 429.012 164.098 428.637C164.488 428.254 164.926 428.062 165.41 428.062C165.895 428.062 166.285 428.215 166.582 428.52C166.887 428.824 167.039 429.219 167.039 429.703C167.039 430.18 166.84 430.609 166.441 430.992C166.043 431.367 165.602 431.555 165.117 431.555ZM166.418 433.137L164.895 446.648C164.879 446.758 164.852 446.836 164.812 446.883C164.773 446.93 164.699 446.957 164.59 446.965L162.234 447.047C162.062 447.031 161.977 446.957 161.977 446.824L163.523 433.195C163.555 433.023 163.652 432.93 163.816 432.914L166.102 432.832C166.312 432.848 166.418 432.949 166.418 433.137Z" fill="#7A4200"/>
</g>
<g filter="url(#filter1_d_659_18)">
<path d="M27.2656 458.898H30.9297C31.1016 458.898 31.2422 458.901 31.3516 458.906C31.4661 458.906 31.6302 458.917 31.8438 458.938C32.0573 458.953 32.2396 458.979 32.3906 459.016C32.5417 459.047 32.7188 459.099 32.9219 459.172C33.1302 459.24 33.3073 459.32 33.4531 459.414C33.599 459.508 33.75 459.633 33.9062 459.789C34.0677 459.94 34.1953 460.109 34.2891 460.297C34.388 460.484 34.4688 460.711 34.5312 460.977C34.5938 461.242 34.625 461.534 34.625 461.852C34.625 462.31 34.5729 462.721 34.4688 463.086C34.3646 463.451 34.2292 463.755 34.0625 464C33.901 464.245 33.6901 464.456 33.4297 464.633C33.1693 464.81 32.9115 464.948 32.6562 465.047C32.401 465.141 32.099 465.216 31.75 465.273C31.4062 465.326 31.0964 465.359 30.8203 465.375C30.5495 465.391 30.2344 465.398 29.875 465.398C29.5208 465.398 29.0938 465.38 28.5938 465.344V470H27.2656V458.898ZM28.5938 464.172C29.0938 464.214 29.5677 464.234 30.0156 464.234C30.2708 464.234 30.4844 464.232 30.6562 464.227C30.8281 464.221 31.0391 464.203 31.2891 464.172C31.5391 464.141 31.7474 464.099 31.9141 464.047C32.0807 463.99 32.2578 463.906 32.4453 463.797C32.6328 463.688 32.7812 463.56 32.8906 463.414C33.0052 463.263 33.099 463.076 33.1719 462.852C33.2448 462.622 33.2812 462.362 33.2812 462.07C33.2812 461.768 33.2422 461.503 33.1641 461.273C33.0859 461.039 32.9714 460.852 32.8203 460.711C32.6745 460.57 32.5182 460.456 32.3516 460.367C32.1901 460.273 31.9922 460.208 31.7578 460.172C31.5286 460.13 31.3255 460.104 31.1484 460.094C30.9766 460.078 30.7708 460.07 30.5312 460.07H28.5938V464.172ZM41.9766 462.281H43.2578V470H42.3594L42.0859 469.352C41.1016 469.888 40.1927 470.156 39.3594 470.156C38.9375 470.156 38.5703 470.091 38.2578 469.961C37.9453 469.826 37.7031 469.659 37.5312 469.461C37.3594 469.263 37.2214 469.013 37.1172 468.711C37.013 468.404 36.9453 468.112 36.9141 467.836C36.888 467.56 36.875 467.245 36.875 466.891V462.281H38.1562V466.984C38.1562 468.333 38.7422 469.008 39.9141 469.008C40.5182 469.008 41.2057 468.807 41.9766 468.406V462.281ZM50.1797 469.867C49.4245 470.06 48.8359 470.156 48.4141 470.156C47.9922 470.156 47.6354 470.089 47.3438 469.953C47.0521 469.818 46.8307 469.625 46.6797 469.375C46.5286 469.125 46.4193 468.857 46.3516 468.57C46.2891 468.279 46.2578 467.945 46.2578 467.57V463.289H45.2188V462.281H46.2578V460.07H47.5391V462.281H49.8906V463.289H47.5391V467.555C47.5391 468.622 47.9609 469.156 48.8047 469.156C48.9557 469.156 49.3542 469.102 50 468.992L50.1797 469.867ZM53.2812 462.859C53.9323 462.375 54.651 462.133 55.4375 462.133C55.9792 462.133 56.4714 462.234 56.9141 462.438L56.5234 463.461C56.1172 463.305 55.6953 463.227 55.2578 463.227C54.6068 463.227 53.9948 463.406 53.4219 463.766V470H52.1406V462.281H53.0391L53.2812 462.859ZM60.9609 462.133C61.5339 462.133 62.0182 462.201 62.4141 462.336C62.8151 462.466 63.1224 462.659 63.3359 462.914C63.5547 463.169 63.7109 463.453 63.8047 463.766C63.8984 464.078 63.9453 464.438 63.9453 464.844V470H63.0391L62.7422 469.297C62.112 469.87 61.388 470.156 60.5703 470.156C59.8411 470.156 59.224 469.938 58.7188 469.5C58.2135 469.057 57.9609 468.542 57.9609 467.953C57.9609 467.641 58.0182 467.359 58.1328 467.109C58.2474 466.859 58.4115 466.651 58.625 466.484C58.8438 466.318 59.0911 466.177 59.3672 466.062C59.6432 465.943 59.9635 465.852 60.3281 465.789C60.6979 465.727 61.0677 465.682 61.4375 465.656C61.8073 465.63 62.2135 465.617 62.6562 465.617V465.008C62.6562 464.831 62.6484 464.677 62.6328 464.547C62.6224 464.417 62.5807 464.26 62.5078 464.078C62.4349 463.896 62.3359 463.747 62.2109 463.633C62.0859 463.513 61.8984 463.411 61.6484 463.328C61.3984 463.24 61.1016 463.195 60.7578 463.195C60.2266 463.195 59.5391 463.312 58.6953 463.547L58.4531 462.609C59.3073 462.292 60.1432 462.133 60.9609 462.133ZM62.6562 466.586H62.1797C61.8828 466.586 61.625 466.591 61.4062 466.602C61.1875 466.612 60.9297 466.643 60.6328 466.695C60.3411 466.742 60.1016 466.81 59.9141 466.898C59.7266 466.987 59.5651 467.117 59.4297 467.289C59.2995 467.456 59.2344 467.656 59.2344 467.891C59.2344 468.219 59.3984 468.51 59.7266 468.766C60.0599 469.021 60.4557 469.148 60.9141 469.148C61.5859 469.148 62.1667 468.885 62.6562 468.359V466.586ZM74.5156 462.133C74.8333 462.133 75.1432 462.172 75.4453 462.25C75.7474 462.323 76.0495 462.456 76.3516 462.648C76.6589 462.836 76.9245 463.076 77.1484 463.367C77.3776 463.654 77.5625 464.029 77.7031 464.492C77.849 464.956 77.9219 465.477 77.9219 466.055C77.9219 467.32 77.5833 468.32 76.9062 469.055C76.2344 469.789 75.362 470.156 74.2891 470.156C73.6745 470.156 73.0521 470.018 72.4219 469.742V474.148H71.1406V462.281H72.0312L72.2422 462.773C72.9714 462.346 73.7292 462.133 74.5156 462.133ZM74.0781 463.195C73.5104 463.195 72.9583 463.339 72.4219 463.625V468.773C72.9792 469.023 73.5391 469.148 74.1016 469.148C74.3411 469.148 74.5729 469.122 74.7969 469.07C75.0208 469.018 75.2474 468.924 75.4766 468.789C75.7109 468.648 75.9141 468.474 76.0859 468.266C76.2578 468.057 76.3984 467.781 76.5078 467.438C76.6172 467.094 76.6719 466.706 76.6719 466.273C76.6719 465.784 76.6146 465.352 76.5 464.977C76.3854 464.602 76.2396 464.305 76.0625 464.086C75.8854 463.867 75.6771 463.688 75.4375 463.547C75.1979 463.406 74.9688 463.312 74.75 463.266C74.5312 463.219 74.3073 463.195 74.0781 463.195ZM83.6641 462.133C84.0391 462.133 84.375 462.18 84.6719 462.273C84.974 462.362 85.224 462.477 85.4219 462.617C85.6198 462.758 85.7891 462.943 85.9297 463.172C86.0755 463.396 86.1849 463.615 86.2578 463.828C86.3359 464.036 86.3958 464.289 86.4375 464.586C86.4792 464.883 86.5052 465.141 86.5156 465.359C86.526 465.578 86.5312 465.836 86.5312 466.133V466.742H81.2266C81.2266 467.023 81.2891 467.305 81.4141 467.586C81.5443 467.862 81.724 468.117 81.9531 468.352C82.1875 468.581 82.4922 468.768 82.8672 468.914C83.2474 469.06 83.6667 469.133 84.125 469.133C84.6667 469.133 85.2526 469.039 85.8828 468.852L86.1094 469.727C85.2708 470.013 84.4479 470.156 83.6406 470.156C83.0729 470.156 82.5677 470.081 82.125 469.93C81.6875 469.779 81.3333 469.583 81.0625 469.344C80.7969 469.099 80.5781 468.807 80.4062 468.469C80.2344 468.13 80.1146 467.794 80.0469 467.461C79.9844 467.122 79.9531 466.766 79.9531 466.391C79.9531 465.812 80.0234 465.284 80.1641 464.805C80.3047 464.326 80.4948 463.924 80.7344 463.602C80.974 463.273 81.2526 462.997 81.5703 462.773C81.8932 462.549 82.2292 462.388 82.5781 462.289C82.9323 462.185 83.2943 462.133 83.6641 462.133ZM83.3906 463.242C82.9323 463.242 82.5365 463.37 82.2031 463.625C81.875 463.875 81.6354 464.188 81.4844 464.562C81.3333 464.938 81.2578 465.341 81.2578 465.773H85.2891C85.2891 464.086 84.6562 463.242 83.3906 463.242ZM90.0938 462.859C90.7448 462.375 91.4635 462.133 92.25 462.133C92.7917 462.133 93.2839 462.234 93.7266 462.438L93.3359 463.461C92.9297 463.305 92.5078 463.227 92.0703 463.227C91.4193 463.227 90.8073 463.406 90.2344 463.766V470H88.9531V462.281H89.8516L90.0938 462.859ZM99.3203 469.867C98.5651 470.06 97.9766 470.156 97.5547 470.156C97.1328 470.156 96.776 470.089 96.4844 469.953C96.1927 469.818 95.9714 469.625 95.8203 469.375C95.6693 469.125 95.5599 468.857 95.4922 468.57C95.4297 468.279 95.3984 467.945 95.3984 467.57V463.289H94.3594V462.281H95.3984V460.07H96.6797V462.281H99.0312V463.289H96.6797V467.555C96.6797 468.622 97.1016 469.156 97.9453 469.156C98.0964 469.156 98.4948 469.102 99.1406 468.992L99.3203 469.867ZM103.836 462.133C104.409 462.133 104.893 462.201 105.289 462.336C105.69 462.466 105.997 462.659 106.211 462.914C106.43 463.169 106.586 463.453 106.68 463.766C106.773 464.078 106.82 464.438 106.82 464.844V470H105.914L105.617 469.297C104.987 469.87 104.263 470.156 103.445 470.156C102.716 470.156 102.099 469.938 101.594 469.5C101.089 469.057 100.836 468.542 100.836 467.953C100.836 467.641 100.893 467.359 101.008 467.109C101.122 466.859 101.286 466.651 101.5 466.484C101.719 466.318 101.966 466.177 102.242 466.062C102.518 465.943 102.839 465.852 103.203 465.789C103.573 465.727 103.943 465.682 104.312 465.656C104.682 465.63 105.089 465.617 105.531 465.617V465.008C105.531 464.831 105.523 464.677 105.508 464.547C105.497 464.417 105.456 464.26 105.383 464.078C105.31 463.896 105.211 463.747 105.086 463.633C104.961 463.513 104.773 463.411 104.523 463.328C104.273 463.24 103.977 463.195 103.633 463.195C103.102 463.195 102.414 463.312 101.57 463.547L101.328 462.609C102.182 462.292 103.018 462.133 103.836 462.133ZM105.531 466.586H105.055C104.758 466.586 104.5 466.591 104.281 466.602C104.062 466.612 103.805 466.643 103.508 466.695C103.216 466.742 102.977 466.81 102.789 466.898C102.602 466.987 102.44 467.117 102.305 467.289C102.174 467.456 102.109 467.656 102.109 467.891C102.109 468.219 102.273 468.51 102.602 468.766C102.935 469.021 103.331 469.148 103.789 469.148C104.461 469.148 105.042 468.885 105.531 468.359V466.586ZM112.727 463.312C112.279 463.312 111.677 463.51 110.922 463.906V470H109.641V462.281H110.539L110.812 462.922C111.745 462.396 112.552 462.133 113.234 462.133C114.021 462.133 114.638 462.419 115.086 462.992C116.107 462.424 117.021 462.141 117.828 462.141C118.219 462.141 118.562 462.195 118.859 462.305C119.156 462.409 119.396 462.555 119.578 462.742C119.766 462.924 119.917 463.156 120.031 463.438C120.151 463.714 120.232 464.008 120.273 464.32C120.32 464.628 120.344 464.977 120.344 465.367V470H119.062V465.281C119.062 465.188 119.06 465.102 119.055 465.023C119.049 464.94 119.036 464.828 119.016 464.688C118.995 464.542 118.964 464.414 118.922 464.305C118.88 464.19 118.818 464.068 118.734 463.938C118.656 463.807 118.56 463.701 118.445 463.617C118.331 463.529 118.185 463.456 118.008 463.398C117.831 463.341 117.633 463.312 117.414 463.312C116.935 463.312 116.302 463.516 115.516 463.922C115.589 464.229 115.625 464.729 115.625 465.422V470H114.344V465.25C114.344 465.115 114.339 464.987 114.328 464.867C114.318 464.742 114.281 464.578 114.219 464.375C114.156 464.172 114.073 464 113.969 463.859C113.865 463.714 113.703 463.586 113.484 463.477C113.271 463.367 113.018 463.312 112.727 463.312ZM125.742 462.133C126.315 462.133 126.799 462.201 127.195 462.336C127.596 462.466 127.904 462.659 128.117 462.914C128.336 463.169 128.492 463.453 128.586 463.766C128.68 464.078 128.727 464.438 128.727 464.844V470H127.82L127.523 469.297C126.893 469.87 126.169 470.156 125.352 470.156C124.622 470.156 124.005 469.938 123.5 469.5C122.995 469.057 122.742 468.542 122.742 467.953C122.742 467.641 122.799 467.359 122.914 467.109C123.029 466.859 123.193 466.651 123.406 466.484C123.625 466.318 123.872 466.177 124.148 466.062C124.424 465.943 124.745 465.852 125.109 465.789C125.479 465.727 125.849 465.682 126.219 465.656C126.589 465.63 126.995 465.617 127.438 465.617V465.008C127.438 464.831 127.43 464.677 127.414 464.547C127.404 464.417 127.362 464.26 127.289 464.078C127.216 463.896 127.117 463.747 126.992 463.633C126.867 463.513 126.68 463.411 126.43 463.328C126.18 463.24 125.883 463.195 125.539 463.195C125.008 463.195 124.32 463.312 123.477 463.547L123.234 462.609C124.089 462.292 124.924 462.133 125.742 462.133ZM127.438 466.586H126.961C126.664 466.586 126.406 466.591 126.188 466.602C125.969 466.612 125.711 466.643 125.414 466.695C125.122 466.742 124.883 466.81 124.695 466.898C124.508 466.987 124.346 467.117 124.211 467.289C124.081 467.456 124.016 467.656 124.016 467.891C124.016 468.219 124.18 468.51 124.508 468.766C124.841 469.021 125.237 469.148 125.695 469.148C126.367 469.148 126.948 468.885 127.438 468.359V466.586ZM135.531 466.273C135.531 465.607 135.625 465.008 135.812 464.477C136 463.945 136.258 463.51 136.586 463.172C136.914 462.833 137.297 462.576 137.734 462.398C138.177 462.216 138.654 462.125 139.164 462.125C139.779 462.125 140.401 462.263 141.031 462.539V458.195H142.312V470H141.422L141.211 469.516C140.487 469.943 139.732 470.156 138.945 470.156C138.622 470.156 138.307 470.117 138 470.039C137.693 469.961 137.388 469.826 137.086 469.633C136.784 469.44 136.518 469.201 136.289 468.914C136.065 468.622 135.883 468.25 135.742 467.797C135.602 467.344 135.531 466.836 135.531 466.273ZM139.367 469.102C139.935 469.102 140.49 468.956 141.031 468.664V463.508C140.474 463.258 139.914 463.133 139.352 463.133C139.112 463.133 138.88 463.159 138.656 463.211C138.432 463.263 138.203 463.357 137.969 463.492C137.734 463.628 137.531 463.802 137.359 464.016C137.193 464.229 137.055 464.513 136.945 464.867C136.836 465.216 136.781 465.617 136.781 466.07C136.781 466.539 136.839 466.958 136.953 467.328C137.068 467.693 137.214 467.984 137.391 468.203C137.568 468.422 137.776 468.602 138.016 468.742C138.255 468.883 138.484 468.979 138.703 469.031C138.922 469.078 139.143 469.102 139.367 469.102ZM147.758 462.133C148.331 462.133 148.815 462.201 149.211 462.336C149.612 462.466 149.919 462.659 150.133 462.914C150.352 463.169 150.508 463.453 150.602 463.766C150.695 464.078 150.742 464.438 150.742 464.844V470H149.836L149.539 469.297C148.909 469.87 148.185 470.156 147.367 470.156C146.638 470.156 146.021 469.938 145.516 469.5C145.01 469.057 144.758 468.542 144.758 467.953C144.758 467.641 144.815 467.359 144.93 467.109C145.044 466.859 145.208 466.651 145.422 466.484C145.641 466.318 145.888 466.177 146.164 466.062C146.44 465.943 146.76 465.852 147.125 465.789C147.495 465.727 147.865 465.682 148.234 465.656C148.604 465.63 149.01 465.617 149.453 465.617V465.008C149.453 464.831 149.445 464.677 149.43 464.547C149.419 464.417 149.378 464.26 149.305 464.078C149.232 463.896 149.133 463.747 149.008 463.633C148.883 463.513 148.695 463.411 148.445 463.328C148.195 463.24 147.898 463.195 147.555 463.195C147.023 463.195 146.336 463.312 145.492 463.547L145.25 462.609C146.104 462.292 146.94 462.133 147.758 462.133ZM149.453 466.586H148.977C148.68 466.586 148.422 466.591 148.203 466.602C147.984 466.612 147.727 466.643 147.43 466.695C147.138 466.742 146.898 466.81 146.711 466.898C146.523 466.987 146.362 467.117 146.227 467.289C146.096 467.456 146.031 467.656 146.031 467.891C146.031 468.219 146.195 468.51 146.523 468.766C146.857 469.021 147.253 469.148 147.711 469.148C148.383 469.148 148.964 468.885 149.453 468.359V466.586ZM154.703 462.859C155.354 462.375 156.073 462.133 156.859 462.133C157.401 462.133 157.893 462.234 158.336 462.438L157.945 463.461C157.539 463.305 157.117 463.227 156.68 463.227C156.029 463.227 155.417 463.406 154.844 463.766V470H153.562V462.281H154.461L154.703 462.859ZM159.711 458.898H161.227V460.375H159.711V458.898ZM159.828 462.281H161.109V470H159.828V462.281ZM170.484 459.914V463.641C170.583 463.635 170.755 463.633 171 463.633C171.245 463.628 171.435 463.625 171.57 463.625C171.706 463.62 171.896 463.609 172.141 463.594C172.385 463.573 172.581 463.552 172.727 463.531C172.878 463.505 173.057 463.469 173.266 463.422C173.479 463.37 173.651 463.312 173.781 463.25C173.917 463.182 174.057 463.099 174.203 463C174.354 462.896 174.471 462.781 174.555 462.656C174.638 462.531 174.706 462.383 174.758 462.211C174.815 462.034 174.844 461.841 174.844 461.633C174.844 461.477 174.828 461.328 174.797 461.188C174.766 461.047 174.701 460.896 174.602 460.734C174.503 460.573 174.375 460.435 174.219 460.32C174.062 460.206 173.846 460.109 173.57 460.031C173.299 459.953 172.984 459.914 172.625 459.914H170.484ZM170.484 464.672V468.828H172.555C172.742 468.828 172.898 468.828 173.023 468.828C173.154 468.823 173.339 468.807 173.578 468.781C173.818 468.75 174.021 468.711 174.188 468.664C174.359 468.612 174.549 468.536 174.758 468.438C174.966 468.333 175.133 468.211 175.258 468.07C175.388 467.93 175.497 467.75 175.586 467.531C175.674 467.307 175.719 467.055 175.719 466.773C175.719 466.081 175.451 465.539 174.914 465.148C174.378 464.758 173.656 464.562 172.75 464.562C172.651 464.562 171.896 464.599 170.484 464.672ZM169.156 458.898H173.07C173.451 458.898 173.797 458.94 174.109 459.023C174.427 459.102 174.688 459.203 174.891 459.328C175.099 459.453 175.281 459.602 175.438 459.773C175.599 459.945 175.721 460.112 175.805 460.273C175.888 460.435 175.956 460.607 176.008 460.789C176.06 460.971 176.091 461.122 176.102 461.242C176.117 461.357 176.125 461.466 176.125 461.57C176.125 462.023 175.971 462.477 175.664 462.93C175.357 463.378 175.031 463.667 174.688 463.797C175.375 463.922 175.938 464.255 176.375 464.797C176.818 465.333 177.039 465.945 177.039 466.633C177.039 466.794 177.023 466.964 176.992 467.141C176.966 467.318 176.911 467.518 176.828 467.742C176.745 467.966 176.638 468.18 176.508 468.383C176.378 468.586 176.201 468.789 175.977 468.992C175.753 469.19 175.495 469.362 175.203 469.508C174.917 469.654 174.562 469.773 174.141 469.867C173.724 469.956 173.266 470 172.766 470H169.156V458.898ZM181.977 462.133C182.549 462.133 183.034 462.201 183.43 462.336C183.831 462.466 184.138 462.659 184.352 462.914C184.57 463.169 184.727 463.453 184.82 463.766C184.914 464.078 184.961 464.438 184.961 464.844V470H184.055L183.758 469.297C183.128 469.87 182.404 470.156 181.586 470.156C180.857 470.156 180.24 469.938 179.734 469.5C179.229 469.057 178.977 468.542 178.977 467.953C178.977 467.641 179.034 467.359 179.148 467.109C179.263 466.859 179.427 466.651 179.641 466.484C179.859 466.318 180.107 466.177 180.383 466.062C180.659 465.943 180.979 465.852 181.344 465.789C181.714 465.727 182.083 465.682 182.453 465.656C182.823 465.63 183.229 465.617 183.672 465.617V465.008C183.672 464.831 183.664 464.677 183.648 464.547C183.638 464.417 183.596 464.26 183.523 464.078C183.451 463.896 183.352 463.747 183.227 463.633C183.102 463.513 182.914 463.411 182.664 463.328C182.414 463.24 182.117 463.195 181.773 463.195C181.242 463.195 180.555 463.312 179.711 463.547L179.469 462.609C180.323 462.292 181.159 462.133 181.977 462.133ZM183.672 466.586H183.195C182.898 466.586 182.641 466.591 182.422 466.602C182.203 466.612 181.945 466.643 181.648 466.695C181.357 466.742 181.117 466.81 180.93 466.898C180.742 466.987 180.581 467.117 180.445 467.289C180.315 467.456 180.25 467.656 180.25 467.891C180.25 468.219 180.414 468.51 180.742 468.766C181.076 469.021 181.471 469.148 181.93 469.148C182.602 469.148 183.182 468.885 183.672 468.359V466.586ZM191.156 462.133C191.474 462.133 191.784 462.172 192.086 462.25C192.388 462.323 192.69 462.456 192.992 462.648C193.299 462.836 193.565 463.076 193.789 463.367C194.018 463.654 194.203 464.029 194.344 464.492C194.49 464.956 194.562 465.477 194.562 466.055C194.562 467.32 194.224 468.32 193.547 469.055C192.875 469.789 192.003 470.156 190.93 470.156C190.315 470.156 189.693 470.018 189.062 469.742V474.148H187.781V462.281H188.672L188.883 462.773C189.612 462.346 190.37 462.133 191.156 462.133ZM190.719 463.195C190.151 463.195 189.599 463.339 189.062 463.625V468.773C189.62 469.023 190.18 469.148 190.742 469.148C190.982 469.148 191.214 469.122 191.438 469.07C191.661 469.018 191.888 468.924 192.117 468.789C192.352 468.648 192.555 468.474 192.727 468.266C192.898 468.057 193.039 467.781 193.148 467.438C193.258 467.094 193.312 466.706 193.312 466.273C193.312 465.784 193.255 465.352 193.141 464.977C193.026 464.602 192.88 464.305 192.703 464.086C192.526 463.867 192.318 463.688 192.078 463.547C191.839 463.406 191.609 463.312 191.391 463.266C191.172 463.219 190.948 463.195 190.719 463.195ZM199.539 462.133C200.112 462.133 200.596 462.201 200.992 462.336C201.393 462.466 201.701 462.659 201.914 462.914C202.133 463.169 202.289 463.453 202.383 463.766C202.477 464.078 202.523 464.438 202.523 464.844V470H201.617L201.32 469.297C200.69 469.87 199.966 470.156 199.148 470.156C198.419 470.156 197.802 469.938 197.297 469.5C196.792 469.057 196.539 468.542 196.539 467.953C196.539 467.641 196.596 467.359 196.711 467.109C196.826 466.859 196.99 466.651 197.203 466.484C197.422 466.318 197.669 466.177 197.945 466.062C198.221 465.943 198.542 465.852 198.906 465.789C199.276 465.727 199.646 465.682 200.016 465.656C200.385 465.63 200.792 465.617 201.234 465.617V465.008C201.234 464.831 201.227 464.677 201.211 464.547C201.201 464.417 201.159 464.26 201.086 464.078C201.013 463.896 200.914 463.747 200.789 463.633C200.664 463.513 200.477 463.411 200.227 463.328C199.977 463.24 199.68 463.195 199.336 463.195C198.805 463.195 198.117 463.312 197.273 463.547L197.031 462.609C197.885 462.292 198.721 462.133 199.539 462.133ZM201.234 466.586H200.758C200.461 466.586 200.203 466.591 199.984 466.602C199.766 466.612 199.508 466.643 199.211 466.695C198.919 466.742 198.68 466.81 198.492 466.898C198.305 466.987 198.143 467.117 198.008 467.289C197.878 467.456 197.812 467.656 197.812 467.891C197.812 468.219 197.977 468.51 198.305 468.766C198.638 469.021 199.034 469.148 199.492 469.148C200.164 469.148 200.745 468.885 201.234 468.359V466.586ZM205.344 458.195H206.625V470H205.344V458.195ZM210.156 462.125H211.57L208.211 465.602L211.773 470H210.234L206.75 465.734L210.156 462.125ZM226.234 458.898H227.562V470H226.234V464.859H220.297V470H218.969V458.898H220.297V463.688H226.234V458.898ZM233.164 462.133C233.737 462.133 234.221 462.201 234.617 462.336C235.018 462.466 235.326 462.659 235.539 462.914C235.758 463.169 235.914 463.453 236.008 463.766C236.102 464.078 236.148 464.438 236.148 464.844V470H235.242L234.945 469.297C234.315 469.87 233.591 470.156 232.773 470.156C232.044 470.156 231.427 469.938 230.922 469.5C230.417 469.057 230.164 468.542 230.164 467.953C230.164 467.641 230.221 467.359 230.336 467.109C230.451 466.859 230.615 466.651 230.828 466.484C231.047 466.318 231.294 466.177 231.57 466.062C231.846 465.943 232.167 465.852 232.531 465.789C232.901 465.727 233.271 465.682 233.641 465.656C234.01 465.63 234.417 465.617 234.859 465.617V465.008C234.859 464.831 234.852 464.677 234.836 464.547C234.826 464.417 234.784 464.26 234.711 464.078C234.638 463.896 234.539 463.747 234.414 463.633C234.289 463.513 234.102 463.411 233.852 463.328C233.602 463.24 233.305 463.195 232.961 463.195C232.43 463.195 231.742 463.312 230.898 463.547L230.656 462.609C231.51 462.292 232.346 462.133 233.164 462.133ZM234.859 466.586H234.383C234.086 466.586 233.828 466.591 233.609 466.602C233.391 466.612 233.133 466.643 232.836 466.695C232.544 466.742 232.305 466.81 232.117 466.898C231.93 466.987 231.768 467.117 231.633 467.289C231.503 467.456 231.438 467.656 231.438 467.891C231.438 468.219 231.602 468.51 231.93 468.766C232.263 469.021 232.659 469.148 233.117 469.148C233.789 469.148 234.37 468.885 234.859 468.359V466.586ZM240.109 462.859C240.76 462.375 241.479 462.133 242.266 462.133C242.807 462.133 243.299 462.234 243.742 462.438L243.352 463.461C242.945 463.305 242.523 463.227 242.086 463.227C241.435 463.227 240.823 463.406 240.25 463.766V470H238.969V462.281H239.867L240.109 462.859ZM244.844 466.273C244.844 465.607 244.938 465.008 245.125 464.477C245.312 463.945 245.57 463.51 245.898 463.172C246.227 462.833 246.609 462.576 247.047 462.398C247.49 462.216 247.966 462.125 248.477 462.125C249.091 462.125 249.714 462.263 250.344 462.539V458.195H251.625V470H250.734L250.523 469.516C249.799 469.943 249.044 470.156 248.258 470.156C247.935 470.156 247.62 470.117 247.312 470.039C247.005 469.961 246.701 469.826 246.398 469.633C246.096 469.44 245.831 469.201 245.602 468.914C245.378 468.622 245.195 468.25 245.055 467.797C244.914 467.344 244.844 466.836 244.844 466.273ZM248.68 469.102C249.247 469.102 249.802 468.956 250.344 468.664V463.508C249.786 463.258 249.227 463.133 248.664 463.133C248.424 463.133 248.193 463.159 247.969 463.211C247.745 463.263 247.516 463.357 247.281 463.492C247.047 463.628 246.844 463.802 246.672 464.016C246.505 464.229 246.367 464.513 246.258 464.867C246.148 465.216 246.094 465.617 246.094 466.07C246.094 466.539 246.151 466.958 246.266 467.328C246.38 467.693 246.526 467.984 246.703 468.203C246.88 468.422 247.089 468.602 247.328 468.742C247.568 468.883 247.797 468.979 248.016 469.031C248.234 469.078 248.456 469.102 248.68 469.102ZM254.398 458.898H255.914V460.375H254.398V458.898ZM254.516 462.281H255.797V470H254.516V462.281ZM26.0156 486.273C26.0156 485.607 26.1094 485.008 26.2969 484.477C26.4844 483.945 26.7422 483.51 27.0703 483.172C27.3984 482.833 27.7812 482.576 28.2188 482.398C28.6615 482.216 29.138 482.125 29.6484 482.125C30.263 482.125 30.8854 482.263 31.5156 482.539V478.195H32.7969V490H31.9062L31.6953 489.516C30.9714 489.943 30.2161 490.156 29.4297 490.156C29.1068 490.156 28.7917 490.117 28.4844 490.039C28.1771 489.961 27.8724 489.826 27.5703 489.633C27.2682 489.44 27.0026 489.201 26.7734 488.914C26.5495 488.622 26.3672 488.25 26.2266 487.797C26.0859 487.344 26.0156 486.836 26.0156 486.273ZM29.8516 489.102C30.4193 489.102 30.974 488.956 31.5156 488.664V483.508C30.9583 483.258 30.3984 483.133 29.8359 483.133C29.5964 483.133 29.3646 483.159 29.1406 483.211C28.9167 483.263 28.6875 483.357 28.4531 483.492C28.2188 483.628 28.0156 483.802 27.8438 484.016C27.6771 484.229 27.5391 484.513 27.4297 484.867C27.3203 485.216 27.2656 485.617 27.2656 486.07C27.2656 486.539 27.3229 486.958 27.4375 487.328C27.5521 487.693 27.6979 487.984 27.875 488.203C28.0521 488.422 28.2604 488.602 28.5 488.742C28.7396 488.883 28.9688 488.979 29.1875 489.031C29.4062 489.078 29.6276 489.102 29.8516 489.102ZM38.2422 482.133C38.8151 482.133 39.2995 482.201 39.6953 482.336C40.0964 482.466 40.4036 482.659 40.6172 482.914C40.8359 483.169 40.9922 483.453 41.0859 483.766C41.1797 484.078 41.2266 484.438 41.2266 484.844V490H40.3203L40.0234 489.297C39.3932 489.87 38.6693 490.156 37.8516 490.156C37.1224 490.156 36.5052 489.938 36 489.5C35.4948 489.057 35.2422 488.542 35.2422 487.953C35.2422 487.641 35.2995 487.359 35.4141 487.109C35.5286 486.859 35.6927 486.651 35.9062 486.484C36.125 486.318 36.3724 486.177 36.6484 486.062C36.9245 485.943 37.2448 485.852 37.6094 485.789C37.9792 485.727 38.349 485.682 38.7188 485.656C39.0885 485.63 39.4948 485.617 39.9375 485.617V485.008C39.9375 484.831 39.9297 484.677 39.9141 484.547C39.9036 484.417 39.862 484.26 39.7891 484.078C39.7161 483.896 39.6172 483.747 39.4922 483.633C39.3672 483.513 39.1797 483.411 38.9297 483.328C38.6797 483.24 38.3828 483.195 38.0391 483.195C37.5078 483.195 36.8203 483.312 35.9766 483.547L35.7344 482.609C36.5885 482.292 37.4245 482.133 38.2422 482.133ZM39.9375 486.586H39.4609C39.1641 486.586 38.9062 486.591 38.6875 486.602C38.4688 486.612 38.2109 486.643 37.9141 486.695C37.6224 486.742 37.3828 486.81 37.1953 486.898C37.0078 486.987 36.8464 487.117 36.7109 487.289C36.5807 487.456 36.5156 487.656 36.5156 487.891C36.5156 488.219 36.6797 488.51 37.0078 488.766C37.3411 489.021 37.737 489.148 38.1953 489.148C38.8672 489.148 39.4479 488.885 39.9375 488.359V486.586ZM44.0469 482.281H44.9453L45.2266 482.938C46.2214 482.396 47.1276 482.125 47.9453 482.125C48.3672 482.125 48.7344 482.193 49.0469 482.328C49.3594 482.458 49.6016 482.625 49.7734 482.828C49.9453 483.026 50.0807 483.279 50.1797 483.586C50.2839 483.888 50.349 484.177 50.375 484.453C50.4062 484.729 50.4219 485.044 50.4219 485.398V490H49.1406V485.312C49.1406 483.958 48.5573 483.281 47.3906 483.281C46.7865 483.281 46.099 483.482 45.3281 483.883V490H44.0469V482.281ZM58.7031 478.898H60.0312V490H58.7031V478.898ZM63.3906 478.195H64.6719V482.648C65.3438 482.299 66.0312 482.125 66.7344 482.125C67.0469 482.125 67.3542 482.164 67.6562 482.242C67.9583 482.315 68.2604 482.448 68.5625 482.641C68.8698 482.828 69.138 483.065 69.3672 483.352C69.5964 483.638 69.7812 484.013 69.9219 484.477C70.0677 484.94 70.1406 485.464 70.1406 486.047C70.1406 487.318 69.8021 488.32 69.125 489.055C68.4531 489.789 67.5807 490.156 66.5078 490.156C65.8047 490.156 65.1146 489.984 64.4375 489.641L64.2812 490H63.3906V478.195ZM66.2969 483.188C65.7396 483.188 65.1979 483.326 64.6719 483.602V488.789C65.2292 489.029 65.7786 489.148 66.3203 489.148C66.5599 489.148 66.7917 489.122 67.0156 489.07C67.2396 489.018 67.4661 488.924 67.6953 488.789C67.9297 488.648 68.1328 488.474 68.3047 488.266C68.4766 488.057 68.6172 487.781 68.7266 487.438C68.8359 487.094 68.8906 486.706 68.8906 486.273C68.8906 485.784 68.8333 485.352 68.7188 484.977C68.6042 484.596 68.4583 484.297 68.2812 484.078C68.1042 483.859 67.8958 483.68 67.6562 483.539C67.4167 483.398 67.1875 483.305 66.9688 483.258C66.75 483.211 66.526 483.188 66.2969 483.188ZM77.6641 482.281H78.9453V490H78.0469L77.7734 489.352C76.7891 489.888 75.8802 490.156 75.0469 490.156C74.625 490.156 74.2578 490.091 73.9453 489.961C73.6328 489.826 73.3906 489.659 73.2188 489.461C73.0469 489.263 72.9089 489.013 72.8047 488.711C72.7005 488.404 72.6328 488.112 72.6016 487.836C72.5755 487.56 72.5625 487.245 72.5625 486.891V482.281H73.8438V486.984C73.8438 488.333 74.4297 489.008 75.6016 489.008C76.2057 489.008 76.8932 488.807 77.6641 488.406V482.281ZM87 478.898H88.6797L94.7266 488.188V478.898H96.0547V490H94.375L88.3281 480.695V490H87V478.898ZM104.211 482.281H105.492V490H104.594L104.32 489.352C103.336 489.888 102.427 490.156 101.594 490.156C101.172 490.156 100.805 490.091 100.492 489.961C100.18 489.826 99.9375 489.659 99.7656 489.461C99.5938 489.263 99.4557 489.013 99.3516 488.711C99.2474 488.404 99.1797 488.112 99.1484 487.836C99.1224 487.56 99.1094 487.245 99.1094 486.891V482.281H100.391V486.984C100.391 488.333 100.977 489.008 102.148 489.008C102.753 489.008 103.44 488.807 104.211 488.406V482.281ZM109.453 482.859C110.104 482.375 110.823 482.133 111.609 482.133C112.151 482.133 112.643 482.234 113.086 482.438L112.695 483.461C112.289 483.305 111.867 483.227 111.43 483.227C110.779 483.227 110.167 483.406 109.594 483.766V490H108.312V482.281H109.211L109.453 482.859ZM114.734 478.195H116.016V490H114.734V478.195ZM121.539 482.133C122.112 482.133 122.596 482.201 122.992 482.336C123.393 482.466 123.701 482.659 123.914 482.914C124.133 483.169 124.289 483.453 124.383 483.766C124.477 484.078 124.523 484.438 124.523 484.844V490H123.617L123.32 489.297C122.69 489.87 121.966 490.156 121.148 490.156C120.419 490.156 119.802 489.938 119.297 489.5C118.792 489.057 118.539 488.542 118.539 487.953C118.539 487.641 118.596 487.359 118.711 487.109C118.826 486.859 118.99 486.651 119.203 486.484C119.422 486.318 119.669 486.177 119.945 486.062C120.221 485.943 120.542 485.852 120.906 485.789C121.276 485.727 121.646 485.682 122.016 485.656C122.385 485.63 122.792 485.617 123.234 485.617V485.008C123.234 484.831 123.227 484.677 123.211 484.547C123.201 484.417 123.159 484.26 123.086 484.078C123.013 483.896 122.914 483.747 122.789 483.633C122.664 483.513 122.477 483.411 122.227 483.328C121.977 483.24 121.68 483.195 121.336 483.195C120.805 483.195 120.117 483.312 119.273 483.547L119.031 482.609C119.885 482.292 120.721 482.133 121.539 482.133ZM123.234 486.586H122.758C122.461 486.586 122.203 486.591 121.984 486.602C121.766 486.612 121.508 486.643 121.211 486.695C120.919 486.742 120.68 486.81 120.492 486.898C120.305 486.987 120.143 487.117 120.008 487.289C119.878 487.456 119.812 487.656 119.812 487.891C119.812 488.219 119.977 488.51 120.305 488.766C120.638 489.021 121.034 489.148 121.492 489.148C122.164 489.148 122.745 488.885 123.234 488.359V486.586ZM127.227 478.898H128.742V480.375H127.227V478.898ZM127.344 482.281H128.625V490H127.344V482.281ZM131.594 478.195H132.875V490H131.594V478.195ZM135.727 478.898H137.242V480.375H135.727V478.898ZM135.844 482.281H137.125V490H135.844V482.281ZM145.406 478.898H146.734V490H145.406V478.898ZM153.219 482.133C153.328 482.133 153.43 482.135 153.523 482.141C153.622 482.141 153.716 482.146 153.805 482.156C153.898 482.167 153.977 482.174 154.039 482.18C154.107 482.185 154.182 482.195 154.266 482.211C154.354 482.227 154.417 482.24 154.453 482.25C154.495 482.255 154.56 482.271 154.648 482.297C154.742 482.318 154.799 482.331 154.82 482.336C154.841 482.341 154.901 482.359 155 482.391C155.104 482.422 155.164 482.44 155.18 482.445L154.852 483.422C154.154 483.229 153.539 483.133 153.008 483.133C152.701 483.133 152.427 483.164 152.188 483.227C151.953 483.289 151.771 483.365 151.641 483.453C151.516 483.542 151.411 483.646 151.328 483.766C151.25 483.88 151.198 483.982 151.172 484.07C151.151 484.159 151.141 484.245 151.141 484.328C151.141 484.542 151.25 484.732 151.469 484.898C151.693 485.065 151.969 485.201 152.297 485.305C152.63 485.409 152.99 485.534 153.375 485.68C153.76 485.82 154.117 485.971 154.445 486.133C154.779 486.289 155.055 486.51 155.273 486.797C155.497 487.083 155.609 487.414 155.609 487.789C155.609 488.003 155.581 488.211 155.523 488.414C155.471 488.612 155.367 488.82 155.211 489.039C155.06 489.258 154.862 489.448 154.617 489.609C154.378 489.766 154.055 489.896 153.648 490C153.242 490.104 152.776 490.156 152.25 490.156C151.453 490.156 150.578 489.961 149.625 489.57L149.984 488.602C150.521 488.799 150.958 488.94 151.297 489.023C151.641 489.107 151.977 489.148 152.305 489.148C153.576 489.148 154.211 488.745 154.211 487.938C154.211 487.76 154.148 487.604 154.023 487.469C153.898 487.333 153.732 487.224 153.523 487.141C153.315 487.052 153.078 486.964 152.812 486.875C152.552 486.781 152.284 486.695 152.008 486.617C151.737 486.539 151.469 486.438 151.203 486.312C150.943 486.182 150.708 486.042 150.5 485.891C150.292 485.734 150.125 485.534 150 485.289C149.875 485.044 149.812 484.768 149.812 484.461C149.812 484.273 149.841 484.083 149.898 483.891C149.961 483.693 150.073 483.487 150.234 483.273C150.401 483.055 150.607 482.865 150.852 482.703C151.096 482.536 151.422 482.401 151.828 482.297C152.24 482.188 152.703 482.133 153.219 482.133ZM161.039 483.312C160.591 483.312 159.99 483.51 159.234 483.906V490H157.953V482.281H158.852L159.125 482.922C160.057 482.396 160.865 482.133 161.547 482.133C162.333 482.133 162.951 482.419 163.398 482.992C164.419 482.424 165.333 482.141 166.141 482.141C166.531 482.141 166.875 482.195 167.172 482.305C167.469 482.409 167.708 482.555 167.891 482.742C168.078 482.924 168.229 483.156 168.344 483.438C168.464 483.714 168.544 484.008 168.586 484.32C168.633 484.628 168.656 484.977 168.656 485.367V490H167.375V485.281C167.375 485.188 167.372 485.102 167.367 485.023C167.362 484.94 167.349 484.828 167.328 484.688C167.307 484.542 167.276 484.414 167.234 484.305C167.193 484.19 167.13 484.068 167.047 483.938C166.969 483.807 166.872 483.701 166.758 483.617C166.643 483.529 166.497 483.456 166.32 483.398C166.143 483.341 165.945 483.312 165.727 483.312C165.247 483.312 164.615 483.516 163.828 483.922C163.901 484.229 163.938 484.729 163.938 485.422V490H162.656V485.25C162.656 485.115 162.651 484.987 162.641 484.867C162.63 484.742 162.594 484.578 162.531 484.375C162.469 484.172 162.385 484 162.281 483.859C162.177 483.714 162.016 483.586 161.797 483.477C161.583 483.367 161.331 483.312 161.039 483.312ZM174.055 482.133C174.628 482.133 175.112 482.201 175.508 482.336C175.909 482.466 176.216 482.659 176.43 482.914C176.648 483.169 176.805 483.453 176.898 483.766C176.992 484.078 177.039 484.438 177.039 484.844V490H176.133L175.836 489.297C175.206 489.87 174.482 490.156 173.664 490.156C172.935 490.156 172.318 489.938 171.812 489.5C171.307 489.057 171.055 488.542 171.055 487.953C171.055 487.641 171.112 487.359 171.227 487.109C171.341 486.859 171.505 486.651 171.719 486.484C171.938 486.318 172.185 486.177 172.461 486.062C172.737 485.943 173.057 485.852 173.422 485.789C173.792 485.727 174.161 485.682 174.531 485.656C174.901 485.63 175.307 485.617 175.75 485.617V485.008C175.75 484.831 175.742 484.677 175.727 484.547C175.716 484.417 175.674 484.26 175.602 484.078C175.529 483.896 175.43 483.747 175.305 483.633C175.18 483.513 174.992 483.411 174.742 483.328C174.492 483.24 174.195 483.195 173.852 483.195C173.32 483.195 172.633 483.312 171.789 483.547L171.547 482.609C172.401 482.292 173.237 482.133 174.055 482.133ZM175.75 486.586H175.273C174.977 486.586 174.719 486.591 174.5 486.602C174.281 486.612 174.023 486.643 173.727 486.695C173.435 486.742 173.195 486.81 173.008 486.898C172.82 486.987 172.659 487.117 172.523 487.289C172.393 487.456 172.328 487.656 172.328 487.891C172.328 488.219 172.492 488.51 172.82 488.766C173.154 489.021 173.549 489.148 174.008 489.148C174.68 489.148 175.26 488.885 175.75 488.359V486.586ZM179.742 478.898H181.258V480.375H179.742V478.898ZM179.859 482.281H181.141V490H179.859V482.281ZM184.109 478.195H185.391V490H184.109V478.195Z" fill="#7A4200"/>
</g>
<defs>
<filter id="filter0_d_659_18" x="23.3281" y="427.172" width="147.711" height="27.957" filterUnits="userSpaceOnUse" color-interpolation-filters="sRGB">
<feFlood flood-opacity="0" result="BackgroundImageFix"/>
<feColorMatrix in="SourceAlpha" type="matrix" values="0 0 0 0 0 0 0 0 0 0 0 0 0 0 0 0 0 0 127 0" result="hardAlpha"/>
<feOffset dy="4"/>
<feGaussianBlur stdDeviation="2"/>
<feComposite in2="hardAlpha" operator="out"/>
<feColorMatrix type="matrix" values="0 0 0 0 0 0 0 0 0 0 0 0 0 0 0 0 0 0 0.25 0"/>
<feBlend mode="normal" in2="BackgroundImageFix" result="effect1_dropShadow_659_18"/>
<feBlend mode="normal" in="SourceGraphic" in2="effect1_dropShadow_659_18" result="shape"/>
</filter>
<filter id="filter1_d_659_18" x="22.0156" y="458.195" width="237.898" height="39.9609" filterUnits="userSpaceOnUse" color-interpolation-filters="sRGB">
<feFlood flood-opacity="0" result="BackgroundImageFix"/>
<feColorMatrix in="SourceAlpha" type="matrix" values="0 0 0 0 0 0 0 0 0 0 0 0 0 0 0 0 0 0 127 0" result="hardAlpha"/>
<feOffset dy="4"/>
<feGaussianBlur stdDeviation="2"/>
<feComposite in2="hardAlpha" operator="out"/>
<feColorMatrix type="matrix" values="0 0 0 0 0 0 0 0 0 0 0 0 0 0 0 0 0 0 0.25 0"/>
<feBlend mode="normal" in2="BackgroundImageFix" result="effect1_dropShadow_659_18"/>
<feBlend mode="normal" in="SourceGraphic" in2="effect1_dropShadow_659_18" result="shape"/>
</filter>
</defs>
</svg>
