<svg width="263" height="241" viewBox="0 0 263 241" fill="none" xmlns="http://www.w3.org/2000/svg">
<g filter="url(#filter0_d_658_45)">
<path d="M15.3008 22.7188C15.3008 22.875 15.1953 22.9531 14.9844 22.9531L12.3477 23.0469C12.2305 23.0391 12.1445 22.9648 12.0898 22.8242L9.14844 15.3711L8.32812 22.6719C8.30469 22.8594 8.20703 22.957 8.03516 22.9648L5.58594 23.0469C5.41406 23.0312 5.32812 22.957 5.32812 22.8242L7.35547 5.1875C7.37109 5.04688 7.40625 4.95312 7.46094 4.90625C7.51562 4.85156 7.92969 4.79297 8.70312 4.73047C9.47656 4.66016 10.5078 4.625 11.7969 4.625C13.0859 4.625 14.0781 4.96875 14.7734 5.65625C15.4766 6.33594 15.8281 7.21484 15.8281 8.29297C15.8281 9.37109 15.6992 10.3242 15.4414 11.1523C15.1836 11.9727 14.7578 12.7109 14.1641 13.3672C13.5703 14.0234 12.8281 14.5117 11.9375 14.832L15.2656 22.5781C15.2891 22.625 15.3008 22.6719 15.3008 22.7188ZM10.0508 7.35547L9.39453 13.1797C10.8398 13.0938 11.8359 12.4375 12.3828 11.2109C12.6797 10.5391 12.8281 9.85938 12.8281 9.17188C12.8281 8.47656 12.6836 7.99219 12.3945 7.71875C12.1133 7.4375 11.7031 7.29688 11.1641 7.29688C10.625 7.29688 10.2539 7.31641 10.0508 7.35547ZM20.5156 7.55469C20.0312 7.55469 19.6445 7.40234 19.3555 7.09766C19.0664 6.79297 18.9219 6.40234 18.9219 5.92578C18.9219 5.44141 19.1133 5.01172 19.4961 4.63672C19.8867 4.25391 20.3242 4.0625 20.8086 4.0625C21.293 4.0625 21.6836 4.21484 21.9805 4.51953C22.2852 4.82422 22.4375 5.21875 22.4375 5.70312C22.4375 6.17969 22.2383 6.60937 21.8398 6.99219C21.4414 7.36719 21 7.55469 20.5156 7.55469ZM21.8164 9.13672L20.293 22.6484C20.2773 22.7578 20.25 22.8359 20.2109 22.8828C20.1719 22.9297 20.0977 22.957 19.9883 22.9648L17.6328 23.0469C17.4609 23.0312 17.375 22.957 17.375 22.8242L18.9219 9.19531C18.9531 9.02344 19.0508 8.92969 19.2148 8.91406L21.5 8.83203C21.7109 8.84766 21.8164 8.94922 21.8164 9.13672ZM29.832 21.4062C29.1211 22.5547 28.2617 23.1289 27.2539 23.1289C25.9023 23.1289 24.9766 22.4336 24.4766 21.043C24.2031 20.293 24.0664 19.2695 24.0664 17.9727C24.0664 16.668 24.1523 15.5625 24.3242 14.6562C24.5039 13.75 24.6602 13.0625 24.793 12.5938C24.9258 12.1172 25.1016 11.6289 25.3203 11.1289C25.5469 10.6289 25.8008 10.2109 26.082 9.875C26.7227 9.10938 27.5312 8.72656 28.5078 8.72656C29.2266 8.72656 29.7773 8.89844 30.1602 9.24219C30.543 9.58594 30.8672 10.0977 31.1328 10.7773L31.8008 3.57031C31.8242 3.36719 31.9297 3.26172 32.1172 3.25391L34.4141 3.17188C34.6094 3.19531 34.707 3.30078 34.707 3.48828L32.5391 22.6484C32.5156 22.8516 32.4141 22.957 32.2344 22.9648L29.8789 23.0469C29.7148 23.0312 29.6328 22.957 29.6328 22.8242L29.832 21.4062ZM27.0195 17.6328C27.0195 19.5 27.5195 20.4336 28.5195 20.4336C28.957 20.4336 29.3125 20.2344 29.5859 19.8359C29.8594 19.4297 30.0938 18.6211 30.2891 17.4102C30.4922 16.1992 30.5938 15.3164 30.5938 14.7617C30.5938 14.207 30.5898 13.8555 30.582 13.707C30.5742 13.5586 30.5586 13.3633 30.5352 13.1211C30.5117 12.8711 30.4688 12.6641 30.4062 12.5C30.3438 12.3281 30.2617 12.1562 30.1602 11.9844C29.957 11.6484 29.6289 11.4805 29.1758 11.4805C28.7227 11.4805 28.3633 11.6836 28.0977 12.0898C27.832 12.4883 27.625 13.0234 27.4766 13.6953C27.1719 15.1328 27.0195 16.4453 27.0195 17.6328ZM41.1055 3.48828L40.3672 10.0625C41.4219 9.17188 42.4961 8.72656 43.5898 8.72656C44.9023 8.72656 45.7305 9.44531 46.0742 10.8828C46.168 11.2734 46.2148 11.6445 46.2148 11.9961C46.2148 12.3398 46.2031 12.6172 46.1797 12.8281L45.0547 22.6484C45.0234 22.8438 44.9258 22.9492 44.7617 22.9648L42.3945 23.0469C42.2227 23.0312 42.1367 22.957 42.1367 22.8242L43.2031 13.543C43.2266 13.3398 43.2383 13.1562 43.2383 12.9922C43.2383 12.3516 43.0859 11.918 42.7812 11.6914C42.4844 11.457 42.1016 11.3398 41.6328 11.3398C41.1719 11.3398 40.6914 11.4375 40.1914 11.6328L38.9492 22.6484C38.918 22.8438 38.8203 22.9492 38.6562 22.9648L36.2891 23.0469C36.1172 23.0312 36.0312 22.957 36.0312 22.8242L38.2109 3.57031C38.2266 3.46094 38.25 3.38281 38.2812 3.33594C38.3203 3.28906 38.3945 3.26172 38.5039 3.25391L40.8008 3.17188C41.0039 3.19531 41.1055 3.30078 41.1055 3.48828ZM57.7461 19.4023L60.1719 9.19531C60.2188 9.01562 60.3203 8.92188 60.4766 8.91406L62.6328 8.83203C62.8359 8.84766 62.9375 8.94922 62.9375 9.13672L58.7305 22.6484C58.6758 22.8438 58.5742 22.9492 58.4258 22.9648L56.0703 23.0469C55.9375 23.0391 55.8516 22.9648 55.8125 22.8242L55.3438 14.6914L53.1758 22.6484C53.1289 22.8516 53.0312 22.957 52.8828 22.9648L50.5273 23.0469C50.3945 23.0391 50.3086 22.9648 50.2695 22.8242L49.0742 9.19531C49.0977 9.01562 49.1953 8.92188 49.3672 8.91406L51.5469 8.83203C51.7266 8.83984 51.8242 8.94141 51.8398 9.13672L52.2266 19.3203L54.6055 9.19531C54.6367 9.03125 54.7422 8.9375 54.9219 8.91406L56.8438 8.84375C57.0391 8.85156 57.1445 8.95312 57.1602 9.14844L57.7461 19.4023ZM74.2227 9.13672L72.6992 22.6484C72.6758 22.8516 72.5742 22.957 72.3945 22.9648L70.0273 23.0469C69.8633 23.0312 69.7812 22.957 69.7812 22.8242L70.0039 21.2305C69.6445 21.8398 69.25 22.3086 68.8203 22.6367C68.3984 22.9648 67.9219 23.1289 67.3906 23.1289C66.8594 23.1289 66.4062 23.0391 66.0312 22.8594C65.6562 22.6719 65.3477 22.4297 65.1055 22.1328C64.8711 21.8281 64.6797 21.4648 64.5312 21.043C64.2578 20.293 64.1211 19.2695 64.1211 17.9727C64.1211 16.668 64.207 15.5625 64.3789 14.6562C64.5586 13.75 64.7148 13.0625 64.8477 12.5938C64.9805 12.1172 65.1562 11.6289 65.375 11.1289C65.6016 10.6289 65.8555 10.2109 66.1367 9.875C66.7773 9.10938 67.5859 8.72656 68.5625 8.72656C69.2891 8.72656 69.8438 8.90234 70.2266 9.25391C70.6094 9.59766 70.9297 10.1094 71.1875 10.7891L71.3281 9.19531C71.3438 9.02344 71.4414 8.92969 71.6211 8.91406L73.918 8.83203C74.1211 8.84766 74.2227 8.94922 74.2227 9.13672ZM67.0742 17.6328C67.0742 19.5 67.5742 20.4336 68.5742 20.4336C69.0117 20.4336 69.3672 20.2344 69.6406 19.8359C69.9141 19.4297 70.1484 18.6211 70.3438 17.4102C70.5469 16.1992 70.6484 15.3164 70.6484 14.7617C70.6484 14.207 70.6445 13.8555 70.6367 13.707C70.6289 13.5586 70.6133 13.3633 70.5898 13.1211C70.5664 12.8711 70.5234 12.6641 70.4609 12.5C70.3984 12.3281 70.3164 12.1562 70.2148 11.9844C70.0117 11.6484 69.6836 11.4805 69.2305 11.4805C68.7773 11.4805 68.418 11.6836 68.1523 12.0898C67.8867 12.4883 67.6797 13.0234 67.5312 13.6953C67.2266 15.1328 67.0742 16.4453 67.0742 17.6328ZM80.6328 9.13672L80.5039 10.2148C81.6289 9.22266 82.707 8.72656 83.7383 8.72656C85.0508 8.72656 85.8789 9.44531 86.2227 10.8828C86.3164 11.2734 86.3633 11.6445 86.3633 11.9961C86.3633 12.3398 86.3516 12.6172 86.3281 12.8281L85.2031 22.6484C85.1719 22.8438 85.0742 22.9492 84.9102 22.9648L82.543 23.0469C82.3711 23.0312 82.2852 22.957 82.2852 22.8242L83.3516 13.543C83.375 13.3398 83.3867 13.1563 83.3867 12.9922C83.3867 12.3516 83.2344 11.918 82.9297 11.6914C82.6328 11.457 82.2539 11.3398 81.793 11.3398C81.332 11.3398 80.8516 11.4375 80.3516 11.6328L79.0977 22.6484C79.0664 22.8438 78.9688 22.9492 78.8047 22.9648L76.4375 23.0469C76.2656 23.0312 76.1797 22.957 76.1797 22.8242L77.7266 9.19531C77.7578 9.02344 77.8555 8.92969 78.0195 8.91406L80.3164 8.83203C80.5273 8.83984 80.6328 8.94141 80.6328 9.13672ZM104.562 5.01172L102.559 22.6719C102.527 22.8516 102.43 22.9492 102.266 22.9648L99.8516 23.0469C99.6797 23.0469 99.5938 22.9727 99.5938 22.8242L100.461 15.125L97.4844 15.2305L96.6406 22.6719C96.6172 22.8594 96.5156 22.957 96.3359 22.9648L93.9219 23.0469C93.75 23.0469 93.6641 22.9727 93.6641 22.8242L95.6797 5.09375C95.7109 4.92969 95.8125 4.83984 95.9844 4.82422L98.3398 4.73047C98.543 4.73828 98.6445 4.83203 98.6445 5.01172L97.7891 12.4766L100.777 12.3711L101.598 5.09375C101.621 4.92188 101.727 4.83203 101.914 4.82422L104.258 4.73047C104.461 4.73828 104.562 4.83203 104.562 5.01172ZM116.457 9.13672L114.934 22.6484C114.91 22.8516 114.809 22.957 114.629 22.9648L112.262 23.0469C112.098 23.0312 112.016 22.957 112.016 22.8242L112.238 21.2305C111.879 21.8398 111.484 22.3086 111.055 22.6367C110.633 22.9648 110.156 23.1289 109.625 23.1289C109.094 23.1289 108.641 23.0391 108.266 22.8594C107.891 22.6719 107.582 22.4297 107.34 22.1328C107.105 21.8281 106.914 21.4648 106.766 21.043C106.492 20.293 106.355 19.2695 106.355 17.9727C106.355 16.668 106.441 15.5625 106.613 14.6563C106.793 13.75 106.949 13.0625 107.082 12.5938C107.215 12.1172 107.391 11.6289 107.609 11.1289C107.836 10.6289 108.09 10.2109 108.371 9.875C109.012 9.10938 109.82 8.72656 110.797 8.72656C111.523 8.72656 112.078 8.90234 112.461 9.25391C112.844 9.59766 113.164 10.1094 113.422 10.7891L113.562 9.19531C113.578 9.02344 113.676 8.92969 113.855 8.91406L116.152 8.83203C116.355 8.84766 116.457 8.94922 116.457 9.13672ZM109.309 17.6328C109.309 19.5 109.809 20.4336 110.809 20.4336C111.246 20.4336 111.602 20.2344 111.875 19.8359C112.148 19.4297 112.383 18.6211 112.578 17.4102C112.781 16.1992 112.883 15.3164 112.883 14.7617C112.883 14.207 112.879 13.8555 112.871 13.707C112.863 13.5586 112.848 13.3633 112.824 13.1211C112.801 12.8711 112.758 12.6641 112.695 12.5C112.633 12.3281 112.551 12.1563 112.449 11.9844C112.246 11.6484 111.918 11.4805 111.465 11.4805C111.012 11.4805 110.652 11.6836 110.387 12.0898C110.121 12.4883 109.914 13.0234 109.766 13.6953C109.461 15.1328 109.309 16.4453 109.309 17.6328ZM126.301 11.8203L125.047 11.6914C124.031 11.6914 123.18 11.8945 122.492 12.3008L121.332 22.6367C121.301 22.832 121.203 22.9375 121.039 22.9531L118.672 23.0469C118.5 23.0312 118.414 22.957 118.414 22.8242L119.961 9.19531C119.992 9.02344 120.09 8.92969 120.254 8.91406L122.539 8.83203C122.75 8.83984 122.855 8.94141 122.855 9.13672L122.715 10.3438C123.215 9.83594 123.699 9.44141 124.168 9.16016C124.637 8.87109 125.105 8.72656 125.574 8.72656C126.051 8.72656 126.414 8.74609 126.664 8.78516C126.828 8.81641 126.91 8.92578 126.91 9.11328C126.91 9.65234 126.82 10.4531 126.641 11.5156C126.602 11.7188 126.488 11.8203 126.301 11.8203ZM133.777 21.4062C133.066 22.5547 132.207 23.1289 131.199 23.1289C129.848 23.1289 128.922 22.4336 128.422 21.043C128.148 20.293 128.012 19.2695 128.012 17.9727C128.012 16.668 128.098 15.5625 128.27 14.6563C128.449 13.75 128.605 13.0625 128.738 12.5938C128.871 12.1172 129.047 11.6289 129.266 11.1289C129.492 10.6289 129.746 10.2109 130.027 9.875C130.668 9.10938 131.477 8.72656 132.453 8.72656C133.172 8.72656 133.723 8.89844 134.105 9.24219C134.488 9.58594 134.812 10.0977 135.078 10.7773L135.746 3.57031C135.77 3.36719 135.875 3.26172 136.062 3.25391L138.359 3.17188C138.555 3.19531 138.652 3.30078 138.652 3.48828L136.484 22.6484C136.461 22.8516 136.359 22.957 136.18 22.9648L133.824 23.0469C133.66 23.0312 133.578 22.957 133.578 22.8242L133.777 21.4062ZM130.965 17.6328C130.965 19.5 131.465 20.4336 132.465 20.4336C132.902 20.4336 133.258 20.2344 133.531 19.8359C133.805 19.4297 134.039 18.6211 134.234 17.4102C134.438 16.1992 134.539 15.3164 134.539 14.7617C134.539 14.207 134.535 13.8555 134.527 13.707C134.52 13.5586 134.504 13.3633 134.48 13.1211C134.457 12.8711 134.414 12.6641 134.352 12.5C134.289 12.3281 134.207 12.1563 134.105 11.9844C133.902 11.6484 133.574 11.4805 133.121 11.4805C132.668 11.4805 132.309 11.6836 132.043 12.0898C131.777 12.4883 131.57 13.0234 131.422 13.6953C131.117 15.1328 130.965 16.4453 130.965 17.6328ZM143.117 7.55469C142.633 7.55469 142.246 7.40234 141.957 7.09766C141.668 6.79297 141.523 6.40234 141.523 5.92578C141.523 5.44141 141.715 5.01172 142.098 4.63672C142.488 4.25391 142.926 4.0625 143.41 4.0625C143.895 4.0625 144.285 4.21484 144.582 4.51953C144.887 4.82422 145.039 5.21875 145.039 5.70313C145.039 6.17969 144.84 6.60938 144.441 6.99219C144.043 7.36719 143.602 7.55469 143.117 7.55469ZM144.418 9.13672L142.895 22.6484C142.879 22.7578 142.852 22.8359 142.812 22.8828C142.773 22.9297 142.699 22.957 142.59 22.9648L140.234 23.0469C140.062 23.0313 139.977 22.957 139.977 22.8242L141.523 9.19531C141.555 9.02344 141.652 8.92969 141.816 8.91406L144.102 8.83203C144.312 8.84766 144.418 8.94922 144.418 9.13672Z" fill="#7A4200"/>
</g>
<g filter="url(#filter1_d_658_45)">
<path d="M5.26562 34.8984H8.92969C9.10156 34.8984 9.24219 34.901 9.35156 34.9062C9.46615 34.9062 9.63021 34.9167 9.84375 34.9375C10.0573 34.9531 10.2396 34.9792 10.3906 35.0156C10.5417 35.0469 10.7188 35.099 10.9219 35.1719C11.1302 35.2396 11.3073 35.3203 11.4531 35.4141C11.599 35.5078 11.75 35.6328 11.9062 35.7891C12.0677 35.9401 12.1953 36.1094 12.2891 36.2969C12.388 36.4844 12.4688 36.7109 12.5312 36.9766C12.5938 37.2422 12.625 37.5339 12.625 37.8516C12.625 38.3099 12.5729 38.7214 12.4688 39.0859C12.3646 39.4505 12.2292 39.7552 12.0625 40C11.901 40.2448 11.6901 40.4557 11.4297 40.6328C11.1693 40.8099 10.9115 40.9479 10.6562 41.0469C10.401 41.1406 10.099 41.2161 9.75 41.2734C9.40625 41.3255 9.09635 41.3594 8.82031 41.375C8.54948 41.3906 8.23438 41.3984 7.875 41.3984C7.52083 41.3984 7.09375 41.3802 6.59375 41.3438V46H5.26562V34.8984ZM6.59375 40.1719C7.09375 40.2135 7.56771 40.2344 8.01562 40.2344C8.27083 40.2344 8.48438 40.2318 8.65625 40.2266C8.82812 40.2214 9.03906 40.2031 9.28906 40.1719C9.53906 40.1406 9.7474 40.099 9.91406 40.0469C10.0807 39.9896 10.2578 39.9062 10.4453 39.7969C10.6328 39.6875 10.7812 39.5599 10.8906 39.4141C11.0052 39.263 11.099 39.0755 11.1719 38.8516C11.2448 38.6224 11.2812 38.362 11.2812 38.0703C11.2812 37.7682 11.2422 37.5026 11.1641 37.2734C11.0859 37.0391 10.9714 36.8516 10.8203 36.7109C10.6745 36.5703 10.5182 36.4557 10.3516 36.3672C10.1901 36.2734 9.99219 36.2083 9.75781 36.1719C9.52865 36.1302 9.32552 36.1042 9.14844 36.0938C8.97656 36.0781 8.77083 36.0703 8.53125 36.0703H6.59375V40.1719ZM19.9766 38.2812H21.2578V46H20.3594L20.0859 45.3516C19.1016 45.888 18.1927 46.1562 17.3594 46.1562C16.9375 46.1562 16.5703 46.0911 16.2578 45.9609C15.9453 45.8255 15.7031 45.6589 15.5312 45.4609C15.3594 45.263 15.2214 45.013 15.1172 44.7109C15.013 44.4036 14.9453 44.112 14.9141 43.8359C14.888 43.5599 14.875 43.2448 14.875 42.8906V38.2812H16.1562V42.9844C16.1562 44.3333 16.7422 45.0078 17.9141 45.0078C18.5182 45.0078 19.2057 44.8073 19.9766 44.4062V38.2812ZM28.1797 45.8672C27.4245 46.0599 26.8359 46.1562 26.4141 46.1562C25.9922 46.1562 25.6354 46.0885 25.3438 45.9531C25.0521 45.8177 24.8307 45.625 24.6797 45.375C24.5286 45.125 24.4193 44.8568 24.3516 44.5703C24.2891 44.2786 24.2578 43.9453 24.2578 43.5703V39.2891H23.2188V38.2812H24.2578V36.0703H25.5391V38.2812H27.8906V39.2891H25.5391V43.5547C25.5391 44.6224 25.9609 45.1562 26.8047 45.1562C26.9557 45.1562 27.3542 45.1016 28 44.9922L28.1797 45.8672ZM31.2812 38.8594C31.9323 38.375 32.651 38.1328 33.4375 38.1328C33.9792 38.1328 34.4714 38.2344 34.9141 38.4375L34.5234 39.4609C34.1172 39.3047 33.6953 39.2266 33.2578 39.2266C32.6068 39.2266 31.9948 39.4062 31.4219 39.7656V46H30.1406V38.2812H31.0391L31.2812 38.8594ZM38.9609 38.1328C39.5339 38.1328 40.0182 38.2005 40.4141 38.3359C40.8151 38.4661 41.1224 38.6589 41.3359 38.9141C41.5547 39.1693 41.7109 39.4531 41.8047 39.7656C41.8984 40.0781 41.9453 40.4375 41.9453 40.8438V46H41.0391L40.7422 45.2969C40.112 45.8698 39.388 46.1562 38.5703 46.1562C37.8411 46.1562 37.224 45.9375 36.7188 45.5C36.2135 45.0573 35.9609 44.5417 35.9609 43.9531C35.9609 43.6406 36.0182 43.3594 36.1328 43.1094C36.2474 42.8594 36.4115 42.651 36.625 42.4844C36.8438 42.3177 37.0911 42.1771 37.3672 42.0625C37.6432 41.9427 37.9635 41.8516 38.3281 41.7891C38.6979 41.7266 39.0677 41.6823 39.4375 41.6562C39.8073 41.6302 40.2135 41.6172 40.6562 41.6172V41.0078C40.6562 40.8307 40.6484 40.6771 40.6328 40.5469C40.6224 40.4167 40.5807 40.2604 40.5078 40.0781C40.4349 39.8958 40.3359 39.7474 40.2109 39.6328C40.0859 39.513 39.8984 39.4115 39.6484 39.3281C39.3984 39.2396 39.1016 39.1953 38.7578 39.1953C38.2266 39.1953 37.5391 39.3125 36.6953 39.5469L36.4531 38.6094C37.3073 38.2917 38.1432 38.1328 38.9609 38.1328ZM40.6562 42.5859H40.1797C39.8828 42.5859 39.625 42.5911 39.4062 42.6016C39.1875 42.612 38.9297 42.6432 38.6328 42.6953C38.3411 42.7422 38.1016 42.8099 37.9141 42.8984C37.7266 42.987 37.5651 43.1172 37.4297 43.2891C37.2995 43.4557 37.2344 43.6562 37.2344 43.8906C37.2344 44.2188 37.3984 44.5104 37.7266 44.7656C38.0599 45.0208 38.4557 45.1484 38.9141 45.1484C39.5859 45.1484 40.1667 44.8854 40.6562 44.3594V42.5859ZM52.5156 38.1328C52.8333 38.1328 53.1432 38.1719 53.4453 38.25C53.7474 38.3229 54.0495 38.4557 54.3516 38.6484C54.6589 38.8359 54.9245 39.0755 55.1484 39.3672C55.3776 39.6536 55.5625 40.0286 55.7031 40.4922C55.849 40.9557 55.9219 41.4766 55.9219 42.0547C55.9219 43.3203 55.5833 44.3203 54.9062 45.0547C54.2344 45.7891 53.362 46.1562 52.2891 46.1562C51.6745 46.1562 51.0521 46.0182 50.4219 45.7422V50.1484H49.1406V38.2812H50.0312L50.2422 38.7734C50.9714 38.3464 51.7292 38.1328 52.5156 38.1328ZM52.0781 39.1953C51.5104 39.1953 50.9583 39.3385 50.4219 39.625V44.7734C50.9792 45.0234 51.5391 45.1484 52.1016 45.1484C52.3411 45.1484 52.5729 45.1224 52.7969 45.0703C53.0208 45.0182 53.2474 44.9245 53.4766 44.7891C53.7109 44.6484 53.9141 44.474 54.0859 44.2656C54.2578 44.0573 54.3984 43.7812 54.5078 43.4375C54.6172 43.0938 54.6719 42.7057 54.6719 42.2734C54.6719 41.7839 54.6146 41.3516 54.5 40.9766C54.3854 40.6016 54.2396 40.3047 54.0625 40.0859C53.8854 39.8672 53.6771 39.6875 53.4375 39.5469C53.1979 39.4062 52.9688 39.3125 52.75 39.2656C52.5312 39.2188 52.3073 39.1953 52.0781 39.1953ZM61.6641 38.1328C62.0391 38.1328 62.375 38.1797 62.6719 38.2734C62.974 38.362 63.224 38.4766 63.4219 38.6172C63.6198 38.7578 63.7891 38.9427 63.9297 39.1719C64.0755 39.3958 64.1849 39.6146 64.2578 39.8281C64.3359 40.0365 64.3958 40.2891 64.4375 40.5859C64.4792 40.8828 64.5052 41.1406 64.5156 41.3594C64.526 41.5781 64.5312 41.8359 64.5312 42.1328V42.7422H59.2266C59.2266 43.0234 59.2891 43.3047 59.4141 43.5859C59.5443 43.862 59.724 44.1172 59.9531 44.3516C60.1875 44.5807 60.4922 44.7682 60.8672 44.9141C61.2474 45.0599 61.6667 45.1328 62.125 45.1328C62.6667 45.1328 63.2526 45.0391 63.8828 44.8516L64.1094 45.7266C63.2708 46.013 62.4479 46.1562 61.6406 46.1562C61.0729 46.1562 60.5677 46.0807 60.125 45.9297C59.6875 45.7786 59.3333 45.5833 59.0625 45.3438C58.7969 45.099 58.5781 44.8073 58.4062 44.4688C58.2344 44.1302 58.1146 43.7943 58.0469 43.4609C57.9844 43.1224 57.9531 42.7656 57.9531 42.3906C57.9531 41.8125 58.0234 41.2839 58.1641 40.8047C58.3047 40.3255 58.4948 39.9245 58.7344 39.6016C58.974 39.2734 59.2526 38.9974 59.5703 38.7734C59.8932 38.5495 60.2292 38.388 60.5781 38.2891C60.9323 38.1849 61.2943 38.1328 61.6641 38.1328ZM61.3906 39.2422C60.9323 39.2422 60.5365 39.3698 60.2031 39.625C59.875 39.875 59.6354 40.1875 59.4844 40.5625C59.3333 40.9375 59.2578 41.3411 59.2578 41.7734H63.2891C63.2891 40.0859 62.6562 39.2422 61.3906 39.2422ZM68.0938 38.8594C68.7448 38.375 69.4635 38.1328 70.25 38.1328C70.7917 38.1328 71.2839 38.2344 71.7266 38.4375L71.3359 39.4609C70.9297 39.3047 70.5078 39.2266 70.0703 39.2266C69.4193 39.2266 68.8073 39.4062 68.2344 39.7656V46H66.9531V38.2812H67.8516L68.0938 38.8594ZM77.3203 45.8672C76.5651 46.0599 75.9766 46.1562 75.5547 46.1562C75.1328 46.1562 74.776 46.0885 74.4844 45.9531C74.1927 45.8177 73.9714 45.625 73.8203 45.375C73.6693 45.125 73.5599 44.8568 73.4922 44.5703C73.4297 44.2786 73.3984 43.9453 73.3984 43.5703V39.2891H72.3594V38.2812H73.3984V36.0703H74.6797V38.2812H77.0312V39.2891H74.6797V43.5547C74.6797 44.6224 75.1016 45.1562 75.9453 45.1562C76.0964 45.1562 76.4948 45.1016 77.1406 44.9922L77.3203 45.8672ZM81.8359 38.1328C82.4089 38.1328 82.8932 38.2005 83.2891 38.3359C83.6901 38.4661 83.9974 38.6589 84.2109 38.9141C84.4297 39.1693 84.5859 39.4531 84.6797 39.7656C84.7734 40.0781 84.8203 40.4375 84.8203 40.8438V46H83.9141L83.6172 45.2969C82.987 45.8698 82.263 46.1562 81.4453 46.1562C80.7161 46.1562 80.099 45.9375 79.5938 45.5C79.0885 45.0573 78.8359 44.5417 78.8359 43.9531C78.8359 43.6406 78.8932 43.3594 79.0078 43.1094C79.1224 42.8594 79.2865 42.651 79.5 42.4844C79.7188 42.3177 79.9661 42.1771 80.2422 42.0625C80.5182 41.9427 80.8385 41.8516 81.2031 41.7891C81.5729 41.7266 81.9427 41.6823 82.3125 41.6562C82.6823 41.6302 83.0885 41.6172 83.5312 41.6172V41.0078C83.5312 40.8307 83.5234 40.6771 83.5078 40.5469C83.4974 40.4167 83.4557 40.2604 83.3828 40.0781C83.3099 39.8958 83.2109 39.7474 83.0859 39.6328C82.9609 39.513 82.7734 39.4115 82.5234 39.3281C82.2734 39.2396 81.9766 39.1953 81.6328 39.1953C81.1016 39.1953 80.4141 39.3125 79.5703 39.5469L79.3281 38.6094C80.1823 38.2917 81.0182 38.1328 81.8359 38.1328ZM83.5312 42.5859H83.0547C82.7578 42.5859 82.5 42.5911 82.2812 42.6016C82.0625 42.612 81.8047 42.6432 81.5078 42.6953C81.2161 42.7422 80.9766 42.8099 80.7891 42.8984C80.6016 42.987 80.4401 43.1172 80.3047 43.2891C80.1745 43.4557 80.1094 43.6562 80.1094 43.8906C80.1094 44.2188 80.2734 44.5104 80.6016 44.7656C80.9349 45.0208 81.3307 45.1484 81.7891 45.1484C82.4609 45.1484 83.0417 44.8854 83.5312 44.3594V42.5859ZM90.7266 39.3125C90.2786 39.3125 89.6771 39.5104 88.9219 39.9062V46H87.6406V38.2812H88.5391L88.8125 38.9219C89.7448 38.3958 90.5521 38.1328 91.2344 38.1328C92.0208 38.1328 92.638 38.4193 93.0859 38.9922C94.1068 38.4245 95.0208 38.1406 95.8281 38.1406C96.2188 38.1406 96.5625 38.1953 96.8594 38.3047C97.1562 38.4089 97.3958 38.5547 97.5781 38.7422C97.7656 38.9245 97.9167 39.1562 98.0312 39.4375C98.151 39.7135 98.2318 40.0078 98.2734 40.3203C98.3203 40.6276 98.3438 40.9766 98.3438 41.3672V46H97.0625V41.2812C97.0625 41.1875 97.0599 41.1016 97.0547 41.0234C97.0495 40.9401 97.0365 40.8281 97.0156 40.6875C96.9948 40.5417 96.9635 40.4141 96.9219 40.3047C96.8802 40.1901 96.8177 40.0677 96.7344 39.9375C96.6562 39.8073 96.5599 39.7005 96.4453 39.6172C96.3307 39.5286 96.1849 39.4557 96.0078 39.3984C95.8307 39.3411 95.6328 39.3125 95.4141 39.3125C94.9349 39.3125 94.3021 39.5156 93.5156 39.9219C93.5885 40.2292 93.625 40.7292 93.625 41.4219V46H92.3438V41.25C92.3438 41.1146 92.3385 40.987 92.3281 40.8672C92.3177 40.7422 92.2812 40.5781 92.2188 40.375C92.1562 40.1719 92.0729 40 91.9688 39.8594C91.8646 39.7135 91.7031 39.5859 91.4844 39.4766C91.2708 39.3672 91.0182 39.3125 90.7266 39.3125ZM103.742 38.1328C104.315 38.1328 104.799 38.2005 105.195 38.3359C105.596 38.4661 105.904 38.6589 106.117 38.9141C106.336 39.1693 106.492 39.4531 106.586 39.7656C106.68 40.0781 106.727 40.4375 106.727 40.8438V46H105.82L105.523 45.2969C104.893 45.8698 104.169 46.1562 103.352 46.1562C102.622 46.1562 102.005 45.9375 101.5 45.5C100.995 45.0573 100.742 44.5417 100.742 43.9531C100.742 43.6406 100.799 43.3594 100.914 43.1094C101.029 42.8594 101.193 42.651 101.406 42.4844C101.625 42.3177 101.872 42.1771 102.148 42.0625C102.424 41.9427 102.745 41.8516 103.109 41.7891C103.479 41.7266 103.849 41.6823 104.219 41.6562C104.589 41.6302 104.995 41.6172 105.438 41.6172V41.0078C105.438 40.8307 105.43 40.6771 105.414 40.5469C105.404 40.4167 105.362 40.2604 105.289 40.0781C105.216 39.8958 105.117 39.7474 104.992 39.6328C104.867 39.513 104.68 39.4115 104.43 39.3281C104.18 39.2396 103.883 39.1953 103.539 39.1953C103.008 39.1953 102.32 39.3125 101.477 39.5469L101.234 38.6094C102.089 38.2917 102.924 38.1328 103.742 38.1328ZM105.438 42.5859H104.961C104.664 42.5859 104.406 42.5911 104.188 42.6016C103.969 42.612 103.711 42.6432 103.414 42.6953C103.122 42.7422 102.883 42.8099 102.695 42.8984C102.508 42.987 102.346 43.1172 102.211 43.2891C102.081 43.4557 102.016 43.6562 102.016 43.8906C102.016 44.2188 102.18 44.5104 102.508 44.7656C102.841 45.0208 103.237 45.1484 103.695 45.1484C104.367 45.1484 104.948 44.8854 105.438 44.3594V42.5859ZM113.531 42.2734C113.531 41.6068 113.625 41.0078 113.812 40.4766C114 39.9453 114.258 39.5104 114.586 39.1719C114.914 38.8333 115.297 38.5755 115.734 38.3984C116.177 38.2161 116.654 38.125 117.164 38.125C117.779 38.125 118.401 38.263 119.031 38.5391V34.1953H120.312V46H119.422L119.211 45.5156C118.487 45.9427 117.732 46.1562 116.945 46.1562C116.622 46.1562 116.307 46.1172 116 46.0391C115.693 45.9609 115.388 45.8255 115.086 45.6328C114.784 45.4401 114.518 45.2005 114.289 44.9141C114.065 44.6224 113.883 44.25 113.742 43.7969C113.602 43.3438 113.531 42.8359 113.531 42.2734ZM117.367 45.1016C117.935 45.1016 118.49 44.9557 119.031 44.6641V39.5078C118.474 39.2578 117.914 39.1328 117.352 39.1328C117.112 39.1328 116.88 39.1589 116.656 39.2109C116.432 39.263 116.203 39.3568 115.969 39.4922C115.734 39.6276 115.531 39.8021 115.359 40.0156C115.193 40.2292 115.055 40.513 114.945 40.8672C114.836 41.2161 114.781 41.6172 114.781 42.0703C114.781 42.5391 114.839 42.9583 114.953 43.3281C115.068 43.6927 115.214 43.9844 115.391 44.2031C115.568 44.4219 115.776 44.6016 116.016 44.7422C116.255 44.8828 116.484 44.9792 116.703 45.0312C116.922 45.0781 117.143 45.1016 117.367 45.1016ZM125.758 38.1328C126.331 38.1328 126.815 38.2005 127.211 38.3359C127.612 38.4661 127.919 38.6589 128.133 38.9141C128.352 39.1693 128.508 39.4531 128.602 39.7656C128.695 40.0781 128.742 40.4375 128.742 40.8438V46H127.836L127.539 45.2969C126.909 45.8698 126.185 46.1562 125.367 46.1562C124.638 46.1562 124.021 45.9375 123.516 45.5C123.01 45.0573 122.758 44.5417 122.758 43.9531C122.758 43.6406 122.815 43.3594 122.93 43.1094C123.044 42.8594 123.208 42.651 123.422 42.4844C123.641 42.3177 123.888 42.1771 124.164 42.0625C124.44 41.9427 124.76 41.8516 125.125 41.7891C125.495 41.7266 125.865 41.6823 126.234 41.6562C126.604 41.6302 127.01 41.6172 127.453 41.6172V41.0078C127.453 40.8307 127.445 40.6771 127.43 40.5469C127.419 40.4167 127.378 40.2604 127.305 40.0781C127.232 39.8958 127.133 39.7474 127.008 39.6328C126.883 39.513 126.695 39.4115 126.445 39.3281C126.195 39.2396 125.898 39.1953 125.555 39.1953C125.023 39.1953 124.336 39.3125 123.492 39.5469L123.25 38.6094C124.104 38.2917 124.94 38.1328 125.758 38.1328ZM127.453 42.5859H126.977C126.68 42.5859 126.422 42.5911 126.203 42.6016C125.984 42.612 125.727 42.6432 125.43 42.6953C125.138 42.7422 124.898 42.8099 124.711 42.8984C124.523 42.987 124.362 43.1172 124.227 43.2891C124.096 43.4557 124.031 43.6562 124.031 43.8906C124.031 44.2188 124.195 44.5104 124.523 44.7656C124.857 45.0208 125.253 45.1484 125.711 45.1484C126.383 45.1484 126.964 44.8854 127.453 44.3594V42.5859ZM132.703 38.8594C133.354 38.375 134.073 38.1328 134.859 38.1328C135.401 38.1328 135.893 38.2344 136.336 38.4375L135.945 39.4609C135.539 39.3047 135.117 39.2266 134.68 39.2266C134.029 39.2266 133.417 39.4062 132.844 39.7656V46H131.562V38.2812H132.461L132.703 38.8594ZM137.711 34.8984H139.227V36.375H137.711V34.8984ZM137.828 38.2812H139.109V46H137.828V38.2812ZM148.484 35.9141V39.6406C148.583 39.6354 148.755 39.6328 149 39.6328C149.245 39.6276 149.435 39.625 149.57 39.625C149.706 39.6198 149.896 39.6094 150.141 39.5938C150.385 39.5729 150.581 39.5521 150.727 39.5312C150.878 39.5052 151.057 39.4688 151.266 39.4219C151.479 39.3698 151.651 39.3125 151.781 39.25C151.917 39.1823 152.057 39.099 152.203 39C152.354 38.8958 152.471 38.7812 152.555 38.6562C152.638 38.5312 152.706 38.3828 152.758 38.2109C152.815 38.0339 152.844 37.8411 152.844 37.6328C152.844 37.4766 152.828 37.3281 152.797 37.1875C152.766 37.0469 152.701 36.8958 152.602 36.7344C152.503 36.5729 152.375 36.4349 152.219 36.3203C152.062 36.2057 151.846 36.1094 151.57 36.0312C151.299 35.9531 150.984 35.9141 150.625 35.9141H148.484ZM148.484 40.6719V44.8281H150.555C150.742 44.8281 150.898 44.8281 151.023 44.8281C151.154 44.8229 151.339 44.8073 151.578 44.7812C151.818 44.75 152.021 44.7109 152.188 44.6641C152.359 44.612 152.549 44.5365 152.758 44.4375C152.966 44.3333 153.133 44.2109 153.258 44.0703C153.388 43.9297 153.497 43.75 153.586 43.5312C153.674 43.3073 153.719 43.0547 153.719 42.7734C153.719 42.0807 153.451 41.5391 152.914 41.1484C152.378 40.7578 151.656 40.5625 150.75 40.5625C150.651 40.5625 149.896 40.599 148.484 40.6719ZM147.156 34.8984H151.07C151.451 34.8984 151.797 34.9401 152.109 35.0234C152.427 35.1016 152.688 35.2031 152.891 35.3281C153.099 35.4531 153.281 35.6016 153.438 35.7734C153.599 35.9453 153.721 36.112 153.805 36.2734C153.888 36.4349 153.956 36.6068 154.008 36.7891C154.06 36.9714 154.091 37.1224 154.102 37.2422C154.117 37.3568 154.125 37.4661 154.125 37.5703C154.125 38.0234 153.971 38.4766 153.664 38.9297C153.357 39.3776 153.031 39.6667 152.688 39.7969C153.375 39.9219 153.938 40.2552 154.375 40.7969C154.818 41.3333 155.039 41.9453 155.039 42.6328C155.039 42.7943 155.023 42.9635 154.992 43.1406C154.966 43.3177 154.911 43.5182 154.828 43.7422C154.745 43.9661 154.638 44.1797 154.508 44.3828C154.378 44.5859 154.201 44.7891 153.977 44.9922C153.753 45.1901 153.495 45.362 153.203 45.5078C152.917 45.6536 152.562 45.7734 152.141 45.8672C151.724 45.9557 151.266 46 150.766 46H147.156V34.8984ZM159.977 38.1328C160.549 38.1328 161.034 38.2005 161.43 38.3359C161.831 38.4661 162.138 38.6589 162.352 38.9141C162.57 39.1693 162.727 39.4531 162.82 39.7656C162.914 40.0781 162.961 40.4375 162.961 40.8438V46H162.055L161.758 45.2969C161.128 45.8698 160.404 46.1562 159.586 46.1562C158.857 46.1562 158.24 45.9375 157.734 45.5C157.229 45.0573 156.977 44.5417 156.977 43.9531C156.977 43.6406 157.034 43.3594 157.148 43.1094C157.263 42.8594 157.427 42.651 157.641 42.4844C157.859 42.3177 158.107 42.1771 158.383 42.0625C158.659 41.9427 158.979 41.8516 159.344 41.7891C159.714 41.7266 160.083 41.6823 160.453 41.6562C160.823 41.6302 161.229 41.6172 161.672 41.6172V41.0078C161.672 40.8307 161.664 40.6771 161.648 40.5469C161.638 40.4167 161.596 40.2604 161.523 40.0781C161.451 39.8958 161.352 39.7474 161.227 39.6328C161.102 39.513 160.914 39.4115 160.664 39.3281C160.414 39.2396 160.117 39.1953 159.773 39.1953C159.242 39.1953 158.555 39.3125 157.711 39.5469L157.469 38.6094C158.323 38.2917 159.159 38.1328 159.977 38.1328ZM161.672 42.5859H161.195C160.898 42.5859 160.641 42.5911 160.422 42.6016C160.203 42.612 159.945 42.6432 159.648 42.6953C159.357 42.7422 159.117 42.8099 158.93 42.8984C158.742 42.987 158.581 43.1172 158.445 43.2891C158.315 43.4557 158.25 43.6562 158.25 43.8906C158.25 44.2188 158.414 44.5104 158.742 44.7656C159.076 45.0208 159.471 45.1484 159.93 45.1484C160.602 45.1484 161.182 44.8854 161.672 44.3594V42.5859ZM169.156 38.1328C169.474 38.1328 169.784 38.1719 170.086 38.25C170.388 38.3229 170.69 38.4557 170.992 38.6484C171.299 38.8359 171.565 39.0755 171.789 39.3672C172.018 39.6536 172.203 40.0286 172.344 40.4922C172.49 40.9557 172.562 41.4766 172.562 42.0547C172.562 43.3203 172.224 44.3203 171.547 45.0547C170.875 45.7891 170.003 46.1562 168.93 46.1562C168.315 46.1562 167.693 46.0182 167.062 45.7422V50.1484H165.781V38.2812H166.672L166.883 38.7734C167.612 38.3464 168.37 38.1328 169.156 38.1328ZM168.719 39.1953C168.151 39.1953 167.599 39.3385 167.062 39.625V44.7734C167.62 45.0234 168.18 45.1484 168.742 45.1484C168.982 45.1484 169.214 45.1224 169.438 45.0703C169.661 45.0182 169.888 44.9245 170.117 44.7891C170.352 44.6484 170.555 44.474 170.727 44.2656C170.898 44.0573 171.039 43.7812 171.148 43.4375C171.258 43.0938 171.312 42.7057 171.312 42.2734C171.312 41.7839 171.255 41.3516 171.141 40.9766C171.026 40.6016 170.88 40.3047 170.703 40.0859C170.526 39.8672 170.318 39.6875 170.078 39.5469C169.839 39.4062 169.609 39.3125 169.391 39.2656C169.172 39.2188 168.948 39.1953 168.719 39.1953ZM177.539 38.1328C178.112 38.1328 178.596 38.2005 178.992 38.3359C179.393 38.4661 179.701 38.6589 179.914 38.9141C180.133 39.1693 180.289 39.4531 180.383 39.7656C180.477 40.0781 180.523 40.4375 180.523 40.8438V46H179.617L179.32 45.2969C178.69 45.8698 177.966 46.1562 177.148 46.1562C176.419 46.1562 175.802 45.9375 175.297 45.5C174.792 45.0573 174.539 44.5417 174.539 43.9531C174.539 43.6406 174.596 43.3594 174.711 43.1094C174.826 42.8594 174.99 42.651 175.203 42.4844C175.422 42.3177 175.669 42.1771 175.945 42.0625C176.221 41.9427 176.542 41.8516 176.906 41.7891C177.276 41.7266 177.646 41.6823 178.016 41.6562C178.385 41.6302 178.792 41.6172 179.234 41.6172V41.0078C179.234 40.8307 179.227 40.6771 179.211 40.5469C179.201 40.4167 179.159 40.2604 179.086 40.0781C179.013 39.8958 178.914 39.7474 178.789 39.6328C178.664 39.513 178.477 39.4115 178.227 39.3281C177.977 39.2396 177.68 39.1953 177.336 39.1953C176.805 39.1953 176.117 39.3125 175.273 39.5469L175.031 38.6094C175.885 38.2917 176.721 38.1328 177.539 38.1328ZM179.234 42.5859H178.758C178.461 42.5859 178.203 42.5911 177.984 42.6016C177.766 42.612 177.508 42.6432 177.211 42.6953C176.919 42.7422 176.68 42.8099 176.492 42.8984C176.305 42.987 176.143 43.1172 176.008 43.2891C175.878 43.4557 175.812 43.6562 175.812 43.8906C175.812 44.2188 175.977 44.5104 176.305 44.7656C176.638 45.0208 177.034 45.1484 177.492 45.1484C178.164 45.1484 178.745 44.8854 179.234 44.3594V42.5859ZM183.344 34.1953H184.625V46H183.344V34.1953ZM188.156 38.125H189.57L186.211 41.6016L189.773 46H188.234L184.75 41.7344L188.156 38.125ZM204.234 34.8984H205.562V46H204.234V40.8594H198.297V46H196.969V34.8984H198.297V39.6875H204.234V34.8984ZM211.164 38.1328C211.737 38.1328 212.221 38.2005 212.617 38.3359C213.018 38.4661 213.326 38.6589 213.539 38.9141C213.758 39.1693 213.914 39.4531 214.008 39.7656C214.102 40.0781 214.148 40.4375 214.148 40.8438V46H213.242L212.945 45.2969C212.315 45.8698 211.591 46.1562 210.773 46.1562C210.044 46.1562 209.427 45.9375 208.922 45.5C208.417 45.0573 208.164 44.5417 208.164 43.9531C208.164 43.6406 208.221 43.3594 208.336 43.1094C208.451 42.8594 208.615 42.651 208.828 42.4844C209.047 42.3177 209.294 42.1771 209.57 42.0625C209.846 41.9427 210.167 41.8516 210.531 41.7891C210.901 41.7266 211.271 41.6823 211.641 41.6562C212.01 41.6302 212.417 41.6172 212.859 41.6172V41.0078C212.859 40.8307 212.852 40.6771 212.836 40.5469C212.826 40.4167 212.784 40.2604 212.711 40.0781C212.638 39.8958 212.539 39.7474 212.414 39.6328C212.289 39.513 212.102 39.4115 211.852 39.3281C211.602 39.2396 211.305 39.1953 210.961 39.1953C210.43 39.1953 209.742 39.3125 208.898 39.5469L208.656 38.6094C209.51 38.2917 210.346 38.1328 211.164 38.1328ZM212.859 42.5859H212.383C212.086 42.5859 211.828 42.5911 211.609 42.6016C211.391 42.612 211.133 42.6432 210.836 42.6953C210.544 42.7422 210.305 42.8099 210.117 42.8984C209.93 42.987 209.768 43.1172 209.633 43.2891C209.503 43.4557 209.438 43.6562 209.438 43.8906C209.438 44.2188 209.602 44.5104 209.93 44.7656C210.263 45.0208 210.659 45.1484 211.117 45.1484C211.789 45.1484 212.37 44.8854 212.859 44.3594V42.5859ZM218.109 38.8594C218.76 38.375 219.479 38.1328 220.266 38.1328C220.807 38.1328 221.299 38.2344 221.742 38.4375L221.352 39.4609C220.945 39.3047 220.523 39.2266 220.086 39.2266C219.435 39.2266 218.823 39.4062 218.25 39.7656V46H216.969V38.2812H217.867L218.109 38.8594ZM222.844 42.2734C222.844 41.6068 222.938 41.0078 223.125 40.4766C223.312 39.9453 223.57 39.5104 223.898 39.1719C224.227 38.8333 224.609 38.5755 225.047 38.3984C225.49 38.2161 225.966 38.125 226.477 38.125C227.091 38.125 227.714 38.263 228.344 38.5391V34.1953H229.625V46H228.734L228.523 45.5156C227.799 45.9427 227.044 46.1562 226.258 46.1562C225.935 46.1562 225.62 46.1172 225.312 46.0391C225.005 45.9609 224.701 45.8255 224.398 45.6328C224.096 45.4401 223.831 45.2005 223.602 44.9141C223.378 44.6224 223.195 44.25 223.055 43.7969C222.914 43.3438 222.844 42.8359 222.844 42.2734ZM226.68 45.1016C227.247 45.1016 227.802 44.9557 228.344 44.6641V39.5078C227.786 39.2578 227.227 39.1328 226.664 39.1328C226.424 39.1328 226.193 39.1589 225.969 39.2109C225.745 39.263 225.516 39.3568 225.281 39.4922C225.047 39.6276 224.844 39.8021 224.672 40.0156C224.505 40.2292 224.367 40.513 224.258 40.8672C224.148 41.2161 224.094 41.6172 224.094 42.0703C224.094 42.5391 224.151 42.9583 224.266 43.3281C224.38 43.6927 224.526 43.9844 224.703 44.2031C224.88 44.4219 225.089 44.6016 225.328 44.7422C225.568 44.8828 225.797 44.9792 226.016 45.0312C226.234 45.0781 226.456 45.1016 226.68 45.1016ZM232.398 34.8984H233.914V36.375H232.398V34.8984ZM232.516 38.2812H233.797V46H232.516V38.2812ZM4.01562 62.2734C4.01562 61.6068 4.10938 61.0078 4.29688 60.4766C4.48438 59.9453 4.74219 59.5104 5.07031 59.1719C5.39844 58.8333 5.78125 58.5755 6.21875 58.3984C6.66146 58.2161 7.13802 58.125 7.64844 58.125C8.26302 58.125 8.88542 58.263 9.51562 58.5391V54.1953H10.7969V66H9.90625L9.69531 65.5156C8.97135 65.9427 8.21615 66.1562 7.42969 66.1562C7.10677 66.1562 6.79167 66.1172 6.48438 66.0391C6.17708 65.9609 5.8724 65.8255 5.57031 65.6328C5.26823 65.4401 5.0026 65.2005 4.77344 64.9141C4.54948 64.6224 4.36719 64.25 4.22656 63.7969C4.08594 63.3438 4.01562 62.8359 4.01562 62.2734ZM7.85156 65.1016C8.41927 65.1016 8.97396 64.9557 9.51562 64.6641V59.5078C8.95833 59.2578 8.39844 59.1328 7.83594 59.1328C7.59635 59.1328 7.36458 59.1589 7.14062 59.2109C6.91667 59.263 6.6875 59.3568 6.45312 59.4922C6.21875 59.6276 6.01562 59.8021 5.84375 60.0156C5.67708 60.2292 5.53906 60.513 5.42969 60.8672C5.32031 61.2161 5.26562 61.6172 5.26562 62.0703C5.26562 62.5391 5.32292 62.9583 5.4375 63.3281C5.55208 63.6927 5.69792 63.9844 5.875 64.2031C6.05208 64.4219 6.26042 64.6016 6.5 64.7422C6.73958 64.8828 6.96875 64.9792 7.1875 65.0312C7.40625 65.0781 7.6276 65.1016 7.85156 65.1016ZM16.2422 58.1328C16.8151 58.1328 17.2995 58.2005 17.6953 58.3359C18.0964 58.4661 18.4036 58.6589 18.6172 58.9141C18.8359 59.1693 18.9922 59.4531 19.0859 59.7656C19.1797 60.0781 19.2266 60.4375 19.2266 60.8438V66H18.3203L18.0234 65.2969C17.3932 65.8698 16.6693 66.1562 15.8516 66.1562C15.1224 66.1562 14.5052 65.9375 14 65.5C13.4948 65.0573 13.2422 64.5417 13.2422 63.9531C13.2422 63.6406 13.2995 63.3594 13.4141 63.1094C13.5286 62.8594 13.6927 62.651 13.9062 62.4844C14.125 62.3177 14.3724 62.1771 14.6484 62.0625C14.9245 61.9427 15.2448 61.8516 15.6094 61.7891C15.9792 61.7266 16.349 61.6823 16.7188 61.6562C17.0885 61.6302 17.4948 61.6172 17.9375 61.6172V61.0078C17.9375 60.8307 17.9297 60.6771 17.9141 60.5469C17.9036 60.4167 17.862 60.2604 17.7891 60.0781C17.7161 59.8958 17.6172 59.7474 17.4922 59.6328C17.3672 59.513 17.1797 59.4115 16.9297 59.3281C16.6797 59.2396 16.3828 59.1953 16.0391 59.1953C15.5078 59.1953 14.8203 59.3125 13.9766 59.5469L13.7344 58.6094C14.5885 58.2917 15.4245 58.1328 16.2422 58.1328ZM17.9375 62.5859H17.4609C17.1641 62.5859 16.9062 62.5911 16.6875 62.6016C16.4688 62.612 16.2109 62.6432 15.9141 62.6953C15.6224 62.7422 15.3828 62.8099 15.1953 62.8984C15.0078 62.987 14.8464 63.1172 14.7109 63.2891C14.5807 63.4557 14.5156 63.6562 14.5156 63.8906C14.5156 64.2188 14.6797 64.5104 15.0078 64.7656C15.3411 65.0208 15.737 65.1484 16.1953 65.1484C16.8672 65.1484 17.4479 64.8854 17.9375 64.3594V62.5859ZM22.0469 58.2812H22.9453L23.2266 58.9375C24.2214 58.3958 25.1276 58.125 25.9453 58.125C26.3672 58.125 26.7344 58.1927 27.0469 58.3281C27.3594 58.4583 27.6016 58.625 27.7734 58.8281C27.9453 59.026 28.0807 59.2786 28.1797 59.5859C28.2839 59.888 28.349 60.1771 28.375 60.4531C28.4062 60.7292 28.4219 61.0443 28.4219 61.3984V66H27.1406V61.3125C27.1406 59.9583 26.5573 59.2812 25.3906 59.2812C24.7865 59.2812 24.099 59.4818 23.3281 59.8828V66H22.0469V58.2812ZM36.7031 54.8984H38.0312V66H36.7031V54.8984ZM41.3906 54.1953H42.6719V58.6484C43.3438 58.2995 44.0312 58.125 44.7344 58.125C45.0469 58.125 45.3542 58.1641 45.6562 58.2422C45.9583 58.3151 46.2604 58.4479 46.5625 58.6406C46.8698 58.8281 47.138 59.0651 47.3672 59.3516C47.5964 59.638 47.7812 60.013 47.9219 60.4766C48.0677 60.9401 48.1406 61.4635 48.1406 62.0469C48.1406 63.3177 47.8021 64.3203 47.125 65.0547C46.4531 65.7891 45.5807 66.1562 44.5078 66.1562C43.8047 66.1562 43.1146 65.9844 42.4375 65.6406L42.2812 66H41.3906V54.1953ZM44.2969 59.1875C43.7396 59.1875 43.1979 59.3255 42.6719 59.6016V64.7891C43.2292 65.0286 43.7786 65.1484 44.3203 65.1484C44.5599 65.1484 44.7917 65.1224 45.0156 65.0703C45.2396 65.0182 45.4661 64.9245 45.6953 64.7891C45.9297 64.6484 46.1328 64.474 46.3047 64.2656C46.4766 64.0573 46.6172 63.7812 46.7266 63.4375C46.8359 63.0938 46.8906 62.7057 46.8906 62.2734C46.8906 61.7839 46.8333 61.3516 46.7188 60.9766C46.6042 60.5964 46.4583 60.2969 46.2812 60.0781C46.1042 59.8594 45.8958 59.6797 45.6562 59.5391C45.4167 59.3984 45.1875 59.3047 44.9688 59.2578C44.75 59.2109 44.526 59.1875 44.2969 59.1875ZM55.6641 58.2812H56.9453V66H56.0469L55.7734 65.3516C54.7891 65.888 53.8802 66.1562 53.0469 66.1562C52.625 66.1562 52.2578 66.0911 51.9453 65.9609C51.6328 65.8255 51.3906 65.6589 51.2188 65.4609C51.0469 65.263 50.9089 65.013 50.8047 64.7109C50.7005 64.4036 50.6328 64.112 50.6016 63.8359C50.5755 63.5599 50.5625 63.2448 50.5625 62.8906V58.2812H51.8438V62.9844C51.8438 64.3333 52.4297 65.0078 53.6016 65.0078C54.2057 65.0078 54.8932 64.8073 55.6641 64.4062V58.2812ZM65 54.8984H66.6797L72.7266 64.1875V54.8984H74.0547V66H72.375L66.3281 56.6953V66H65V54.8984ZM82.2109 58.2812H83.4922V66H82.5938L82.3203 65.3516C81.3359 65.888 80.4271 66.1562 79.5938 66.1562C79.1719 66.1562 78.8047 66.0911 78.4922 65.9609C78.1797 65.8255 77.9375 65.6589 77.7656 65.4609C77.5938 65.263 77.4557 65.013 77.3516 64.7109C77.2474 64.4036 77.1797 64.112 77.1484 63.8359C77.1224 63.5599 77.1094 63.2448 77.1094 62.8906V58.2812H78.3906V62.9844C78.3906 64.3333 78.9766 65.0078 80.1484 65.0078C80.7526 65.0078 81.4401 64.8073 82.2109 64.4062V58.2812ZM87.4531 58.8594C88.1042 58.375 88.8229 58.1328 89.6094 58.1328C90.151 58.1328 90.6432 58.2344 91.0859 58.4375L90.6953 59.4609C90.2891 59.3047 89.8672 59.2266 89.4297 59.2266C88.7786 59.2266 88.1667 59.4062 87.5938 59.7656V66H86.3125V58.2812H87.2109L87.4531 58.8594ZM92.7344 54.1953H94.0156V66H92.7344V54.1953ZM99.5391 58.1328C100.112 58.1328 100.596 58.2005 100.992 58.3359C101.393 58.4661 101.701 58.6589 101.914 58.9141C102.133 59.1693 102.289 59.4531 102.383 59.7656C102.477 60.0781 102.523 60.4375 102.523 60.8438V66H101.617L101.32 65.2969C100.69 65.8698 99.9661 66.1562 99.1484 66.1562C98.4193 66.1562 97.8021 65.9375 97.2969 65.5C96.7917 65.0573 96.5391 64.5417 96.5391 63.9531C96.5391 63.6406 96.5964 63.3594 96.7109 63.1094C96.8255 62.8594 96.9896 62.651 97.2031 62.4844C97.4219 62.3177 97.6693 62.1771 97.9453 62.0625C98.2214 61.9427 98.5417 61.8516 98.9062 61.7891C99.276 61.7266 99.6458 61.6823 100.016 61.6562C100.385 61.6302 100.792 61.6172 101.234 61.6172V61.0078C101.234 60.8307 101.227 60.6771 101.211 60.5469C101.201 60.4167 101.159 60.2604 101.086 60.0781C101.013 59.8958 100.914 59.7474 100.789 59.6328C100.664 59.513 100.477 59.4115 100.227 59.3281C99.9766 59.2396 99.6797 59.1953 99.3359 59.1953C98.8047 59.1953 98.1172 59.3125 97.2734 59.5469L97.0312 58.6094C97.8854 58.2917 98.7214 58.1328 99.5391 58.1328ZM101.234 62.5859H100.758C100.461 62.5859 100.203 62.5911 99.9844 62.6016C99.7656 62.612 99.5078 62.6432 99.2109 62.6953C98.9193 62.7422 98.6797 62.8099 98.4922 62.8984C98.3047 62.987 98.1432 63.1172 98.0078 63.2891C97.8776 63.4557 97.8125 63.6562 97.8125 63.8906C97.8125 64.2188 97.9766 64.5104 98.3047 64.7656C98.638 65.0208 99.0339 65.1484 99.4922 65.1484C100.164 65.1484 100.745 64.8854 101.234 64.3594V62.5859ZM105.227 54.8984H106.742V56.375H105.227V54.8984ZM105.344 58.2812H106.625V66H105.344V58.2812ZM109.594 54.1953H110.875V66H109.594V54.1953ZM113.727 54.8984H115.242V56.375H113.727V54.8984ZM113.844 58.2812H115.125V66H113.844V58.2812ZM123.406 54.8984H124.734V66H123.406V54.8984ZM131.219 58.1328C131.328 58.1328 131.43 58.1354 131.523 58.1406C131.622 58.1406 131.716 58.1458 131.805 58.1562C131.898 58.1667 131.977 58.1745 132.039 58.1797C132.107 58.1849 132.182 58.1953 132.266 58.2109C132.354 58.2266 132.417 58.2396 132.453 58.25C132.495 58.2552 132.56 58.2708 132.648 58.2969C132.742 58.3177 132.799 58.3307 132.82 58.3359C132.841 58.3411 132.901 58.3594 133 58.3906C133.104 58.4219 133.164 58.4401 133.18 58.4453L132.852 59.4219C132.154 59.2292 131.539 59.1328 131.008 59.1328C130.701 59.1328 130.427 59.1641 130.188 59.2266C129.953 59.2891 129.771 59.3646 129.641 59.4531C129.516 59.5417 129.411 59.6458 129.328 59.7656C129.25 59.8802 129.198 59.9818 129.172 60.0703C129.151 60.1589 129.141 60.2448 129.141 60.3281C129.141 60.5417 129.25 60.7318 129.469 60.8984C129.693 61.0651 129.969 61.2005 130.297 61.3047C130.63 61.4089 130.99 61.5339 131.375 61.6797C131.76 61.8203 132.117 61.9714 132.445 62.1328C132.779 62.2891 133.055 62.5104 133.273 62.7969C133.497 63.0833 133.609 63.4141 133.609 63.7891C133.609 64.0026 133.581 64.2109 133.523 64.4141C133.471 64.612 133.367 64.8203 133.211 65.0391C133.06 65.2578 132.862 65.4479 132.617 65.6094C132.378 65.7656 132.055 65.8958 131.648 66C131.242 66.1042 130.776 66.1562 130.25 66.1562C129.453 66.1562 128.578 65.9609 127.625 65.5703L127.984 64.6016C128.521 64.7995 128.958 64.9401 129.297 65.0234C129.641 65.1068 129.977 65.1484 130.305 65.1484C131.576 65.1484 132.211 64.7448 132.211 63.9375C132.211 63.7604 132.148 63.6042 132.023 63.4688C131.898 63.3333 131.732 63.224 131.523 63.1406C131.315 63.0521 131.078 62.9635 130.812 62.875C130.552 62.7812 130.284 62.6953 130.008 62.6172C129.737 62.5391 129.469 62.4375 129.203 62.3125C128.943 62.1823 128.708 62.0417 128.5 61.8906C128.292 61.7344 128.125 61.5339 128 61.2891C127.875 61.0443 127.812 60.7682 127.812 60.4609C127.812 60.2734 127.841 60.0833 127.898 59.8906C127.961 59.6927 128.073 59.487 128.234 59.2734C128.401 59.0547 128.607 58.8646 128.852 58.7031C129.096 58.5365 129.422 58.401 129.828 58.2969C130.24 58.1875 130.703 58.1328 131.219 58.1328ZM139.039 59.3125C138.591 59.3125 137.99 59.5104 137.234 59.9062V66H135.953V58.2812H136.852L137.125 58.9219C138.057 58.3958 138.865 58.1328 139.547 58.1328C140.333 58.1328 140.951 58.4193 141.398 58.9922C142.419 58.4245 143.333 58.1406 144.141 58.1406C144.531 58.1406 144.875 58.1953 145.172 58.3047C145.469 58.4089 145.708 58.5547 145.891 58.7422C146.078 58.9245 146.229 59.1562 146.344 59.4375C146.464 59.7135 146.544 60.0078 146.586 60.3203C146.633 60.6276 146.656 60.9766 146.656 61.3672V66H145.375V61.2812C145.375 61.1875 145.372 61.1016 145.367 61.0234C145.362 60.9401 145.349 60.8281 145.328 60.6875C145.307 60.5417 145.276 60.4141 145.234 60.3047C145.193 60.1901 145.13 60.0677 145.047 59.9375C144.969 59.8073 144.872 59.7005 144.758 59.6172C144.643 59.5286 144.497 59.4557 144.32 59.3984C144.143 59.3411 143.945 59.3125 143.727 59.3125C143.247 59.3125 142.615 59.5156 141.828 59.9219C141.901 60.2292 141.938 60.7292 141.938 61.4219V66H140.656V61.25C140.656 61.1146 140.651 60.987 140.641 60.8672C140.63 60.7422 140.594 60.5781 140.531 60.375C140.469 60.1719 140.385 60 140.281 59.8594C140.177 59.7135 140.016 59.5859 139.797 59.4766C139.583 59.3672 139.331 59.3125 139.039 59.3125ZM152.055 58.1328C152.628 58.1328 153.112 58.2005 153.508 58.3359C153.909 58.4661 154.216 58.6589 154.43 58.9141C154.648 59.1693 154.805 59.4531 154.898 59.7656C154.992 60.0781 155.039 60.4375 155.039 60.8438V66H154.133L153.836 65.2969C153.206 65.8698 152.482 66.1562 151.664 66.1562C150.935 66.1562 150.318 65.9375 149.812 65.5C149.307 65.0573 149.055 64.5417 149.055 63.9531C149.055 63.6406 149.112 63.3594 149.227 63.1094C149.341 62.8594 149.505 62.651 149.719 62.4844C149.938 62.3177 150.185 62.1771 150.461 62.0625C150.737 61.9427 151.057 61.8516 151.422 61.7891C151.792 61.7266 152.161 61.6823 152.531 61.6562C152.901 61.6302 153.307 61.6172 153.75 61.6172V61.0078C153.75 60.8307 153.742 60.6771 153.727 60.5469C153.716 60.4167 153.674 60.2604 153.602 60.0781C153.529 59.8958 153.43 59.7474 153.305 59.6328C153.18 59.513 152.992 59.4115 152.742 59.3281C152.492 59.2396 152.195 59.1953 151.852 59.1953C151.32 59.1953 150.633 59.3125 149.789 59.5469L149.547 58.6094C150.401 58.2917 151.237 58.1328 152.055 58.1328ZM153.75 62.5859H153.273C152.977 62.5859 152.719 62.5911 152.5 62.6016C152.281 62.612 152.023 62.6432 151.727 62.6953C151.435 62.7422 151.195 62.8099 151.008 62.8984C150.82 62.987 150.659 63.1172 150.523 63.2891C150.393 63.4557 150.328 63.6562 150.328 63.8906C150.328 64.2188 150.492 64.5104 150.82 64.7656C151.154 65.0208 151.549 65.1484 152.008 65.1484C152.68 65.1484 153.26 64.8854 153.75 64.3594V62.5859ZM157.742 54.8984H159.258V56.375H157.742V54.8984ZM157.859 58.2812H159.141V66H157.859V58.2812ZM162.109 54.1953H163.391V66H162.109V54.1953Z" fill="#7A4200"/>
</g>
<defs>
<filter id="filter0_d_658_45" x="1.32812" y="3.17188" width="147.711" height="27.957" filterUnits="userSpaceOnUse" color-interpolation-filters="sRGB">
<feFlood flood-opacity="0" result="BackgroundImageFix"/>
<feColorMatrix in="SourceAlpha" type="matrix" values="0 0 0 0 0 0 0 0 0 0 0 0 0 0 0 0 0 0 127 0" result="hardAlpha"/>
<feOffset dy="4"/>
<feGaussianBlur stdDeviation="2"/>
<feComposite in2="hardAlpha" operator="out"/>
<feColorMatrix type="matrix" values="0 0 0 0 0 0 0 0 0 0 0 0 0 0 0 0 0 0 0.25 0"/>
<feBlend mode="normal" in2="BackgroundImageFix" result="effect1_dropShadow_658_45"/>
<feBlend mode="normal" in="SourceGraphic" in2="effect1_dropShadow_658_45" result="shape"/>
</filter>
<filter id="filter1_d_658_45" x="0.015625" y="34.1953" width="237.898" height="39.9609" filterUnits="userSpaceOnUse" color-interpolation-filters="sRGB">
<feFlood flood-opacity="0" result="BackgroundImageFix"/>
<feColorMatrix in="SourceAlpha" type="matrix" values="0 0 0 0 0 0 0 0 0 0 0 0 0 0 0 0 0 0 127 0" result="hardAlpha"/>
<feOffset dy="4"/>
<feGaussianBlur stdDeviation="2"/>
<feComposite in2="hardAlpha" operator="out"/>
<feColorMatrix type="matrix" values="0 0 0 0 0 0 0 0 0 0 0 0 0 0 0 0 0 0 0.25 0"/>
<feBlend mode="normal" in2="BackgroundImageFix" result="effect1_dropShadow_658_45"/>
<feBlend mode="normal" in="SourceGraphic" in2="effect1_dropShadow_658_45" result="shape"/>
</filter>
</defs>
</svg>
