<svg width="428" height="89" viewBox="0 0 428 89" fill="none" xmlns="http://www.w3.org/2000/svg">
<g filter="url(#filter0_d_581_9)">
<path d="M157.902 24.6641C159.668 24.6641 161.246 24.2656 162.637 23.4688C164.035 22.6719 165.184 21.6016 166.082 20.2578C166.184 20.0938 166.258 20.043 166.305 20.1055C166.359 20.168 166.426 20.2539 166.504 20.3633L166.867 20.8906C166.984 21.0859 167.027 21.207 166.996 21.2539C166.527 22.207 165.742 23.1406 164.641 24.0547C162.602 25.7578 160.355 26.6094 157.902 26.6094C156.48 26.6094 155.148 26.3359 153.906 25.7891C152.664 25.2344 151.617 24.4961 150.766 23.5742C149.914 22.6523 149.242 21.5742 148.75 20.3398C148.266 19.0977 148.023 17.8125 148.023 16.4844C148.023 15.1562 148.285 13.8867 148.809 12.6758C149.34 11.457 150.047 10.4062 150.93 9.52344C151.812 8.63281 152.859 7.92187 154.07 7.39062C155.281 6.85156 156.504 6.58203 157.738 6.58203C159.207 6.58203 160.688 6.86719 162.18 7.4375L162.719 7.63672C162.797 7.66797 162.906 7.63672 163.047 7.54297C163.188 7.44922 163.336 7.40234 163.492 7.40234C163.648 7.40234 163.77 7.47656 163.855 7.625C163.887 7.64844 163.898 7.73047 163.891 7.87109C163.875 8.09766 163.969 8.61719 164.172 9.42969L164.465 10.7188C164.543 11.0547 164.582 11.2695 164.582 11.3633C164.582 11.4102 164.48 11.4844 164.277 11.5859C164.082 11.6797 163.969 11.6992 163.938 11.6445C163.289 10.5117 162.473 9.73047 161.488 9.30078C160.512 8.87109 159.289 8.65625 157.82 8.65625C156.359 8.65625 155.039 8.98828 153.859 9.65234C152.68 10.3164 151.77 11.2422 151.129 12.4297C150.488 13.6094 150.168 14.9492 150.168 16.4492C150.168 17.4336 150.395 18.4297 150.848 19.4375C151.301 20.4375 151.883 21.3203 152.594 22.0859C153.312 22.8438 154.145 23.4648 155.09 23.9492C156.035 24.4258 156.973 24.6641 157.902 24.6641ZM171.625 16.6602C171.117 16.9805 170.742 17.4023 170.5 17.9258C170.258 18.4414 170.137 19.0977 170.137 19.8945C170.137 20.6914 170.355 21.4883 170.793 22.2852C171.238 23.082 171.844 23.7148 172.609 24.1836C173.383 24.6445 174.148 24.875 174.906 24.875C175.672 24.875 176.293 24.7031 176.77 24.3594C177.254 24.0156 177.621 23.5703 177.871 23.0234C178.129 22.4766 178.258 21.875 178.258 21.2188C178.258 19.8359 177.816 18.6484 176.934 17.6562C176.059 16.6641 174.883 16.168 173.406 16.168C172.727 16.168 172.133 16.332 171.625 16.6602ZM170.172 24.5703C169.656 24.0703 169.238 23.4688 168.918 22.7656C168.605 22.0625 168.449 21.2305 168.449 20.2695C168.449 19.3086 168.695 18.375 169.188 17.4688C169.68 16.5625 170.387 15.8555 171.309 15.3477C172.23 14.8398 173.188 14.5859 174.18 14.5859C175.992 14.5859 177.434 15.1562 178.504 16.2969C179.574 17.4297 180.109 18.8086 180.109 20.4336C180.117 22.0586 179.555 23.4297 178.422 24.5469C177.289 25.6562 175.859 26.2109 174.133 26.2109C173.398 26.2109 172.684 26.0625 171.988 25.7656C171.301 25.4688 170.695 25.0703 170.172 24.5703ZM181.844 16.7891L181.855 16.5781C181.855 16.5547 182.129 16.3242 182.676 15.8867C183.23 15.4414 183.707 15.0898 184.105 14.832H184.68C184.727 14.8789 184.75 15 184.75 15.1953V22.3555C184.75 22.8477 184.906 23.2852 185.219 23.668C185.844 24.418 186.727 24.793 187.867 24.793C188.648 24.793 189.527 24.5352 190.504 24.0195L191.02 23.75V16.5078C191.02 15.9375 190.828 15.5781 190.445 15.4297C190.344 15.3906 190.262 15.3516 190.199 15.3125C190.137 15.2734 190.105 15.1836 190.105 15.043C190.105 14.9023 190.156 14.832 190.258 14.832H192.895C192.941 14.832 192.965 16.1016 192.965 18.6406L192.953 23.2344C192.953 23.6719 193.086 24.0078 193.352 24.2422C193.414 24.2969 193.516 24.3281 193.656 24.3359C193.797 24.3438 193.887 24.3672 193.926 24.4062C193.973 24.4375 193.996 24.5273 193.996 24.6758C194.004 24.8164 193.988 24.8984 193.949 24.9219L191.664 26.1172C191.633 26.1406 191.531 26.1523 191.359 26.1523C191.188 26.1523 191.086 26.1367 191.055 26.1055C191.023 26.0742 191.008 25.9688 191.008 25.7891V24.7695C191 24.7695 190.938 24.8125 190.82 24.8984C189.359 25.8594 188.133 26.3398 187.141 26.3398C186.477 26.3398 185.809 26.1719 185.137 25.8359C184.465 25.4922 183.91 25.0312 183.473 24.4531C183.035 23.875 182.816 23.2734 182.816 22.6484V17.9492C182.816 17.6211 182.754 17.3867 182.629 17.2461C182.504 17.0977 182.367 17.0234 182.219 17.0234C182.07 17.0156 181.977 16.9961 181.938 16.9648C181.875 16.918 181.844 16.8594 181.844 16.7891ZM196 26C195.898 26 195.848 25.9297 195.848 25.7891C195.848 25.6484 195.879 25.5586 195.941 25.5195C196.012 25.4805 196.094 25.4414 196.188 25.4023C196.289 25.3633 196.367 25.3164 196.422 25.2617C196.664 25.0195 196.781 24.75 196.773 24.4531C196.773 24.1484 196.773 23.9805 196.773 23.9492V17.75C196.773 17.5 196.711 17.3203 196.586 17.2109C196.461 17.1016 196.328 17.043 196.188 17.0352C196.047 17.0273 195.953 17.0078 195.906 16.9766C195.867 16.9375 195.84 16.9023 195.824 16.8711C195.816 16.8398 195.809 16.8125 195.801 16.7891C195.801 16.7656 195.801 16.7305 195.801 16.6836C195.809 16.6367 195.812 16.6016 195.812 16.5781C195.812 16.5547 195.816 16.5352 195.824 16.5195C195.84 16.5039 195.863 16.4883 195.895 16.4727C195.926 16.4492 195.945 16.4336 195.953 16.4258L198.062 14.8672C198.094 14.8438 198.18 14.832 198.32 14.832C198.461 14.832 198.562 14.8516 198.625 14.8906C198.688 14.9219 198.719 15.0234 198.719 15.1953V16.0625L199.316 15.7109L199.668 15.5352C200.754 14.9883 201.77 14.7148 202.715 14.7148C203.66 14.7148 204.59 15.0508 205.504 15.7227C205.918 16.0273 206.254 16.3984 206.512 16.8359C206.777 17.2656 206.91 17.7148 206.91 18.1836V24.4531C206.91 24.625 206.957 24.8086 207.051 25.0039C207.145 25.1914 207.297 25.3281 207.508 25.4141C207.719 25.5 207.824 25.5859 207.824 25.6719C207.824 25.8906 207.773 26 207.672 26H204.238C204.137 26 204.086 25.9297 204.086 25.7891C204.086 25.6484 204.117 25.5586 204.18 25.5195C204.25 25.4805 204.332 25.4414 204.426 25.4023C204.527 25.3633 204.609 25.3125 204.672 25.25C204.742 25.1875 204.801 25.1172 204.848 25.0391C204.895 24.9609 204.926 24.8711 204.941 24.7695C204.965 24.6602 204.977 24.582 204.977 24.5352C204.984 24.4805 204.984 24.3828 204.977 24.2422C204.977 24.0938 204.977 23.9961 204.977 23.9492V18.4766C204.977 18.0078 204.82 17.5977 204.508 17.2461C203.906 16.5898 203.062 16.2617 201.977 16.2617C200.891 16.2617 199.801 16.5352 198.707 17.082V24.4531C198.707 24.625 198.754 24.8086 198.848 25.0039C198.941 25.1914 199.094 25.3281 199.305 25.4141C199.516 25.5 199.621 25.5859 199.621 25.6719C199.621 25.8906 199.57 26 199.469 26H196ZM211.047 12.7461C211.07 12.5898 211.211 12.5117 211.469 12.5117C211.734 12.5117 211.867 12.5898 211.867 12.7461V14.832H213.941C214.34 14.832 214.539 14.8828 214.539 14.9844V16.0156C214.539 16.1172 214.34 16.168 213.941 16.168H211.867V23.4453C211.867 24.375 212.141 24.8945 212.688 25.0039C213.102 25.0898 213.531 24.9336 213.977 24.5352C214.156 24.3711 214.281 24.332 214.352 24.418C214.43 24.5039 214.484 24.5703 214.516 24.6172C214.547 24.6641 214.562 24.7109 214.562 24.7578C214.562 24.7969 214.562 24.8281 214.562 24.8516C214.57 24.8906 214.527 24.957 214.434 25.0508L214.188 25.2617C213.375 25.9648 212.582 26.2852 211.809 26.2227C211.043 26.1602 210.504 25.7109 210.191 24.875C210.02 24.4219 209.934 23.8711 209.934 23.2227V16.168H209.395C208.996 16.168 208.797 16.1172 208.797 16.0156V14.9844C208.797 14.8828 208.961 14.832 209.289 14.832C209.867 14.832 210.281 14.6289 210.531 14.2227C210.789 13.8164 210.961 13.3242 211.047 12.7461ZM223.234 8.76172L223.246 8.55078C223.246 8.51172 223.266 8.48047 223.305 8.45703C223.352 8.42578 223.379 8.40625 223.387 8.39844L225.496 6.83984C225.527 6.81641 225.609 6.80469 225.742 6.80469C225.883 6.80469 225.984 6.82422 226.047 6.86328C226.109 6.89453 226.141 6.99609 226.141 7.16797C226.141 14.207 226.152 19.6523 226.176 23.5039C226.199 23.6289 226.188 23.6875 226.141 23.6797C226.133 23.6797 226.152 23.7031 226.199 23.75C226.254 23.7891 226.352 23.8125 226.492 23.8203C226.633 23.8281 226.727 23.8516 226.773 23.8906C226.82 23.9219 226.844 24.0117 226.844 24.1602C226.844 24.3008 226.824 24.3828 226.785 24.4062L224.84 26C224.809 26.0234 224.707 26.0352 224.535 26.0352C224.371 26.0352 224.27 26.0195 224.23 25.9883C224.199 25.9492 224.184 25.8984 224.184 25.8359C224.184 25.7656 224.188 25.6992 224.195 25.6367C224.211 25.5664 224.207 25.4805 224.184 25.3789C224.16 25.2773 224.129 25.2227 224.09 25.2148C224.059 25.1992 223.996 25.2227 223.902 25.2852L223.586 25.4844C222.789 25.9688 221.984 26.2109 221.172 26.2109C220.359 26.2109 219.605 26.0625 218.91 25.7656C218.223 25.4688 217.617 25.0703 217.094 24.5703C216.578 24.0703 216.16 23.4688 215.84 22.7656C215.527 22.0625 215.371 21.2305 215.371 20.2695C215.371 19.3086 215.617 18.375 216.109 17.4688C216.602 16.5625 217.309 15.8555 218.23 15.3477C219.152 14.8398 220.215 14.5859 221.418 14.5859C221.895 14.5859 222.395 14.7031 222.918 14.9375C223.449 15.1641 223.852 15.4141 224.125 15.6875H224.254C224.254 13.1406 224.238 11.1523 224.207 9.72266C224.207 9.47266 224.145 9.29297 224.02 9.18359C223.895 9.07422 223.762 9.01562 223.621 9.00781C223.48 9 223.387 8.97656 223.34 8.9375C223.27 8.89062 223.234 8.83203 223.234 8.76172ZM224.195 23.3398L224.23 18.2305C223.863 17.5898 223.336 17.0859 222.648 16.7188C221.961 16.3516 221.188 16.168 220.328 16.168C219.195 16.168 218.285 16.7461 217.598 17.9023C217.238 18.5195 217.059 19.1055 217.059 19.6602C217.059 21.1055 217.508 22.2852 218.406 23.1992C219.305 24.1055 220.461 24.5586 221.875 24.5586C222.273 24.5586 222.684 24.4375 223.105 24.1953C223.535 23.9531 223.898 23.668 224.195 23.3398ZM231.367 16.6602C230.859 16.9805 230.484 17.4023 230.242 17.9258C230 18.4414 229.879 19.0977 229.879 19.8945C229.879 20.6914 230.098 21.4883 230.535 22.2852C230.98 23.082 231.586 23.7148 232.352 24.1836C233.125 24.6445 233.891 24.875 234.648 24.875C235.414 24.875 236.035 24.7031 236.512 24.3594C236.996 24.0156 237.363 23.5703 237.613 23.0234C237.871 22.4766 238 21.875 238 21.2188C238 19.8359 237.559 18.6484 236.676 17.6562C235.801 16.6641 234.625 16.168 233.148 16.168C232.469 16.168 231.875 16.332 231.367 16.6602ZM229.914 24.5703C229.398 24.0703 228.98 23.4688 228.66 22.7656C228.348 22.0625 228.191 21.2305 228.191 20.2695C228.191 19.3086 228.438 18.375 228.93 17.4688C229.422 16.5625 230.129 15.8555 231.051 15.3477C231.973 14.8398 232.93 14.5859 233.922 14.5859C235.734 14.5859 237.176 15.1562 238.246 16.2969C239.316 17.4297 239.852 18.8086 239.852 20.4336C239.859 22.0586 239.297 23.4297 238.164 24.5469C237.031 25.6562 235.602 26.2109 233.875 26.2109C233.141 26.2109 232.426 26.0625 231.73 25.7656C231.043 25.4688 230.438 25.0703 229.914 24.5703ZM260.77 14.832C260.871 14.832 260.922 14.8984 260.922 15.0312C260.922 15.2188 260.891 15.375 260.828 15.5L256.117 24.9453C255.867 25.4453 255.672 25.7461 255.531 25.8477C255.398 25.9492 255.285 26 255.191 26C255.098 26 255.008 25.9805 254.922 25.9414C254.844 25.9023 254.766 25.8359 254.688 25.7422C254.617 25.6484 254.559 25.5664 254.512 25.4961C254.473 25.4258 254.414 25.3203 254.336 25.1797C254.266 25.0312 254.215 24.9297 254.184 24.875L250.738 18.2656L247.41 24.9453C247.16 25.4453 246.965 25.7461 246.824 25.8477C246.691 25.9492 246.578 26 246.484 26C246.391 26 246.301 25.9805 246.215 25.9414C246.137 25.9023 246.059 25.8359 245.98 25.7422C245.91 25.6484 245.852 25.5664 245.805 25.4961C245.766 25.4258 245.707 25.3203 245.629 25.1797C245.559 25.0312 245.508 24.9297 245.477 24.875L240.684 15.6992C240.551 15.4492 240.484 15.2422 240.484 15.0781C240.484 14.9141 240.535 14.832 240.637 14.832H243.684C243.785 14.832 243.836 14.9023 243.836 15.043C243.836 15.1758 243.785 15.2695 243.684 15.3242C243.371 15.4805 243.211 15.6055 243.203 15.6992C243.203 15.918 243.219 16.043 243.25 16.0742L246.578 22.4961H246.918L249.859 16.5898C249.883 16.543 249.895 16.4492 249.895 16.3086C249.895 16.168 249.809 15.9531 249.637 15.6641C249.465 15.375 249.379 15.1641 249.379 15.0312C249.379 14.8984 249.43 14.832 249.531 14.832H252.215C252.316 14.832 252.367 14.9414 252.367 15.1602C252.367 15.2148 252.289 15.3242 252.133 15.4883C251.984 15.6445 251.91 15.7617 251.91 15.8398C251.91 15.918 251.926 15.9961 251.957 16.0742L255.285 22.4961H255.625L258.824 16.0742C258.855 16.043 258.871 15.957 258.871 15.8164C258.871 15.6289 258.766 15.4961 258.555 15.418C258.344 15.332 258.238 15.2461 258.238 15.1602C258.238 14.9414 258.289 14.832 258.391 14.832H260.77ZM262.328 26C262.227 26 262.176 25.9297 262.176 25.7891C262.176 25.6484 262.207 25.5586 262.27 25.5195C262.34 25.4805 262.422 25.4414 262.516 25.4023C262.617 25.3633 262.695 25.3164 262.75 25.2617C262.992 25.0195 263.109 24.75 263.102 24.4531C263.102 24.1484 263.102 23.9805 263.102 23.9492V17.75C263.102 17.5 263.039 17.3203 262.914 17.2109C262.789 17.1016 262.656 17.043 262.516 17.0352C262.375 17.0273 262.281 17.0078 262.234 16.9766C262.195 16.9375 262.168 16.9023 262.152 16.8711C262.145 16.8398 262.137 16.8125 262.129 16.7891C262.129 16.7656 262.129 16.7305 262.129 16.6836C262.137 16.6367 262.141 16.6016 262.141 16.5781C262.141 16.5547 262.145 16.5352 262.152 16.5195C262.168 16.5039 262.191 16.4883 262.223 16.4727C262.254 16.4492 262.273 16.4336 262.281 16.4258L264.391 14.8672C264.422 14.8438 264.508 14.832 264.648 14.832C264.789 14.832 264.891 14.8516 264.953 14.8906C265.016 14.9219 265.047 15.0234 265.047 15.1953V16.0625L265.645 15.7109L265.996 15.5352C267.082 14.9883 268.098 14.7148 269.043 14.7148C269.988 14.7148 270.918 15.0508 271.832 15.7227C272.246 16.0273 272.582 16.3984 272.84 16.8359C273.105 17.2656 273.238 17.7148 273.238 18.1836V24.4531C273.238 24.625 273.285 24.8086 273.379 25.0039C273.473 25.1914 273.625 25.3281 273.836 25.4141C274.047 25.5 274.152 25.5859 274.152 25.6719C274.152 25.8906 274.102 26 274 26H270.566C270.465 26 270.414 25.9297 270.414 25.7891C270.414 25.6484 270.445 25.5586 270.508 25.5195C270.578 25.4805 270.66 25.4414 270.754 25.4023C270.855 25.3633 270.938 25.3125 271 25.25C271.07 25.1875 271.129 25.1172 271.176 25.0391C271.223 24.9609 271.254 24.8711 271.27 24.7695C271.293 24.6602 271.305 24.582 271.305 24.5352C271.312 24.4805 271.312 24.3828 271.305 24.2422C271.305 24.0938 271.305 23.9961 271.305 23.9492V18.4766C271.305 18.0078 271.148 17.5977 270.836 17.2461C270.234 16.5898 269.391 16.2617 268.305 16.2617C267.219 16.2617 266.129 16.5352 265.035 17.082V24.4531C265.035 24.625 265.082 24.8086 265.176 25.0039C265.27 25.1914 265.422 25.3281 265.633 25.4141C265.844 25.5 265.949 25.5859 265.949 25.6719C265.949 25.8906 265.898 26 265.797 26H262.328Z" fill="#4C1501"/>
</g>
<path d="M65.4286 58C65.4286 57.36 65.4286 56.744 65.4286 56.152C65.4286 55.56 65.4286 54.9147 65.4286 54.216V50.4C65.4286 49.6907 65.4286 49.04 65.4286 48.448C65.4286 47.8507 65.4286 47.232 65.4286 46.592H66.5566C66.5566 47.232 66.5566 47.8507 66.5566 48.448C66.5566 49.04 66.5566 49.6907 66.5566 50.4V54.216C66.5566 54.9147 66.5566 55.56 66.5566 56.152C66.5566 56.744 66.5566 57.36 66.5566 58H65.4286ZM57.7166 58C57.7166 57.36 57.7166 56.744 57.7166 56.152C57.7166 55.56 57.7166 54.9147 57.7166 54.216V50.4C57.7166 49.6907 57.7166 49.04 57.7166 48.448C57.7166 47.8507 57.7166 47.232 57.7166 46.592H58.8446C58.8446 47.232 58.8446 47.8507 58.8446 48.448C58.8446 49.04 58.8446 49.6907 58.8446 50.4V54.216C58.8446 54.9147 58.8446 55.56 58.8446 56.152C58.8446 56.744 58.8446 57.36 58.8446 58H57.7166ZM58.3966 52.712V51.72H65.9246V52.712H58.3966ZM69.621 58C69.621 57.408 69.621 56.8373 69.621 56.288C69.621 55.7387 69.621 55.1387 69.621 54.488V53.688C69.621 53.2293 69.621 52.8 69.621 52.4C69.621 52 69.621 51.6107 69.621 51.232C69.621 50.8533 69.621 50.4667 69.621 50.072L70.645 50.04C70.645 50.4347 70.645 50.824 70.645 51.208C70.645 51.5867 70.645 51.9787 70.645 52.384C70.645 52.784 70.645 53.2187 70.645 53.688V54.488C70.645 55.1387 70.645 55.7387 70.645 56.288C70.645 56.8373 70.645 57.408 70.645 58H69.621ZM70.101 48.08C69.8557 48.08 69.653 48.008 69.493 47.864C69.3383 47.72 69.261 47.4987 69.261 47.2C69.261 46.9067 69.3383 46.688 69.493 46.544C69.653 46.3947 69.861 46.32 70.117 46.32C70.373 46.32 70.5783 46.3973 70.733 46.552C70.8877 46.7013 70.965 46.9173 70.965 47.2C70.965 47.4987 70.8877 47.72 70.733 47.864C70.5783 48.008 70.3677 48.08 70.101 48.08ZM76.5166 58.168C76.0046 58.168 75.5726 58.0747 75.2206 57.888C74.8686 57.7013 74.602 57.4213 74.4206 57.048C74.2393 56.6747 74.1486 56.2053 74.1486 55.64C74.1486 55.144 74.1486 54.656 74.1486 54.176C74.1486 53.6907 74.1486 53.224 74.1486 52.776C74.1486 52.328 74.1486 51.904 74.1486 51.504C74.1486 51.104 74.1486 50.7387 74.1486 50.408C74.1486 49.88 74.1486 49.3867 74.1486 48.928C74.1486 48.4693 74.1486 47.9947 74.1486 47.504L75.1726 47.256C75.1726 47.6453 75.1726 48.0027 75.1726 48.328C75.1726 48.6533 75.1726 48.9813 75.1726 49.312C75.1726 49.6373 75.1726 50.0027 75.1726 50.408V55.44C75.1726 56.0427 75.3006 56.4933 75.5566 56.792C75.8126 57.0907 76.2073 57.24 76.7406 57.24C76.9486 57.24 77.1726 57.2053 77.4126 57.136C77.6526 57.0613 77.8633 56.952 78.0446 56.808L78.1566 57.752C78.05 57.832 77.9113 57.904 77.7406 57.968C77.5753 58.0267 77.386 58.0747 77.1726 58.112C76.9646 58.1493 76.746 58.168 76.5166 58.168ZM72.5566 50.92V50.072H78.0606V50.92C77.522 50.92 76.9753 50.92 76.4206 50.92C75.866 50.92 75.3273 50.92 74.8046 50.92H74.4046H72.5566ZM82.3446 58.168C81.486 58.168 80.8646 57.9227 80.4806 57.432C80.102 56.9413 79.9126 56.2373 79.9126 55.32C79.9126 54.9733 79.9126 54.672 79.9126 54.416C79.9126 54.1547 79.9126 53.9013 79.9126 53.656C79.9126 53.1973 79.9126 52.7707 79.9126 52.376C79.9126 51.9813 79.9126 51.5973 79.9126 51.224C79.9126 50.8507 79.9126 50.4667 79.9126 50.072L80.9366 50.032C80.9366 50.6187 80.9366 51.1973 80.9366 51.768C80.9366 52.3387 80.9366 52.9413 80.9366 53.576V55.112C80.9366 55.7947 81.0593 56.312 81.3046 56.664C81.5553 57.0107 82.0033 57.184 82.6486 57.184C83.0166 57.184 83.3553 57.1067 83.6646 56.952C83.9793 56.792 84.2646 56.5813 84.5206 56.32C84.7766 56.0533 85.006 55.76 85.2086 55.44V53.576C85.2086 52.9413 85.2086 52.3467 85.2086 51.792C85.2086 51.2373 85.2086 50.664 85.2086 50.072H86.2406C86.2406 50.664 86.2406 51.24 86.2406 51.8C86.2406 52.36 86.2406 52.9787 86.2406 53.656V54.488C86.2406 55.1387 86.2406 55.7387 86.2406 56.288C86.2406 56.8373 86.2406 57.408 86.2406 58H85.3206L85.2966 56.56H85.1686C85.0033 56.7947 84.7846 57.0373 84.5126 57.288C84.246 57.5333 83.9313 57.7413 83.5686 57.912C83.206 58.0827 82.798 58.168 82.3446 58.168ZM89.0113 58C89.0113 57.408 89.0113 56.8373 89.0113 56.288C89.0113 55.7387 89.0113 55.1387 89.0113 54.488V53.688C89.0113 53.1067 89.0113 52.5093 89.0113 51.896C89.0113 51.2827 89.0113 50.6747 89.0113 50.072L89.9313 50.008L89.9633 51.496H90.0913C90.2566 51.2613 90.4726 51.0213 90.7393 50.776C91.0113 50.5307 91.3313 50.3227 91.6993 50.152C92.0726 49.9813 92.4993 49.896 92.9793 49.896C93.8379 49.896 94.4566 50.1413 94.8353 50.632C95.2193 51.1173 95.4113 51.8187 95.4113 52.736C95.4113 53.0827 95.4113 53.384 95.4113 53.64C95.4113 53.896 95.4113 54.1787 95.4113 54.488C95.4113 55.112 95.4113 55.7067 95.4113 56.272C95.4113 56.832 95.4113 57.408 95.4113 58H94.3793C94.3793 57.408 94.3793 56.832 94.3793 56.272C94.3793 55.712 94.3793 55.1307 94.3793 54.528V52.96C94.3793 52.2773 94.2566 51.7627 94.0113 51.416C93.7659 51.064 93.3206 50.888 92.6753 50.888C92.2806 50.888 91.9233 50.968 91.6033 51.128C91.2833 51.2827 90.9953 51.4933 90.7393 51.76C90.4833 52.0213 90.2513 52.312 90.0433 52.632V54.528C90.0433 55.1573 90.0433 55.7467 90.0433 56.296C90.0433 56.84 90.0433 57.408 90.0433 58H89.0113ZM100.592 61.248C100.005 61.248 99.5172 61.192 99.1279 61.08C98.7385 60.9733 98.4292 60.8267 98.1999 60.64C97.9705 60.4587 97.8079 60.256 97.7119 60.032C97.6159 59.808 97.5679 59.584 97.5679 59.36C97.5679 58.9973 97.6559 58.6933 97.8319 58.448C98.0132 58.208 98.2239 58.016 98.4639 57.872C98.7039 57.728 98.9172 57.6293 99.1039 57.576V57.472C99.0079 57.4453 98.8932 57.3893 98.7599 57.304C98.6319 57.2187 98.5172 57.0987 98.4159 56.944C98.3145 56.784 98.2639 56.5813 98.2639 56.336C98.2639 56.1387 98.3012 55.9627 98.3759 55.808C98.4559 55.648 98.5705 55.5093 98.7199 55.392C98.8745 55.2747 99.0639 55.1733 99.2879 55.088V54.984C99.1705 54.9467 99.0132 54.872 98.8159 54.76C98.6239 54.6427 98.4265 54.4827 98.2239 54.28C98.0265 54.0773 97.8559 53.8267 97.7119 53.528C97.5732 53.2293 97.5039 52.8773 97.5039 52.472C97.5039 51.9547 97.6319 51.504 97.8879 51.12C98.1439 50.7307 98.4985 50.4293 98.9519 50.216C99.4105 50.0027 99.9359 49.896 100.528 49.896C100.768 49.896 100.979 49.912 101.16 49.944C101.341 49.9707 101.528 49.9973 101.72 50.024C101.912 50.0507 102.147 50.064 102.424 50.064H104.968V50.872C104.435 50.872 103.909 50.872 103.392 50.872C102.88 50.872 102.365 50.872 101.848 50.872L102.152 50.368C102.653 50.5973 103.013 50.904 103.232 51.288C103.456 51.6667 103.568 52.0853 103.568 52.544C103.568 53.0667 103.461 53.504 103.248 53.856C103.04 54.208 102.741 54.496 102.352 54.72C101.968 54.9387 101.512 55.1093 100.984 55.232C100.387 55.3707 99.9439 55.504 99.6559 55.632C99.3679 55.7547 99.2239 55.9387 99.2239 56.184C99.2239 56.36 99.2825 56.496 99.3999 56.592C99.5172 56.688 99.7039 56.7573 99.9599 56.8C100.221 56.8373 100.563 56.856 100.984 56.856H101.336C102.088 56.856 102.696 56.9147 103.16 57.032C103.629 57.1493 103.971 57.336 104.184 57.592C104.403 57.8427 104.512 58.1787 104.512 58.6C104.512 59.0373 104.395 59.4213 104.16 59.752C103.931 60.0827 103.621 60.3573 103.232 60.576C102.843 60.8 102.419 60.968 101.96 61.08C101.501 61.192 101.045 61.248 100.592 61.248ZM100.656 60.36C101.285 60.36 101.811 60.272 102.232 60.096C102.659 59.92 102.979 59.7067 103.192 59.456C103.411 59.2053 103.52 58.968 103.52 58.744C103.52 58.5147 103.456 58.3253 103.328 58.176C103.2 58.032 102.965 57.9253 102.624 57.856C102.283 57.7867 101.789 57.752 101.144 57.752H100.832C100.453 57.7573 100.088 57.8187 99.7359 57.936C99.3892 58.0533 99.1039 58.216 98.8799 58.424C98.6559 58.6373 98.5439 58.8853 98.5439 59.168C98.5439 59.3227 98.5785 59.472 98.6479 59.616C98.7172 59.76 98.8319 59.888 98.9919 60C99.1572 60.112 99.3759 60.2 99.6479 60.264C99.9199 60.328 100.256 60.36 100.656 60.36ZM100.424 54.496C100.643 54.448 100.877 54.3893 101.128 54.32C101.379 54.2453 101.613 54.1413 101.832 54.008C102.056 53.8747 102.237 53.696 102.376 53.472C102.515 53.2427 102.584 52.952 102.584 52.6C102.584 52.1733 102.472 51.8293 102.248 51.568C102.029 51.3067 101.763 51.1147 101.448 50.992C101.133 50.8693 100.832 50.808 100.544 50.808C100.176 50.808 99.8372 50.872 99.5279 51C99.2185 51.1227 98.9679 51.312 98.7759 51.568C98.5839 51.8187 98.4879 52.1413 98.4879 52.536C98.4879 52.936 98.5812 53.272 98.7679 53.544C98.9599 53.816 99.2025 54.032 99.4959 54.192C99.7945 54.3467 100.104 54.448 100.424 54.496ZM109.855 58C109.855 57.408 109.855 56.8373 109.855 56.288C109.855 55.7387 109.855 55.1387 109.855 54.488V53.688C109.855 53.1067 109.855 52.5093 109.855 51.896C109.855 51.2827 109.855 50.6747 109.855 50.072L110.775 50.008L110.807 51.488H110.935C111.095 51.2533 111.303 51.016 111.559 50.776C111.815 50.5307 112.119 50.3227 112.471 50.152C112.823 49.9813 113.226 49.896 113.679 49.896C114.346 49.896 114.855 50.0587 115.207 50.384C115.559 50.7093 115.786 51.1787 115.887 51.792L115.943 51.84C115.964 51.9787 115.98 52.1227 115.991 52.272C116.002 52.416 116.007 52.5707 116.007 52.736C116.007 53.0827 116.007 53.384 116.007 53.64C116.007 53.896 116.007 54.1787 116.007 54.488C116.007 55.112 116.007 55.7067 116.007 56.272C116.007 56.832 116.007 57.408 116.007 58H114.975C114.975 57.408 114.975 56.832 114.975 56.272C114.975 55.712 114.975 55.1307 114.975 54.528V52.96C114.975 52.2773 114.858 51.7627 114.623 51.416C114.394 51.064 113.975 50.888 113.367 50.888C112.999 50.888 112.663 50.968 112.359 51.128C112.06 51.288 111.788 51.5013 111.543 51.768C111.303 52.0347 111.084 52.3227 110.887 52.632V54.528C110.887 55.1573 110.887 55.7467 110.887 56.296C110.887 56.84 110.887 57.408 110.887 58H109.855ZM120.031 58C120.031 57.408 120.031 56.832 120.031 56.272C120.031 55.712 120.031 55.1307 120.031 54.528V52.96C120.031 52.2773 119.914 51.7627 119.679 51.416C119.45 51.064 119.031 50.888 118.423 50.888C118.055 50.888 117.719 50.968 117.415 51.128C117.116 51.2827 116.844 51.4933 116.599 51.76C116.354 52.0213 116.132 52.312 115.935 52.632L115.791 51.528H115.919C116.1 51.2827 116.322 51.0347 116.583 50.784C116.844 50.5333 117.154 50.3227 117.511 50.152C117.874 49.9813 118.284 49.896 118.743 49.896C119.586 49.896 120.183 50.1467 120.535 50.648C120.887 51.1493 121.063 51.8453 121.063 52.736C121.063 53.0827 121.063 53.384 121.063 53.64C121.063 53.896 121.063 54.1787 121.063 54.488C121.063 55.112 121.063 55.7067 121.063 56.272C121.063 56.832 121.063 57.408 121.063 58H120.031ZM126.032 58.168C125.173 58.168 124.552 57.9227 124.168 57.432C123.789 56.9413 123.6 56.2373 123.6 55.32C123.6 54.9733 123.6 54.672 123.6 54.416C123.6 54.1547 123.6 53.9013 123.6 53.656C123.6 53.1973 123.6 52.7707 123.6 52.376C123.6 51.9813 123.6 51.5973 123.6 51.224C123.6 50.8507 123.6 50.4667 123.6 50.072L124.624 50.032C124.624 50.6187 124.624 51.1973 124.624 51.768C124.624 52.3387 124.624 52.9413 124.624 53.576V55.112C124.624 55.7947 124.747 56.312 124.992 56.664C125.243 57.0107 125.691 57.184 126.336 57.184C126.704 57.184 127.043 57.1067 127.352 56.952C127.667 56.792 127.952 56.5813 128.208 56.32C128.464 56.0533 128.693 55.76 128.896 55.44V53.576C128.896 52.9413 128.896 52.3467 128.896 51.792C128.896 51.2373 128.896 50.664 128.896 50.072H129.928C129.928 50.664 129.928 51.24 129.928 51.8C129.928 52.36 129.928 52.9787 129.928 53.656V54.488C129.928 55.1387 129.928 55.7387 129.928 56.288C129.928 56.8373 129.928 57.408 129.928 58H129.008L128.984 56.56H128.856C128.691 56.7947 128.472 57.0373 128.2 57.288C127.933 57.5333 127.619 57.7413 127.256 57.912C126.893 58.0827 126.485 58.168 126.032 58.168ZM132.699 58C132.699 57.408 132.699 56.8373 132.699 56.288C132.699 55.7387 132.699 55.1387 132.699 54.488V53.688C132.699 53.1067 132.699 52.5093 132.699 51.896C132.699 51.2827 132.699 50.6747 132.699 50.072L133.619 50.008L133.651 51.496H133.779C133.944 51.2613 134.16 51.0213 134.427 50.776C134.699 50.5307 135.019 50.3227 135.387 50.152C135.76 49.9813 136.187 49.896 136.667 49.896C137.525 49.896 138.144 50.1413 138.523 50.632C138.907 51.1173 139.099 51.8187 139.099 52.736C139.099 53.0827 139.099 53.384 139.099 53.64C139.099 53.896 139.099 54.1787 139.099 54.488C139.099 55.112 139.099 55.7067 139.099 56.272C139.099 56.832 139.099 57.408 139.099 58H138.067C138.067 57.408 138.067 56.832 138.067 56.272C138.067 55.712 138.067 55.1307 138.067 54.528V52.96C138.067 52.2773 137.944 51.7627 137.699 51.416C137.453 51.064 137.008 50.888 136.363 50.888C135.968 50.888 135.611 50.968 135.291 51.128C134.971 51.2827 134.683 51.4933 134.427 51.76C134.171 52.0213 133.939 52.312 133.731 52.632V54.528C133.731 55.1573 133.731 55.7467 133.731 56.296C133.731 56.84 133.731 57.408 133.731 58H132.699ZM144.671 58.168C143.909 58.168 143.271 57.976 142.759 57.592C142.247 57.208 141.863 56.7013 141.607 56.072C141.357 55.4373 141.231 54.7493 141.231 54.008C141.231 53.224 141.367 52.5227 141.639 51.904C141.911 51.28 142.306 50.7893 142.823 50.432C143.346 50.0747 143.973 49.896 144.703 49.896C145.077 49.896 145.423 49.9467 145.743 50.048C146.063 50.1493 146.343 50.2827 146.583 50.448C146.829 50.6133 147.029 50.7893 147.183 50.976H147.311V50.096C147.311 49.424 147.311 48.7707 147.311 48.136C147.311 47.5013 147.311 46.888 147.311 46.296L148.343 46.144C148.343 46.7947 148.343 47.4427 148.343 48.088C148.343 48.728 148.343 49.3973 148.343 50.096V54.488C148.343 55.1387 148.343 55.7387 148.343 56.288C148.343 56.8373 148.343 57.408 148.343 58H147.431L147.383 56.904H147.271C147.053 57.176 146.813 57.4053 146.551 57.592C146.29 57.7787 146.002 57.92 145.687 58.016C145.378 58.1173 145.039 58.168 144.671 58.168ZM144.935 57.216C145.293 57.216 145.618 57.16 145.911 57.048C146.205 56.9307 146.466 56.768 146.695 56.56C146.925 56.352 147.13 56.1013 147.311 55.808V52.064C147.13 51.7973 146.914 51.576 146.663 51.4C146.418 51.2187 146.149 51.0827 145.855 50.992C145.567 50.9013 145.269 50.856 144.959 50.856C144.351 50.856 143.85 51 143.455 51.288C143.066 51.5707 142.773 51.952 142.575 52.432C142.383 52.9067 142.287 53.4347 142.287 54.016C142.287 54.5707 142.378 55.0907 142.559 55.576C142.746 56.0613 143.034 56.456 143.423 56.76C143.813 57.064 144.317 57.216 144.935 57.216ZM153.282 58.168C152.423 58.168 151.802 57.9227 151.418 57.432C151.039 56.9413 150.85 56.2373 150.85 55.32C150.85 54.9733 150.85 54.672 150.85 54.416C150.85 54.1547 150.85 53.9013 150.85 53.656C150.85 53.1973 150.85 52.7707 150.85 52.376C150.85 51.9813 150.85 51.5973 150.85 51.224C150.85 50.8507 150.85 50.4667 150.85 50.072L151.874 50.032C151.874 50.6187 151.874 51.1973 151.874 51.768C151.874 52.3387 151.874 52.9413 151.874 53.576V55.112C151.874 55.7947 151.997 56.312 152.242 56.664C152.493 57.0107 152.941 57.184 153.586 57.184C153.954 57.184 154.293 57.1067 154.602 56.952C154.917 56.792 155.202 56.5813 155.458 56.32C155.714 56.0533 155.943 55.76 156.146 55.44V53.576C156.146 52.9413 156.146 52.3467 156.146 51.792C156.146 51.2373 156.146 50.664 156.146 50.072H157.178C157.178 50.664 157.178 51.24 157.178 51.8C157.178 52.36 157.178 52.9787 157.178 53.656V54.488C157.178 55.1387 157.178 55.7387 157.178 56.288C157.178 56.8373 157.178 57.408 157.178 58H156.258L156.234 56.56H156.106C155.941 56.7947 155.722 57.0373 155.45 57.288C155.183 57.5333 154.869 57.7413 154.506 57.912C154.143 58.0827 153.735 58.168 153.282 58.168ZM159.949 58C159.949 57.408 159.949 56.8373 159.949 56.288C159.949 55.7387 159.949 55.1387 159.949 54.488V53.688C159.949 53.1067 159.949 52.5093 159.949 51.896C159.949 51.2827 159.949 50.6747 159.949 50.072L160.869 50.008L160.901 51.672H161.013C161.231 51.1707 161.487 50.792 161.781 50.536C162.079 50.28 162.378 50.1093 162.677 50.024C162.981 49.9387 163.258 49.896 163.509 49.896C163.663 49.896 163.813 49.9067 163.957 49.928C164.106 49.9493 164.247 49.984 164.381 50.032L164.293 51.088C164.127 51.0453 163.975 51.0133 163.837 50.992C163.698 50.9653 163.535 50.952 163.349 50.952C163.199 50.952 163.021 50.976 162.813 51.024C162.605 51.072 162.389 51.1733 162.165 51.328C161.946 51.4827 161.733 51.7147 161.525 52.024C161.322 52.3333 161.141 52.7493 160.981 53.272V54.528C160.981 55.1573 160.981 55.7467 160.981 56.296C160.981 56.84 160.981 57.408 160.981 58H159.949ZM173.011 58.168C172.638 58.168 172.294 58.1173 171.979 58.016C171.665 57.92 171.377 57.7787 171.115 57.592C170.854 57.4053 170.617 57.1813 170.403 56.92H170.283L170.211 58H169.339C169.339 57.408 169.339 56.8373 169.339 56.288C169.339 55.7387 169.339 55.1387 169.339 54.488V50.096C169.339 49.424 169.339 48.7707 169.339 48.136C169.339 47.5013 169.339 46.888 169.339 46.296L170.371 46.144C170.371 46.7947 170.371 47.4427 170.371 48.088C170.371 48.728 170.371 49.3973 170.371 50.096V50.976H170.491C170.646 50.7947 170.846 50.6213 171.091 50.456C171.337 50.2853 171.617 50.1493 171.931 50.048C172.251 49.9467 172.601 49.896 172.979 49.896C173.71 49.896 174.334 50.0747 174.851 50.432C175.369 50.7893 175.763 51.28 176.035 51.904C176.313 52.5227 176.451 53.224 176.451 54.008C176.451 54.7493 176.323 55.4373 176.067 56.072C175.811 56.7013 175.427 57.208 174.915 57.592C174.409 57.976 173.774 58.168 173.011 58.168ZM172.747 57.216C173.366 57.216 173.87 57.064 174.259 56.76C174.649 56.456 174.934 56.0613 175.115 55.576C175.302 55.0907 175.395 54.5707 175.395 54.016C175.395 53.4347 175.297 52.9067 175.099 52.432C174.907 51.952 174.614 51.5707 174.219 51.288C173.825 51 173.326 50.856 172.723 50.856C172.414 50.856 172.115 50.9013 171.827 50.992C171.539 51.0827 171.27 51.2187 171.019 51.4C170.769 51.576 170.553 51.7973 170.371 52.064V55.808C170.547 56.1013 170.75 56.352 170.979 56.56C171.214 56.768 171.478 56.9307 171.771 57.048C172.065 57.16 172.39 57.216 172.747 57.216ZM182.288 58.16C181.36 58.16 180.592 57.9813 179.984 57.624C179.381 57.2613 178.931 56.7653 178.632 56.136C178.339 55.5067 178.192 54.7893 178.192 53.984C178.192 53.1893 178.339 52.4853 178.632 51.872C178.931 51.2533 179.349 50.7707 179.888 50.424C180.432 50.072 181.075 49.896 181.816 49.896C182.467 49.896 183.029 50.0293 183.504 50.296C183.984 50.5573 184.352 50.9387 184.608 51.44C184.864 51.9413 184.992 52.552 184.992 53.272C184.992 53.464 184.987 53.64 184.976 53.8C184.971 53.9547 184.955 54.1093 184.928 54.264L184.016 53.736C184.027 53.6507 184.032 53.568 184.032 53.488C184.037 53.408 184.04 53.3307 184.04 53.256C184.04 52.424 183.837 51.8027 183.432 51.392C183.027 50.976 182.493 50.768 181.832 50.768C181.288 50.768 180.821 50.9013 180.432 51.168C180.048 51.4347 179.752 51.8027 179.544 52.272C179.341 52.7413 179.24 53.2773 179.24 53.88V54.016C179.24 54.6773 179.352 55.248 179.576 55.728C179.805 56.208 180.149 56.5787 180.608 56.84C181.072 57.1013 181.659 57.232 182.368 57.232C182.629 57.232 182.899 57.2107 183.176 57.168C183.453 57.1253 183.728 57.0613 184 56.976C184.272 56.8907 184.533 56.7787 184.784 56.64L184.84 57.608C184.637 57.72 184.403 57.8187 184.136 57.904C183.869 57.984 183.579 58.0453 183.264 58.088C182.949 58.136 182.624 58.16 182.288 58.16ZM178.648 54.264V53.488L184.272 53.456L184.928 53.672V54.264H178.648ZM187.246 58C187.246 57.408 187.246 56.8373 187.246 56.288C187.246 55.7387 187.246 55.1387 187.246 54.488V53.688C187.246 53.1067 187.246 52.5093 187.246 51.896C187.246 51.2827 187.246 50.6747 187.246 50.072L188.166 50.008L188.198 51.672H188.31C188.528 51.1707 188.784 50.792 189.078 50.536C189.376 50.28 189.675 50.1093 189.974 50.024C190.278 49.9387 190.555 49.896 190.806 49.896C190.96 49.896 191.11 49.9067 191.254 49.928C191.403 49.9493 191.544 49.984 191.678 50.032L191.59 51.088C191.424 51.0453 191.272 51.0133 191.134 50.992C190.995 50.9653 190.832 50.952 190.646 50.952C190.496 50.952 190.318 50.976 190.11 51.024C189.902 51.072 189.686 51.1733 189.462 51.328C189.243 51.4827 189.03 51.7147 188.822 52.024C188.619 52.3333 188.438 52.7493 188.278 53.272V54.528C188.278 55.1573 188.278 55.7467 188.278 56.296C188.278 56.84 188.278 57.408 188.278 58H187.246ZM195.445 58.16C195.125 58.16 194.802 58.1333 194.477 58.08C194.151 58.032 193.842 57.9627 193.549 57.872C193.255 57.776 192.999 57.6693 192.781 57.552L192.877 56.56C193.122 56.6987 193.383 56.8187 193.661 56.92C193.938 57.0213 194.223 57.1013 194.517 57.16C194.815 57.2133 195.119 57.24 195.429 57.24C195.749 57.24 196.042 57.2 196.309 57.12C196.581 57.04 196.797 56.8987 196.957 56.696C197.122 56.4933 197.205 56.2 197.205 55.816C197.205 55.5653 197.135 55.36 196.997 55.2C196.863 55.0347 196.637 54.888 196.317 54.76C196.002 54.632 195.575 54.488 195.037 54.328C194.631 54.2107 194.263 54.0693 193.933 53.904C193.602 53.7387 193.338 53.5173 193.141 53.24C192.943 52.9573 192.845 52.5867 192.845 52.128C192.845 51.4507 193.071 50.9093 193.525 50.504C193.983 50.0987 194.599 49.896 195.373 49.896C195.682 49.896 195.983 49.9253 196.277 49.984C196.57 50.0373 196.845 50.112 197.101 50.208C197.357 50.2987 197.578 50.3973 197.765 50.504L197.669 51.504C197.407 51.3387 197.143 51.2053 196.877 51.104C196.615 51.0027 196.362 50.9307 196.117 50.888C195.877 50.8453 195.658 50.824 195.461 50.824C195.237 50.824 195.005 50.8587 194.765 50.928C194.525 50.992 194.319 51.1173 194.149 51.304C193.983 51.4853 193.901 51.752 193.901 52.104C193.901 52.3493 193.957 52.5573 194.069 52.728C194.186 52.8933 194.375 53.04 194.637 53.168C194.903 53.2907 195.266 53.4187 195.725 53.552C196.237 53.7067 196.682 53.8667 197.061 54.032C197.445 54.1973 197.738 54.416 197.941 54.688C198.149 54.96 198.253 55.3333 198.253 55.808C198.253 56.2453 198.154 56.6427 197.957 57C197.765 57.3573 197.463 57.64 197.053 57.848C196.642 58.056 196.106 58.16 195.445 58.16ZM202.359 58.16C201.874 58.16 201.452 58.0693 201.095 57.888C200.738 57.7013 200.46 57.44 200.263 57.104C200.066 56.7627 199.967 56.36 199.967 55.896C199.967 55.4693 200.044 55.112 200.199 54.824C200.354 54.536 200.556 54.3013 200.807 54.12C201.063 53.9333 201.34 53.7893 201.639 53.688C201.938 53.5813 202.234 53.5013 202.527 53.448L205.119 52.968C205.14 52.36 205.063 51.904 204.887 51.6C204.716 51.2907 204.479 51.0853 204.175 50.984C203.871 50.8773 203.535 50.824 203.167 50.824C202.986 50.824 202.791 50.8373 202.583 50.864C202.375 50.8853 202.156 50.9227 201.927 50.976C201.698 51.0293 201.452 51.0987 201.191 51.184C200.935 51.2693 200.663 51.3733 200.375 51.496L200.311 50.52C200.503 50.44 200.716 50.3627 200.951 50.288C201.191 50.2133 201.444 50.1467 201.711 50.088C201.978 50.0293 202.25 49.984 202.527 49.952C202.81 49.9147 203.084 49.896 203.351 49.896C203.922 49.896 204.412 49.9893 204.823 50.176C205.239 50.3573 205.556 50.648 205.775 51.048C205.999 51.448 206.111 51.9627 206.111 52.592C206.111 52.8427 206.111 53.1573 206.111 53.536C206.111 53.9147 206.111 54.2773 206.111 54.624V55.704C206.111 56.056 206.111 56.4187 206.111 56.792C206.111 57.16 206.111 57.5627 206.111 58H205.167L205.127 56.824H204.999C204.834 57.048 204.618 57.264 204.351 57.472C204.09 57.6747 203.788 57.84 203.447 57.968C203.111 58.096 202.748 58.16 202.359 58.16ZM202.615 57.264C202.919 57.264 203.226 57.2053 203.535 57.088C203.844 56.9653 204.132 56.7787 204.399 56.528C204.671 56.2773 204.9 55.96 205.087 55.576L205.095 53.64C205.004 53.688 204.884 53.7387 204.735 53.792C204.586 53.84 204.362 53.8987 204.063 53.968C203.764 54.032 203.346 54.1147 202.807 54.216C202.471 54.2747 202.167 54.368 201.895 54.496C201.628 54.624 201.415 54.8 201.255 55.024C201.095 55.2427 201.015 55.52 201.015 55.856C201.015 56.368 201.167 56.7307 201.471 56.944C201.78 57.1573 202.162 57.264 202.615 57.264ZM208.855 58C208.855 57.408 208.855 56.8373 208.855 56.288C208.855 55.7387 208.855 55.1387 208.855 54.488V53.688C208.855 53.1067 208.855 52.5093 208.855 51.896C208.855 51.2827 208.855 50.6747 208.855 50.072L209.775 50.008L209.807 51.488H209.935C210.095 51.2533 210.303 51.016 210.559 50.776C210.815 50.5307 211.119 50.3227 211.471 50.152C211.823 49.9813 212.226 49.896 212.679 49.896C213.346 49.896 213.855 50.0587 214.207 50.384C214.559 50.7093 214.786 51.1787 214.887 51.792L214.943 51.84C214.964 51.9787 214.98 52.1227 214.991 52.272C215.002 52.416 215.007 52.5707 215.007 52.736C215.007 53.0827 215.007 53.384 215.007 53.64C215.007 53.896 215.007 54.1787 215.007 54.488C215.007 55.112 215.007 55.7067 215.007 56.272C215.007 56.832 215.007 57.408 215.007 58H213.975C213.975 57.408 213.975 56.832 213.975 56.272C213.975 55.712 213.975 55.1307 213.975 54.528V52.96C213.975 52.2773 213.858 51.7627 213.623 51.416C213.394 51.064 212.975 50.888 212.367 50.888C211.999 50.888 211.663 50.968 211.359 51.128C211.06 51.288 210.788 51.5013 210.543 51.768C210.303 52.0347 210.084 52.3227 209.887 52.632V54.528C209.887 55.1573 209.887 55.7467 209.887 56.296C209.887 56.84 209.887 57.408 209.887 58H208.855ZM219.031 58C219.031 57.408 219.031 56.832 219.031 56.272C219.031 55.712 219.031 55.1307 219.031 54.528V52.96C219.031 52.2773 218.914 51.7627 218.679 51.416C218.45 51.064 218.031 50.888 217.423 50.888C217.055 50.888 216.719 50.968 216.415 51.128C216.116 51.2827 215.844 51.4933 215.599 51.76C215.354 52.0213 215.132 52.312 214.935 52.632L214.791 51.528H214.919C215.1 51.2827 215.322 51.0347 215.583 50.784C215.844 50.5333 216.154 50.3227 216.511 50.152C216.874 49.9813 217.284 49.896 217.743 49.896C218.586 49.896 219.183 50.1467 219.535 50.648C219.887 51.1493 220.063 51.8453 220.063 52.736C220.063 53.0827 220.063 53.384 220.063 53.64C220.063 53.896 220.063 54.1787 220.063 54.488C220.063 55.112 220.063 55.7067 220.063 56.272C220.063 56.832 220.063 57.408 220.063 58H219.031ZM224.64 58.16C224.155 58.16 223.733 58.0693 223.376 57.888C223.019 57.7013 222.741 57.44 222.544 57.104C222.347 56.7627 222.248 56.36 222.248 55.896C222.248 55.4693 222.325 55.112 222.48 54.824C222.635 54.536 222.837 54.3013 223.088 54.12C223.344 53.9333 223.621 53.7893 223.92 53.688C224.219 53.5813 224.515 53.5013 224.808 53.448L227.4 52.968C227.421 52.36 227.344 51.904 227.168 51.6C226.997 51.2907 226.76 51.0853 226.456 50.984C226.152 50.8773 225.816 50.824 225.448 50.824C225.267 50.824 225.072 50.8373 224.864 50.864C224.656 50.8853 224.437 50.9227 224.208 50.976C223.979 51.0293 223.733 51.0987 223.472 51.184C223.216 51.2693 222.944 51.3733 222.656 51.496L222.592 50.52C222.784 50.44 222.997 50.3627 223.232 50.288C223.472 50.2133 223.725 50.1467 223.992 50.088C224.259 50.0293 224.531 49.984 224.808 49.952C225.091 49.9147 225.365 49.896 225.632 49.896C226.203 49.896 226.693 49.9893 227.104 50.176C227.52 50.3573 227.837 50.648 228.056 51.048C228.28 51.448 228.392 51.9627 228.392 52.592C228.392 52.8427 228.392 53.1573 228.392 53.536C228.392 53.9147 228.392 54.2773 228.392 54.624V55.704C228.392 56.056 228.392 56.4187 228.392 56.792C228.392 57.16 228.392 57.5627 228.392 58H227.448L227.408 56.824H227.28C227.115 57.048 226.899 57.264 226.632 57.472C226.371 57.6747 226.069 57.84 225.728 57.968C225.392 58.096 225.029 58.16 224.64 58.16ZM224.896 57.264C225.2 57.264 225.507 57.2053 225.816 57.088C226.125 56.9653 226.413 56.7787 226.68 56.528C226.952 56.2773 227.181 55.96 227.368 55.576L227.376 53.64C227.285 53.688 227.165 53.7387 227.016 53.792C226.867 53.84 226.643 53.8987 226.344 53.968C226.045 54.032 225.627 54.1147 225.088 54.216C224.752 54.2747 224.448 54.368 224.176 54.496C223.909 54.624 223.696 54.8 223.536 55.024C223.376 55.2427 223.296 55.52 223.296 55.856C223.296 56.368 223.448 56.7307 223.752 56.944C224.061 57.1573 224.443 57.264 224.896 57.264ZM236.423 58.168C235.564 58.168 234.943 57.9227 234.559 57.432C234.18 56.9413 233.991 56.2373 233.991 55.32C233.991 54.9733 233.991 54.672 233.991 54.416C233.991 54.1547 233.991 53.9013 233.991 53.656C233.991 53.1973 233.991 52.7707 233.991 52.376C233.991 51.9813 233.991 51.5973 233.991 51.224C233.991 50.8507 233.991 50.4667 233.991 50.072L235.015 50.032C235.015 50.6187 235.015 51.1973 235.015 51.768C235.015 52.3387 235.015 52.9413 235.015 53.576V55.112C235.015 55.7947 235.137 56.312 235.383 56.664C235.633 57.0107 236.081 57.184 236.727 57.184C237.095 57.184 237.433 57.1067 237.743 56.952C238.057 56.792 238.343 56.5813 238.599 56.32C238.855 56.0533 239.084 55.76 239.287 55.44V53.576C239.287 52.9413 239.287 52.3467 239.287 51.792C239.287 51.2373 239.287 50.664 239.287 50.072H240.319C240.319 50.664 240.319 51.24 240.319 51.8C240.319 52.36 240.319 52.9787 240.319 53.656V54.488C240.319 55.1387 240.319 55.7387 240.319 56.288C240.319 56.8373 240.319 57.408 240.319 58H239.399L239.375 56.56H239.247C239.081 56.7947 238.863 57.0373 238.591 57.288C238.324 57.5333 238.009 57.7413 237.647 57.912C237.284 58.0827 236.876 58.168 236.423 58.168ZM243.089 58C243.089 57.408 243.089 56.8373 243.089 56.288C243.089 55.7387 243.089 55.1387 243.089 54.488V53.688C243.089 53.1067 243.089 52.5093 243.089 51.896C243.089 51.2827 243.089 50.6747 243.089 50.072L244.009 50.008L244.041 51.496H244.169C244.335 51.2613 244.551 51.0213 244.817 50.776C245.089 50.5307 245.409 50.3227 245.777 50.152C246.151 49.9813 246.577 49.896 247.057 49.896C247.916 49.896 248.535 50.1413 248.913 50.632C249.297 51.1173 249.489 51.8187 249.489 52.736C249.489 53.0827 249.489 53.384 249.489 53.64C249.489 53.896 249.489 54.1787 249.489 54.488C249.489 55.112 249.489 55.7067 249.489 56.272C249.489 56.832 249.489 57.408 249.489 58H248.457C248.457 57.408 248.457 56.832 248.457 56.272C248.457 55.712 248.457 55.1307 248.457 54.528V52.96C248.457 52.2773 248.335 51.7627 248.089 51.416C247.844 51.064 247.399 50.888 246.753 50.888C246.359 50.888 246.001 50.968 245.681 51.128C245.361 51.2827 245.073 51.4933 244.817 51.76C244.561 52.0213 244.329 52.312 244.121 52.632V54.528C244.121 55.1573 244.121 55.7467 244.121 56.296C244.121 56.84 244.121 57.408 244.121 58H243.089ZM255.126 58.168C254.614 58.168 254.182 58.0747 253.83 57.888C253.478 57.7013 253.211 57.4213 253.03 57.048C252.849 56.6747 252.758 56.2053 252.758 55.64C252.758 55.144 252.758 54.656 252.758 54.176C252.758 53.6907 252.758 53.224 252.758 52.776C252.758 52.328 252.758 51.904 252.758 51.504C252.758 51.104 252.758 50.7387 252.758 50.408C252.758 49.88 252.758 49.3867 252.758 48.928C252.758 48.4693 252.758 47.9947 252.758 47.504L253.782 47.256C253.782 47.6453 253.782 48.0027 253.782 48.328C253.782 48.6533 253.782 48.9813 253.782 49.312C253.782 49.6373 253.782 50.0027 253.782 50.408V55.44C253.782 56.0427 253.91 56.4933 254.166 56.792C254.422 57.0907 254.817 57.24 255.35 57.24C255.558 57.24 255.782 57.2053 256.022 57.136C256.262 57.0613 256.473 56.952 256.654 56.808L256.766 57.752C256.659 57.832 256.521 57.904 256.35 57.968C256.185 58.0267 255.995 58.0747 255.782 58.112C255.574 58.1493 255.355 58.168 255.126 58.168ZM251.166 50.92V50.072H256.67V50.92C256.131 50.92 255.585 50.92 255.03 50.92C254.475 50.92 253.937 50.92 253.414 50.92H253.014H251.166ZM260.954 58.168C260.095 58.168 259.474 57.9227 259.09 57.432C258.711 56.9413 258.522 56.2373 258.522 55.32C258.522 54.9733 258.522 54.672 258.522 54.416C258.522 54.1547 258.522 53.9013 258.522 53.656C258.522 53.1973 258.522 52.7707 258.522 52.376C258.522 51.9813 258.522 51.5973 258.522 51.224C258.522 50.8507 258.522 50.4667 258.522 50.072L259.546 50.032C259.546 50.6187 259.546 51.1973 259.546 51.768C259.546 52.3387 259.546 52.9413 259.546 53.576V55.112C259.546 55.7947 259.669 56.312 259.914 56.664C260.165 57.0107 260.613 57.184 261.258 57.184C261.626 57.184 261.965 57.1067 262.274 56.952C262.589 56.792 262.874 56.5813 263.13 56.32C263.386 56.0533 263.615 55.76 263.818 55.44V53.576C263.818 52.9413 263.818 52.3467 263.818 51.792C263.818 51.2373 263.818 50.664 263.818 50.072H264.85C264.85 50.664 264.85 51.24 264.85 51.8C264.85 52.36 264.85 52.9787 264.85 53.656V54.488C264.85 55.1387 264.85 55.7387 264.85 56.288C264.85 56.8373 264.85 57.408 264.85 58H263.93L263.906 56.56H263.778C263.613 56.7947 263.394 57.0373 263.122 57.288C262.855 57.5333 262.541 57.7413 262.178 57.912C261.815 58.0827 261.407 58.168 260.954 58.168ZM272.925 58C272.535 57.6267 272.141 57.256 271.741 56.888C271.346 56.5147 270.951 56.144 270.557 55.776L269.061 54.368H268.509V53.592H269.149L270.397 52.36C270.786 51.976 271.173 51.5947 271.557 51.216C271.946 50.832 272.33 50.4507 272.709 50.072H274.029C273.549 50.536 273.071 51 272.597 51.464C272.122 51.9227 271.65 52.3813 271.181 52.84L269.781 54.2L269.749 53.68L271.365 55.232C271.855 55.6907 272.349 56.152 272.845 56.616C273.341 57.08 273.834 57.5413 274.325 58H272.925ZM267.621 58C267.621 57.408 267.621 56.8373 267.621 56.288C267.621 55.7387 267.621 55.1387 267.621 54.488V50.096C267.621 49.424 267.621 48.7733 267.621 48.144C267.621 47.5093 267.621 46.8933 267.621 46.296L268.653 46.144C268.653 46.784 268.653 47.4293 268.653 48.08C268.653 48.7253 268.653 49.3973 268.653 50.096V54.624C268.653 55.2373 268.653 55.8107 268.653 56.344C268.653 56.872 268.653 57.424 268.653 58H267.621ZM279.214 58C279.214 57.408 279.214 56.8373 279.214 56.288C279.214 55.7387 279.214 55.1387 279.214 54.488V50.096C279.214 49.424 279.214 48.7733 279.214 48.144C279.214 47.5093 279.214 46.8933 279.214 46.296L280.246 46.144C280.246 46.784 280.246 47.4293 280.246 48.08C280.246 48.7253 280.246 49.3973 280.246 50.096V51.456H280.374C280.534 51.2267 280.745 50.992 281.006 50.752C281.268 50.512 281.577 50.3093 281.934 50.144C282.297 49.9787 282.713 49.896 283.182 49.896C284.041 49.896 284.66 50.1413 285.038 50.632C285.422 51.1173 285.614 51.8187 285.614 52.736C285.614 53.0827 285.614 53.384 285.614 53.64C285.614 53.896 285.614 54.1787 285.614 54.488C285.614 55.112 285.614 55.7067 285.614 56.272C285.614 56.832 285.614 57.408 285.614 58H284.582C284.582 57.408 284.582 56.832 284.582 56.272C284.582 55.712 284.582 55.1307 284.582 54.528V52.96C284.582 52.2773 284.46 51.7627 284.214 51.416C283.969 51.064 283.524 50.888 282.878 50.888C282.484 50.888 282.126 50.968 281.806 51.128C281.486 51.2827 281.198 51.4933 280.942 51.76C280.686 52.0213 280.454 52.312 280.246 52.632V54.528C280.246 55.1573 280.246 55.7467 280.246 56.296C280.246 56.84 280.246 57.408 280.246 58H279.214ZM290.187 58.16C289.702 58.16 289.28 58.0693 288.923 57.888C288.566 57.7013 288.288 57.44 288.091 57.104C287.894 56.7627 287.795 56.36 287.795 55.896C287.795 55.4693 287.872 55.112 288.027 54.824C288.182 54.536 288.384 54.3013 288.635 54.12C288.891 53.9333 289.168 53.7893 289.467 53.688C289.766 53.5813 290.062 53.5013 290.355 53.448L292.947 52.968C292.968 52.36 292.891 51.904 292.715 51.6C292.544 51.2907 292.307 51.0853 292.003 50.984C291.699 50.8773 291.363 50.824 290.995 50.824C290.814 50.824 290.619 50.8373 290.411 50.864C290.203 50.8853 289.984 50.9227 289.755 50.976C289.526 51.0293 289.28 51.0987 289.019 51.184C288.763 51.2693 288.491 51.3733 288.203 51.496L288.139 50.52C288.331 50.44 288.544 50.3627 288.779 50.288C289.019 50.2133 289.272 50.1467 289.539 50.088C289.806 50.0293 290.078 49.984 290.355 49.952C290.638 49.9147 290.912 49.896 291.179 49.896C291.75 49.896 292.24 49.9893 292.651 50.176C293.067 50.3573 293.384 50.648 293.603 51.048C293.827 51.448 293.939 51.9627 293.939 52.592C293.939 52.8427 293.939 53.1573 293.939 53.536C293.939 53.9147 293.939 54.2773 293.939 54.624V55.704C293.939 56.056 293.939 56.4187 293.939 56.792C293.939 57.16 293.939 57.5627 293.939 58H292.995L292.955 56.824H292.827C292.662 57.048 292.446 57.264 292.179 57.472C291.918 57.6747 291.616 57.84 291.275 57.968C290.939 58.096 290.576 58.16 290.187 58.16ZM290.443 57.264C290.747 57.264 291.054 57.2053 291.363 57.088C291.672 56.9653 291.96 56.7787 292.227 56.528C292.499 56.2773 292.728 55.96 292.915 55.576L292.923 53.64C292.832 53.688 292.712 53.7387 292.563 53.792C292.414 53.84 292.19 53.8987 291.891 53.968C291.592 54.032 291.174 54.1147 290.635 54.216C290.299 54.2747 289.995 54.368 289.723 54.496C289.456 54.624 289.243 54.8 289.083 55.024C288.923 55.2427 288.843 55.52 288.843 55.856C288.843 56.368 288.995 56.7307 289.299 56.944C289.608 57.1573 289.99 57.264 290.443 57.264ZM296.683 58C296.683 57.408 296.683 56.8373 296.683 56.288C296.683 55.7387 296.683 55.1387 296.683 54.488V53.688C296.683 53.1067 296.683 52.5093 296.683 51.896C296.683 51.2827 296.683 50.6747 296.683 50.072L297.603 50.008L297.635 51.672H297.747C297.966 51.1707 298.222 50.792 298.515 50.536C298.814 50.28 299.112 50.1093 299.411 50.024C299.715 49.9387 299.992 49.896 300.243 49.896C300.398 49.896 300.547 49.9067 300.691 49.928C300.84 49.9493 300.982 49.984 301.115 50.032L301.027 51.088C300.862 51.0453 300.71 51.0133 300.571 50.992C300.432 50.9653 300.27 50.952 300.083 50.952C299.934 50.952 299.755 50.976 299.547 51.024C299.339 51.072 299.123 51.1733 298.899 51.328C298.68 51.4827 298.467 51.7147 298.259 52.024C298.056 52.3333 297.875 52.7493 297.715 53.272V54.528C297.715 55.1573 297.715 55.7467 297.715 56.296C297.715 56.84 297.715 57.408 297.715 58H296.683ZM303.027 58C303.027 57.408 303.027 56.8373 303.027 56.288C303.027 55.7387 303.027 55.1387 303.027 54.488V53.688C303.027 53.2293 303.027 52.8 303.027 52.4C303.027 52 303.027 51.6107 303.027 51.232C303.027 50.8533 303.027 50.4667 303.027 50.072L304.051 50.04C304.051 50.4347 304.051 50.824 304.051 51.208C304.051 51.5867 304.051 51.9787 304.051 52.384C304.051 52.784 304.051 53.2187 304.051 53.688V54.488C304.051 55.1387 304.051 55.7387 304.051 56.288C304.051 56.8373 304.051 57.408 304.051 58H303.027ZM303.507 48.08C303.262 48.08 303.059 48.008 302.899 47.864C302.745 47.72 302.667 47.4987 302.667 47.2C302.667 46.9067 302.745 46.688 302.899 46.544C303.059 46.3947 303.267 46.32 303.523 46.32C303.779 46.32 303.985 46.3973 304.139 46.552C304.294 46.7013 304.371 46.9173 304.371 47.2C304.371 47.4987 304.294 47.72 304.139 47.864C303.985 48.008 303.774 48.08 303.507 48.08ZM313.761 58.168C313.388 58.168 313.044 58.1173 312.729 58.016C312.415 57.92 312.127 57.7787 311.865 57.592C311.604 57.4053 311.367 57.1813 311.153 56.92H311.033L310.961 58H310.089C310.089 57.408 310.089 56.8373 310.089 56.288C310.089 55.7387 310.089 55.1387 310.089 54.488V50.096C310.089 49.424 310.089 48.7707 310.089 48.136C310.089 47.5013 310.089 46.888 310.089 46.296L311.121 46.144C311.121 46.7947 311.121 47.4427 311.121 48.088C311.121 48.728 311.121 49.3973 311.121 50.096V50.976H311.241C311.396 50.7947 311.596 50.6213 311.841 50.456C312.087 50.2853 312.367 50.1493 312.681 50.048C313.001 49.9467 313.351 49.896 313.729 49.896C314.46 49.896 315.084 50.0747 315.601 50.432C316.119 50.7893 316.513 51.28 316.785 51.904C317.063 52.5227 317.201 53.224 317.201 54.008C317.201 54.7493 317.073 55.4373 316.817 56.072C316.561 56.7013 316.177 57.208 315.665 57.592C315.159 57.976 314.524 58.168 313.761 58.168ZM313.497 57.216C314.116 57.216 314.62 57.064 315.009 56.76C315.399 56.456 315.684 56.0613 315.865 55.576C316.052 55.0907 316.145 54.5707 316.145 54.016C316.145 53.4347 316.047 52.9067 315.849 52.432C315.657 51.952 315.364 51.5707 314.969 51.288C314.575 51 314.076 50.856 313.473 50.856C313.164 50.856 312.865 50.9013 312.577 50.992C312.289 51.0827 312.02 51.2187 311.769 51.4C311.519 51.576 311.303 51.7973 311.121 52.064V55.808C311.297 56.1013 311.5 56.352 311.729 56.56C311.964 56.768 312.228 56.9307 312.521 57.048C312.815 57.16 313.14 57.216 313.497 57.216ZM321.39 58.16C320.905 58.16 320.483 58.0693 320.126 57.888C319.769 57.7013 319.491 57.44 319.294 57.104C319.097 56.7627 318.998 56.36 318.998 55.896C318.998 55.4693 319.075 55.112 319.23 54.824C319.385 54.536 319.587 54.3013 319.838 54.12C320.094 53.9333 320.371 53.7893 320.67 53.688C320.969 53.5813 321.265 53.5013 321.558 53.448L324.15 52.968C324.171 52.36 324.094 51.904 323.918 51.6C323.747 51.2907 323.51 51.0853 323.206 50.984C322.902 50.8773 322.566 50.824 322.198 50.824C322.017 50.824 321.822 50.8373 321.614 50.864C321.406 50.8853 321.187 50.9227 320.958 50.976C320.729 51.0293 320.483 51.0987 320.222 51.184C319.966 51.2693 319.694 51.3733 319.406 51.496L319.342 50.52C319.534 50.44 319.747 50.3627 319.982 50.288C320.222 50.2133 320.475 50.1467 320.742 50.088C321.009 50.0293 321.281 49.984 321.558 49.952C321.841 49.9147 322.115 49.896 322.382 49.896C322.953 49.896 323.443 49.9893 323.854 50.176C324.27 50.3573 324.587 50.648 324.806 51.048C325.03 51.448 325.142 51.9627 325.142 52.592C325.142 52.8427 325.142 53.1573 325.142 53.536C325.142 53.9147 325.142 54.2773 325.142 54.624V55.704C325.142 56.056 325.142 56.4187 325.142 56.792C325.142 57.16 325.142 57.5627 325.142 58H324.198L324.158 56.824H324.03C323.865 57.048 323.649 57.264 323.382 57.472C323.121 57.6747 322.819 57.84 322.478 57.968C322.142 58.096 321.779 58.16 321.39 58.16ZM321.646 57.264C321.95 57.264 322.257 57.2053 322.566 57.088C322.875 56.9653 323.163 56.7787 323.43 56.528C323.702 56.2773 323.931 55.96 324.118 55.576L324.126 53.64C324.035 53.688 323.915 53.7387 323.766 53.792C323.617 53.84 323.393 53.8987 323.094 53.968C322.795 54.032 322.377 54.1147 321.838 54.216C321.502 54.2747 321.198 54.368 320.926 54.496C320.659 54.624 320.446 54.8 320.286 55.024C320.126 55.2427 320.046 55.52 320.046 55.856C320.046 56.368 320.198 56.7307 320.502 56.944C320.811 57.1573 321.193 57.264 321.646 57.264ZM327.886 58C327.886 57.408 327.886 56.8373 327.886 56.288C327.886 55.7387 327.886 55.1387 327.886 54.488V50.096C327.886 49.424 327.886 48.7733 327.886 48.144C327.886 47.5093 327.886 46.8933 327.886 46.296L328.918 46.144C328.918 46.784 328.918 47.4293 328.918 48.08C328.918 48.7253 328.918 49.3973 328.918 50.096V51.456H329.046C329.206 51.2267 329.417 50.992 329.678 50.752C329.94 50.512 330.249 50.3093 330.606 50.144C330.969 49.9787 331.385 49.896 331.854 49.896C332.713 49.896 333.332 50.1413 333.71 50.632C334.094 51.1173 334.286 51.8187 334.286 52.736C334.286 53.0827 334.286 53.384 334.286 53.64C334.286 53.896 334.286 54.1787 334.286 54.488C334.286 55.112 334.286 55.7067 334.286 56.272C334.286 56.832 334.286 57.408 334.286 58H333.254C333.254 57.408 333.254 56.832 333.254 56.272C333.254 55.712 333.254 55.1307 333.254 54.528V52.96C333.254 52.2773 333.132 51.7627 332.886 51.416C332.641 51.064 332.196 50.888 331.55 50.888C331.156 50.888 330.798 50.968 330.478 51.128C330.158 51.2827 329.87 51.4933 329.614 51.76C329.358 52.0213 329.126 52.312 328.918 52.632V54.528C328.918 55.1573 328.918 55.7467 328.918 56.296C328.918 56.84 328.918 57.408 328.918 58H327.886ZM338.859 58.16C338.374 58.16 337.952 58.0693 337.595 57.888C337.238 57.7013 336.96 57.44 336.763 57.104C336.566 56.7627 336.467 56.36 336.467 55.896C336.467 55.4693 336.544 55.112 336.699 54.824C336.854 54.536 337.056 54.3013 337.307 54.12C337.563 53.9333 337.84 53.7893 338.139 53.688C338.438 53.5813 338.734 53.5013 339.027 53.448L341.619 52.968C341.64 52.36 341.563 51.904 341.387 51.6C341.216 51.2907 340.979 51.0853 340.675 50.984C340.371 50.8773 340.035 50.824 339.667 50.824C339.486 50.824 339.291 50.8373 339.083 50.864C338.875 50.8853 338.656 50.9227 338.427 50.976C338.198 51.0293 337.952 51.0987 337.691 51.184C337.435 51.2693 337.163 51.3733 336.875 51.496L336.811 50.52C337.003 50.44 337.216 50.3627 337.451 50.288C337.691 50.2133 337.944 50.1467 338.211 50.088C338.478 50.0293 338.75 49.984 339.027 49.952C339.31 49.9147 339.584 49.896 339.851 49.896C340.422 49.896 340.912 49.9893 341.323 50.176C341.739 50.3573 342.056 50.648 342.275 51.048C342.499 51.448 342.611 51.9627 342.611 52.592C342.611 52.8427 342.611 53.1573 342.611 53.536C342.611 53.9147 342.611 54.2773 342.611 54.624V55.704C342.611 56.056 342.611 56.4187 342.611 56.792C342.611 57.16 342.611 57.5627 342.611 58H341.667L341.627 56.824H341.499C341.334 57.048 341.118 57.264 340.851 57.472C340.59 57.6747 340.288 57.84 339.947 57.968C339.611 58.096 339.248 58.16 338.859 58.16ZM339.115 57.264C339.419 57.264 339.726 57.2053 340.035 57.088C340.344 56.9653 340.632 56.7787 340.899 56.528C341.171 56.2773 341.4 55.96 341.587 55.576L341.595 53.64C341.504 53.688 341.384 53.7387 341.235 53.792C341.086 53.84 340.862 53.8987 340.563 53.968C340.264 54.032 339.846 54.1147 339.307 54.216C338.971 54.2747 338.667 54.368 338.395 54.496C338.128 54.624 337.915 54.8 337.755 55.024C337.595 55.2427 337.515 55.52 337.515 55.856C337.515 56.368 337.667 56.7307 337.971 56.944C338.28 57.1573 338.662 57.264 339.115 57.264ZM347.795 61.248C347.208 61.248 346.72 61.192 346.331 61.08C345.942 60.9733 345.632 60.8267 345.403 60.64C345.174 60.4587 345.011 60.256 344.915 60.032C344.819 59.808 344.771 59.584 344.771 59.36C344.771 58.9973 344.859 58.6933 345.035 58.448C345.216 58.208 345.427 58.016 345.667 57.872C345.907 57.728 346.12 57.6293 346.307 57.576V57.472C346.211 57.4453 346.096 57.3893 345.963 57.304C345.835 57.2187 345.72 57.0987 345.619 56.944C345.518 56.784 345.467 56.5813 345.467 56.336C345.467 56.1387 345.504 55.9627 345.579 55.808C345.659 55.648 345.774 55.5093 345.923 55.392C346.078 55.2747 346.267 55.1733 346.491 55.088V54.984C346.374 54.9467 346.216 54.872 346.019 54.76C345.827 54.6427 345.63 54.4827 345.427 54.28C345.23 54.0773 345.059 53.8267 344.915 53.528C344.776 53.2293 344.707 52.8773 344.707 52.472C344.707 51.9547 344.835 51.504 345.091 51.12C345.347 50.7307 345.702 50.4293 346.155 50.216C346.614 50.0027 347.139 49.896 347.731 49.896C347.971 49.896 348.182 49.912 348.363 49.944C348.544 49.9707 348.731 49.9973 348.923 50.024C349.115 50.0507 349.35 50.064 349.627 50.064H352.171V50.872C351.638 50.872 351.112 50.872 350.595 50.872C350.083 50.872 349.568 50.872 349.051 50.872L349.355 50.368C349.856 50.5973 350.216 50.904 350.435 51.288C350.659 51.6667 350.771 52.0853 350.771 52.544C350.771 53.0667 350.664 53.504 350.451 53.856C350.243 54.208 349.944 54.496 349.555 54.72C349.171 54.9387 348.715 55.1093 348.187 55.232C347.59 55.3707 347.147 55.504 346.859 55.632C346.571 55.7547 346.427 55.9387 346.427 56.184C346.427 56.36 346.486 56.496 346.603 56.592C346.72 56.688 346.907 56.7573 347.163 56.8C347.424 56.8373 347.766 56.856 348.187 56.856H348.539C349.291 56.856 349.899 56.9147 350.363 57.032C350.832 57.1493 351.174 57.336 351.387 57.592C351.606 57.8427 351.715 58.1787 351.715 58.6C351.715 59.0373 351.598 59.4213 351.363 59.752C351.134 60.0827 350.824 60.3573 350.435 60.576C350.046 60.8 349.622 60.968 349.163 61.08C348.704 61.192 348.248 61.248 347.795 61.248ZM347.859 60.36C348.488 60.36 349.014 60.272 349.435 60.096C349.862 59.92 350.182 59.7067 350.395 59.456C350.614 59.2053 350.723 58.968 350.723 58.744C350.723 58.5147 350.659 58.3253 350.531 58.176C350.403 58.032 350.168 57.9253 349.827 57.856C349.486 57.7867 348.992 57.752 348.347 57.752H348.035C347.656 57.7573 347.291 57.8187 346.939 57.936C346.592 58.0533 346.307 58.216 346.083 58.424C345.859 58.6373 345.747 58.8853 345.747 59.168C345.747 59.3227 345.782 59.472 345.851 59.616C345.92 59.76 346.035 59.888 346.195 60C346.36 60.112 346.579 60.2 346.851 60.264C347.123 60.328 347.459 60.36 347.859 60.36ZM347.627 54.496C347.846 54.448 348.08 54.3893 348.331 54.32C348.582 54.2453 348.816 54.1413 349.035 54.008C349.259 53.8747 349.44 53.696 349.579 53.472C349.718 53.2427 349.787 52.952 349.787 52.6C349.787 52.1733 349.675 51.8293 349.451 51.568C349.232 51.3067 348.966 51.1147 348.651 50.992C348.336 50.8693 348.035 50.808 347.747 50.808C347.379 50.808 347.04 50.872 346.731 51C346.422 51.1227 346.171 51.312 345.979 51.568C345.787 51.8187 345.691 52.1413 345.691 52.536C345.691 52.936 345.784 53.272 345.971 53.544C346.163 53.816 346.406 54.032 346.699 54.192C346.998 54.3467 347.307 54.448 347.627 54.496ZM354.012 58C354.012 57.408 354.012 56.8373 354.012 56.288C354.012 55.7387 354.012 55.1387 354.012 54.488V53.688C354.012 53.2293 354.012 52.8 354.012 52.4C354.012 52 354.012 51.6107 354.012 51.232C354.012 50.8533 354.012 50.4667 354.012 50.072L355.036 50.04C355.036 50.4347 355.036 50.824 355.036 51.208C355.036 51.5867 355.036 51.9787 355.036 52.384C355.036 52.784 355.036 53.2187 355.036 53.688V54.488C355.036 55.1387 355.036 55.7387 355.036 56.288C355.036 56.8373 355.036 57.408 355.036 58H354.012ZM354.492 48.08C354.246 48.08 354.044 48.008 353.884 47.864C353.729 47.72 353.652 47.4987 353.652 47.2C353.652 46.9067 353.729 46.688 353.884 46.544C354.044 46.3947 354.252 46.32 354.508 46.32C354.764 46.32 354.969 46.3973 355.124 46.552C355.278 46.7013 355.356 46.9173 355.356 47.2C355.356 47.4987 355.278 47.72 355.124 47.864C354.969 48.008 354.758 48.08 354.492 48.08ZM359.843 58.16C359.358 58.16 358.937 58.0693 358.579 57.888C358.222 57.7013 357.945 57.44 357.747 57.104C357.55 56.7627 357.451 56.36 357.451 55.896C357.451 55.4693 357.529 55.112 357.683 54.824C357.838 54.536 358.041 54.3013 358.291 54.12C358.547 53.9333 358.825 53.7893 359.123 53.688C359.422 53.5813 359.718 53.5013 360.011 53.448L362.603 52.968C362.625 52.36 362.547 51.904 362.371 51.6C362.201 51.2907 361.963 51.0853 361.659 50.984C361.355 50.8773 361.019 50.824 360.651 50.824C360.47 50.824 360.275 50.8373 360.067 50.864C359.859 50.8853 359.641 50.9227 359.411 50.976C359.182 51.0293 358.937 51.0987 358.675 51.184C358.419 51.2693 358.147 51.3733 357.859 51.496L357.795 50.52C357.987 50.44 358.201 50.3627 358.435 50.288C358.675 50.2133 358.929 50.1467 359.195 50.088C359.462 50.0293 359.734 49.984 360.011 49.952C360.294 49.9147 360.569 49.896 360.835 49.896C361.406 49.896 361.897 49.9893 362.307 50.176C362.723 50.3573 363.041 50.648 363.259 51.048C363.483 51.448 363.595 51.9627 363.595 52.592C363.595 52.8427 363.595 53.1573 363.595 53.536C363.595 53.9147 363.595 54.2773 363.595 54.624V55.704C363.595 56.056 363.595 56.4187 363.595 56.792C363.595 57.16 363.595 57.5627 363.595 58H362.651L362.611 56.824H362.483C362.318 57.048 362.102 57.264 361.835 57.472C361.574 57.6747 361.273 57.84 360.931 57.968C360.595 58.096 360.233 58.16 359.843 58.16ZM360.099 57.264C360.403 57.264 360.71 57.2053 361.019 57.088C361.329 56.9653 361.617 56.7787 361.883 56.528C362.155 56.2773 362.385 55.96 362.571 55.576L362.579 53.64C362.489 53.688 362.369 53.7387 362.219 53.792C362.07 53.84 361.846 53.8987 361.547 53.968C361.249 54.032 360.83 54.1147 360.291 54.216C359.955 54.2747 359.651 54.368 359.379 54.496C359.113 54.624 358.899 54.8 358.739 55.024C358.579 55.2427 358.499 55.52 358.499 55.856C358.499 56.368 358.651 56.7307 358.955 56.944C359.265 57.1573 359.646 57.264 360.099 57.264ZM120.003 78C119.613 77.6267 119.219 77.256 118.819 76.888C118.424 76.5147 118.029 76.144 117.635 75.776L116.139 74.368H115.587V73.592H116.227L117.475 72.36C117.864 71.976 118.251 71.5947 118.635 71.216C119.024 70.832 119.408 70.4507 119.787 70.072H121.107C120.627 70.536 120.149 71 119.675 71.464C119.2 71.9227 118.728 72.3813 118.259 72.84L116.859 74.2L116.827 73.68L118.443 75.232C118.933 75.6907 119.427 76.152 119.923 76.616C120.419 77.08 120.912 77.5413 121.403 78H120.003ZM114.699 78C114.699 77.408 114.699 76.8373 114.699 76.288C114.699 75.7387 114.699 75.1387 114.699 74.488V70.096C114.699 69.424 114.699 68.7733 114.699 68.144C114.699 67.5093 114.699 66.8933 114.699 66.296L115.731 66.144C115.731 66.784 115.731 67.4293 115.731 68.08C115.731 68.7253 115.731 69.3973 115.731 70.096V74.624C115.731 75.2373 115.731 75.8107 115.731 76.344C115.731 76.872 115.731 77.424 115.731 78H114.699ZM125.062 78.16C124.577 78.16 124.155 78.0693 123.798 77.888C123.441 77.7013 123.163 77.44 122.966 77.104C122.769 76.7627 122.67 76.36 122.67 75.896C122.67 75.4693 122.747 75.112 122.902 74.824C123.057 74.536 123.259 74.3013 123.51 74.12C123.766 73.9333 124.043 73.7893 124.342 73.688C124.641 73.5813 124.937 73.5013 125.23 73.448L127.822 72.968C127.843 72.36 127.766 71.904 127.59 71.6C127.419 71.2907 127.182 71.0853 126.878 70.984C126.574 70.8773 126.238 70.824 125.87 70.824C125.689 70.824 125.494 70.8373 125.286 70.864C125.078 70.8853 124.859 70.9227 124.63 70.976C124.401 71.0293 124.155 71.0987 123.894 71.184C123.638 71.2693 123.366 71.3733 123.078 71.496L123.014 70.52C123.206 70.44 123.419 70.3627 123.654 70.288C123.894 70.2133 124.147 70.1467 124.414 70.088C124.681 70.0293 124.953 69.984 125.23 69.952C125.513 69.9147 125.787 69.896 126.054 69.896C126.625 69.896 127.115 69.9893 127.526 70.176C127.942 70.3573 128.259 70.648 128.478 71.048C128.702 71.448 128.814 71.9627 128.814 72.592C128.814 72.8427 128.814 73.1573 128.814 73.536C128.814 73.9147 128.814 74.2773 128.814 74.624V75.704C128.814 76.056 128.814 76.4187 128.814 76.792C128.814 77.16 128.814 77.5627 128.814 78H127.87L127.83 76.824H127.702C127.537 77.048 127.321 77.264 127.054 77.472C126.793 77.6747 126.491 77.84 126.15 77.968C125.814 78.096 125.451 78.16 125.062 78.16ZM125.318 77.264C125.622 77.264 125.929 77.2053 126.238 77.088C126.547 76.9653 126.835 76.7787 127.102 76.528C127.374 76.2773 127.603 75.96 127.79 75.576L127.798 73.64C127.707 73.688 127.587 73.7387 127.438 73.792C127.289 73.84 127.065 73.8987 126.766 73.968C126.467 74.032 126.049 74.1147 125.51 74.216C125.174 74.2747 124.87 74.368 124.598 74.496C124.331 74.624 124.118 74.8 123.958 75.024C123.798 75.2427 123.718 75.52 123.718 75.856C123.718 76.368 123.87 76.7307 124.174 76.944C124.483 77.1573 124.865 77.264 125.318 77.264ZM131.558 78C131.558 77.408 131.558 76.8373 131.558 76.288C131.558 75.7387 131.558 75.1387 131.558 74.488V73.688C131.558 73.1067 131.558 72.5093 131.558 71.896C131.558 71.2827 131.558 70.6747 131.558 70.072L132.478 70.008L132.51 71.488H132.638C132.798 71.2533 133.006 71.016 133.262 70.776C133.518 70.5307 133.822 70.3227 134.174 70.152C134.526 69.9813 134.929 69.896 135.382 69.896C136.049 69.896 136.558 70.0587 136.91 70.384C137.262 70.7093 137.489 71.1787 137.59 71.792L137.646 71.84C137.667 71.9787 137.683 72.1227 137.694 72.272C137.705 72.416 137.71 72.5707 137.71 72.736C137.71 73.0827 137.71 73.384 137.71 73.64C137.71 73.896 137.71 74.1787 137.71 74.488C137.71 75.112 137.71 75.7067 137.71 76.272C137.71 76.832 137.71 77.408 137.71 78H136.678C136.678 77.408 136.678 76.832 136.678 76.272C136.678 75.712 136.678 75.1307 136.678 74.528V72.96C136.678 72.2773 136.561 71.7627 136.326 71.416C136.097 71.064 135.678 70.888 135.07 70.888C134.702 70.888 134.366 70.968 134.062 71.128C133.763 71.288 133.491 71.5013 133.246 71.768C133.006 72.0347 132.787 72.3227 132.59 72.632V74.528C132.59 75.1573 132.59 75.7467 132.59 76.296C132.59 76.84 132.59 77.408 132.59 78H131.558ZM141.734 78C141.734 77.408 141.734 76.832 141.734 76.272C141.734 75.712 141.734 75.1307 141.734 74.528V72.96C141.734 72.2773 141.617 71.7627 141.382 71.416C141.153 71.064 140.734 70.888 140.126 70.888C139.758 70.888 139.422 70.968 139.118 71.128C138.819 71.2827 138.547 71.4933 138.302 71.76C138.057 72.0213 137.835 72.312 137.638 72.632L137.494 71.528H137.622C137.803 71.2827 138.025 71.0347 138.286 70.784C138.547 70.5333 138.857 70.3227 139.214 70.152C139.577 69.9813 139.987 69.896 140.446 69.896C141.289 69.896 141.886 70.1467 142.238 70.648C142.59 71.1493 142.766 71.8453 142.766 72.736C142.766 73.0827 142.766 73.384 142.766 73.64C142.766 73.896 142.766 74.1787 142.766 74.488C142.766 75.112 142.766 75.7067 142.766 76.272C142.766 76.832 142.766 77.408 142.766 78H141.734ZM145.527 78C145.527 77.408 145.527 76.8373 145.527 76.288C145.527 75.7387 145.527 75.1387 145.527 74.488V73.688C145.527 73.2293 145.527 72.8 145.527 72.4C145.527 72 145.527 71.6107 145.527 71.232C145.527 70.8533 145.527 70.4667 145.527 70.072L146.551 70.04C146.551 70.4347 146.551 70.824 146.551 71.208C146.551 71.5867 146.551 71.9787 146.551 72.384C146.551 72.784 146.551 73.2187 146.551 73.688V74.488C146.551 75.1387 146.551 75.7387 146.551 76.288C146.551 76.8373 146.551 77.408 146.551 78H145.527ZM146.007 68.08C145.762 68.08 145.559 68.008 145.399 67.864C145.245 67.72 145.167 67.4987 145.167 67.2C145.167 66.9067 145.245 66.688 145.399 66.544C145.559 66.3947 145.767 66.32 146.023 66.32C146.279 66.32 146.485 66.3973 146.639 66.552C146.794 66.7013 146.871 66.9173 146.871 67.2C146.871 67.4987 146.794 67.72 146.639 67.864C146.485 68.008 146.274 68.08 146.007 68.08ZM153.341 81.112C153.549 80.5947 153.76 80.072 153.973 79.544C154.187 79.0213 154.4 78.504 154.613 77.992V78.296C154.411 77.7467 154.205 77.1947 153.997 76.64C153.789 76.08 153.587 75.536 153.389 75.008L152.853 73.568C152.645 72.9973 152.429 72.4133 152.205 71.816C151.981 71.2187 151.763 70.6373 151.549 70.072L152.661 70.032C152.907 70.7467 153.149 71.4453 153.389 72.128C153.629 72.8107 153.872 73.5093 154.117 74.224L155.045 76.88H155.165L156.173 74.208C156.44 73.5147 156.701 72.8267 156.957 72.144C157.213 71.456 157.472 70.7653 157.733 70.072H158.813C158.643 70.4987 158.477 70.912 158.317 71.312C158.163 71.7067 157.989 72.144 157.797 72.624C157.611 73.104 157.384 73.6747 157.117 74.336L156.229 76.568C155.829 77.5813 155.488 78.44 155.205 79.144C154.928 79.8533 154.672 80.496 154.437 81.072L153.341 81.112ZM162.406 78.16C161.92 78.16 161.499 78.0693 161.142 77.888C160.784 77.7013 160.507 77.44 160.31 77.104C160.112 76.7627 160.014 76.36 160.014 75.896C160.014 75.4693 160.091 75.112 160.246 74.824C160.4 74.536 160.603 74.3013 160.854 74.12C161.11 73.9333 161.387 73.7893 161.686 73.688C161.984 73.5813 162.28 73.5013 162.574 73.448L165.166 72.968C165.187 72.36 165.11 71.904 164.934 71.6C164.763 71.2907 164.526 71.0853 164.222 70.984C163.918 70.8773 163.582 70.824 163.214 70.824C163.032 70.824 162.838 70.8373 162.63 70.864C162.422 70.8853 162.203 70.9227 161.974 70.976C161.744 71.0293 161.499 71.0987 161.238 71.184C160.982 71.2693 160.71 71.3733 160.422 71.496L160.358 70.52C160.55 70.44 160.763 70.3627 160.998 70.288C161.238 70.2133 161.491 70.1467 161.758 70.088C162.024 70.0293 162.296 69.984 162.574 69.952C162.856 69.9147 163.131 69.896 163.398 69.896C163.968 69.896 164.459 69.9893 164.87 70.176C165.286 70.3573 165.603 70.648 165.822 71.048C166.046 71.448 166.158 71.9627 166.158 72.592C166.158 72.8427 166.158 73.1573 166.158 73.536C166.158 73.9147 166.158 74.2773 166.158 74.624V75.704C166.158 76.056 166.158 76.4187 166.158 76.792C166.158 77.16 166.158 77.5627 166.158 78H165.214L165.174 76.824H165.046C164.88 77.048 164.664 77.264 164.398 77.472C164.136 77.6747 163.835 77.84 163.494 77.968C163.158 78.096 162.795 78.16 162.406 78.16ZM162.662 77.264C162.966 77.264 163.272 77.2053 163.582 77.088C163.891 76.9653 164.179 76.7787 164.446 76.528C164.718 76.2773 164.947 75.96 165.134 75.576L165.142 73.64C165.051 73.688 164.931 73.7387 164.782 73.792C164.632 73.84 164.408 73.8987 164.11 73.968C163.811 74.032 163.392 74.1147 162.854 74.216C162.518 74.2747 162.214 74.368 161.942 74.496C161.675 74.624 161.462 74.8 161.302 75.024C161.142 75.2427 161.062 75.52 161.062 75.856C161.062 76.368 161.214 76.7307 161.518 76.944C161.827 77.1573 162.208 77.264 162.662 77.264ZM168.902 78C168.902 77.408 168.902 76.8373 168.902 76.288C168.902 75.7387 168.902 75.1387 168.902 74.488V73.688C168.902 73.1067 168.902 72.5093 168.902 71.896C168.902 71.2827 168.902 70.6747 168.902 70.072L169.822 70.008L169.854 71.496H169.982C170.147 71.2613 170.363 71.0213 170.63 70.776C170.902 70.5307 171.222 70.3227 171.59 70.152C171.963 69.9813 172.39 69.896 172.87 69.896C173.729 69.896 174.347 70.1413 174.726 70.632C175.11 71.1173 175.302 71.8187 175.302 72.736C175.302 73.0827 175.302 73.384 175.302 73.64C175.302 73.896 175.302 74.1787 175.302 74.488C175.302 75.112 175.302 75.7067 175.302 76.272C175.302 76.832 175.302 77.408 175.302 78H174.27C174.27 77.408 174.27 76.832 174.27 76.272C174.27 75.712 174.27 75.1307 174.27 74.528V72.96C174.27 72.2773 174.147 71.7627 173.902 71.416C173.657 71.064 173.211 70.888 172.566 70.888C172.171 70.888 171.814 70.968 171.494 71.128C171.174 71.2827 170.886 71.4933 170.63 71.76C170.374 72.0213 170.142 72.312 169.934 72.632V74.528C169.934 75.1573 169.934 75.7467 169.934 76.296C169.934 76.84 169.934 77.408 169.934 78H168.902ZM180.483 81.248C179.896 81.248 179.408 81.192 179.019 81.08C178.629 80.9733 178.32 80.8267 178.091 80.64C177.861 80.4587 177.699 80.256 177.603 80.032C177.507 79.808 177.459 79.584 177.459 79.36C177.459 78.9973 177.547 78.6933 177.723 78.448C177.904 78.208 178.115 78.016 178.355 77.872C178.595 77.728 178.808 77.6293 178.995 77.576V77.472C178.899 77.4453 178.784 77.3893 178.651 77.304C178.523 77.2187 178.408 77.0987 178.307 76.944C178.205 76.784 178.155 76.5813 178.155 76.336C178.155 76.1387 178.192 75.9627 178.267 75.808C178.347 75.648 178.461 75.5093 178.611 75.392C178.765 75.2747 178.955 75.1733 179.179 75.088V74.984C179.061 74.9467 178.904 74.872 178.707 74.76C178.515 74.6427 178.317 74.4827 178.115 74.28C177.917 74.0773 177.747 73.8267 177.603 73.528C177.464 73.2293 177.395 72.8773 177.395 72.472C177.395 71.9547 177.523 71.504 177.779 71.12C178.035 70.7307 178.389 70.4293 178.843 70.216C179.301 70.0027 179.827 69.896 180.419 69.896C180.659 69.896 180.869 69.912 181.051 69.944C181.232 69.9707 181.419 69.9973 181.611 70.024C181.803 70.0507 182.037 70.064 182.315 70.064H184.859V70.872C184.325 70.872 183.8 70.872 183.283 70.872C182.771 70.872 182.256 70.872 181.739 70.872L182.043 70.368C182.544 70.5973 182.904 70.904 183.123 71.288C183.347 71.6667 183.459 72.0853 183.459 72.544C183.459 73.0667 183.352 73.504 183.139 73.856C182.931 74.208 182.632 74.496 182.243 74.72C181.859 74.9387 181.403 75.1093 180.875 75.232C180.277 75.3707 179.835 75.504 179.547 75.632C179.259 75.7547 179.115 75.9387 179.115 76.184C179.115 76.36 179.173 76.496 179.291 76.592C179.408 76.688 179.595 76.7573 179.851 76.8C180.112 76.8373 180.453 76.856 180.875 76.856H181.227C181.979 76.856 182.587 76.9147 183.051 77.032C183.52 77.1493 183.861 77.336 184.075 77.592C184.293 77.8427 184.403 78.1787 184.403 78.6C184.403 79.0373 184.285 79.4213 184.051 79.752C183.821 80.0827 183.512 80.3573 183.123 80.576C182.733 80.8 182.309 80.968 181.851 81.08C181.392 81.192 180.936 81.248 180.483 81.248ZM180.547 80.36C181.176 80.36 181.701 80.272 182.123 80.096C182.549 79.92 182.869 79.7067 183.083 79.456C183.301 79.2053 183.411 78.968 183.411 78.744C183.411 78.5147 183.347 78.3253 183.219 78.176C183.091 78.032 182.856 77.9253 182.515 77.856C182.173 77.7867 181.68 77.752 181.035 77.752H180.723C180.344 77.7573 179.979 77.8187 179.627 77.936C179.28 78.0533 178.995 78.216 178.771 78.424C178.547 78.6373 178.435 78.8853 178.435 79.168C178.435 79.3227 178.469 79.472 178.539 79.616C178.608 79.76 178.723 79.888 178.883 80C179.048 80.112 179.267 80.2 179.539 80.264C179.811 80.328 180.147 80.36 180.547 80.36ZM180.315 74.496C180.533 74.448 180.768 74.3893 181.019 74.32C181.269 74.2453 181.504 74.1413 181.723 74.008C181.947 73.8747 182.128 73.696 182.267 73.472C182.405 73.2427 182.475 72.952 182.475 72.6C182.475 72.1733 182.363 71.8293 182.139 71.568C181.92 71.3067 181.653 71.1147 181.339 70.992C181.024 70.8693 180.723 70.808 180.435 70.808C180.067 70.808 179.728 70.872 179.419 71C179.109 71.1227 178.859 71.312 178.667 71.568C178.475 71.8187 178.379 72.1413 178.379 72.536C178.379 72.936 178.472 73.272 178.659 73.544C178.851 73.816 179.093 74.032 179.387 74.192C179.685 74.3467 179.995 74.448 180.315 74.496ZM191.578 78.16C191.092 78.16 190.671 78.0693 190.314 77.888C189.956 77.7013 189.679 77.44 189.482 77.104C189.284 76.7627 189.186 76.36 189.186 75.896C189.186 75.4693 189.263 75.112 189.418 74.824C189.572 74.536 189.775 74.3013 190.026 74.12C190.282 73.9333 190.559 73.7893 190.858 73.688C191.156 73.5813 191.452 73.5013 191.746 73.448L194.338 72.968C194.359 72.36 194.282 71.904 194.106 71.6C193.935 71.2907 193.698 71.0853 193.394 70.984C193.09 70.8773 192.754 70.824 192.386 70.824C192.204 70.824 192.01 70.8373 191.802 70.864C191.594 70.8853 191.375 70.9227 191.146 70.976C190.916 71.0293 190.671 71.0987 190.41 71.184C190.154 71.2693 189.882 71.3733 189.594 71.496L189.53 70.52C189.722 70.44 189.935 70.3627 190.17 70.288C190.41 70.2133 190.663 70.1467 190.93 70.088C191.196 70.0293 191.468 69.984 191.746 69.952C192.028 69.9147 192.303 69.896 192.57 69.896C193.14 69.896 193.631 69.9893 194.042 70.176C194.458 70.3573 194.775 70.648 194.994 71.048C195.218 71.448 195.33 71.9627 195.33 72.592C195.33 72.8427 195.33 73.1573 195.33 73.536C195.33 73.9147 195.33 74.2773 195.33 74.624V75.704C195.33 76.056 195.33 76.4187 195.33 76.792C195.33 77.16 195.33 77.5627 195.33 78H194.386L194.346 76.824H194.218C194.052 77.048 193.836 77.264 193.57 77.472C193.308 77.6747 193.007 77.84 192.666 77.968C192.33 78.096 191.967 78.16 191.578 78.16ZM191.834 77.264C192.138 77.264 192.444 77.2053 192.754 77.088C193.063 76.9653 193.351 76.7787 193.618 76.528C193.89 76.2773 194.119 75.96 194.306 75.576L194.314 73.64C194.223 73.688 194.103 73.7387 193.954 73.792C193.804 73.84 193.58 73.8987 193.282 73.968C192.983 74.032 192.564 74.1147 192.026 74.216C191.69 74.2747 191.386 74.368 191.114 74.496C190.847 74.624 190.634 74.8 190.474 75.024C190.314 75.2427 190.234 75.52 190.234 75.856C190.234 76.368 190.386 76.7307 190.69 76.944C190.999 77.1573 191.38 77.264 191.834 77.264ZM203.378 78C202.988 77.6267 202.594 77.256 202.194 76.888C201.799 76.5147 201.404 76.144 201.01 75.776L199.514 74.368H198.962V73.592H199.602L200.85 72.36C201.239 71.976 201.626 71.5947 202.01 71.216C202.399 70.832 202.783 70.4507 203.162 70.072H204.482C204.002 70.536 203.524 71 203.05 71.464C202.575 71.9227 202.103 72.3813 201.634 72.84L200.234 74.2L200.202 73.68L201.818 75.232C202.308 75.6907 202.802 76.152 203.298 76.616C203.794 77.08 204.287 77.5413 204.778 78H203.378ZM198.074 78C198.074 77.408 198.074 76.8373 198.074 76.288C198.074 75.7387 198.074 75.1387 198.074 74.488V70.096C198.074 69.424 198.074 68.7733 198.074 68.144C198.074 67.5093 198.074 66.8933 198.074 66.296L199.106 66.144C199.106 66.784 199.106 67.4293 199.106 68.08C199.106 68.7253 199.106 69.3973 199.106 70.096V74.624C199.106 75.2373 199.106 75.8107 199.106 76.344C199.106 76.872 199.106 77.424 199.106 78H198.074ZM208.437 78.16C207.952 78.16 207.53 78.0693 207.173 77.888C206.816 77.7013 206.538 77.44 206.341 77.104C206.144 76.7627 206.045 76.36 206.045 75.896C206.045 75.4693 206.122 75.112 206.277 74.824C206.432 74.536 206.634 74.3013 206.885 74.12C207.141 73.9333 207.418 73.7893 207.717 73.688C208.016 73.5813 208.312 73.5013 208.605 73.448L211.197 72.968C211.218 72.36 211.141 71.904 210.965 71.6C210.794 71.2907 210.557 71.0853 210.253 70.984C209.949 70.8773 209.613 70.824 209.245 70.824C209.064 70.824 208.869 70.8373 208.661 70.864C208.453 70.8853 208.234 70.9227 208.005 70.976C207.776 71.0293 207.53 71.0987 207.269 71.184C207.013 71.2693 206.741 71.3733 206.453 71.496L206.389 70.52C206.581 70.44 206.794 70.3627 207.029 70.288C207.269 70.2133 207.522 70.1467 207.789 70.088C208.056 70.0293 208.328 69.984 208.605 69.952C208.888 69.9147 209.162 69.896 209.429 69.896C210 69.896 210.49 69.9893 210.901 70.176C211.317 70.3573 211.634 70.648 211.853 71.048C212.077 71.448 212.189 71.9627 212.189 72.592C212.189 72.8427 212.189 73.1573 212.189 73.536C212.189 73.9147 212.189 74.2773 212.189 74.624V75.704C212.189 76.056 212.189 76.4187 212.189 76.792C212.189 77.16 212.189 77.5627 212.189 78H211.245L211.205 76.824H211.077C210.912 77.048 210.696 77.264 210.429 77.472C210.168 77.6747 209.866 77.84 209.525 77.968C209.189 78.096 208.826 78.16 208.437 78.16ZM208.693 77.264C208.997 77.264 209.304 77.2053 209.613 77.088C209.922 76.9653 210.21 76.7787 210.477 76.528C210.749 76.2773 210.978 75.96 211.165 75.576L211.173 73.64C211.082 73.688 210.962 73.7387 210.813 73.792C210.664 73.84 210.44 73.8987 210.141 73.968C209.842 74.032 209.424 74.1147 208.885 74.216C208.549 74.2747 208.245 74.368 207.973 74.496C207.706 74.624 207.493 74.8 207.333 75.024C207.173 75.2427 207.093 75.52 207.093 75.856C207.093 76.368 207.245 76.7307 207.549 76.944C207.858 77.1573 208.24 77.264 208.693 77.264ZM214.933 78C214.933 77.408 214.933 76.8373 214.933 76.288C214.933 75.7387 214.933 75.1387 214.933 74.488V73.688C214.933 73.1067 214.933 72.5093 214.933 71.896C214.933 71.2827 214.933 70.6747 214.933 70.072L215.853 70.008L215.885 71.496H216.013C216.178 71.2613 216.394 71.0213 216.661 70.776C216.933 70.5307 217.253 70.3227 217.621 70.152C217.994 69.9813 218.421 69.896 218.901 69.896C219.76 69.896 220.378 70.1413 220.757 70.632C221.141 71.1173 221.333 71.8187 221.333 72.736C221.333 73.0827 221.333 73.384 221.333 73.64C221.333 73.896 221.333 74.1787 221.333 74.488C221.333 75.112 221.333 75.7067 221.333 76.272C221.333 76.832 221.333 77.408 221.333 78H220.301C220.301 77.408 220.301 76.832 220.301 76.272C220.301 75.712 220.301 75.1307 220.301 74.528V72.96C220.301 72.2773 220.178 71.7627 219.933 71.416C219.688 71.064 219.242 70.888 218.597 70.888C218.202 70.888 217.845 70.968 217.525 71.128C217.205 71.2827 216.917 71.4933 216.661 71.76C216.405 72.0213 216.173 72.312 215.965 72.632V74.528C215.965 75.1573 215.965 75.7467 215.965 76.296C215.965 76.84 215.965 77.408 215.965 78H214.933ZM229.288 78.16C228.968 78.16 228.646 78.1333 228.32 78.08C227.995 78.032 227.686 77.9627 227.392 77.872C227.099 77.776 226.843 77.6693 226.624 77.552L226.72 76.56C226.966 76.6987 227.227 76.8187 227.504 76.92C227.782 77.0213 228.067 77.1013 228.36 77.16C228.659 77.2133 228.963 77.24 229.272 77.24C229.592 77.24 229.886 77.2 230.152 77.12C230.424 77.04 230.64 76.8987 230.8 76.696C230.966 76.4933 231.048 76.2 231.048 75.816C231.048 75.5653 230.979 75.36 230.84 75.2C230.707 75.0347 230.48 74.888 230.16 74.76C229.846 74.632 229.419 74.488 228.88 74.328C228.475 74.2107 228.107 74.0693 227.776 73.904C227.446 73.7387 227.182 73.5173 226.984 73.24C226.787 72.9573 226.688 72.5867 226.688 72.128C226.688 71.4507 226.915 70.9093 227.368 70.504C227.827 70.0987 228.443 69.896 229.216 69.896C229.526 69.896 229.827 69.9253 230.12 69.984C230.414 70.0373 230.688 70.112 230.944 70.208C231.2 70.2987 231.422 70.3973 231.608 70.504L231.512 71.504C231.251 71.3387 230.987 71.2053 230.72 71.104C230.459 71.0027 230.206 70.9307 229.96 70.888C229.72 70.8453 229.502 70.824 229.304 70.824C229.08 70.824 228.848 70.8587 228.608 70.928C228.368 70.992 228.163 71.1173 227.992 71.304C227.827 71.4853 227.744 71.752 227.744 72.104C227.744 72.3493 227.8 72.5573 227.912 72.728C228.03 72.8933 228.219 73.04 228.48 73.168C228.747 73.2907 229.11 73.4187 229.568 73.552C230.08 73.7067 230.526 73.8667 230.904 74.032C231.288 74.1973 231.582 74.416 231.784 74.688C231.992 74.96 232.096 75.3333 232.096 75.808C232.096 76.2453 231.998 76.6427 231.8 77C231.608 77.3573 231.307 77.64 230.896 77.848C230.486 78.056 229.95 78.16 229.288 78.16ZM237.851 78.16C236.923 78.16 236.155 77.9813 235.547 77.624C234.944 77.2613 234.493 76.7653 234.195 76.136C233.901 75.5067 233.755 74.7893 233.755 73.984C233.755 73.1893 233.901 72.4853 234.195 71.872C234.493 71.2533 234.912 70.7707 235.451 70.424C235.995 70.072 236.637 69.896 237.379 69.896C238.029 69.896 238.592 70.0293 239.067 70.296C239.547 70.5573 239.915 70.9387 240.171 71.44C240.427 71.9413 240.555 72.552 240.555 73.272C240.555 73.464 240.549 73.64 240.539 73.8C240.533 73.9547 240.517 74.1093 240.491 74.264L239.579 73.736C239.589 73.6507 239.595 73.568 239.595 73.488C239.6 73.408 239.603 73.3307 239.603 73.256C239.603 72.424 239.4 71.8027 238.995 71.392C238.589 70.976 238.056 70.768 237.395 70.768C236.851 70.768 236.384 70.9013 235.995 71.168C235.611 71.4347 235.315 71.8027 235.107 72.272C234.904 72.7413 234.803 73.2773 234.803 73.88V74.016C234.803 74.6773 234.915 75.248 235.139 75.728C235.368 76.208 235.712 76.5787 236.171 76.84C236.635 77.1013 237.221 77.232 237.931 77.232C238.192 77.232 238.461 77.2107 238.739 77.168C239.016 77.1253 239.291 77.0613 239.563 76.976C239.835 76.8907 240.096 76.7787 240.347 76.64L240.403 77.608C240.2 77.72 239.965 77.8187 239.699 77.904C239.432 77.984 239.141 78.0453 238.827 78.088C238.512 78.136 238.187 78.16 237.851 78.16ZM234.211 74.264V73.488L239.835 73.456L240.491 73.672V74.264H234.211ZM245.248 81.248C244.661 81.248 244.173 81.192 243.784 81.08C243.395 80.9733 243.085 80.8267 242.856 80.64C242.627 80.4587 242.464 80.256 242.368 80.032C242.272 79.808 242.224 79.584 242.224 79.36C242.224 78.9973 242.312 78.6933 242.488 78.448C242.669 78.208 242.88 78.016 243.12 77.872C243.36 77.728 243.573 77.6293 243.76 77.576V77.472C243.664 77.4453 243.549 77.3893 243.416 77.304C243.288 77.2187 243.173 77.0987 243.072 76.944C242.971 76.784 242.92 76.5813 242.92 76.336C242.92 76.1387 242.957 75.9627 243.032 75.808C243.112 75.648 243.227 75.5093 243.376 75.392C243.531 75.2747 243.72 75.1733 243.944 75.088V74.984C243.827 74.9467 243.669 74.872 243.472 74.76C243.28 74.6427 243.083 74.4827 242.88 74.28C242.683 74.0773 242.512 73.8267 242.368 73.528C242.229 73.2293 242.16 72.8773 242.16 72.472C242.16 71.9547 242.288 71.504 242.544 71.12C242.8 70.7307 243.155 70.4293 243.608 70.216C244.067 70.0027 244.592 69.896 245.184 69.896C245.424 69.896 245.635 69.912 245.816 69.944C245.997 69.9707 246.184 69.9973 246.376 70.024C246.568 70.0507 246.803 70.064 247.08 70.064H249.624V70.872C249.091 70.872 248.565 70.872 248.048 70.872C247.536 70.872 247.021 70.872 246.504 70.872L246.808 70.368C247.309 70.5973 247.669 70.904 247.888 71.288C248.112 71.6667 248.224 72.0853 248.224 72.544C248.224 73.0667 248.117 73.504 247.904 73.856C247.696 74.208 247.397 74.496 247.008 74.72C246.624 74.9387 246.168 75.1093 245.64 75.232C245.043 75.3707 244.6 75.504 244.312 75.632C244.024 75.7547 243.88 75.9387 243.88 76.184C243.88 76.36 243.939 76.496 244.056 76.592C244.173 76.688 244.36 76.7573 244.616 76.8C244.877 76.8373 245.219 76.856 245.64 76.856H245.992C246.744 76.856 247.352 76.9147 247.816 77.032C248.285 77.1493 248.627 77.336 248.84 77.592C249.059 77.8427 249.168 78.1787 249.168 78.6C249.168 79.0373 249.051 79.4213 248.816 79.752C248.587 80.0827 248.277 80.3573 247.888 80.576C247.499 80.8 247.075 80.968 246.616 81.08C246.157 81.192 245.701 81.248 245.248 81.248ZM245.312 80.36C245.941 80.36 246.467 80.272 246.888 80.096C247.315 79.92 247.635 79.7067 247.848 79.456C248.067 79.2053 248.176 78.968 248.176 78.744C248.176 78.5147 248.112 78.3253 247.984 78.176C247.856 78.032 247.621 77.9253 247.28 77.856C246.939 77.7867 246.445 77.752 245.8 77.752H245.488C245.109 77.7573 244.744 77.8187 244.392 77.936C244.045 78.0533 243.76 78.216 243.536 78.424C243.312 78.6373 243.2 78.8853 243.2 79.168C243.2 79.3227 243.235 79.472 243.304 79.616C243.373 79.76 243.488 79.888 243.648 80C243.813 80.112 244.032 80.2 244.304 80.264C244.576 80.328 244.912 80.36 245.312 80.36ZM245.08 74.496C245.299 74.448 245.533 74.3893 245.784 74.32C246.035 74.2453 246.269 74.1413 246.488 74.008C246.712 73.8747 246.893 73.696 247.032 73.472C247.171 73.2427 247.24 72.952 247.24 72.6C247.24 72.1733 247.128 71.8293 246.904 71.568C246.685 71.3067 246.419 71.1147 246.104 70.992C245.789 70.8693 245.488 70.808 245.2 70.808C244.832 70.808 244.493 70.872 244.184 71C243.875 71.1227 243.624 71.312 243.432 71.568C243.24 71.8187 243.144 72.1413 243.144 72.536C243.144 72.936 243.237 73.272 243.424 73.544C243.616 73.816 243.859 74.032 244.152 74.192C244.451 74.3467 244.76 74.448 245.08 74.496ZM254.773 78.16C253.845 78.16 253.077 77.9813 252.469 77.624C251.866 77.2613 251.415 76.7653 251.117 76.136C250.823 75.5067 250.677 74.7893 250.677 73.984C250.677 73.1893 250.823 72.4853 251.117 71.872C251.415 71.2533 251.834 70.7707 252.373 70.424C252.917 70.072 253.559 69.896 254.301 69.896C254.951 69.896 255.514 70.0293 255.989 70.296C256.469 70.5573 256.837 70.9387 257.093 71.44C257.349 71.9413 257.477 72.552 257.477 73.272C257.477 73.464 257.471 73.64 257.461 73.8C257.455 73.9547 257.439 74.1093 257.413 74.264L256.501 73.736C256.511 73.6507 256.517 73.568 256.517 73.488C256.522 73.408 256.525 73.3307 256.525 73.256C256.525 72.424 256.322 71.8027 255.917 71.392C255.511 70.976 254.978 70.768 254.317 70.768C253.773 70.768 253.306 70.9013 252.917 71.168C252.533 71.4347 252.237 71.8027 252.029 72.272C251.826 72.7413 251.725 73.2773 251.725 73.88V74.016C251.725 74.6773 251.837 75.248 252.061 75.728C252.29 76.208 252.634 76.5787 253.093 76.84C253.557 77.1013 254.143 77.232 254.853 77.232C255.114 77.232 255.383 77.2107 255.661 77.168C255.938 77.1253 256.213 77.0613 256.485 76.976C256.757 76.8907 257.018 76.7787 257.269 76.64L257.325 77.608C257.122 77.72 256.887 77.8187 256.621 77.904C256.354 77.984 256.063 78.0453 255.749 78.088C255.434 78.136 255.109 78.16 254.773 78.16ZM251.133 74.264V73.488L256.757 73.456L257.413 73.672V74.264H251.133ZM259.73 78C259.73 77.408 259.73 76.8373 259.73 76.288C259.73 75.7387 259.73 75.1387 259.73 74.488V73.688C259.73 73.1067 259.73 72.5093 259.73 71.896C259.73 71.2827 259.73 70.6747 259.73 70.072L260.65 70.008L260.682 71.672H260.794C261.013 71.1707 261.269 70.792 261.562 70.536C261.861 70.28 262.159 70.1093 262.458 70.024C262.762 69.9387 263.039 69.896 263.29 69.896C263.445 69.896 263.594 69.9067 263.738 69.928C263.887 69.9493 264.029 69.984 264.162 70.032L264.074 71.088C263.909 71.0453 263.757 71.0133 263.618 70.992C263.479 70.9653 263.317 70.952 263.13 70.952C262.981 70.952 262.802 70.976 262.594 71.024C262.386 71.072 262.17 71.1733 261.946 71.328C261.727 71.4827 261.514 71.7147 261.306 72.024C261.103 72.3333 260.922 72.7493 260.762 73.272V74.528C260.762 75.1573 260.762 75.7467 260.762 76.296C260.762 76.84 260.762 77.408 260.762 78H259.73ZM267.734 78.16C267.249 78.16 266.827 78.0693 266.47 77.888C266.113 77.7013 265.835 77.44 265.638 77.104C265.441 76.7627 265.342 76.36 265.342 75.896C265.342 75.4693 265.419 75.112 265.574 74.824C265.729 74.536 265.931 74.3013 266.182 74.12C266.438 73.9333 266.715 73.7893 267.014 73.688C267.313 73.5813 267.609 73.5013 267.902 73.448L270.494 72.968C270.515 72.36 270.438 71.904 270.262 71.6C270.091 71.2907 269.854 71.0853 269.55 70.984C269.246 70.8773 268.91 70.824 268.542 70.824C268.361 70.824 268.166 70.8373 267.958 70.864C267.75 70.8853 267.531 70.9227 267.302 70.976C267.073 71.0293 266.827 71.0987 266.566 71.184C266.31 71.2693 266.038 71.3733 265.75 71.496L265.686 70.52C265.878 70.44 266.091 70.3627 266.326 70.288C266.566 70.2133 266.819 70.1467 267.086 70.088C267.353 70.0293 267.625 69.984 267.902 69.952C268.185 69.9147 268.459 69.896 268.726 69.896C269.297 69.896 269.787 69.9893 270.198 70.176C270.614 70.3573 270.931 70.648 271.15 71.048C271.374 71.448 271.486 71.9627 271.486 72.592C271.486 72.8427 271.486 73.1573 271.486 73.536C271.486 73.9147 271.486 74.2773 271.486 74.624V75.704C271.486 76.056 271.486 76.4187 271.486 76.792C271.486 77.16 271.486 77.5627 271.486 78H270.542L270.502 76.824H270.374C270.209 77.048 269.993 77.264 269.726 77.472C269.465 77.6747 269.163 77.84 268.822 77.968C268.486 78.096 268.123 78.16 267.734 78.16ZM267.99 77.264C268.294 77.264 268.601 77.2053 268.91 77.088C269.219 76.9653 269.507 76.7787 269.774 76.528C270.046 76.2773 270.275 75.96 270.462 75.576L270.47 73.64C270.379 73.688 270.259 73.7387 270.11 73.792C269.961 73.84 269.737 73.8987 269.438 73.968C269.139 74.032 268.721 74.1147 268.182 74.216C267.846 74.2747 267.542 74.368 267.27 74.496C267.003 74.624 266.79 74.8 266.63 75.024C266.47 75.2427 266.39 75.52 266.39 75.856C266.39 76.368 266.542 76.7307 266.846 76.944C267.155 77.1573 267.537 77.264 267.99 77.264ZM280.189 78.168C279.677 78.168 279.245 78.0747 278.893 77.888C278.541 77.7013 278.274 77.4213 278.093 77.048C277.911 76.6747 277.821 76.2053 277.821 75.64C277.821 75.144 277.821 74.656 277.821 74.176C277.821 73.6907 277.821 73.224 277.821 72.776C277.821 72.328 277.821 71.904 277.821 71.504C277.821 71.104 277.821 70.7387 277.821 70.408C277.821 69.88 277.821 69.3867 277.821 68.928C277.821 68.4693 277.821 67.9947 277.821 67.504L278.845 67.256C278.845 67.6453 278.845 68.0027 278.845 68.328C278.845 68.6533 278.845 68.9813 278.845 69.312C278.845 69.6373 278.845 70.0027 278.845 70.408V75.44C278.845 76.0427 278.973 76.4933 279.229 76.792C279.485 77.0907 279.879 77.24 280.413 77.24C280.621 77.24 280.845 77.2053 281.085 77.136C281.325 77.0613 281.535 76.952 281.717 76.808L281.829 77.752C281.722 77.832 281.583 77.904 281.413 77.968C281.247 78.0267 281.058 78.0747 280.845 78.112C280.637 78.1493 280.418 78.168 280.189 78.168ZM276.229 70.92V70.072H281.733V70.92C281.194 70.92 280.647 70.92 280.093 70.92C279.538 70.92 278.999 70.92 278.477 70.92H278.077H276.229ZM283.809 78C283.809 77.408 283.809 76.8373 283.809 76.288C283.809 75.7387 283.809 75.1387 283.809 74.488V73.688C283.809 73.2293 283.809 72.8 283.809 72.4C283.809 72 283.809 71.6107 283.809 71.232C283.809 70.8533 283.809 70.4667 283.809 70.072L284.833 70.04C284.833 70.4347 284.833 70.824 284.833 71.208C284.833 71.5867 284.833 71.9787 284.833 72.384C284.833 72.784 284.833 73.2187 284.833 73.688V74.488C284.833 75.1387 284.833 75.7387 284.833 76.288C284.833 76.8373 284.833 77.408 284.833 78H283.809ZM284.289 68.08C284.043 68.08 283.841 68.008 283.681 67.864C283.526 67.72 283.449 67.4987 283.449 67.2C283.449 66.9067 283.526 66.688 283.681 66.544C283.841 66.3947 284.049 66.32 284.305 66.32C284.561 66.32 284.766 66.3973 284.921 66.552C285.075 66.7013 285.153 66.9173 285.153 67.2C285.153 67.4987 285.075 67.72 284.921 67.864C284.766 68.008 284.555 68.08 284.289 68.08ZM291.48 78.168C291.107 78.168 290.763 78.1173 290.448 78.016C290.133 77.92 289.845 77.7787 289.584 77.592C289.323 77.4053 289.085 77.1813 288.872 76.92H288.752L288.68 78H287.808C287.808 77.408 287.808 76.8373 287.808 76.288C287.808 75.7387 287.808 75.1387 287.808 74.488V70.096C287.808 69.424 287.808 68.7707 287.808 68.136C287.808 67.5013 287.808 66.888 287.808 66.296L288.84 66.144C288.84 66.7947 288.84 67.4427 288.84 68.088C288.84 68.728 288.84 69.3973 288.84 70.096V70.976H288.96C289.115 70.7947 289.315 70.6213 289.56 70.456C289.805 70.2853 290.085 70.1493 290.4 70.048C290.72 69.9467 291.069 69.896 291.448 69.896C292.179 69.896 292.803 70.0747 293.32 70.432C293.837 70.7893 294.232 71.28 294.504 71.904C294.781 72.5227 294.92 73.224 294.92 74.008C294.92 74.7493 294.792 75.4373 294.536 76.072C294.28 76.7013 293.896 77.208 293.384 77.592C292.877 77.976 292.243 78.168 291.48 78.168ZM291.216 77.216C291.835 77.216 292.339 77.064 292.728 76.76C293.117 76.456 293.403 76.0613 293.584 75.576C293.771 75.0907 293.864 74.5707 293.864 74.016C293.864 73.4347 293.765 72.9067 293.568 72.432C293.376 71.952 293.083 71.5707 292.688 71.288C292.293 71 291.795 70.856 291.192 70.856C290.883 70.856 290.584 70.9013 290.296 70.992C290.008 71.0827 289.739 71.2187 289.488 71.4C289.237 71.576 289.021 71.7973 288.84 72.064V75.808C289.016 76.1013 289.219 76.352 289.448 76.56C289.683 76.768 289.947 76.9307 290.24 77.048C290.533 77.16 290.859 77.216 291.216 77.216ZM299.109 78.16C298.624 78.16 298.202 78.0693 297.845 77.888C297.488 77.7013 297.21 77.44 297.013 77.104C296.816 76.7627 296.717 76.36 296.717 75.896C296.717 75.4693 296.794 75.112 296.949 74.824C297.104 74.536 297.306 74.3013 297.557 74.12C297.813 73.9333 298.09 73.7893 298.389 73.688C298.688 73.5813 298.984 73.5013 299.277 73.448L301.869 72.968C301.89 72.36 301.813 71.904 301.637 71.6C301.466 71.2907 301.229 71.0853 300.925 70.984C300.621 70.8773 300.285 70.824 299.917 70.824C299.736 70.824 299.541 70.8373 299.333 70.864C299.125 70.8853 298.906 70.9227 298.677 70.976C298.448 71.0293 298.202 71.0987 297.941 71.184C297.685 71.2693 297.413 71.3733 297.125 71.496L297.061 70.52C297.253 70.44 297.466 70.3627 297.701 70.288C297.941 70.2133 298.194 70.1467 298.461 70.088C298.728 70.0293 299 69.984 299.277 69.952C299.56 69.9147 299.834 69.896 300.101 69.896C300.672 69.896 301.162 69.9893 301.573 70.176C301.989 70.3573 302.306 70.648 302.525 71.048C302.749 71.448 302.861 71.9627 302.861 72.592C302.861 72.8427 302.861 73.1573 302.861 73.536C302.861 73.9147 302.861 74.2773 302.861 74.624V75.704C302.861 76.056 302.861 76.4187 302.861 76.792C302.861 77.16 302.861 77.5627 302.861 78H301.917L301.877 76.824H301.749C301.584 77.048 301.368 77.264 301.101 77.472C300.84 77.6747 300.538 77.84 300.197 77.968C299.861 78.096 299.498 78.16 299.109 78.16ZM299.365 77.264C299.669 77.264 299.976 77.2053 300.285 77.088C300.594 76.9653 300.882 76.7787 301.149 76.528C301.421 76.2773 301.65 75.96 301.837 75.576L301.845 73.64C301.754 73.688 301.634 73.7387 301.485 73.792C301.336 73.84 301.112 73.8987 300.813 73.968C300.514 74.032 300.096 74.1147 299.557 74.216C299.221 74.2747 298.917 74.368 298.645 74.496C298.378 74.624 298.165 74.8 298.005 75.024C297.845 75.2427 297.765 75.52 297.765 75.856C297.765 76.368 297.917 76.7307 298.221 76.944C298.53 77.1573 298.912 77.264 299.365 77.264ZM305.949 78.168C305.762 78.168 305.597 78.128 305.453 78.048C305.309 77.968 305.2 77.8587 305.125 77.72C305.05 77.5813 305.013 77.4187 305.013 77.232C305.013 76.944 305.098 76.72 305.269 76.56C305.44 76.3947 305.669 76.312 305.957 76.312C306.149 76.312 306.314 76.3493 306.453 76.424C306.597 76.4987 306.706 76.6053 306.781 76.744C306.856 76.8773 306.893 77.04 306.893 77.232C306.893 77.5093 306.81 77.736 306.645 77.912C306.48 78.0827 306.248 78.168 305.949 78.168Z" fill="#805F42"/>
<defs>
<filter id="filter0_d_581_9" x="144.023" y="6.58203" width="134.129" height="28.0273" filterUnits="userSpaceOnUse" color-interpolation-filters="sRGB">
<feFlood flood-opacity="0" result="BackgroundImageFix"/>
<feColorMatrix in="SourceAlpha" type="matrix" values="0 0 0 0 0 0 0 0 0 0 0 0 0 0 0 0 0 0 127 0" result="hardAlpha"/>
<feOffset dy="4"/>
<feGaussianBlur stdDeviation="2"/>
<feComposite in2="hardAlpha" operator="out"/>
<feColorMatrix type="matrix" values="0 0 0 0 0 0 0 0 0 0 0 0 0 0 0 0 0 0 0.25 0"/>
<feBlend mode="normal" in2="BackgroundImageFix" result="effect1_dropShadow_581_9"/>
<feBlend mode="normal" in="SourceGraphic" in2="effect1_dropShadow_581_9" result="shape"/>
</filter>
</defs>
</svg>
