<svg width="428" height="150" viewBox="0 0 428 150" fill="none" xmlns="http://www.w3.org/2000/svg">
<g filter="url(#filter0_d_646_10)">
<path d="M213.004 9.57287C213.882 11.6963 213.645 13.7859 212.7 15.8082C212.463 16.3475 211.957 16.4823 211.383 16.1115C209.222 14.7297 207.06 13.3141 204.865 11.9659C204.055 11.4603 203.109 11.1233 202.197 10.8199C200.779 10.3144 199.395 9.7414 198.179 8.79767C197.605 8.35951 196.828 8.12358 196.153 7.88765C195.477 7.65172 194.903 7.95506 194.633 8.69656C193.924 10.8199 193.147 12.9433 192.978 15.2352C192.843 17.1564 192.708 19.1112 192.404 20.9987C192.067 23.1558 192.303 25.2792 192.708 27.4026C192.776 27.807 192.843 28.2452 192.877 28.6833C192.911 28.953 192.506 29.2226 192.202 29.1552C190.243 28.7507 188.622 27.7059 187.17 26.3914C186.832 26.0881 186.731 25.5825 187.001 25.2118C187.947 24.0658 188.352 22.785 188.251 21.3357C188.217 20.628 187.913 20.1898 187.17 19.8865C186.765 19.7516 186.359 19.5831 185.954 19.5157C184.806 19.2798 183.725 19.8527 183.421 20.9987C183.05 22.3806 183.286 23.7625 183.32 25.1444C183.32 25.414 183.59 25.7173 183.827 25.9533C185.042 27.1666 186.258 28.3463 187.71 29.3237C188.149 29.6271 188.554 29.9978 188.926 30.3686C189.027 30.4697 188.96 30.7393 188.926 30.9078C188.926 30.9752 188.791 31.0763 188.69 31.0763C188.386 31.1101 188.048 31.1775 187.744 31.1438C185.414 30.773 183.05 30.5034 180.99 29.1552C180.247 28.6833 179.369 28.4811 178.559 28.9867C177.849 29.4248 177.546 30.5034 177.985 31.6156C179.099 34.5142 180.247 37.4128 181.463 40.2777C181.868 41.2551 182.543 42.1651 183.185 43.0077C183.692 43.6818 184.367 44.2548 185.042 44.7941C185.887 45.4345 186.832 45.9737 187.71 46.6141C188.791 47.3893 189.973 47.9286 191.29 47.8949C192.945 47.8612 194.464 48.4005 196.051 48.6364C196.963 48.8049 197.672 49.2431 198.213 49.8835C198.854 50.625 199.428 51.4002 200.036 52.1417C200.306 52.4787 200.576 52.8157 200.88 53.1191C202.501 54.7369 204.629 55.5795 206.621 56.6244C207.702 57.1973 208.884 57.2984 210.066 57.2647C211.889 57.231 213.747 57.3321 215.537 57.0962C219.454 56.5232 223.067 55.2425 225.769 52.108C225.971 51.872 226.174 51.6024 226.377 51.3665C226.883 50.7598 227.525 50.3553 228.335 50.4227C229.348 50.4901 230.226 50.1868 231.071 49.6812C232.455 48.8723 233.975 48.2993 235.326 47.3556C235.933 46.9175 236.676 46.6815 237.386 46.4456C239.31 45.7715 241.168 44.8952 242.958 43.884C244.714 42.9066 246.064 41.5921 247.145 39.9406C248.969 37.2443 249.61 35.7276 250.252 32.593C250.522 31.3123 250.488 30.0315 250.151 28.7507C249.745 27.2003 249.475 25.5825 249.104 24.0321C248.8 22.7513 248.732 21.4706 249.273 20.2235C249.441 19.819 249.576 19.4146 249.576 18.9764C249.576 18.572 249.543 18.1338 249.374 17.7631C249.239 17.426 248.395 17.3586 247.888 17.5271C247.246 17.7294 246.74 18.1001 246.368 18.6731C245.592 19.8527 244.612 20.8639 243.363 21.538C241.505 23.6276 238.871 23.9647 236.406 24.5714C236.204 24.6051 235.967 24.5714 235.765 24.5714C235.461 24.5714 235.157 24.2006 235.258 23.8973C235.292 23.6951 235.326 23.4591 235.393 23.2569C236.305 21.538 236.204 19.7516 235.765 17.9316C234.853 14.0556 233.941 10.1796 233.029 6.30353C232.996 6.10131 232.86 5.89908 232.759 5.73056C232.523 5.19129 231.678 4.82054 231.104 5.09017C230.53 5.35981 229.922 5.66315 229.483 6.10131C228.707 6.87651 227.761 7.38208 226.782 7.82024C225.127 8.59544 223.439 9.30324 221.818 10.1121C220.973 10.5503 220.163 11.1233 219.42 11.73C218.576 12.4715 217.664 12.977 216.583 13.213C216.448 13.213 216.111 13.0444 216.077 12.9433C215.942 12.1007 215.874 11.2244 215.807 10.3818C215.705 9.30324 215.435 8.2584 214.861 7.31467C214.557 6.8091 213.848 6.53947 213.173 6.70799C212.767 6.8091 212.362 7.28097 212.43 7.65172C212.565 8.2921 212.734 8.89878 212.869 9.50546L213.004 9.57287ZM203.717 22.6165C203.548 21.875 203.346 21.1672 203.177 20.4257C202.94 19.3135 202.299 18.4709 201.488 17.7631C200.948 17.3249 200.306 17.2238 199.665 17.4934C196.929 18.7068 196.49 22.3469 198.55 23.8636C199.428 24.5377 200.104 25.3129 200.509 26.3577C200.712 26.897 201.151 27.234 201.758 27.1666C202.704 27.0992 203.379 27.5037 203.92 28.2789C204.561 29.1552 205.27 29.9304 205.946 30.773C207.364 32.5256 208.816 34.2783 210.201 36.0309C210.404 36.2668 210.505 36.6039 210.64 36.8735C210.674 36.9409 210.64 37.1094 210.606 37.1769C210.471 37.278 210.201 37.4802 210.1 37.4128C208.816 36.6376 207.533 35.8624 206.317 34.9524C204.831 33.8401 203.244 32.9638 201.488 32.4919C200.745 32.2897 200.07 31.9864 199.597 31.346C199.428 31.11 199.091 30.9415 198.82 30.8404C196.389 30.1326 195.545 28.2789 195.207 26.0207C194.498 21.4706 195.106 17.0216 196.254 12.64C196.558 11.4266 197.064 11.2244 198.111 11.6963C198.888 12.067 199.631 12.5052 200.475 12.7411C203.514 13.6511 206.013 15.5049 208.58 17.2912C210.843 18.909 211.585 21.1672 211.754 23.6614C211.957 26.5599 211.822 29.4585 211.822 32.3571C211.822 32.5256 211.653 32.7279 211.552 32.8964C211.417 33.0986 210.91 32.9975 210.707 32.6942C209.424 30.8067 207.736 29.29 206.216 27.6385C204.933 26.2229 204.1 24.5377 203.717 22.5828L203.717 22.6165ZM233.131 14.4263C233.435 16.0104 233.637 17.1564 233.84 18.336C234.177 19.9876 233.772 21.538 233.097 23.021C232.59 24.1669 231.746 25.0432 230.53 25.2455C229.011 25.5151 227.66 26.1555 226.377 26.9307C225.701 27.3351 224.891 26.9644 224.519 26.1892C224.283 25.6836 224.182 25.1106 224.486 24.6388C225.228 23.4591 226.005 22.2795 226.849 21.1672C227.964 19.6842 228.572 17.9653 229.18 16.2464C229.281 15.9093 228.842 15.3363 228.437 15.37C228.031 15.37 227.525 15.4375 227.255 15.6734C226.883 16.0104 226.613 16.516 226.377 16.9879C224.688 20.6617 222.122 23.6951 219.15 26.3577C218.475 26.9644 218.103 27.6385 217.867 28.5148C217.394 30.1663 216.685 31.7504 216.077 33.3345C216.009 33.5368 215.908 33.739 215.739 33.8738C215.604 34.0086 215.368 34.1097 215.199 34.1097C215.03 34.1097 214.76 33.9075 214.726 33.739C213.713 30.6382 213.375 27.4363 213.375 24.2006C213.375 24.0995 213.375 23.9647 213.443 23.8973C213.645 23.6614 213.814 23.3243 214.084 23.2232C214.355 23.1558 214.76 23.2569 214.962 23.4591C215.334 23.7962 215.604 24.3017 215.942 24.6725C216.212 24.9421 216.955 24.7736 217.056 24.4366C217.326 23.6277 217.495 22.785 217.799 21.9761C218.171 20.9313 218.373 19.8865 218.035 18.8079C217.529 17.1227 218.171 15.8756 219.42 14.7971C220.062 14.2241 220.737 13.6848 221.446 13.213C223.337 11.9659 225.465 11.157 227.559 10.2807C228.335 9.94362 229.146 9.64028 229.99 9.37064C230.463 9.20212 231.172 9.47176 231.375 9.94362C232.05 11.5277 232.692 13.1118 233.164 14.3252L233.131 14.4263ZM227.39 41.0529C227.829 40.9855 228.234 40.8844 228.673 40.8169C229.686 40.6484 230.463 40.1091 231.104 39.3339C231.442 38.9295 231.746 38.4576 232.05 38.0195C232.86 36.8735 233.671 35.7276 234.92 35.0198C235.022 34.9861 235.089 34.8849 235.123 34.7838C235.191 34.5816 235.359 34.312 235.258 34.2109C235.089 33.9749 234.819 33.6716 234.549 33.6379C234.144 33.6379 233.671 33.7053 233.333 33.9075C232.388 34.4468 231.645 35.222 230.969 36.0983C230.429 36.7724 229.889 37.4465 229.281 38.0532C228.977 38.3228 228.538 38.6262 228.166 38.6262C227.221 38.6936 226.242 38.6261 225.262 38.5587C225.195 38.5587 225.127 38.3902 225.127 38.3228C225.127 38.2217 225.127 38.0869 225.195 38.0195C226.275 37.1432 227.39 36.3005 228.47 35.3905C229.044 34.9187 229.585 34.3794 230.091 33.8401C230.53 33.3345 230.665 32.6605 230.497 32.0201C230.429 31.7504 230.159 31.4134 229.922 31.3123C229.551 31.1775 229.044 31.1438 228.707 31.2786C227.694 31.683 227.086 32.6267 226.242 33.3008C226.073 33.4357 225.634 33.3008 225.364 33.1997C225.296 33.1997 225.262 32.7616 225.364 32.593C225.836 31.7504 226.309 30.9078 226.816 30.0989C227.862 28.4137 229.416 27.6385 231.375 27.4363C233.84 27.2003 236.305 26.8633 238.77 26.5936C239.648 26.4925 240.459 26.2566 241.235 25.8521C241.708 25.5825 242.215 25.414 242.721 25.2118C242.89 25.1443 243.194 25.1781 243.329 25.2792C243.464 25.3803 243.532 25.6836 243.464 25.8521C242.755 28.4474 241.674 30.9078 240.29 33.2334C238.635 35.9972 236.474 38.4239 234.616 41.0529C233.705 42.3336 232.624 43.5807 231.239 44.4907C230.8 44.7941 230.361 45.0974 229.855 45.2996C228.943 45.6367 228.031 45.9063 227.086 46.2097C226.714 46.3445 226.106 46.1085 225.971 45.7715C225.6 44.8615 225.228 43.9852 224.925 43.0751C224.621 42.0977 225.06 41.4573 226.14 41.2214C226.545 41.1203 226.984 41.0866 227.423 41.0192L227.39 41.0529ZM183.557 37.5476C183.759 37.5476 184.029 37.5476 184.164 37.6487C186.022 39.2665 188.419 39.6373 190.648 40.3114C192.37 40.8169 194.262 40.8506 196.085 40.7832C197.74 40.7158 199.293 40.8844 200.813 41.5584C201.387 41.8281 202.062 41.8281 202.67 42.0303C203.075 42.1651 203.481 42.3336 203.818 42.5696C203.953 42.6707 204.055 42.9403 204.055 43.1089C204.055 43.2774 203.92 43.547 203.785 43.6144C202.873 43.9515 201.927 44.1874 201.016 44.4907C199.597 44.9963 198.145 45.4008 196.592 45.0974C195.916 44.9626 195.342 45.2659 194.869 45.8052C194.295 46.4793 193.552 46.4456 192.809 46.3108C190.31 45.8052 188.318 44.3222 186.393 42.7718C186.157 42.5696 185.92 42.3336 185.752 42.064C185.009 40.8844 184.266 39.7047 183.557 38.4913C183.455 38.3228 183.455 38.0869 183.421 37.8847C183.421 37.8172 183.523 37.7161 183.557 37.615L183.557 37.5476ZM237.825 44.1874C237.352 44.2885 237.115 44.3896 236.947 44.3559C236.676 44.3222 236.237 44.2548 236.17 44.0526C236.069 43.8166 236.17 43.4122 236.339 43.1763C236.913 42.4011 237.521 41.6596 238.129 40.8844C238.939 39.8732 239.851 38.9295 240.526 37.8509C242.282 35.0198 244.038 32.1886 245.186 29.0204C245.558 28.0092 246.031 27.0318 246.503 26.0881C246.571 25.9533 246.841 25.9196 247.044 25.8858C247.078 25.8858 247.213 26.0207 247.246 26.1218C247.517 27.5037 247.719 28.8855 247.989 30.2337C248.259 31.5145 248.192 32.829 247.82 34.076C247.179 36.3679 246.098 38.4576 244.511 40.3114C242.687 42.4685 240.121 43.3111 237.858 44.1874L237.825 44.1874ZM208.951 41.8281C208.749 41.9966 208.512 42.2999 208.276 42.2999C207.364 42.2999 206.621 41.9292 206.047 41.2214C205.406 40.4462 204.528 40.0417 203.548 39.8732C202.907 39.7721 202.265 39.6373 201.691 39.3676C200.104 38.5924 198.483 38.188 196.693 38.5587C196.22 38.6599 195.646 38.4239 195.106 38.3565C194.565 38.2554 194.059 38.0532 193.519 38.0869C191.628 38.1543 189.973 37.4128 188.284 36.7387C186.934 36.1994 185.853 35.3905 184.84 34.4131C184.772 34.3457 184.738 34.1772 184.772 34.1098C184.874 33.9412 185.076 33.7053 185.177 33.7053C187.643 34.0423 190.108 33.9412 192.539 34.2109C194.565 34.4131 196.558 34.9861 198.618 34.7838C198.82 34.7838 199.057 34.8512 199.259 34.885C203.211 35.7276 206.385 37.8172 208.715 41.1203C208.816 41.2888 208.85 41.5247 208.951 41.7944L208.951 41.8281ZM207.297 45.8726C207.297 45.8726 207.297 45.8052 207.297 45.7715C208.546 45.4682 209.829 45.2322 211.045 44.8615C214.22 43.9178 217.225 44.6593 220.163 45.8726C221.075 46.2434 221.716 47.0186 222.155 47.8949C222.257 48.0971 222.155 48.5353 221.953 48.7375C221.615 49.1757 221.075 49.4116 220.534 49.3105C219.15 49.0745 217.732 48.9397 216.448 48.4342C214.929 47.8275 213.544 47.8949 212.058 48.2993C210.505 48.7038 208.951 49.1757 207.364 49.479C205.271 49.8835 203.278 49.5801 201.691 47.9623C201.556 47.8275 201.522 47.5578 201.59 47.3893C201.623 47.2208 201.826 47.0523 201.995 46.9175C202.164 46.8163 202.4 46.7489 202.603 46.7152C204.19 46.4119 205.777 46.1423 207.364 45.8726L207.297 45.8726ZM210.066 51.6698C211.315 51.3327 212.328 50.8272 213.341 50.8272C215.401 50.8272 217.36 51.3665 219.217 52.2765C219.521 52.4113 219.521 52.8832 219.251 53.0517C218.88 53.2876 218.542 53.5909 218.137 53.6921C215.131 54.5347 212.058 54.838 208.918 54.501C207.803 54.3662 206.858 53.9617 206.013 53.2539C205.845 53.1191 205.676 52.9169 205.676 52.7483C205.676 52.6135 205.946 52.4113 206.149 52.3776C207.499 52.108 208.884 51.9057 210.032 51.7035L210.066 51.6698ZM220.771 32.4919C220.94 32.5593 221.244 32.6267 221.48 32.7953C221.581 32.8627 221.581 33.2334 221.48 33.3345C221.244 33.6716 220.973 33.9749 220.67 34.2446C220.568 34.3457 220.264 34.312 220.129 34.2109C219.994 34.1097 219.859 33.8738 219.859 33.7053C219.825 33.0986 220.095 32.7616 220.805 32.4919L220.771 32.4919Z" fill="#F4DDC0"/>
<path d="M115.51 69.3984C119.428 69.0276 123.345 68.6569 127.262 68.2524C127.499 68.2524 127.769 68.185 128.005 68.0839C130.909 66.8031 134.084 66.365 136.954 64.9157C138.98 63.9045 141.04 62.8597 143.337 62.4215C143.708 62.3541 144.08 62.1856 144.384 62.0171C147.457 60.2307 150.732 58.8152 153.535 56.5907C155.224 55.2762 157.013 54.0291 158.736 52.7146C159.445 52.1754 160.12 51.6024 160.728 50.962C162.653 48.9734 164.578 46.9175 166.503 44.8952C166.773 44.6256 167.043 44.3896 167.347 44.1537C168.09 43.6144 169.171 43.547 169.812 44.1537C170.555 44.8278 171.399 45.4682 171.94 46.3108C173.662 48.9734 177.174 49.2768 179.876 50.4901C184.299 52.445 188.487 55.1077 192.742 57.3996C196.22 59.2533 199.395 58.8826 202.974 60.197C204.832 60.8711 206.689 60.9048 208.58 60.433C209.323 60.2307 210.032 59.9948 210.775 59.8263C211.687 59.5904 212.599 59.7589 213.308 60.3318C214.422 61.1745 215.57 61.916 216.82 62.5563C217.495 62.8934 218.002 63.4664 218.576 63.9719C220.095 65.3538 220.399 66.9379 219.42 68.758C219.116 69.2972 218.947 69.9376 218.61 70.4769C218.339 70.8814 218.002 71.3869 217.563 71.5554C216.009 72.1284 214.456 72.7014 212.869 73.0047C212.058 73.1396 211.113 72.8025 210.302 72.4655C209.12 71.9936 208.04 71.2858 207.195 70.3084C206.655 69.668 205.912 69.4995 205.135 69.5669C200.712 69.9039 196.254 69.5669 191.796 69.9039C188.521 70.1399 185.211 69.8365 181.902 69.8028C180.517 69.8028 179.099 69.668 177.714 69.8702C175.047 70.2073 172.379 70.1736 169.711 70.1062C165.895 70.0387 162.113 70.0387 158.33 70.9151C156.507 71.3532 154.548 71.3869 152.657 71.3532C148.301 71.2858 144.046 71.8925 139.757 72.4992C137.731 72.8025 135.739 72.971 133.679 73.0047C131.652 73.0047 129.626 73.2744 127.6 73.3418C118.178 73.5777 110.749 73.9822 103.32 67.4098C99.2671 63.8371 97.7812 59.4892 98.8281 54.0965C99.436 50.9283 100.989 48.4679 103.083 46.2097C104.637 44.5244 106.561 44.1874 108.655 44.9289C110.344 45.5019 111.931 46.2771 113.586 46.9849C114.531 47.3893 115.342 47.996 116.017 48.7712C116.996 49.8835 117.334 52.3439 115.882 53.6247C115.51 53.9617 115.139 54.3325 114.767 54.6695C113.923 55.411 113.315 56.4558 112.201 56.8603C110.884 57.3322 110.141 56.0851 109.027 55.8829C108.52 55.7818 108.014 55.6806 107.575 55.4447C107.271 55.2762 106.967 54.9054 106.899 54.6021C106.494 52.5798 106.224 50.5913 107.575 48.7712C107.777 48.4679 107.946 48.0634 107.575 47.7601C107.169 47.3893 106.663 47.3556 106.156 47.5579C105.92 47.6253 105.683 47.7601 105.481 47.9286C102.036 51.1642 101.091 55.2425 101.8 59.7589C102.002 61.0059 102.678 62.1519 103.522 63.0956C104.029 63.6686 104.603 64.1742 105.076 64.7809C107.676 68.185 111.188 69.5669 115.409 69.5669L115.51 69.3984ZM154.278 68.2861C155.696 68.5558 157.25 67.9154 158.837 67.5783C162.552 66.8031 161.944 67.3087 163.599 63.5675C164.004 62.6575 164.274 61.6463 164.578 60.7026C165.625 57.1973 166.638 53.6584 167.617 50.1531C167.617 50.052 167.617 49.8498 167.55 49.8498C167.347 49.816 167.043 49.7149 166.908 49.8498C165.996 50.5238 165.118 51.2316 164.24 51.9731C163.463 52.6135 162.687 53.2876 161.978 53.9954C161.404 54.5684 161.201 55.2425 161.539 56.0851C161.843 56.8266 161.775 57.5681 161.37 58.2759C160.255 60.2644 159.479 62.4215 158.837 64.6123C158.77 64.8483 158.634 65.0842 158.533 65.2864C158.229 65.8594 157.115 66.1627 156.507 65.8594C156.034 65.6235 155.528 64.7134 155.696 64.2753C155.899 63.6686 156.068 63.0619 156.406 62.5226C157.216 61.343 157.588 60.0285 157.925 58.6803C157.959 58.5118 157.756 58.2422 157.621 58.0737C157.554 58.0062 157.351 57.9725 157.25 58.0399C155.528 59.1185 153.805 60.197 152.151 61.3093C151.239 61.9497 150.935 62.9271 151.138 64.0056C151.374 65.2527 151.61 66.4661 151.948 67.6794C152.016 67.9491 152.455 68.185 152.792 68.3198C153.13 68.4209 153.535 68.3535 154.211 68.3872L154.278 68.2861ZM174.641 54.501C174.54 54.0628 174.574 53.2202 174.202 52.6472C173.561 51.7372 172.649 50.9957 171.534 50.625C171.264 50.5575 170.724 50.7598 170.589 50.9957C170.184 51.7709 169.812 52.5798 169.576 53.3887C168.597 57.1636 167.516 60.9385 166.233 64.6123C165.659 66.2638 166.266 66.7357 167.583 67.0053C168.698 67.2413 169.846 67.3087 170.96 66.9716C171.872 66.6683 172.48 66.1627 172.649 65.1516C172.987 63.2978 173.426 61.4441 173.763 59.5904C174.067 57.9725 174.304 56.3547 174.641 54.4336L174.641 54.501ZM179.774 66.8368C180.315 66.8368 180.922 66.8031 181.564 66.7357C182.003 66.7357 182.543 66.1964 182.51 65.7583C182.375 63.8708 182.476 62.0171 182.645 60.1633C182.847 58.0737 181.902 56.5232 179.876 55.7817C179.302 55.5795 178.694 55.411 178.086 55.2762C177.917 55.2762 177.613 55.4784 177.478 55.6469C177.309 55.8155 177.208 56.0851 177.14 56.321C176.735 58.7814 176.364 61.2756 175.958 63.736C175.958 63.8708 175.958 63.9719 175.958 64.1068C175.891 65.2527 176.735 66.3987 177.849 66.6009C178.457 66.702 179.099 66.7694 179.808 66.8368L179.774 66.8368ZM188.926 66.6683C189.905 66.5672 190.783 66.4998 191.661 66.365C191.864 66.365 192.202 66.0953 192.202 65.9268C192.37 64.5786 192.506 63.1967 192.539 61.8149C192.539 61.1408 191.931 60.7026 191.324 60.5004C190.243 60.1633 189.095 60.0959 188.048 59.6578C186.191 58.8826 185.718 59.0174 185.481 61.2756C185.313 62.8597 185.988 64.2079 186.326 65.6572C186.393 65.9268 186.832 66.1964 187.17 66.2975C187.744 66.4998 188.386 66.5672 188.926 66.6683ZM137.123 69.7354C137.359 69.7354 137.63 69.8028 137.866 69.7354C140.433 69.0276 143.1 68.8254 145.701 68.6569C149.888 68.3872 148.976 67.3761 148.74 64.7134C148.672 63.8708 148.132 63.5675 147.457 63.9382C146.005 64.7134 144.519 65.4549 142.898 65.7246C140.872 66.0616 139.183 67.2413 137.258 67.8143C136.819 67.9491 136.481 68.4546 136.178 68.8254C136.11 68.9265 136.245 69.2973 136.414 69.4321C136.583 69.6006 136.887 69.6006 137.123 69.7017L137.123 69.7354ZM198.415 66.2638C199.698 66.1627 200.948 66.0953 202.231 65.9942C203.514 65.9268 204.696 65.4886 205.811 64.8145C205.912 64.7471 205.98 64.6123 206.013 64.5112C206.013 64.4101 206.013 64.2079 205.946 64.2079C203.548 63.8034 201.319 62.8934 199.023 62.2193C195.849 61.3093 195.004 62.2193 195.849 65.3538C195.984 65.8931 196.355 66.2301 196.929 66.2638C197.436 66.2638 197.942 66.2301 198.449 66.1964L198.415 66.2638Z" fill="#F4DDC0"/>
<path d="M312.557 69.3984C308.64 69.0276 304.723 68.6569 300.805 68.2524C300.569 68.2524 300.299 68.185 300.062 68.0839C297.158 66.8031 293.984 66.3649 291.113 64.9157C289.087 63.9045 287.027 62.8597 284.731 62.4215C284.359 62.3541 283.988 62.1856 283.684 62.0171C280.611 60.2307 277.335 58.8151 274.532 56.5906C272.844 55.2762 271.054 54.0291 269.332 52.7146C268.623 52.1754 267.947 51.6024 267.339 50.962C265.415 48.9734 263.49 46.9175 261.565 44.8952C261.295 44.6255 261.024 44.3896 260.721 44.1537C259.978 43.6144 258.897 43.547 258.255 44.1537C257.512 44.8278 256.668 45.4682 256.128 46.3108C254.406 48.9734 250.894 49.2768 248.192 50.4901C243.768 52.445 239.581 55.1076 235.326 57.3996C231.847 59.2533 228.673 58.8826 225.093 60.197C223.236 60.8711 221.379 60.9048 219.488 60.433C218.745 60.2307 218.035 59.9948 217.293 59.8263C216.381 59.5904 215.469 59.7589 214.76 60.3318C213.645 61.1745 212.497 61.916 211.248 62.5563C210.572 62.8934 210.066 63.4664 209.492 63.9719C207.972 65.3538 207.668 66.9379 208.647 68.758C208.951 69.2972 209.12 69.9376 209.458 70.4769C209.728 70.8814 210.066 71.3869 210.505 71.5554C212.058 72.1284 213.612 72.7014 215.199 73.0047C216.009 73.1396 216.955 72.8025 217.765 72.4655C218.947 71.9936 220.028 71.2858 220.872 70.3084C221.412 69.668 222.155 69.4995 222.932 69.5669C227.356 69.9039 231.814 69.5669 236.271 69.9039C239.547 70.1399 242.856 69.8365 246.166 69.8028C247.55 69.8028 248.969 69.668 250.353 69.8702C253.021 70.2073 255.689 70.1736 258.357 70.1061C262.173 70.0387 265.955 70.0387 269.737 70.9151C271.561 71.3532 273.519 71.3869 275.41 71.3532C279.767 71.2858 284.022 71.8925 288.31 72.4992C290.337 72.8025 292.329 72.971 294.389 73.0047C296.415 73.0047 298.441 73.2744 300.468 73.3418C309.889 73.5777 317.319 73.9822 324.748 67.4098C328.8 63.8371 330.286 59.4892 329.239 54.0965C328.632 50.9283 327.078 48.4679 324.984 46.2097C323.431 44.5244 321.506 44.1874 319.412 44.9289C317.724 45.5019 316.137 46.2771 314.482 46.9849C313.536 47.3893 312.726 47.996 312.051 48.7712C311.071 49.8834 310.734 52.3439 312.186 53.6246C312.557 53.9617 312.929 54.3324 313.3 54.6695C314.144 55.411 314.752 56.4558 315.867 56.8603C317.184 57.3321 317.927 56.0851 319.041 55.8828C319.547 55.7817 320.054 55.6806 320.493 55.4447C320.797 55.2762 321.101 54.9054 321.168 54.6021C321.574 52.5798 321.844 50.5912 320.493 48.7712C320.29 48.4679 320.122 48.0634 320.493 47.7601C320.898 47.3893 321.405 47.3556 321.911 47.5578C322.148 47.6252 322.384 47.7601 322.587 47.9286C326.031 51.1642 326.977 55.2425 326.268 59.7589C326.065 61.0059 325.39 62.1519 324.545 63.0956C324.039 63.6686 323.465 64.1742 322.992 64.7808C320.392 68.185 316.88 69.5669 312.658 69.5669L312.557 69.3984ZM273.789 68.2861C272.371 68.5557 270.818 67.9154 269.231 67.5783C265.516 66.8031 266.124 67.3087 264.469 63.5675C264.064 62.6575 263.794 61.6463 263.49 60.7026C262.443 57.1973 261.43 53.6584 260.45 50.1531C260.45 50.052 260.45 49.8497 260.518 49.8497C260.721 49.816 261.024 49.7149 261.16 49.8497C262.071 50.5238 262.949 51.2316 263.827 51.9731C264.604 52.6135 265.381 53.2876 266.09 53.9954C266.664 54.5684 266.867 55.2425 266.529 56.0851C266.225 56.8266 266.293 57.5681 266.698 58.2759C267.812 60.2644 268.589 62.4215 269.231 64.6123C269.298 64.8482 269.433 65.0842 269.534 65.2864C269.838 65.8594 270.953 66.1627 271.561 65.8594C272.033 65.6234 272.54 64.7134 272.371 64.2753C272.168 63.6686 272 63.0619 271.662 62.5226C270.851 61.343 270.48 60.0285 270.142 58.6803C270.109 58.5118 270.311 58.2422 270.446 58.0736C270.514 58.0062 270.716 57.9725 270.818 58.0399C272.54 59.1185 274.262 60.197 275.917 61.3093C276.829 61.9497 277.133 62.9271 276.93 64.0056C276.694 65.2527 276.457 66.4661 276.12 67.6794C276.052 67.9491 275.613 68.185 275.275 68.3198C274.938 68.4209 274.532 68.3535 273.857 68.3872L273.789 68.2861ZM253.426 54.501C253.528 54.0628 253.494 53.2202 253.865 52.6472C254.507 51.7372 255.419 50.9957 256.533 50.6249C256.803 50.5575 257.344 50.7598 257.479 50.9957C257.884 51.7709 258.255 52.5798 258.492 53.3887C259.471 57.1636 260.552 60.9385 261.835 64.6123C262.409 66.2638 261.801 66.7357 260.484 67.0053C259.37 67.2413 258.255 67.3087 257.107 66.9716C256.195 66.6683 255.588 66.1627 255.419 65.1516C255.081 63.2978 254.642 61.4441 254.304 59.5903C254 57.9725 253.764 56.3547 253.426 54.4336L253.426 54.501ZM248.293 66.8368C247.753 66.8368 247.145 66.8031 246.503 66.7357C246.064 66.7357 245.524 66.1964 245.558 65.7583C245.693 63.8708 245.592 62.0171 245.423 60.1633C245.22 58.0736 246.166 56.5232 248.192 55.7817C248.766 55.5795 249.374 55.411 249.982 55.2762C250.151 55.2762 250.454 55.4784 250.59 55.6469C250.758 55.8154 250.86 56.0851 250.927 56.321C251.333 58.7814 251.704 61.2756 252.109 63.736C252.109 63.8708 252.109 63.9719 252.109 64.1068C252.177 65.2527 251.333 66.3987 250.218 66.6009C249.61 66.702 248.969 66.7694 248.259 66.8368L248.293 66.8368ZM239.142 66.6683C238.162 66.5672 237.284 66.4998 236.406 66.365C236.204 66.365 235.866 66.0953 235.866 65.9268C235.697 64.5786 235.562 63.1967 235.528 61.8148C235.528 61.1408 236.136 60.7026 236.744 60.5004C237.825 60.1633 238.973 60.0959 240.02 59.6578C241.877 58.8825 242.35 59.0174 242.586 61.2756C242.755 62.8597 242.08 64.2079 241.742 65.6572C241.674 65.9268 241.235 66.1964 240.898 66.2975C240.324 66.4998 239.682 66.5672 239.142 66.6683ZM290.944 69.7354C290.708 69.7354 290.438 69.8028 290.202 69.7354C287.635 69.0276 284.967 68.8254 282.367 68.6569C278.179 68.3872 279.091 67.3761 279.328 64.7134C279.395 63.8708 279.936 63.5675 280.611 63.9382C282.063 64.7134 283.549 65.4549 285.17 65.7246C287.196 66.0616 288.885 67.2413 290.809 67.8142C291.248 67.9491 291.586 68.4546 291.89 68.8254C291.958 68.9265 291.822 69.2972 291.654 69.4321C291.485 69.6006 291.181 69.6006 290.944 69.7017L290.944 69.7354ZM229.652 66.2638C228.369 66.1627 227.12 66.0953 225.836 65.9942C224.553 65.9268 223.371 65.4886 222.257 64.8145C222.155 64.7471 222.088 64.6123 222.054 64.5112C222.054 64.4101 222.054 64.2079 222.122 64.2079C224.519 63.8034 226.748 62.8934 229.044 62.2193C232.219 61.3093 233.063 62.2193 232.219 65.3538C232.084 65.8931 231.712 66.2301 231.138 66.2638C230.632 66.2638 230.125 66.2301 229.619 66.1964L229.652 66.2638Z" fill="#F4DDC0"/>
<path d="M337.648 64.6797C340.789 63.0282 344.199 62.8934 347.61 62.8934C348.117 62.8934 348.59 63.0956 349.096 63.1967C349.873 63.3989 350.21 63.7697 350.177 64.5112C350.177 65.0168 350.075 65.5223 350.075 66.0279C350.075 67.275 350.751 68.185 351.73 68.8591C352.372 69.2972 353.115 69.4995 353.891 69.3309C356.053 68.9265 356.931 68.0165 357.268 65.8257C357.64 63.6349 357.1 62.3878 355.141 61.5115C354.128 61.0396 352.98 60.8374 351.865 60.6015C350.616 60.3318 349.366 60.2307 348.117 59.9611C347.137 59.7589 346.833 59.1185 347.273 58.3096C348.623 55.8491 350.278 53.6583 352.777 52.1753C354.499 51.1642 354.803 51.0631 355.749 52.7483C356.559 54.1976 357.775 54.9728 359.193 55.5795C360.645 56.1862 361.861 55.748 362.705 54.3324C363.279 53.355 363.887 52.3776 363.989 51.1979C364.09 49.9846 363.516 48.8723 362.401 48.4342C360.24 47.5578 358.079 46.9849 355.749 47.7601C355.377 47.8949 354.972 47.8949 354.668 48.0971C352.709 49.2768 350.751 50.4564 348.86 51.7035C347.576 52.5461 346.698 53.8269 345.82 55.0739C344.875 56.4221 343.76 57.6692 342.038 58.0736C341.836 58.141 341.464 58.0736 341.363 57.9725C341.228 57.8377 341.261 57.5007 341.329 57.2647C341.498 56.7929 341.7 56.321 341.971 55.8828C342.68 54.7369 342.882 53.5572 342.68 52.2428C342.511 51.2316 342.477 50.2205 342.41 49.2094C342.342 48.1982 342.747 47.6927 343.659 47.7938C344.706 47.8949 345.685 47.9623 346.53 47.2208C347.408 46.4456 347.982 45.4682 348.218 44.3222C348.421 43.4459 348.522 42.5696 348.59 41.6932C348.725 40.1428 347.914 39.0643 346.361 38.6261C343.592 37.8172 341.329 38.6935 339.505 40.7158C338.492 41.8281 338.188 43.1425 338.999 44.5581C339.303 45.0974 339.641 45.6704 339.877 46.2434C340.08 46.7152 340.316 47.2208 340.316 47.6927C340.248 51.1305 339.978 54.4673 337.614 57.3321C335.892 59.3881 334.237 61.4104 331.705 62.5226C331.029 62.826 330.624 63.5675 330.793 64.0056C331.029 64.646 331.434 65.1179 332.076 65.3201C333.427 65.7583 334.811 65.8594 336.162 65.2864C336.635 65.0842 337.108 64.8819 337.547 64.6797L337.648 64.6797Z" fill="#F4DDC0"/>
<path d="M90.3519 64.6797C87.2113 63.0282 83.8006 62.8934 80.3898 62.8934C79.8833 62.8934 79.4105 63.0956 78.904 63.1967C78.1272 63.399 77.7896 63.7697 77.8233 64.5112C77.8233 65.0168 77.9246 65.5224 77.9246 66.0279C77.9246 67.275 77.2492 68.185 76.2699 68.8591C75.6283 69.2973 74.8853 69.4995 74.1086 69.331C71.9474 68.9265 71.0693 68.0165 70.7316 65.8257C70.3602 63.6349 70.9005 62.3878 72.8592 61.5115C73.8723 61.0397 75.0204 60.8374 76.1348 60.6015C77.3843 60.3319 78.6338 60.2307 79.8833 59.9611C80.8626 59.7589 81.1665 59.1185 80.7275 58.3096C79.3767 55.8492 77.722 53.6584 75.223 52.1754C73.5008 51.1642 73.1969 51.0631 72.2513 52.7483C71.4408 54.1976 70.2251 54.9728 68.8068 55.5795C67.3547 56.1862 66.1389 55.7481 65.2947 54.3325C64.7206 53.355 64.1128 52.3776 64.0115 51.1979C63.9102 49.9846 64.4842 48.8723 65.5986 48.4342C67.7599 47.5579 69.9212 46.9849 72.2513 47.7601C72.6228 47.8949 73.028 47.8949 73.3319 48.0971C75.2906 49.2768 77.2492 50.4564 79.1403 51.7035C80.4236 52.5461 81.3016 53.8269 82.1796 55.074C83.1252 56.4221 84.2396 57.6692 85.9618 58.0737C86.1644 58.1411 86.5359 58.0737 86.6372 57.9725C86.7723 57.8377 86.7385 57.5007 86.671 57.2648C86.5021 56.7929 86.2995 56.321 86.0294 55.8829C85.3202 54.7369 85.1176 53.5573 85.3202 52.2428C85.489 51.2316 85.5228 50.2205 85.5904 49.2094C85.6579 48.1982 85.2527 47.6927 84.3409 47.7938C83.294 47.8949 82.3147 47.9623 81.4704 47.2208C80.5924 46.4456 80.0183 45.4682 79.7819 44.3222C79.5793 43.4459 79.478 42.5696 79.4105 41.6933C79.2754 40.1429 80.0859 39.0643 81.6393 38.6262C84.4084 37.8173 86.671 38.6936 88.4946 40.7158C89.5077 41.8281 89.8116 43.1426 89.0011 44.5582C88.6972 45.0974 88.3595 45.6704 88.1231 46.2434C87.9205 46.7152 87.6841 47.2208 87.6841 47.6927C87.7516 51.1305 88.0218 54.4673 90.3857 57.3322C92.1079 59.3881 93.7626 61.4104 96.2954 62.5226C96.9708 62.826 97.376 63.5675 97.2072 64.0056C96.9708 64.646 96.5655 65.1179 95.9239 65.3201C94.5731 65.7583 93.1886 65.8594 91.8378 65.2864C91.365 65.0842 90.8922 64.882 90.4532 64.6797L90.3519 64.6797Z" fill="#F4DDC0"/>
<path d="M289.087 57.7703C285.778 57.0625 283.245 55.9166 281.455 53.5909C279.125 50.5238 276.187 48.1308 273.418 45.5356C272.776 44.9289 272.067 44.3896 271.29 43.9515C269.737 43.0751 268.285 42.064 267.002 40.8169C265.685 39.5025 263.962 38.9969 262.173 38.7947C260.856 38.6261 259.876 38.2217 258.998 37.0757C258.289 36.132 256.938 35.6939 255.858 35.0198C255.115 34.5479 254.777 33.3008 255.385 32.7279C256.634 31.6156 257.175 30.2674 256.905 28.6496C256.128 23.8973 257.985 19.9539 260.619 16.2464C260.991 15.7408 261.43 15.2352 261.97 14.9319C263.827 13.8196 265.685 12.7411 267.576 11.6963C268.015 11.4603 268.521 11.1907 268.994 11.1907C270.987 11.157 272.641 10.3481 274.296 9.33694C274.971 8.93248 275.782 9.37064 276.12 10.1795C276.457 10.921 276.423 11.6625 276.086 12.3703C275.849 12.8085 275.545 13.213 275.242 13.6511C274.499 14.696 274.093 15.8756 273.789 17.1227C272.607 21.9761 270.379 26.3577 267.677 30.5371C267.103 31.4471 266.326 32.0201 265.313 32.3571C264.368 32.6942 263.422 33.0649 262.477 33.4357C262.139 33.5705 261.734 33.7053 261.497 33.9749C261.295 34.2109 261.227 34.6153 261.227 34.9524C261.227 35.0535 261.632 35.2894 261.801 35.2557C264.165 34.6153 266.529 34.4805 268.96 34.8175C269.838 34.9524 270.75 35.0198 271.628 34.9524C273.857 34.7838 275.951 35.3568 277.977 36.0309C280.273 36.7724 282.502 37.6487 284.765 38.5587C288.581 40.0754 291.958 42.3336 294.828 45.2659C296.415 46.9174 298.002 48.569 299.59 50.2205C299.691 50.3216 299.792 50.389 299.826 50.4901C300.974 52.8831 303 54.3998 304.993 55.9503C305.398 56.2536 305.601 57.0288 305.33 57.2984C304.993 57.6355 304.587 58.0399 304.148 58.1748C303.709 58.3096 303.135 58.2759 302.663 58.1748C300.636 57.8377 298.644 57.9051 296.584 58.0062C293.916 58.1073 291.248 57.8377 289.087 57.7703ZM290.37 55.2762C292.532 55.7143 294.828 55.6469 297.091 55.4447C297.563 55.411 298.002 54.6695 297.8 54.3324C297.023 53.0517 296.348 51.6361 295.402 50.4901C292.937 47.5915 290.202 44.9626 286.858 43.0414C286.115 42.6033 285.237 42.3673 284.393 42.064C284.292 42.064 284.123 42.0977 284.055 42.1988C284.022 42.2662 284.055 42.4685 284.089 42.5359C284.326 42.8055 284.596 43.0751 284.9 43.3448C287.128 45.4007 289.357 47.4567 291.552 49.5464C292.16 50.1531 292.025 51.299 291.35 51.9394C290.843 52.4113 289.83 52.5124 289.222 52.1079C288.918 51.9057 288.547 51.7035 288.344 51.4002C287.196 49.7149 285.44 48.6364 284.292 46.9175C283.819 46.2097 283.042 45.603 282.299 45.2322C280.577 44.3896 279.125 43.1763 277.538 42.0977C276.288 41.2214 274.971 40.4799 273.621 39.7721C272.844 39.3676 271.932 39.1654 271.054 39.3676C270.851 39.4351 270.581 39.6036 270.48 39.8058C270.412 39.9743 270.48 40.3114 270.615 40.4462C270.987 40.7832 271.392 41.1203 271.831 41.3562C273.958 42.5022 275.748 44.12 277.437 45.8389C279.463 47.9286 281.489 50.0183 283.481 52.1079C284.191 52.8494 285.001 53.4224 285.913 53.8606C287.297 54.5347 288.682 55.1076 290.303 55.2762L290.37 55.2762ZM270.784 15.5723C270.784 15.5723 270.784 15.3026 270.784 15.2015C270.851 14.6285 270.109 13.887 269.602 14.0556C268.758 14.3252 267.947 14.696 267.137 14.9993C263.49 16.4486 261.295 19.2798 259.775 22.7513C259.505 23.3917 259.539 24.2006 259.505 24.9421C259.505 25.1106 259.775 25.3803 259.978 25.4477C260.18 25.5151 260.484 25.4477 260.653 25.3129C260.957 25.0769 261.193 24.7736 261.396 24.4703C262.139 23.2906 262.848 22.1109 263.625 20.965C264.165 20.1561 265.043 19.9539 265.921 19.8864C266.124 19.8864 266.394 20.055 266.529 20.2572C266.664 20.4257 266.732 20.7628 266.664 20.965C266.529 21.302 266.259 21.6054 266.056 21.9087C264.739 24.0658 263.658 26.3577 262.983 28.7844C262.916 28.9867 263.017 29.4585 263.118 29.4585C263.456 29.5259 263.895 29.5933 264.131 29.4248C265.111 28.7844 265.718 27.807 266.225 26.7959C266.765 25.7847 267.137 24.7062 267.778 23.7625C269.501 21.302 269.973 18.4372 270.75 15.6397L270.784 15.5723Z" fill="#F4DDC0"/>
<path d="M299.86 29.7956C298.239 29.0541 296.618 28.3463 294.997 27.6048C294.49 27.3688 294.389 26.7959 294.76 26.3577C294.997 26.0544 295.267 25.8184 295.537 25.5151C296.82 24.0995 297.259 22.448 296.82 20.5605C296.584 19.4483 296.415 18.3023 296.077 17.2238C295.571 15.5386 294.153 14.5611 292.363 14.4937C290.978 14.46 289.56 14.4263 288.243 14.9993C287.703 15.2352 287.297 16.1115 287.601 16.5834C288.007 17.2238 288.513 17.7968 288.885 18.4709C289.391 19.3472 290.168 19.6842 291.046 19.819C291.654 19.9201 292.295 19.9539 292.937 20.0213C294.22 20.1898 294.592 20.8976 294.153 22.1446C293.849 23.021 293.376 23.7625 292.532 24.1669C291.62 24.6051 290.708 25.0432 289.729 25.3466C288.142 25.8184 286.521 26.1555 284.933 26.5936C283.954 26.8633 283.009 27.2003 282.063 27.6048C279.598 28.6159 277.166 29.6607 274.6 30.3685C274.364 30.436 274.127 30.5708 273.924 30.6719C273.485 30.8741 273.283 31.9189 273.587 32.3908C274.33 33.6042 275.917 34.1434 277.2 33.5705C278.247 33.0986 279.328 32.6942 280.307 32.1549C284.157 30.1326 288.31 29.8293 292.532 30.0652C294.727 30.2 296.685 31.1774 298.61 32.1212C299.86 32.7279 300.13 33.4357 299.319 34.5479C298.34 35.9298 298.273 37.3454 298.408 38.8958C298.475 39.6036 298.847 40.0754 299.488 40.3451C299.961 40.5473 300.434 40.7158 300.94 40.7832C304.351 41.2214 306.31 39.5699 306.445 36.1657C306.445 35.4242 306.445 34.649 306.344 33.8738C306.276 33.1997 305.904 32.6604 305.364 32.3234C304.486 31.8178 303.574 31.3797 302.663 30.9415C301.751 30.5034 300.805 30.0989 299.893 29.6945C299.893 29.6945 299.893 29.6945 299.893 29.7282L299.86 29.7956Z" fill="#F4DDC0"/>
<path d="M135.131 57.7703C138.44 57.0625 140.973 55.9166 142.763 53.591C145.093 50.5238 148.031 48.1308 150.8 45.5356C151.441 44.9289 152.151 44.3896 152.927 43.9515C154.481 43.0752 155.933 42.064 157.216 40.8169C158.533 39.5025 160.255 38.9969 162.045 38.7947C163.362 38.6262 164.342 38.2217 165.22 37.0757C165.929 36.132 167.279 35.6939 168.36 35.0198C169.103 34.5479 169.441 33.3008 168.833 32.7279C167.583 31.6156 167.043 30.2674 167.313 28.6496C168.09 23.8973 166.233 19.9539 163.599 16.2464C163.227 15.7408 162.788 15.2352 162.248 14.9319C160.39 13.8196 158.533 12.7411 156.642 11.6963C156.203 11.4603 155.696 11.1907 155.224 11.1907C153.231 11.157 151.577 10.3481 149.922 9.33695C149.246 8.93249 148.436 9.37065 148.098 10.1796C147.761 10.9211 147.794 11.6626 148.132 12.3704C148.368 12.8085 148.672 13.213 148.976 13.6511C149.719 14.696 150.124 15.8756 150.428 17.1227C151.61 21.9761 153.839 26.3577 156.541 30.5371C157.115 31.4471 157.891 32.0201 158.905 32.3571C159.85 32.6942 160.796 33.0649 161.741 33.4357C162.079 33.5705 162.484 33.7053 162.721 33.9749C162.923 34.2109 162.991 34.6153 162.991 34.9524C162.991 35.0535 162.585 35.2894 162.417 35.2557C160.053 34.6153 157.689 34.4805 155.257 34.8175C154.379 34.9524 153.468 35.0198 152.59 34.9524C150.361 34.7838 148.267 35.3568 146.241 36.0309C143.945 36.7724 141.716 37.6487 139.453 38.5587C135.637 40.0755 132.26 42.3337 129.39 45.2659C127.803 46.9175 126.215 48.569 124.628 50.2205C124.527 50.3216 124.426 50.389 124.392 50.4901C123.244 52.8832 121.217 54.3999 119.225 55.9503C118.82 56.2536 118.617 57.0288 118.887 57.2985C119.225 57.6355 119.63 58.04 120.069 58.1748C120.508 58.3096 121.082 58.2759 121.555 58.1748C123.581 57.8377 125.574 57.9051 127.634 58.0062C130.302 58.1074 132.969 57.8377 135.131 57.7703ZM133.847 55.2762C131.686 55.7143 129.39 55.6469 127.127 55.4447C126.654 55.411 126.215 54.6695 126.418 54.3325C127.195 53.0517 127.87 51.6361 128.816 50.4901C131.281 47.5916 134.016 44.9626 137.359 43.0414C138.102 42.6033 138.98 42.3674 139.825 42.064C139.926 42.064 140.095 42.0977 140.162 42.1988C140.196 42.2662 140.162 42.4685 140.129 42.5359C139.892 42.8055 139.622 43.0752 139.318 43.3448C137.089 45.4008 134.86 47.4567 132.665 49.5464C132.058 50.1531 132.193 51.2991 132.868 51.9394C133.375 52.4113 134.388 52.5124 134.996 52.108C135.299 51.9057 135.671 51.7035 135.874 51.4002C137.022 49.7149 138.778 48.6364 139.926 46.9175C140.399 46.2097 141.175 45.603 141.918 45.2322C143.641 44.3896 145.093 43.1763 146.68 42.0977C147.929 41.2214 149.246 40.4799 150.597 39.7721C151.374 39.3677 152.286 39.1654 153.164 39.3677C153.366 39.4351 153.636 39.6036 153.738 39.8058C153.805 39.9743 153.738 40.3114 153.603 40.4462C153.231 40.7832 152.826 41.1203 152.387 41.3562C150.26 42.5022 148.47 44.12 146.781 45.8389C144.755 47.9286 142.729 50.0183 140.736 52.108C140.027 52.8495 139.217 53.4224 138.305 53.8606C136.92 54.5347 135.536 55.1077 133.915 55.2762L133.847 55.2762ZM153.434 15.5723C153.434 15.5723 153.434 15.3026 153.434 15.2015C153.366 14.6286 154.109 13.8871 154.616 14.0556C155.46 14.3252 156.271 14.696 157.081 14.9993C160.728 16.4486 162.923 19.2798 164.443 22.7513C164.713 23.3917 164.679 24.2006 164.713 24.9421C164.713 25.1107 164.443 25.3803 164.24 25.4477C164.038 25.5151 163.734 25.4477 163.565 25.3129C163.261 25.0769 163.024 24.7736 162.822 24.4703C162.079 23.2906 161.37 22.111 160.593 20.965C160.053 20.1561 159.175 19.9539 158.297 19.8865C158.094 19.8865 157.824 20.055 157.689 20.2572C157.554 20.4257 157.486 20.7628 157.554 20.965C157.689 21.302 157.959 21.6054 158.162 21.9087C159.479 24.0658 160.559 26.3577 161.235 28.7844C161.302 28.9867 161.201 29.4585 161.1 29.4585C160.762 29.5259 160.323 29.5934 160.087 29.4248C159.107 28.7844 158.499 27.807 157.993 26.7959C157.452 25.7847 157.081 24.7062 156.439 23.7625C154.717 21.302 154.244 18.4372 153.468 15.6397L153.434 15.5723Z" fill="#F4DDC0"/>
<path d="M124.358 29.7956C125.979 29.0541 127.6 28.3463 129.221 27.6048C129.727 27.3689 129.829 26.7959 129.457 26.3577C129.221 26.0544 128.951 25.8184 128.681 25.5151C127.397 24.0995 126.958 22.448 127.397 20.5605C127.634 19.4483 127.803 18.3023 128.14 17.2238C128.647 15.5386 130.065 14.5611 131.855 14.4937C133.24 14.46 134.658 14.4263 135.975 14.9993C136.515 15.2352 136.92 16.1116 136.616 16.5834C136.211 17.2238 135.705 17.7968 135.333 18.4709C134.827 19.3472 134.05 19.6842 133.172 19.819C132.564 19.9202 131.922 19.9539 131.281 20.0213C129.998 20.1898 129.626 20.8976 130.065 22.1447C130.369 23.021 130.842 23.7625 131.686 24.1669C132.598 24.6051 133.51 25.0432 134.489 25.3466C136.076 25.8184 137.697 26.1555 139.284 26.5937C140.264 26.8633 141.209 27.2003 142.155 27.6048C144.62 28.6159 147.051 29.6608 149.618 30.3686C149.854 30.436 150.091 30.5708 150.293 30.6719C150.732 30.8741 150.935 31.919 150.631 32.3908C149.888 33.6042 148.301 34.1435 147.018 33.5705C145.971 33.0986 144.89 32.6942 143.911 32.1549C140.061 30.1326 135.907 29.8293 131.686 30.0652C129.491 30.2 127.532 31.1775 125.608 32.1212C124.358 32.7279 124.088 33.4357 124.898 34.5479C125.878 35.9298 125.945 37.3454 125.81 38.8958C125.743 39.6036 125.371 40.0755 124.73 40.3451C124.257 40.5473 123.784 40.7158 123.277 40.7832C119.867 41.2214 117.908 39.5699 117.773 36.1657C117.773 35.4242 117.773 34.649 117.874 33.8738C117.942 33.1997 118.313 32.6605 118.854 32.3234C119.732 31.8179 120.643 31.3797 121.555 30.9415C122.467 30.5034 123.413 30.0989 124.324 29.6945C124.324 29.6945 124.324 29.6945 124.324 29.7282L124.358 29.7956Z" fill="#F4DDC0"/>
</g>
<g filter="url(#filter1_d_646_10)">
<path d="M212.004 136.874C212.882 134.751 212.645 132.661 211.7 130.639C211.463 130.099 210.957 129.964 210.383 130.335C208.222 131.717 206.06 133.133 203.865 134.481C203.055 134.986 202.109 135.323 201.197 135.627C199.779 136.132 198.395 136.705 197.179 137.649C196.605 138.087 195.828 138.323 195.153 138.559C194.477 138.795 193.903 138.492 193.633 137.75C192.924 135.627 192.147 133.503 191.978 131.212C191.843 129.29 191.708 127.336 191.404 125.448C191.067 123.291 191.303 121.168 191.708 119.044C191.776 118.64 191.843 118.202 191.877 117.763C191.911 117.494 191.506 117.224 191.202 117.292C189.243 117.696 187.622 118.741 186.17 120.055C185.832 120.359 185.731 120.864 186.001 121.235C186.947 122.381 187.352 123.662 187.251 125.111C187.217 125.819 186.913 126.257 186.17 126.56C185.765 126.695 185.359 126.864 184.954 126.931C183.806 127.167 182.725 126.594 182.421 125.448C182.05 124.066 182.286 122.684 182.32 121.302C182.32 121.033 182.59 120.729 182.827 120.494C184.042 119.28 185.258 118.1 186.71 117.123C187.149 116.82 187.554 116.449 187.926 116.078C188.027 115.977 187.96 115.707 187.926 115.539C187.926 115.472 187.791 115.37 187.69 115.37C187.386 115.337 187.048 115.269 186.744 115.303C184.414 115.674 182.05 115.943 179.99 117.292C179.247 117.763 178.369 117.966 177.559 117.46C176.849 117.022 176.546 115.943 176.985 114.831C178.099 111.933 179.247 109.034 180.463 106.169C180.868 105.192 181.543 104.282 182.185 103.439C182.692 102.765 183.367 102.192 184.042 101.653C184.887 101.012 185.832 100.473 186.71 99.8327C187.791 99.0575 188.973 98.5182 190.29 98.5519C191.945 98.5856 193.464 98.0463 195.051 97.8104C195.963 97.6419 196.672 97.2037 197.213 96.5633C197.854 95.8218 198.428 95.0466 199.036 94.3051C199.306 93.9681 199.576 93.631 199.88 93.3277C201.501 91.7099 203.629 90.8673 205.621 89.8224C206.702 89.2494 207.884 89.1483 209.066 89.182C210.889 89.2157 212.747 89.1146 214.537 89.3506C218.454 89.9235 222.067 91.2043 224.769 94.3388C224.971 94.5748 225.174 94.8444 225.377 95.0803C225.883 95.687 226.525 96.0915 227.335 96.0241C228.348 95.9566 229.226 96.26 230.071 96.7656C231.455 97.5745 232.975 98.1474 234.326 99.0912C234.933 99.5293 235.676 99.7653 236.386 100.001C238.31 100.675 240.168 101.552 241.958 102.563C243.714 103.54 245.064 104.855 246.145 106.506C247.969 109.203 248.61 110.719 249.252 113.854C249.522 115.135 249.488 116.415 249.151 117.696C248.745 119.246 248.475 120.864 248.104 122.415C247.8 123.695 247.732 124.976 248.273 126.223C248.441 126.628 248.576 127.032 248.576 127.47C248.576 127.875 248.543 128.313 248.374 128.684C248.239 129.021 247.395 129.088 246.888 128.92C246.246 128.717 245.74 128.347 245.368 127.774C244.592 126.594 243.612 125.583 242.363 124.909C240.505 122.819 237.871 122.482 235.406 121.875C235.204 121.842 234.967 121.875 234.765 121.875C234.461 121.875 234.157 122.246 234.258 122.549C234.292 122.752 234.326 122.988 234.393 123.19C235.305 124.909 235.204 126.695 234.765 128.515C233.853 132.391 232.941 136.267 232.029 140.143C231.996 140.345 231.86 140.548 231.759 140.716C231.523 141.255 230.678 141.626 230.104 141.357C229.53 141.087 228.922 140.784 228.483 140.345C227.707 139.57 226.761 139.065 225.782 138.627C224.127 137.851 222.439 137.144 220.818 136.335C219.973 135.896 219.163 135.323 218.42 134.717C217.576 133.975 216.664 133.47 215.583 133.234C215.448 133.234 215.111 133.402 215.077 133.503C214.942 134.346 214.874 135.222 214.807 136.065C214.705 137.144 214.435 138.188 213.861 139.132C213.557 139.638 212.848 139.907 212.173 139.739C211.767 139.638 211.362 139.166 211.43 138.795C211.565 138.155 211.734 137.548 211.869 136.941L212.004 136.874ZM202.717 123.83C202.548 124.572 202.346 125.28 202.177 126.021C201.94 127.133 201.299 127.976 200.488 128.684C199.948 129.122 199.306 129.223 198.665 128.953C195.929 127.74 195.49 124.1 197.55 122.583C198.428 121.909 199.104 121.134 199.509 120.089C199.712 119.55 200.151 119.213 200.758 119.28C201.704 119.348 202.379 118.943 202.92 118.168C203.561 117.292 204.27 116.516 204.946 115.674C206.364 113.921 207.816 112.169 209.201 110.416C209.404 110.18 209.505 109.843 209.64 109.573C209.674 109.506 209.64 109.337 209.606 109.27C209.471 109.169 209.201 108.967 209.1 109.034C207.816 109.809 206.533 110.584 205.317 111.494C203.831 112.607 202.244 113.483 200.488 113.955C199.745 114.157 199.07 114.46 198.597 115.101C198.428 115.337 198.091 115.505 197.82 115.606C195.389 116.314 194.545 118.168 194.207 120.426C193.498 124.976 194.106 129.425 195.254 133.807C195.558 135.02 196.064 135.222 197.111 134.751C197.888 134.38 198.631 133.942 199.475 133.706C202.514 132.796 205.013 130.942 207.58 129.156C209.843 127.538 210.585 125.28 210.754 122.785C210.957 119.887 210.822 116.988 210.822 114.09C210.822 113.921 210.653 113.719 210.552 113.55C210.417 113.348 209.91 113.449 209.707 113.753C208.424 115.64 206.736 117.157 205.216 118.808C203.933 120.224 203.1 121.909 202.717 123.864L202.717 123.83ZM232.131 132.02C232.435 130.436 232.637 129.29 232.84 128.111C233.177 126.459 232.772 124.909 232.097 123.426C231.59 122.28 230.746 121.404 229.53 121.201C228.011 120.932 226.66 120.291 225.377 119.516C224.701 119.112 223.891 119.482 223.519 120.258C223.283 120.763 223.182 121.336 223.486 121.808C224.228 122.988 225.005 124.167 225.849 125.28C226.964 126.763 227.572 128.481 228.18 130.2C228.281 130.537 227.842 131.11 227.437 131.077C227.031 131.077 226.525 131.009 226.255 130.773C225.883 130.436 225.613 129.931 225.377 129.459C223.688 125.785 221.122 122.752 218.15 120.089C217.475 119.482 217.103 118.808 216.867 117.932C216.394 116.28 215.685 114.696 215.077 113.112C215.009 112.91 214.908 112.708 214.739 112.573C214.604 112.438 214.368 112.337 214.199 112.337C214.03 112.337 213.76 112.539 213.726 112.708C212.713 115.809 212.375 119.011 212.375 122.246C212.375 122.347 212.375 122.482 212.443 122.549C212.645 122.785 212.814 123.122 213.084 123.224C213.355 123.291 213.76 123.19 213.962 122.988C214.334 122.651 214.604 122.145 214.942 121.774C215.212 121.505 215.955 121.673 216.056 122.01C216.326 122.819 216.495 123.662 216.799 124.471C217.171 125.515 217.373 126.56 217.035 127.639C216.529 129.324 217.171 130.571 218.42 131.65C219.062 132.223 219.737 132.762 220.446 133.234C222.337 134.481 224.465 135.29 226.559 136.166C227.335 136.503 228.146 136.806 228.99 137.076C229.463 137.245 230.172 136.975 230.375 136.503C231.05 134.919 231.692 133.335 232.164 132.122L232.131 132.02ZM226.39 105.394C226.829 105.461 227.234 105.562 227.673 105.63C228.686 105.798 229.463 106.338 230.104 107.113C230.442 107.517 230.746 107.989 231.05 108.427C231.86 109.573 232.671 110.719 233.92 111.427C234.022 111.461 234.089 111.562 234.123 111.663C234.191 111.865 234.359 112.135 234.258 112.236C234.089 112.472 233.819 112.775 233.549 112.809C233.144 112.809 232.671 112.741 232.333 112.539C231.388 112 230.645 111.225 229.969 110.348C229.429 109.674 228.889 109 228.281 108.394C227.977 108.124 227.538 107.821 227.166 107.821C226.221 107.753 225.242 107.821 224.262 107.888C224.195 107.888 224.127 108.057 224.127 108.124C224.127 108.225 224.127 108.36 224.195 108.427C225.275 109.304 226.39 110.146 227.47 111.056C228.044 111.528 228.585 112.067 229.091 112.607C229.53 113.112 229.665 113.786 229.497 114.427C229.429 114.696 229.159 115.033 228.922 115.135C228.551 115.269 228.044 115.303 227.707 115.168C226.694 114.764 226.086 113.82 225.242 113.146C225.073 113.011 224.634 113.146 224.364 113.247C224.296 113.247 224.262 113.685 224.364 113.854C224.836 114.696 225.309 115.539 225.816 116.348C226.862 118.033 228.416 118.808 230.375 119.011C232.84 119.246 235.305 119.583 237.77 119.853C238.648 119.954 239.459 120.19 240.235 120.595C240.708 120.864 241.215 121.033 241.721 121.235C241.89 121.302 242.194 121.269 242.329 121.168C242.464 121.066 242.532 120.763 242.464 120.595C241.755 117.999 240.674 115.539 239.29 113.213C237.635 110.45 235.474 108.023 233.616 105.394C232.705 104.113 231.624 102.866 230.239 101.956C229.8 101.653 229.361 101.349 228.855 101.147C227.943 100.81 227.031 100.54 226.086 100.237C225.714 100.102 225.106 100.338 224.971 100.675C224.6 101.585 224.228 102.462 223.925 103.372C223.621 104.349 224.06 104.989 225.14 105.225C225.545 105.326 225.984 105.36 226.423 105.428L226.39 105.394ZM182.557 108.899C182.759 108.899 183.029 108.899 183.164 108.798C185.022 107.18 187.419 106.809 189.648 106.135C191.37 105.63 193.262 105.596 195.085 105.664C196.74 105.731 198.293 105.562 199.813 104.888C200.387 104.619 201.062 104.619 201.67 104.416C202.075 104.282 202.481 104.113 202.818 103.877C202.953 103.776 203.055 103.506 203.055 103.338C203.055 103.169 202.92 102.9 202.785 102.832C201.873 102.495 200.927 102.259 200.016 101.956C198.597 101.45 197.145 101.046 195.592 101.349C194.916 101.484 194.342 101.181 193.869 100.642C193.295 99.9675 192.552 100.001 191.809 100.136C189.31 100.642 187.318 102.125 185.393 103.675C185.157 103.877 184.92 104.113 184.752 104.383C184.009 105.562 183.266 106.742 182.557 107.955C182.455 108.124 182.455 108.36 182.421 108.562C182.421 108.63 182.523 108.731 182.557 108.832L182.557 108.899ZM236.825 102.259C236.352 102.158 236.115 102.057 235.947 102.091C235.676 102.125 235.237 102.192 235.17 102.394C235.069 102.63 235.17 103.035 235.339 103.271C235.913 104.046 236.521 104.787 237.129 105.562C237.939 106.574 238.851 107.517 239.526 108.596C241.282 111.427 243.038 114.258 244.186 117.426C244.558 118.438 245.031 119.415 245.503 120.359C245.571 120.494 245.841 120.527 246.044 120.561C246.078 120.561 246.213 120.426 246.246 120.325C246.517 118.943 246.719 117.561 246.989 116.213C247.259 114.932 247.192 113.618 246.82 112.371C246.179 110.079 245.098 107.989 243.511 106.135C241.687 103.978 239.121 103.136 236.858 102.259L236.825 102.259ZM207.951 104.619C207.749 104.45 207.512 104.147 207.276 104.147C206.364 104.147 205.621 104.518 205.047 105.225C204.406 106.001 203.528 106.405 202.548 106.574C201.907 106.675 201.265 106.809 200.691 107.079C199.104 107.854 197.483 108.259 195.693 107.888C195.22 107.787 194.646 108.023 194.106 108.09C193.565 108.191 193.059 108.394 192.519 108.36C190.628 108.292 188.973 109.034 187.284 109.708C185.934 110.247 184.853 111.056 183.84 112.034C183.772 112.101 183.738 112.27 183.772 112.337C183.874 112.506 184.076 112.741 184.177 112.741C186.643 112.404 189.108 112.506 191.539 112.236C193.565 112.034 195.558 111.461 197.618 111.663C197.82 111.663 198.057 111.596 198.259 111.562C202.211 110.719 205.385 108.63 207.715 105.326C207.816 105.158 207.85 104.922 207.951 104.652L207.951 104.619ZM206.297 100.574C206.297 100.574 206.297 100.642 206.297 100.675C207.546 100.979 208.829 101.215 210.045 101.585C213.22 102.529 216.225 101.788 219.163 100.574C220.075 100.203 220.716 99.4282 221.155 98.5519C221.257 98.3497 221.155 97.9115 220.953 97.7093C220.615 97.2711 220.075 97.0352 219.534 97.1363C218.15 97.3722 216.732 97.507 215.448 98.0126C213.929 98.6193 212.544 98.5519 211.058 98.1474C209.505 97.743 207.951 97.2711 206.364 96.9678C204.271 96.5633 202.278 96.8667 200.691 98.4845C200.556 98.6193 200.522 98.8889 200.59 99.0575C200.623 99.226 200.826 99.3945 200.995 99.5293C201.164 99.6304 201.4 99.6978 201.603 99.7315C203.19 100.035 204.777 100.305 206.364 100.574L206.297 100.574ZM209.066 94.777C210.315 95.114 211.328 95.6196 212.341 95.6196C214.401 95.6196 216.36 95.0803 218.217 94.1703C218.521 94.0355 218.521 93.5636 218.251 93.3951C217.88 93.1592 217.542 92.8558 217.137 92.7547C214.131 91.9121 211.058 91.6088 207.918 91.9458C206.803 92.0806 205.858 92.4851 205.013 93.1929C204.845 93.3277 204.676 93.5299 204.676 93.6984C204.676 93.8333 204.946 94.0355 205.149 94.0692C206.499 94.3388 207.884 94.5411 209.032 94.7433L209.066 94.777ZM219.771 113.955C219.94 113.887 220.244 113.82 220.48 113.652C220.581 113.584 220.581 113.213 220.48 113.112C220.244 112.775 219.973 112.472 219.67 112.202C219.568 112.101 219.264 112.135 219.129 112.236C218.994 112.337 218.859 112.573 218.859 112.741C218.825 113.348 219.095 113.685 219.805 113.955L219.771 113.955Z" fill="#F4DDC0"/>
<path d="M114.51 77.0484C118.428 77.4192 122.345 77.7899 126.262 78.1944C126.499 78.1944 126.769 78.2618 127.005 78.3629C129.909 79.6437 133.084 80.0818 135.954 81.5311C137.98 82.5422 140.04 83.5871 142.337 84.0252C142.708 84.0927 143.08 84.2612 143.384 84.4297C146.457 86.216 149.732 87.6316 152.535 89.8561C154.224 91.1706 156.013 92.4177 157.736 93.7321C158.445 94.2714 159.12 94.8444 159.728 95.4848C161.653 97.4733 163.578 99.5293 165.503 101.552C165.773 101.821 166.043 102.057 166.347 102.293C167.09 102.832 168.171 102.9 168.812 102.293C169.555 101.619 170.399 100.979 170.94 100.136C172.662 97.4733 176.174 97.17 178.876 95.9566C183.299 94.0018 187.487 91.3391 191.742 89.0472C195.22 87.1935 198.395 87.5642 201.974 86.2497C203.832 85.5757 205.689 85.5419 207.58 86.0138C208.323 86.216 209.032 86.452 209.775 86.6205C210.687 86.8564 211.599 86.6879 212.308 86.1149C213.422 85.2723 214.57 84.5308 215.82 83.8904C216.495 83.5534 217.002 82.9804 217.576 82.4748C219.095 81.093 219.399 79.5088 218.42 77.6888C218.116 77.1495 217.947 76.5091 217.61 75.9699C217.339 75.5654 217.002 75.0599 216.563 74.8913C215.009 74.3184 213.456 73.7454 211.869 73.442C211.058 73.3072 210.113 73.6443 209.302 73.9813C208.12 74.4532 207.04 75.161 206.195 76.1384C205.655 76.7788 204.912 76.9473 204.135 76.8799C199.712 76.5429 195.254 76.8799 190.796 76.5428C187.521 76.3069 184.211 76.6103 180.902 76.644C179.517 76.644 178.099 76.7788 176.714 76.5766C174.047 76.2395 171.379 76.2732 168.711 76.3406C164.895 76.408 161.113 76.408 157.33 75.5317C155.507 75.0936 153.548 75.0598 151.657 75.0936C147.301 75.161 143.046 74.5543 138.757 73.9476C136.731 73.6443 134.739 73.4757 132.679 73.442C130.652 73.442 128.626 73.1724 126.6 73.105C117.178 72.8691 109.749 72.4646 102.32 79.037C98.2671 82.6096 96.7812 86.9575 97.8281 92.3502C98.436 95.5185 99.9894 97.9789 102.083 100.237C103.637 101.922 105.561 102.259 107.655 101.518C109.344 100.945 110.931 100.17 112.586 99.4619C113.531 99.0574 114.342 98.4508 115.017 97.6756C115.996 96.5633 116.334 94.1029 114.882 92.8221C114.51 92.4851 114.139 92.1143 113.767 91.7773C112.923 91.0358 112.315 89.9909 111.201 89.5865C109.884 89.1146 109.141 90.3617 108.027 90.5639C107.52 90.665 107.014 90.7661 106.575 91.0021C106.271 91.1706 105.967 91.5413 105.899 91.8447C105.494 93.867 105.224 95.8555 106.575 97.6756C106.777 97.9789 106.946 98.3834 106.575 98.6867C106.169 99.0574 105.663 99.0912 105.156 98.8889C104.92 98.8215 104.683 98.6867 104.481 98.5182C101.036 95.2825 100.091 91.2043 100.8 86.6879C101.002 85.4408 101.678 84.2949 102.522 83.3512C103.029 82.7782 103.603 82.2726 104.076 81.6659C106.676 78.2618 110.188 76.8799 114.409 76.8799L114.51 77.0484ZM153.278 78.1607C154.696 77.891 156.25 78.5314 157.837 78.8685C161.552 79.6437 160.944 79.1381 162.599 82.8793C163.004 83.7893 163.274 84.8004 163.578 85.7442C164.625 89.2494 165.638 92.7884 166.617 96.2937C166.617 96.3948 166.617 96.597 166.55 96.597C166.347 96.6307 166.043 96.7318 165.908 96.597C164.996 95.9229 164.118 95.2151 163.24 94.4736C162.463 93.8333 161.687 93.1592 160.978 92.4514C160.404 91.8784 160.201 91.2043 160.539 90.3617C160.843 89.6202 160.775 88.8787 160.37 88.1709C159.255 86.1823 158.479 84.0252 157.837 81.8345C157.77 81.5985 157.634 81.3626 157.533 81.1604C157.229 80.5874 156.115 80.284 155.507 80.5874C155.034 80.8233 154.528 81.7333 154.696 82.1715C154.899 82.7782 155.068 83.3849 155.406 83.9241C156.216 85.1038 156.588 86.4183 156.925 87.7664C156.959 87.935 156.756 88.2046 156.621 88.3731C156.554 88.4405 156.351 88.4742 156.25 88.4068C154.528 87.3283 152.805 86.2497 151.151 85.1375C150.239 84.4971 149.935 83.5197 150.138 82.4411C150.374 81.1941 150.61 79.9807 150.948 78.7673C151.016 78.4977 151.455 78.2618 151.792 78.127C152.13 78.0258 152.535 78.0933 153.211 78.0596L153.278 78.1607ZM173.641 91.9458C173.54 92.384 173.574 93.2266 173.202 93.7996C172.561 94.7096 171.649 95.4511 170.534 95.8218C170.264 95.8892 169.724 95.687 169.589 95.4511C169.184 94.6759 168.812 93.867 168.576 93.0581C167.597 89.2831 166.516 85.5082 165.233 81.8345C164.659 80.1829 165.266 79.7111 166.583 79.4414C167.698 79.2055 168.846 79.1381 169.96 79.4751C170.872 79.7785 171.48 80.284 171.649 81.2952C171.987 83.1489 172.426 85.0027 172.763 86.8564C173.067 88.4742 173.304 90.0921 173.641 92.0132L173.641 91.9458ZM178.774 79.61C179.315 79.61 179.922 79.6437 180.564 79.7111C181.003 79.7111 181.543 80.2503 181.51 80.6885C181.375 82.576 181.476 84.4297 181.645 86.2834C181.847 88.3731 180.902 89.9235 178.876 90.665C178.302 90.8673 177.694 91.0358 177.086 91.1706C176.917 91.1706 176.613 90.9684 176.478 90.7998C176.309 90.6313 176.208 90.3617 176.14 90.1258C175.735 87.6653 175.364 85.1712 174.958 82.7108C174.958 82.576 174.958 82.4748 174.958 82.34C174.891 81.1941 175.735 80.0481 176.849 79.8459C177.457 79.7448 178.099 79.6774 178.808 79.61L178.774 79.61ZM187.926 79.7785C188.905 79.8796 189.783 79.947 190.661 80.0818C190.864 80.0818 191.202 80.3515 191.202 80.52C191.37 81.8682 191.506 83.25 191.539 84.6319C191.539 85.306 190.931 85.7442 190.324 85.9464C189.243 86.2835 188.095 86.3509 187.048 86.789C185.191 87.5642 184.718 87.4294 184.481 85.1712C184.313 83.5871 184.988 82.2389 185.326 80.7896C185.393 80.52 185.832 80.2503 186.17 80.1492C186.744 79.947 187.386 79.8796 187.926 79.7785ZM136.123 76.7114C136.359 76.7114 136.63 76.644 136.866 76.7114C139.433 77.4192 142.1 77.6214 144.701 77.7899C148.888 78.0596 147.976 79.0707 147.74 81.7333C147.672 82.576 147.132 82.8793 146.457 82.5085C145.005 81.7333 143.519 80.9918 141.898 80.7222C139.872 80.3852 138.183 79.2055 136.258 78.6325C135.819 78.4977 135.481 77.9921 135.178 77.6214C135.11 77.5203 135.245 77.1495 135.414 77.0147C135.583 76.8462 135.887 76.8462 136.123 76.7451L136.123 76.7114ZM197.415 80.1829C198.698 80.284 199.948 80.3515 201.231 80.4526C202.514 80.52 203.696 80.9581 204.811 81.6322C204.912 81.6996 204.98 81.8345 205.013 81.9356C205.013 82.0367 205.013 82.2389 204.946 82.2389C202.548 82.6434 200.319 83.5534 198.023 84.2275C194.849 85.1375 194.004 84.2275 194.849 81.093C194.984 80.5537 195.355 80.2166 195.929 80.1829C196.436 80.1829 196.942 80.2166 197.449 80.2503L197.415 80.1829Z" fill="#F4DDC0"/>
<path d="M311.557 77.0484C307.64 77.4192 303.723 77.7899 299.805 78.1944C299.569 78.1944 299.299 78.2618 299.062 78.3629C296.158 79.6437 292.984 80.0818 290.113 81.5311C288.087 82.5423 286.027 83.5871 283.731 84.0253C283.359 84.0927 282.988 84.2612 282.684 84.4297C279.611 86.216 276.335 87.6316 273.532 89.8561C271.844 91.1706 270.054 92.4177 268.332 93.7322C267.623 94.2714 266.947 94.8444 266.339 95.4848C264.415 97.4733 262.49 99.5293 260.565 101.552C260.295 101.821 260.024 102.057 259.721 102.293C258.978 102.832 257.897 102.9 257.255 102.293C256.512 101.619 255.668 100.979 255.128 100.136C253.406 97.4733 249.894 97.17 247.192 95.9566C242.768 94.0018 238.581 91.3391 234.326 89.0472C230.847 87.1935 227.673 87.5642 224.093 86.2497C222.236 85.5757 220.379 85.542 218.488 86.0138C217.745 86.216 217.035 86.452 216.293 86.6205C215.381 86.8564 214.469 86.6879 213.76 86.1149C212.645 85.2723 211.497 84.5308 210.248 83.8904C209.572 83.5534 209.066 82.9804 208.492 82.4748C206.972 81.093 206.668 79.5088 207.647 77.6888C207.951 77.1495 208.12 76.5091 208.458 75.9699C208.728 75.5654 209.066 75.0599 209.505 74.8913C211.058 74.3184 212.612 73.7454 214.199 73.442C215.009 73.3072 215.955 73.6443 216.765 73.9813C217.947 74.4532 219.028 75.161 219.872 76.1384C220.412 76.7788 221.155 76.9473 221.932 76.8799C226.356 76.5429 230.814 76.8799 235.271 76.5429C238.547 76.3069 241.856 76.6103 245.166 76.644C246.55 76.644 247.969 76.7788 249.353 76.5766C252.021 76.2395 254.689 76.2732 257.357 76.3406C261.173 76.408 264.955 76.408 268.737 75.5317C270.561 75.0936 272.519 75.0599 274.41 75.0936C278.767 75.161 283.022 74.5543 287.31 73.9476C289.337 73.6443 291.329 73.4757 293.389 73.442C295.415 73.442 297.441 73.1724 299.468 73.105C308.889 72.8691 316.319 72.4646 323.748 79.037C327.8 82.6097 329.286 86.9575 328.239 92.3503C327.632 95.5185 326.078 97.9789 323.984 100.237C322.431 101.922 320.506 102.259 318.412 101.518C316.724 100.945 315.137 100.17 313.482 99.4619C312.536 99.0575 311.726 98.4508 311.051 97.6756C310.071 96.5633 309.734 94.1029 311.186 92.8221C311.557 92.4851 311.929 92.1143 312.3 91.7773C313.144 91.0358 313.752 89.991 314.867 89.5865C316.184 89.1146 316.927 90.3617 318.041 90.5639C318.547 90.665 319.054 90.7662 319.493 91.0021C319.797 91.1706 320.101 91.5414 320.168 91.8447C320.574 93.867 320.844 95.8555 319.493 97.6756C319.29 97.9789 319.122 98.3834 319.493 98.6867C319.898 99.0575 320.405 99.0912 320.911 98.8889C321.148 98.8215 321.384 98.6867 321.587 98.5182C325.031 95.2826 325.977 91.2043 325.268 86.6879C325.065 85.4408 324.39 84.2949 323.545 83.3512C323.039 82.7782 322.465 82.2726 321.992 81.6659C319.392 78.2618 315.88 76.8799 311.658 76.8799L311.557 77.0484ZM272.789 78.1607C271.371 77.891 269.818 78.5314 268.231 78.8685C264.516 79.6437 265.124 79.1381 263.469 82.8793C263.064 83.7893 262.794 84.8005 262.49 85.7442C261.443 89.2494 260.43 92.7884 259.45 96.2937C259.45 96.3948 259.45 96.597 259.518 96.597C259.721 96.6307 260.024 96.7318 260.16 96.597C261.071 95.9229 261.949 95.2151 262.827 94.4736C263.604 93.8333 264.381 93.1592 265.09 92.4514C265.664 91.8784 265.867 91.2043 265.529 90.3617C265.225 89.6202 265.293 88.8787 265.698 88.1709C266.812 86.1823 267.589 84.0253 268.231 81.8345C268.298 81.5985 268.433 81.3626 268.534 81.1604C268.838 80.5874 269.953 80.2841 270.561 80.5874C271.033 80.8233 271.54 81.7333 271.371 82.1715C271.168 82.7782 271 83.3849 270.662 83.9241C269.851 85.1038 269.48 86.4183 269.142 87.7665C269.109 87.935 269.311 88.2046 269.446 88.3731C269.514 88.4405 269.716 88.4743 269.818 88.4068C271.54 87.3283 273.262 86.2497 274.917 85.1375C275.829 84.4971 276.133 83.5197 275.93 82.4411C275.694 81.1941 275.457 79.9807 275.12 78.7674C275.052 78.4977 274.613 78.2618 274.275 78.127C273.938 78.0259 273.532 78.0933 272.857 78.0596L272.789 78.1607ZM252.426 91.9458C252.528 92.384 252.494 93.2266 252.865 93.7996C253.507 94.7096 254.419 95.4511 255.533 95.8218C255.803 95.8892 256.344 95.687 256.479 95.4511C256.884 94.6759 257.255 93.867 257.492 93.0581C258.471 89.2832 259.552 85.5083 260.835 81.8345C261.409 80.1829 260.801 79.7111 259.484 79.4414C258.37 79.2055 257.255 79.1381 256.107 79.4751C255.195 79.7785 254.588 80.2841 254.419 81.2952C254.081 83.1489 253.642 85.0027 253.304 86.8564C253 88.4742 252.764 90.0921 252.426 92.0132L252.426 91.9458ZM247.293 79.61C246.753 79.61 246.145 79.6437 245.503 79.7111C245.064 79.7111 244.524 80.2503 244.558 80.6885C244.693 82.576 244.592 84.4297 244.423 86.2835C244.22 88.3731 245.166 89.9235 247.192 90.665C247.766 90.8673 248.374 91.0358 248.982 91.1706C249.151 91.1706 249.454 90.9684 249.59 90.7999C249.758 90.6313 249.86 90.3617 249.927 90.1258C250.333 87.6653 250.704 85.1712 251.109 82.7108C251.109 82.576 251.109 82.4748 251.109 82.34C251.177 81.1941 250.333 80.0481 249.218 79.8459C248.61 79.7448 247.969 79.6774 247.259 79.61L247.293 79.61ZM238.142 79.7785C237.162 79.8796 236.284 79.947 235.406 80.0818C235.204 80.0818 234.866 80.3515 234.866 80.52C234.697 81.8682 234.562 83.25 234.528 84.6319C234.528 85.306 235.136 85.7442 235.744 85.9464C236.825 86.2835 237.973 86.3509 239.02 86.789C240.877 87.5642 241.35 87.4294 241.586 85.1712C241.755 83.5871 241.08 82.2389 240.742 80.7896C240.674 80.52 240.235 80.2503 239.898 80.1492C239.324 79.947 238.682 79.8796 238.142 79.7785ZM289.944 76.7114C289.708 76.7114 289.438 76.644 289.202 76.7114C286.635 77.4192 283.967 77.6214 281.367 77.7899C277.179 78.0596 278.091 79.0707 278.328 81.7334C278.395 82.576 278.936 82.8793 279.611 82.5086C281.063 81.7334 282.549 80.9918 284.17 80.7222C286.196 80.3852 287.885 79.2055 289.809 78.6325C290.248 78.4977 290.586 77.9921 290.89 77.6214C290.958 77.5203 290.822 77.1495 290.654 77.0147C290.485 76.8462 290.181 76.8462 289.944 76.7451L289.944 76.7114ZM228.652 80.1829C227.369 80.2841 226.12 80.3515 224.836 80.4526C223.553 80.52 222.371 80.9581 221.257 81.6322C221.155 81.6996 221.088 81.8345 221.054 81.9356C221.054 82.0367 221.054 82.2389 221.122 82.2389C223.519 82.6434 225.748 83.5534 228.044 84.2275C231.219 85.1375 232.063 84.2275 231.219 81.093C231.084 80.5537 230.712 80.2166 230.138 80.1829C229.632 80.1829 229.125 80.2166 228.619 80.2503L228.652 80.1829Z" fill="#F4DDC0"/>
<path d="M336.648 81.7671C339.789 83.4186 343.199 83.5534 346.61 83.5534C347.117 83.5534 347.59 83.3512 348.096 83.2501C348.873 83.0478 349.21 82.6771 349.177 81.9356C349.177 81.43 349.075 80.9244 349.075 80.4189C349.075 79.1718 349.751 78.2618 350.73 77.5877C351.372 77.1495 352.115 76.9473 352.891 77.1158C355.053 77.5203 355.931 78.4303 356.268 80.6211C356.64 82.8119 356.1 84.059 354.141 84.9353C353.128 85.4071 351.98 85.6094 350.865 85.8453C349.616 86.1149 348.366 86.2161 347.117 86.4857C346.137 86.6879 345.833 87.3283 346.273 88.1372C347.623 90.5976 349.278 92.7884 351.777 94.2714C353.499 95.2826 353.803 95.3837 354.749 93.6985C355.559 92.2492 356.775 91.474 358.193 90.8673C359.645 90.2606 360.861 90.6988 361.705 92.1143C362.279 93.0918 362.887 94.0692 362.989 95.2489C363.09 96.4622 362.516 97.5745 361.401 98.0126C359.24 98.8889 357.079 99.4619 354.749 98.6867C354.377 98.5519 353.972 98.5519 353.668 98.3497C351.709 97.17 349.751 95.9904 347.86 94.7433C346.576 93.9007 345.698 92.6199 344.82 91.3728C343.875 90.0247 342.76 88.7776 341.038 88.3731C340.836 88.3057 340.464 88.3731 340.363 88.4743C340.228 88.6091 340.261 88.9461 340.329 89.182C340.498 89.6539 340.7 90.1258 340.971 90.5639C341.68 91.7099 341.882 92.8895 341.68 94.204C341.511 95.2152 341.477 96.2263 341.41 97.2374C341.342 98.2486 341.747 98.7541 342.659 98.653C343.706 98.5519 344.685 98.4845 345.53 99.226C346.408 100.001 346.982 100.979 347.218 102.125C347.421 103.001 347.522 103.877 347.59 104.754C347.725 106.304 346.914 107.382 345.361 107.821C342.592 108.63 340.329 107.753 338.505 105.731C337.492 104.619 337.188 103.304 337.999 101.889C338.303 101.349 338.641 100.776 338.877 100.203C339.08 99.7316 339.316 99.226 339.316 98.7541C339.248 95.3163 338.978 91.9795 336.614 89.1146C334.892 87.0587 333.237 85.0364 330.705 83.9241C330.029 83.6208 329.624 82.8793 329.793 82.4411C330.029 81.8008 330.434 81.3289 331.076 81.1267C332.427 80.6885 333.811 80.5874 335.162 81.1604C335.635 81.3626 336.108 81.5648 336.547 81.7671L336.648 81.7671Z" fill="#F4DDC0"/>
<path d="M89.3519 81.767C86.2113 83.4186 82.8006 83.5534 79.3898 83.5534C78.8833 83.5534 78.4105 83.3511 77.904 83.25C77.1272 83.0478 76.7896 82.6771 76.8233 81.9356C76.8233 81.43 76.9246 80.9244 76.9246 80.4189C76.9246 79.1718 76.2492 78.2618 75.2699 77.5877C74.6283 77.1495 73.8853 76.9473 73.1086 77.1158C70.9474 77.5203 70.0693 78.4303 69.7316 80.6211C69.3602 82.8119 69.9005 84.0589 71.8592 84.9353C72.8723 85.4071 74.0204 85.6093 75.1348 85.8453C76.3843 86.1149 77.6338 86.216 78.8833 86.4857C79.8626 86.6879 80.1665 87.3283 79.7275 88.1372C78.3767 90.5976 76.722 92.7884 74.223 94.2714C72.5008 95.2825 72.1969 95.3837 71.2513 93.6984C70.4408 92.2491 69.2251 91.4739 67.8068 90.8673C66.3547 90.2606 65.1389 90.6987 64.2947 92.1143C63.7206 93.0917 63.1128 94.0692 63.0115 95.2488C62.9102 96.4622 63.4842 97.5744 64.5986 98.0126C66.7599 98.8889 68.9212 99.4619 71.2513 98.6867C71.6228 98.5519 72.028 98.5519 72.3319 98.3496C74.2906 97.17 76.2492 95.9903 78.1403 94.7433C79.4236 93.9007 80.3016 92.6199 81.1796 91.3728C82.1252 90.0246 83.2396 88.7776 84.9618 88.3731C85.1644 88.3057 85.5359 88.3731 85.6372 88.4742C85.7723 88.6091 85.7385 88.9461 85.671 89.182C85.5021 89.6539 85.2995 90.1258 85.0294 90.5639C84.3202 91.7099 84.1176 92.8895 84.3202 94.204C84.489 95.2151 84.5228 96.2263 84.5904 97.2374C84.6579 98.2485 84.2527 98.7541 83.3409 98.653C82.294 98.5519 81.3147 98.4845 80.4704 99.226C79.5924 100.001 79.0183 100.979 78.7819 102.125C78.5793 103.001 78.478 103.877 78.4105 104.754C78.2754 106.304 79.0859 107.382 80.6393 107.821C83.4084 108.63 85.671 107.753 87.4946 105.731C88.5077 104.619 88.8116 103.304 88.0011 101.889C87.6972 101.349 87.3595 100.776 87.1231 100.203C86.9205 99.7315 86.6841 99.226 86.6841 98.7541C86.7516 95.3162 87.0218 91.9795 89.3857 89.1146C91.1079 87.0586 92.7626 85.0364 95.2954 83.9241C95.9708 83.6208 96.376 82.8793 96.2072 82.4411C95.9708 81.8007 95.5655 81.3289 94.9239 81.1267C93.5731 80.6885 92.1886 80.5874 90.8378 81.1604C90.365 81.3626 89.8922 81.5648 89.4532 81.767L89.3519 81.767Z" fill="#F4DDC0"/>
<path d="M288.087 88.6765C284.778 89.3843 282.245 90.5302 280.455 92.8558C278.125 95.9229 275.187 98.316 272.418 100.911C271.776 101.518 271.067 102.057 270.29 102.495C268.737 103.372 267.285 104.383 266.002 105.63C264.685 106.944 262.962 107.45 261.173 107.652C259.856 107.821 258.876 108.225 257.998 109.371C257.289 110.315 255.938 110.753 254.858 111.427C254.115 111.899 253.777 113.146 254.385 113.719C255.634 114.831 256.175 116.179 255.905 117.797C255.128 122.549 256.985 126.493 259.619 130.2C259.991 130.706 260.43 131.212 260.97 131.515C262.827 132.627 264.685 133.706 266.576 134.751C267.015 134.986 267.521 135.256 267.994 135.256C269.987 135.29 271.641 136.099 273.296 137.11C273.971 137.514 274.782 137.076 275.12 136.267C275.457 135.526 275.423 134.784 275.086 134.076C274.849 133.638 274.545 133.234 274.242 132.796C273.499 131.751 273.093 130.571 272.789 129.324C271.607 124.471 269.379 120.089 266.677 115.91C266.103 115 265.326 114.427 264.313 114.09C263.368 113.753 262.422 113.382 261.477 113.011C261.139 112.876 260.734 112.741 260.497 112.472C260.295 112.236 260.227 111.831 260.227 111.494C260.227 111.393 260.632 111.157 260.801 111.191C263.165 111.831 265.529 111.966 267.96 111.629C268.838 111.494 269.75 111.427 270.628 111.494C272.857 111.663 274.951 111.09 276.977 110.416C279.273 109.674 281.502 108.798 283.765 107.888C287.581 106.371 290.958 104.113 293.828 101.181C295.415 99.5293 297.002 97.8778 298.59 96.2263C298.691 96.1252 298.792 96.0578 298.826 95.9567C299.974 93.5636 302 92.0469 303.993 90.4965C304.398 90.1932 304.601 89.418 304.33 89.1483C303.993 88.8113 303.587 88.4068 303.148 88.272C302.709 88.1372 302.135 88.1709 301.663 88.272C299.636 88.6091 297.644 88.5417 295.584 88.4405C292.916 88.3394 290.248 88.6091 288.087 88.6765ZM289.37 91.1706C291.532 90.7325 293.828 90.7999 296.091 91.0021C296.563 91.0358 297.002 91.7773 296.8 92.1143C296.023 93.3951 295.348 94.8107 294.402 95.9567C291.937 98.8552 289.202 101.484 285.858 103.405C285.115 103.844 284.237 104.079 283.393 104.383C283.292 104.383 283.123 104.349 283.055 104.248C283.022 104.181 283.055 103.978 283.089 103.911C283.326 103.641 283.596 103.372 283.9 103.102C286.128 101.046 288.357 98.9901 290.552 96.9004C291.16 96.2937 291.025 95.1477 290.35 94.5074C289.843 94.0355 288.83 93.9344 288.222 94.3388C287.918 94.5411 287.547 94.7433 287.344 95.0466C286.196 96.7319 284.44 97.8104 283.292 99.5293C282.819 100.237 282.042 100.844 281.299 101.215C279.577 102.057 278.125 103.271 276.538 104.349C275.288 105.225 273.971 105.967 272.621 106.675C271.844 107.079 270.932 107.281 270.054 107.079C269.851 107.012 269.581 106.843 269.48 106.641C269.412 106.472 269.48 106.135 269.615 106.001C269.987 105.664 270.392 105.326 270.831 105.091C272.958 103.945 274.748 102.327 276.437 100.608C278.463 98.5182 280.489 96.4285 282.481 94.3388C283.191 93.5973 284.001 93.0244 284.913 92.5862C286.297 91.9121 287.682 91.3391 289.303 91.1706L289.37 91.1706ZM269.784 130.875C269.784 130.875 269.784 131.144 269.784 131.245C269.851 131.818 269.109 132.56 268.602 132.391C267.758 132.122 266.947 131.751 266.137 131.447C262.49 129.998 260.295 127.167 258.775 123.695C258.505 123.055 258.539 122.246 258.505 121.505C258.505 121.336 258.775 121.066 258.978 120.999C259.18 120.932 259.484 120.999 259.653 121.134C259.957 121.37 260.193 121.673 260.396 121.977C261.139 123.156 261.848 124.336 262.625 125.482C263.165 126.291 264.043 126.493 264.921 126.56C265.124 126.56 265.394 126.392 265.529 126.19C265.664 126.021 265.732 125.684 265.664 125.482C265.529 125.145 265.259 124.841 265.056 124.538C263.739 122.381 262.658 120.089 261.983 117.662C261.916 117.46 262.017 116.988 262.118 116.988C262.456 116.921 262.895 116.853 263.131 117.022C264.111 117.662 264.718 118.64 265.225 119.651C265.765 120.662 266.137 121.741 266.778 122.684C268.501 125.145 268.973 128.01 269.75 130.807L269.784 130.875Z" fill="#F4DDC0"/>
<path d="M298.86 116.651C297.239 117.393 295.618 118.101 293.997 118.842C293.49 119.078 293.389 119.651 293.76 120.089C293.997 120.392 294.267 120.628 294.537 120.932C295.82 122.347 296.259 123.999 295.82 125.886C295.584 126.998 295.415 128.144 295.077 129.223C294.571 130.908 293.153 131.886 291.363 131.953C289.978 131.987 288.56 132.02 287.243 131.447C286.703 131.212 286.297 130.335 286.601 129.863C287.007 129.223 287.513 128.65 287.885 127.976C288.391 127.1 289.168 126.763 290.046 126.628C290.654 126.527 291.295 126.493 291.937 126.426C293.22 126.257 293.592 125.549 293.153 124.302C292.849 123.426 292.376 122.684 291.532 122.28C290.62 121.842 289.708 121.404 288.729 121.1C287.142 120.628 285.521 120.291 283.933 119.853C282.954 119.584 282.009 119.246 281.063 118.842C278.598 117.831 276.166 116.786 273.6 116.078C273.364 116.011 273.127 115.876 272.924 115.775C272.485 115.573 272.283 114.528 272.587 114.056C273.33 112.843 274.917 112.303 276.2 112.876C277.247 113.348 278.328 113.753 279.307 114.292C283.157 116.314 287.31 116.618 291.532 116.382C293.727 116.247 295.685 115.269 297.61 114.326C298.86 113.719 299.13 113.011 298.319 111.899C297.34 110.517 297.273 109.101 297.408 107.551C297.475 106.843 297.847 106.371 298.488 106.102C298.961 105.899 299.434 105.731 299.94 105.664C303.351 105.225 305.31 106.877 305.445 110.281C305.445 111.023 305.445 111.798 305.344 112.573C305.276 113.247 304.904 113.786 304.364 114.123C303.486 114.629 302.574 115.067 301.663 115.505C300.751 115.943 299.805 116.348 298.893 116.752C298.893 116.752 298.893 116.752 298.893 116.719L298.86 116.651Z" fill="#F4DDC0"/>
<path d="M134.131 88.6765C137.44 89.3843 139.973 90.5302 141.763 92.8558C144.093 95.9229 147.031 98.316 149.8 100.911C150.441 101.518 151.151 102.057 151.927 102.495C153.481 103.372 154.933 104.383 156.216 105.63C157.533 106.944 159.255 107.45 161.045 107.652C162.362 107.821 163.342 108.225 164.22 109.371C164.929 110.315 166.279 110.753 167.36 111.427C168.103 111.899 168.441 113.146 167.833 113.719C166.583 114.831 166.043 116.179 166.313 117.797C167.09 122.549 165.233 126.493 162.599 130.2C162.227 130.706 161.788 131.212 161.248 131.515C159.39 132.627 157.533 133.706 155.642 134.751C155.203 134.986 154.696 135.256 154.224 135.256C152.231 135.29 150.577 136.099 148.922 137.11C148.246 137.514 147.436 137.076 147.098 136.267C146.761 135.526 146.794 134.784 147.132 134.076C147.368 133.638 147.672 133.234 147.976 132.796C148.719 131.751 149.124 130.571 149.428 129.324C150.61 124.471 152.839 120.089 155.541 115.91C156.115 115 156.891 114.427 157.905 114.09C158.85 113.753 159.796 113.382 160.741 113.011C161.079 112.876 161.484 112.741 161.721 112.472C161.923 112.236 161.991 111.831 161.991 111.494C161.991 111.393 161.585 111.157 161.417 111.191C159.053 111.831 156.689 111.966 154.257 111.629C153.379 111.494 152.468 111.427 151.59 111.494C149.361 111.663 147.267 111.09 145.241 110.416C142.945 109.674 140.716 108.798 138.453 107.888C134.637 106.371 131.26 104.113 128.39 101.181C126.803 99.5293 125.215 97.8778 123.628 96.2263C123.527 96.1252 123.426 96.0577 123.392 95.9566C122.244 93.5636 120.217 92.0469 118.225 90.4965C117.82 90.1932 117.617 89.418 117.887 89.1483C118.225 88.8113 118.63 88.4068 119.069 88.272C119.508 88.1372 120.082 88.1709 120.555 88.272C122.581 88.6091 124.574 88.5416 126.634 88.4405C129.302 88.3394 131.969 88.6091 134.131 88.6765ZM132.847 91.1706C130.686 90.7324 128.39 90.7998 126.127 91.0021C125.654 91.0358 125.215 91.7773 125.418 92.1143C126.195 93.3951 126.87 94.8107 127.816 95.9566C130.281 98.8552 133.016 101.484 136.359 103.405C137.102 103.843 137.98 104.079 138.825 104.383C138.926 104.383 139.095 104.349 139.162 104.248C139.196 104.181 139.162 103.978 139.129 103.911C138.892 103.641 138.622 103.372 138.318 103.102C136.089 101.046 133.86 98.99 131.665 96.9004C131.058 96.2937 131.193 95.1477 131.868 94.5073C132.375 94.0355 133.388 93.9344 133.996 94.3388C134.299 94.541 134.671 94.7433 134.874 95.0466C136.022 96.7318 137.778 97.8104 138.926 99.5293C139.399 100.237 140.175 100.844 140.918 101.215C142.641 102.057 144.093 103.271 145.68 104.349C146.929 105.225 148.246 105.967 149.597 106.675C150.374 107.079 151.286 107.281 152.164 107.079C152.366 107.012 152.636 106.843 152.738 106.641C152.805 106.472 152.738 106.135 152.603 106.001C152.231 105.664 151.826 105.326 151.387 105.091C149.26 103.945 147.47 102.327 145.781 100.608C143.755 98.5182 141.729 96.4285 139.736 94.3388C139.027 93.5973 138.217 93.0243 137.305 92.5862C135.92 91.9121 134.536 91.3391 132.915 91.1706L132.847 91.1706ZM152.434 130.874C152.434 130.874 152.434 131.144 152.434 131.245C152.366 131.818 153.109 132.56 153.616 132.391C154.46 132.122 155.271 131.751 156.081 131.447C159.728 129.998 161.923 127.167 163.443 123.695C163.713 123.055 163.679 122.246 163.713 121.505C163.713 121.336 163.443 121.066 163.24 120.999C163.038 120.932 162.734 120.999 162.565 121.134C162.261 121.37 162.024 121.673 161.822 121.977C161.079 123.156 160.37 124.336 159.593 125.482C159.053 126.291 158.175 126.493 157.297 126.56C157.094 126.56 156.824 126.392 156.689 126.19C156.554 126.021 156.486 125.684 156.554 125.482C156.689 125.145 156.959 124.841 157.162 124.538C158.479 122.381 159.559 120.089 160.235 117.662C160.302 117.46 160.201 116.988 160.1 116.988C159.762 116.921 159.323 116.853 159.087 117.022C158.107 117.662 157.499 118.64 156.993 119.651C156.452 120.662 156.081 121.741 155.439 122.684C153.717 125.145 153.244 128.01 152.468 130.807L152.434 130.874Z" fill="#F4DDC0"/>
<path d="M123.358 116.651C124.979 117.393 126.6 118.1 128.221 118.842C128.727 119.078 128.829 119.651 128.457 120.089C128.221 120.392 127.951 120.628 127.681 120.932C126.397 122.347 125.958 123.999 126.397 125.886C126.634 126.998 126.803 128.144 127.14 129.223C127.647 130.908 129.065 131.886 130.855 131.953C132.24 131.987 133.658 132.02 134.975 131.447C135.515 131.212 135.92 130.335 135.616 129.863C135.211 129.223 134.705 128.65 134.333 127.976C133.827 127.1 133.05 126.763 132.172 126.628C131.564 126.527 130.922 126.493 130.281 126.426C128.998 126.257 128.626 125.549 129.065 124.302C129.369 123.426 129.842 122.684 130.686 122.28C131.598 121.842 132.51 121.404 133.489 121.1C135.076 120.628 136.697 120.291 138.284 119.853C139.264 119.583 140.209 119.246 141.155 118.842C143.62 117.831 146.051 116.786 148.618 116.078C148.854 116.011 149.091 115.876 149.293 115.775C149.732 115.573 149.935 114.528 149.631 114.056C148.888 112.843 147.301 112.303 146.018 112.876C144.971 113.348 143.89 113.753 142.911 114.292C139.061 116.314 134.907 116.617 130.686 116.382C128.491 116.247 126.532 115.269 124.608 114.326C123.358 113.719 123.088 113.011 123.898 111.899C124.878 110.517 124.945 109.101 124.81 107.551C124.743 106.843 124.371 106.371 123.73 106.102C123.257 105.899 122.784 105.731 122.277 105.664C118.867 105.225 116.908 106.877 116.773 110.281C116.773 111.023 116.773 111.798 116.874 112.573C116.942 113.247 117.313 113.786 117.854 114.123C118.732 114.629 119.643 115.067 120.555 115.505C121.467 115.943 122.413 116.348 123.324 116.752C123.324 116.752 123.324 116.752 123.324 116.719L123.358 116.651Z" fill="#F4DDC0"/>
</g>
<defs>
<filter id="filter0_d_646_10" x="60" y="5" width="308" height="76.4468" filterUnits="userSpaceOnUse" color-interpolation-filters="sRGB">
<feFlood flood-opacity="0" result="BackgroundImageFix"/>
<feColorMatrix in="SourceAlpha" type="matrix" values="0 0 0 0 0 0 0 0 0 0 0 0 0 0 0 0 0 0 127 0" result="hardAlpha"/>
<feOffset dy="4"/>
<feGaussianBlur stdDeviation="2"/>
<feComposite in2="hardAlpha" operator="out"/>
<feColorMatrix type="matrix" values="0 0 0 0 0 0 0 0 0 0 0 0 0 0 0 0 0 0 0.25 0"/>
<feBlend mode="normal" in2="BackgroundImageFix" result="effect1_dropShadow_646_10"/>
<feBlend mode="normal" in="SourceGraphic" in2="effect1_dropShadow_646_10" result="shape"/>
</filter>
<filter id="filter1_d_646_10" x="59" y="73" width="308" height="76.4468" filterUnits="userSpaceOnUse" color-interpolation-filters="sRGB">
<feFlood flood-opacity="0" result="BackgroundImageFix"/>
<feColorMatrix in="SourceAlpha" type="matrix" values="0 0 0 0 0 0 0 0 0 0 0 0 0 0 0 0 0 0 127 0" result="hardAlpha"/>
<feOffset dy="4"/>
<feGaussianBlur stdDeviation="2"/>
<feComposite in2="hardAlpha" operator="out"/>
<feColorMatrix type="matrix" values="0 0 0 0 0 0 0 0 0 0 0 0 0 0 0 0 0 0 0.25 0"/>
<feBlend mode="normal" in2="BackgroundImageFix" result="effect1_dropShadow_646_10"/>
<feBlend mode="normal" in="SourceGraphic" in2="effect1_dropShadow_646_10" result="shape"/>
</filter>
</defs>
</svg>
