<svg width="428" height="77" viewBox="0 0 428 77" fill="none" xmlns="http://www.w3.org/2000/svg">
<g filter="url(#filter0_d_640_9)">
<rect x="358.95" y="48.7451" width="0.490196" height="4.0098" rx="0.245098" fill="url(#paint0_linear_640_9)" stroke="#7A4200" stroke-width="0.490196"/>
<rect x="353.56" y="48.7451" width="0.490196" height="4.0098" rx="0.245098" fill="url(#paint1_linear_640_9)" stroke="#7A4200" stroke-width="0.490196"/>
<rect x="348.657" y="48.7451" width="0.490196" height="4.0098" rx="0.245098" fill="url(#paint2_linear_640_9)" stroke="#7A4200" stroke-width="0.490196"/>
<rect x="363.608" y="48.7451" width="0.490196" height="4.0098" rx="0.245098" fill="url(#paint3_linear_640_9)" stroke="#7A4200" stroke-width="0.490196"/>
<path d="M364.343 48.9495L365.937 37.4745H364.588H363.608H362.628H361.647H360.422L359.319 48.9495H364.343Z" fill="url(#paint4_linear_640_9)"/>
<path d="M348.412 48.9495L346.941 37.2495H348.289H349.27H350.25H351.231H352.456L353.682 48.9495H348.412Z" fill="url(#paint5_linear_640_9)"/>
<path d="M361.647 37.4745H360.422L359.319 48.9495H364.343L365.937 37.4745H364.588M361.647 37.4745L361.157 41.2995M361.647 37.4745H362.628M362.628 37.4745L362.015 43.0995M362.628 37.4745H363.608M363.608 37.4745L362.75 45.1245M363.608 37.4745H364.588M364.588 37.4745L363.608 48.0495M351.231 37.2495H352.456L353.682 48.9495H348.412L346.941 37.2495H348.289M351.231 37.2495L351.721 41.0745M351.231 37.2495H350.25M350.25 37.2495L350.863 42.8745M350.25 37.2495H349.27M349.27 37.2495L350.128 44.8995M349.27 37.2495H348.289M348.289 37.2495L349.27 47.8245" stroke="#7A4200" stroke-width="0.5" stroke-linecap="round"/>
<path d="M356.498 28.475V24.1301C362.262 24.1301 364.946 19.3767 365.567 17L362.834 28.475H356.498Z" fill="url(#paint6_linear_640_9)"/>
<path d="M356.498 28.475V24.1301C350.734 24.1301 348.051 19.3767 347.43 17L350.163 28.475H356.498Z" fill="url(#paint7_linear_640_9)"/>
<path d="M356.498 24.1301V28.475M356.498 24.1301C362.262 24.1301 364.946 19.3767 365.567 17L362.834 28.475H356.498M356.498 24.1301C350.734 24.1301 348.051 19.3767 347.43 17L350.163 28.475H356.498" stroke="#7A4200" stroke-width="0.5"/>
<path d="M356.5 37.4747V33.6497C369 33.6497 368.51 26.7872 369 26.4497L366.426 37.4747H356.5Z" fill="url(#paint8_linear_640_9)"/>
<path d="M356.5 37.4747V33.6497C344 33.6497 344.49 26.7872 344 26.4497L346.574 37.4747H356.5Z" fill="url(#paint9_linear_640_9)"/>
<path d="M356.5 33.6497V37.4747M356.5 33.6497C369 33.6497 368.51 26.7872 369 26.4497L366.426 37.4747H356.5M356.5 33.6497C344 33.6497 344.49 26.7872 344 26.4497L346.574 37.4747H356.5" stroke="#7A4200" stroke-width="0.5"/>
<path d="M361.157 28.4751L360.426 36.0126L359.128 49.4001H357.814H356.501V43.7751V36.0126V28.4751H358.247H359.411H361.157Z" fill="url(#paint10_linear_640_9)"/>
<path d="M351.844 28.4751L352.575 36.0126L353.874 49.4001H355.187H356.501V43.7751V36.0126V28.4751H354.754H353.59H351.844Z" fill="url(#paint11_linear_640_9)"/>
<path d="M360.426 36.0126L361.157 28.4751H359.411M360.426 36.0126L359.128 49.4001M360.426 36.0126L356.501 43.7751M360.426 36.0126H358.463M359.128 49.4001L356.501 43.7751M359.128 49.4001H357.814M356.501 49.4001V43.7751M356.501 49.4001H357.814M356.501 49.4001H355.187M356.501 43.7751V36.0126M356.501 43.7751L352.575 36.0126M356.501 43.7751L353.874 49.4001M356.501 36.0126H357.482M356.501 36.0126H355.519M356.501 36.0126V28.4751M358.463 36.0126V37.8126M358.463 36.0126H357.482M357.482 36.0126V39.2751M359.411 28.4751V30.5001M359.411 28.4751H358.247M356.501 28.4751H358.247M356.501 28.4751H354.754M358.247 28.4751V29.8251M357.814 49.4001V48.2751M352.575 36.0126L351.844 28.4751H353.59M352.575 36.0126L353.874 49.4001M352.575 36.0126H354.538M353.874 49.4001H355.187M354.538 36.0126V37.8126M354.538 36.0126H355.519M355.519 36.0126V39.2751M353.59 28.4751V30.5001M353.59 28.4751H354.754M354.754 28.4751V29.8251M355.187 49.4001V48.2751" stroke="#7A4200" stroke-width="0.5" stroke-linecap="round"/>
<path d="M363.362 36.8C357.747 33.9875 356.749 23.975 356.499 23.75V31.5125C357.697 34.3025 359.91 36.2 360.867 36.8H363.362Z" fill="url(#paint12_linear_640_9)"/>
<path d="M349.637 36.8C355.252 33.9875 356.25 23.975 356.499 23.75V31.5125C355.302 34.3025 353.089 36.2 352.132 36.8H349.637Z" fill="url(#paint13_linear_640_9)"/>
<path d="M356.499 23.75C356.749 23.975 357.747 33.9875 363.362 36.8H360.867C359.91 36.2 357.697 34.3025 356.499 31.5125M356.499 23.75V31.5125M356.499 23.75C356.25 23.975 355.252 33.9875 349.637 36.8H352.132C353.089 36.2 355.302 34.3025 356.499 31.5125" stroke="#7A4200" stroke-width="0.5"/>
</g>
<g filter="url(#filter1_d_640_9)">
<rect x="77.9502" y="48.7451" width="0.490196" height="4.0098" rx="0.245098" fill="url(#paint14_linear_640_9)" stroke="#7A4200" stroke-width="0.490196"/>
<rect x="72.5596" y="48.7451" width="0.490196" height="4.0098" rx="0.245098" fill="url(#paint15_linear_640_9)" stroke="#7A4200" stroke-width="0.490196"/>
<rect x="67.6572" y="48.7451" width="0.490196" height="4.0098" rx="0.245098" fill="url(#paint16_linear_640_9)" stroke="#7A4200" stroke-width="0.490196"/>
<rect x="82.6084" y="48.7451" width="0.490196" height="4.0098" rx="0.245098" fill="url(#paint17_linear_640_9)" stroke="#7A4200" stroke-width="0.490196"/>
<path d="M83.3434 48.9495L84.9365 37.4745H83.5885H82.6081H81.6277H80.6473H79.4218L78.3189 48.9495H83.3434Z" fill="url(#paint18_linear_640_9)"/>
<path d="M67.412 48.9495L65.9414 37.2495H67.2894H68.2698H69.2502H70.2306H71.4561L72.6816 48.9495H67.412Z" fill="url(#paint19_linear_640_9)"/>
<path d="M80.6473 37.4745H79.4218L78.3189 48.9495H83.3434L84.9365 37.4745H83.5885M80.6473 37.4745L80.1571 41.2995M80.6473 37.4745H81.6277M81.6277 37.4745L81.0149 43.0995M81.6277 37.4745H82.6081M82.6081 37.4745L81.7502 45.1245M82.6081 37.4745H83.5885M83.5885 37.4745L82.6081 48.0495M70.2306 37.2495H71.4561L72.6816 48.9495H67.412L65.9414 37.2495H67.2894M70.2306 37.2495L70.7208 41.0745M70.2306 37.2495H69.2502M69.2502 37.2495L69.863 42.8745M69.2502 37.2495H68.2698M68.2698 37.2495L69.1277 44.8995M68.2698 37.2495H67.2894M67.2894 37.2495L68.2698 47.8245" stroke="#7A4200" stroke-width="0.5" stroke-linecap="round"/>
<path d="M75.4983 28.475V24.1301C81.2625 24.1301 83.9458 19.3767 84.5669 17L81.8339 28.475H75.4983Z" fill="url(#paint20_linear_640_9)"/>
<path d="M75.4983 28.475V24.1301C69.7341 24.1301 67.0508 19.3767 66.4297 17L69.1627 28.475H75.4983Z" fill="url(#paint21_linear_640_9)"/>
<path d="M75.4983 24.1301V28.475M75.4983 24.1301C81.2625 24.1301 83.9458 19.3767 84.5669 17L81.8339 28.475H75.4983M75.4983 24.1301C69.7341 24.1301 67.0508 19.3767 66.4297 17L69.1627 28.475H75.4983" stroke="#7A4200" stroke-width="0.5"/>
<path d="M75.5 37.4747V33.6497C88 33.6497 87.5098 26.7872 88 26.4497L85.4265 37.4747H75.5Z" fill="url(#paint22_linear_640_9)"/>
<path d="M75.5 37.4747V33.6497C63 33.6497 63.4902 26.7872 63 26.4497L65.5735 37.4747H75.5Z" fill="url(#paint23_linear_640_9)"/>
<path d="M75.5 33.6497V37.4747M75.5 33.6497C88 33.6497 87.5098 26.7872 88 26.4497L85.4265 37.4747H75.5M75.5 33.6497C63 33.6497 63.4902 26.7872 63 26.4497L65.5735 37.4747H75.5" stroke="#7A4200" stroke-width="0.5"/>
<path d="M80.1575 28.4751L79.4263 36.0126L78.1276 49.4001H76.8141H75.5006V43.7751V36.0126V28.4751H77.2469H78.4112H80.1575Z" fill="url(#paint24_linear_640_9)"/>
<path d="M70.8438 28.4751L71.575 36.0126L72.8737 49.4001H74.1871H75.5006V43.7751V36.0126V28.4751H73.7543H72.5901H70.8438Z" fill="url(#paint25_linear_640_9)"/>
<path d="M79.4263 36.0126L80.1575 28.4751H78.4112M79.4263 36.0126L78.1276 49.4001M79.4263 36.0126L75.5006 43.7751M79.4263 36.0126H77.4634M78.1276 49.4001L75.5006 43.7751M78.1276 49.4001H76.8141M75.5006 49.4001V43.7751M75.5006 49.4001H76.8141M75.5006 49.4001H74.1871M75.5006 43.7751V36.0126M75.5006 43.7751L71.575 36.0126M75.5006 43.7751L72.8737 49.4001M75.5006 36.0126H76.482M75.5006 36.0126H74.5192M75.5006 36.0126V28.4751M77.4634 36.0126V37.8126M77.4634 36.0126H76.482M76.482 36.0126V39.2751M78.4112 28.4751V30.5001M78.4112 28.4751H77.2469M75.5006 28.4751H77.2469M75.5006 28.4751H73.7543M77.2469 28.4751V29.8251M76.8141 49.4001V48.2751M71.575 36.0126L70.8438 28.4751H72.5901M71.575 36.0126L72.8737 49.4001M71.575 36.0126H73.5378M72.8737 49.4001H74.1871M73.5378 36.0126V37.8126M73.5378 36.0126H74.5192M74.5192 36.0126V39.2751M72.5901 28.4751V30.5001M72.5901 28.4751H73.7543M73.7543 28.4751V29.8251M74.1871 49.4001V48.2751" stroke="#7A4200" stroke-width="0.5" stroke-linecap="round"/>
<path d="M82.3622 36.8C76.7472 33.9875 75.749 23.975 75.4995 23.75V31.5125C76.6973 34.3025 78.91 36.2 79.8667 36.8H82.3622Z" fill="url(#paint26_linear_640_9)"/>
<path d="M68.6367 36.8C74.2517 33.9875 75.2499 23.975 75.4995 23.75V31.5125C74.3016 34.3025 72.0889 36.2 71.1323 36.8H68.6367Z" fill="url(#paint27_linear_640_9)"/>
<path d="M75.4995 23.75C75.749 23.975 76.7472 33.9875 82.3622 36.8H79.8667C78.91 36.2 76.6973 34.3025 75.4995 31.5125M75.4995 23.75V31.5125M75.4995 23.75C75.2499 23.975 74.2517 33.9875 68.6367 36.8H71.1323C72.0889 36.2 74.3016 34.3025 75.4995 31.5125" stroke="#7A4200" stroke-width="0.5"/>
</g>
<g filter="url(#filter2_d_640_9)">
<path d="M114.52 44.0898C115.098 44.0898 115.621 43.957 116.09 43.6914C116.559 43.418 116.918 43.1484 117.168 42.8828C117.746 42.2656 118.035 41.5234 118.035 40.6562C118.035 39.2969 117.59 38.2617 116.699 37.5508C115.809 36.832 114.609 36.4727 113.102 36.4727H111.531C111.43 36.4727 111.379 36.3633 111.379 36.1445V34.8203C111.379 34.6016 111.43 34.4922 111.531 34.4922H113.102C114.328 34.4922 115.227 34.168 115.797 33.5195C116.367 32.8711 116.652 32.1719 116.652 31.4219C116.652 30.9531 116.566 30.543 116.395 30.1914C116.23 29.832 115.961 29.5156 115.586 29.2422C115.219 28.9609 114.84 28.793 114.449 28.7383L114.191 28.7031H111.449C111.27 28.7031 111.113 28.7617 110.98 28.8789C110.848 28.9883 110.781 29.1289 110.781 29.3008V43.4922C110.781 43.6641 110.848 43.8086 110.98 43.9258C111.113 44.0352 111.27 44.0898 111.449 44.0898H114.52ZM114.086 46H107.746C107.645 46 107.594 45.9336 107.594 45.8008C107.594 45.6602 107.609 45.5781 107.641 45.5547C107.68 45.5234 107.73 45.4961 107.793 45.4727C107.855 45.4414 107.934 45.3789 108.027 45.2852C108.129 45.1836 108.234 45.0039 108.344 44.7461C108.453 44.4805 108.508 44.2148 108.508 43.9492V28.8555C108.508 28.2852 108.32 27.8125 107.945 27.4375C107.914 27.4062 107.848 27.3672 107.746 27.3203C107.645 27.2734 107.594 27.1758 107.594 27.0273C107.594 26.8789 107.645 26.8047 107.746 26.8047H114.027C114.691 26.8047 115.328 26.9336 115.938 27.1914C116.547 27.4492 117.062 27.7891 117.484 28.2109C118.414 29.1406 118.879 30.1406 118.879 31.2109C118.879 32.0234 118.676 32.7188 118.27 33.2969C117.863 33.8672 117.195 34.4961 116.266 35.1836V35.4297C118.992 36.5469 120.355 38.2812 120.355 40.6328C120.355 41.8828 119.797 43.0703 118.68 44.1953C118.156 44.7266 117.492 45.1602 116.688 45.4961C115.883 45.832 115.016 46 114.086 46ZM130.176 37.8555C129.715 36.5352 128.719 35.875 127.188 35.875C126.492 35.875 125.855 36.0625 125.277 36.4375C124.699 36.8047 124.254 37.2773 123.941 37.8555C123.637 38.4258 123.484 38.9648 123.484 39.4727C123.484 39.9805 123.5 40.2305 123.531 40.2227L130.152 37.9141V37.8438L130.176 37.8555ZM123.789 41.4648C124.125 42.3867 124.691 43.1094 125.488 43.6328C126.285 44.1562 127.191 44.418 128.207 44.418C129.496 44.418 130.672 43.8125 131.734 42.6016C131.898 42.4453 132.141 42.5273 132.461 42.8477C132.484 42.8711 132.48 42.9062 132.449 42.9531C131.559 44.1875 130.867 44.9766 130.375 45.3203C129.539 45.9141 128.574 46.2109 127.48 46.2109C126.738 46.2109 126.02 46.0625 125.324 45.7656C123.895 45.1406 122.875 44.1406 122.266 42.7656C121.953 42.0625 121.797 41.2305 121.797 40.2695C121.797 39.3008 122.039 38.3711 122.523 37.4805C123.016 36.582 123.723 35.875 124.645 35.3594C125.574 34.8438 126.641 34.5859 127.844 34.5859C129.312 34.5859 130.617 35.2656 131.758 36.625C132.336 37.3125 132.625 37.8594 132.625 38.2656L123.789 41.4648ZM141.355 37.2227C141.355 37.3086 141.277 37.3516 141.121 37.3516C140.965 37.3438 140.871 37.3398 140.84 37.3398C140.746 37.3398 140.676 37.2734 140.629 37.1406C140.457 36.7344 140.098 36.4023 139.551 36.1445C139.004 35.8789 138.469 35.7461 137.945 35.7461C137.422 35.7461 136.969 35.875 136.586 36.1328C136.203 36.3906 136.012 36.7188 136.012 37.1172C136.012 37.5078 136.188 37.8359 136.539 38.1016C136.891 38.3672 137.246 38.5977 137.605 38.793C137.973 38.9805 138.215 39.1094 138.332 39.1797L139.445 39.8125C140.445 40.3594 141.109 40.9375 141.438 41.5469C141.664 41.9688 141.777 42.4883 141.777 43.1055C141.777 43.7148 141.602 44.2734 141.25 44.7812C140.57 45.7578 139.434 46.2461 137.84 46.2461C137.027 46.2461 136.051 46.1055 134.91 45.8242C134.879 45.8086 134.824 45.793 134.746 45.7773C134.668 45.7617 134.594 45.7383 134.523 45.707C134.461 45.6758 134.426 45.5938 134.418 45.4609C134.41 45.3281 134.359 45.0547 134.266 44.6406C134.172 44.2188 134.125 43.9492 134.125 43.832C134.125 43.7148 134.133 43.6445 134.148 43.6211C134.172 43.5898 134.195 43.5664 134.219 43.5508C134.242 43.5273 134.277 43.5078 134.324 43.4922C134.371 43.4688 134.406 43.4531 134.43 43.4453C134.453 43.4375 134.488 43.4258 134.535 43.4102C134.715 43.3555 134.879 43.4453 135.027 43.6797C135.184 43.9062 135.625 44.1641 136.352 44.4531C137.086 44.7344 137.719 44.875 138.25 44.875C138.781 44.875 139.211 44.7422 139.539 44.4766C139.875 44.2031 140.043 43.8398 140.043 43.3867C140.043 42.7539 139.664 42.2383 138.906 41.8398L136.797 40.7148C136.227 40.3945 135.84 40.1484 135.637 39.9766C135.152 39.5547 134.812 39.1523 134.617 38.7695C134.422 38.3867 134.324 37.9531 134.324 37.4688C134.324 36.5156 134.676 35.8008 135.379 35.3242C136.09 34.8477 137.062 34.6094 138.297 34.6094C138.844 34.6094 139.445 34.6484 140.102 34.7266C140.766 34.8047 141.176 34.9258 141.332 35.0898C141.355 35.1133 141.367 35.4102 141.367 35.9805C141.375 36.5508 141.371 36.9648 141.355 37.2227ZM144.965 32.7461C144.988 32.5898 145.129 32.5117 145.387 32.5117C145.652 32.5117 145.785 32.5898 145.785 32.7461V34.832H147.859C148.258 34.832 148.457 34.8828 148.457 34.9844V36.0156C148.457 36.1172 148.258 36.168 147.859 36.168H145.785V43.4453C145.785 44.375 146.059 44.8945 146.605 45.0039C147.02 45.0898 147.449 44.9336 147.895 44.5352C148.074 44.3711 148.199 44.332 148.27 44.418C148.348 44.5039 148.402 44.5703 148.434 44.6172C148.465 44.6641 148.48 44.7109 148.48 44.7578C148.48 44.7969 148.48 44.8281 148.48 44.8516C148.488 44.8906 148.445 44.957 148.352 45.0508L148.105 45.2617C147.293 45.9648 146.5 46.2852 145.727 46.2227C144.961 46.1602 144.422 45.7109 144.109 44.875C143.938 44.4219 143.852 43.8711 143.852 43.2227V36.168H143.312C142.914 36.168 142.715 36.1172 142.715 36.0156V34.9844C142.715 34.8828 142.879 34.832 143.207 34.832C143.785 34.832 144.199 34.6289 144.449 34.2227C144.707 33.8164 144.879 33.3242 144.965 32.7461ZM158.465 36.6602C157.957 36.9805 157.582 37.4023 157.34 37.9258C157.098 38.4414 156.977 39.0977 156.977 39.8945C156.977 40.6914 157.195 41.4883 157.633 42.2852C158.078 43.082 158.684 43.7148 159.449 44.1836C160.223 44.6445 160.988 44.875 161.746 44.875C162.512 44.875 163.133 44.7031 163.609 44.3594C164.094 44.0156 164.461 43.5703 164.711 43.0234C164.969 42.4766 165.098 41.875 165.098 41.2188C165.098 39.8359 164.656 38.6484 163.773 37.6562C162.898 36.6641 161.723 36.168 160.246 36.168C159.566 36.168 158.973 36.332 158.465 36.6602ZM157.012 44.5703C156.496 44.0703 156.078 43.4688 155.758 42.7656C155.445 42.0625 155.289 41.2305 155.289 40.2695C155.289 39.3086 155.535 38.375 156.027 37.4688C156.52 36.5625 157.227 35.8555 158.148 35.3477C159.07 34.8398 160.027 34.5859 161.02 34.5859C162.832 34.5859 164.273 35.1562 165.344 36.2969C166.414 37.4297 166.949 38.8086 166.949 40.4336C166.957 42.0586 166.395 43.4297 165.262 44.5469C164.129 45.6562 162.699 46.2109 160.973 46.2109C160.238 46.2109 159.523 46.0625 158.828 45.7656C158.141 45.4688 157.535 45.0703 157.012 44.5703ZM175.574 29.9453L175.668 29.2656C175.668 29.1094 175.547 28.9102 175.305 28.668C175.062 28.418 174.746 28.293 174.355 28.293C173.973 28.293 173.566 28.4219 173.137 28.6797C172.707 28.9297 172.32 29.2578 171.977 29.6641C171.641 30.0625 171.363 30.5391 171.145 31.0938C170.926 31.6406 170.816 32.1914 170.816 32.7461V34.832H175.352C175.672 34.832 175.871 34.8828 175.949 34.9844V36.0156C175.863 36.1172 175.664 36.168 175.352 36.168H170.816V44.4531C170.816 44.6094 170.863 44.7891 170.957 44.9922C171.059 45.1875 171.211 45.3281 171.414 45.4141C171.625 45.5 171.73 45.5859 171.73 45.6719C171.73 45.8906 171.68 46 171.578 46H168.121C168.02 46 167.969 45.9297 167.969 45.7891C167.969 45.6484 168 45.5586 168.062 45.5195C168.133 45.4805 168.215 45.4414 168.309 45.4023C168.41 45.3633 168.488 45.3164 168.543 45.2617C168.605 45.1992 168.66 45.1328 168.707 45.0625C168.754 44.9844 168.789 44.9219 168.812 44.875C168.836 44.8203 168.852 44.7461 168.859 44.6523C168.875 44.5508 168.883 44.4844 168.883 44.4531C168.891 44.4141 168.891 44.332 168.883 44.207C168.883 44.0742 168.883 43.9883 168.883 43.9492V36.168H168.168C167.855 36.168 167.656 36.1172 167.57 36.0156V34.9844C167.648 34.8828 167.848 34.832 168.168 34.832H168.883V32.1719C168.883 31.2188 169.246 30.2461 169.973 29.2539C170.707 28.2617 171.605 27.5625 172.668 27.1562C173.254 26.9297 173.852 26.8164 174.461 26.8164C175.695 26.8164 176.742 27.2461 177.602 28.1055C177.805 28.3242 177.812 28.5234 177.625 28.7031L176.055 30.1562C176 30.2031 175.906 30.2031 175.773 30.1562C175.641 30.1016 175.574 30.0312 175.574 29.9453ZM191.945 44.0078C192.711 44.3125 193.461 44.4648 194.195 44.4648C196.695 44.4648 198.684 43.7344 200.16 42.2734C201.645 40.8047 202.387 38.8359 202.387 36.3672C202.387 35.5156 202.168 34.6211 201.73 33.6836C201.301 32.7461 200.723 31.8906 199.996 31.1172C199.27 30.3359 198.379 29.6914 197.324 29.1836C196.277 28.6758 195.09 28.4219 193.762 28.4219C192.434 28.4219 191.18 28.7578 190 29.4297C188.82 30.1016 187.91 31.0312 187.27 32.2188C186.629 33.4062 186.309 34.7852 186.309 36.3555C186.309 37.918 186.879 39.4375 188.02 40.9141C189.168 42.3906 190.477 43.4219 191.945 44.0078ZM187.035 43.457C186.16 42.543 185.465 41.4609 184.949 40.2109C184.434 38.9531 184.176 37.6562 184.176 36.3203C184.176 34.9766 184.445 33.6992 184.984 32.4883C185.531 31.2695 186.25 30.2188 187.141 29.3359C188.039 28.4453 189.094 27.7344 190.305 27.2031C191.523 26.6719 192.73 26.4062 193.926 26.4062C195.121 26.4062 196.238 26.5625 197.277 26.875C199.332 27.4922 201.043 28.6445 202.41 30.332C203.785 32.0117 204.473 33.9883 204.473 36.2617C204.473 37.5977 204.23 38.875 203.746 40.0938C203.262 41.3125 202.582 42.3945 201.707 43.3398C200.84 44.2773 199.742 45.0273 198.414 45.5898C197.094 46.1523 195.699 46.4336 194.23 46.4336C192.762 46.4336 191.414 46.1641 190.188 45.625C188.961 45.0859 187.91 44.3633 187.035 43.457ZM206.512 36.7891L206.523 36.5781C206.523 36.5547 206.797 36.3242 207.344 35.8867C207.898 35.4414 208.375 35.0898 208.773 34.832H209.348C209.395 34.8789 209.418 35 209.418 35.1953V42.3555C209.418 42.8477 209.574 43.2852 209.887 43.668C210.512 44.418 211.395 44.793 212.535 44.793C213.316 44.793 214.195 44.5352 215.172 44.0195L215.688 43.75V36.5078C215.688 35.9375 215.496 35.5781 215.113 35.4297C215.012 35.3906 214.93 35.3516 214.867 35.3125C214.805 35.2734 214.773 35.1836 214.773 35.043C214.773 34.9023 214.824 34.832 214.926 34.832H217.562C217.609 34.832 217.633 36.1016 217.633 38.6406L217.621 43.2344C217.621 43.6719 217.754 44.0078 218.02 44.2422C218.082 44.2969 218.184 44.3281 218.324 44.3359C218.465 44.3438 218.555 44.3672 218.594 44.4062C218.641 44.4375 218.664 44.5273 218.664 44.6758C218.672 44.8164 218.656 44.8984 218.617 44.9219L216.332 46.1172C216.301 46.1406 216.199 46.1523 216.027 46.1523C215.855 46.1523 215.754 46.1367 215.723 46.1055C215.691 46.0742 215.676 45.9688 215.676 45.7891V44.7695C215.668 44.7695 215.605 44.8125 215.488 44.8984C214.027 45.8594 212.801 46.3398 211.809 46.3398C211.145 46.3398 210.477 46.1719 209.805 45.8359C209.133 45.4922 208.578 45.0312 208.141 44.4531C207.703 43.875 207.484 43.2734 207.484 42.6484V37.9492C207.484 37.6211 207.422 37.3867 207.297 37.2461C207.172 37.0977 207.035 37.0234 206.887 37.0234C206.738 37.0156 206.645 36.9961 206.605 36.9648C206.543 36.918 206.512 36.8594 206.512 36.7891ZM222.027 32.7461C222.051 32.5898 222.191 32.5117 222.449 32.5117C222.715 32.5117 222.848 32.5898 222.848 32.7461V34.832H224.922C225.32 34.832 225.52 34.8828 225.52 34.9844V36.0156C225.52 36.1172 225.32 36.168 224.922 36.168H222.848V43.4453C222.848 44.375 223.121 44.8945 223.668 45.0039C224.082 45.0898 224.512 44.9336 224.957 44.5352C225.137 44.3711 225.262 44.332 225.332 44.418C225.41 44.5039 225.465 44.5703 225.496 44.6172C225.527 44.6641 225.543 44.7109 225.543 44.7578C225.543 44.7969 225.543 44.8281 225.543 44.8516C225.551 44.8906 225.508 44.957 225.414 45.0508L225.168 45.2617C224.355 45.9648 223.562 46.2852 222.789 46.2227C222.023 46.1602 221.484 45.7109 221.172 44.875C221 44.4219 220.914 43.8711 220.914 43.2227V36.168H220.375C219.977 36.168 219.777 36.1172 219.777 36.0156V34.9844C219.777 34.8828 219.941 34.832 220.27 34.832C220.848 34.832 221.262 34.6289 221.512 34.2227C221.77 33.8164 221.941 33.3242 222.027 32.7461ZM236.242 27.9062C235.75 27.7422 235.363 27.6602 235.082 27.6602C234.66 27.6602 234.324 27.6836 234.074 27.7305C233.824 27.7695 233.688 27.7695 233.664 27.7305C233.641 27.6914 233.629 27.6328 233.629 27.5547C233.629 27.4766 233.656 27.3945 233.711 27.3086C233.766 27.2227 233.832 27.1719 233.91 27.1562C235.074 26.8906 236.668 26.7578 238.691 26.7578L244.574 36.3672H244.691L250.316 26.7578C252.34 26.7578 253.934 26.8906 255.098 27.1562C255.285 27.1953 255.379 27.3398 255.379 27.5898C255.379 27.7305 255.254 27.7812 255.004 27.7422C254.754 27.6953 254.422 27.6719 254.008 27.6719C253.594 27.6719 253.152 27.7617 252.684 27.9414L254.922 43.9492C255.031 44.7852 255.285 45.2969 255.684 45.4844C255.785 45.5312 255.836 45.6289 255.836 45.7773C255.836 45.9258 255.785 46 255.684 46H251.781C251.68 46 251.629 45.9336 251.629 45.8008C251.629 45.6602 251.645 45.5781 251.676 45.5547C251.715 45.5234 251.766 45.4922 251.828 45.4609C252.031 45.375 252.207 45.1484 252.355 44.7812C252.512 44.4062 252.59 44.1523 252.59 44.0195C252.59 43.8789 252.586 43.7852 252.578 43.7383L250.691 29.8164H250.633L244.844 39.9414C244.82 39.9805 244.676 39.9961 244.41 39.9883C244.152 39.9805 244.016 39.9648 244 39.9414L237.965 29.8164H237.859L236.137 43.7383C236.098 43.9883 236.148 44.2852 236.289 44.6289C236.43 44.9648 236.547 45.1797 236.641 45.2734C236.734 45.3672 236.832 45.4375 236.934 45.4844C237.035 45.5312 237.086 45.6289 237.086 45.7773C237.086 45.9258 237.035 46 236.934 46H233.359C233.258 46 233.207 45.9336 233.207 45.8008C233.207 45.6602 233.223 45.5781 233.254 45.5547C233.293 45.5234 233.344 45.4922 233.406 45.4609C233.773 45.3047 234.012 44.8008 234.121 43.9492L236.242 27.9062ZM261.027 36.6602C260.52 36.9805 260.145 37.4023 259.902 37.9258C259.66 38.4414 259.539 39.0977 259.539 39.8945C259.539 40.6914 259.758 41.4883 260.195 42.2852C260.641 43.082 261.246 43.7148 262.012 44.1836C262.785 44.6445 263.551 44.875 264.309 44.875C265.074 44.875 265.695 44.7031 266.172 44.3594C266.656 44.0156 267.023 43.5703 267.273 43.0234C267.531 42.4766 267.66 41.875 267.66 41.2188C267.66 39.8359 267.219 38.6484 266.336 37.6562C265.461 36.6641 264.285 36.168 262.809 36.168C262.129 36.168 261.535 36.332 261.027 36.6602ZM259.574 44.5703C259.059 44.0703 258.641 43.4688 258.32 42.7656C258.008 42.0625 257.852 41.2305 257.852 40.2695C257.852 39.3086 258.098 38.375 258.59 37.4688C259.082 36.5625 259.789 35.8555 260.711 35.3477C261.633 34.8398 262.59 34.5859 263.582 34.5859C265.395 34.5859 266.836 35.1562 267.906 36.2969C268.977 37.4297 269.512 38.8086 269.512 40.4336C269.52 42.0586 268.957 43.4297 267.824 44.5469C266.691 45.6562 265.262 46.2109 263.535 46.2109C262.801 46.2109 262.086 46.0625 261.391 45.7656C260.703 45.4688 260.098 45.0703 259.574 44.5703ZM271.141 36.7891L271.152 36.5781C271.152 36.5391 271.172 36.5078 271.211 36.4844C271.258 36.4531 271.285 36.4336 271.293 36.4258L273.402 34.8672C273.434 34.8438 273.52 34.832 273.66 34.832C273.801 34.832 273.898 34.8516 273.953 34.8906C274.008 34.9219 274.035 35.0234 274.035 35.1953V36.0625C275.457 35.1641 276.754 34.7148 277.926 34.7148C278.465 34.7148 278.965 34.8516 279.426 35.125C279.887 35.3984 280.258 35.7734 280.539 36.25C283.438 34.3906 285.578 34.2188 286.961 35.7344C287.578 36.4062 287.887 37.2227 287.887 38.1836V44.4531C287.887 44.625 287.934 44.8086 288.027 45.0039C288.121 45.1914 288.273 45.3281 288.484 45.4141C288.695 45.5 288.801 45.5859 288.801 45.6719C288.801 45.8906 288.75 46 288.648 46H285.215C285.113 46 285.062 45.9297 285.062 45.7891C285.062 45.6484 285.094 45.5586 285.156 45.5195C285.227 45.4805 285.309 45.4414 285.402 45.4023C285.504 45.3633 285.586 45.3125 285.648 45.25C285.719 45.1875 285.777 45.1172 285.824 45.0391C285.871 44.9609 285.902 44.8711 285.918 44.7695C285.941 44.668 285.953 44.5938 285.953 44.5469C285.961 44.4922 285.961 44.3906 285.953 44.2422C285.953 44.0938 285.953 43.9961 285.953 43.9492V38.4766C285.945 37.7109 285.793 37.1523 285.496 36.8008C285.199 36.4414 284.723 36.2617 284.066 36.2617C283.02 36.2617 281.965 36.5273 280.902 37.0586C281.012 37.4258 281.066 37.8008 281.066 38.1836V44.4531C281.066 44.625 281.113 44.8086 281.207 45.0039C281.301 45.1914 281.453 45.3281 281.664 45.4141C281.875 45.5 281.98 45.5859 281.98 45.6719C281.98 45.8906 281.93 46 281.828 46H278.383C278.281 46 278.23 45.9297 278.23 45.7891C278.23 45.6484 278.262 45.5586 278.324 45.5195C278.395 45.4805 278.477 45.4414 278.57 45.4023C278.672 45.3633 278.754 45.3125 278.816 45.25C278.887 45.1875 278.945 45.1211 278.992 45.0508C279.039 44.9727 279.074 44.8789 279.098 44.7695C279.121 44.6602 279.133 44.5859 279.133 44.5469C279.141 44.5078 279.141 44.4062 279.133 44.2422C279.133 44.0781 279.133 43.9805 279.133 43.9492V38.4766C279.125 37.7031 278.973 37.1406 278.676 36.7891C278.387 36.4375 277.812 36.2617 276.953 36.2617C276.102 36.2617 275.129 36.5352 274.035 37.082V44.4531C274.035 44.625 274.074 44.8086 274.152 45.0039C274.238 45.1914 274.391 45.3281 274.609 45.4141C274.828 45.5 274.938 45.5859 274.938 45.6719C274.938 45.8906 274.887 46 274.785 46H271.34C271.238 46 271.188 45.9297 271.188 45.7891C271.188 45.6484 271.219 45.5586 271.281 45.5195C271.352 45.4805 271.434 45.4414 271.527 45.4023C271.629 45.3633 271.707 45.3164 271.762 45.2617C271.824 45.1992 271.879 45.1328 271.926 45.0625C271.973 44.9844 272.008 44.9219 272.031 44.875C272.055 44.8203 272.07 44.7461 272.078 44.6523C272.094 44.5508 272.102 44.4844 272.102 44.4531C272.109 44.4141 272.109 44.332 272.102 44.207C272.102 44.0742 272.102 43.9883 272.102 43.9492V37.75C272.078 37.2891 271.887 37.0508 271.527 37.0352C271.277 37.0273 271.148 36.9453 271.141 36.7891ZM298.598 37.8555C298.137 36.5352 297.141 35.875 295.609 35.875C294.914 35.875 294.277 36.0625 293.699 36.4375C293.121 36.8047 292.676 37.2773 292.363 37.8555C292.059 38.4258 291.906 38.9648 291.906 39.4727C291.906 39.9805 291.922 40.2305 291.953 40.2227L298.574 37.9141V37.8438L298.598 37.8555ZM292.211 41.4648C292.547 42.3867 293.113 43.1094 293.91 43.6328C294.707 44.1562 295.613 44.418 296.629 44.418C297.918 44.418 299.094 43.8125 300.156 42.6016C300.32 42.4453 300.562 42.5273 300.883 42.8477C300.906 42.8711 300.902 42.9062 300.871 42.9531C299.98 44.1875 299.289 44.9766 298.797 45.3203C297.961 45.9141 296.996 46.2109 295.902 46.2109C295.16 46.2109 294.441 46.0625 293.746 45.7656C292.316 45.1406 291.297 44.1406 290.688 42.7656C290.375 42.0625 290.219 41.2305 290.219 40.2695C290.219 39.3008 290.461 38.3711 290.945 37.4805C291.438 36.582 292.145 35.875 293.066 35.3594C293.996 34.8438 295.062 34.5859 296.266 34.5859C297.734 34.5859 299.039 35.2656 300.18 36.625C300.758 37.3125 301.047 37.8594 301.047 38.2656L292.211 41.4648ZM303.027 46C302.926 46 302.875 45.9297 302.875 45.7891C302.875 45.6484 302.906 45.5586 302.969 45.5195C303.039 45.4805 303.121 45.4414 303.215 45.4023C303.316 45.3633 303.395 45.3164 303.449 45.2617C303.691 45.0195 303.809 44.75 303.801 44.4531C303.801 44.1484 303.801 43.9805 303.801 43.9492V37.75C303.801 37.5 303.738 37.3203 303.613 37.2109C303.488 37.1016 303.355 37.043 303.215 37.0352C303.074 37.0273 302.98 37.0078 302.934 36.9766C302.895 36.9375 302.867 36.9023 302.852 36.8711C302.844 36.8398 302.836 36.8125 302.828 36.7891C302.828 36.7656 302.828 36.7305 302.828 36.6836C302.836 36.6367 302.84 36.6016 302.84 36.5781C302.84 36.5547 302.844 36.5352 302.852 36.5195C302.867 36.5039 302.891 36.4883 302.922 36.4727C302.953 36.4492 302.973 36.4336 302.98 36.4258L305.09 34.8672C305.121 34.8438 305.207 34.832 305.348 34.832C305.488 34.832 305.59 34.8516 305.652 34.8906C305.715 34.9219 305.746 35.0234 305.746 35.1953V36.0625L306.344 35.7109L306.695 35.5352C307.781 34.9883 308.797 34.7148 309.742 34.7148C310.688 34.7148 311.617 35.0508 312.531 35.7227C312.945 36.0273 313.281 36.3984 313.539 36.8359C313.805 37.2656 313.938 37.7148 313.938 38.1836V44.4531C313.938 44.625 313.984 44.8086 314.078 45.0039C314.172 45.1914 314.324 45.3281 314.535 45.4141C314.746 45.5 314.852 45.5859 314.852 45.6719C314.852 45.8906 314.801 46 314.699 46H311.266C311.164 46 311.113 45.9297 311.113 45.7891C311.113 45.6484 311.145 45.5586 311.207 45.5195C311.277 45.4805 311.359 45.4414 311.453 45.4023C311.555 45.3633 311.637 45.3125 311.699 45.25C311.77 45.1875 311.828 45.1172 311.875 45.0391C311.922 44.9609 311.953 44.8711 311.969 44.7695C311.992 44.6602 312.004 44.582 312.004 44.5352C312.012 44.4805 312.012 44.3828 312.004 44.2422C312.004 44.0938 312.004 43.9961 312.004 43.9492V38.4766C312.004 38.0078 311.848 37.5977 311.535 37.2461C310.934 36.5898 310.09 36.2617 309.004 36.2617C307.918 36.2617 306.828 36.5352 305.734 37.082V44.4531C305.734 44.625 305.781 44.8086 305.875 45.0039C305.969 45.1914 306.121 45.3281 306.332 45.4141C306.543 45.5 306.648 45.5859 306.648 45.6719C306.648 45.8906 306.598 46 306.496 46H303.027ZM318.074 32.7461C318.098 32.5898 318.238 32.5117 318.496 32.5117C318.762 32.5117 318.895 32.5898 318.895 32.7461V34.832H320.969C321.367 34.832 321.566 34.8828 321.566 34.9844V36.0156C321.566 36.1172 321.367 36.168 320.969 36.168H318.895V43.4453C318.895 44.375 319.168 44.8945 319.715 45.0039C320.129 45.0898 320.559 44.9336 321.004 44.5352C321.184 44.3711 321.309 44.332 321.379 44.418C321.457 44.5039 321.512 44.5703 321.543 44.6172C321.574 44.6641 321.59 44.7109 321.59 44.7578C321.59 44.7969 321.59 44.8281 321.59 44.8516C321.598 44.8906 321.555 44.957 321.461 45.0508L321.215 45.2617C320.402 45.9648 319.609 46.2852 318.836 46.2227C318.07 46.1602 317.531 45.7109 317.219 44.875C317.047 44.4219 316.961 43.8711 316.961 43.2227V36.168H316.422C316.023 36.168 315.824 36.1172 315.824 36.0156V34.9844C315.824 34.8828 315.988 34.832 316.316 34.832C316.895 34.832 317.309 34.6289 317.559 34.2227C317.816 33.8164 317.988 33.3242 318.074 32.7461Z" fill="#F4DDC0"/>
</g>
<defs>
<filter id="filter0_d_640_9" x="323.609" y="0.937012" width="65.7812" height="76.063" filterUnits="userSpaceOnUse" color-interpolation-filters="sRGB">
<feFlood flood-opacity="0" result="BackgroundImageFix"/>
<feColorMatrix in="SourceAlpha" type="matrix" values="0 0 0 0 0 0 0 0 0 0 0 0 0 0 0 0 0 0 127 0" result="hardAlpha"/>
<feOffset dy="4"/>
<feGaussianBlur stdDeviation="10"/>
<feComposite in2="hardAlpha" operator="out"/>
<feColorMatrix type="matrix" values="0 0 0 0 0 0 0 0 0 0 0 0 0 0 0 0 0 0 0.7 0"/>
<feBlend mode="normal" in2="BackgroundImageFix" result="effect1_dropShadow_640_9"/>
<feBlend mode="normal" in="SourceGraphic" in2="effect1_dropShadow_640_9" result="shape"/>
</filter>
<filter id="filter1_d_640_9" x="42.6094" y="0.937012" width="65.7812" height="76.063" filterUnits="userSpaceOnUse" color-interpolation-filters="sRGB">
<feFlood flood-opacity="0" result="BackgroundImageFix"/>
<feColorMatrix in="SourceAlpha" type="matrix" values="0 0 0 0 0 0 0 0 0 0 0 0 0 0 0 0 0 0 127 0" result="hardAlpha"/>
<feOffset dy="4"/>
<feGaussianBlur stdDeviation="10"/>
<feComposite in2="hardAlpha" operator="out"/>
<feColorMatrix type="matrix" values="0 0 0 0 0 0 0 0 0 0 0 0 0 0 0 0 0 0 0.7 0"/>
<feBlend mode="normal" in2="BackgroundImageFix" result="effect1_dropShadow_640_9"/>
<feBlend mode="normal" in="SourceGraphic" in2="effect1_dropShadow_640_9" result="shape"/>
</filter>
<filter id="filter2_d_640_9" x="103.594" y="26.4062" width="222.008" height="28.0273" filterUnits="userSpaceOnUse" color-interpolation-filters="sRGB">
<feFlood flood-opacity="0" result="BackgroundImageFix"/>
<feColorMatrix in="SourceAlpha" type="matrix" values="0 0 0 0 0 0 0 0 0 0 0 0 0 0 0 0 0 0 127 0" result="hardAlpha"/>
<feOffset dy="4"/>
<feGaussianBlur stdDeviation="2"/>
<feComposite in2="hardAlpha" operator="out"/>
<feColorMatrix type="matrix" values="0 0 0 0 0 0 0 0 0 0 0 0 0 0 0 0 0 0 0.25 0"/>
<feBlend mode="normal" in2="BackgroundImageFix" result="effect1_dropShadow_640_9"/>
<feBlend mode="normal" in="SourceGraphic" in2="effect1_dropShadow_640_9" result="shape"/>
</filter>
<linearGradient id="paint0_linear_640_9" x1="359.195" y1="48.5" x2="359.195" y2="53" gradientUnits="userSpaceOnUse">
<stop stop-color="#F4DDC0"/>
<stop offset="1" stop-color="#957C13"/>
</linearGradient>
<linearGradient id="paint1_linear_640_9" x1="353.805" y1="48.5" x2="353.805" y2="53" gradientUnits="userSpaceOnUse">
<stop stop-color="#F4DDC0"/>
<stop offset="1" stop-color="#957C13"/>
</linearGradient>
<linearGradient id="paint2_linear_640_9" x1="348.902" y1="48.5" x2="348.902" y2="53" gradientUnits="userSpaceOnUse">
<stop stop-color="#F4DDC0"/>
<stop offset="1" stop-color="#957C13"/>
</linearGradient>
<linearGradient id="paint3_linear_640_9" x1="363.853" y1="48.5" x2="363.853" y2="53" gradientUnits="userSpaceOnUse">
<stop stop-color="#F4DDC0"/>
<stop offset="1" stop-color="#957C13"/>
</linearGradient>
<linearGradient id="paint4_linear_640_9" x1="356.5" y1="28.7393" x2="356.449" y2="48.9495" gradientUnits="userSpaceOnUse">
<stop stop-color="#F4DDC0"/>
<stop offset="1" stop-color="#957C13"/>
</linearGradient>
<linearGradient id="paint5_linear_640_9" x1="356.5" y1="28.7393" x2="356.449" y2="48.9495" gradientUnits="userSpaceOnUse">
<stop stop-color="#F4DDC0"/>
<stop offset="1" stop-color="#957C13"/>
</linearGradient>
<linearGradient id="paint6_linear_640_9" x1="356.498" y1="17" x2="356.498" y2="28.475" gradientUnits="userSpaceOnUse">
<stop stop-color="#F4DDC0"/>
<stop offset="1" stop-color="#957C13"/>
</linearGradient>
<linearGradient id="paint7_linear_640_9" x1="356.498" y1="17" x2="356.498" y2="28.475" gradientUnits="userSpaceOnUse">
<stop stop-color="#F4DDC0"/>
<stop offset="1" stop-color="#957C13"/>
</linearGradient>
<linearGradient id="paint8_linear_640_9" x1="356.5" y1="26.4497" x2="356.5" y2="37.4747" gradientUnits="userSpaceOnUse">
<stop stop-color="#F4DDC0"/>
<stop offset="1" stop-color="#957C13"/>
</linearGradient>
<linearGradient id="paint9_linear_640_9" x1="356.5" y1="26.4497" x2="356.5" y2="37.4747" gradientUnits="userSpaceOnUse">
<stop stop-color="#F4DDC0"/>
<stop offset="1" stop-color="#957C13"/>
</linearGradient>
<linearGradient id="paint10_linear_640_9" x1="356.5" y1="19.8247" x2="356.5" y2="43.5691" gradientUnits="userSpaceOnUse">
<stop stop-color="#F4DDC0"/>
<stop offset="1" stop-color="#957C13"/>
</linearGradient>
<linearGradient id="paint11_linear_640_9" x1="356.5" y1="19.8247" x2="356.5" y2="43.5691" gradientUnits="userSpaceOnUse">
<stop stop-color="#F4DDC0"/>
<stop offset="1" stop-color="#957C13"/>
</linearGradient>
<linearGradient id="paint12_linear_640_9" x1="356.499" y1="23.75" x2="356.499" y2="36.8" gradientUnits="userSpaceOnUse">
<stop stop-color="#F1C81F"/>
<stop offset="1" stop-color="#8B7312"/>
</linearGradient>
<linearGradient id="paint13_linear_640_9" x1="356.499" y1="23.75" x2="356.499" y2="36.8" gradientUnits="userSpaceOnUse">
<stop stop-color="#F1C81F"/>
<stop offset="1" stop-color="#8B7312"/>
</linearGradient>
<linearGradient id="paint14_linear_640_9" x1="78.1953" y1="48.5" x2="78.1953" y2="53" gradientUnits="userSpaceOnUse">
<stop stop-color="#F4DDC0"/>
<stop offset="1" stop-color="#957C13"/>
</linearGradient>
<linearGradient id="paint15_linear_640_9" x1="72.8046" y1="48.5" x2="72.8046" y2="53" gradientUnits="userSpaceOnUse">
<stop stop-color="#F4DDC0"/>
<stop offset="1" stop-color="#957C13"/>
</linearGradient>
<linearGradient id="paint16_linear_640_9" x1="67.9023" y1="48.5" x2="67.9023" y2="53" gradientUnits="userSpaceOnUse">
<stop stop-color="#F4DDC0"/>
<stop offset="1" stop-color="#957C13"/>
</linearGradient>
<linearGradient id="paint17_linear_640_9" x1="82.8535" y1="48.5" x2="82.8535" y2="53" gradientUnits="userSpaceOnUse">
<stop stop-color="#F4DDC0"/>
<stop offset="1" stop-color="#957C13"/>
</linearGradient>
<linearGradient id="paint18_linear_640_9" x1="75.5001" y1="28.7393" x2="75.4486" y2="48.9495" gradientUnits="userSpaceOnUse">
<stop stop-color="#F4DDC0"/>
<stop offset="1" stop-color="#957C13"/>
</linearGradient>
<linearGradient id="paint19_linear_640_9" x1="75.5001" y1="28.7393" x2="75.4486" y2="48.9495" gradientUnits="userSpaceOnUse">
<stop stop-color="#F4DDC0"/>
<stop offset="1" stop-color="#957C13"/>
</linearGradient>
<linearGradient id="paint20_linear_640_9" x1="75.4983" y1="17" x2="75.4983" y2="28.475" gradientUnits="userSpaceOnUse">
<stop stop-color="#F4DDC0"/>
<stop offset="1" stop-color="#957C13"/>
</linearGradient>
<linearGradient id="paint21_linear_640_9" x1="75.4983" y1="17" x2="75.4983" y2="28.475" gradientUnits="userSpaceOnUse">
<stop stop-color="#F4DDC0"/>
<stop offset="1" stop-color="#957C13"/>
</linearGradient>
<linearGradient id="paint22_linear_640_9" x1="75.5" y1="26.4497" x2="75.5" y2="37.4747" gradientUnits="userSpaceOnUse">
<stop stop-color="#F4DDC0"/>
<stop offset="1" stop-color="#957C13"/>
</linearGradient>
<linearGradient id="paint23_linear_640_9" x1="75.5" y1="26.4497" x2="75.5" y2="37.4747" gradientUnits="userSpaceOnUse">
<stop stop-color="#F4DDC0"/>
<stop offset="1" stop-color="#957C13"/>
</linearGradient>
<linearGradient id="paint24_linear_640_9" x1="75.5005" y1="19.8247" x2="75.5005" y2="43.5691" gradientUnits="userSpaceOnUse">
<stop stop-color="#F4DDC0"/>
<stop offset="1" stop-color="#957C13"/>
</linearGradient>
<linearGradient id="paint25_linear_640_9" x1="75.5005" y1="19.8247" x2="75.5005" y2="43.5691" gradientUnits="userSpaceOnUse">
<stop stop-color="#F4DDC0"/>
<stop offset="1" stop-color="#957C13"/>
</linearGradient>
<linearGradient id="paint26_linear_640_9" x1="75.4995" y1="23.75" x2="75.4995" y2="36.8" gradientUnits="userSpaceOnUse">
<stop stop-color="#F1C81F"/>
<stop offset="1" stop-color="#8B7312"/>
</linearGradient>
<linearGradient id="paint27_linear_640_9" x1="75.4995" y1="23.75" x2="75.4995" y2="36.8" gradientUnits="userSpaceOnUse">
<stop stop-color="#F1C81F"/>
<stop offset="1" stop-color="#8B7312"/>
</linearGradient>
</defs>
</svg>
