<svg width="428" height="326" viewBox="0 0 428 326" fill="none" xmlns="http://www.w3.org/2000/svg">
<path d="M389.201 145.504C467.021 139.886 491.449 299.377 496 327H201.849H-104V162.827C-73.2816 128.182 -66.0286 122.095 -38.2968 132.395C10.8527 159.737 61.8224 90.4148 81.1636 52.3358C85.1457 51.5555 76.9582 43.0936 93 13.1299C109.042 -16.8339 103.338 38.4735 118.5 40.8718C126.95 42.2085 107.5 52.3358 168 6.79169C187 -19.0551 203.225 36.9197 226.619 40.8718C246.672 38.0627 255.351 71.5682 277.537 75.7819C299.722 79.9955 290.266 87.7525 323.982 95.5423C342.216 99.7551 355.977 130.123 389.201 145.504Z" fill="#CB9C63" fill-opacity="0.8"/>
</svg>
