<svg width="428" height="433" viewBox="0 0 428 433" fill="none" xmlns="http://www.w3.org/2000/svg">
<path d="M103.715 271.456C-9.38361 262.927 -30.8861 392.063 -37.5 434H372H810.5L820.5 297.755C775.856 245.157 765.315 235.916 725.011 251.554C653.581 293.064 579.505 187.82 551.396 130.009C545.608 128.824 528.205 115.082 504.891 69.5914L504.467 68.7638C481.381 23.7167 465.341 -7.58 460 1.60414C454.006 17.9523 439.5 46.6041 412 53.1041C378.5 53.1041 374 106.604 340 112.604C310.857 108.339 298.243 159.207 266 165.604C233.757 172.001 247.5 183.778 198.5 195.604C172 202 152 248.104 103.715 271.456Z" fill="#CB9C63"/>
</svg>
