<svg width="428" height="562" viewBox="0 0 428 562" fill="none" xmlns="http://www.w3.org/2000/svg">
<path d="M354.751 79.3914C330.07 51.7485 320.06 15.2201 318.14 0V73.2211C333.936 68.2849 348.306 83.5049 353.517 91.732C354.833 89.4284 360.921 66.6395 360.098 62.5259C358.453 69.7658 355.848 76.7862 354.751 79.3914Z" fill="url(#paint0_linear_560_197)"/>
<path d="M281.605 79.3913C306.287 51.7483 316.221 15.2201 318.14 0L318.216 73.221C302.42 68.2847 288.05 83.5048 282.839 91.7319C281.523 89.4283 275.435 66.6393 276.258 62.5258C277.903 69.7656 280.508 76.786 281.605 79.3913Z" fill="url(#paint1_linear_560_197)"/>
<path d="M349.818 78.6363C327.746 56.0909 319.706 33.1818 318.222 24.5454C316.718 33.1818 308.565 56.0909 286.182 78.6363C287.235 80.303 289.341 84.3636 289.341 87.2727V110H293.853V81.8181L300.171 74.5454L306.489 81.8181V110H310.099V81.8181L318.222 74.5454L326.232 81.8181V87.2727V110H329.793V81.8181L336.023 74.5454L342.253 81.8181V110H346.703V87.2727C346.703 84.3636 348.78 80.303 349.818 78.6363Z" fill="url(#paint2_linear_560_197)"/>
<rect x="268" y="110" width="100" height="7.27273" fill="#D9D9D9"/>
<path d="M268 117.273H318V135.455H273.714L268 117.273Z" fill="#9F9184"/>
<path d="M368 117.273H318V135.455H362.286L368 117.273Z" fill="#9F9184"/>
<path d="M283.455 110H317.546V95.4545H287.351L283.455 110Z" fill="#C7C7C7"/>
<path d="M351.637 110H317.546V95.4545H347.741L351.637 110Z" fill="#C7C7C7"/>
<path d="M354.405 73.8256C342.558 58.6878 337.677 48.3217 336.717 45.0309C351.196 38.4492 360.575 16.5104 363.455 6.36365C363.455 25.7795 357.422 59.4282 354.405 73.8256Z" fill="url(#paint3_linear_560_197)"/>
<path d="M281.595 73.8256C293.442 58.6878 298.323 48.3217 299.283 45.0309C284.804 38.4492 275.425 16.5104 272.545 6.36365C272.545 25.7795 278.578 59.4282 281.595 73.8256Z" fill="url(#paint4_linear_560_197)"/>
<rect x="280.729" y="211.818" width="74.0436" height="82.2707" fill="#DDD8D4"/>
<g filter="url(#filter0_d_560_197)">
<rect x="280.729" y="211.818" width="12.9576" height="82.2707" fill="#DDD8D4"/>
</g>
<g filter="url(#filter1_d_560_197)">
<rect x="341.814" y="211.818" width="12.9576" height="82.2707" fill="#DDD8D4"/>
</g>
<rect x="283.506" y="215.932" width="7.40436" height="74.0436" stroke="#9CACAB" stroke-width="0.5"/>
<rect x="344.59" y="215.932" width="7.40436" height="74.0436" stroke="#ACB0AF" stroke-width="0.5"/>
<rect x="285.355" y="217.577" width="3.70218" height="70.7528" stroke="#9CACAB" stroke-width="0.5"/>
<rect x="346.441" y="217.577" width="3.70218" height="70.7528" stroke="#9CACAB" stroke-width="0.5"/>
<g filter="url(#filter2_d_560_197)">
<rect x="302.953" y="223.136" width="11.6952" height="58.5895" stroke="#8A8A8A" shape-rendering="crispEdges"/>
</g>
<g filter="url(#filter3_d_560_197)">
<rect x="304.275" y="224.459" width="9.04977" height="55.9441" fill="#9A9A98"/>
<rect x="303.775" y="223.959" width="10.0498" height="56.9441" stroke="#A8A8A8"/>
</g>
<g filter="url(#filter4_d_560_197)">
<rect x="321.877" y="223.136" width="11.6952" height="58.5895" stroke="#8A8A8A" shape-rendering="crispEdges"/>
</g>
<g filter="url(#filter5_d_560_197)">
<rect x="323.199" y="224.459" width="9.04977" height="55.9441" fill="#9A9A98"/>
<rect x="322.699" y="223.959" width="10.0498" height="56.9441" stroke="#A8A8A8"/>
</g>
<rect x="277.09" y="300.909" width="82.2707" height="82.2707" fill="#DDD8D4"/>
<g filter="url(#filter6_d_560_197)">
<rect x="277.09" y="300.909" width="14.3974" height="82.2707" fill="#DDD8D4"/>
</g>
<g filter="url(#filter7_d_560_197)">
<rect x="344.963" y="300.909" width="14.3974" height="82.2707" fill="#DDD8D4"/>
</g>
<rect x="280.176" y="305.022" width="8.22707" height="74.0436" stroke="#9CACAB" stroke-width="0.5"/>
<rect x="348.049" y="305.022" width="8.22707" height="74.0436" stroke="#ACB0AF" stroke-width="0.5"/>
<rect x="282.232" y="306.668" width="4.11353" height="70.7528" stroke="#9CACAB" stroke-width="0.5"/>
<rect x="350.105" y="306.668" width="4.11353" height="70.7528" stroke="#9CACAB" stroke-width="0.5"/>
<g filter="url(#filter8_d_560_197)">
<rect x="297.162" y="312.75" width="9.22707" height="58.5895" stroke="#8A8A8A" shape-rendering="crispEdges"/>
</g>
<g filter="url(#filter9_d_560_197)">
<rect x="298.297" y="314.073" width="6.96136" height="55.9441" fill="#9A9A98"/>
<rect x="297.797" y="313.573" width="7.96136" height="56.9441" stroke="#A8A8A8"/>
</g>
<g filter="url(#filter10_d_560_197)">
<rect x="313.615" y="312.75" width="9.22707" height="58.5895" stroke="#8A8A8A" shape-rendering="crispEdges"/>
</g>
<g filter="url(#filter11_d_560_197)">
<rect x="314.748" y="314.073" width="6.96136" height="55.9441" fill="#9A9A98"/>
<rect x="314.248" y="313.573" width="7.96136" height="56.9441" stroke="#A8A8A8"/>
</g>
<g filter="url(#filter12_d_560_197)">
<rect x="330.07" y="312.75" width="9.22707" height="58.5895" stroke="#8A8A8A" shape-rendering="crispEdges"/>
</g>
<g filter="url(#filter13_d_560_197)">
<rect x="331.205" y="314.073" width="6.96136" height="55.9441" fill="#9A9A98"/>
<rect x="330.705" y="313.573" width="7.96136" height="56.9441" stroke="#A8A8A8"/>
</g>
<rect x="272.547" y="390" width="90.4977" height="82.2707" fill="#DDD8D4"/>
<g filter="url(#filter14_d_560_197)">
<rect x="272.547" y="390" width="15.8371" height="82.2707" fill="#DDD8D4"/>
</g>
<g filter="url(#filter15_d_560_197)">
<rect x="347.207" y="390" width="15.8371" height="82.2707" fill="#DDD8D4"/>
</g>
<rect x="275.939" y="394.114" width="9.04977" height="74.0436" stroke="#9CACAB" stroke-width="0.5"/>
<rect x="350.602" y="394.114" width="9.04977" height="74.0436" stroke="#ACB0AF" stroke-width="0.5"/>
<rect x="278.203" y="395.759" width="4.52489" height="70.7528" stroke="#9CACAB" stroke-width="0.5"/>
<rect x="352.863" y="395.759" width="4.52489" height="70.7528" stroke="#9CACAB" stroke-width="0.5"/>
<g filter="url(#filter16_d_560_197)">
<rect x="295.082" y="401.841" width="9.22707" height="58.5895" stroke="#8A8A8A" shape-rendering="crispEdges"/>
</g>
<g filter="url(#filter17_d_560_197)">
<rect x="296.217" y="403.164" width="6.96136" height="55.9441" fill="#9A9A98"/>
<rect x="295.717" y="402.664" width="7.96136" height="56.9441" stroke="#A8A8A8"/>
</g>
<g filter="url(#filter18_d_560_197)">
<rect x="313.184" y="401.841" width="9.22707" height="58.5895" stroke="#8A8A8A" shape-rendering="crispEdges"/>
</g>
<g filter="url(#filter19_d_560_197)">
<rect x="314.318" y="403.163" width="6.96136" height="55.9441" fill="#9A9A98"/>
<rect x="313.818" y="402.663" width="7.96136" height="56.9441" stroke="#A8A8A8"/>
</g>
<g filter="url(#filter20_d_560_197)">
<rect x="331.281" y="401.841" width="9.22707" height="58.5895" stroke="#8A8A8A" shape-rendering="crispEdges"/>
</g>
<g filter="url(#filter21_d_560_197)">
<rect x="332.416" y="403.164" width="6.96136" height="55.9441" fill="#9A9A98"/>
<rect x="331.916" y="402.664" width="7.96136" height="56.9441" stroke="#A8A8A8"/>
</g>
<rect x="285.271" y="122.727" width="65.8165" height="82.2707" fill="#DDD8D4"/>
<g filter="url(#filter22_d_560_197)">
<rect x="285.271" y="122.727" width="11.5179" height="82.2707" fill="#DDD8D4"/>
</g>
<g filter="url(#filter23_d_560_197)">
<rect x="339.57" y="122.727" width="11.5179" height="82.2707" fill="#DDD8D4"/>
</g>
<rect x="287.74" y="126.841" width="6.58165" height="74.0436" stroke="#9CACAB" stroke-width="0.5"/>
<rect x="342.039" y="126.841" width="6.58165" height="74.0436" stroke="#ACB0AF" stroke-width="0.5"/>
<rect x="289.385" y="128.486" width="3.29083" height="70.7528" stroke="#9CACAB" stroke-width="0.5"/>
<rect x="343.684" y="128.486" width="3.29083" height="70.7528" stroke="#9CACAB" stroke-width="0.5"/>
<circle cx="317.768" cy="149.465" r="13.8974" fill="#9CACAB" stroke="#3A3F3B"/>
<path d="M323.688 149.465C323.688 152.735 321.038 155.386 317.768 155.386C314.498 155.386 311.848 152.735 311.848 149.465C311.848 146.196 314.498 143.545 317.768 143.545C321.038 143.545 323.688 146.196 323.688 149.465Z" fill="#9CACAB" stroke="#3A3F3B" stroke-width="0.5"/>
<g filter="url(#filter24_d_560_197)">
<path d="M323.115 176.203V191.835" stroke="#8A8A8A"/>
</g>
<g filter="url(#filter25_d_560_197)">
<path d="M332.166 191.835V171.267" stroke="#8A8A8A"/>
</g>
<g filter="url(#filter26_d_560_197)">
<path d="M322.293 191.835H332.165" stroke="#8A8A8A"/>
</g>
<g filter="url(#filter27_d_560_197)">
<path d="M323.115 176.203C325.035 175.518 329.532 173.324 332.165 170.033" stroke="black"/>
</g>
<path d="M332.988 192.246H322.293V175.792C327.558 174.805 331.617 170.17 332.988 167.976V192.246Z" stroke="#8A8A8A"/>
<path d="M332.165 191.424H323.115V176.417C327.64 174.969 330.108 172.501 332.165 170.279V191.424Z" stroke="#A8A8A8"/>
<g filter="url(#filter28_d_560_197)">
<path d="M313.246 176.203V191.835" stroke="#8A8A8A"/>
</g>
<g filter="url(#filter29_d_560_197)">
<path d="M304.195 191.835V171.267" stroke="#8A8A8A"/>
</g>
<g filter="url(#filter30_d_560_197)">
<path d="M314.068 191.835H304.196" stroke="#8A8A8A"/>
</g>
<g filter="url(#filter31_d_560_197)">
<path d="M313.246 176.204C311.326 175.518 306.829 173.324 304.196 170.033" stroke="black"/>
</g>
<path d="M303.373 192.246H314.068V175.792C308.803 174.805 304.744 170.17 303.373 167.976V192.246Z" stroke="#8A8A8A"/>
<path d="M304.196 191.424H313.246V176.417C308.721 174.969 306.253 172.501 304.196 170.279V191.424Z" stroke="#A8A8A8"/>
<g filter="url(#filter32_d_560_197)">
<path d="M317.608 204.545C317.612 204.545 343.982 204.545 351.873 204.545C359.763 204.545 359.216 211.818 358.577 211.818C357.937 211.818 317.609 211.818 317.609 211.818C317.609 211.818 317.604 204.545 317.608 204.545Z" fill="#B0B0B0"/>
<path d="M317.604 204.546C317.604 204.546 346.515 204.545 351.925 204.546C357.336 204.546 358.419 208.182 358.419 208.182H317.604L317.604 204.546Z" fill="#D9D9D9"/>
<path d="M318.394 204.545C318.39 204.545 292.019 204.545 284.129 204.545C276.239 204.545 276.786 211.818 277.425 211.818C278.064 211.818 318.393 211.818 318.393 211.818C318.393 211.818 318.398 204.545 318.394 204.545Z" fill="#B0B0B0"/>
<path d="M318.398 204.546C318.398 204.546 289.487 204.545 284.076 204.546C278.666 204.546 277.583 208.182 277.583 208.182H318.398L318.398 204.546Z" fill="#D9D9D9"/>
</g>
<g filter="url(#filter33_d_560_197)">
<path d="M317.563 293.636C317.567 293.636 346.868 293.636 355.635 293.636C364.402 293.636 363.794 300.909 363.083 300.909C362.373 300.909 317.564 300.909 317.564 300.909C317.564 300.909 317.558 293.636 317.563 293.636Z" fill="#B0B0B0"/>
<path d="M317.559 293.636C317.559 293.636 349.682 293.636 355.693 293.636C361.705 293.637 362.908 297.273 362.908 297.273H317.559L317.559 293.636Z" fill="#D9D9D9"/>
<path d="M318.436 293.636C318.432 293.636 289.131 293.636 280.364 293.636C271.597 293.636 272.205 300.909 272.915 300.909C273.626 300.909 318.435 300.909 318.435 300.909C318.435 300.909 318.441 293.636 318.436 293.636Z" fill="#B0B0B0"/>
<path d="M318.44 293.636C318.44 293.636 286.317 293.636 280.305 293.636C274.294 293.637 273.09 297.273 273.09 297.273H318.44L318.44 293.636Z" fill="#D9D9D9"/>
</g>
<g filter="url(#filter34_d_560_197)">
<path d="M317.52 382.727C317.525 382.727 349.755 382.727 359.399 382.727C369.043 382.727 368.374 390 367.592 390C366.811 390 317.521 390 317.521 390C317.521 390 317.515 382.727 317.52 382.727Z" fill="#B0B0B0"/>
<path d="M317.515 382.727C317.515 382.727 352.851 382.727 359.463 382.727C366.076 382.728 367.4 386.364 367.4 386.364H317.515L317.515 382.727Z" fill="#D9D9D9"/>
<path d="M318.48 382.727C318.475 382.727 286.245 382.727 276.601 382.727C266.957 382.727 267.626 390 268.408 390C269.189 390 318.479 390 318.479 390C318.479 390 318.485 382.727 318.48 382.727Z" fill="#B0B0B0"/>
<path d="M318.485 382.727C318.485 382.727 283.149 382.727 276.537 382.727C269.924 382.728 268.6 386.364 268.6 386.364H318.485L318.485 382.727Z" fill="#D9D9D9"/>
</g>
<mask id="path-77-inside-1_560_197" fill="white">
<path d="M272.545 90H363.454V110H272.545V90Z"/>
</mask>
<path d="M272.545 90H363.454V110H272.545V90Z" fill="#D9D9D9" fill-opacity="0.5"/>
<path d="M272.545 90V89H271.545V90H272.545ZM363.454 90H364.454V89H363.454V90ZM272.545 91H363.454V89H272.545V91ZM362.454 90V110H364.454V90H362.454ZM273.545 110V90H271.545V110H273.545Z" fill="#9A9A98" mask="url(#path-77-inside-1_560_197)"/>
<defs>
<filter id="filter0_d_560_197" x="271.729" y="201.818" width="32.957" height="102.271" filterUnits="userSpaceOnUse" color-interpolation-filters="sRGB">
<feFlood flood-opacity="0" result="BackgroundImageFix"/>
<feColorMatrix in="SourceAlpha" type="matrix" values="0 0 0 0 0 0 0 0 0 0 0 0 0 0 0 0 0 0 127 0" result="hardAlpha"/>
<feOffset dx="1"/>
<feGaussianBlur stdDeviation="5"/>
<feComposite in2="hardAlpha" operator="out"/>
<feColorMatrix type="matrix" values="0 0 0 0 0 0 0 0 0 0 0 0 0 0 0 0 0 0 0.5 0"/>
<feBlend mode="normal" in2="BackgroundImageFix" result="effect1_dropShadow_560_197"/>
<feBlend mode="normal" in="SourceGraphic" in2="effect1_dropShadow_560_197" result="shape"/>
</filter>
<filter id="filter1_d_560_197" x="330.814" y="201.818" width="32.957" height="102.271" filterUnits="userSpaceOnUse" color-interpolation-filters="sRGB">
<feFlood flood-opacity="0" result="BackgroundImageFix"/>
<feColorMatrix in="SourceAlpha" type="matrix" values="0 0 0 0 0 0 0 0 0 0 0 0 0 0 0 0 0 0 127 0" result="hardAlpha"/>
<feOffset dx="-1"/>
<feGaussianBlur stdDeviation="5"/>
<feComposite in2="hardAlpha" operator="out"/>
<feColorMatrix type="matrix" values="0 0 0 0 0 0 0 0 0 0 0 0 0 0 0 0 0 0 0.5 0"/>
<feBlend mode="normal" in2="BackgroundImageFix" result="effect1_dropShadow_560_197"/>
<feBlend mode="normal" in="SourceGraphic" in2="effect1_dropShadow_560_197" result="shape"/>
</filter>
<filter id="filter2_d_560_197" x="292.453" y="216.636" width="32.6953" height="79.5894" filterUnits="userSpaceOnUse" color-interpolation-filters="sRGB">
<feFlood flood-opacity="0" result="BackgroundImageFix"/>
<feColorMatrix in="SourceAlpha" type="matrix" values="0 0 0 0 0 0 0 0 0 0 0 0 0 0 0 0 0 0 127 0" result="hardAlpha"/>
<feOffset dy="4"/>
<feGaussianBlur stdDeviation="5"/>
<feComposite in2="hardAlpha" operator="out"/>
<feColorMatrix type="matrix" values="0 0 0 0 0 0 0 0 0 0 0 0 0 0 0 0 0 0 0.25 0"/>
<feBlend mode="normal" in2="BackgroundImageFix" result="effect1_dropShadow_560_197"/>
<feBlend mode="normal" in="SourceGraphic" in2="effect1_dropShadow_560_197" result="shape"/>
</filter>
<filter id="filter3_d_560_197" x="299.275" y="223.459" width="19.0488" height="65.9441" filterUnits="userSpaceOnUse" color-interpolation-filters="sRGB">
<feFlood flood-opacity="0" result="BackgroundImageFix"/>
<feColorMatrix in="SourceAlpha" type="matrix" values="0 0 0 0 0 0 0 0 0 0 0 0 0 0 0 0 0 0 127 0" result="hardAlpha"/>
<feOffset dy="4"/>
<feGaussianBlur stdDeviation="2"/>
<feComposite in2="hardAlpha" operator="out"/>
<feColorMatrix type="matrix" values="0 0 0 0 0 0 0 0 0 0 0 0 0 0 0 0 0 0 0.25 0"/>
<feBlend mode="normal" in2="BackgroundImageFix" result="effect1_dropShadow_560_197"/>
<feBlend mode="normal" in="SourceGraphic" in2="effect1_dropShadow_560_197" result="shape"/>
</filter>
<filter id="filter4_d_560_197" x="311.377" y="216.636" width="32.6953" height="79.5894" filterUnits="userSpaceOnUse" color-interpolation-filters="sRGB">
<feFlood flood-opacity="0" result="BackgroundImageFix"/>
<feColorMatrix in="SourceAlpha" type="matrix" values="0 0 0 0 0 0 0 0 0 0 0 0 0 0 0 0 0 0 127 0" result="hardAlpha"/>
<feOffset dy="4"/>
<feGaussianBlur stdDeviation="5"/>
<feComposite in2="hardAlpha" operator="out"/>
<feColorMatrix type="matrix" values="0 0 0 0 0 0 0 0 0 0 0 0 0 0 0 0 0 0 0.25 0"/>
<feBlend mode="normal" in2="BackgroundImageFix" result="effect1_dropShadow_560_197"/>
<feBlend mode="normal" in="SourceGraphic" in2="effect1_dropShadow_560_197" result="shape"/>
</filter>
<filter id="filter5_d_560_197" x="318.199" y="223.459" width="19.0488" height="65.9441" filterUnits="userSpaceOnUse" color-interpolation-filters="sRGB">
<feFlood flood-opacity="0" result="BackgroundImageFix"/>
<feColorMatrix in="SourceAlpha" type="matrix" values="0 0 0 0 0 0 0 0 0 0 0 0 0 0 0 0 0 0 127 0" result="hardAlpha"/>
<feOffset dy="4"/>
<feGaussianBlur stdDeviation="2"/>
<feComposite in2="hardAlpha" operator="out"/>
<feColorMatrix type="matrix" values="0 0 0 0 0 0 0 0 0 0 0 0 0 0 0 0 0 0 0.25 0"/>
<feBlend mode="normal" in2="BackgroundImageFix" result="effect1_dropShadow_560_197"/>
<feBlend mode="normal" in="SourceGraphic" in2="effect1_dropShadow_560_197" result="shape"/>
</filter>
<filter id="filter6_d_560_197" x="268.09" y="290.909" width="34.3965" height="102.271" filterUnits="userSpaceOnUse" color-interpolation-filters="sRGB">
<feFlood flood-opacity="0" result="BackgroundImageFix"/>
<feColorMatrix in="SourceAlpha" type="matrix" values="0 0 0 0 0 0 0 0 0 0 0 0 0 0 0 0 0 0 127 0" result="hardAlpha"/>
<feOffset dx="1"/>
<feGaussianBlur stdDeviation="5"/>
<feComposite in2="hardAlpha" operator="out"/>
<feColorMatrix type="matrix" values="0 0 0 0 0 0 0 0 0 0 0 0 0 0 0 0 0 0 0.5 0"/>
<feBlend mode="normal" in2="BackgroundImageFix" result="effect1_dropShadow_560_197"/>
<feBlend mode="normal" in="SourceGraphic" in2="effect1_dropShadow_560_197" result="shape"/>
</filter>
<filter id="filter7_d_560_197" x="333.963" y="290.909" width="34.3965" height="102.271" filterUnits="userSpaceOnUse" color-interpolation-filters="sRGB">
<feFlood flood-opacity="0" result="BackgroundImageFix"/>
<feColorMatrix in="SourceAlpha" type="matrix" values="0 0 0 0 0 0 0 0 0 0 0 0 0 0 0 0 0 0 127 0" result="hardAlpha"/>
<feOffset dx="-1"/>
<feGaussianBlur stdDeviation="5"/>
<feComposite in2="hardAlpha" operator="out"/>
<feColorMatrix type="matrix" values="0 0 0 0 0 0 0 0 0 0 0 0 0 0 0 0 0 0 0.5 0"/>
<feBlend mode="normal" in2="BackgroundImageFix" result="effect1_dropShadow_560_197"/>
<feBlend mode="normal" in="SourceGraphic" in2="effect1_dropShadow_560_197" result="shape"/>
</filter>
<filter id="filter8_d_560_197" x="286.662" y="306.25" width="30.2266" height="79.5894" filterUnits="userSpaceOnUse" color-interpolation-filters="sRGB">
<feFlood flood-opacity="0" result="BackgroundImageFix"/>
<feColorMatrix in="SourceAlpha" type="matrix" values="0 0 0 0 0 0 0 0 0 0 0 0 0 0 0 0 0 0 127 0" result="hardAlpha"/>
<feOffset dy="4"/>
<feGaussianBlur stdDeviation="5"/>
<feComposite in2="hardAlpha" operator="out"/>
<feColorMatrix type="matrix" values="0 0 0 0 0 0 0 0 0 0 0 0 0 0 0 0 0 0 0.25 0"/>
<feBlend mode="normal" in2="BackgroundImageFix" result="effect1_dropShadow_560_197"/>
<feBlend mode="normal" in="SourceGraphic" in2="effect1_dropShadow_560_197" result="shape"/>
</filter>
<filter id="filter9_d_560_197" x="293.297" y="313.073" width="16.9609" height="65.9441" filterUnits="userSpaceOnUse" color-interpolation-filters="sRGB">
<feFlood flood-opacity="0" result="BackgroundImageFix"/>
<feColorMatrix in="SourceAlpha" type="matrix" values="0 0 0 0 0 0 0 0 0 0 0 0 0 0 0 0 0 0 127 0" result="hardAlpha"/>
<feOffset dy="4"/>
<feGaussianBlur stdDeviation="2"/>
<feComposite in2="hardAlpha" operator="out"/>
<feColorMatrix type="matrix" values="0 0 0 0 0 0 0 0 0 0 0 0 0 0 0 0 0 0 0.25 0"/>
<feBlend mode="normal" in2="BackgroundImageFix" result="effect1_dropShadow_560_197"/>
<feBlend mode="normal" in="SourceGraphic" in2="effect1_dropShadow_560_197" result="shape"/>
</filter>
<filter id="filter10_d_560_197" x="303.115" y="306.25" width="30.2266" height="79.5894" filterUnits="userSpaceOnUse" color-interpolation-filters="sRGB">
<feFlood flood-opacity="0" result="BackgroundImageFix"/>
<feColorMatrix in="SourceAlpha" type="matrix" values="0 0 0 0 0 0 0 0 0 0 0 0 0 0 0 0 0 0 127 0" result="hardAlpha"/>
<feOffset dy="4"/>
<feGaussianBlur stdDeviation="5"/>
<feComposite in2="hardAlpha" operator="out"/>
<feColorMatrix type="matrix" values="0 0 0 0 0 0 0 0 0 0 0 0 0 0 0 0 0 0 0.25 0"/>
<feBlend mode="normal" in2="BackgroundImageFix" result="effect1_dropShadow_560_197"/>
<feBlend mode="normal" in="SourceGraphic" in2="effect1_dropShadow_560_197" result="shape"/>
</filter>
<filter id="filter11_d_560_197" x="309.748" y="313.073" width="16.9609" height="65.9441" filterUnits="userSpaceOnUse" color-interpolation-filters="sRGB">
<feFlood flood-opacity="0" result="BackgroundImageFix"/>
<feColorMatrix in="SourceAlpha" type="matrix" values="0 0 0 0 0 0 0 0 0 0 0 0 0 0 0 0 0 0 127 0" result="hardAlpha"/>
<feOffset dy="4"/>
<feGaussianBlur stdDeviation="2"/>
<feComposite in2="hardAlpha" operator="out"/>
<feColorMatrix type="matrix" values="0 0 0 0 0 0 0 0 0 0 0 0 0 0 0 0 0 0 0.25 0"/>
<feBlend mode="normal" in2="BackgroundImageFix" result="effect1_dropShadow_560_197"/>
<feBlend mode="normal" in="SourceGraphic" in2="effect1_dropShadow_560_197" result="shape"/>
</filter>
<filter id="filter12_d_560_197" x="319.57" y="306.25" width="30.2266" height="79.5894" filterUnits="userSpaceOnUse" color-interpolation-filters="sRGB">
<feFlood flood-opacity="0" result="BackgroundImageFix"/>
<feColorMatrix in="SourceAlpha" type="matrix" values="0 0 0 0 0 0 0 0 0 0 0 0 0 0 0 0 0 0 127 0" result="hardAlpha"/>
<feOffset dy="4"/>
<feGaussianBlur stdDeviation="5"/>
<feComposite in2="hardAlpha" operator="out"/>
<feColorMatrix type="matrix" values="0 0 0 0 0 0 0 0 0 0 0 0 0 0 0 0 0 0 0.25 0"/>
<feBlend mode="normal" in2="BackgroundImageFix" result="effect1_dropShadow_560_197"/>
<feBlend mode="normal" in="SourceGraphic" in2="effect1_dropShadow_560_197" result="shape"/>
</filter>
<filter id="filter13_d_560_197" x="326.205" y="313.073" width="16.9609" height="65.9441" filterUnits="userSpaceOnUse" color-interpolation-filters="sRGB">
<feFlood flood-opacity="0" result="BackgroundImageFix"/>
<feColorMatrix in="SourceAlpha" type="matrix" values="0 0 0 0 0 0 0 0 0 0 0 0 0 0 0 0 0 0 127 0" result="hardAlpha"/>
<feOffset dy="4"/>
<feGaussianBlur stdDeviation="2"/>
<feComposite in2="hardAlpha" operator="out"/>
<feColorMatrix type="matrix" values="0 0 0 0 0 0 0 0 0 0 0 0 0 0 0 0 0 0 0.25 0"/>
<feBlend mode="normal" in2="BackgroundImageFix" result="effect1_dropShadow_560_197"/>
<feBlend mode="normal" in="SourceGraphic" in2="effect1_dropShadow_560_197" result="shape"/>
</filter>
<filter id="filter14_d_560_197" x="263.547" y="380" width="35.8379" height="102.271" filterUnits="userSpaceOnUse" color-interpolation-filters="sRGB">
<feFlood flood-opacity="0" result="BackgroundImageFix"/>
<feColorMatrix in="SourceAlpha" type="matrix" values="0 0 0 0 0 0 0 0 0 0 0 0 0 0 0 0 0 0 127 0" result="hardAlpha"/>
<feOffset dx="1"/>
<feGaussianBlur stdDeviation="5"/>
<feComposite in2="hardAlpha" operator="out"/>
<feColorMatrix type="matrix" values="0 0 0 0 0 0 0 0 0 0 0 0 0 0 0 0 0 0 0.5 0"/>
<feBlend mode="normal" in2="BackgroundImageFix" result="effect1_dropShadow_560_197"/>
<feBlend mode="normal" in="SourceGraphic" in2="effect1_dropShadow_560_197" result="shape"/>
</filter>
<filter id="filter15_d_560_197" x="336.207" y="380" width="35.8379" height="102.271" filterUnits="userSpaceOnUse" color-interpolation-filters="sRGB">
<feFlood flood-opacity="0" result="BackgroundImageFix"/>
<feColorMatrix in="SourceAlpha" type="matrix" values="0 0 0 0 0 0 0 0 0 0 0 0 0 0 0 0 0 0 127 0" result="hardAlpha"/>
<feOffset dx="-1"/>
<feGaussianBlur stdDeviation="5"/>
<feComposite in2="hardAlpha" operator="out"/>
<feColorMatrix type="matrix" values="0 0 0 0 0 0 0 0 0 0 0 0 0 0 0 0 0 0 0.5 0"/>
<feBlend mode="normal" in2="BackgroundImageFix" result="effect1_dropShadow_560_197"/>
<feBlend mode="normal" in="SourceGraphic" in2="effect1_dropShadow_560_197" result="shape"/>
</filter>
<filter id="filter16_d_560_197" x="284.582" y="395.341" width="30.2266" height="79.5894" filterUnits="userSpaceOnUse" color-interpolation-filters="sRGB">
<feFlood flood-opacity="0" result="BackgroundImageFix"/>
<feColorMatrix in="SourceAlpha" type="matrix" values="0 0 0 0 0 0 0 0 0 0 0 0 0 0 0 0 0 0 127 0" result="hardAlpha"/>
<feOffset dy="4"/>
<feGaussianBlur stdDeviation="5"/>
<feComposite in2="hardAlpha" operator="out"/>
<feColorMatrix type="matrix" values="0 0 0 0 0 0 0 0 0 0 0 0 0 0 0 0 0 0 0.25 0"/>
<feBlend mode="normal" in2="BackgroundImageFix" result="effect1_dropShadow_560_197"/>
<feBlend mode="normal" in="SourceGraphic" in2="effect1_dropShadow_560_197" result="shape"/>
</filter>
<filter id="filter17_d_560_197" x="291.217" y="402.164" width="16.9609" height="65.9441" filterUnits="userSpaceOnUse" color-interpolation-filters="sRGB">
<feFlood flood-opacity="0" result="BackgroundImageFix"/>
<feColorMatrix in="SourceAlpha" type="matrix" values="0 0 0 0 0 0 0 0 0 0 0 0 0 0 0 0 0 0 127 0" result="hardAlpha"/>
<feOffset dy="4"/>
<feGaussianBlur stdDeviation="2"/>
<feComposite in2="hardAlpha" operator="out"/>
<feColorMatrix type="matrix" values="0 0 0 0 0 0 0 0 0 0 0 0 0 0 0 0 0 0 0.25 0"/>
<feBlend mode="normal" in2="BackgroundImageFix" result="effect1_dropShadow_560_197"/>
<feBlend mode="normal" in="SourceGraphic" in2="effect1_dropShadow_560_197" result="shape"/>
</filter>
<filter id="filter18_d_560_197" x="302.684" y="395.341" width="30.2266" height="79.5894" filterUnits="userSpaceOnUse" color-interpolation-filters="sRGB">
<feFlood flood-opacity="0" result="BackgroundImageFix"/>
<feColorMatrix in="SourceAlpha" type="matrix" values="0 0 0 0 0 0 0 0 0 0 0 0 0 0 0 0 0 0 127 0" result="hardAlpha"/>
<feOffset dy="4"/>
<feGaussianBlur stdDeviation="5"/>
<feComposite in2="hardAlpha" operator="out"/>
<feColorMatrix type="matrix" values="0 0 0 0 0 0 0 0 0 0 0 0 0 0 0 0 0 0 0.25 0"/>
<feBlend mode="normal" in2="BackgroundImageFix" result="effect1_dropShadow_560_197"/>
<feBlend mode="normal" in="SourceGraphic" in2="effect1_dropShadow_560_197" result="shape"/>
</filter>
<filter id="filter19_d_560_197" x="309.318" y="402.163" width="16.9609" height="65.9441" filterUnits="userSpaceOnUse" color-interpolation-filters="sRGB">
<feFlood flood-opacity="0" result="BackgroundImageFix"/>
<feColorMatrix in="SourceAlpha" type="matrix" values="0 0 0 0 0 0 0 0 0 0 0 0 0 0 0 0 0 0 127 0" result="hardAlpha"/>
<feOffset dy="4"/>
<feGaussianBlur stdDeviation="2"/>
<feComposite in2="hardAlpha" operator="out"/>
<feColorMatrix type="matrix" values="0 0 0 0 0 0 0 0 0 0 0 0 0 0 0 0 0 0 0.25 0"/>
<feBlend mode="normal" in2="BackgroundImageFix" result="effect1_dropShadow_560_197"/>
<feBlend mode="normal" in="SourceGraphic" in2="effect1_dropShadow_560_197" result="shape"/>
</filter>
<filter id="filter20_d_560_197" x="320.781" y="395.341" width="30.2266" height="79.5894" filterUnits="userSpaceOnUse" color-interpolation-filters="sRGB">
<feFlood flood-opacity="0" result="BackgroundImageFix"/>
<feColorMatrix in="SourceAlpha" type="matrix" values="0 0 0 0 0 0 0 0 0 0 0 0 0 0 0 0 0 0 127 0" result="hardAlpha"/>
<feOffset dy="4"/>
<feGaussianBlur stdDeviation="5"/>
<feComposite in2="hardAlpha" operator="out"/>
<feColorMatrix type="matrix" values="0 0 0 0 0 0 0 0 0 0 0 0 0 0 0 0 0 0 0.25 0"/>
<feBlend mode="normal" in2="BackgroundImageFix" result="effect1_dropShadow_560_197"/>
<feBlend mode="normal" in="SourceGraphic" in2="effect1_dropShadow_560_197" result="shape"/>
</filter>
<filter id="filter21_d_560_197" x="327.416" y="402.164" width="16.9609" height="65.9441" filterUnits="userSpaceOnUse" color-interpolation-filters="sRGB">
<feFlood flood-opacity="0" result="BackgroundImageFix"/>
<feColorMatrix in="SourceAlpha" type="matrix" values="0 0 0 0 0 0 0 0 0 0 0 0 0 0 0 0 0 0 127 0" result="hardAlpha"/>
<feOffset dy="4"/>
<feGaussianBlur stdDeviation="2"/>
<feComposite in2="hardAlpha" operator="out"/>
<feColorMatrix type="matrix" values="0 0 0 0 0 0 0 0 0 0 0 0 0 0 0 0 0 0 0.25 0"/>
<feBlend mode="normal" in2="BackgroundImageFix" result="effect1_dropShadow_560_197"/>
<feBlend mode="normal" in="SourceGraphic" in2="effect1_dropShadow_560_197" result="shape"/>
</filter>
<filter id="filter22_d_560_197" x="276.271" y="112.727" width="31.5176" height="102.271" filterUnits="userSpaceOnUse" color-interpolation-filters="sRGB">
<feFlood flood-opacity="0" result="BackgroundImageFix"/>
<feColorMatrix in="SourceAlpha" type="matrix" values="0 0 0 0 0 0 0 0 0 0 0 0 0 0 0 0 0 0 127 0" result="hardAlpha"/>
<feOffset dx="1"/>
<feGaussianBlur stdDeviation="5"/>
<feComposite in2="hardAlpha" operator="out"/>
<feColorMatrix type="matrix" values="0 0 0 0 0 0 0 0 0 0 0 0 0 0 0 0 0 0 0.5 0"/>
<feBlend mode="normal" in2="BackgroundImageFix" result="effect1_dropShadow_560_197"/>
<feBlend mode="normal" in="SourceGraphic" in2="effect1_dropShadow_560_197" result="shape"/>
</filter>
<filter id="filter23_d_560_197" x="330.57" y="112.727" width="31.5176" height="102.271" filterUnits="userSpaceOnUse" color-interpolation-filters="sRGB">
<feFlood flood-opacity="0" result="BackgroundImageFix"/>
<feColorMatrix in="SourceAlpha" type="matrix" values="0 0 0 0 0 0 0 0 0 0 0 0 0 0 0 0 0 0 127 0" result="hardAlpha"/>
<feOffset dx="1"/>
<feGaussianBlur stdDeviation="5"/>
<feComposite in2="hardAlpha" operator="out"/>
<feColorMatrix type="matrix" values="0 0 0 0 0 0 0 0 0 0 0 0 0 0 0 0 0 0 0.5 0"/>
<feBlend mode="normal" in2="BackgroundImageFix" result="effect1_dropShadow_560_197"/>
<feBlend mode="normal" in="SourceGraphic" in2="effect1_dropShadow_560_197" result="shape"/>
</filter>
<filter id="filter24_d_560_197" x="319.615" y="173.203" width="7" height="21.6313" filterUnits="userSpaceOnUse" color-interpolation-filters="sRGB">
<feFlood flood-opacity="0" result="BackgroundImageFix"/>
<feColorMatrix in="SourceAlpha" type="matrix" values="0 0 0 0 0 0 0 0 0 0 0 0 0 0 0 0 0 0 127 0" result="hardAlpha"/>
<feOffset/>
<feGaussianBlur stdDeviation="1.5"/>
<feComposite in2="hardAlpha" operator="out"/>
<feColorMatrix type="matrix" values="0 0 0 0 0 0 0 0 0 0 0 0 0 0 0 0 0 0 0.4 0"/>
<feBlend mode="normal" in2="BackgroundImageFix" result="effect1_dropShadow_560_197"/>
<feBlend mode="normal" in="SourceGraphic" in2="effect1_dropShadow_560_197" result="shape"/>
</filter>
<filter id="filter25_d_560_197" x="327.666" y="168.267" width="7" height="26.5676" filterUnits="userSpaceOnUse" color-interpolation-filters="sRGB">
<feFlood flood-opacity="0" result="BackgroundImageFix"/>
<feColorMatrix in="SourceAlpha" type="matrix" values="0 0 0 0 0 0 0 0 0 0 0 0 0 0 0 0 0 0 127 0" result="hardAlpha"/>
<feOffset dx="-1"/>
<feGaussianBlur stdDeviation="1.5"/>
<feComposite in2="hardAlpha" operator="out"/>
<feColorMatrix type="matrix" values="0 0 0 0 0 0 0 0 0 0 0 0 0 0 0 0 0 0 0.4 0"/>
<feBlend mode="normal" in2="BackgroundImageFix" result="effect1_dropShadow_560_197"/>
<feBlend mode="normal" in="SourceGraphic" in2="effect1_dropShadow_560_197" result="shape"/>
</filter>
<filter id="filter26_d_560_197" x="319.293" y="187.335" width="15.873" height="7" filterUnits="userSpaceOnUse" color-interpolation-filters="sRGB">
<feFlood flood-opacity="0" result="BackgroundImageFix"/>
<feColorMatrix in="SourceAlpha" type="matrix" values="0 0 0 0 0 0 0 0 0 0 0 0 0 0 0 0 0 0 127 0" result="hardAlpha"/>
<feOffset dy="-1"/>
<feGaussianBlur stdDeviation="1.5"/>
<feComposite in2="hardAlpha" operator="out"/>
<feColorMatrix type="matrix" values="0 0 0 0 0 0 0 0 0 0 0 0 0 0 0 0 0 0 0.4 0"/>
<feBlend mode="normal" in2="BackgroundImageFix" result="effect1_dropShadow_560_197"/>
<feBlend mode="normal" in="SourceGraphic" in2="effect1_dropShadow_560_197" result="shape"/>
</filter>
<filter id="filter27_d_560_197" x="319.947" y="167.721" width="15.6074" height="12.9534" filterUnits="userSpaceOnUse" color-interpolation-filters="sRGB">
<feFlood flood-opacity="0" result="BackgroundImageFix"/>
<feColorMatrix in="SourceAlpha" type="matrix" values="0 0 0 0 0 0 0 0 0 0 0 0 0 0 0 0 0 0 127 0" result="hardAlpha"/>
<feOffset dy="1"/>
<feGaussianBlur stdDeviation="1.5"/>
<feComposite in2="hardAlpha" operator="out"/>
<feColorMatrix type="matrix" values="0 0 0 0 0 0 0 0 0 0 0 0 0 0 0 0 0 0 0.5 0"/>
<feBlend mode="normal" in2="BackgroundImageFix" result="effect1_dropShadow_560_197"/>
<feBlend mode="normal" in="SourceGraphic" in2="effect1_dropShadow_560_197" result="shape"/>
</filter>
<filter id="filter28_d_560_197" x="309.746" y="173.203" width="7" height="21.6313" filterUnits="userSpaceOnUse" color-interpolation-filters="sRGB">
<feFlood flood-opacity="0" result="BackgroundImageFix"/>
<feColorMatrix in="SourceAlpha" type="matrix" values="0 0 0 0 0 0 0 0 0 0 0 0 0 0 0 0 0 0 127 0" result="hardAlpha"/>
<feOffset/>
<feGaussianBlur stdDeviation="1.5"/>
<feComposite in2="hardAlpha" operator="out"/>
<feColorMatrix type="matrix" values="0 0 0 0 0 0 0 0 0 0 0 0 0 0 0 0 0 0 0.4 0"/>
<feBlend mode="normal" in2="BackgroundImageFix" result="effect1_dropShadow_560_197"/>
<feBlend mode="normal" in="SourceGraphic" in2="effect1_dropShadow_560_197" result="shape"/>
</filter>
<filter id="filter29_d_560_197" x="299.695" y="168.267" width="7" height="26.5676" filterUnits="userSpaceOnUse" color-interpolation-filters="sRGB">
<feFlood flood-opacity="0" result="BackgroundImageFix"/>
<feColorMatrix in="SourceAlpha" type="matrix" values="0 0 0 0 0 0 0 0 0 0 0 0 0 0 0 0 0 0 127 0" result="hardAlpha"/>
<feOffset dx="-1"/>
<feGaussianBlur stdDeviation="1.5"/>
<feComposite in2="hardAlpha" operator="out"/>
<feColorMatrix type="matrix" values="0 0 0 0 0 0 0 0 0 0 0 0 0 0 0 0 0 0 0.4 0"/>
<feBlend mode="normal" in2="BackgroundImageFix" result="effect1_dropShadow_560_197"/>
<feBlend mode="normal" in="SourceGraphic" in2="effect1_dropShadow_560_197" result="shape"/>
</filter>
<filter id="filter30_d_560_197" x="301.195" y="187.335" width="15.873" height="7" filterUnits="userSpaceOnUse" color-interpolation-filters="sRGB">
<feFlood flood-opacity="0" result="BackgroundImageFix"/>
<feColorMatrix in="SourceAlpha" type="matrix" values="0 0 0 0 0 0 0 0 0 0 0 0 0 0 0 0 0 0 127 0" result="hardAlpha"/>
<feOffset dy="-1"/>
<feGaussianBlur stdDeviation="1.5"/>
<feComposite in2="hardAlpha" operator="out"/>
<feColorMatrix type="matrix" values="0 0 0 0 0 0 0 0 0 0 0 0 0 0 0 0 0 0 0.4 0"/>
<feBlend mode="normal" in2="BackgroundImageFix" result="effect1_dropShadow_560_197"/>
<feBlend mode="normal" in="SourceGraphic" in2="effect1_dropShadow_560_197" result="shape"/>
</filter>
<filter id="filter31_d_560_197" x="300.807" y="167.721" width="15.6074" height="12.9534" filterUnits="userSpaceOnUse" color-interpolation-filters="sRGB">
<feFlood flood-opacity="0" result="BackgroundImageFix"/>
<feColorMatrix in="SourceAlpha" type="matrix" values="0 0 0 0 0 0 0 0 0 0 0 0 0 0 0 0 0 0 127 0" result="hardAlpha"/>
<feOffset dy="1"/>
<feGaussianBlur stdDeviation="1.5"/>
<feComposite in2="hardAlpha" operator="out"/>
<feColorMatrix type="matrix" values="0 0 0 0 0 0 0 0 0 0 0 0 0 0 0 0 0 0 0.5 0"/>
<feBlend mode="normal" in2="BackgroundImageFix" result="effect1_dropShadow_560_197"/>
<feBlend mode="normal" in="SourceGraphic" in2="effect1_dropShadow_560_197" result="shape"/>
</filter>
<filter id="filter32_d_560_197" x="273.092" y="204.545" width="89.8184" height="15.2725" filterUnits="userSpaceOnUse" color-interpolation-filters="sRGB">
<feFlood flood-opacity="0" result="BackgroundImageFix"/>
<feColorMatrix in="SourceAlpha" type="matrix" values="0 0 0 0 0 0 0 0 0 0 0 0 0 0 0 0 0 0 127 0" result="hardAlpha"/>
<feOffset dy="4"/>
<feGaussianBlur stdDeviation="2"/>
<feComposite in2="hardAlpha" operator="out"/>
<feColorMatrix type="matrix" values="0 0 0 0 0 0 0 0 0 0 0 0 0 0 0 0 0 0 0.25 0"/>
<feBlend mode="normal" in2="BackgroundImageFix" result="effect1_dropShadow_560_197"/>
<feBlend mode="normal" in="SourceGraphic" in2="effect1_dropShadow_560_197" result="shape"/>
</filter>
<filter id="filter33_d_560_197" x="268.545" y="293.636" width="98.9082" height="15.2725" filterUnits="userSpaceOnUse" color-interpolation-filters="sRGB">
<feFlood flood-opacity="0" result="BackgroundImageFix"/>
<feColorMatrix in="SourceAlpha" type="matrix" values="0 0 0 0 0 0 0 0 0 0 0 0 0 0 0 0 0 0 127 0" result="hardAlpha"/>
<feOffset dy="4"/>
<feGaussianBlur stdDeviation="2"/>
<feComposite in2="hardAlpha" operator="out"/>
<feColorMatrix type="matrix" values="0 0 0 0 0 0 0 0 0 0 0 0 0 0 0 0 0 0 0.25 0"/>
<feBlend mode="normal" in2="BackgroundImageFix" result="effect1_dropShadow_560_197"/>
<feBlend mode="normal" in="SourceGraphic" in2="effect1_dropShadow_560_197" result="shape"/>
</filter>
<filter id="filter34_d_560_197" x="264" y="382.727" width="108" height="15.2725" filterUnits="userSpaceOnUse" color-interpolation-filters="sRGB">
<feFlood flood-opacity="0" result="BackgroundImageFix"/>
<feColorMatrix in="SourceAlpha" type="matrix" values="0 0 0 0 0 0 0 0 0 0 0 0 0 0 0 0 0 0 127 0" result="hardAlpha"/>
<feOffset dy="4"/>
<feGaussianBlur stdDeviation="2"/>
<feComposite in2="hardAlpha" operator="out"/>
<feColorMatrix type="matrix" values="0 0 0 0 0 0 0 0 0 0 0 0 0 0 0 0 0 0 0.25 0"/>
<feBlend mode="normal" in2="BackgroundImageFix" result="effect1_dropShadow_560_197"/>
<feBlend mode="normal" in="SourceGraphic" in2="effect1_dropShadow_560_197" result="shape"/>
</filter>
<linearGradient id="paint0_linear_560_197" x1="318.178" y1="1.04695e-09" x2="318.14" y2="202.386" gradientUnits="userSpaceOnUse">
<stop stop-color="#4C1501"/>
<stop offset="1" stop-color="#B23102"/>
</linearGradient>
<linearGradient id="paint1_linear_560_197" x1="318.178" y1="1.04695e-09" x2="318.14" y2="202.386" gradientUnits="userSpaceOnUse">
<stop stop-color="#4C1501"/>
<stop offset="1" stop-color="#B23102"/>
</linearGradient>
<linearGradient id="paint2_linear_560_197" x1="318" y1="24.5454" x2="354.818" y2="265" gradientUnits="userSpaceOnUse">
<stop stop-color="#9E8C80"/>
<stop offset="1" stop-color="#38322D"/>
</linearGradient>
<linearGradient id="paint3_linear_560_197" x1="367.568" y1="-47.5236" x2="353.171" y2="58.1942" gradientUnits="userSpaceOnUse">
<stop stop-color="#909090"/>
<stop offset="1" stop-color="#2A2A2A"/>
</linearGradient>
<linearGradient id="paint4_linear_560_197" x1="268.432" y1="-47.5236" x2="282.829" y2="58.1942" gradientUnits="userSpaceOnUse">
<stop stop-color="#909090"/>
<stop offset="1" stop-color="#2A2A2A"/>
</linearGradient>
</defs>
</svg>
