<svg width="396" height="386" viewBox="0 0 396 386" fill="none" xmlns="http://www.w3.org/2000/svg">
<path d="M289.201 191.598C367.021 185.549 391.449 357.261 396 387H101.849H-204V210.248C-173.282 172.947 -166.029 166.395 -138.297 177.484C-89.1473 206.921 -38.1776 132.287 -18.8364 91.29C-14.8543 90.4499 -23.0418 81.3396 -7 49.0799C9.04184 16.8202 28.8889 -2.35039 44.0504 0.231732C52.5 1.67075 58.1559 32.1435 77.078 36.753C100.128 36.753 103.225 74.6926 126.619 78.9476C146.672 75.9232 155.351 111.996 177.537 116.533C199.722 121.069 190.266 129.42 223.982 137.807C242.216 142.343 255.977 175.038 289.201 191.598Z" fill="#C68B47"/>
</svg>
