<svg width="37" height="39" viewBox="0 0 37 39" fill="none" xmlns="http://www.w3.org/2000/svg">
<g filter="url(#filter0_d_659_24)">
<path d="M16.6191 11.5605C16.6191 11.8887 16.543 12.0527 16.3906 12.0527H14.2812C12.9102 12.0527 11.6094 12.498 10.3789 13.3887C8.23438 14.9473 7.15625 17.0156 7.14453 19.5938C7.14453 20.6484 7.4082 21.6738 7.93555 22.6699C8.46289 23.6543 9.14258 24.5039 9.97461 25.2188C10.8066 25.9219 11.7559 26.4902 12.8223 26.9238C13.9004 27.3457 14.8789 27.5566 15.7578 27.5566C16.6367 27.5566 17.3809 27.4629 17.9902 27.2754C18.5996 27.0879 19.1152 26.8418 19.5371 26.5371C19.9707 26.2324 20.3633 25.875 20.7148 25.4648C21.3125 24.7617 21.752 23.9766 22.0332 23.1094C22.3262 22.2305 22.4668 21.5449 22.4551 21.0527C22.4551 20.5488 22.2324 20.2734 21.7871 20.2266H15.8457C14.5215 20.2266 13.707 20.3438 13.4023 20.5781C13.1094 20.8008 12.8984 21 12.7695 21.1758C12.6523 21.3516 12.5586 21.4395 12.4883 21.4395C12.4297 21.4395 12.3125 21.4102 12.1367 21.3516C11.9727 21.293 11.8906 21.2402 11.8906 21.1934C11.8906 21.1465 11.9727 20.9414 12.1367 20.5781L12.6992 19.2773C12.9102 18.7852 13.0566 18.3984 13.1387 18.1172C13.2207 17.8242 13.3203 17.6602 13.4375 17.625H29.75C30.5938 17.625 31.2969 17.3438 31.8594 16.7812C31.9062 16.7344 31.9648 16.6348 32.0352 16.4824C32.1172 16.3301 32.2637 16.2539 32.4746 16.2539C32.6973 16.2539 32.8086 16.3359 32.8086 16.5C32.6094 17.8711 32.3574 18.9668 32.0527 19.7871C31.9473 20.0566 31.7363 20.2031 31.4199 20.2266C30.7168 20.2734 29.7617 20.2676 28.5547 20.209C27.3477 20.1387 26.4336 20.1387 25.8125 20.209C25.1914 20.2793 24.8809 20.4961 24.8809 20.8594C24.8809 22.4883 24.418 24.1758 23.4922 25.9219C21.8281 29.0625 19.0156 30.6328 15.0547 30.6328C13.8008 30.6328 12.5117 30.375 11.1875 29.8594C9.86328 29.3438 8.70898 28.6289 7.72461 27.7148C6.75195 26.8008 5.97852 25.6758 5.4043 24.3398C4.83008 22.9922 4.54297 21.6914 4.54297 20.4375C4.54297 19.1719 4.66016 18.1172 4.89453 17.2734C5.31641 15.75 5.97852 14.5078 6.88086 13.5469C7.7832 12.5859 8.82031 11.707 9.99219 10.9102V10.8047C8.91406 9.96094 8.22266 9.23438 7.91797 8.625C7.61328 8.00391 7.46094 7.27734 7.46094 6.44531C7.46094 4.69922 8.00586 3.28125 9.0957 2.19141C10.1973 1.10156 11.5801 0.556641 13.2441 0.556641C13.8301 0.556641 14.5625 0.714844 15.4414 1.03125C15.6172 1.10156 15.8105 1.06641 16.0215 0.925781C16.2324 0.785156 16.4551 0.714844 16.6895 0.714844C16.9355 0.714844 17.1172 0.826172 17.2344 1.04883C17.2812 1.08398 17.2988 1.20703 17.2871 1.41797C17.2754 1.6875 17.416 2.4668 17.709 3.75586L18.1484 5.67188C18.2656 6.1875 18.3242 6.51562 18.3242 6.65625C18.3242 6.72656 18.1719 6.83789 17.8672 6.99023C17.5742 7.13086 17.4043 7.16016 17.3574 7.07812L16.1973 4.5293C15.6113 3.49805 14.7441 2.98242 13.5957 2.98242C12.459 2.98242 11.5859 3.28711 10.9766 3.89648C10.3672 4.49414 10.0625 5.32617 10.0625 6.39258C10.0625 6.99023 10.2734 7.54688 10.6953 8.0625C11.5742 9.12891 12.7695 9.66211 14.2812 9.66211H16.3906C16.543 9.66211 16.6191 9.82617 16.6191 10.1543V11.5605Z" fill="#7A4200"/>
</g>
<defs>
<filter id="filter0_d_659_24" x="0.542969" y="0.556641" width="36.2656" height="38.0762" filterUnits="userSpaceOnUse" color-interpolation-filters="sRGB">
<feFlood flood-opacity="0" result="BackgroundImageFix"/>
<feColorMatrix in="SourceAlpha" type="matrix" values="0 0 0 0 0 0 0 0 0 0 0 0 0 0 0 0 0 0 127 0" result="hardAlpha"/>
<feOffset dy="4"/>
<feGaussianBlur stdDeviation="2"/>
<feComposite in2="hardAlpha" operator="out"/>
<feColorMatrix type="matrix" values="0 0 0 0 0 0 0 0 0 0 0 0 0 0 0 0 0 0 0.25 0"/>
<feBlend mode="normal" in2="BackgroundImageFix" result="effect1_dropShadow_659_24"/>
<feBlend mode="normal" in="SourceGraphic" in2="effect1_dropShadow_659_24" result="shape"/>
</filter>
</defs>
</svg>
