<svg width="67" height="77" viewBox="0 0 67 77" fill="none" xmlns="http://www.w3.org/2000/svg">
<g filter="url(#filter0_d_583_111)">
<rect x="35.9502" y="48.7451" width="0.490196" height="4.0098" rx="0.245098" fill="url(#paint0_linear_583_111)" stroke="#7A4200" stroke-width="0.490196"/>
<rect x="30.5596" y="48.7451" width="0.490196" height="4.0098" rx="0.245098" fill="url(#paint1_linear_583_111)" stroke="#7A4200" stroke-width="0.490196"/>
<rect x="25.6572" y="48.7451" width="0.490196" height="4.0098" rx="0.245098" fill="url(#paint2_linear_583_111)" stroke="#7A4200" stroke-width="0.490196"/>
<rect x="40.6084" y="48.7451" width="0.490196" height="4.0098" rx="0.245098" fill="url(#paint3_linear_583_111)" stroke="#7A4200" stroke-width="0.490196"/>
<path d="M41.3434 48.9497L42.9365 37.4748H41.5885H40.6081H39.6277H38.6473H37.4218L36.3189 48.9497H41.3434Z" fill="url(#paint4_linear_583_111)"/>
<path d="M25.412 48.9497L23.9414 37.2498H25.2894H26.2698H27.2502H28.2306H29.4561L30.6816 48.9497H25.412Z" fill="url(#paint5_linear_583_111)"/>
<path d="M38.6473 37.4748H37.4218L36.3189 48.9497H41.3434L42.9365 37.4748H41.5885M38.6473 37.4748L38.1571 41.2997M38.6473 37.4748H39.6277M39.6277 37.4748L39.0149 43.0997M39.6277 37.4748H40.6081M40.6081 37.4748L39.7502 45.1247M40.6081 37.4748H41.5885M41.5885 37.4748L40.6081 48.0497M28.2306 37.2498H29.4561L30.6816 48.9497H25.412L23.9414 37.2498H25.2894M28.2306 37.2498L28.7208 41.0747M28.2306 37.2498H27.2502M27.2502 37.2498L27.863 42.8747M27.2502 37.2498H26.2698M26.2698 37.2498L27.1277 44.8997M26.2698 37.2498H25.2894M25.2894 37.2498L26.2698 47.8247" stroke="#7A4200" stroke-width="0.5" stroke-linecap="round"/>
<path d="M33.4983 28.475V24.1301C39.2625 24.1301 41.9458 19.3767 42.5669 17L39.8339 28.475H33.4983Z" fill="url(#paint6_linear_583_111)"/>
<path d="M33.4983 28.475V24.1301C27.7341 24.1301 25.0508 19.3767 24.4297 17L27.1627 28.475H33.4983Z" fill="url(#paint7_linear_583_111)"/>
<path d="M33.4983 24.1301V28.475M33.4983 24.1301C39.2625 24.1301 41.9458 19.3767 42.5669 17L39.8339 28.475H33.4983M33.4983 24.1301C27.7341 24.1301 25.0508 19.3767 24.4297 17L27.1627 28.475H33.4983" stroke="#7A4200" stroke-width="0.5"/>
<path d="M33.5 37.4747V33.6497C46 33.6497 45.5098 26.7872 46 26.4497L43.4265 37.4747H33.5Z" fill="url(#paint8_linear_583_111)"/>
<path d="M33.5 37.4747V33.6497C21 33.6497 21.4902 26.7872 21 26.4497L23.5735 37.4747H33.5Z" fill="url(#paint9_linear_583_111)"/>
<path d="M33.5 33.6497V37.4747M33.5 33.6497C46 33.6497 45.5098 26.7872 46 26.4497L43.4265 37.4747H33.5M33.5 33.6497C21 33.6497 21.4902 26.7872 21 26.4497L23.5735 37.4747H33.5" stroke="#7A4200" stroke-width="0.5"/>
<path d="M38.1575 28.4751L37.4263 36.0126L36.1276 49.4001H34.8141H33.5006V43.7751V36.0126V28.4751H35.2469H36.4112H38.1575Z" fill="url(#paint10_linear_583_111)"/>
<path d="M28.8438 28.4751L29.575 36.0126L30.8737 49.4001H32.1871H33.5006V43.7751V36.0126V28.4751H31.7543H30.5901H28.8438Z" fill="url(#paint11_linear_583_111)"/>
<path d="M37.4263 36.0126L38.1575 28.4751H36.4112M37.4263 36.0126L36.1276 49.4001M37.4263 36.0126L33.5006 43.7751M37.4263 36.0126H35.4634M36.1276 49.4001L33.5006 43.7751M36.1276 49.4001H34.8141M33.5006 49.4001V43.7751M33.5006 49.4001H34.8141M33.5006 49.4001H32.1871M33.5006 43.7751V36.0126M33.5006 43.7751L29.575 36.0126M33.5006 43.7751L30.8737 49.4001M33.5006 36.0126H34.482M33.5006 36.0126H32.5192M33.5006 36.0126V28.4751M35.4634 36.0126V37.8126M35.4634 36.0126H34.482M34.482 36.0126V39.2751M36.4112 28.4751V30.5001M36.4112 28.4751H35.2469M33.5006 28.4751H35.2469M33.5006 28.4751H31.7543M35.2469 28.4751V29.8251M34.8141 49.4001V48.2751M29.575 36.0126L28.8438 28.4751H30.5901M29.575 36.0126L30.8737 49.4001M29.575 36.0126H31.5378M30.8737 49.4001H32.1871M31.5378 36.0126V37.8126M31.5378 36.0126H32.5192M32.5192 36.0126V39.2751M30.5901 28.4751V30.5001M30.5901 28.4751H31.7543M31.7543 28.4751V29.8251M32.1871 49.4001V48.2751" stroke="#7A4200" stroke-width="0.5" stroke-linecap="round"/>
<path d="M40.3622 36.8C34.7472 33.9875 33.749 23.975 33.4995 23.75V31.5125C34.6973 34.3025 36.91 36.2 37.8667 36.8H40.3622Z" fill="url(#paint12_linear_583_111)"/>
<path d="M26.6367 36.8C32.2517 33.9875 33.2499 23.975 33.4995 23.75V31.5125C32.3016 34.3025 30.0889 36.2 29.1323 36.8H26.6367Z" fill="url(#paint13_linear_583_111)"/>
<path d="M33.4995 23.75C33.749 23.975 34.7472 33.9875 40.3622 36.8H37.8667C36.91 36.2 34.6973 34.3025 33.4995 31.5125M33.4995 23.75V31.5125M33.4995 23.75C33.2499 23.975 32.2517 33.9875 26.6367 36.8H29.1323C30.0889 36.2 32.3016 34.3025 33.4995 31.5125" stroke="#7A4200" stroke-width="0.5"/>
</g>
<defs>
<filter id="filter0_d_583_111" x="0.609375" y="0.936768" width="65.7812" height="76.0632" filterUnits="userSpaceOnUse" color-interpolation-filters="sRGB">
<feFlood flood-opacity="0" result="BackgroundImageFix"/>
<feColorMatrix in="SourceAlpha" type="matrix" values="0 0 0 0 0 0 0 0 0 0 0 0 0 0 0 0 0 0 127 0" result="hardAlpha"/>
<feOffset dy="4"/>
<feGaussianBlur stdDeviation="10"/>
<feComposite in2="hardAlpha" operator="out"/>
<feColorMatrix type="matrix" values="0 0 0 0 0 0 0 0 0 0 0 0 0 0 0 0 0 0 0.7 0"/>
<feBlend mode="normal" in2="BackgroundImageFix" result="effect1_dropShadow_583_111"/>
<feBlend mode="normal" in="SourceGraphic" in2="effect1_dropShadow_583_111" result="shape"/>
</filter>
<linearGradient id="paint0_linear_583_111" x1="36.1953" y1="48.5" x2="36.1953" y2="53" gradientUnits="userSpaceOnUse">
<stop stop-color="#F4DDC0"/>
<stop offset="1" stop-color="#957C13"/>
</linearGradient>
<linearGradient id="paint1_linear_583_111" x1="30.8046" y1="48.5" x2="30.8046" y2="53" gradientUnits="userSpaceOnUse">
<stop stop-color="#F4DDC0"/>
<stop offset="1" stop-color="#957C13"/>
</linearGradient>
<linearGradient id="paint2_linear_583_111" x1="25.9023" y1="48.5" x2="25.9023" y2="53" gradientUnits="userSpaceOnUse">
<stop stop-color="#F4DDC0"/>
<stop offset="1" stop-color="#957C13"/>
</linearGradient>
<linearGradient id="paint3_linear_583_111" x1="40.8535" y1="48.5" x2="40.8535" y2="53" gradientUnits="userSpaceOnUse">
<stop stop-color="#F4DDC0"/>
<stop offset="1" stop-color="#957C13"/>
</linearGradient>
<linearGradient id="paint4_linear_583_111" x1="33.5001" y1="28.7396" x2="33.4486" y2="48.9498" gradientUnits="userSpaceOnUse">
<stop stop-color="#F4DDC0"/>
<stop offset="1" stop-color="#957C13"/>
</linearGradient>
<linearGradient id="paint5_linear_583_111" x1="33.5001" y1="28.7396" x2="33.4486" y2="48.9498" gradientUnits="userSpaceOnUse">
<stop stop-color="#F4DDC0"/>
<stop offset="1" stop-color="#957C13"/>
</linearGradient>
<linearGradient id="paint6_linear_583_111" x1="33.4983" y1="17" x2="33.4983" y2="28.475" gradientUnits="userSpaceOnUse">
<stop stop-color="#F4DDC0"/>
<stop offset="1" stop-color="#957C13"/>
</linearGradient>
<linearGradient id="paint7_linear_583_111" x1="33.4983" y1="17" x2="33.4983" y2="28.475" gradientUnits="userSpaceOnUse">
<stop stop-color="#F4DDC0"/>
<stop offset="1" stop-color="#957C13"/>
</linearGradient>
<linearGradient id="paint8_linear_583_111" x1="33.5" y1="26.4497" x2="33.5" y2="37.4747" gradientUnits="userSpaceOnUse">
<stop stop-color="#F4DDC0"/>
<stop offset="1" stop-color="#957C13"/>
</linearGradient>
<linearGradient id="paint9_linear_583_111" x1="33.5" y1="26.4497" x2="33.5" y2="37.4747" gradientUnits="userSpaceOnUse">
<stop stop-color="#F4DDC0"/>
<stop offset="1" stop-color="#957C13"/>
</linearGradient>
<linearGradient id="paint10_linear_583_111" x1="33.5005" y1="19.8247" x2="33.5005" y2="43.5691" gradientUnits="userSpaceOnUse">
<stop stop-color="#F4DDC0"/>
<stop offset="1" stop-color="#957C13"/>
</linearGradient>
<linearGradient id="paint11_linear_583_111" x1="33.5005" y1="19.8247" x2="33.5005" y2="43.5691" gradientUnits="userSpaceOnUse">
<stop stop-color="#F4DDC0"/>
<stop offset="1" stop-color="#957C13"/>
</linearGradient>
<linearGradient id="paint12_linear_583_111" x1="33.4995" y1="23.75" x2="33.4995" y2="36.8" gradientUnits="userSpaceOnUse">
<stop stop-color="#F1C81F"/>
<stop offset="1" stop-color="#8B7312"/>
</linearGradient>
<linearGradient id="paint13_linear_583_111" x1="33.4995" y1="23.75" x2="33.4995" y2="36.8" gradientUnits="userSpaceOnUse">
<stop stop-color="#F1C81F"/>
<stop offset="1" stop-color="#8B7312"/>
</linearGradient>
</defs>
</svg>
