<svg width="428" height="145" viewBox="0 0 428 145" fill="none" xmlns="http://www.w3.org/2000/svg">
<path opacity="0.6" d="M160 53.5653H260C260 53.5653 257.335 52.9691 255.243 52.4699C251.476 51.5757 253.054 45.9946 245.216 48.7442C244.101 47.2334 242.5 46.1544 240.682 45.69C238.864 45.2256 236.941 45.4043 235.24 46.1958C235.446 44.9026 235.201 43.5779 234.547 42.4438C233.893 41.3097 232.869 40.4353 231.648 39.9671C230.426 39.4989 229.08 39.4654 227.837 39.8723C226.593 40.2792 225.528 41.1016 224.818 42.2018C224.889 40.2302 224.356 38.284 223.292 36.6235C222.228 34.963 220.682 33.6673 218.863 32.9098C212.334 30.0186 207.309 34.7727 206.073 36.6952C206.073 36.6952 202.842 31.263 194.72 33.1185C186.599 34.9739 187.574 44.1317 187.574 44.1317C187.574 44.1317 184.544 40.8978 180.971 43.3046C177.07 45.9275 179.594 50.1227 179.594 50.1227C179.594 50.1227 172.38 51.0988 160 53.5653Z" fill="url(#paint0_linear_523_9)"/>
<path opacity="0.6" d="M14 29.8665H134C134 29.8665 130.804 29.1565 128.294 28.5609C123.771 27.4768 125.67 20.7808 116.258 24.0868C114.921 22.2739 112.999 20.9794 110.818 20.4228C108.637 19.8661 106.33 20.0817 104.29 21.0328C104.541 19.6228 104.341 18.1697 103.719 16.8799C103.098 15.5901 102.085 14.5292 100.827 13.8482C96.3646 11.4508 92.4363 14.6728 91.7422 16.2456C91.8304 13.8744 91.1894 11.5332 89.9058 9.53838C88.6222 7.54351 86.7578 5.99107 84.5645 5.09079C76.7231 1.62448 70.6972 7.32022 69.2174 9.67182C69.2174 9.67182 65.3349 3.14385 55.5942 5.37328C45.8536 7.60272 47.013 18.5361 47.013 18.5361C47.013 18.5361 43.3822 14.6499 39.0877 17.5435C34.4119 20.6892 37.4401 25.7207 37.4401 25.7207C37.4401 25.7207 28.8513 26.9347 14 29.8665Z" fill="url(#paint1_linear_523_9)"/>
<path opacity="0.6" d="M284 114.867H404C404 114.867 400.804 114.156 398.294 113.561C393.771 112.477 395.67 105.781 386.258 109.087C384.921 107.274 382.999 105.979 380.818 105.423C378.637 104.866 376.33 105.082 374.29 106.033C374.541 104.623 374.341 103.17 373.719 101.88C373.098 100.59 372.085 99.5292 370.827 98.8482C366.365 96.4508 362.436 99.6728 361.742 101.246C361.83 98.8744 361.189 96.5332 359.906 94.5384C358.622 92.5435 356.758 90.9911 354.564 90.0908C346.723 86.6245 340.697 92.3202 339.217 94.6718C339.217 94.6718 335.335 88.1439 325.594 90.3733C315.854 92.6027 317.013 103.536 317.013 103.536C317.013 103.536 313.382 99.6499 309.088 102.544C304.412 105.689 307.44 110.721 307.44 110.721C307.44 110.721 298.851 111.935 284 114.867Z" fill="url(#paint2_linear_523_9)"/>
<path opacity="0.4" d="M269 47.4539H419C419 47.4539 415.033 46.4811 411.866 45.6605C406.214 44.1782 408.561 34.9994 396.819 39.5259C396.819 39.5259 391.457 30.9228 381.864 35.3369C381.864 35.3369 383.1 28.7721 377.527 25.4831C371.953 22.194 367.008 26.6147 366.181 28.7919C366.181 28.7919 367.008 18.2565 357.203 13.4983C347.398 8.74018 339.874 16.5557 338.03 19.7256C338.03 19.7256 333.184 10.7851 321.005 13.8425C308.827 16.8998 310.275 31.9618 310.275 31.9618C310.275 31.9618 305.74 26.6676 300.358 30.5986C294.52 34.9199 298.295 41.8487 298.295 41.8487C298.295 41.8487 287.571 43.3774 269 47.4539Z" fill="url(#paint3_linear_523_9)"/>
<path opacity="0.4" d="M112 94.2393H192C192 94.2393 189.87 93.762 188.185 93.3611C185.165 92.6419 186.43 88.1805 180.155 90.3825C179.266 89.1722 177.986 88.3078 176.532 87.9364C175.078 87.565 173.54 87.7098 172.181 88.3459C172.362 87.302 172.174 86.2276 171.65 85.3071C171.126 84.3866 170.298 83.6774 169.308 83.3011C168.319 82.9247 167.229 82.9048 166.227 83.2447C165.224 83.5846 164.371 84.2631 163.814 85.1638C163.873 83.5837 163.446 82.0235 162.591 80.694C161.736 79.3646 160.494 78.33 159.032 77.7302C153.806 75.4136 149.787 79.2131 148.795 80.7596C148.795 80.7596 146.208 76.4064 139.716 77.8957C133.224 79.3849 133.993 86.7039 133.993 86.7039C133.993 86.7039 131.577 84.1136 128.716 86.0675C125.6 88.1677 127.616 91.5218 127.616 91.5218C127.616 91.5218 121.906 92.2536 112 94.2393Z" fill="url(#paint4_linear_523_9)"/>
<path opacity="0.1" d="M396 0.581182C396 0.259294 328.843 0 246 0C163.157 0 96 0.259294 96 0.581182C96 0.903071 163.157 1.15343 246 1.15343C328.843 1.15343 396 0.89413 396 0.581182Z" fill="url(#paint5_linear_523_9)"/>
<path opacity="0.1" d="M364 144.394C364 144.179 274.461 144 164.003 144C53.5455 144 -36 144.179 -36 144.394C-36 144.61 53.5455 144.795 164.003 144.795C274.461 144.795 364 144.616 364 144.394Z" fill="url(#paint6_linear_523_9)"/>
<path opacity="0.1" d="M-143 62.021C-143 60.9009 -53.457 60 56.9939 60C167.445 60 257 60.8887 257 62.021C257 63.1532 167.457 64.0419 56.9939 64.0419C-53.4692 64.0419 -143 63.1288 -143 62.021Z" fill="url(#paint7_linear_523_9)"/>
<path opacity="0.28" d="M269 107.513C269 107.221 224.236 107 169 107C113.764 107 69 107.236 69 107.513C69 107.79 113.764 108.027 169 108.027C224.236 108.027 269 107.806 269 107.513Z" fill="url(#paint8_linear_523_9)"/>
<path opacity="0.2" d="M352 74.2319C434.843 74.2319 502 73.5084 502 72.616C502 71.7235 434.843 71 352 71C269.157 71 202 71.7235 202 72.616C202 73.5084 269.157 74.2319 352 74.2319Z" fill="url(#paint9_linear_523_9)"/>
<path opacity="0.4" d="M-27 136.901H123C123 136.901 101.514 131.349 99.6352 129.496C97.7566 127.643 99.4226 118.749 91.696 114.399C83.9694 110.048 75.1939 116.293 75.1939 116.293C75.1939 116.293 76.3731 111.009 71.718 108.14C68.2009 105.978 63.9982 108.998 63.9982 108.998C63.9982 108.998 62.3528 98.0935 52.8917 103.686C52.8917 103.686 49.2238 93.6329 34.751 94.0104C20.2782 94.3878 8.39698 103.117 4.63309 108.14C0.869209 113.163 1.63708 120.184 2.79572 122.839C1.72543 122.041 0.430244 121.601 -0.904594 121.584C-2.23943 121.567 -3.54556 121.973 -4.63609 122.743C-8.74962 125.399 -6.17867 129.668 -7.04936 130.711C-7.92007 131.754 -18.91 136.379 -27 136.901Z" fill="url(#paint10_linear_523_9)"/>
<defs>
<linearGradient id="paint0_linear_523_9" x1="210.004" y1="53.5653" x2="210.004" y2="32.0007" gradientUnits="userSpaceOnUse">
<stop stop-color="white" stop-opacity="0"/>
<stop offset="0.06" stop-color="white" stop-opacity="0.08"/>
<stop offset="0.33" stop-color="white" stop-opacity="0.4"/>
<stop offset="0.57" stop-color="white" stop-opacity="0.66"/>
<stop offset="0.76" stop-color="white" stop-opacity="0.84"/>
<stop offset="0.91" stop-color="white" stop-opacity="0.96"/>
<stop offset="1" stop-color="white"/>
</linearGradient>
<linearGradient id="paint1_linear_523_9" x1="74" y1="29.8665" x2="74" y2="3.99134" gradientUnits="userSpaceOnUse">
<stop stop-color="white" stop-opacity="0"/>
<stop offset="0.06" stop-color="white" stop-opacity="0.08"/>
<stop offset="0.33" stop-color="white" stop-opacity="0.4"/>
<stop offset="0.57" stop-color="white" stop-opacity="0.66"/>
<stop offset="0.76" stop-color="white" stop-opacity="0.84"/>
<stop offset="0.91" stop-color="white" stop-opacity="0.96"/>
<stop offset="1" stop-color="white"/>
</linearGradient>
<linearGradient id="paint2_linear_523_9" x1="344" y1="114.867" x2="344" y2="88.9913" gradientUnits="userSpaceOnUse">
<stop stop-color="white" stop-opacity="0"/>
<stop offset="0.06" stop-color="white" stop-opacity="0.08"/>
<stop offset="0.33" stop-color="white" stop-opacity="0.4"/>
<stop offset="0.57" stop-color="white" stop-opacity="0.66"/>
<stop offset="0.76" stop-color="white" stop-opacity="0.84"/>
<stop offset="0.91" stop-color="white" stop-opacity="0.96"/>
<stop offset="1" stop-color="white"/>
</linearGradient>
<linearGradient id="paint3_linear_523_9" x1="344" y1="47.4539" x2="344" y2="11.9829" gradientUnits="userSpaceOnUse">
<stop stop-color="white" stop-opacity="0"/>
<stop offset="0.06" stop-color="white" stop-opacity="0.08"/>
<stop offset="0.33" stop-color="white" stop-opacity="0.4"/>
<stop offset="0.57" stop-color="white" stop-opacity="0.66"/>
<stop offset="0.76" stop-color="white" stop-opacity="0.84"/>
<stop offset="0.91" stop-color="white" stop-opacity="0.96"/>
<stop offset="1" stop-color="white"/>
</linearGradient>
<linearGradient id="paint4_linear_523_9" x1="152" y1="94.2393" x2="152" y2="76.9856" gradientUnits="userSpaceOnUse">
<stop stop-color="white" stop-opacity="0"/>
<stop offset="0.06" stop-color="white" stop-opacity="0.08"/>
<stop offset="0.33" stop-color="white" stop-opacity="0.4"/>
<stop offset="0.57" stop-color="white" stop-opacity="0.66"/>
<stop offset="0.76" stop-color="white" stop-opacity="0.84"/>
<stop offset="0.91" stop-color="white" stop-opacity="0.96"/>
<stop offset="1" stop-color="white"/>
</linearGradient>
<linearGradient id="paint5_linear_523_9" x1="95.4998" y1="1.47961" x2="395.135" y2="1.47961" gradientUnits="userSpaceOnUse">
<stop stop-color="white" stop-opacity="0"/>
<stop offset="0.06" stop-color="white" stop-opacity="0.08"/>
<stop offset="0.33" stop-color="white" stop-opacity="0.4"/>
<stop offset="0.57" stop-color="white" stop-opacity="0.66"/>
<stop offset="0.76" stop-color="white" stop-opacity="0.84"/>
<stop offset="0.91" stop-color="white" stop-opacity="0.96"/>
<stop offset="1" stop-color="white"/>
</linearGradient>
<linearGradient id="paint6_linear_523_9" x1="-36.4198" y1="144.804" x2="363.082" y2="144.804" gradientUnits="userSpaceOnUse">
<stop stop-color="white" stop-opacity="0"/>
<stop offset="0.06" stop-color="white" stop-opacity="0.08"/>
<stop offset="0.33" stop-color="white" stop-opacity="0.4"/>
<stop offset="0.57" stop-color="white" stop-opacity="0.66"/>
<stop offset="0.76" stop-color="white" stop-opacity="0.84"/>
<stop offset="0.91" stop-color="white" stop-opacity="0.96"/>
<stop offset="1" stop-color="white"/>
</linearGradient>
<linearGradient id="paint7_linear_523_9" x1="260.289" y1="62.0804" x2="-144.243" y2="62.0804" gradientUnits="userSpaceOnUse">
<stop stop-color="white" stop-opacity="0"/>
<stop offset="0.06" stop-color="white" stop-opacity="0.08"/>
<stop offset="0.33" stop-color="white" stop-opacity="0.4"/>
<stop offset="0.57" stop-color="white" stop-opacity="0.66"/>
<stop offset="0.76" stop-color="white" stop-opacity="0.84"/>
<stop offset="0.91" stop-color="white" stop-opacity="0.96"/>
<stop offset="1" stop-color="white"/>
</linearGradient>
<linearGradient id="paint8_linear_523_9" x1="67.1917" y1="107.764" x2="266.32" y2="107.764" gradientUnits="userSpaceOnUse">
<stop stop-color="white" stop-opacity="0"/>
<stop offset="0.06" stop-color="white" stop-opacity="0.08"/>
<stop offset="0.33" stop-color="white" stop-opacity="0.4"/>
<stop offset="0.57" stop-color="white" stop-opacity="0.66"/>
<stop offset="0.76" stop-color="white" stop-opacity="0.84"/>
<stop offset="0.91" stop-color="white" stop-opacity="0.96"/>
<stop offset="1" stop-color="white"/>
</linearGradient>
<linearGradient id="paint9_linear_523_9" x1="507.199" y1="72.8092" x2="208.606" y2="72.8092" gradientUnits="userSpaceOnUse">
<stop stop-color="white" stop-opacity="0"/>
<stop offset="0.06" stop-color="white" stop-opacity="0.08"/>
<stop offset="0.33" stop-color="white" stop-opacity="0.4"/>
<stop offset="0.57" stop-color="white" stop-opacity="0.66"/>
<stop offset="0.76" stop-color="white" stop-opacity="0.84"/>
<stop offset="0.91" stop-color="white" stop-opacity="0.96"/>
<stop offset="1" stop-color="white"/>
</linearGradient>
<linearGradient id="paint10_linear_523_9" x1="47.9897" y1="136.901" x2="47.9897" y2="93.9898" gradientUnits="userSpaceOnUse">
<stop stop-color="white" stop-opacity="0"/>
<stop offset="0.06" stop-color="white" stop-opacity="0.08"/>
<stop offset="0.33" stop-color="white" stop-opacity="0.4"/>
<stop offset="0.57" stop-color="white" stop-opacity="0.66"/>
<stop offset="0.76" stop-color="white" stop-opacity="0.84"/>
<stop offset="0.91" stop-color="white" stop-opacity="0.96"/>
<stop offset="1" stop-color="white"/>
</linearGradient>
</defs>
</svg>
