<svg width="428" height="174" viewBox="0 0 428 174" fill="none" xmlns="http://www.w3.org/2000/svg">
<path d="M462 58.6818C462 58.6818 437.796 23.9441 433.256 22.3061C428.715 20.6682 425.69 20.5661 421.656 20.5661C417.622 20.5661 378.882 24.4674 375.197 21.4808C371.512 18.4942 355.27 20.3533 351.738 19.2855C348.206 18.2176 330.377 33.891 324.326 35.2865C318.275 36.682 304.156 42.634 298.607 39.0432C293.058 35.4524 280.454 31.6149 276.905 31.6149C273.356 31.6149 252.697 34.6398 250.68 36.2948C248.663 37.9498 243.621 43.2126 236.561 44.2507C229.502 45.2887 203.294 52.649 198.753 51.8406C194.213 51.0323 176.345 45.4589 175.916 45.1058C175.486 44.7527 173.69 44.3017 172.937 44.3017C172.184 44.3017 170.835 45.2036 170.094 45.0037C169.354 44.8037 165.026 44.4038 163.422 44.2038C161.818 44.0039 154.15 39.3495 152.546 39.1496C149.346 38.7496 140.512 31.6404 135.099 32.1893C131.142 32.5892 122.81 30.0365 121.082 29.8365C119.355 29.6366 108.793 34.091 107.066 33.1848C105.338 32.2786 102.066 34.8228 100.844 34.3973C99.6232 33.9719 95.5807 31.1086 93.9722 31.1086C92.3637 31.1086 83.3341 33.0444 80.1001 32.6445C76.8661 32.2446 67.5982 32.8317 64.9514 32.453C62.3047 32.0744 55.0325 30.8108 53.0623 29.6749C51.0921 28.5389 39.6753 26.3904 37.9093 24.6248C36.1434 22.8592 25.3819 12.0061 23.5138 11.7551C21.6458 11.5041 17.5182 11.9465 16.6629 11.2488C15.8076 10.5511 6.69711 7.96861 5.76096 7.21132C4.8248 6.45402 -8.40902 3.54822 -10.7451 3.04194C-13.0813 2.53566 -21.4896 2.41228 -24.1407 1.7656C-26.7917 1.11892 -38 0 -38 0V174.5H207.5H450L462 58.6818Z" fill="#7A4200"/>
<path d="M272.688 21.2978C272.433 20.8213 270.68 21.1702 270.527 21.4255C270.344 22.0869 270.275 22.7746 270.322 23.4591C270.373 23.9356 270.425 27.2456 270.425 28.1986C270.425 29.1516 268.829 28.9303 268.829 28.9303C268.724 28.4065 268.671 27.8735 268.671 27.3392C268.671 26.45 268.982 17.0051 268.982 15.8266C268.982 14.6481 268.314 14.6481 267.591 14.6481C266.867 14.6481 265.995 15.1927 266.046 15.6351C266.097 16.0776 265.893 19.0685 265.944 20.4682C265.995 21.8679 266.097 26.5776 266.097 26.5776C264.761 26.701 264.225 26.1947 264.225 25.748C264.225 25.3013 264.297 22.4082 264.297 21.7403C264.304 21.5902 264.276 21.4405 264.217 21.3026C264.157 21.1647 264.067 21.0422 263.953 20.9442C263.839 20.8463 263.704 20.7755 263.559 20.7373C263.414 20.699 263.261 20.6943 263.114 20.7235C262.825 20.7493 262.556 20.88 262.357 21.0908C262.157 21.3017 262.042 21.5781 262.033 21.8679C262.033 22.4082 261.825 25.3694 262.033 26.45C262.242 27.5306 262.701 27.8157 263.31 27.8795C263.918 27.9433 266.399 27.7519 266.399 27.7519L266.501 34.2399L268.629 34.4611L268.527 30.4237C268.527 30.4237 271.795 29.9004 272.356 29.5728C272.918 29.2452 272.718 26.8372 272.82 25.6289C272.922 24.4206 272.948 21.7743 272.688 21.2978Z" fill="#7A4200"/>
<path d="M106.083 32.7636C105.053 32.2658 102.334 31.3639 102.334 31.3639C103.644 31.415 104.943 31.6192 106.206 31.9723C105.345 31.0784 104.434 30.2333 103.478 29.4409C104.64 30.0458 105.764 30.7207 106.844 31.4617C105.866 29.4409 103.504 26.4372 103.504 26.4372C105.072 27.8125 106.456 29.3856 107.619 31.1171C107.193 28.9516 105.189 22.4508 105.189 22.4508C106.466 24.7822 108.346 30.3216 108.346 30.3216C108.177 28.0703 108.164 25.81 108.308 23.557C108.466 24.6035 109.21 30.8491 109.21 30.8491C109.455 29.3864 109.874 27.9581 110.457 26.5946C110.237 27.7982 110.08 29.0124 109.985 30.2322C110.683 28.5304 112.878 25.7863 112.878 25.7863C112.015 27.4789 111.245 29.2173 110.572 30.9938C113.351 28.9729 115.751 28.7644 115.751 28.7644C113.963 29.4154 111.397 31.7043 111.397 31.7043C112.775 31.3153 114.2 31.1205 115.631 31.1256C114.225 31.4863 112.85 31.9615 111.521 32.5466L109.227 34.2484L107.1 33.4784C104.972 33.172 103.568 33.1167 103.568 33.1167C104.384 32.8739 105.231 32.7549 106.083 32.7636Z" fill="#7A4200"/>
<path d="M278.105 32.0914C277.607 31.666 276.237 30.8363 276.237 30.8363C276.948 31.0386 277.632 31.3242 278.275 31.6872C277.921 31.0845 277.533 30.5021 277.114 29.9429C277.671 30.4265 278.198 30.9436 278.692 31.4915C278.389 30.3994 277.998 29.3337 277.522 28.3049C278.194 29.2683 278.738 30.3152 279.139 31.4192C279.186 30.1812 278.948 26.3606 278.948 26.3606C279.274 27.9194 279.506 29.4964 279.641 31.0831C279.839 29.8282 280.123 28.5886 280.492 27.3732C280.441 27.9646 280.029 31.4788 280.029 31.4788C280.355 30.7115 280.772 29.9859 281.271 29.3175C280.993 29.9454 280.747 30.5872 280.535 31.2405C281.183 30.4826 281.909 29.7953 282.701 29.1899C282.007 30.005 281.358 30.8571 280.756 31.7425C281.737 31.3045 282.813 31.1187 283.884 31.2022C282.82 31.3256 281.114 32.2403 281.114 32.2403C281.919 32.2086 282.726 32.2888 283.509 32.4786C282.693 32.4905 281.879 32.5702 281.075 32.7168L279.595 33.3465L278.522 32.6445C277.407 32.219 276.637 31.985 276.637 31.985C277.129 31.9451 277.624 31.981 278.105 32.0914Z" fill="#7A4200"/>
<path d="M246.05 40.1536C245.199 40.1791 243.072 40.477 243.072 40.477C244.02 40.1233 244.999 39.8556 245.995 39.6771C245.203 39.4269 244.398 39.2224 243.582 39.0645C244.516 39.059 245.45 39.1058 246.378 39.2049C245.348 38.49 244.251 37.8773 243.102 37.3754C244.426 37.6629 245.701 38.1401 246.889 38.7922C246.212 37.7115 243.668 34.6611 243.668 34.6611C244.995 35.5886 247.289 38.1327 247.289 38.1327C246.785 36.9137 246.396 35.6503 246.127 34.359C246.416 34.8993 248.004 38.188 248.004 38.188C247.942 37.2657 248.009 36.3392 248.204 35.4354C248.243 36.1651 248.332 36.8914 248.467 37.6094C248.689 36.448 249.833 34.2697 249.833 34.2697C249.492 35.4467 249.221 36.6429 249.021 37.8519C249.973 36.7236 251.127 35.7829 252.425 35.078C251.225 35.9715 249.736 38.0051 249.736 38.0051C250.672 37.3816 251.67 36.8556 252.714 36.4352C251.754 37.0463 250.831 37.7155 249.953 38.4391L246.867 40.2727C245.276 40.7237 244.229 41.1236 244.229 41.1236C244.798 40.7336 245.409 40.4082 246.05 40.1536Z" fill="#7A4200"/>
<path d="M119.206 10.3766C119.502 10.3983 119.781 10.5281 119.988 10.7414C120.195 10.9548 120.316 11.2368 120.329 11.5338C120.385 12.1422 120.274 17.3497 120.274 18.141C120.274 18.9324 121.372 19.1536 121.372 19.1536C121.372 19.1536 121.453 12.4017 121.372 10.8744C121.291 9.34704 122.053 8.27918 123.287 8.42383C124.521 8.56849 125.197 9.82354 125.197 11.1509C125.197 12.4783 124.959 23.0932 124.959 23.0932C125.678 22.9103 126.138 22.6678 126.138 21.9913C126.138 21.3148 126.082 16.4605 126.01 15.7883C125.938 15.1161 126.082 14.2056 126.891 14.2227C127.699 14.2397 128.108 15.1076 128.125 16.0648C128.142 17.0221 128.035 20.9787 127.555 22.6167C127.074 24.2547 124.836 24.5823 124.836 24.5823L124.248 31.734H122.436L121.499 20.6256C120.833 20.6099 120.191 20.3712 119.677 19.9477C119.162 19.5243 118.805 18.9406 118.661 18.2899C118.516 17.5922 118.368 14.0738 118.236 12.5464C118.104 11.0191 118.597 10.3766 119.206 10.3766Z" fill="#7A4200"/>
<path d="M125.61 31.8446L125.218 31.6915C125.807 30.8234 126.568 30.0849 127.452 29.5217C126.765 30.2346 126.148 31.0126 125.61 31.8446Z" fill="#7A4200"/>
<path d="M126.376 27.1647C126.143 28.3346 125.808 29.4819 125.376 30.5938C126.095 29.4201 126.935 28.3249 127.882 27.3264C126.917 28.7294 126.033 30.1868 125.236 31.6915L124.959 31.5851L124.844 31.5383L124.674 31.4745C124.674 31.4745 125.912 28.7091 126.376 27.1647Z" fill="#7A4200"/>
<path d="M123.533 30.9938C123.421 29.9839 123.215 28.9869 122.916 28.0156C123.452 28.9912 123.809 30.0544 123.972 31.1554L123.533 30.9938Z" fill="#7A4200"/>
<path d="M124.278 30.4577C124.46 29.3077 124.581 28.1489 124.64 26.986C124.706 27.7372 124.723 28.4918 124.691 29.2452C124.99 28.0035 125.223 26.7466 125.389 25.48C125.395 26.6587 125.313 27.8363 125.142 29.0027C125.47 27.7263 125.835 26.2117 126.014 25.1056C125.87 27.2844 125.491 29.4412 124.882 31.5383L124.64 31.4447L124.491 31.3852L124.329 31.3213L124.223 31.2831L124.172 31.2618L123.895 31.1512C123.862 29.4785 123.73 27.8093 123.499 26.1522C123.907 27.5565 124.168 28.9994 124.278 30.4577Z" fill="#7A4200"/>
<path d="M123.397 30.4322L122.972 30.4704C123.098 29.4292 123.438 28.4253 123.972 27.5221C123.688 28.4717 123.496 29.4461 123.397 30.4322Z" fill="#7A4200"/>
<path d="M121.95 25.9224C122.276 27.0692 122.501 28.2422 122.623 29.4281C122.726 28.0557 122.974 26.6981 123.363 25.3779C123.144 27.0713 123.022 28.7758 122.997 30.4832L122.699 30.513H122.397C122.397 30.513 122.24 27.5221 121.95 25.9224Z" fill="#7A4200"/>
<path d="M121.172 30.6534C120.611 29.8077 119.973 29.0158 119.265 28.2879C120.188 28.9147 120.991 29.6997 121.64 30.6066L121.172 30.6534Z" fill="#7A4200"/>
<path d="M121.58 29.8238C121.214 28.7151 120.788 27.6272 120.304 26.5649C120.706 27.2041 121.066 27.8693 121.38 28.5559C121.081 27.313 120.715 26.0874 120.282 24.8844C120.827 25.9309 121.291 27.0175 121.67 28.1348C121.385 26.8584 121.019 25.3311 120.67 24.2675C121.536 26.2718 122.181 28.3646 122.593 30.5087L122.333 30.5343H121.836L121.538 30.564C120.745 29.0955 119.867 27.6748 118.908 26.3096C119.92 27.3834 120.816 28.5613 121.58 29.8238Z" fill="#7A4200"/>
<path d="M266.825 34.1548L266.399 34.1931C266.527 33.1522 266.867 32.1487 267.399 31.2448C267.115 32.1941 266.922 33.1686 266.825 34.1548Z" fill="#7A4200"/>
<path d="M265.386 29.6451C265.712 30.7918 265.937 31.9649 266.059 33.1508C266.162 31.7784 266.41 30.4207 266.799 29.1005C266.58 30.7939 266.457 32.4985 266.433 34.2059L266.135 34.2356H265.833C265.833 34.2356 265.676 31.2448 265.386 29.6451Z" fill="#7A4200"/>
<path d="M264.608 34.3973C264.047 33.5516 263.408 32.7597 262.701 32.0318C263.625 32.6572 264.429 33.4424 265.076 34.3505L264.608 34.3973Z" fill="#7A4200"/>
<path d="M265.016 33.5464C264.65 32.4378 264.224 31.3498 263.74 30.2875C264.141 30.9256 264.501 31.5893 264.816 32.2743C264.516 31.0336 264.151 29.8095 263.723 28.607C264.265 29.6542 264.727 30.7407 265.105 31.8574C264.82 30.5811 264.454 29.0537 264.105 27.9901C264.972 29.9944 265.617 32.0872 266.029 34.2314L265.769 34.2569H265.271L264.974 34.2867C264.181 32.8181 263.303 31.3975 262.344 30.0322C263.356 31.106 264.252 32.284 265.016 33.5464Z" fill="#7A4200"/>
<path d="M285.969 34.8228L285.599 34.6271C286.277 33.8276 287.113 33.1759 288.054 32.7126C287.293 33.3478 286.595 34.0544 285.969 34.8228Z" fill="#7A4200"/>
<path d="M287.246 30.2705C286.888 31.4091 286.431 32.5139 285.88 33.572C286.723 32.4834 287.677 31.4853 288.726 30.5938C287.613 31.8842 286.576 33.238 285.62 34.6483L285.36 34.5122L285.25 34.4526L285.088 34.3675C285.088 34.3675 286.607 31.7681 287.246 30.2705Z" fill="#7A4200"/>
<path d="M283.995 33.7974C283.99 32.7836 283.892 31.7724 283.701 30.7768C284.13 31.8047 284.371 32.9013 284.412 34.0144L283.995 33.7974Z" fill="#7A4200"/>
<path d="M284.794 33.3294C285.1 32.2087 285.345 31.0726 285.531 29.9259C285.514 30.6794 285.45 31.4311 285.339 32.1765C285.768 30.9739 286.135 29.7498 286.437 28.5091C286.316 29.6821 286.105 30.8441 285.807 31.985C286.275 30.7598 286.803 29.2835 287.084 28.2071C286.707 30.3575 286.096 32.4603 285.263 34.4782L285.033 34.3548L284.892 34.2825L284.739 34.2016L284.637 34.1463L284.586 34.1208L284.322 33.9846C284.47 32.3184 284.52 30.6449 284.471 28.9729C284.729 30.41 284.838 31.87 284.794 33.3294Z" fill="#7A4200"/>
<path d="M39.6497 26.6414L39.1689 26.4415C39.9229 25.3736 40.8891 24.4728 42.0071 23.7952C41.1333 24.6675 40.344 25.6205 39.6497 26.6414Z" fill="#7A4200"/>
<path d="M40.7348 20.8469C40.4163 22.3013 39.9706 23.7249 39.4029 25.1013C40.3276 23.6555 41.4015 22.3108 42.6071 21.0894C41.3705 22.8139 40.2339 24.6079 39.2029 26.4628L38.8625 26.3224L38.7221 26.2628L38.5093 26.1735C38.5093 26.1735 40.1093 22.7699 40.7348 20.8469Z" fill="#7A4200"/>
<path d="M37.0881 25.5778C36.971 24.3198 36.7389 23.0751 36.3945 21.8594C37.0369 23.0903 37.4548 24.4258 37.6285 25.8033L37.0881 25.5778Z" fill="#7A4200"/>
<path d="M38.0242 24.9099C38.2843 23.4814 38.4661 22.0399 38.5689 20.5916C38.6304 21.5294 38.6304 22.4702 38.5689 23.4081C38.9738 21.8663 39.2962 20.3042 39.5348 18.7281C39.5126 20.1969 39.3789 21.6618 39.1348 23.1102C39.5604 21.5361 40.071 19.6514 40.3221 18.2772C40.0879 20.9868 39.56 23.6629 38.7476 26.2585L38.4497 26.1352L38.2668 26.0586H38.2412L38.0413 25.9735L37.9093 25.9182L37.8668 25.8884L37.5221 25.748C37.5197 23.6619 37.3932 21.5778 37.1434 19.5067C37.626 21.2718 37.9213 23.0829 38.0242 24.9099Z" fill="#7A4200"/>
<path d="M175.141 45.5653H174.69C174.934 44.4645 175.4 43.425 176.06 42.5106C175.656 43.4969 175.349 44.5199 175.141 45.5653Z" fill="#7A4200"/>
<path d="M174.06 40.5961C174.295 41.8591 174.417 43.1405 174.426 44.4251C174.676 42.9689 175.078 41.5429 175.626 40.1706C175.221 41.9557 174.918 43.7626 174.72 45.5823H174.073C174.073 45.5823 174.209 42.3362 174.06 40.5961Z" fill="#7A4200"/>
<path d="M172.758 45.578C172.244 44.6178 171.641 43.7077 170.958 42.8595C171.882 43.6209 172.661 44.5416 173.26 45.578H172.758Z" fill="#7A4200"/>
<path d="M173.269 44.7314C172.996 43.5111 172.657 42.3066 172.252 41.1236C172.617 41.8468 172.936 42.5929 173.205 43.3572C173.008 41.9996 172.74 40.6533 172.401 39.324C172.877 40.4966 173.263 41.7042 173.554 42.936C173.379 41.5406 173.128 39.8728 172.877 38.7028C173.599 40.9336 174.077 43.2359 174.303 45.5695H173.141C172.444 43.9122 171.649 42.2983 170.758 40.7365C171.734 41.9754 172.576 43.3145 173.269 44.7314Z" fill="#7A4200"/>
<path d="M227.83 35.0312C227.893 34.0442 227.83 27.5732 227.83 26.2415C227.83 24.9099 228.293 24.8163 228.574 24.8163C228.855 24.8163 229.4 25.1269 229.4 25.9948C229.4 26.8627 229.472 32.8359 229.4 33.8272C229.327 34.8185 229.587 35.4354 230.051 35.4354C230.515 35.4354 230.902 34.6909 230.978 33.3635C231.055 32.0361 231.319 19.277 231.319 17.5412C231.319 15.8053 231.94 15.8096 232.344 15.9032C232.749 15.9968 233.085 16.5201 233.085 17.2646C233.085 18.0091 232.902 29.4281 232.902 31.1001C232.902 32.7721 233.025 33.3933 233.672 33.3295C234.319 33.2656 234.446 32.2148 234.446 31.5979C234.446 30.981 234.446 12.104 234.48 10.8021C234.514 9.50023 235.532 9.68741 235.757 10.0618C235.983 10.4362 236.004 11.7636 235.944 14.2397C235.885 16.7158 235.817 32.5552 235.693 33.2997C235.57 34.0442 235.957 35.6354 236.191 35.8524C236.425 36.0693 236.902 35.729 236.902 34.8015C236.902 33.874 237.025 22.0126 237.059 20.932C237.093 19.8513 238.336 20.0343 238.544 20.3746C238.753 20.715 238.855 21.1787 238.855 22.8507C238.855 24.5227 238.651 33.7804 238.651 35.6141C238.651 37.4478 238.272 37.5116 237.702 38.0817C237.132 38.6518 235.927 38.337 235.357 39.0347C234.787 39.7324 234.723 45.9354 234.723 47.6415L231.578 47.3947C231.578 47.3947 231.855 37.703 231.578 37.3329C231.302 36.9628 229.876 37.0862 229.161 37.0862C228.447 37.0862 227.77 36.0225 227.83 35.0312Z" fill="#7A4200"/>
</svg>
