<svg width="428" height="213" viewBox="0 0 428 213" fill="none" xmlns="http://www.w3.org/2000/svg">
<path d="M-13.5276 0.0021844C-10.3095 -0.160388 -1.67748 8.81012 5.12654 7.33535C9.55354 6.38314 12.976 4.85033 15.1836 5.04193C17.3913 5.23353 66.024 14.3318 68.4127 16.6194C70.8014 18.907 86.7398 23.0062 90.9332 23.0062C95.1265 23.0062 107.286 24.8874 110.837 26.5886C115.743 28.911 132.312 41.8878 146.831 38.5086C151.504 37.4229 170.07 30.3452 176.874 32.0406C183.678 33.736 193.046 32.476 201.947 35.2572C210.848 38.0383 245.37 34.2121 251.128 32.3541C256.887 30.4961 287.526 16.8807 290.662 17.8677C293.798 18.8548 305.847 19.8651 310.566 22.083C315.285 24.301 332.859 26.5131 338.6 28.284C344.341 30.0549 357.978 25.0209 361.64 25.5203C365.302 26.0196 373.163 25.0209 375.26 25.0209C377.356 25.0209 414.39 11.4229 422.123 13.815C429.855 16.2072 461.5 17.8677 461.5 17.8677V63V212.5H213H-37V14.6047C-37 14.6047 -17.3472 0.193788 -13.5276 0.0021844Z" fill="#B66200"/>
</svg>
