<svg width="428" height="243" viewBox="0 0 428 243" fill="none" xmlns="http://www.w3.org/2000/svg">
<path d="M448.342 8.1412V242.5H212.797H-25.9074L-25.9082 3.31967C-25.9082 3.31967 -3.77457 4.77747 3.6033 8.65171C10.9812 12.5259 23.1012 12.526 28.8964 12.526C34.6917 12.526 50.5576 15.555 55.2712 12.8323C59.9849 10.1095 75.2643 7.19958 83.1659 7.19958C91.0676 7.19958 112.148 9.62168 116.361 11.556C120.573 13.4903 122.685 17.858 135.859 21.7322C149.032 25.6065 164.846 33.0089 168.006 31.7043C171.165 30.3996 202.259 22.7986 212.797 24.4266C223.334 26.0546 232.295 31.8744 238.067 30.9158C243.84 29.9572 255.982 34.7957 263.89 32.3736C271.797 29.9515 291.289 26.1737 294.978 24.4323C298.667 22.6909 310.787 21.7152 317.636 20.2631C324.484 18.811 351.889 13.9667 353.996 11.0568C356.102 8.14686 358.208 5.78716 361.897 5.27098C365.586 4.75479 364.533 4.76046 370.328 3.30266C376.123 1.84485 381.924 -1.0594 385.084 0.3984C388.243 1.8562 389.49 4.75479 399.145 3.30266C408.8 1.85053 414.595 1.36837 422.486 2.8205C430.376 4.27263 448.342 8.1412 448.342 8.1412Z" fill="#BE7724"/>
</svg>
