<svg width="428" height="547" viewBox="0 0 428 547" fill="none" xmlns="http://www.w3.org/2000/svg">
<path d="M358.785 271.456C471.884 262.927 507.386 505.063 514 547H86.5H-358V297.755C-313.356 245.157 -302.815 235.916 -262.511 251.554C-191.081 293.064 -117.005 187.82 -88.8955 130.009C-83.1083 128.824 -65.7054 115.082 -42.3912 69.5914L-41.9669 68.7634C-18.8805 23.7165 -2.84119 -7.57997 2.5 1.60414C8.49387 17.9523 23 46.6041 50.5 53.1041C84 53.1041 88.5 106.604 122.5 112.604C151.643 108.339 164.257 159.207 196.5 165.604C228.743 172.001 215 183.778 264 195.604C290.5 202 310.5 248.104 358.785 271.456Z" fill="#CB9C63"/>
</svg>
