<svg width="428" height="589" viewBox="0 0 428 589" fill="none" xmlns="http://www.w3.org/2000/svg">
<path d="M164.999 195.604C138.499 202 128 251.554 70.2141 271.456C-6.14555 297.755 14.5 422 -61.5007 379.5C-121.621 480.223 -89.6907 558.002 -94.5006 588.5H344.499H786.999V297.755C742.355 245.157 731.814 235.916 691.511 251.554C620.08 293.064 546.004 187.82 517.895 130.009C512.108 128.824 494.705 115.082 471.391 69.5914L470.966 68.7634C447.88 23.7165 431.841 -7.57997 426.499 1.60414C420.505 17.9523 405.999 46.6041 378.499 53.1041C344.999 53.1041 340.499 106.604 306.499 112.604C277.357 108.339 264.742 159.207 232.499 165.604C200.256 172.001 213.999 183.778 164.999 195.604Z" fill="#BE8644"/>
</svg>
