<svg width="428" height="498" viewBox="0 0 428 498" fill="none" xmlns="http://www.w3.org/2000/svg">
<g filter="url(#filter0_d_516_2312)">
<path d="M213.997 143.809V298.551H333.217C345.382 264.732 343.922 236.265 343.922 236.265H349.762C348.674 235.029 346.599 232.467 346.599 232.467C346.484 232.322 395.441 232.372 395.441 232.372L375.065 305.12H378.958L381.635 308.283L406.209 221.667H414C393.968 205.771 355.607 147.994 369.232 46C359.986 58.1653 354.877 80.7927 350.741 103.177C347.147 122.623 332.249 146.485 324.464 155.001C327.059 171.951 336.872 205.122 345.874 221.667H398.423L396.932 227.019H342.608C314.114 185.18 315.323 119.305 319.84 89.795C306.459 114.855 307.919 147.702 273.369 171.789L281.642 196.849C267.287 196.849 262.664 143.566 261.204 115.829C247.822 158.407 254.148 186.387 224.465 189.794C235.949 201.083 245.627 225.559 249.033 236.265H337.11C337.11 257.919 333.203 275.367 328.339 292.225H326.404C316.672 292.225 317.294 273.586 317.294 266.719C317.294 259.852 302.425 259.852 302.425 266.719C302.425 272.115 302.425 292.225 297.694 292.225C292.963 292.225 292.963 273.586 292.963 266.719C292.963 259.852 278.095 259.852 278.095 266.719C278.095 272.115 278.095 292.225 273.364 292.225C268.633 292.225 268.633 273.586 268.633 266.719C268.633 259.852 253.764 259.852 253.764 266.719L253.764 266.938C253.766 272.636 253.772 292.225 244.167 292.225H238.814C239.327 277.06 243.116 253.018 246.6 243.321C221.676 218.42 214.695 144.734 213.997 143.809Z" fill="url(#paint0_linear_516_2312)"/>
<path d="M213.997 302.931H379.445L388.204 313.636H213.997V302.931Z" fill="url(#paint1_linear_516_2312)"/>
<path d="M243.194 241.618H341.003V247.457H243.194V241.618Z" fill="url(#paint2_linear_516_2312)"/>
<path d="M363.873 263.338C354.141 271.708 341.57 275.666 338.813 274.044L337.11 281.1C344.814 281.343 360.106 273.534 364.603 269.907C372.146 263.825 383.095 256.526 390.88 260.905V254.579C383.095 254.093 376.039 252.876 363.873 263.338Z" fill="url(#paint3_linear_516_2312)"/>
<path d="M383.581 278.607C365.674 278.217 352.6 294.989 348.302 303.424H357.547C364.944 289.409 376.525 286.393 381.391 286.636L383.581 278.607Z" fill="url(#paint4_linear_516_2312)"/>
<path d="M352.195 246.184C352.195 245.292 352.681 244.468 353.502 244.116C354.601 243.645 356.204 243.077 357.547 243.077C358.891 243.077 360.494 243.645 361.593 244.116C362.413 244.468 362.9 245.292 362.9 246.184V254.569C362.9 255.461 362.413 256.286 361.593 256.637C360.494 257.108 358.891 257.676 357.547 257.676C356.204 257.676 354.601 257.108 353.502 256.637C352.681 256.286 352.195 255.461 352.195 254.569V246.184Z" fill="url(#paint5_linear_516_2312)"/>
<path d="M371.173 239.34C371.173 238.435 371.673 237.602 372.509 237.257C373.607 236.804 375.194 236.265 376.525 236.265C377.856 236.265 379.443 236.804 380.542 237.257C381.378 237.602 381.878 238.435 381.878 239.34V247.302C381.878 248.206 381.378 249.04 380.542 249.385C379.443 249.838 377.856 250.377 376.525 250.377C375.194 250.377 373.607 249.838 372.509 249.385C371.673 249.04 371.173 248.206 371.173 247.302V239.34Z" fill="url(#paint6_linear_516_2312)"/>
<path d="M214.003 143.809V298.551H94.7831C82.6179 264.732 84.0777 236.265 84.0777 236.265H78.2384C79.3264 235.029 81.4013 232.467 81.4013 232.467C81.5156 232.322 32.5585 232.372 32.5585 232.372L52.9346 305.12H49.0417L46.3653 308.283L21.7915 221.667H14C34.0322 205.771 72.3933 147.994 58.7682 46C68.0138 58.1653 73.1232 80.7927 77.2594 103.177C80.8527 122.623 95.7507 146.485 103.536 155.001C100.941 171.951 91.1279 205.122 82.1255 221.667H29.5773L31.0679 227.019H85.3923C113.886 185.18 112.677 119.305 108.16 89.795C121.541 114.855 120.081 147.702 154.631 171.789L146.358 196.849C160.713 196.849 165.336 143.566 166.796 115.829C180.178 158.407 173.852 186.387 203.535 189.794C192.051 201.083 182.373 225.559 178.967 236.265H90.8903C90.8903 257.919 94.7967 275.367 99.6611 292.225H101.596C111.328 292.225 110.706 273.586 110.706 266.719C110.706 259.852 125.575 259.852 125.575 266.719C125.575 272.115 125.575 292.225 130.306 292.225C135.037 292.225 135.037 273.586 135.037 266.719C135.037 259.852 149.905 259.852 149.905 266.719C149.905 272.115 149.905 292.225 154.636 292.225C159.367 292.225 159.367 273.586 159.367 266.719C159.367 259.852 174.236 259.852 174.236 266.719L174.236 266.938C174.234 272.636 174.228 292.225 183.833 292.225H189.186C188.673 277.06 184.884 253.018 181.4 243.321C206.324 218.42 213.305 144.734 214.003 143.809Z" fill="url(#paint7_linear_516_2312)"/>
<path d="M214.003 302.931H48.5551L39.7961 313.636L214.003 499V302.931Z" fill="url(#paint8_linear_516_2312)"/>
<path d="M184.806 241.618H86.9974V247.457H184.806V241.618Z" fill="url(#paint9_linear_516_2312)"/>
<path d="M64.1266 263.338C73.8589 271.708 86.4296 275.666 89.1871 274.044L90.8903 281.1C83.1856 281.343 67.8939 273.534 63.3967 269.907C55.8543 263.825 44.9055 256.526 37.1197 260.905V254.579C44.9055 254.093 51.9614 252.876 64.1266 263.338Z" fill="url(#paint10_linear_516_2312)"/>
<path d="M44.4189 278.607C62.3262 278.217 75.3998 294.989 79.6982 303.424H70.4526C63.0561 289.409 51.4748 286.393 46.6086 286.636L44.4189 278.607Z" fill="url(#paint11_linear_516_2312)"/>
<path d="M75.8053 246.184C75.8053 245.292 75.3185 244.468 74.4984 244.116C73.3989 243.645 71.7957 243.077 70.4526 243.077C69.1095 243.077 67.5063 243.645 66.4067 244.116C65.5867 244.468 65.0999 245.292 65.0999 246.184V254.569C65.0999 255.461 65.5867 256.286 66.4067 256.637C67.5063 257.108 69.1095 257.676 70.4526 257.676C71.7957 257.676 73.3989 257.108 74.4984 256.637C75.3185 256.286 75.8053 255.461 75.8053 254.569V246.184Z" fill="url(#paint12_linear_516_2312)"/>
<path d="M56.8275 239.34C56.8275 238.435 56.3274 237.602 55.4912 237.257C54.3926 236.804 52.8059 236.265 51.4748 236.265C50.1436 236.265 48.5569 236.804 47.4583 237.257C46.6222 237.602 46.122 238.435 46.122 239.34V247.302C46.122 248.206 46.6222 249.04 47.4583 249.385C48.5569 249.838 50.1436 250.377 51.4748 250.377C52.8059 250.377 54.3926 249.838 55.4912 249.385C56.3274 249.04 56.8275 248.206 56.8275 247.302V239.34Z" fill="url(#paint13_linear_516_2312)"/>
</g>
<defs>
<filter id="filter0_d_516_2312" x="-36" y="0" width="500" height="553" filterUnits="userSpaceOnUse" color-interpolation-filters="sRGB">
<feFlood flood-opacity="0" result="BackgroundImageFix"/>
<feColorMatrix in="SourceAlpha" type="matrix" values="0 0 0 0 0 0 0 0 0 0 0 0 0 0 0 0 0 0 127 0" result="hardAlpha"/>
<feOffset dy="4"/>
<feGaussianBlur stdDeviation="25"/>
<feComposite in2="hardAlpha" operator="out"/>
<feColorMatrix type="matrix" values="0 0 0 0 0 0 0 0 0 0 0 0 0 0 0 0 0 0 0.5 0"/>
<feBlend mode="normal" in2="BackgroundImageFix" result="effect1_dropShadow_516_2312"/>
<feBlend mode="normal" in="SourceGraphic" in2="effect1_dropShadow_516_2312" result="shape"/>
</filter>
<linearGradient id="paint0_linear_516_2312" x1="214" y1="46" x2="207.5" y2="469" gradientUnits="userSpaceOnUse">
<stop stop-color="#341E00"/>
<stop offset="1" stop-color="#9A5800"/>
</linearGradient>
<linearGradient id="paint1_linear_516_2312" x1="214" y1="46" x2="207.5" y2="469" gradientUnits="userSpaceOnUse">
<stop stop-color="#341E00"/>
<stop offset="1" stop-color="#9A5800"/>
</linearGradient>
<linearGradient id="paint2_linear_516_2312" x1="214" y1="46" x2="207.5" y2="469" gradientUnits="userSpaceOnUse">
<stop stop-color="#341E00"/>
<stop offset="1" stop-color="#9A5800"/>
</linearGradient>
<linearGradient id="paint3_linear_516_2312" x1="214" y1="46" x2="207.5" y2="469" gradientUnits="userSpaceOnUse">
<stop stop-color="#341E00"/>
<stop offset="1" stop-color="#9A5800"/>
</linearGradient>
<linearGradient id="paint4_linear_516_2312" x1="214" y1="46" x2="207.5" y2="469" gradientUnits="userSpaceOnUse">
<stop stop-color="#341E00"/>
<stop offset="1" stop-color="#9A5800"/>
</linearGradient>
<linearGradient id="paint5_linear_516_2312" x1="214" y1="46" x2="207.5" y2="469" gradientUnits="userSpaceOnUse">
<stop stop-color="#341E00"/>
<stop offset="1" stop-color="#9A5800"/>
</linearGradient>
<linearGradient id="paint6_linear_516_2312" x1="214" y1="46" x2="207.5" y2="469" gradientUnits="userSpaceOnUse">
<stop stop-color="#341E00"/>
<stop offset="1" stop-color="#9A5800"/>
</linearGradient>
<linearGradient id="paint7_linear_516_2312" x1="214" y1="46" x2="207.5" y2="469" gradientUnits="userSpaceOnUse">
<stop stop-color="#341E00"/>
<stop offset="1" stop-color="#9A5800"/>
</linearGradient>
<linearGradient id="paint8_linear_516_2312" x1="214" y1="46" x2="207.5" y2="469" gradientUnits="userSpaceOnUse">
<stop stop-color="#341E00"/>
<stop offset="1" stop-color="#9A5800"/>
</linearGradient>
<linearGradient id="paint9_linear_516_2312" x1="214" y1="46" x2="207.5" y2="469" gradientUnits="userSpaceOnUse">
<stop stop-color="#341E00"/>
<stop offset="1" stop-color="#9A5800"/>
</linearGradient>
<linearGradient id="paint10_linear_516_2312" x1="214" y1="46" x2="207.5" y2="469" gradientUnits="userSpaceOnUse">
<stop stop-color="#341E00"/>
<stop offset="1" stop-color="#9A5800"/>
</linearGradient>
<linearGradient id="paint11_linear_516_2312" x1="214" y1="46" x2="207.5" y2="469" gradientUnits="userSpaceOnUse">
<stop stop-color="#341E00"/>
<stop offset="1" stop-color="#9A5800"/>
</linearGradient>
<linearGradient id="paint12_linear_516_2312" x1="214" y1="46" x2="207.5" y2="469" gradientUnits="userSpaceOnUse">
<stop stop-color="#341E00"/>
<stop offset="1" stop-color="#9A5800"/>
</linearGradient>
<linearGradient id="paint13_linear_516_2312" x1="214" y1="46" x2="207.5" y2="469" gradientUnits="userSpaceOnUse">
<stop stop-color="#341E00"/>
<stop offset="1" stop-color="#9A5800"/>
</linearGradient>
</defs>
</svg>
