<svg width="300" height="526" viewBox="0 0 300 526" fill="none" xmlns="http://www.w3.org/2000/svg">
<path d="M150 226.775C192.283 226.775 226.559 192.466 226.559 150.143C226.559 107.821 192.283 73.5112 150 73.5112C107.718 73.5112 73.4414 107.821 73.4414 150.143C73.4414 192.466 107.718 226.775 150 226.775Z" fill="#FFDEC9"/>
<path opacity="0.4" d="M150 226.775C192.283 226.775 226.559 192.466 226.559 150.143C226.559 107.821 192.283 73.5112 150 73.5112C107.718 73.5112 73.4414 107.821 73.4414 150.143C73.4414 192.466 107.718 226.775 150 226.775Z" fill="url(#paint0_linear_516_2459)"/>
<path opacity="0.4" d="M300 150.143C300 233.065 232.843 300.286 150 300.286L176 525.5H150H124L150 300.286C67.1573 300.286 0 233.065 0 150.143C0 67.2214 67.1573 0 150 0C232.843 0 300 67.2214 300 150.143Z" fill="url(#paint1_radial_516_2459)"/>
<defs>
<linearGradient id="paint0_linear_516_2459" x1="150" y1="226.775" x2="150" y2="73.5112" gradientUnits="userSpaceOnUse">
<stop stop-color="white" stop-opacity="0"/>
<stop offset="0.1" stop-color="#FFFEFC" stop-opacity="0.02"/>
<stop offset="0.23" stop-color="#FFFAF3" stop-opacity="0.08"/>
<stop offset="0.36" stop-color="#FFF5E4" stop-opacity="0.18"/>
<stop offset="0.5" stop-color="#FFEDCF" stop-opacity="0.31"/>
<stop offset="0.65" stop-color="#FFE3B4" stop-opacity="0.48"/>
<stop offset="0.81" stop-color="#FFD794" stop-opacity="0.7"/>
<stop offset="0.97" stop-color="#FFC86E" stop-opacity="0.94"/>
<stop offset="1" stop-color="#FFC565"/>
</linearGradient>
<radialGradient id="paint1_radial_516_2459" cx="0" cy="0" r="1" gradientUnits="userSpaceOnUse" gradientTransform="translate(150 150.143) rotate(180) scale(150 150.143)">
<stop stop-color="white"/>
<stop offset="0.1" stop-color="white" stop-opacity="0.98"/>
<stop offset="0.23" stop-color="white" stop-opacity="0.92"/>
<stop offset="0.36" stop-color="white" stop-opacity="0.83"/>
<stop offset="0.5" stop-color="white" stop-opacity="0.69"/>
<stop offset="0.65" stop-color="white" stop-opacity="0.52"/>
<stop offset="0.81" stop-color="white" stop-opacity="0.31"/>
<stop offset="0.96" stop-color="white" stop-opacity="0.06"/>
<stop offset="1" stop-color="white" stop-opacity="0"/>
</radialGradient>
</defs>
</svg>
