<svg width="428" height="729" viewBox="0 0 428 729" fill="none" xmlns="http://www.w3.org/2000/svg">
<g filter="url(#filter0_d_567_5396)">
<path d="M73.4961 108C73.0534 108 72.6107 108 72.168 108C71.7253 108.026 71.3346 108.052 70.9961 108.078C70.6576 108.104 70.3581 108.13 70.0977 108.156C69.8372 108.182 69.6289 108.195 69.4727 108.195C69.3164 108.221 69.2253 108.234 69.1992 108.234C68.6523 108.234 68.3789 107.961 68.3789 107.414C68.3789 107.284 68.3789 107.18 68.3789 107.102C68.4049 106.997 68.431 106.906 68.457 106.828C68.5091 106.75 68.5482 106.685 68.5742 106.633C68.6003 106.581 68.6523 106.542 68.7305 106.516C68.8346 106.464 68.8997 106.438 68.9258 106.438C68.9518 106.411 69.0299 106.385 69.1602 106.359C69.3164 106.333 69.4076 106.32 69.4336 106.32C69.4857 106.294 69.6029 106.268 69.7852 106.242C69.9935 106.216 70.1237 106.203 70.1758 106.203C70.8008 106.125 71.2695 105.969 71.582 105.734C71.8945 105.474 72.194 104.992 72.4805 104.289C74.3555 100.096 76.3867 95.8255 78.5742 91.4766C82.4284 84.1849 84.4206 80.4479 84.5508 80.2656C84.6029 80.2135 84.681 80.1484 84.7852 80.0703C85.0716 79.862 85.3971 79.7578 85.7617 79.7578C86.4648 79.7578 87.0247 80.2656 87.4414 81.2812L93.1836 94.5625C96.1003 101.62 97.5846 105.188 97.6367 105.266C97.9232 105.682 98.3008 105.956 98.7695 106.086C99.2643 106.216 99.681 106.307 100.02 106.359C100.384 106.411 100.592 106.568 100.645 106.828C100.697 107.036 100.723 107.219 100.723 107.375C100.723 107.948 100.449 108.234 99.9023 108.234L99.2383 108.156C98.7956 108.13 98.1966 108.091 97.4414 108.039C96.7122 108.013 95.9961 108 95.293 108C94.4336 108 93.6523 108.013 92.9492 108.039C92.2461 108.091 91.6862 108.13 91.2695 108.156C90.8789 108.208 90.6445 108.234 90.5664 108.234C90.0195 108.234 89.7461 108.013 89.7461 107.57C89.7461 107.44 89.7461 107.323 89.7461 107.219C89.7721 107.115 89.7982 107.023 89.8242 106.945C89.8763 106.841 89.9023 106.763 89.9023 106.711C89.9284 106.659 89.9935 106.607 90.0977 106.555C90.2018 106.503 90.2799 106.477 90.332 106.477C90.3841 106.451 90.4883 106.424 90.6445 106.398C90.8008 106.372 90.918 106.359 90.9961 106.359C91.1003 106.333 91.2695 106.307 91.5039 106.281C91.7383 106.255 91.9336 106.229 92.0898 106.203C92.6367 106.099 92.9102 105.839 92.9102 105.422C92.9102 105.031 92.5846 103.846 91.9336 101.867C91.3086 99.862 90.6315 98.0391 89.9023 96.3984C89.7982 96.138 89.5638 96.0078 89.1992 96.0078H79.7852C79.3685 96.0078 79.069 96.1641 78.8867 96.4766C77.9753 98.1693 77.1549 99.9271 76.4258 101.75C75.7227 103.547 75.3711 104.667 75.3711 105.109C75.3711 105.578 75.5143 105.891 75.8008 106.047C76.1133 106.177 76.6471 106.281 77.4023 106.359C77.6367 106.359 77.806 106.372 77.9102 106.398C78.4831 106.451 78.7695 106.776 78.7695 107.375C78.7695 107.948 78.4831 108.234 77.9102 108.234C77.832 108.234 77.5977 108.208 77.207 108.156C76.8424 108.13 76.3216 108.091 75.6445 108.039C74.9935 108.013 74.2773 108 73.4961 108ZM88.3789 93.9375C88.6133 93.9375 88.7305 93.8333 88.7305 93.625C88.7305 93.4167 88.2096 92.1146 87.168 89.7188C86.1523 87.3229 85.5013 85.8776 85.2148 85.3828C85.1107 85.2005 84.9674 85.1094 84.7852 85.1094C84.5508 85.1094 84.3034 85.3438 84.043 85.8125C81.3086 90.9688 79.9414 93.612 79.9414 93.7422C79.9414 93.8724 80.0195 93.9375 80.1758 93.9375H88.3789ZM106.465 92.9219C106.465 93.026 106.504 93.0781 106.582 93.0781H106.621C106.647 93.0781 106.738 93 106.895 92.8438C107.077 92.6875 107.324 92.4922 107.637 92.2578C107.949 92.0234 108.314 91.7891 108.73 91.5547C109.147 91.3203 109.655 91.125 110.254 90.9688C110.853 90.7865 111.478 90.6953 112.129 90.6953H112.207C112.754 90.6953 113.288 90.7734 113.809 90.9297C114.355 91.0599 114.928 91.3203 115.527 91.7109C116.152 92.0755 116.673 92.6615 117.09 93.4688C117.507 94.276 117.767 95.2656 117.871 96.4375C117.923 96.8802 117.949 97.5573 117.949 98.4688C117.949 98.5729 117.949 98.8333 117.949 99.25C117.949 99.6406 117.936 100.357 117.91 101.398C117.91 102.44 117.91 103.768 117.91 105.383V105.461C117.91 105.591 117.923 105.721 117.949 105.852C117.975 105.956 117.988 106.047 117.988 106.125C118.014 106.177 118.066 106.242 118.145 106.32C118.223 106.372 118.275 106.411 118.301 106.438C118.353 106.464 118.444 106.503 118.574 106.555C118.73 106.581 118.835 106.594 118.887 106.594C118.965 106.594 119.108 106.607 119.316 106.633C119.551 106.659 119.72 106.685 119.824 106.711C120.215 106.763 120.41 107.01 120.41 107.453C120.41 107.974 120.202 108.234 119.785 108.234C119.707 108.234 119.525 108.208 119.238 108.156C118.952 108.13 118.548 108.091 118.027 108.039C117.533 108.013 116.999 108 116.426 108C116.087 108 115.749 108 115.41 108C115.072 108.026 114.772 108.052 114.512 108.078C114.277 108.104 114.056 108.13 113.848 108.156C113.639 108.182 113.47 108.208 113.34 108.234H113.145C112.78 108.234 112.598 107.974 112.598 107.453C112.598 107.167 112.676 106.984 112.832 106.906C112.988 106.828 113.405 106.737 114.082 106.633C114.316 106.581 114.512 106.542 114.668 106.516C114.928 106.464 115.098 106.385 115.176 106.281C115.28 106.151 115.332 105.917 115.332 105.578V99.3672C115.332 97.4141 115.15 95.9688 114.785 95.0312C114.395 94.1458 113.809 93.5339 113.027 93.1953C112.246 92.8307 111.504 92.6484 110.801 92.6484C109.785 92.6484 108.874 92.9609 108.066 93.5859C107.259 94.2109 106.803 94.7578 106.699 95.2266C106.647 95.4349 106.621 95.6172 106.621 95.7734V105.227V105.344C106.621 106.021 106.921 106.398 107.52 106.477C108.691 106.659 109.329 106.802 109.434 106.906C109.59 107.036 109.668 107.258 109.668 107.57C109.668 108.039 109.499 108.273 109.16 108.273C109.134 108.273 109.043 108.26 108.887 108.234C108.757 108.234 108.574 108.221 108.34 108.195C108.105 108.169 107.845 108.13 107.559 108.078C107.272 108.052 106.934 108.026 106.543 108C106.178 108 105.814 108 105.449 108C105.085 108 104.72 108 104.355 108C103.991 108.026 103.665 108.052 103.379 108.078C103.118 108.104 102.884 108.13 102.676 108.156C102.467 108.182 102.298 108.195 102.168 108.195C102.038 108.221 101.96 108.234 101.934 108.234C101.491 108.234 101.27 108 101.27 107.531C101.27 107.167 101.348 106.945 101.504 106.867C101.686 106.763 102.129 106.659 102.832 106.555C103.301 106.477 103.587 106.333 103.691 106.125C103.822 105.917 103.887 105.604 103.887 105.188V95.6562C103.887 95.1875 103.822 94.875 103.691 94.7188C103.561 94.5365 103.027 94.0938 102.09 93.3906C101.934 93.2344 101.855 93.1042 101.855 93V92.9609C101.855 92.8307 101.947 92.7135 102.129 92.6094C102.311 92.4792 102.871 92.1667 103.809 91.6719C104.538 91.2812 105.15 90.9557 105.645 90.6953C105.801 90.5911 105.931 90.5391 106.035 90.5391C106.348 90.5391 106.504 90.7344 106.504 91.125V92.6875C106.504 92.7135 106.491 92.7656 106.465 92.8438V92.9219ZM128.223 92.0234C127.207 92.0234 126.374 92.4401 125.723 93.2734C125.072 94.0807 124.746 95.1354 124.746 96.4375C124.746 97.974 125.137 99.3021 125.918 100.422C126.699 101.542 127.689 102.102 128.887 102.102C129.954 102.102 130.814 101.685 131.465 100.852C132.116 99.9922 132.441 98.9375 132.441 97.6875C132.441 96.2031 132.038 94.888 131.23 93.7422C130.449 92.5964 129.447 92.0234 128.223 92.0234ZM124.082 111.516C124.082 112.688 124.694 113.638 125.918 114.367C127.168 115.096 128.73 115.461 130.605 115.461C132.454 115.461 133.757 115.161 134.512 114.562C135.293 113.99 135.684 113.326 135.684 112.57C135.684 111.477 135.15 110.682 134.082 110.188C133.535 109.901 132.897 109.706 132.168 109.602C131.439 109.523 130.41 109.458 129.082 109.406C127.78 109.38 126.634 109.315 125.645 109.211H125.527C125.345 109.211 125.111 109.354 124.824 109.641C124.329 110.135 124.082 110.76 124.082 111.516ZM121.66 96.9062C121.66 95.2135 122.272 93.7552 123.496 92.5312C124.746 91.3073 126.283 90.6953 128.105 90.6953C129.225 90.6953 130.306 90.9297 131.348 91.3984C132.415 91.8672 133.014 92.1016 133.145 92.1016C133.978 92.1016 134.681 91.6849 135.254 90.8516C135.645 90.2266 136.022 89.9141 136.387 89.9141C136.751 89.9141 137.09 90.0964 137.402 90.4609C137.741 90.7995 137.91 91.1641 137.91 91.5547C137.91 92.0234 137.702 92.4271 137.285 92.7656C136.895 93.1042 136.426 93.3906 135.879 93.625C135.358 93.8333 135.085 93.9505 135.059 93.9766C134.928 94.1068 134.863 94.2109 134.863 94.2891C134.863 94.3411 134.902 94.4714 134.98 94.6797C135.059 94.888 135.137 95.1875 135.215 95.5781C135.293 95.9427 135.332 96.3464 135.332 96.7891C135.332 98.638 134.681 100.227 133.379 101.555C132.103 102.857 130.54 103.508 128.691 103.508C128.171 103.508 127.676 103.456 127.207 103.352C126.738 103.221 126.452 103.156 126.348 103.156C125.983 103.156 125.592 103.391 125.176 103.859C124.759 104.302 124.551 104.745 124.551 105.188C124.551 105.891 125.111 106.359 126.23 106.594C127.376 106.828 128.822 106.971 130.566 107.023C132.337 107.076 133.6 107.219 134.355 107.453C135.553 107.792 136.452 108.365 137.051 109.172C137.676 110.005 137.988 110.904 137.988 111.867C137.988 112.466 137.858 113.065 137.598 113.664C137.337 114.263 136.908 114.849 136.309 115.422C135.736 115.995 134.876 116.464 133.73 116.828C132.585 117.193 131.23 117.375 129.668 117.375C126.777 117.375 124.746 116.841 123.574 115.773C122.428 114.732 121.855 113.586 121.855 112.336C121.855 112.076 121.882 111.815 121.934 111.555C121.986 111.32 122.051 111.099 122.129 110.891C122.207 110.708 122.285 110.526 122.363 110.344C122.467 110.188 122.572 110.031 122.676 109.875C122.806 109.745 122.923 109.628 123.027 109.523C123.158 109.419 123.275 109.328 123.379 109.25C123.483 109.172 123.574 109.094 123.652 109.016C123.73 108.964 123.796 108.924 123.848 108.898L123.926 108.859C123.978 108.807 124.004 108.742 124.004 108.664C124.004 108.638 123.874 108.547 123.613 108.391C123.379 108.234 123.132 107.974 122.871 107.609C122.637 107.245 122.52 106.802 122.52 106.281C122.52 105.005 123.262 103.768 124.746 102.57L124.785 102.531C124.811 102.505 124.824 102.466 124.824 102.414C124.824 102.31 124.707 102.193 124.473 102.062C124.238 101.932 123.913 101.685 123.496 101.32C123.105 100.93 122.741 100.435 122.402 99.8359C121.908 98.9505 121.66 97.974 121.66 96.9062ZM139.238 99.7578C139.238 97.0495 139.954 94.875 141.387 93.2344C142.819 91.5938 144.564 90.7734 146.621 90.7734C147.949 90.7734 149.225 91.138 150.449 91.8672C151.673 92.5964 152.689 93.5078 153.496 94.6016C153.704 94.862 153.809 95.1484 153.809 95.4609V95.5391C153.809 95.7734 153.743 95.9818 153.613 96.1641C153.483 96.3464 153.275 96.5156 152.988 96.6719C152.702 96.8021 152.454 96.9062 152.246 96.9844C152.038 97.0625 151.725 97.1667 151.309 97.2969C150.918 97.4271 150.671 97.5052 150.566 97.5312C145.124 99.4062 142.337 100.383 142.207 100.461C142.103 100.513 142.051 100.591 142.051 100.695C142.051 100.852 142.09 101.112 142.168 101.477C142.246 101.841 142.415 102.323 142.676 102.922C142.962 103.521 143.301 104.081 143.691 104.602C144.108 105.096 144.694 105.539 145.449 105.93C146.204 106.294 147.051 106.477 147.988 106.477C149.811 106.477 151.4 105.826 152.754 104.523C153.118 104.159 153.418 103.977 153.652 103.977C154.095 103.977 154.316 104.172 154.316 104.562C154.316 104.719 154.212 104.927 154.004 105.188C153.171 106.281 152.129 107.154 150.879 107.805C149.629 108.43 148.314 108.742 146.934 108.742C146.048 108.742 145.176 108.586 144.316 108.273C143.483 107.961 142.663 107.479 141.855 106.828C141.074 106.177 140.436 105.24 139.941 104.016C139.473 102.792 139.238 101.372 139.238 99.7578ZM149.941 95.6172C149.941 95.2786 149.486 94.7578 148.574 94.0547C147.663 93.3255 146.712 92.9609 145.723 92.9609C144.551 92.9609 143.613 93.4688 142.91 94.4844C142.233 95.5 141.895 96.8932 141.895 98.6641C141.895 98.8724 141.96 98.9766 142.09 98.9766C142.142 98.9766 143.379 98.5078 145.801 97.5703C148.249 96.6068 149.512 96.112 149.59 96.0859C149.824 95.9557 149.941 95.7995 149.941 95.6172ZM163.77 107.453C163.77 107.974 163.613 108.234 163.301 108.234C163.275 108.234 163.184 108.221 163.027 108.195C162.897 108.195 162.715 108.182 162.48 108.156C162.246 108.13 161.986 108.104 161.699 108.078C161.413 108.052 161.074 108.026 160.684 108C160.293 108 159.915 108 159.551 108C159.186 108 158.822 108 158.457 108C158.092 108.026 157.767 108.039 157.48 108.039C157.194 108.065 156.934 108.091 156.699 108.117C156.491 108.143 156.322 108.156 156.191 108.156C156.061 108.182 155.983 108.195 155.957 108.195C155.566 108.195 155.371 107.961 155.371 107.492V107.375C155.371 107.036 155.449 106.828 155.605 106.75C155.788 106.646 156.257 106.555 157.012 106.477C157.48 106.424 157.78 106.281 157.91 106.047C158.066 105.786 158.145 105.422 158.145 104.953V84.6016C158.145 84.5234 158.132 84.4583 158.105 84.4062C158.105 84.3281 158.092 84.263 158.066 84.2109C158.04 84.1589 158.014 84.1198 157.988 84.0938C157.988 84.0417 157.949 84.0026 157.871 83.9766C157.819 83.9245 157.767 83.8854 157.715 83.8594C157.689 83.8333 157.611 83.7943 157.48 83.7422C157.376 83.6641 157.298 83.612 157.246 83.5859C156.986 83.4297 156.699 83.2734 156.387 83.1172C156.1 82.9349 155.892 82.8047 155.762 82.7266C155.658 82.6484 155.54 82.5703 155.41 82.4922C155.28 82.388 155.189 82.3099 155.137 82.2578C155.111 82.1797 155.098 82.1016 155.098 82.0234V81.9844C155.098 81.8542 155.592 81.5286 156.582 81.0078C157.806 80.4089 158.952 79.8229 160.02 79.25C160.176 79.1458 160.345 79.0938 160.527 79.0938C160.892 79.0938 161.074 79.3411 161.074 79.8359V105.148C161.074 105.305 161.074 105.435 161.074 105.539C161.1 105.643 161.126 105.747 161.152 105.852C161.178 105.93 161.204 105.995 161.23 106.047C161.257 106.099 161.309 106.151 161.387 106.203C161.491 106.255 161.556 106.294 161.582 106.32C161.634 106.346 161.725 106.385 161.855 106.438C162.012 106.464 162.116 106.49 162.168 106.516C162.246 106.516 162.389 106.529 162.598 106.555C162.832 106.581 163.001 106.607 163.105 106.633C163.548 106.711 163.77 106.984 163.77 107.453ZM178.184 91.125C178.184 91.0469 178.04 90.8385 177.754 90.5C177.467 90.1354 177.181 89.6276 176.895 88.9766C176.634 88.3255 176.504 87.6094 176.504 86.8281C176.504 85.0312 177.207 83.4427 178.613 82.0625C180.046 80.6562 181.686 79.9531 183.535 79.9531C184.108 79.9531 184.694 80.0182 185.293 80.1484C185.892 80.2786 186.452 80.5391 186.973 80.9297C187.52 81.3203 187.793 81.8151 187.793 82.4141C187.793 82.9349 187.611 83.3646 187.246 83.7031C186.882 84.0417 186.465 84.2109 185.996 84.2109C185.449 84.2109 184.876 83.8854 184.277 83.2344C183.704 82.5573 183.118 82.2188 182.52 82.2188C181.556 82.2188 180.605 82.6615 179.668 83.5469C178.73 84.4062 178.262 85.5 178.262 86.8281C178.262 87.6094 178.444 88.3646 178.809 89.0938C179.199 89.7969 179.538 90.1484 179.824 90.1484C179.876 90.1484 180.111 90.0703 180.527 89.9141C180.944 89.7318 181.491 89.5495 182.168 89.3672C182.845 89.1849 183.535 89.0938 184.238 89.0938C185.228 89.0938 186.048 89.3021 186.699 89.7188C187.376 90.1094 187.715 90.6432 187.715 91.3203C187.715 91.9974 187.363 92.5443 186.66 92.9609C185.957 93.3776 185.085 93.5859 184.043 93.5859H184.004C183.353 93.5859 182.728 93.5078 182.129 93.3516C181.556 93.1953 181.1 93.0391 180.762 92.8828C180.423 92.7266 180.228 92.6484 180.176 92.6484C180.098 92.6484 180.02 92.6745 179.941 92.7266C179.889 92.7786 179.837 92.8307 179.785 92.8828C179.759 92.9349 179.72 92.987 179.668 93.0391L179.629 93.1172C178.926 94.3932 178.574 95.7865 178.574 97.2969C178.574 98.2344 178.743 99.1589 179.082 100.07C179.421 100.956 179.941 101.841 180.645 102.727C181.374 103.586 182.415 104.302 183.77 104.875C185.15 105.448 186.751 105.773 188.574 105.852H189.277C190.814 105.852 192.155 105.63 193.301 105.188C194.447 104.745 195.319 104.159 195.918 103.43C196.517 102.701 196.947 101.958 197.207 101.203C197.493 100.448 197.637 99.6927 197.637 98.9375C197.637 97.5573 197.259 96.4115 196.504 95.5C195.749 94.5885 194.746 94.1328 193.496 94.1328C192.35 94.1328 191.335 94.5234 190.449 95.3047C189.59 96.0859 189.16 96.9714 189.16 97.9609C189.16 98.638 189.368 99.224 189.785 99.7188C190.228 100.188 190.788 100.422 191.465 100.422C191.751 100.422 192.064 100.357 192.402 100.227C192.741 100.096 192.91 99.9401 192.91 99.7578C192.91 99.6536 192.858 99.5755 192.754 99.5234C192.65 99.4714 192.52 99.4323 192.363 99.4062C192.233 99.3802 192.077 99.3151 191.895 99.2109C191.712 99.1068 191.556 98.9635 191.426 98.7812C191.243 98.5208 191.152 98.2344 191.152 97.9219C191.152 97.5312 191.296 97.1927 191.582 96.9062C191.895 96.6198 192.272 96.4766 192.715 96.4766C193.314 96.4766 193.848 96.6979 194.316 97.1406C194.811 97.5833 195.059 98.1302 195.059 98.7812C195.059 99.5885 194.72 100.305 194.043 100.93C193.366 101.529 192.546 101.828 191.582 101.828C190.514 101.828 189.603 101.438 188.848 100.656C188.092 99.875 187.715 98.9245 187.715 97.8047C187.715 96.763 188.053 95.7734 188.73 94.8359C189.434 93.8724 190.384 93.0911 191.582 92.4922C192.806 91.8932 194.551 91.4115 196.816 91.0469C199.108 90.6823 200.658 90.3177 201.465 89.9531C202.428 89.5365 203.236 88.9245 203.887 88.1172C204.564 87.2839 204.902 86.3073 204.902 85.1875C204.902 83.9635 204.512 82.9479 203.73 82.1406C202.975 81.3333 202.103 80.9297 201.113 80.9297C200.306 80.9297 199.902 81.0469 199.902 81.2812L200.215 81.7109C200.449 81.9974 200.566 82.3229 200.566 82.6875C200.566 83.1562 200.41 83.5469 200.098 83.8594C199.785 84.1719 199.395 84.3281 198.926 84.3281C198.405 84.3281 197.975 84.1458 197.637 83.7812C197.298 83.3906 197.129 82.9219 197.129 82.375C197.129 81.5417 197.48 80.8385 198.184 80.2656C198.887 79.6927 199.707 79.4062 200.645 79.4062C202.155 79.4062 203.509 80.0443 204.707 81.3203C205.931 82.5964 206.543 84.1849 206.543 86.0859C206.543 88.2214 205.71 90.0573 204.043 91.5938C202.402 93.1042 200.449 93.8854 198.184 93.9375C197.793 93.9375 197.598 94.0417 197.598 94.25C197.598 94.276 197.702 94.4714 197.91 94.8359C198.145 95.2005 198.379 95.7344 198.613 96.4375C198.848 97.1406 198.965 97.8958 198.965 98.7031V98.7812C198.965 101.49 197.793 103.859 195.449 105.891C193.105 107.922 190.306 108.938 187.051 108.938C183.77 108.938 181.009 107.883 178.77 105.773C176.53 103.638 175.41 101.112 175.41 98.1953C175.41 97.4141 175.488 96.6589 175.645 95.9297C175.827 95.2005 176.048 94.5755 176.309 94.0547C176.569 93.5339 176.816 93.0911 177.051 92.7266C177.311 92.362 177.559 92.0625 177.793 91.8281L178.105 91.4375C178.158 91.3333 178.184 91.2422 178.184 91.1641V91.125ZM184.629 92.3359C185.749 92.3359 186.309 92.0234 186.309 91.3984C186.309 90.7214 185.736 90.3828 184.59 90.3828C183.965 90.3828 183.379 90.4349 182.832 90.5391C182.311 90.6432 181.908 90.7734 181.621 90.9297C181.361 91.0599 181.23 91.1901 181.23 91.3203C181.23 91.3984 181.27 91.4766 181.348 91.5547C182.077 92.0755 183.171 92.3359 184.629 92.3359ZM234.824 88.1562C234.824 86.5156 234.147 85.0964 232.793 83.8984C231.439 82.6745 229.772 82.0625 227.793 82.0625C226.569 82.0625 225.775 82.2057 225.41 82.4922C225.254 82.5964 225.176 82.8047 225.176 83.1172C225.176 83.1432 225.176 83.1562 225.176 83.1562L225.215 83.2344V92.6484C225.215 92.987 225.345 93.1953 225.605 93.2734C225.866 93.3255 226.608 93.3516 227.832 93.3516C229.342 93.3516 230.579 93.1693 231.543 92.8047C232.454 92.4401 233.223 91.8542 233.848 91.0469C234.499 90.2396 234.824 89.276 234.824 88.1562ZM228.613 80.5391C230.306 80.5391 231.79 80.7734 233.066 81.2422C234.342 81.6849 235.306 82.2708 235.957 83C236.634 83.7031 237.129 84.4323 237.441 85.1875C237.754 85.9427 237.91 86.7109 237.91 87.4922C237.91 89.2109 237.376 90.6693 236.309 91.8672C235.241 93.0651 234.264 93.8203 233.379 94.1328C233.249 94.2109 233.184 94.276 233.184 94.3281C233.184 94.3802 233.21 94.4323 233.262 94.4844C234.694 96.151 235.905 97.7135 236.895 99.1719C237.91 100.604 238.691 101.789 239.238 102.727C239.811 103.664 240.28 104.341 240.645 104.758C241.4 105.617 242.116 106.047 242.793 106.047C243.184 106.047 243.535 105.904 243.848 105.617C244.16 105.305 244.382 105.148 244.512 105.148C244.798 105.148 244.941 105.305 244.941 105.617C244.941 106.06 244.603 106.659 243.926 107.414C243.275 108.143 242.441 108.508 241.426 108.508C240.072 108.508 238.665 107.544 237.207 105.617L233.223 99.9141C230.957 96.737 229.72 95.0833 229.512 94.9531C229.382 94.849 229.16 94.7969 228.848 94.7969H225.918C225.553 94.7969 225.371 94.9922 225.371 95.3828V104.641V104.758C225.371 105.539 225.71 105.969 226.387 106.047C226.621 106.073 226.895 106.099 227.207 106.125C227.52 106.151 227.754 106.177 227.91 106.203C228.092 106.203 228.288 106.216 228.496 106.242C228.73 106.242 228.9 106.255 229.004 106.281C229.134 106.307 229.264 106.346 229.395 106.398C229.551 106.424 229.655 106.464 229.707 106.516C229.785 106.568 229.85 106.646 229.902 106.75C229.954 106.828 229.993 106.919 230.02 107.023C230.046 107.128 230.059 107.245 230.059 107.375C230.059 107.948 229.785 108.234 229.238 108.234C229.212 108.234 229.095 108.221 228.887 108.195C228.704 108.195 228.457 108.182 228.145 108.156C227.832 108.13 227.467 108.104 227.051 108.078C226.66 108.052 226.191 108.026 225.645 108C225.124 108 224.603 108 224.082 108C223.561 108 223.027 108 222.48 108C221.96 108.026 221.504 108.052 221.113 108.078C220.723 108.104 220.358 108.13 220.02 108.156C219.707 108.182 219.46 108.195 219.277 108.195C219.095 108.221 218.991 108.234 218.965 108.234C218.496 108.234 218.262 107.87 218.262 107.141C218.262 107.036 218.262 106.945 218.262 106.867C218.288 106.789 218.314 106.724 218.34 106.672C218.392 106.62 218.431 106.581 218.457 106.555C218.509 106.503 218.574 106.464 218.652 106.438C218.757 106.411 218.848 106.385 218.926 106.359C219.004 106.333 219.121 106.32 219.277 106.32C219.434 106.294 219.564 106.281 219.668 106.281C219.772 106.281 219.928 106.281 220.137 106.281C220.371 106.255 220.566 106.229 220.723 106.203C221.165 106.151 221.452 106.021 221.582 105.812C221.738 105.578 221.816 105.24 221.816 104.797V84.1328C221.816 83.5339 221.647 83.1693 221.309 83.0391C220.97 82.8828 220.02 82.6745 218.457 82.4141C218.04 82.3359 217.832 82.1146 217.832 81.75C217.832 81.2552 218.014 81.0078 218.379 81.0078H219.746C220.996 81.0078 222.585 80.9297 224.512 80.7734C226.439 80.6172 227.806 80.5391 228.613 80.5391ZM248.848 103.156C248.848 101.802 248.848 100.539 248.848 99.3672C248.848 98.1953 248.848 97.2839 248.848 96.6328C248.874 95.9557 248.887 95.5521 248.887 95.4219C248.887 95.1354 248.783 94.9401 248.574 94.8359C248.392 94.7057 247.598 94.3542 246.191 93.7812C245.853 93.651 245.684 93.4818 245.684 93.2734C245.684 93.1953 245.697 93.1172 245.723 93.0391C245.775 92.9609 245.84 92.8958 245.918 92.8438C246.022 92.7917 246.113 92.7526 246.191 92.7266C246.27 92.6745 246.374 92.6224 246.504 92.5703C246.634 92.5182 246.725 92.4792 246.777 92.4531C249.694 91.0469 251.165 90.3438 251.191 90.3438H251.23C251.595 90.3438 251.777 90.5651 251.777 91.0078L251.738 92.2969C251.686 93.1562 251.634 94.3151 251.582 95.7734C251.556 97.2057 251.543 98.638 251.543 100.07V101.398C251.543 103.872 251.582 105.331 251.66 105.773C251.738 106.216 251.999 106.464 252.441 106.516C253.223 106.62 253.717 106.711 253.926 106.789C254.134 106.867 254.238 107.062 254.238 107.375C254.238 107.948 254.082 108.234 253.77 108.234C253.743 108.234 253.665 108.221 253.535 108.195C253.405 108.195 253.223 108.182 252.988 108.156C252.754 108.13 252.493 108.104 252.207 108.078C251.921 108.052 251.582 108.026 251.191 108C250.827 108 250.462 108 250.098 108C249.733 108 249.355 108 248.965 108C248.574 108.026 248.236 108.052 247.949 108.078C247.689 108.104 247.441 108.13 247.207 108.156C246.973 108.182 246.79 108.195 246.66 108.195C246.53 108.221 246.452 108.234 246.426 108.234C246.009 108.234 245.801 108.013 245.801 107.57C245.801 107.128 245.879 106.867 246.035 106.789C246.217 106.711 246.803 106.607 247.793 106.477C248.262 106.398 248.548 106.255 248.652 106.047C248.783 105.812 248.848 105.474 248.848 105.031V103.156ZM249.238 83.2734C249.238 82.7526 249.434 82.3099 249.824 81.9453C250.215 81.5807 250.671 81.3984 251.191 81.3984C251.712 81.3984 252.155 81.5807 252.52 81.9453C252.91 82.3099 253.105 82.7396 253.105 83.2344C253.105 83.7812 252.91 84.237 252.52 84.6016C252.155 84.9661 251.699 85.1484 251.152 85.1484C250.605 85.1484 250.15 84.9792 249.785 84.6406C249.421 84.276 249.238 83.8203 249.238 83.2734ZM264.316 92.6875C262.337 92.6875 260.814 93.2865 259.746 94.4844C258.678 95.6823 258.145 97.3099 258.145 99.3672C258.145 101.633 258.9 103.43 260.41 104.758C261.921 106.086 263.483 106.75 265.098 106.75C265.905 106.75 266.686 106.594 267.441 106.281C268.223 105.943 268.691 105.526 268.848 105.031C268.952 104.615 269.004 104.315 269.004 104.133V95.1484C269.004 94.8099 268.861 94.4974 268.574 94.2109C267.48 93.1953 266.061 92.6875 264.316 92.6875ZM264.395 91.0859C265.176 91.0859 265.905 91.138 266.582 91.2422C267.259 91.3203 267.78 91.4115 268.145 91.5156L268.691 91.6719C268.9 91.6719 269.004 91.5547 269.004 91.3203V84.6016C269.004 84.5234 268.991 84.4583 268.965 84.4062C268.965 84.3281 268.952 84.263 268.926 84.2109C268.926 84.1589 268.9 84.1068 268.848 84.0547C268.822 84.0026 268.796 83.9635 268.77 83.9375C268.743 83.9115 268.678 83.8724 268.574 83.8203C268.496 83.7682 268.418 83.7292 268.34 83.7031C268.288 83.651 268.184 83.599 268.027 83.5469C267.897 83.4948 267.767 83.4427 267.637 83.3906C267.533 83.3385 267.376 83.2734 267.168 83.1953C266.96 83.1172 266.764 83.0391 266.582 82.9609C266.087 82.8307 265.84 82.6224 265.84 82.3359C265.84 82.1797 265.957 82.0234 266.191 81.8672C269.525 80.2526 271.243 79.4453 271.348 79.4453C271.66 79.4453 271.816 79.6276 271.816 79.9922C271.816 80.2526 271.803 80.9427 271.777 82.0625C271.751 83.1562 271.725 84.6797 271.699 86.6328C271.699 88.5599 271.699 90.6693 271.699 92.9609C271.699 100.096 271.738 104.016 271.816 104.719C271.816 104.797 271.816 104.862 271.816 104.914C271.842 104.94 271.868 104.979 271.895 105.031C271.921 105.057 271.947 105.083 271.973 105.109C272.025 105.135 272.077 105.161 272.129 105.188C272.207 105.188 272.272 105.201 272.324 105.227C272.376 105.227 272.454 105.227 272.559 105.227C272.689 105.227 272.793 105.227 272.871 105.227C272.975 105.227 273.105 105.24 273.262 105.266C273.418 105.266 273.561 105.266 273.691 105.266C274.212 105.266 274.473 105.461 274.473 105.852C274.473 106.034 274.395 106.177 274.238 106.281C274.108 106.385 273.809 106.542 273.34 106.75C272.897 106.932 272.48 107.141 272.09 107.375C271.569 107.661 271.1 107.948 270.684 108.234C270.267 108.547 269.967 108.768 269.785 108.898C269.603 109.055 269.46 109.133 269.355 109.133C269.147 109.133 269.043 108.99 269.043 108.703V107.414C269.043 107.336 269.004 107.297 268.926 107.297L268.691 107.453C268.561 107.557 268.366 107.688 268.105 107.844C267.845 108 267.533 108.156 267.168 108.312C266.829 108.469 266.387 108.599 265.84 108.703C265.319 108.807 264.772 108.859 264.199 108.859C261.621 108.859 259.512 107.987 257.871 106.242C256.257 104.471 255.449 102.297 255.449 99.7188C255.449 97.401 256.191 95.3828 257.676 93.6641C259.186 91.9453 261.413 91.0859 264.355 91.0859H264.395ZM286.23 107.688V107.414C286.23 107.284 286.23 107.18 286.23 107.102C286.257 107.023 286.296 106.958 286.348 106.906C286.426 106.828 286.491 106.776 286.543 106.75C286.621 106.724 286.725 106.698 286.855 106.672C287.012 106.646 287.142 106.633 287.246 106.633C287.376 106.607 287.559 106.581 287.793 106.555C288.053 106.529 288.288 106.503 288.496 106.477C288.887 106.424 289.121 106.216 289.199 105.852C289.277 105.487 289.316 104.536 289.316 103C289.316 100.396 289.147 98.5208 288.809 97.375C288.496 96.2031 288.027 95.2786 287.402 94.6016C286.439 93.638 285.358 93.1562 284.16 93.1562C283.353 93.1562 282.598 93.3776 281.895 93.8203C281.191 94.237 280.788 94.6667 280.684 95.1094C280.658 95.2135 280.645 95.3958 280.645 95.6562C280.645 102.062 280.671 105.357 280.723 105.539C280.801 105.93 280.996 106.203 281.309 106.359C281.647 106.516 281.986 106.594 282.324 106.594C282.689 106.568 283.014 106.62 283.301 106.75C283.587 106.88 283.73 107.102 283.73 107.414C283.73 107.961 283.574 108.234 283.262 108.234C283.236 108.234 283.158 108.221 283.027 108.195C282.897 108.195 282.715 108.182 282.48 108.156C282.246 108.13 281.986 108.104 281.699 108.078C281.413 108.052 281.074 108.026 280.684 108C280.319 108 279.954 108 279.59 108C279.199 108 278.809 108 278.418 108C278.053 108.026 277.715 108.052 277.402 108.078C277.116 108.104 276.855 108.13 276.621 108.156C276.387 108.182 276.204 108.195 276.074 108.195C275.944 108.221 275.866 108.234 275.84 108.234C275.527 108.234 275.371 107.974 275.371 107.453C275.371 107.141 275.449 106.945 275.605 106.867C275.762 106.789 276.165 106.685 276.816 106.555C277.103 106.503 277.324 106.398 277.48 106.242C277.637 106.06 277.715 105.917 277.715 105.812C277.741 105.682 277.767 105.474 277.793 105.188C277.923 101.151 277.988 97.4922 277.988 94.2109V94.0547C277.988 88.1432 277.936 84.875 277.832 84.25C277.78 83.9115 277.285 83.638 276.348 83.4297C275.436 83.2214 274.98 82.9349 274.98 82.5703C274.98 82.2839 275.202 82.0234 275.645 81.7891C278.587 80.0964 280.111 79.25 280.215 79.25H280.254C280.671 79.25 280.879 79.4974 280.879 79.9922L280.84 92.3359C280.84 92.5182 280.905 92.6094 281.035 92.6094C281.061 92.6094 281.283 92.4922 281.699 92.2578C282.116 91.9974 282.689 91.75 283.418 91.5156C284.173 91.2552 284.954 91.125 285.762 91.125C288.262 91.125 290.046 92.3359 291.113 94.7578C291.53 95.7474 291.803 96.8672 291.934 98.1172C292.09 99.3411 292.207 101.75 292.285 105.344C292.285 105.708 292.35 105.982 292.48 106.164C292.611 106.346 292.754 106.464 292.91 106.516C293.066 106.542 293.353 106.581 293.77 106.633C294.212 106.685 294.434 106.932 294.434 107.375C294.434 107.948 294.264 108.234 293.926 108.234C293.9 108.234 293.822 108.221 293.691 108.195C293.561 108.195 293.379 108.182 293.145 108.156C292.91 108.13 292.65 108.104 292.363 108.078C292.103 108.052 291.777 108.026 291.387 108C290.996 108 290.618 108 290.254 108C289.889 108 289.525 108 289.16 108C288.796 108.026 288.47 108.052 288.184 108.078C287.897 108.104 287.637 108.13 287.402 108.156C287.194 108.182 287.025 108.195 286.895 108.195C286.764 108.221 286.686 108.234 286.66 108.234C286.374 108.234 286.23 108.052 286.23 107.688ZM324.473 91.3984C324.863 91.3984 325.059 91.6198 325.059 92.0625C325.059 92.2708 325.02 92.4401 324.941 92.5703C324.889 92.7005 324.811 92.7917 324.707 92.8438C324.603 92.8698 324.499 92.8958 324.395 92.9219C324.316 92.9479 324.199 92.9609 324.043 92.9609C323.913 92.9609 323.835 92.9609 323.809 92.9609C323.34 93.0651 323.001 93.4688 322.793 94.1719C322.611 94.849 322.051 96.4896 321.113 99.0938C320.176 101.672 318.796 104.641 316.973 108C316.608 108.677 316.23 109.016 315.84 109.016C315.527 109.016 315.228 108.807 314.941 108.391C314.681 107.974 314.186 107.102 313.457 105.773C313.171 105.253 312.949 104.836 312.793 104.523C311.074 101.268 310.189 99.6276 310.137 99.6016C310.059 99.6016 309.525 100.656 308.535 102.766C306.66 106.542 305.658 108.495 305.527 108.625C305.319 108.885 305.085 109.016 304.824 109.016C304.408 109.016 304.017 108.664 303.652 107.961C302.376 105.565 301.217 103.208 300.176 100.891C299.134 98.5729 298.353 96.776 297.832 95.5C297.337 94.1979 297.077 93.5339 297.051 93.5078C296.921 93.2474 296.738 93.0781 296.504 93C296.296 92.8958 296.1 92.8568 295.918 92.8828C295.762 92.8828 295.618 92.8307 295.488 92.7266C295.358 92.5964 295.293 92.375 295.293 92.0625C295.293 91.6198 295.54 91.3984 296.035 91.3984C296.087 91.3984 296.23 91.4115 296.465 91.4375C296.725 91.4375 297.077 91.4505 297.52 91.4766C297.962 91.5026 298.444 91.5156 298.965 91.5156H299.082C299.577 91.5156 300.046 91.5026 300.488 91.4766C300.931 91.4505 301.27 91.4375 301.504 91.4375C301.764 91.4115 301.921 91.3984 301.973 91.3984C302.285 91.3984 302.441 91.6198 302.441 92.0625C302.441 92.5833 302.025 92.8568 301.191 92.8828C300.384 92.9089 299.98 93.1172 299.98 93.5078C299.98 93.7161 300.059 93.9766 300.215 94.2891C301.491 97.6224 302.988 100.969 304.707 104.328C304.811 104.536 304.941 104.641 305.098 104.641C305.176 104.641 305.241 104.615 305.293 104.562C305.371 104.51 305.423 104.471 305.449 104.445C305.475 104.393 305.488 104.354 305.488 104.328C306.243 103.182 307.025 101.815 307.832 100.227C308.665 98.612 309.095 97.6484 309.121 97.3359V97.2969C309.121 97.1667 308.9 96.6198 308.457 95.6562C308.014 94.6667 307.741 94.0938 307.637 93.9375C307.402 93.599 307.103 93.3646 306.738 93.2344C306.374 93.0781 306.035 93.013 305.723 93.0391C305.436 93.0391 305.176 93 304.941 92.9219C304.733 92.8177 304.629 92.6224 304.629 92.3359C304.629 91.7109 304.837 91.3984 305.254 91.3984C305.332 91.3984 305.54 91.4115 305.879 91.4375C306.243 91.4375 306.738 91.4505 307.363 91.4766C307.988 91.5026 308.665 91.5156 309.395 91.5156C310.124 91.5156 310.788 91.5026 311.387 91.4766C312.012 91.4505 312.493 91.4375 312.832 91.4375C313.197 91.4115 313.418 91.3984 313.496 91.3984C313.861 91.3984 314.043 91.5938 314.043 91.9844V92.2578C314.043 92.5182 313.978 92.6745 313.848 92.7266C313.743 92.7786 313.353 92.8307 312.676 92.8828C312.285 92.9089 311.973 92.9349 311.738 92.9609C311.113 93.013 310.801 93.2865 310.801 93.7812C310.801 94.224 311.335 95.5781 312.402 97.8438C313.47 100.109 314.603 102.18 315.801 104.055C316.009 104.419 316.23 104.602 316.465 104.602C316.699 104.602 316.855 104.484 316.934 104.25C317.793 102.74 318.535 101.138 319.16 99.4453C319.811 97.7526 320.241 96.4635 320.449 95.5781C320.684 94.6667 320.801 94.0938 320.801 93.8594C320.801 93.7552 320.788 93.6641 320.762 93.5859C320.762 93.4818 320.736 93.4036 320.684 93.3516C320.632 93.2995 320.579 93.2474 320.527 93.1953C320.501 93.1432 320.436 93.1042 320.332 93.0781C320.254 93.0521 320.176 93.0391 320.098 93.0391C320.02 93.013 319.902 93 319.746 93C319.616 92.974 319.499 92.9609 319.395 92.9609C319.29 92.9349 319.134 92.9219 318.926 92.9219C318.717 92.8958 318.535 92.8828 318.379 92.8828C317.91 92.8307 317.676 92.5573 317.676 92.0625C317.676 91.6198 317.832 91.3984 318.145 91.3984C318.197 91.3984 318.353 91.4115 318.613 91.4375C318.874 91.4635 319.238 91.4896 319.707 91.5156C320.202 91.5417 320.723 91.5547 321.27 91.5547C321.842 91.5547 322.363 91.5417 322.832 91.5156C323.327 91.4896 323.704 91.4635 323.965 91.4375C324.251 91.4115 324.421 91.3984 324.473 91.3984ZM326.309 94.2109C326.309 93.4297 326.934 92.6484 328.184 91.8672C329.46 91.0599 330.879 90.6562 332.441 90.6562C332.936 90.6562 333.444 90.7083 333.965 90.8125C334.486 90.9167 335.072 91.099 335.723 91.3594C336.4 91.6198 336.96 92.0755 337.402 92.7266C337.871 93.3516 338.158 94.1198 338.262 95.0312C338.314 95.6562 338.34 96.138 338.34 96.4766V104.367C338.34 104.836 338.431 105.214 338.613 105.5C338.796 105.786 338.978 105.969 339.16 106.047C339.342 106.099 339.525 106.125 339.707 106.125C340.072 106.125 340.358 106.021 340.566 105.812C340.775 105.578 340.931 105.357 341.035 105.148C341.165 104.914 341.309 104.797 341.465 104.797C341.699 104.797 341.816 104.966 341.816 105.305C341.816 105.93 341.53 106.62 340.957 107.375C340.384 108.104 339.642 108.469 338.73 108.469C338.392 108.469 338.066 108.417 337.754 108.312C337.441 108.208 337.181 108.078 336.973 107.922C336.764 107.74 336.569 107.57 336.387 107.414C336.23 107.258 336.1 107.115 335.996 106.984L335.879 106.828C335.853 106.828 335.84 106.828 335.84 106.828C335.84 106.802 335.827 106.789 335.801 106.789C335.749 106.789 335.71 106.815 335.684 106.867C335.658 106.919 335.566 107.023 335.41 107.18C335.254 107.336 335.033 107.505 334.746 107.688C333.574 108.417 332.337 108.781 331.035 108.781C329.681 108.781 328.574 108.352 327.715 107.492C326.882 106.633 326.465 105.578 326.465 104.328V104.289C326.465 102.779 327.025 101.594 328.145 100.734C328.535 100.422 329.043 100.148 329.668 99.9141C330.293 99.6536 330.905 99.4583 331.504 99.3281C332.129 99.1979 332.715 99.0938 333.262 99.0156C333.809 98.9115 334.264 98.8464 334.629 98.8203L335.176 98.7812C335.384 98.7292 335.488 98.5469 335.488 98.2344V96.7891C335.488 95.4089 335.176 94.3411 334.551 93.5859C333.9 92.8828 333.118 92.5312 332.207 92.5312C330.801 92.5312 329.655 93.4167 328.77 95.1875C328.535 95.5 328.249 95.6562 327.91 95.6562C327.493 95.6562 327.116 95.526 326.777 95.2656C326.465 95.0052 326.309 94.6536 326.309 94.2109ZM331.973 106.594C332.572 106.594 333.132 106.464 333.652 106.203C334.199 105.943 334.577 105.708 334.785 105.5C334.993 105.292 335.163 105.109 335.293 104.953C335.449 104.745 335.527 104.445 335.527 104.055V103.078V101.438C335.527 100.943 335.501 100.63 335.449 100.5C335.423 100.344 335.319 100.266 335.137 100.266C334.486 100.266 333.665 100.37 332.676 100.578C331.712 100.786 330.944 101.164 330.371 101.711C329.746 102.232 329.434 102.961 329.434 103.898C329.434 104.888 329.707 105.617 330.254 106.086C330.618 106.424 331.191 106.594 331.973 106.594ZM347.676 92.9219C347.676 93.026 347.715 93.0781 347.793 93.0781H347.832C347.858 93.0781 347.949 93 348.105 92.8438C348.288 92.6875 348.535 92.4922 348.848 92.2578C349.16 92.0234 349.525 91.7891 349.941 91.5547C350.358 91.3203 350.866 91.125 351.465 90.9688C352.064 90.7865 352.689 90.6953 353.34 90.6953H353.418C353.965 90.6953 354.499 90.7734 355.02 90.9297C355.566 91.0599 356.139 91.3203 356.738 91.7109C357.363 92.0755 357.884 92.6615 358.301 93.4688C358.717 94.276 358.978 95.2656 359.082 96.4375C359.134 96.8802 359.16 97.5573 359.16 98.4688C359.16 98.5729 359.16 98.8333 359.16 99.25C359.16 99.6406 359.147 100.357 359.121 101.398C359.121 102.44 359.121 103.768 359.121 105.383V105.461C359.121 105.591 359.134 105.721 359.16 105.852C359.186 105.956 359.199 106.047 359.199 106.125C359.225 106.177 359.277 106.242 359.355 106.32C359.434 106.372 359.486 106.411 359.512 106.438C359.564 106.464 359.655 106.503 359.785 106.555C359.941 106.581 360.046 106.594 360.098 106.594C360.176 106.594 360.319 106.607 360.527 106.633C360.762 106.659 360.931 106.685 361.035 106.711C361.426 106.763 361.621 107.01 361.621 107.453C361.621 107.974 361.413 108.234 360.996 108.234C360.918 108.234 360.736 108.208 360.449 108.156C360.163 108.13 359.759 108.091 359.238 108.039C358.743 108.013 358.21 108 357.637 108C357.298 108 356.96 108 356.621 108C356.283 108.026 355.983 108.052 355.723 108.078C355.488 108.104 355.267 108.13 355.059 108.156C354.85 108.182 354.681 108.208 354.551 108.234H354.355C353.991 108.234 353.809 107.974 353.809 107.453C353.809 107.167 353.887 106.984 354.043 106.906C354.199 106.828 354.616 106.737 355.293 106.633C355.527 106.581 355.723 106.542 355.879 106.516C356.139 106.464 356.309 106.385 356.387 106.281C356.491 106.151 356.543 105.917 356.543 105.578V99.3672C356.543 97.4141 356.361 95.9688 355.996 95.0312C355.605 94.1458 355.02 93.5339 354.238 93.1953C353.457 92.8307 352.715 92.6484 352.012 92.6484C350.996 92.6484 350.085 92.9609 349.277 93.5859C348.47 94.2109 348.014 94.7578 347.91 95.2266C347.858 95.4349 347.832 95.6172 347.832 95.7734V105.227V105.344C347.832 106.021 348.132 106.398 348.73 106.477C349.902 106.659 350.54 106.802 350.645 106.906C350.801 107.036 350.879 107.258 350.879 107.57C350.879 108.039 350.71 108.273 350.371 108.273C350.345 108.273 350.254 108.26 350.098 108.234C349.967 108.234 349.785 108.221 349.551 108.195C349.316 108.169 349.056 108.13 348.77 108.078C348.483 108.052 348.145 108.026 347.754 108C347.389 108 347.025 108 346.66 108C346.296 108 345.931 108 345.566 108C345.202 108.026 344.876 108.052 344.59 108.078C344.329 108.104 344.095 108.13 343.887 108.156C343.678 108.182 343.509 108.195 343.379 108.195C343.249 108.221 343.171 108.234 343.145 108.234C342.702 108.234 342.48 108 342.48 107.531C342.48 107.167 342.559 106.945 342.715 106.867C342.897 106.763 343.34 106.659 344.043 106.555C344.512 106.477 344.798 106.333 344.902 106.125C345.033 105.917 345.098 105.604 345.098 105.188V95.6562C345.098 95.1875 345.033 94.875 344.902 94.7188C344.772 94.5365 344.238 94.0938 343.301 93.3906C343.145 93.2344 343.066 93.1042 343.066 93V92.9609C343.066 92.8307 343.158 92.7135 343.34 92.6094C343.522 92.4792 344.082 92.1667 345.02 91.6719C345.749 91.2812 346.361 90.9557 346.855 90.6953C347.012 90.5911 347.142 90.5391 347.246 90.5391C347.559 90.5391 347.715 90.7344 347.715 91.125V92.6875C347.715 92.7135 347.702 92.7656 347.676 92.8438V92.9219Z" fill="#800000"/>
</g>
<path d="M173.515 139L168.795 125H170.315L174.735 138.18H173.975L178.535 125H179.895L184.395 138.18H183.675L188.135 125H189.555L184.835 139H183.275L178.975 126.5H179.375L175.055 139H173.515ZM195.628 139.1C194.534 139.1 193.574 138.873 192.748 138.42C191.921 137.953 191.274 137.32 190.808 136.52C190.341 135.707 190.108 134.78 190.108 133.74C190.108 132.7 190.328 131.78 190.768 130.98C191.221 130.18 191.834 129.553 192.608 129.1C193.394 128.633 194.274 128.4 195.248 128.4C196.234 128.4 197.108 128.627 197.868 129.08C198.641 129.52 199.248 130.147 199.688 130.96C200.128 131.76 200.348 132.687 200.348 133.74C200.348 133.807 200.341 133.88 200.328 133.96C200.328 134.027 200.328 134.1 200.328 134.18H191.188V133.12H199.568L199.008 133.54C199.008 132.78 198.841 132.107 198.508 131.52C198.188 130.92 197.748 130.453 197.188 130.12C196.628 129.787 195.981 129.62 195.248 129.62C194.528 129.62 193.881 129.787 193.308 130.12C192.734 130.453 192.288 130.92 191.968 131.52C191.648 132.12 191.488 132.807 191.488 133.58V133.8C191.488 134.6 191.661 135.307 192.008 135.92C192.368 136.52 192.861 136.993 193.488 137.34C194.128 137.673 194.854 137.84 195.668 137.84C196.308 137.84 196.901 137.727 197.448 137.5C198.008 137.273 198.488 136.927 198.888 136.46L199.688 137.38C199.221 137.94 198.634 138.367 197.928 138.66C197.234 138.953 196.468 139.1 195.628 139.1ZM207.418 139.1C206.418 139.1 205.518 138.873 204.718 138.42C203.931 137.967 203.311 137.34 202.858 136.54C202.404 135.727 202.178 134.793 202.178 133.74C202.178 132.673 202.404 131.74 202.858 130.94C203.311 130.14 203.931 129.52 204.718 129.08C205.518 128.627 206.418 128.4 207.418 128.4C208.338 128.4 209.158 128.607 209.878 129.02C210.611 129.433 211.191 130.04 211.618 130.84C212.058 131.627 212.278 132.593 212.278 133.74C212.278 134.873 212.064 135.84 211.638 136.64C211.211 137.44 210.631 138.053 209.898 138.48C209.178 138.893 208.351 139.1 207.418 139.1ZM207.518 137.84C208.264 137.84 208.931 137.673 209.518 137.34C210.118 136.993 210.584 136.513 210.918 135.9C211.264 135.273 211.438 134.553 211.438 133.74C211.438 132.913 211.264 132.193 210.918 131.58C210.584 130.967 210.118 130.493 209.518 130.16C208.931 129.813 208.264 129.64 207.518 129.64C206.784 129.64 206.124 129.813 205.538 130.16C204.951 130.493 204.484 130.967 204.138 131.58C203.791 132.193 203.618 132.913 203.618 133.74C203.618 134.553 203.791 135.273 204.138 135.9C204.484 136.513 204.951 136.993 205.538 137.34C206.124 137.673 206.784 137.84 207.518 137.84ZM211.478 139V135.84L211.618 133.72L211.418 131.6V124.16H212.838V139H211.478ZM220.973 139.1C219.973 139.1 219.073 138.873 218.273 138.42C217.486 137.967 216.866 137.34 216.413 136.54C215.959 135.727 215.733 134.793 215.733 133.74C215.733 132.673 215.959 131.74 216.413 130.94C216.866 130.14 217.486 129.52 218.273 129.08C219.073 128.627 219.973 128.4 220.973 128.4C221.893 128.4 222.713 128.607 223.433 129.02C224.166 129.433 224.746 130.04 225.173 130.84C225.613 131.627 225.832 132.593 225.832 133.74C225.832 134.873 225.619 135.84 225.193 136.64C224.766 137.44 224.186 138.053 223.453 138.48C222.733 138.893 221.906 139.1 220.973 139.1ZM221.073 137.84C221.819 137.84 222.486 137.673 223.073 137.34C223.673 136.993 224.139 136.513 224.473 135.9C224.819 135.273 224.993 134.553 224.993 133.74C224.993 132.913 224.819 132.193 224.473 131.58C224.139 130.967 223.673 130.493 223.073 130.16C222.486 129.813 221.819 129.64 221.073 129.64C220.339 129.64 219.679 129.813 219.093 130.16C218.506 130.493 218.039 130.967 217.693 131.58C217.346 132.193 217.173 132.913 217.173 133.74C217.173 134.553 217.346 135.273 217.693 135.9C218.039 136.513 218.506 136.993 219.093 137.34C219.679 137.673 220.339 137.84 221.073 137.84ZM225.033 139V135.84L225.173 133.72L224.973 131.6V124.16H226.393V139H225.033ZM230.347 139V128.5H231.767V139H230.347ZM231.067 126.18C230.774 126.18 230.527 126.08 230.327 125.88C230.127 125.68 230.027 125.44 230.027 125.16C230.027 124.88 230.127 124.647 230.327 124.46C230.527 124.26 230.774 124.16 231.067 124.16C231.361 124.16 231.607 124.253 231.807 124.44C232.007 124.627 232.107 124.86 232.107 125.14C232.107 125.433 232.007 125.68 231.807 125.88C231.621 126.08 231.374 126.18 231.067 126.18ZM241.078 128.4C241.932 128.4 242.678 128.567 243.318 128.9C243.972 129.22 244.478 129.713 244.838 130.38C245.212 131.047 245.398 131.887 245.398 132.9V139H243.978V133.04C243.978 131.933 243.698 131.1 243.138 130.54C242.592 129.967 241.818 129.68 240.818 129.68C240.072 129.68 239.418 129.833 238.858 130.14C238.312 130.433 237.885 130.867 237.578 131.44C237.285 132 237.138 132.68 237.138 133.48V139H235.718V128.5H237.078V131.38L236.858 130.84C237.192 130.08 237.725 129.487 238.458 129.06C239.192 128.62 240.065 128.4 241.078 128.4ZM253.714 142.98C252.754 142.98 251.834 142.84 250.954 142.56C250.074 142.28 249.361 141.88 248.814 141.36L249.534 140.28C250.027 140.72 250.634 141.067 251.354 141.32C252.087 141.587 252.861 141.72 253.674 141.72C255.007 141.72 255.987 141.407 256.614 140.78C257.241 140.167 257.554 139.207 257.554 137.9V135.28L257.754 133.48L257.614 131.68V128.5H258.974V137.72C258.974 139.533 258.527 140.86 257.634 141.7C256.754 142.553 255.447 142.98 253.714 142.98ZM253.454 138.6C252.454 138.6 251.554 138.387 250.754 137.96C249.954 137.52 249.321 136.913 248.854 136.14C248.401 135.367 248.174 134.48 248.174 133.48C248.174 132.48 248.401 131.6 248.854 130.84C249.321 130.067 249.954 129.467 250.754 129.04C251.554 128.613 252.454 128.4 253.454 128.4C254.387 128.4 255.227 128.593 255.974 128.98C256.721 129.367 257.314 129.94 257.754 130.7C258.194 131.46 258.414 132.387 258.414 133.48C258.414 134.573 258.194 135.5 257.754 136.26C257.314 137.02 256.721 137.6 255.974 138C255.227 138.4 254.387 138.6 253.454 138.6ZM253.594 137.34C254.367 137.34 255.054 137.18 255.654 136.86C256.254 136.527 256.727 136.073 257.074 135.5C257.421 134.913 257.594 134.24 257.594 133.48C257.594 132.72 257.421 132.053 257.074 131.48C256.727 130.907 256.254 130.46 255.654 130.14C255.054 129.807 254.367 129.64 253.594 129.64C252.834 129.64 252.147 129.807 251.534 130.14C250.934 130.46 250.461 130.907 250.114 131.48C249.781 132.053 249.614 132.72 249.614 133.48C249.614 134.24 249.781 134.913 250.114 135.5C250.461 136.073 250.934 136.527 251.534 136.86C252.147 137.18 252.834 137.34 253.594 137.34Z" fill="#800000"/>
<path d="M65 60H191" stroke="#4C1501" stroke-width="2" stroke-linecap="round"/>
<path d="M238 60H364" stroke="#4C1501" stroke-width="2" stroke-linecap="round"/>
<path d="M65 132H146.025" stroke="#4C1501" stroke-width="2" stroke-linecap="round"/>
<path d="M283 132H364.025" stroke="#4C1501" stroke-width="2" stroke-linecap="round"/>
<path d="M110.496 162.898C110.949 162.898 111.434 162.898 111.949 162.898C112.465 162.898 112.941 162.898 113.379 162.898C113.832 162.883 114.184 162.867 114.434 162.852C114.684 162.836 114.832 162.828 114.879 162.828C115.098 162.828 115.207 163 115.207 163.344C115.207 163.625 114.832 163.781 114.082 163.812C113.801 163.828 113.574 163.844 113.402 163.859C113.184 163.875 113.074 164 113.074 164.234V171.547C113.074 171.859 113.215 172.023 113.496 172.039C113.668 172.055 113.84 172.07 114.012 172.086C114.199 172.086 114.348 172.094 114.457 172.109C114.582 172.109 114.707 172.117 114.832 172.133C114.957 172.133 115.051 172.141 115.113 172.156C115.176 172.172 115.246 172.188 115.324 172.203C115.402 172.219 115.457 172.242 115.488 172.273C115.52 172.305 115.551 172.344 115.582 172.391C115.613 172.422 115.629 172.469 115.629 172.531C115.645 172.578 115.652 172.641 115.652 172.719C115.652 173 115.512 173.141 115.23 173.141C115.215 173.141 115.152 173.133 115.043 173.117C114.934 173.117 114.785 173.109 114.598 173.094C114.41 173.078 114.199 173.062 113.965 173.047C113.73 173.031 113.457 173.016 113.145 173C112.848 173 112.551 173 112.254 173C111.957 173 111.66 173 111.363 173C111.066 173.016 110.801 173.031 110.566 173.047C110.332 173.062 110.121 173.078 109.934 173.094C109.762 173.109 109.621 173.117 109.512 173.117C109.402 173.133 109.34 173.141 109.324 173.141C109.105 173.141 108.996 172.977 108.996 172.648C108.996 172.367 109.137 172.211 109.418 172.18C109.652 172.164 109.941 172.141 110.285 172.109C110.738 172.094 111.012 172.062 111.105 172.016C111.199 171.969 111.246 171.836 111.246 171.617V164.234C111.246 164.016 111.129 163.891 110.895 163.859C109.66 163.797 109.027 163.766 108.996 163.766C108.762 163.703 108.645 163.516 108.645 163.203C108.645 162.953 108.762 162.828 108.996 162.828C109.043 162.828 109.191 162.836 109.441 162.852C109.691 162.867 110.043 162.883 110.496 162.898ZM122.191 162.43C123.645 162.43 124.887 162.969 125.918 164.047C126.965 165.125 127.488 166.422 127.488 167.938C127.488 169.453 126.965 170.75 125.918 171.828C124.887 172.891 123.637 173.422 122.168 173.422C120.715 173.422 119.457 172.891 118.395 171.828C117.348 170.766 116.824 169.469 116.824 167.938C116.824 166.422 117.348 165.125 118.395 164.047C119.457 162.969 120.723 162.43 122.191 162.43ZM124.84 164.984C124.09 164.172 123.199 163.766 122.168 163.766C121.137 163.766 120.254 164.172 119.52 164.984C118.785 165.781 118.418 166.734 118.418 167.844C118.418 168.984 118.793 169.961 119.543 170.773C120.293 171.586 121.191 171.992 122.238 171.992C123.238 171.992 124.113 171.609 124.863 170.844C125.613 170.078 125.988 169.109 125.988 167.938C125.988 166.766 125.605 165.781 124.84 164.984ZM129.645 170.984C129.926 170.719 130.262 170.586 130.652 170.586C131.043 170.586 131.379 170.727 131.66 171.008C131.941 171.273 132.082 171.602 132.082 171.992C132.082 172.383 131.949 172.719 131.684 173C131.418 173.266 131.082 173.398 130.676 173.398C130.285 173.398 129.941 173.266 129.645 173C129.363 172.719 129.223 172.375 129.223 171.969C129.223 171.562 129.363 171.234 129.645 170.984ZM135.855 162.898C136.309 162.898 136.793 162.898 137.309 162.898C137.824 162.898 138.301 162.898 138.738 162.898C139.191 162.883 139.543 162.867 139.793 162.852C140.043 162.836 140.191 162.828 140.238 162.828C140.457 162.828 140.566 163 140.566 163.344C140.566 163.625 140.191 163.781 139.441 163.812C139.16 163.828 138.934 163.844 138.762 163.859C138.543 163.875 138.434 164 138.434 164.234V171.547C138.434 171.859 138.574 172.023 138.855 172.039C139.027 172.055 139.199 172.07 139.371 172.086C139.559 172.086 139.707 172.094 139.816 172.109C139.941 172.109 140.066 172.117 140.191 172.133C140.316 172.133 140.41 172.141 140.473 172.156C140.535 172.172 140.605 172.188 140.684 172.203C140.762 172.219 140.816 172.242 140.848 172.273C140.879 172.305 140.91 172.344 140.941 172.391C140.973 172.422 140.988 172.469 140.988 172.531C141.004 172.578 141.012 172.641 141.012 172.719C141.012 173 140.871 173.141 140.59 173.141C140.574 173.141 140.512 173.133 140.402 173.117C140.293 173.117 140.145 173.109 139.957 173.094C139.77 173.078 139.559 173.062 139.324 173.047C139.09 173.031 138.816 173.016 138.504 173C138.207 173 137.91 173 137.613 173C137.316 173 137.02 173 136.723 173C136.426 173.016 136.16 173.031 135.926 173.047C135.691 173.062 135.48 173.078 135.293 173.094C135.121 173.109 134.98 173.117 134.871 173.117C134.762 173.133 134.699 173.141 134.684 173.141C134.465 173.141 134.355 172.977 134.355 172.648C134.355 172.367 134.496 172.211 134.777 172.18C135.012 172.164 135.301 172.141 135.645 172.109C136.098 172.094 136.371 172.062 136.465 172.016C136.559 171.969 136.605 171.836 136.605 171.617V164.234C136.605 164.016 136.488 163.891 136.254 163.859C135.02 163.797 134.387 163.766 134.355 163.766C134.121 163.703 134.004 163.516 134.004 163.203C134.004 162.953 134.121 162.828 134.355 162.828C134.402 162.828 134.551 162.836 134.801 162.852C135.051 162.867 135.402 162.883 135.855 162.898ZM147.551 162.43C149.004 162.43 150.246 162.969 151.277 164.047C152.324 165.125 152.848 166.422 152.848 167.938C152.848 169.453 152.324 170.75 151.277 171.828C150.246 172.891 148.996 173.422 147.527 173.422C146.074 173.422 144.816 172.891 143.754 171.828C142.707 170.766 142.184 169.469 142.184 167.938C142.184 166.422 142.707 165.125 143.754 164.047C144.816 162.969 146.082 162.43 147.551 162.43ZM150.199 164.984C149.449 164.172 148.559 163.766 147.527 163.766C146.496 163.766 145.613 164.172 144.879 164.984C144.145 165.781 143.777 166.734 143.777 167.844C143.777 168.984 144.152 169.961 144.902 170.773C145.652 171.586 146.551 171.992 147.598 171.992C148.598 171.992 149.473 171.609 150.223 170.844C150.973 170.078 151.348 169.109 151.348 167.938C151.348 166.766 150.965 165.781 150.199 164.984ZM155.004 170.984C155.285 170.719 155.621 170.586 156.012 170.586C156.402 170.586 156.738 170.727 157.02 171.008C157.301 171.273 157.441 171.602 157.441 171.992C157.441 172.383 157.309 172.719 157.043 173C156.777 173.266 156.441 173.398 156.035 173.398C155.645 173.398 155.301 173.266 155.004 173C154.723 172.719 154.582 172.375 154.582 171.969C154.582 171.562 154.723 171.234 155.004 170.984ZM160.559 173.305C160.121 173.305 159.902 173.156 159.902 172.859C159.902 172.781 159.918 172.719 159.949 172.672C159.98 172.609 160.043 172.539 160.137 172.461C160.246 172.383 160.363 172.312 160.488 172.25C160.613 172.172 160.801 172.055 161.051 171.898C161.301 171.727 161.551 171.539 161.801 171.336C162.941 170.43 163.934 169.445 164.777 168.383C165.168 167.867 165.363 167.406 165.363 167C165.363 166.266 165.02 165.633 164.332 165.102C163.645 164.57 162.926 164.305 162.176 164.305C161.582 164.305 161.105 164.477 160.746 164.82C160.402 165.164 160.215 165.562 160.184 166.016C160.184 166.438 160.066 166.648 159.832 166.648H159.809C159.496 166.648 159.34 166.359 159.34 165.781C159.34 164.922 159.652 164.219 160.277 163.672C160.902 163.109 161.691 162.828 162.645 162.828C163.77 162.828 164.746 163.164 165.574 163.836C166.418 164.492 166.84 165.32 166.84 166.32C166.84 166.773 166.723 167.234 166.488 167.703C166.254 168.172 166.027 168.531 165.809 168.781C165.605 169.031 165.207 169.445 164.613 170.023C164.02 170.602 163.613 171.008 163.395 171.242C163.332 171.336 163.301 171.391 163.301 171.406C163.301 171.547 163.387 171.617 163.559 171.617C163.918 171.617 164.504 171.586 165.316 171.523C165.926 171.477 166.441 171.328 166.863 171.078C167.301 170.812 167.699 170.297 168.059 169.531C168.121 169.359 168.223 169.273 168.363 169.273C168.645 169.273 168.785 169.375 168.785 169.578C168.785 169.625 168.488 170.648 167.895 172.648C167.879 172.711 167.855 172.766 167.824 172.812C167.793 172.844 167.762 172.875 167.73 172.906C167.715 172.922 167.676 172.938 167.613 172.953C167.566 172.969 167.527 172.977 167.496 172.977C167.48 172.977 167.434 172.984 167.355 173C167.277 173 167.223 173 167.191 173C166.566 173.031 165.699 173.07 164.59 173.117C163.496 173.164 162.566 173.203 161.801 173.234C161.035 173.281 160.621 173.305 160.559 173.305ZM175.16 162.43C176.613 162.43 177.855 162.969 178.887 164.047C179.934 165.125 180.457 166.422 180.457 167.938C180.457 169.453 179.934 170.75 178.887 171.828C177.855 172.891 176.605 173.422 175.137 173.422C173.684 173.422 172.426 172.891 171.363 171.828C170.316 170.766 169.793 169.469 169.793 167.938C169.793 166.422 170.316 165.125 171.363 164.047C172.426 162.969 173.691 162.43 175.16 162.43ZM177.809 164.984C177.059 164.172 176.168 163.766 175.137 163.766C174.105 163.766 173.223 164.172 172.488 164.984C171.754 165.781 171.387 166.734 171.387 167.844C171.387 168.984 171.762 169.961 172.512 170.773C173.262 171.586 174.16 171.992 175.207 171.992C176.207 171.992 177.082 171.609 177.832 170.844C178.582 170.078 178.957 169.109 178.957 167.938C178.957 166.766 178.574 165.781 177.809 164.984ZM182.73 173.305C182.293 173.305 182.074 173.156 182.074 172.859C182.074 172.781 182.09 172.719 182.121 172.672C182.152 172.609 182.215 172.539 182.309 172.461C182.418 172.383 182.535 172.312 182.66 172.25C182.785 172.172 182.973 172.055 183.223 171.898C183.473 171.727 183.723 171.539 183.973 171.336C185.113 170.43 186.105 169.445 186.949 168.383C187.34 167.867 187.535 167.406 187.535 167C187.535 166.266 187.191 165.633 186.504 165.102C185.816 164.57 185.098 164.305 184.348 164.305C183.754 164.305 183.277 164.477 182.918 164.82C182.574 165.164 182.387 165.562 182.355 166.016C182.355 166.438 182.238 166.648 182.004 166.648H181.98C181.668 166.648 181.512 166.359 181.512 165.781C181.512 164.922 181.824 164.219 182.449 163.672C183.074 163.109 183.863 162.828 184.816 162.828C185.941 162.828 186.918 163.164 187.746 163.836C188.59 164.492 189.012 165.32 189.012 166.32C189.012 166.773 188.895 167.234 188.66 167.703C188.426 168.172 188.199 168.531 187.98 168.781C187.777 169.031 187.379 169.445 186.785 170.023C186.191 170.602 185.785 171.008 185.566 171.242C185.504 171.336 185.473 171.391 185.473 171.406C185.473 171.547 185.559 171.617 185.73 171.617C186.09 171.617 186.676 171.586 187.488 171.523C188.098 171.477 188.613 171.328 189.035 171.078C189.473 170.812 189.871 170.297 190.23 169.531C190.293 169.359 190.395 169.273 190.535 169.273C190.816 169.273 190.957 169.375 190.957 169.578C190.957 169.625 190.66 170.648 190.066 172.648C190.051 172.711 190.027 172.766 189.996 172.812C189.965 172.844 189.934 172.875 189.902 172.906C189.887 172.922 189.848 172.938 189.785 172.953C189.738 172.969 189.699 172.977 189.668 172.977C189.652 172.977 189.605 172.984 189.527 173C189.449 173 189.395 173 189.363 173C188.738 173.031 187.871 173.07 186.762 173.117C185.668 173.164 184.738 173.203 183.973 173.234C183.207 173.281 182.793 173.305 182.73 173.305ZM192.645 173C192.379 173 192.246 172.891 192.246 172.672C192.246 172.531 192.379 172.273 192.645 171.898C196.676 166.102 198.762 163.109 198.902 162.922C199.012 162.781 199.145 162.711 199.301 162.711C199.52 162.711 199.629 162.852 199.629 163.133L199.605 170.961C199.605 171.133 199.684 171.219 199.84 171.219H200.238C200.52 171.219 200.754 171.211 200.941 171.195C201.129 171.18 201.23 171.172 201.246 171.172C201.559 171.172 201.715 171.273 201.715 171.477C201.715 171.539 201.684 171.781 201.621 172.203C201.559 172.625 201.504 172.859 201.457 172.906C201.395 172.969 201.293 173 201.152 173H199.816C199.676 173 199.605 173.055 199.605 173.164V177.172C199.605 177.359 199.527 177.453 199.371 177.453H198.41C198.238 177.453 198.152 177.359 198.152 177.172V173.234C198.152 173.078 198.09 173 197.965 173H192.645ZM197.918 171.406C198.074 171.406 198.152 171.305 198.152 171.102V165.992C198.152 165.867 198.113 165.805 198.035 165.805C198.004 165.805 197.957 165.836 197.895 165.898C195.504 169.43 194.309 171.227 194.309 171.289C194.309 171.367 194.355 171.406 194.449 171.406H197.918ZM210.246 177.758H210.152C209.777 177.758 209.59 177.648 209.59 177.43V156.078C209.59 155.875 209.785 155.773 210.176 155.773H210.223C210.473 155.773 210.637 155.797 210.715 155.844C210.809 155.875 210.855 155.953 210.855 156.078V177.43C210.855 177.648 210.652 177.758 210.246 177.758ZM220.207 156.547C220.691 156.547 221.387 156.508 222.293 156.43C223.215 156.352 223.91 156.312 224.379 156.312C226.113 156.312 227.441 156.633 228.363 157.273C229.348 157.992 229.84 158.914 229.84 160.039C229.84 160.773 229.629 161.469 229.207 162.125C228.785 162.781 228.238 163.32 227.566 163.742L227.496 163.812C227.496 163.828 227.527 163.852 227.59 163.883C228.527 164.055 229.316 164.531 229.957 165.312C230.598 166.094 230.918 167.008 230.918 168.055C230.918 169.117 230.613 170.055 230.004 170.867C229.395 171.664 228.684 172.242 227.871 172.602C227.074 172.961 226.113 173.141 224.988 173.141C224.613 173.141 224.066 173.117 223.348 173.07C222.629 173.023 222.082 173 221.707 173C221.441 173 221.012 173.008 220.418 173.023C219.824 173.039 219.34 173.047 218.965 173.047H218.918C218.824 173.047 218.746 173.039 218.684 173.023C218.637 173.008 218.582 172.953 218.52 172.859C218.473 172.766 218.449 172.633 218.449 172.461C218.449 172.273 218.504 172.156 218.613 172.109C218.738 172.062 219.027 172.016 219.48 171.969C219.621 171.953 219.73 171.938 219.809 171.922C219.918 171.906 219.996 171.891 220.043 171.875C220.105 171.844 220.16 171.797 220.207 171.734C220.27 171.656 220.301 171.555 220.301 171.43V158.305C220.301 158.008 220.215 157.82 220.043 157.742C219.887 157.648 219.598 157.586 219.176 157.555C219.129 157.555 219.09 157.555 219.059 157.555C218.777 157.555 218.637 157.352 218.637 156.945C218.637 156.664 218.777 156.523 219.059 156.523C219.074 156.523 219.129 156.531 219.223 156.547C219.316 156.547 219.449 156.547 219.621 156.547C219.809 156.547 220.004 156.547 220.207 156.547ZM227.707 160.555C227.707 160.227 227.652 159.898 227.543 159.57C227.434 159.227 227.254 158.883 227.004 158.539C226.754 158.195 226.379 157.914 225.879 157.695C225.395 157.477 224.824 157.367 224.168 157.367C223.277 157.367 222.715 157.461 222.48 157.648C222.402 157.711 222.363 157.812 222.363 157.953V158V163.133C222.363 163.336 222.449 163.438 222.621 163.438H223.699H224.004C225.691 163.438 226.809 162.93 227.355 161.914C227.59 161.445 227.707 160.992 227.707 160.555ZM224.215 172.016C225.48 172.016 226.559 171.68 227.449 171.008C228.34 170.32 228.785 169.375 228.785 168.172C228.785 167.375 228.551 166.641 228.082 165.969C227.629 165.281 226.918 164.836 225.949 164.633C225.434 164.523 224.762 164.469 223.934 164.469H222.715C222.48 164.469 222.363 164.594 222.363 164.844V171.031C222.363 171.203 222.371 171.336 222.387 171.43C222.418 171.523 222.488 171.625 222.598 171.734C222.707 171.828 222.871 171.891 223.09 171.922C223.559 171.984 223.934 172.016 224.215 172.016ZM240.199 172.203C240.184 172.203 240.113 172.25 239.988 172.344C239.879 172.422 239.723 172.523 239.52 172.648C239.332 172.758 239.113 172.875 238.863 173C238.613 173.109 238.309 173.203 237.949 173.281C237.59 173.375 237.223 173.422 236.848 173.422C235.863 173.422 235.043 173.117 234.387 172.508C233.73 171.898 233.332 171.047 233.191 169.953C233.145 169.484 233.121 168.992 233.121 168.477C233.121 168.18 233.121 167.492 233.121 166.414C233.137 165.32 233.145 164.727 233.145 164.633C233.145 164.336 232.926 164.109 232.488 163.953C232.41 163.922 232.285 163.883 232.113 163.836C231.957 163.789 231.855 163.742 231.809 163.695C231.762 163.648 231.738 163.562 231.738 163.438V163.367C231.738 163.164 231.824 163.055 231.996 163.039C233.59 162.945 234.426 162.898 234.504 162.898C234.66 162.898 234.738 162.992 234.738 163.18V168.102C234.738 169.148 234.887 169.977 235.184 170.586C235.402 171.008 235.73 171.383 236.168 171.711C236.621 172.023 237.137 172.18 237.715 172.18C238.496 172.18 239.176 171.891 239.754 171.312C239.785 171.266 239.824 171.219 239.871 171.172C239.934 171.109 239.973 171.07 239.988 171.055C240.004 171.023 240.027 170.992 240.059 170.961C240.09 170.93 240.105 170.906 240.105 170.891C240.121 170.859 240.137 170.828 240.152 170.797C240.168 170.766 240.176 170.742 240.176 170.727C240.176 170.695 240.176 170.656 240.176 170.609V164.703C240.176 164.359 240.02 164.141 239.707 164.047C239.629 164.016 239.254 163.945 238.582 163.836C238.348 163.789 238.23 163.656 238.23 163.438C238.23 163.203 238.34 163.07 238.559 163.039C239.074 163.023 239.535 163.008 239.941 162.992C240.363 162.977 240.652 162.969 240.809 162.969C240.98 162.953 241.121 162.945 241.23 162.945C241.355 162.945 241.449 162.945 241.512 162.945C241.746 162.945 241.863 163.102 241.863 163.414V170.938C241.863 170.984 241.863 171.023 241.863 171.055C241.879 171.07 241.895 171.094 241.91 171.125C241.941 171.141 241.973 171.156 242.004 171.172C242.035 171.188 242.082 171.211 242.145 171.242C242.207 171.273 242.277 171.305 242.355 171.336C242.434 171.367 242.535 171.414 242.66 171.477C242.785 171.539 242.918 171.602 243.059 171.664C243.199 171.727 243.27 171.82 243.27 171.945C243.27 172.117 243.23 172.234 243.152 172.297C243.09 172.359 242.988 172.406 242.848 172.438C242.707 172.453 242.449 172.531 242.074 172.672C241.699 172.797 241.293 172.984 240.855 173.234C240.762 173.297 240.676 173.328 240.598 173.328C240.379 173.328 240.27 173.172 240.27 172.859V172.297C240.27 172.234 240.246 172.203 240.199 172.203ZM249.059 172.719C249.059 172.516 249.113 172.375 249.223 172.297C249.348 172.203 249.48 172.164 249.621 172.18C249.777 172.18 249.91 172.148 250.02 172.086C250.145 172.023 250.207 171.914 250.207 171.758C250.207 171.602 249.996 171.227 249.574 170.633C249.152 170.039 248.746 169.5 248.355 169.016C247.98 168.531 247.77 168.266 247.723 168.219C247.723 168.188 247.691 168.172 247.629 168.172C247.566 168.172 247.441 168.273 247.254 168.477C247.066 168.68 246.965 168.812 246.949 168.875C246.934 168.922 246.926 169.008 246.926 169.133V171.617C246.926 171.836 246.98 171.969 247.09 172.016C247.199 172.062 247.512 172.117 248.027 172.18C248.371 172.258 248.543 172.43 248.543 172.695C248.543 172.961 248.434 173.094 248.215 173.094C248.184 173.094 248.09 173.086 247.934 173.07C247.777 173.055 247.559 173.039 247.277 173.023C246.996 173.008 246.691 173 246.363 173C246.035 173 245.73 173.008 245.449 173.023C245.168 173.039 244.941 173.055 244.77 173.07C244.613 173.086 244.52 173.094 244.488 173.094C244.207 173.094 244.066 172.953 244.066 172.672C244.066 172.484 244.129 172.359 244.254 172.297C244.379 172.219 244.512 172.18 244.652 172.18C244.809 172.18 244.949 172.141 245.074 172.062C245.215 171.984 245.293 171.852 245.309 171.664V158.727C245.309 158.477 245.207 158.281 245.004 158.141C244.301 157.656 243.934 157.398 243.902 157.367L243.809 157.18C243.809 157.023 243.973 156.891 244.301 156.781C245.816 156.109 246.605 155.773 246.668 155.773C246.84 155.773 246.926 155.906 246.926 156.172V167.516C246.926 167.578 246.949 167.609 246.996 167.609C247.059 167.609 247.105 167.578 247.137 167.516C247.371 167.281 247.605 167.047 247.84 166.812C248.09 166.562 248.277 166.375 248.402 166.25C248.543 166.109 248.684 165.969 248.824 165.828C248.965 165.688 249.066 165.578 249.129 165.5C249.207 165.422 249.277 165.344 249.34 165.266C249.402 165.188 249.441 165.125 249.457 165.078C249.473 165.016 249.488 164.953 249.504 164.891C249.52 164.828 249.527 164.758 249.527 164.68C249.527 164.414 249.418 164.203 249.199 164.047C248.996 163.875 248.895 163.75 248.895 163.672V163.414C248.895 163.211 249.066 163.109 249.41 163.109H250.793C251.262 163.109 251.691 163.102 252.082 163.086C252.488 163.07 252.801 163.062 253.02 163.062C253.254 163.047 253.395 163.039 253.441 163.039C253.676 163.039 253.793 163.188 253.793 163.484C253.793 163.672 253.754 163.797 253.676 163.859C253.598 163.922 253.41 163.969 253.113 164C252.832 164.031 252.598 164.07 252.41 164.117C252.066 164.211 251.699 164.398 251.309 164.68C250.918 164.961 250.598 165.227 250.348 165.477C250.098 165.727 249.621 166.211 248.918 166.93C248.809 167.039 248.754 167.109 248.754 167.141C248.754 167.203 249.684 168.344 251.543 170.562C251.824 170.891 252.051 171.148 252.223 171.336C252.395 171.508 252.637 171.688 252.949 171.875C253.277 172.062 253.621 172.18 253.98 172.227C254.246 172.258 254.379 172.398 254.379 172.648C254.379 172.977 254.246 173.141 253.98 173.141C253.965 173.141 253.91 173.133 253.816 173.117C253.738 173.117 253.629 173.109 253.488 173.094C253.348 173.078 253.184 173.062 252.996 173.047C252.824 173.031 252.621 173.016 252.387 173C252.152 173 251.918 173 251.684 173C251.449 173 251.215 173 250.98 173C250.746 173.016 250.535 173.031 250.348 173.047C250.176 173.062 250.02 173.078 249.879 173.094C249.738 173.109 249.621 173.117 249.527 173.117C249.449 173.133 249.402 173.141 249.387 173.141C249.168 173.141 249.059 173.008 249.059 172.742V172.719ZM256.816 170.094C256.816 169.281 256.816 168.523 256.816 167.82C256.816 167.117 256.816 166.57 256.816 166.18C256.832 165.773 256.84 165.531 256.84 165.453C256.84 165.281 256.777 165.164 256.652 165.102C256.543 165.023 256.066 164.812 255.223 164.469C255.02 164.391 254.918 164.289 254.918 164.164C254.918 164.117 254.926 164.07 254.941 164.023C254.973 163.977 255.012 163.938 255.059 163.906C255.121 163.875 255.176 163.852 255.223 163.836C255.27 163.805 255.332 163.773 255.41 163.742C255.488 163.711 255.543 163.688 255.574 163.672C257.324 162.828 258.207 162.406 258.223 162.406H258.246C258.465 162.406 258.574 162.539 258.574 162.805L258.551 163.578C258.52 164.094 258.488 164.789 258.457 165.664C258.441 166.523 258.434 167.383 258.434 168.242V169.039C258.434 170.523 258.457 171.398 258.504 171.664C258.551 171.93 258.707 172.078 258.973 172.109C259.441 172.172 259.738 172.227 259.863 172.273C259.988 172.32 260.051 172.438 260.051 172.625C260.051 172.969 259.957 173.141 259.77 173.141C259.754 173.141 259.707 173.133 259.629 173.117C259.551 173.117 259.441 173.109 259.301 173.094C259.16 173.078 259.004 173.062 258.832 173.047C258.66 173.031 258.457 173.016 258.223 173C258.004 173 257.785 173 257.566 173C257.348 173 257.121 173 256.887 173C256.652 173.016 256.449 173.031 256.277 173.047C256.121 173.062 255.973 173.078 255.832 173.094C255.691 173.109 255.582 173.117 255.504 173.117C255.426 173.133 255.379 173.141 255.363 173.141C255.113 173.141 254.988 173.008 254.988 172.742C254.988 172.477 255.035 172.32 255.129 172.273C255.238 172.227 255.59 172.164 256.184 172.086C256.465 172.039 256.637 171.953 256.699 171.828C256.777 171.688 256.816 171.484 256.816 171.219V170.094ZM257.051 158.164C257.051 157.852 257.168 157.586 257.402 157.367C257.637 157.148 257.91 157.039 258.223 157.039C258.535 157.039 258.801 157.148 259.02 157.367C259.254 157.586 259.371 157.844 259.371 158.141C259.371 158.469 259.254 158.742 259.02 158.961C258.801 159.18 258.527 159.289 258.199 159.289C257.871 159.289 257.598 159.188 257.379 158.984C257.16 158.766 257.051 158.492 257.051 158.164ZM261.34 164.234C261.012 164.234 260.848 164.133 260.848 163.93C260.848 163.836 260.957 163.695 261.176 163.508C261.41 163.305 261.738 162.977 262.16 162.523C262.582 162.055 262.98 161.508 263.355 160.883C263.527 160.586 263.684 160.438 263.824 160.438C264.043 160.438 264.152 160.57 264.152 160.836C264.152 160.945 264.145 161.227 264.129 161.68C264.129 162.133 264.129 162.414 264.129 162.523C264.129 162.836 264.285 162.992 264.598 162.992H266.754C266.785 162.992 266.824 163 266.871 163.016C266.918 163.016 266.949 163.016 266.965 163.016C267.371 163.016 267.574 163.164 267.574 163.461C267.574 163.758 267.504 163.992 267.363 164.164C267.285 164.242 267.145 164.281 266.941 164.281H264.129C263.973 164.281 263.895 164.359 263.895 164.516C263.895 165.812 263.887 166.891 263.871 167.75C263.871 168.609 263.863 169.188 263.848 169.484C263.848 169.781 263.848 169.992 263.848 170.117C263.848 171.305 264.262 171.898 265.09 171.898C265.418 171.898 265.762 171.781 266.121 171.547C266.48 171.297 266.793 171.055 267.059 170.82C267.34 170.57 267.551 170.445 267.691 170.445C267.816 170.445 267.918 170.492 267.996 170.586C268.09 170.68 268.137 170.781 268.137 170.891C268.137 170.984 268.082 171.117 267.973 171.289C266.707 172.727 265.59 173.445 264.621 173.445C264.043 173.445 263.512 173.219 263.027 172.766C262.559 172.297 262.285 171.555 262.207 170.539C262.191 170.367 262.184 170.109 262.184 169.766C262.184 169.375 262.199 168.43 262.23 166.93C262.262 165.414 262.277 164.586 262.277 164.445C262.277 164.305 262.223 164.234 262.113 164.234H261.34ZM269.309 164.234C268.98 164.234 268.816 164.133 268.816 163.93C268.816 163.836 268.926 163.695 269.145 163.508C269.379 163.305 269.707 162.977 270.129 162.523C270.551 162.055 270.949 161.508 271.324 160.883C271.496 160.586 271.652 160.438 271.793 160.438C272.012 160.438 272.121 160.57 272.121 160.836C272.121 160.945 272.113 161.227 272.098 161.68C272.098 162.133 272.098 162.414 272.098 162.523C272.098 162.836 272.254 162.992 272.566 162.992H274.723C274.754 162.992 274.793 163 274.84 163.016C274.887 163.016 274.918 163.016 274.934 163.016C275.34 163.016 275.543 163.164 275.543 163.461C275.543 163.758 275.473 163.992 275.332 164.164C275.254 164.242 275.113 164.281 274.91 164.281H272.098C271.941 164.281 271.863 164.359 271.863 164.516C271.863 165.812 271.855 166.891 271.84 167.75C271.84 168.609 271.832 169.188 271.816 169.484C271.816 169.781 271.816 169.992 271.816 170.117C271.816 171.305 272.23 171.898 273.059 171.898C273.387 171.898 273.73 171.781 274.09 171.547C274.449 171.297 274.762 171.055 275.027 170.82C275.309 170.57 275.52 170.445 275.66 170.445C275.785 170.445 275.887 170.492 275.965 170.586C276.059 170.68 276.105 170.781 276.105 170.891C276.105 170.984 276.051 171.117 275.941 171.289C274.676 172.727 273.559 173.445 272.59 173.445C272.012 173.445 271.48 173.219 270.996 172.766C270.527 172.297 270.254 171.555 270.176 170.539C270.16 170.367 270.152 170.109 270.152 169.766C270.152 169.375 270.168 168.43 270.199 166.93C270.23 165.414 270.246 164.586 270.246 164.445C270.246 164.305 270.191 164.234 270.082 164.234H269.309ZM278.566 170.094C278.566 169.281 278.566 168.523 278.566 167.82C278.566 167.117 278.566 166.57 278.566 166.18C278.582 165.773 278.59 165.531 278.59 165.453C278.59 165.281 278.527 165.164 278.402 165.102C278.293 165.023 277.816 164.812 276.973 164.469C276.77 164.391 276.668 164.289 276.668 164.164C276.668 164.117 276.676 164.07 276.691 164.023C276.723 163.977 276.762 163.938 276.809 163.906C276.871 163.875 276.926 163.852 276.973 163.836C277.02 163.805 277.082 163.773 277.16 163.742C277.238 163.711 277.293 163.688 277.324 163.672C279.074 162.828 279.957 162.406 279.973 162.406H279.996C280.215 162.406 280.324 162.539 280.324 162.805L280.301 163.578C280.27 164.094 280.238 164.789 280.207 165.664C280.191 166.523 280.184 167.383 280.184 168.242V169.039C280.184 170.523 280.207 171.398 280.254 171.664C280.301 171.93 280.457 172.078 280.723 172.109C281.191 172.172 281.488 172.227 281.613 172.273C281.738 172.32 281.801 172.438 281.801 172.625C281.801 172.969 281.707 173.141 281.52 173.141C281.504 173.141 281.457 173.133 281.379 173.117C281.301 173.117 281.191 173.109 281.051 173.094C280.91 173.078 280.754 173.062 280.582 173.047C280.41 173.031 280.207 173.016 279.973 173C279.754 173 279.535 173 279.316 173C279.098 173 278.871 173 278.637 173C278.402 173.016 278.199 173.031 278.027 173.047C277.871 173.062 277.723 173.078 277.582 173.094C277.441 173.109 277.332 173.117 277.254 173.117C277.176 173.133 277.129 173.141 277.113 173.141C276.863 173.141 276.738 173.008 276.738 172.742C276.738 172.477 276.785 172.32 276.879 172.273C276.988 172.227 277.34 172.164 277.934 172.086C278.215 172.039 278.387 171.953 278.449 171.828C278.527 171.688 278.566 171.484 278.566 171.219V170.094ZM278.801 158.164C278.801 157.852 278.918 157.586 279.152 157.367C279.387 157.148 279.66 157.039 279.973 157.039C280.285 157.039 280.551 157.148 280.77 157.367C281.004 157.586 281.121 157.844 281.121 158.141C281.121 158.469 281.004 158.742 280.77 158.961C280.551 159.18 280.277 159.289 279.949 159.289C279.621 159.289 279.348 159.188 279.129 158.984C278.91 158.766 278.801 158.492 278.801 158.164ZM285.504 163.953C285.504 164.016 285.527 164.047 285.574 164.047H285.598C285.613 164.047 285.668 164 285.762 163.906C285.871 163.812 286.02 163.695 286.207 163.555C286.395 163.414 286.613 163.273 286.863 163.133C287.113 162.992 287.418 162.875 287.777 162.781C288.137 162.672 288.512 162.617 288.902 162.617H288.949C289.277 162.617 289.598 162.664 289.91 162.758C290.238 162.836 290.582 162.992 290.941 163.227C291.316 163.445 291.629 163.797 291.879 164.281C292.129 164.766 292.285 165.359 292.348 166.062C292.379 166.328 292.395 166.734 292.395 167.281C292.395 167.344 292.395 167.5 292.395 167.75C292.395 167.984 292.387 168.414 292.371 169.039C292.371 169.664 292.371 170.461 292.371 171.43V171.477C292.371 171.555 292.379 171.633 292.395 171.711C292.41 171.773 292.418 171.828 292.418 171.875C292.434 171.906 292.465 171.945 292.512 171.992C292.559 172.023 292.59 172.047 292.605 172.062C292.637 172.078 292.691 172.102 292.77 172.133C292.863 172.148 292.926 172.156 292.957 172.156C293.004 172.156 293.09 172.164 293.215 172.18C293.355 172.195 293.457 172.211 293.52 172.227C293.754 172.258 293.871 172.406 293.871 172.672C293.871 172.984 293.746 173.141 293.496 173.141C293.449 173.141 293.34 173.125 293.168 173.094C292.996 173.078 292.754 173.055 292.441 173.023C292.145 173.008 291.824 173 291.48 173C291.277 173 291.074 173 290.871 173C290.668 173.016 290.488 173.031 290.332 173.047C290.191 173.062 290.059 173.078 289.934 173.094C289.809 173.109 289.707 173.125 289.629 173.141H289.512C289.293 173.141 289.184 172.984 289.184 172.672C289.184 172.5 289.23 172.391 289.324 172.344C289.418 172.297 289.668 172.242 290.074 172.18C290.215 172.148 290.332 172.125 290.426 172.109C290.582 172.078 290.684 172.031 290.73 171.969C290.793 171.891 290.824 171.75 290.824 171.547V167.82C290.824 166.648 290.715 165.781 290.496 165.219C290.262 164.688 289.91 164.32 289.441 164.117C288.973 163.898 288.527 163.789 288.105 163.789C287.496 163.789 286.949 163.977 286.465 164.352C285.98 164.727 285.707 165.055 285.645 165.336C285.613 165.461 285.598 165.57 285.598 165.664V171.336V171.406C285.598 171.812 285.777 172.039 286.137 172.086C286.84 172.195 287.223 172.281 287.285 172.344C287.379 172.422 287.426 172.555 287.426 172.742C287.426 173.023 287.324 173.164 287.121 173.164C287.105 173.164 287.051 173.156 286.957 173.141C286.879 173.141 286.77 173.133 286.629 173.117C286.488 173.102 286.332 173.078 286.16 173.047C285.988 173.031 285.785 173.016 285.551 173C285.332 173 285.113 173 284.895 173C284.676 173 284.457 173 284.238 173C284.02 173.016 283.824 173.031 283.652 173.047C283.496 173.062 283.355 173.078 283.23 173.094C283.105 173.109 283.004 173.117 282.926 173.117C282.848 173.133 282.801 173.141 282.785 173.141C282.52 173.141 282.387 173 282.387 172.719C282.387 172.5 282.434 172.367 282.527 172.32C282.637 172.258 282.902 172.195 283.324 172.133C283.605 172.086 283.777 172 283.84 171.875C283.918 171.75 283.957 171.562 283.957 171.312V165.594C283.957 165.312 283.918 165.125 283.84 165.031C283.762 164.922 283.441 164.656 282.879 164.234C282.785 164.141 282.738 164.062 282.738 164V163.977C282.738 163.898 282.793 163.828 282.902 163.766C283.012 163.688 283.348 163.5 283.91 163.203C284.348 162.969 284.715 162.773 285.012 162.617C285.105 162.555 285.184 162.523 285.246 162.523C285.434 162.523 285.527 162.641 285.527 162.875V163.812C285.527 163.828 285.52 163.859 285.504 163.906V163.953ZM298.559 163.414C297.949 163.414 297.449 163.664 297.059 164.164C296.668 164.648 296.473 165.281 296.473 166.062C296.473 166.984 296.707 167.781 297.176 168.453C297.645 169.125 298.238 169.461 298.957 169.461C299.598 169.461 300.113 169.211 300.504 168.711C300.895 168.195 301.09 167.562 301.09 166.812C301.09 165.922 300.848 165.133 300.363 164.445C299.895 163.758 299.293 163.414 298.559 163.414ZM296.074 175.109C296.074 175.812 296.441 176.383 297.176 176.82C297.926 177.258 298.863 177.477 299.988 177.477C301.098 177.477 301.879 177.297 302.332 176.938C302.801 176.594 303.035 176.195 303.035 175.742C303.035 175.086 302.715 174.609 302.074 174.312C301.746 174.141 301.363 174.023 300.926 173.961C300.488 173.914 299.871 173.875 299.074 173.844C298.293 173.828 297.605 173.789 297.012 173.727H296.941C296.832 173.727 296.691 173.812 296.52 173.984C296.223 174.281 296.074 174.656 296.074 175.109ZM294.621 166.344C294.621 165.328 294.988 164.453 295.723 163.719C296.473 162.984 297.395 162.617 298.488 162.617C299.16 162.617 299.809 162.758 300.434 163.039C301.074 163.32 301.434 163.461 301.512 163.461C302.012 163.461 302.434 163.211 302.777 162.711C303.012 162.336 303.238 162.148 303.457 162.148C303.676 162.148 303.879 162.258 304.066 162.477C304.27 162.68 304.371 162.898 304.371 163.133C304.371 163.414 304.246 163.656 303.996 163.859C303.762 164.062 303.48 164.234 303.152 164.375C302.84 164.5 302.676 164.57 302.66 164.586C302.582 164.664 302.543 164.727 302.543 164.773C302.543 164.805 302.566 164.883 302.613 165.008C302.66 165.133 302.707 165.312 302.754 165.547C302.801 165.766 302.824 166.008 302.824 166.273C302.824 167.383 302.434 168.336 301.652 169.133C300.887 169.914 299.949 170.305 298.84 170.305C298.527 170.305 298.23 170.273 297.949 170.211C297.668 170.133 297.496 170.094 297.434 170.094C297.215 170.094 296.98 170.234 296.73 170.516C296.48 170.781 296.355 171.047 296.355 171.312C296.355 171.734 296.691 172.016 297.363 172.156C298.051 172.297 298.918 172.383 299.965 172.414C301.027 172.445 301.785 172.531 302.238 172.672C302.957 172.875 303.496 173.219 303.855 173.703C304.23 174.203 304.418 174.742 304.418 175.32C304.418 175.68 304.34 176.039 304.184 176.398C304.027 176.758 303.77 177.109 303.41 177.453C303.066 177.797 302.551 178.078 301.863 178.297C301.176 178.516 300.363 178.625 299.426 178.625C297.691 178.625 296.473 178.305 295.77 177.664C295.082 177.039 294.738 176.352 294.738 175.602C294.738 175.445 294.754 175.289 294.785 175.133C294.816 174.992 294.855 174.859 294.902 174.734C294.949 174.625 294.996 174.516 295.043 174.406C295.105 174.312 295.168 174.219 295.23 174.125C295.309 174.047 295.379 173.977 295.441 173.914C295.52 173.852 295.59 173.797 295.652 173.75C295.715 173.703 295.77 173.656 295.816 173.609C295.863 173.578 295.902 173.555 295.934 173.539L295.98 173.516C296.012 173.484 296.027 173.445 296.027 173.398C296.027 173.383 295.949 173.328 295.793 173.234C295.652 173.141 295.504 172.984 295.348 172.766C295.207 172.547 295.137 172.281 295.137 171.969C295.137 171.203 295.582 170.461 296.473 169.742L296.496 169.719C296.512 169.703 296.52 169.68 296.52 169.648C296.52 169.586 296.449 169.516 296.309 169.438C296.168 169.359 295.973 169.211 295.723 168.992C295.488 168.758 295.27 168.461 295.066 168.102C294.77 167.57 294.621 166.984 294.621 166.344ZM309.105 163.414C308.496 163.414 307.996 163.664 307.605 164.164C307.215 164.648 307.02 165.281 307.02 166.062C307.02 166.984 307.254 167.781 307.723 168.453C308.191 169.125 308.785 169.461 309.504 169.461C310.145 169.461 310.66 169.211 311.051 168.711C311.441 168.195 311.637 167.562 311.637 166.812C311.637 165.922 311.395 165.133 310.91 164.445C310.441 163.758 309.84 163.414 309.105 163.414ZM306.621 175.109C306.621 175.812 306.988 176.383 307.723 176.82C308.473 177.258 309.41 177.477 310.535 177.477C311.645 177.477 312.426 177.297 312.879 176.938C313.348 176.594 313.582 176.195 313.582 175.742C313.582 175.086 313.262 174.609 312.621 174.312C312.293 174.141 311.91 174.023 311.473 173.961C311.035 173.914 310.418 173.875 309.621 173.844C308.84 173.828 308.152 173.789 307.559 173.727H307.488C307.379 173.727 307.238 173.812 307.066 173.984C306.77 174.281 306.621 174.656 306.621 175.109ZM305.168 166.344C305.168 165.328 305.535 164.453 306.27 163.719C307.02 162.984 307.941 162.617 309.035 162.617C309.707 162.617 310.355 162.758 310.98 163.039C311.621 163.32 311.98 163.461 312.059 163.461C312.559 163.461 312.98 163.211 313.324 162.711C313.559 162.336 313.785 162.148 314.004 162.148C314.223 162.148 314.426 162.258 314.613 162.477C314.816 162.68 314.918 162.898 314.918 163.133C314.918 163.414 314.793 163.656 314.543 163.859C314.309 164.062 314.027 164.234 313.699 164.375C313.387 164.5 313.223 164.57 313.207 164.586C313.129 164.664 313.09 164.727 313.09 164.773C313.09 164.805 313.113 164.883 313.16 165.008C313.207 165.133 313.254 165.312 313.301 165.547C313.348 165.766 313.371 166.008 313.371 166.273C313.371 167.383 312.98 168.336 312.199 169.133C311.434 169.914 310.496 170.305 309.387 170.305C309.074 170.305 308.777 170.273 308.496 170.211C308.215 170.133 308.043 170.094 307.98 170.094C307.762 170.094 307.527 170.234 307.277 170.516C307.027 170.781 306.902 171.047 306.902 171.312C306.902 171.734 307.238 172.016 307.91 172.156C308.598 172.297 309.465 172.383 310.512 172.414C311.574 172.445 312.332 172.531 312.785 172.672C313.504 172.875 314.043 173.219 314.402 173.703C314.777 174.203 314.965 174.742 314.965 175.32C314.965 175.68 314.887 176.039 314.73 176.398C314.574 176.758 314.316 177.109 313.957 177.453C313.613 177.797 313.098 178.078 312.41 178.297C311.723 178.516 310.91 178.625 309.973 178.625C308.238 178.625 307.02 178.305 306.316 177.664C305.629 177.039 305.285 176.352 305.285 175.602C305.285 175.445 305.301 175.289 305.332 175.133C305.363 174.992 305.402 174.859 305.449 174.734C305.496 174.625 305.543 174.516 305.59 174.406C305.652 174.312 305.715 174.219 305.777 174.125C305.855 174.047 305.926 173.977 305.988 173.914C306.066 173.852 306.137 173.797 306.199 173.75C306.262 173.703 306.316 173.656 306.363 173.609C306.41 173.578 306.449 173.555 306.48 173.539L306.527 173.516C306.559 173.484 306.574 173.445 306.574 173.398C306.574 173.383 306.496 173.328 306.34 173.234C306.199 173.141 306.051 172.984 305.895 172.766C305.754 172.547 305.684 172.281 305.684 171.969C305.684 171.203 306.129 170.461 307.02 169.742L307.043 169.719C307.059 169.703 307.066 169.68 307.066 169.648C307.066 169.586 306.996 169.516 306.855 169.438C306.715 169.359 306.52 169.211 306.27 168.992C306.035 168.758 305.816 168.461 305.613 168.102C305.316 167.57 305.168 166.984 305.168 166.344ZM317.426 170.094C317.426 169.281 317.426 168.523 317.426 167.82C317.426 167.117 317.426 166.57 317.426 166.18C317.441 165.773 317.449 165.531 317.449 165.453C317.449 165.281 317.387 165.164 317.262 165.102C317.152 165.023 316.676 164.812 315.832 164.469C315.629 164.391 315.527 164.289 315.527 164.164C315.527 164.117 315.535 164.07 315.551 164.023C315.582 163.977 315.621 163.938 315.668 163.906C315.73 163.875 315.785 163.852 315.832 163.836C315.879 163.805 315.941 163.773 316.02 163.742C316.098 163.711 316.152 163.688 316.184 163.672C317.934 162.828 318.816 162.406 318.832 162.406H318.855C319.074 162.406 319.184 162.539 319.184 162.805L319.16 163.578C319.129 164.094 319.098 164.789 319.066 165.664C319.051 166.523 319.043 167.383 319.043 168.242V169.039C319.043 170.523 319.066 171.398 319.113 171.664C319.16 171.93 319.316 172.078 319.582 172.109C320.051 172.172 320.348 172.227 320.473 172.273C320.598 172.32 320.66 172.438 320.66 172.625C320.66 172.969 320.566 173.141 320.379 173.141C320.363 173.141 320.316 173.133 320.238 173.117C320.16 173.117 320.051 173.109 319.91 173.094C319.77 173.078 319.613 173.062 319.441 173.047C319.27 173.031 319.066 173.016 318.832 173C318.613 173 318.395 173 318.176 173C317.957 173 317.73 173 317.496 173C317.262 173.016 317.059 173.031 316.887 173.047C316.73 173.062 316.582 173.078 316.441 173.094C316.301 173.109 316.191 173.117 316.113 173.117C316.035 173.133 315.988 173.141 315.973 173.141C315.723 173.141 315.598 173.008 315.598 172.742C315.598 172.477 315.645 172.32 315.738 172.273C315.848 172.227 316.199 172.164 316.793 172.086C317.074 172.039 317.246 171.953 317.309 171.828C317.387 171.688 317.426 171.484 317.426 171.219V170.094ZM317.66 158.164C317.66 157.852 317.777 157.586 318.012 157.367C318.246 157.148 318.52 157.039 318.832 157.039C319.145 157.039 319.41 157.148 319.629 157.367C319.863 157.586 319.98 157.844 319.98 158.141C319.98 158.469 319.863 158.742 319.629 158.961C319.41 159.18 319.137 159.289 318.809 159.289C318.48 159.289 318.207 159.188 317.988 158.984C317.77 158.766 317.66 158.492 317.66 158.164Z" fill="#800000"/>
<g filter="url(#filter1_d_567_5396)">
<rect x="216.941" y="58.4706" width="0.588235" height="5.29412" rx="0.294118" fill="url(#paint0_linear_567_5396)" stroke="#3F2106" stroke-width="0.588235"/>
<rect x="210.47" y="58.4706" width="0.588235" height="5.29412" rx="0.294118" fill="url(#paint1_linear_567_5396)" stroke="#3F2106" stroke-width="0.588235"/>
<rect x="204.587" y="58.4706" width="0.588235" height="5.29412" rx="0.294118" fill="url(#paint2_linear_567_5396)" stroke="#3F2106" stroke-width="0.588235"/>
<rect x="222.528" y="58.4706" width="0.588235" height="5.29412" rx="0.294118" fill="url(#paint3_linear_567_5396)" stroke="#3F2106" stroke-width="0.588235"/>
<path d="M223.414 58.7647L225.325 43.7647H223.708H222.531H221.355H220.178H218.708L217.384 58.7647H223.414Z" fill="url(#paint4_linear_567_5396)"/>
<path d="M204.296 58.7647L202.531 43.4706H204.149H205.325H206.502H207.678H209.149L210.619 58.7647H204.296Z" fill="url(#paint5_linear_567_5396)"/>
<path d="M220.178 43.7647H218.708L217.384 58.7647H223.414L225.325 43.7647H223.708M220.178 43.7647L219.59 48.7647M220.178 43.7647H221.355M221.355 43.7647L220.619 51.1176M221.355 43.7647H222.531M222.531 43.7647L221.502 53.7647M222.531 43.7647H223.708M223.708 43.7647L222.531 57.5882M207.678 43.4706H209.149L210.619 58.7647H204.296L202.531 43.4706H204.149M207.678 43.4706L208.267 48.4706M207.678 43.4706H206.502M206.502 43.4706L207.237 50.8235M206.502 43.4706H205.325M205.325 43.4706L206.355 53.4706M205.325 43.4706H204.149M204.149 43.4706L205.325 57.2941" stroke="#3F2106" stroke-width="0.7" stroke-linecap="round"/>
<path d="M214 31.9999V26.3203C220.917 26.3203 224.137 20.1067 224.882 16.9999L221.602 31.9999H214Z" fill="url(#paint6_linear_567_5396)"/>
<path d="M214 31.9999V26.3203C207.083 26.3203 203.863 20.1067 203.117 16.9999L206.397 31.9999H214Z" fill="url(#paint7_linear_567_5396)"/>
<path d="M214 26.3203V31.9999M214 26.3203C220.917 26.3203 224.137 20.1067 224.882 16.9999L221.602 31.9999H214M214 26.3203C207.083 26.3203 203.863 20.1067 203.117 16.9999L206.397 31.9999H214" stroke="#3F2106" stroke-width="0.7"/>
<path d="M214 43.7647V38.7647C229 38.7647 228.412 29.7941 229 29.3529L225.912 43.7647H214Z" fill="url(#paint8_linear_567_5396)"/>
<path d="M214 43.7647V38.7647C199 38.7647 199.588 29.7941 199 29.3529L202.088 43.7647H214Z" fill="url(#paint9_linear_567_5396)"/>
<path d="M214 38.7647V43.7647M214 38.7647C229 38.7647 228.412 29.7941 229 29.3529L225.912 43.7647H214M214 38.7647C199 38.7647 199.588 29.7941 199 29.3529L202.088 43.7647H214" stroke="#3F2106" stroke-width="0.7"/>
<path d="M219.591 32L218.713 41.8529L217.155 59.3529H215.578H214.002V52V41.8529V32H216.098H217.495H219.591Z" fill="url(#paint10_linear_567_5396)"/>
<path d="M208.414 32L209.292 41.8529L210.85 59.3529H212.426H214.002V52V41.8529V32H211.907H210.51H208.414Z" fill="url(#paint11_linear_567_5396)"/>
<path d="M218.713 41.8529L219.591 32H217.495M218.713 41.8529L217.155 59.3529M218.713 41.8529L214.002 52M218.713 41.8529H216.358M217.155 59.3529L214.002 52M217.155 59.3529H215.578M214.002 59.3529V52M214.002 59.3529H215.578M214.002 59.3529H212.426M214.002 52V41.8529M214.002 52L209.292 41.8529M214.002 52L210.85 59.3529M214.002 41.8529H215.18M214.002 41.8529H212.825M214.002 41.8529V32M216.358 41.8529V44.2059M216.358 41.8529H215.18M215.18 41.8529V46.1176M217.495 32V34.6471M217.495 32H216.098M214.002 32H216.098M214.002 32H211.907M216.098 32V33.7647M215.578 59.3529V57.8824M209.292 41.8529L208.414 32H210.51M209.292 41.8529L210.85 59.3529M209.292 41.8529H211.647M210.85 59.3529H212.426M211.647 41.8529V44.2059M211.647 41.8529H212.825M212.825 41.8529V46.1176M210.51 32V34.6471M210.51 32H211.907M211.907 32V33.7647M212.426 59.3529V57.8824" stroke="#3F2106" stroke-width="0.7" stroke-linecap="round"/>
<path d="M222.236 42.8823C215.498 39.2058 214.3 26.1176 214.001 25.8235V35.9705C215.438 39.6176 218.094 42.098 219.242 42.8823H222.236Z" fill="url(#paint12_linear_567_5396)"/>
<path d="M205.766 42.8823C212.504 39.2058 213.701 26.1176 214.001 25.8235V35.9705C212.563 39.6176 209.908 42.098 208.76 42.8823H205.766Z" fill="url(#paint13_linear_567_5396)"/>
<path d="M214.001 25.8235C214.3 26.1176 215.498 39.2058 222.236 42.8823H219.242C218.094 42.098 215.438 39.6176 214.001 35.9705M214.001 25.8235V35.9705M214.001 25.8235C213.701 26.1176 212.504 39.2058 205.766 42.8823H208.76C209.908 42.098 212.563 39.6176 214.001 35.9705" stroke="#3F2106" stroke-width="0.7"/>
</g>
<defs>
<filter id="filter0_d_567_5396" x="67.3789" y="78.0938" width="297.242" height="42.2812" filterUnits="userSpaceOnUse" color-interpolation-filters="sRGB">
<feFlood flood-opacity="0" result="BackgroundImageFix"/>
<feColorMatrix in="SourceAlpha" type="matrix" values="0 0 0 0 0 0 0 0 0 0 0 0 0 0 0 0 0 0 127 0" result="hardAlpha"/>
<feOffset dx="1" dy="1"/>
<feGaussianBlur stdDeviation="1"/>
<feComposite in2="hardAlpha" operator="out"/>
<feColorMatrix type="matrix" values="0 0 0 0 0.501961 0 0 0 0 0 0 0 0 0 0.00150588 0 0 0 1 0"/>
<feBlend mode="normal" in2="BackgroundImageFix" result="effect1_dropShadow_567_5396"/>
<feBlend mode="normal" in="SourceGraphic" in2="effect1_dropShadow_567_5396" result="shape"/>
</filter>
<filter id="filter1_d_567_5396" x="178.461" y="0.918274" width="71.0781" height="87.1406" filterUnits="userSpaceOnUse" color-interpolation-filters="sRGB">
<feFlood flood-opacity="0" result="BackgroundImageFix"/>
<feColorMatrix in="SourceAlpha" type="matrix" values="0 0 0 0 0 0 0 0 0 0 0 0 0 0 0 0 0 0 127 0" result="hardAlpha"/>
<feOffset dy="4"/>
<feGaussianBlur stdDeviation="10"/>
<feComposite in2="hardAlpha" operator="out"/>
<feColorMatrix type="matrix" values="0 0 0 0 0 0 0 0 0 0 0 0 0 0 0 0 0 0 0.4 0"/>
<feBlend mode="normal" in2="BackgroundImageFix" result="effect1_dropShadow_567_5396"/>
<feBlend mode="normal" in="SourceGraphic" in2="effect1_dropShadow_567_5396" result="shape"/>
</filter>
<linearGradient id="paint0_linear_567_5396" x1="217.235" y1="58.1765" x2="217.235" y2="64.0588" gradientUnits="userSpaceOnUse">
<stop stop-color="#F4DDC0"/>
<stop offset="1" stop-color="#957C13"/>
</linearGradient>
<linearGradient id="paint1_linear_567_5396" x1="210.764" y1="58.1765" x2="210.764" y2="64.0588" gradientUnits="userSpaceOnUse">
<stop stop-color="#F4DDC0"/>
<stop offset="1" stop-color="#957C13"/>
</linearGradient>
<linearGradient id="paint2_linear_567_5396" x1="204.881" y1="58.1765" x2="204.881" y2="64.0588" gradientUnits="userSpaceOnUse">
<stop stop-color="#F4DDC0"/>
<stop offset="1" stop-color="#957C13"/>
</linearGradient>
<linearGradient id="paint3_linear_567_5396" x1="222.823" y1="58.1765" x2="222.823" y2="64.0588" gradientUnits="userSpaceOnUse">
<stop stop-color="#F4DDC0"/>
<stop offset="1" stop-color="#957C13"/>
</linearGradient>
<linearGradient id="paint4_linear_567_5396" x1="214.002" y1="32.3461" x2="213.928" y2="58.7647" gradientUnits="userSpaceOnUse">
<stop stop-color="#F4DDC0"/>
<stop offset="1" stop-color="#957C13"/>
</linearGradient>
<linearGradient id="paint5_linear_567_5396" x1="214.002" y1="32.3461" x2="213.928" y2="58.7647" gradientUnits="userSpaceOnUse">
<stop stop-color="#F4DDC0"/>
<stop offset="1" stop-color="#957C13"/>
</linearGradient>
<linearGradient id="paint6_linear_567_5396" x1="214" y1="16.9999" x2="214" y2="31.9999" gradientUnits="userSpaceOnUse">
<stop stop-color="#F4DDC0"/>
<stop offset="1" stop-color="#957C13"/>
</linearGradient>
<linearGradient id="paint7_linear_567_5396" x1="214" y1="16.9999" x2="214" y2="31.9999" gradientUnits="userSpaceOnUse">
<stop stop-color="#F4DDC0"/>
<stop offset="1" stop-color="#957C13"/>
</linearGradient>
<linearGradient id="paint8_linear_567_5396" x1="214" y1="29.3529" x2="214" y2="43.7647" gradientUnits="userSpaceOnUse">
<stop stop-color="#F4DDC0"/>
<stop offset="1" stop-color="#957C13"/>
</linearGradient>
<linearGradient id="paint9_linear_567_5396" x1="214" y1="29.3529" x2="214" y2="43.7647" gradientUnits="userSpaceOnUse">
<stop stop-color="#F4DDC0"/>
<stop offset="1" stop-color="#957C13"/>
</linearGradient>
<linearGradient id="paint10_linear_567_5396" x1="214.002" y1="20.6923" x2="214.002" y2="51.7308" gradientUnits="userSpaceOnUse">
<stop stop-color="#F4DDC0"/>
<stop offset="1" stop-color="#957C13"/>
</linearGradient>
<linearGradient id="paint11_linear_567_5396" x1="214.002" y1="20.6923" x2="214.002" y2="51.7308" gradientUnits="userSpaceOnUse">
<stop stop-color="#F4DDC0"/>
<stop offset="1" stop-color="#957C13"/>
</linearGradient>
<linearGradient id="paint12_linear_567_5396" x1="214.001" y1="25.8235" x2="214.001" y2="42.8823" gradientUnits="userSpaceOnUse">
<stop stop-color="#F1C81F"/>
<stop offset="1" stop-color="#8B7312"/>
</linearGradient>
<linearGradient id="paint13_linear_567_5396" x1="214.001" y1="25.8235" x2="214.001" y2="42.8823" gradientUnits="userSpaceOnUse">
<stop stop-color="#F1C81F"/>
<stop offset="1" stop-color="#8B7312"/>
</linearGradient>
</defs>
</svg>
