<svg width="428" height="77" viewBox="0 0 428 77" fill="none" xmlns="http://www.w3.org/2000/svg">
<g filter="url(#filter0_d_626_36)">
<path d="M186.739 15.7266C186.575 15.7266 186.434 15.7852 186.317 15.9023C186.2 16.0117 186.141 16.1484 186.141 16.3125V30.9492C186.141 31.5195 186.329 31.9922 186.704 32.3672C186.735 32.3984 186.801 32.4375 186.903 32.4844C187.004 32.5312 187.055 32.6289 187.055 32.7773C187.055 32.9258 187.004 33 186.903 33H183.106C183.004 33 182.954 32.9336 182.954 32.8008C182.954 32.6602 182.969 32.5781 183 32.5547C183.039 32.5234 183.09 32.4961 183.153 32.4727C183.215 32.4414 183.293 32.3789 183.387 32.2852C183.489 32.1836 183.594 32.0039 183.704 31.7461C183.813 31.4805 183.868 31.2148 183.868 30.9492V15.8555C183.868 15.2852 183.68 14.8125 183.305 14.4375C183.274 14.4062 183.207 14.3672 183.106 14.3203C183.004 14.2734 182.954 14.1797 182.954 14.0391C182.954 13.8984 183.004 13.8281 183.106 13.8281H189.118C190.836 13.8438 192.274 14.2148 193.43 14.9414C194.594 15.6602 195.176 16.832 195.176 18.457C195.176 20.3711 194.176 21.7734 192.176 22.6641C191.442 22.9922 190.883 23.1758 190.5 23.2148C190.118 23.2461 189.926 23.2734 189.926 23.2969L190.301 23.5078C190.457 23.6016 190.778 23.8398 191.262 24.2227C191.746 24.6055 192.227 25.0391 192.704 25.5234C193.18 26 193.746 26.6641 194.403 27.5156C195.059 28.3672 195.543 29.0625 195.856 29.6016L196.817 31.3125C197.168 31.9531 197.461 32.3047 197.696 32.3672C197.93 32.4297 198.047 32.5508 198.047 32.7305C198.047 32.9102 197.996 33 197.895 33H194.098C193.996 33 193.946 32.9336 193.946 32.8008C193.946 32.6602 193.961 32.5781 193.993 32.5547C194.032 32.5234 194.082 32.4961 194.145 32.4727C194.207 32.4414 194.258 32.4023 194.297 32.3555C194.344 32.3086 194.364 32.2188 194.356 32.0859C194.356 31.9453 194.34 31.8359 194.309 31.7578C193.739 30.2891 192.961 28.8906 191.977 27.5625C190.149 25.0938 188.575 23.7656 187.254 23.5781C187.067 23.5469 186.973 23.5273 186.973 23.5195C186.957 23.3789 186.95 23.1875 186.95 22.9453V22.2305C186.95 22.1523 186.989 22.1133 187.067 22.1133C188.989 22.1133 190.489 21.7266 191.567 20.9531C192.395 20.3672 192.809 19.5781 192.809 18.5859C192.809 17.5938 192.411 16.8711 191.614 16.418C190.817 15.957 189.914 15.7266 188.907 15.7266H186.739ZM202.407 32.8594C202.172 32.8047 201.914 32.7344 201.633 32.6484C201.352 32.5547 201.172 32.5078 201.094 32.5078H200.954C200.68 32.5078 200.469 32.6641 200.321 32.9766C200.313 32.9922 200.305 33 200.297 33H199.957C199.911 33 199.883 32.9805 199.875 32.9414L198.868 29.4844C198.829 29.3203 198.946 29.2383 199.219 29.2383C199.329 29.2383 199.403 29.2617 199.442 29.3086C199.481 29.3477 199.508 29.375 199.524 29.3906C199.539 29.4062 199.575 29.4609 199.629 29.5547C200.661 30.8281 202.172 31.4648 204.164 31.4648C205.211 31.4648 206.079 31.1914 206.766 30.6445C207.461 30.0898 207.809 29.2773 207.809 28.207C207.809 27.4883 207.692 26.9531 207.457 26.6016C207.231 26.2422 207.043 25.9727 206.895 25.793C206.582 25.4102 205.832 24.8828 204.645 24.2109C203.465 23.5391 202.508 22.9375 201.774 22.4062C199.899 21.0547 198.961 19.6641 198.961 18.2344C198.961 16.8047 199.407 15.6992 200.297 14.918C201.196 14.1367 202.383 13.7461 203.86 13.7461C204.688 13.7461 205.563 13.9688 206.485 14.4141C206.922 14.625 207.243 14.7656 207.446 14.8359C207.649 14.9062 207.789 14.8672 207.868 14.7188C207.946 14.5625 207.993 14.4844 208.008 14.4844C208.36 14.4453 208.536 14.5 208.536 14.6484L208.887 18.4102C208.887 18.4805 208.707 18.5156 208.348 18.5156C208.293 18.5156 208.246 18.4453 208.207 18.3047C207.965 17.5078 207.399 16.8477 206.508 16.3242C205.618 15.793 204.727 15.5273 203.836 15.5273C201.946 15.5273 201 16.3086 201 17.8711C201 19.0039 202.024 20.1328 204.071 21.2578L206.297 22.4531C207.664 23.2109 208.621 24.0312 209.168 24.9141C209.723 25.7891 210 26.7266 210 27.7266V27.8438C209.805 29.1875 209.571 30.1016 209.297 30.5859C208.844 31.3828 208.2 32.0234 207.364 32.5078C206.528 32.9844 205.579 33.2227 204.516 33.2227C203.93 33.1992 203.45 33.1406 203.075 33.0469L202.407 32.8594ZM220.184 29.1328L225.973 15.8906C226.161 15.3516 226.039 14.8672 225.61 14.4375C225.579 14.4062 225.512 14.3672 225.411 14.3203C225.309 14.2734 225.258 14.1758 225.258 14.0273C225.258 13.8789 225.309 13.8047 225.411 13.8047H229.102C229.204 13.8047 229.254 13.875 229.254 14.0156C229.254 14.1484 229.235 14.2305 229.196 14.2617C229.164 14.2852 229.118 14.3125 229.055 14.3438C228.797 14.4609 228.512 14.8789 228.2 15.5977L220.489 32.8594C220.45 32.9531 220.258 33 219.914 33C219.571 33 219.375 32.9531 219.329 32.8594L217.559 29.2266L214.489 22.5938L211.383 15.5977C211.079 14.8867 210.778 14.4609 210.481 14.3203C210.379 14.2734 210.329 14.1758 210.329 14.0273C210.329 13.8789 210.379 13.8047 210.481 13.8047H214.723C214.825 13.8047 214.875 13.875 214.875 14.0156C214.875 14.1484 214.856 14.2305 214.817 14.2617C214.786 14.2852 214.739 14.3125 214.676 14.3438C214.614 14.3672 214.563 14.3984 214.524 14.4375C214.094 14.8672 213.973 15.3516 214.161 15.8906L220.102 29.1328H220.184ZM234.094 16.3125V30.9492C234.094 31.5195 234.282 31.9922 234.657 32.3672C234.688 32.3984 234.754 32.4375 234.856 32.4844C234.957 32.5312 235.008 32.6289 235.008 32.7773C235.008 32.9258 234.957 33 234.856 33H231.059C230.957 33 230.907 32.9336 230.907 32.8008C230.907 32.6602 230.922 32.5781 230.954 32.5547C230.993 32.5234 231.043 32.4961 231.106 32.4727C231.168 32.4414 231.246 32.3789 231.34 32.2852C231.442 32.1836 231.547 32.0039 231.657 31.7461C231.766 31.4805 231.821 31.2148 231.821 30.9492V15.8555C231.821 15.2852 231.633 14.8125 231.258 14.4375C231.227 14.4062 231.161 14.3672 231.059 14.3203C230.957 14.2734 230.907 14.1758 230.907 14.0273C230.907 13.8789 230.957 13.8047 231.059 13.8047H237.457C238.512 13.8047 239.493 14.0117 240.399 14.4258C241.313 14.832 242.055 15.4375 242.625 16.2422C243.196 17.0391 243.481 17.9922 243.481 19.1016C243.481 20.2109 243.223 21.1406 242.707 21.8906C241.692 23.3438 239.594 24.0664 236.414 24.0586H234.844C234.743 24.0586 234.692 23.9492 234.692 23.7305V22.7461C234.692 22.5273 234.743 22.418 234.844 22.418H236.414C239.641 22.418 241.254 21.2734 241.254 18.9844C241.254 18.1484 241.012 17.4961 240.528 17.0273C239.731 16.2539 238.723 15.8125 237.504 15.7031H234.809C234.637 15.7031 234.473 15.7734 234.317 15.9141C234.168 16.0469 234.094 16.1797 234.094 16.3125Z" fill="#502B01"/>
</g>
<path d="M115.372 59V45H120.612C121.798 45 122.818 45.1933 123.672 45.58C124.525 45.9533 125.178 46.5 125.632 47.22C126.098 47.9267 126.332 48.7867 126.332 49.8C126.332 50.7867 126.098 51.64 125.632 52.36C125.178 53.0667 124.525 53.6133 123.672 54C122.818 54.3733 121.798 54.56 120.612 54.56H116.192L116.852 53.88V59H115.372ZM124.932 59L121.332 53.92H122.932L126.552 59H124.932ZM116.852 54L116.192 53.3H120.572C121.972 53.3 123.032 52.9933 123.752 52.38C124.485 51.7667 124.852 50.9067 124.852 49.8C124.852 48.68 124.485 47.8133 123.752 47.2C123.032 46.5867 121.972 46.28 120.572 46.28H116.192L116.852 45.58V54ZM133.985 59.1C132.892 59.1 131.932 58.8733 131.105 58.42C130.278 57.9533 129.632 57.32 129.165 56.52C128.698 55.7067 128.465 54.78 128.465 53.74C128.465 52.7 128.685 51.78 129.125 50.98C129.578 50.18 130.192 49.5533 130.965 49.1C131.752 48.6333 132.632 48.4 133.605 48.4C134.592 48.4 135.465 48.6267 136.225 49.08C136.998 49.52 137.605 50.1467 138.045 50.96C138.485 51.76 138.705 52.6867 138.705 53.74C138.705 53.8067 138.698 53.88 138.685 53.96C138.685 54.0267 138.685 54.1 138.685 54.18H129.545V53.12H137.925L137.365 53.54C137.365 52.78 137.198 52.1067 136.865 51.52C136.545 50.92 136.105 50.4533 135.545 50.12C134.985 49.7867 134.338 49.62 133.605 49.62C132.885 49.62 132.238 49.7867 131.665 50.12C131.092 50.4533 130.645 50.92 130.325 51.52C130.005 52.12 129.845 52.8067 129.845 53.58V53.8C129.845 54.6 130.018 55.3067 130.365 55.92C130.725 56.52 131.218 56.9933 131.845 57.34C132.485 57.6733 133.212 57.84 134.025 57.84C134.665 57.84 135.258 57.7267 135.805 57.5C136.365 57.2733 136.845 56.9267 137.245 56.46L138.045 57.38C137.578 57.94 136.992 58.3667 136.285 58.66C135.592 58.9533 134.825 59.1 133.985 59.1ZM144.415 59.1C143.549 59.1 142.729 58.98 141.955 58.74C141.182 58.4867 140.575 58.1733 140.135 57.8L140.775 56.68C141.202 57 141.749 57.28 142.415 57.52C143.082 57.7467 143.782 57.86 144.515 57.86C145.515 57.86 146.235 57.7067 146.675 57.4C147.115 57.08 147.335 56.66 147.335 56.14C147.335 55.7533 147.209 55.4533 146.955 55.24C146.715 55.0133 146.395 54.8467 145.995 54.74C145.595 54.62 145.149 54.52 144.655 54.44C144.162 54.36 143.669 54.2667 143.175 54.16C142.695 54.0533 142.255 53.9 141.855 53.7C141.455 53.4867 141.129 53.2 140.875 52.84C140.635 52.48 140.515 52 140.515 51.4C140.515 50.8267 140.675 50.3133 140.995 49.86C141.315 49.4067 141.782 49.0533 142.395 48.8C143.022 48.5333 143.782 48.4 144.675 48.4C145.355 48.4 146.035 48.4933 146.715 48.68C147.395 48.8533 147.955 49.0867 148.395 49.38L147.775 50.52C147.309 50.2 146.809 49.9733 146.275 49.84C145.742 49.6933 145.209 49.62 144.675 49.62C143.729 49.62 143.029 49.7867 142.575 50.12C142.135 50.44 141.915 50.8533 141.915 51.36C141.915 51.76 142.035 52.0733 142.275 52.3C142.529 52.5267 142.855 52.7067 143.255 52.84C143.669 52.96 144.115 53.06 144.595 53.14C145.089 53.22 145.575 53.32 146.055 53.44C146.549 53.5467 146.995 53.7 147.395 53.9C147.809 54.0867 148.135 54.36 148.375 54.72C148.629 55.0667 148.755 55.5267 148.755 56.1C148.755 56.7133 148.582 57.2467 148.235 57.7C147.902 58.14 147.409 58.4867 146.755 58.74C146.115 58.98 145.335 59.1 144.415 59.1ZM155.821 59.1C154.728 59.1 153.768 58.8733 152.941 58.42C152.114 57.9533 151.468 57.32 151.001 56.52C150.534 55.7067 150.301 54.78 150.301 53.74C150.301 52.7 150.521 51.78 150.961 50.98C151.414 50.18 152.028 49.5533 152.801 49.1C153.588 48.6333 154.468 48.4 155.441 48.4C156.428 48.4 157.301 48.6267 158.061 49.08C158.834 49.52 159.441 50.1467 159.881 50.96C160.321 51.76 160.541 52.6867 160.541 53.74C160.541 53.8067 160.534 53.88 160.521 53.96C160.521 54.0267 160.521 54.1 160.521 54.18H151.381V53.12H159.761L159.201 53.54C159.201 52.78 159.034 52.1067 158.701 51.52C158.381 50.92 157.941 50.4533 157.381 50.12C156.821 49.7867 156.174 49.62 155.441 49.62C154.721 49.62 154.074 49.7867 153.501 50.12C152.928 50.4533 152.481 50.92 152.161 51.52C151.841 52.12 151.681 52.8067 151.681 53.58V53.8C151.681 54.6 151.854 55.3067 152.201 55.92C152.561 56.52 153.054 56.9933 153.681 57.34C154.321 57.6733 155.048 57.84 155.861 57.84C156.501 57.84 157.094 57.7267 157.641 57.5C158.201 57.2733 158.681 56.9267 159.081 56.46L159.881 57.38C159.414 57.94 158.828 58.3667 158.121 58.66C157.428 58.9533 156.661 59.1 155.821 59.1ZM163.431 59V48.5H164.791V51.36L164.651 50.86C164.945 50.06 165.438 49.4533 166.131 49.04C166.825 48.6133 167.685 48.4 168.711 48.4V49.78C168.658 49.78 168.605 49.78 168.551 49.78C168.498 49.7667 168.445 49.76 168.391 49.76C167.285 49.76 166.418 50.1 165.791 50.78C165.165 51.4467 164.851 52.4 164.851 53.64V59H163.431ZM174.451 59L169.791 48.5H171.271L175.551 58.24H174.851L179.191 48.5H180.591L175.911 59H174.451ZM188.859 59V56.68L188.799 56.3V52.42C188.799 51.5267 188.545 50.84 188.039 50.36C187.545 49.88 186.805 49.64 185.819 49.64C185.139 49.64 184.492 49.7533 183.879 49.98C183.265 50.2067 182.745 50.5067 182.319 50.88L181.679 49.82C182.212 49.3667 182.852 49.02 183.599 48.78C184.345 48.5267 185.132 48.4 185.959 48.4C187.319 48.4 188.365 48.74 189.099 49.42C189.845 50.0867 190.219 51.1067 190.219 52.48V59H188.859ZM185.239 59.1C184.452 59.1 183.765 58.9733 183.179 58.72C182.605 58.4533 182.165 58.0933 181.859 57.64C181.552 57.1733 181.399 56.64 181.399 56.04C181.399 55.4933 181.525 55 181.779 54.56C182.045 54.1067 182.472 53.7467 183.059 53.48C183.659 53.2 184.459 53.06 185.459 53.06H189.079V54.12H185.499C184.485 54.12 183.779 54.3 183.379 54.66C182.992 55.02 182.799 55.4667 182.799 56C182.799 56.6 183.032 57.08 183.499 57.44C183.965 57.8 184.619 57.98 185.459 57.98C186.259 57.98 186.945 57.8 187.519 57.44C188.105 57.0667 188.532 56.5333 188.799 55.84L189.119 56.82C188.852 57.5133 188.385 58.0667 187.719 58.48C187.065 58.8933 186.239 59.1 185.239 59.1ZM196.896 59.1C196.029 59.1 195.209 58.98 194.436 58.74C193.662 58.4867 193.056 58.1733 192.616 57.8L193.256 56.68C193.682 57 194.229 57.28 194.896 57.52C195.562 57.7467 196.262 57.86 196.996 57.86C197.996 57.86 198.716 57.7067 199.156 57.4C199.596 57.08 199.816 56.66 199.816 56.14C199.816 55.7533 199.689 55.4533 199.436 55.24C199.196 55.0133 198.876 54.8467 198.476 54.74C198.076 54.62 197.629 54.52 197.136 54.44C196.642 54.36 196.149 54.2667 195.656 54.16C195.176 54.0533 194.736 53.9 194.336 53.7C193.936 53.4867 193.609 53.2 193.356 52.84C193.116 52.48 192.996 52 192.996 51.4C192.996 50.8267 193.156 50.3133 193.476 49.86C193.796 49.4067 194.262 49.0533 194.876 48.8C195.502 48.5333 196.262 48.4 197.156 48.4C197.836 48.4 198.516 48.4933 199.196 48.68C199.876 48.8533 200.436 49.0867 200.876 49.38L200.256 50.52C199.789 50.2 199.289 49.9733 198.756 49.84C198.222 49.6933 197.689 49.62 197.156 49.62C196.209 49.62 195.509 49.7867 195.056 50.12C194.616 50.44 194.396 50.8533 194.396 51.36C194.396 51.76 194.516 52.0733 194.756 52.3C195.009 52.5267 195.336 52.7067 195.736 52.84C196.149 52.96 196.596 53.06 197.076 53.14C197.569 53.22 198.056 53.32 198.536 53.44C199.029 53.5467 199.476 53.7 199.876 53.9C200.289 54.0867 200.616 54.36 200.856 54.72C201.109 55.0667 201.236 55.5267 201.236 56.1C201.236 56.7133 201.062 57.2467 200.716 57.7C200.382 58.14 199.889 58.4867 199.236 58.74C198.596 58.98 197.816 59.1 196.896 59.1ZM203.841 59V48.5H205.261V59H203.841ZM204.561 46.18C204.268 46.18 204.021 46.08 203.821 45.88C203.621 45.68 203.521 45.44 203.521 45.16C203.521 44.88 203.621 44.6467 203.821 44.46C204.021 44.26 204.268 44.16 204.561 44.16C204.855 44.16 205.101 44.2533 205.301 44.44C205.501 44.6267 205.601 44.86 205.601 45.14C205.601 45.4333 205.501 45.68 205.301 45.88C205.115 46.08 204.868 46.18 204.561 46.18ZM216.027 55.52L215.967 53.72L224.447 45H226.147L219.967 51.48L219.127 52.38L216.027 55.52ZM214.747 59V45H216.227V59H214.747ZM224.807 59L218.767 52.04L219.767 50.96L226.567 59H224.807ZM232.637 59.1C231.544 59.1 230.584 58.8733 229.757 58.42C228.931 57.9533 228.284 57.32 227.817 56.52C227.351 55.7067 227.117 54.78 227.117 53.74C227.117 52.7 227.337 51.78 227.777 50.98C228.231 50.18 228.844 49.5533 229.617 49.1C230.404 48.6333 231.284 48.4 232.257 48.4C233.244 48.4 234.117 48.6267 234.877 49.08C235.651 49.52 236.257 50.1467 236.697 50.96C237.137 51.76 237.357 52.6867 237.357 53.74C237.357 53.8067 237.351 53.88 237.337 53.96C237.337 54.0267 237.337 54.1 237.337 54.18H228.197V53.12H236.577L236.017 53.54C236.017 52.78 235.851 52.1067 235.517 51.52C235.197 50.92 234.757 50.4533 234.197 50.12C233.637 49.7867 232.991 49.62 232.257 49.62C231.537 49.62 230.891 49.7867 230.317 50.12C229.744 50.4533 229.297 50.92 228.977 51.52C228.657 52.12 228.497 52.8067 228.497 53.58V53.8C228.497 54.6 228.671 55.3067 229.017 55.92C229.377 56.52 229.871 56.9933 230.497 57.34C231.137 57.6733 231.864 57.84 232.677 57.84C233.317 57.84 233.911 57.7267 234.457 57.5C235.017 57.2733 235.497 56.9267 235.897 56.46L236.697 57.38C236.231 57.94 235.644 58.3667 234.937 58.66C234.244 58.9533 233.477 59.1 232.637 59.1ZM245.608 48.4C246.461 48.4 247.208 48.5667 247.848 48.9C248.501 49.22 249.008 49.7133 249.368 50.38C249.741 51.0467 249.928 51.8867 249.928 52.9V59H248.508V53.04C248.508 51.9333 248.228 51.1 247.668 50.54C247.121 49.9667 246.348 49.68 245.348 49.68C244.601 49.68 243.948 49.8333 243.388 50.14C242.841 50.4333 242.414 50.8667 242.108 51.44C241.814 52 241.668 52.68 241.668 53.48V59H240.248V44.16H241.668V51.38L241.388 50.84C241.721 50.08 242.254 49.4867 242.988 49.06C243.721 48.62 244.594 48.4 245.608 48.4ZM260.343 59V56.68L260.283 56.3V52.42C260.283 51.5267 260.03 50.84 259.523 50.36C259.03 49.88 258.29 49.64 257.303 49.64C256.623 49.64 255.977 49.7533 255.363 49.98C254.75 50.2067 254.23 50.5067 253.803 50.88L253.163 49.82C253.697 49.3667 254.337 49.02 255.083 48.78C255.83 48.5267 256.617 48.4 257.443 48.4C258.803 48.4 259.85 48.74 260.583 49.42C261.33 50.0867 261.703 51.1067 261.703 52.48V59H260.343ZM256.723 59.1C255.937 59.1 255.25 58.9733 254.663 58.72C254.09 58.4533 253.65 58.0933 253.343 57.64C253.037 57.1733 252.883 56.64 252.883 56.04C252.883 55.4933 253.01 55 253.263 54.56C253.53 54.1067 253.957 53.7467 254.543 53.48C255.143 53.2 255.943 53.06 256.943 53.06H260.563V54.12H256.983C255.97 54.12 255.263 54.3 254.863 54.66C254.477 55.02 254.283 55.4667 254.283 56C254.283 56.6 254.517 57.08 254.983 57.44C255.45 57.8 256.103 57.98 256.943 57.98C257.743 57.98 258.43 57.8 259.003 57.44C259.59 57.0667 260.017 56.5333 260.283 55.84L260.603 56.82C260.337 57.5133 259.87 58.0667 259.203 58.48C258.55 58.8933 257.723 59.1 256.723 59.1ZM269.74 59.1C268.74 59.1 267.84 58.8733 267.04 58.42C266.253 57.9667 265.633 57.34 265.18 56.54C264.727 55.7267 264.5 54.7933 264.5 53.74C264.5 52.6733 264.727 51.74 265.18 50.94C265.633 50.14 266.253 49.52 267.04 49.08C267.84 48.6267 268.74 48.4 269.74 48.4C270.66 48.4 271.48 48.6067 272.2 49.02C272.933 49.4333 273.513 50.04 273.94 50.84C274.38 51.6267 274.6 52.5933 274.6 53.74C274.6 54.8733 274.387 55.84 273.96 56.64C273.533 57.44 272.953 58.0533 272.22 58.48C271.5 58.8933 270.673 59.1 269.74 59.1ZM269.84 57.84C270.587 57.84 271.253 57.6733 271.84 57.34C272.44 56.9933 272.907 56.5133 273.24 55.9C273.587 55.2733 273.76 54.5533 273.76 53.74C273.76 52.9133 273.587 52.1933 273.24 51.58C272.907 50.9667 272.44 50.4933 271.84 50.16C271.253 49.8133 270.587 49.64 269.84 49.64C269.107 49.64 268.447 49.8133 267.86 50.16C267.273 50.4933 266.807 50.9667 266.46 51.58C266.113 52.1933 265.94 52.9133 265.94 53.74C265.94 54.5533 266.113 55.2733 266.46 55.9C266.807 56.5133 267.273 56.9933 267.86 57.34C268.447 57.6733 269.107 57.84 269.84 57.84ZM273.8 59V55.84L273.94 53.72L273.74 51.6V44.16H275.16V59H273.8ZM279.115 59V48.5H280.535V59H279.115ZM279.835 46.18C279.541 46.18 279.295 46.08 279.095 45.88C278.895 45.68 278.795 45.44 278.795 45.16C278.795 44.88 278.895 44.6467 279.095 44.46C279.295 44.26 279.541 44.16 279.835 44.16C280.128 44.16 280.375 44.2533 280.575 44.44C280.775 44.6267 280.875 44.86 280.875 45.14C280.875 45.4333 280.775 45.68 280.575 45.88C280.388 46.08 280.141 46.18 279.835 46.18ZM284.486 59V48.5H285.846V51.36L285.706 50.86C285.999 50.06 286.493 49.4533 287.186 49.04C287.879 48.6133 288.739 48.4 289.766 48.4V49.78C289.713 49.78 289.659 49.78 289.606 49.78C289.553 49.7667 289.499 49.76 289.446 49.76C288.339 49.76 287.473 50.1 286.846 50.78C286.219 51.4467 285.906 52.4 285.906 53.64V59H284.486ZM298.156 59V56.68L298.096 56.3V52.42C298.096 51.5267 297.842 50.84 297.336 50.36C296.842 49.88 296.102 49.64 295.116 49.64C294.436 49.64 293.789 49.7533 293.176 49.98C292.562 50.2067 292.042 50.5067 291.616 50.88L290.976 49.82C291.509 49.3667 292.149 49.02 292.896 48.78C293.642 48.5267 294.429 48.4 295.256 48.4C296.616 48.4 297.662 48.74 298.396 49.42C299.142 50.0867 299.516 51.1067 299.516 52.48V59H298.156ZM294.536 59.1C293.749 59.1 293.062 58.9733 292.476 58.72C291.902 58.4533 291.462 58.0933 291.156 57.64C290.849 57.1733 290.696 56.64 290.696 56.04C290.696 55.4933 290.822 55 291.076 54.56C291.342 54.1067 291.769 53.7467 292.356 53.48C292.956 53.2 293.756 53.06 294.756 53.06H298.376V54.12H294.796C293.782 54.12 293.076 54.3 292.676 54.66C292.289 55.02 292.096 55.4667 292.096 56C292.096 56.6 292.329 57.08 292.796 57.44C293.262 57.8 293.916 57.98 294.756 57.98C295.556 57.98 296.242 57.8 296.816 57.44C297.402 57.0667 297.829 56.5333 298.096 55.84L298.416 56.82C298.149 57.5133 297.682 58.0667 297.016 58.48C296.362 58.8933 295.536 59.1 294.536 59.1ZM308.733 48.4C309.586 48.4 310.333 48.5667 310.973 48.9C311.626 49.22 312.133 49.7133 312.493 50.38C312.866 51.0467 313.053 51.8867 313.053 52.9V59H311.633V53.04C311.633 51.9333 311.353 51.1 310.793 50.54C310.246 49.9667 309.473 49.68 308.473 49.68C307.726 49.68 307.073 49.8333 306.513 50.14C305.966 50.4333 305.539 50.8667 305.233 51.44C304.939 52 304.793 52.68 304.793 53.48V59H303.373V48.5H304.733V51.38L304.513 50.84C304.846 50.08 305.379 49.4867 306.113 49.06C306.846 48.62 307.719 48.4 308.733 48.4Z" fill="#502B01"/>
<g filter="url(#filter1_d_626_36)">
<rect x="63.9502" y="48.7451" width="0.490196" height="4.0098" rx="0.245098" fill="url(#paint0_linear_626_36)" stroke="#7A4200" stroke-width="0.490196"/>
<rect x="58.5596" y="48.7451" width="0.490196" height="4.0098" rx="0.245098" fill="url(#paint1_linear_626_36)" stroke="#7A4200" stroke-width="0.490196"/>
<rect x="53.6572" y="48.7451" width="0.490196" height="4.0098" rx="0.245098" fill="url(#paint2_linear_626_36)" stroke="#7A4200" stroke-width="0.490196"/>
<rect x="68.6084" y="48.7451" width="0.490196" height="4.0098" rx="0.245098" fill="url(#paint3_linear_626_36)" stroke="#7A4200" stroke-width="0.490196"/>
<path d="M69.3434 48.95L70.9365 37.475H69.5885H68.6081H67.6277H66.6473H65.4218L64.3189 48.95H69.3434Z" fill="url(#paint4_linear_626_36)"/>
<path d="M53.412 48.95L51.9414 37.25H53.2894H54.2698H55.2502H56.2306H57.4561L58.6816 48.95H53.412Z" fill="url(#paint5_linear_626_36)"/>
<path d="M66.6473 37.475H65.4218L64.3189 48.95H69.3434L70.9365 37.475H69.5885M66.6473 37.475L66.1571 41.3M66.6473 37.475H67.6277M67.6277 37.475L67.0149 43.1M67.6277 37.475H68.6081M68.6081 37.475L67.7502 45.125M68.6081 37.475H69.5885M69.5885 37.475L68.6081 48.05M56.2306 37.25H57.4561L58.6816 48.95H53.412L51.9414 37.25H53.2894M56.2306 37.25L56.7208 41.075M56.2306 37.25H55.2502M55.2502 37.25L55.863 42.875M55.2502 37.25H54.2698M54.2698 37.25L55.1277 44.9M54.2698 37.25H53.2894M53.2894 37.25L54.2698 47.825" stroke="#7A4200" stroke-width="0.5" stroke-linecap="round"/>
<path d="M61.4983 28.475V24.1301C67.2625 24.1301 69.9458 19.3767 70.5669 17L67.8339 28.475H61.4983Z" fill="url(#paint6_linear_626_36)"/>
<path d="M61.4983 28.475V24.1301C55.7341 24.1301 53.0508 19.3767 52.4297 17L55.1627 28.475H61.4983Z" fill="url(#paint7_linear_626_36)"/>
<path d="M61.4983 24.1301V28.475M61.4983 24.1301C67.2625 24.1301 69.9458 19.3767 70.5669 17L67.8339 28.475H61.4983M61.4983 24.1301C55.7341 24.1301 53.0508 19.3767 52.4297 17L55.1627 28.475H61.4983" stroke="#7A4200" stroke-width="0.5"/>
<path d="M61.5 37.4752V33.6502C74 33.6502 73.5098 26.7877 74 26.4502L71.4265 37.4752H61.5Z" fill="url(#paint8_linear_626_36)"/>
<path d="M61.5 37.4752V33.6502C49 33.6502 49.4902 26.7877 49 26.4502L51.5735 37.4752H61.5Z" fill="url(#paint9_linear_626_36)"/>
<path d="M61.5 33.6502V37.4752M61.5 33.6502C74 33.6502 73.5098 26.7877 74 26.4502L71.4265 37.4752H61.5M61.5 33.6502C49 33.6502 49.4902 26.7877 49 26.4502L51.5735 37.4752H61.5" stroke="#7A4200" stroke-width="0.5"/>
<path d="M66.1575 28.4746L65.4263 36.0121L64.1276 49.3996H62.8141H61.5006V43.7746V36.0121V28.4746H63.2469H64.4112H66.1575Z" fill="url(#paint10_linear_626_36)"/>
<path d="M56.8438 28.4746L57.575 36.0121L58.8737 49.3996H60.1871H61.5006V43.7746V36.0121V28.4746H59.7543H58.5901H56.8438Z" fill="url(#paint11_linear_626_36)"/>
<path d="M65.4263 36.0121L66.1575 28.4746H64.4112M65.4263 36.0121L64.1276 49.3996M65.4263 36.0121L61.5006 43.7746M65.4263 36.0121H63.4634M64.1276 49.3996L61.5006 43.7746M64.1276 49.3996H62.8141M61.5006 49.3996V43.7746M61.5006 49.3996H62.8141M61.5006 49.3996H60.1871M61.5006 43.7746V36.0121M61.5006 43.7746L57.575 36.0121M61.5006 43.7746L58.8737 49.3996M61.5006 36.0121H62.482M61.5006 36.0121H60.5192M61.5006 36.0121V28.4746M63.4634 36.0121V37.8121M63.4634 36.0121H62.482M62.482 36.0121V39.2746M64.4112 28.4746V30.4996M64.4112 28.4746H63.2469M61.5006 28.4746H63.2469M61.5006 28.4746H59.7543M63.2469 28.4746V29.8246M62.8141 49.3996V48.2746M57.575 36.0121L56.8438 28.4746H58.5901M57.575 36.0121L58.8737 49.3996M57.575 36.0121H59.5378M58.8737 49.3996H60.1871M59.5378 36.0121V37.8121M59.5378 36.0121H60.5192M60.5192 36.0121V39.2746M58.5901 28.4746V30.4996M58.5901 28.4746H59.7543M59.7543 28.4746V29.8246M60.1871 49.3996V48.2746" stroke="#7A4200" stroke-width="0.5" stroke-linecap="round"/>
<path d="M68.3622 36.8C62.7472 33.9875 61.749 23.975 61.4995 23.75V31.5125C62.6973 34.3025 64.91 36.2 65.8667 36.8H68.3622Z" fill="url(#paint12_linear_626_36)"/>
<path d="M54.6367 36.8C60.2517 33.9875 61.2499 23.975 61.4995 23.75V31.5125C60.3016 34.3025 58.0889 36.2 57.1323 36.8H54.6367Z" fill="url(#paint13_linear_626_36)"/>
<path d="M61.4995 23.75C61.749 23.975 62.7472 33.9875 68.3622 36.8H65.8667C64.91 36.2 62.6973 34.3025 61.4995 31.5125M61.4995 23.75V31.5125M61.4995 23.75C61.2499 23.975 60.2517 33.9875 54.6367 36.8H57.1323C58.0889 36.2 60.3016 34.3025 61.4995 31.5125" stroke="#7A4200" stroke-width="0.5"/>
</g>
<g filter="url(#filter2_d_626_36)">
<rect x="-0.245098" y="0.245098" width="0.490196" height="4.0098" rx="0.245098" transform="matrix(-1 0 0 1 363.805 48.5)" fill="url(#paint14_linear_626_36)" stroke="#7A4200" stroke-width="0.490196"/>
<rect x="-0.245098" y="0.245098" width="0.490196" height="4.0098" rx="0.245098" transform="matrix(-1 0 0 1 369.195 48.5)" fill="url(#paint15_linear_626_36)" stroke="#7A4200" stroke-width="0.490196"/>
<rect x="-0.245098" y="0.245098" width="0.490196" height="4.0098" rx="0.245098" transform="matrix(-1 0 0 1 374.098 48.5)" fill="url(#paint16_linear_626_36)" stroke="#7A4200" stroke-width="0.490196"/>
<rect x="-0.245098" y="0.245098" width="0.490196" height="4.0098" rx="0.245098" transform="matrix(-1 0 0 1 359.147 48.5)" fill="url(#paint17_linear_626_36)" stroke="#7A4200" stroke-width="0.490196"/>
<path d="M358.657 48.95L357.063 37.475H358.412H359.392H360.372H361.353H362.578L363.681 48.95H358.657Z" fill="url(#paint18_linear_626_36)"/>
<path d="M374.588 48.95L376.059 37.25H374.711H373.73H372.75H371.769H370.544L369.318 48.95H374.588Z" fill="url(#paint19_linear_626_36)"/>
<path d="M361.353 37.475H362.578L363.681 48.95H358.657L357.063 37.475H358.412M361.353 37.475L361.843 41.3M361.353 37.475H360.372M360.372 37.475L360.985 43.1M360.372 37.475H359.392M359.392 37.475L360.25 45.125M359.392 37.475H358.412M358.412 37.475L359.392 48.05M371.769 37.25H370.544L369.318 48.95H374.588L376.059 37.25H374.711M371.769 37.25L371.279 41.075M371.769 37.25H372.75M372.75 37.25L372.137 42.875M372.75 37.25H373.73M373.73 37.25L372.872 44.9M373.73 37.25H374.711M374.711 37.25L373.73 47.825" stroke="#7A4200" stroke-width="0.5" stroke-linecap="round"/>
<path d="M366.502 28.475V24.1301C360.738 24.1301 358.054 19.3767 357.433 17L360.166 28.475H366.502Z" fill="url(#paint20_linear_626_36)"/>
<path d="M366.502 28.475V24.1301C372.266 24.1301 374.949 19.3767 375.57 17L372.837 28.475H366.502Z" fill="url(#paint21_linear_626_36)"/>
<path d="M366.502 24.1301V28.475M366.502 24.1301C360.738 24.1301 358.054 19.3767 357.433 17L360.166 28.475H366.502M366.502 24.1301C372.266 24.1301 374.949 19.3767 375.57 17L372.837 28.475H366.502" stroke="#7A4200" stroke-width="0.5"/>
<path d="M366.5 37.4752V33.6502C354 33.6502 354.49 26.7877 354 26.4502L356.574 37.4752H366.5Z" fill="url(#paint22_linear_626_36)"/>
<path d="M366.5 37.4752V33.6502C379 33.6502 378.51 26.7877 379 26.4502L376.426 37.4752H366.5Z" fill="url(#paint23_linear_626_36)"/>
<path d="M366.5 33.6502V37.4752M366.5 33.6502C354 33.6502 354.49 26.7877 354 26.4502L356.574 37.4752H366.5M366.5 33.6502C379 33.6502 378.51 26.7877 379 26.4502L376.426 37.4752H366.5" stroke="#7A4200" stroke-width="0.5"/>
<path d="M361.843 28.4746L362.574 36.0121L363.872 49.3996H365.186H366.499V43.7746V36.0121V28.4746H364.753H363.589H361.843Z" fill="url(#paint24_linear_626_36)"/>
<path d="M371.156 28.4746L370.425 36.0121L369.126 49.3996H367.813H366.499V43.7746V36.0121V28.4746H368.246H369.41H371.156Z" fill="url(#paint25_linear_626_36)"/>
<path d="M362.574 36.0121L361.843 28.4746H363.589M362.574 36.0121L363.872 49.3996M362.574 36.0121L366.499 43.7746M362.574 36.0121H364.537M363.872 49.3996L366.499 43.7746M363.872 49.3996H365.186M366.499 49.3996V43.7746M366.499 49.3996H365.186M366.499 49.3996H367.813M366.499 43.7746V36.0121M366.499 43.7746L370.425 36.0121M366.499 43.7746L369.126 49.3996M366.499 36.0121H365.518M366.499 36.0121H367.481M366.499 36.0121V28.4746M364.537 36.0121V37.8121M364.537 36.0121H365.518M365.518 36.0121V39.2746M363.589 28.4746V30.4996M363.589 28.4746H364.753M366.499 28.4746H364.753M366.499 28.4746H368.246M364.753 28.4746V29.8246M365.186 49.3996V48.2746M370.425 36.0121L371.156 28.4746H369.41M370.425 36.0121L369.126 49.3996M370.425 36.0121H368.462M369.126 49.3996H367.813M368.462 36.0121V37.8121M368.462 36.0121H367.481M367.481 36.0121V39.2746M369.41 28.4746V30.4996M369.41 28.4746H368.246M368.246 28.4746V29.8246M367.813 49.3996V48.2746" stroke="#7A4200" stroke-width="0.5" stroke-linecap="round"/>
<path d="M359.638 36.8C365.253 33.9875 366.251 23.975 366.501 23.75V31.5125C365.303 34.3025 363.09 36.2 362.133 36.8H359.638Z" fill="url(#paint26_linear_626_36)"/>
<path d="M373.363 36.8C367.748 33.9875 366.75 23.975 366.501 23.75V31.5125C367.698 34.3025 369.911 36.2 370.868 36.8H373.363Z" fill="url(#paint27_linear_626_36)"/>
<path d="M366.501 23.75C366.251 23.975 365.253 33.9875 359.638 36.8H362.133C363.09 36.2 365.303 34.3025 366.501 31.5125M366.501 23.75V31.5125M366.501 23.75C366.75 23.975 367.748 33.9875 373.363 36.8H370.868C369.911 36.2 367.698 34.3025 366.501 31.5125" stroke="#7A4200" stroke-width="0.5"/>
</g>
<defs>
<filter id="filter0_d_626_36" x="178.953" y="13.7461" width="68.5273" height="27.4766" filterUnits="userSpaceOnUse" color-interpolation-filters="sRGB">
<feFlood flood-opacity="0" result="BackgroundImageFix"/>
<feColorMatrix in="SourceAlpha" type="matrix" values="0 0 0 0 0 0 0 0 0 0 0 0 0 0 0 0 0 0 127 0" result="hardAlpha"/>
<feOffset dy="4"/>
<feGaussianBlur stdDeviation="2"/>
<feComposite in2="hardAlpha" operator="out"/>
<feColorMatrix type="matrix" values="0 0 0 0 0 0 0 0 0 0 0 0 0 0 0 0 0 0 0.25 0"/>
<feBlend mode="normal" in2="BackgroundImageFix" result="effect1_dropShadow_626_36"/>
<feBlend mode="normal" in="SourceGraphic" in2="effect1_dropShadow_626_36" result="shape"/>
</filter>
<filter id="filter1_d_626_36" x="28.6094" y="0.936523" width="65.7812" height="76.0635" filterUnits="userSpaceOnUse" color-interpolation-filters="sRGB">
<feFlood flood-opacity="0" result="BackgroundImageFix"/>
<feColorMatrix in="SourceAlpha" type="matrix" values="0 0 0 0 0 0 0 0 0 0 0 0 0 0 0 0 0 0 127 0" result="hardAlpha"/>
<feOffset dy="4"/>
<feGaussianBlur stdDeviation="10"/>
<feComposite in2="hardAlpha" operator="out"/>
<feColorMatrix type="matrix" values="0 0 0 0 0 0 0 0 0 0 0 0 0 0 0 0 0 0 0.7 0"/>
<feBlend mode="normal" in2="BackgroundImageFix" result="effect1_dropShadow_626_36"/>
<feBlend mode="normal" in="SourceGraphic" in2="effect1_dropShadow_626_36" result="shape"/>
</filter>
<filter id="filter2_d_626_36" x="333.609" y="0.936523" width="65.7812" height="76.0635" filterUnits="userSpaceOnUse" color-interpolation-filters="sRGB">
<feFlood flood-opacity="0" result="BackgroundImageFix"/>
<feColorMatrix in="SourceAlpha" type="matrix" values="0 0 0 0 0 0 0 0 0 0 0 0 0 0 0 0 0 0 127 0" result="hardAlpha"/>
<feOffset dy="4"/>
<feGaussianBlur stdDeviation="10"/>
<feComposite in2="hardAlpha" operator="out"/>
<feColorMatrix type="matrix" values="0 0 0 0 0 0 0 0 0 0 0 0 0 0 0 0 0 0 0.7 0"/>
<feBlend mode="normal" in2="BackgroundImageFix" result="effect1_dropShadow_626_36"/>
<feBlend mode="normal" in="SourceGraphic" in2="effect1_dropShadow_626_36" result="shape"/>
</filter>
<linearGradient id="paint0_linear_626_36" x1="64.1953" y1="48.5" x2="64.1953" y2="53" gradientUnits="userSpaceOnUse">
<stop stop-color="#F4DDC0"/>
<stop offset="1" stop-color="#957C13"/>
</linearGradient>
<linearGradient id="paint1_linear_626_36" x1="58.8046" y1="48.5" x2="58.8046" y2="53" gradientUnits="userSpaceOnUse">
<stop stop-color="#F4DDC0"/>
<stop offset="1" stop-color="#957C13"/>
</linearGradient>
<linearGradient id="paint2_linear_626_36" x1="53.9023" y1="48.5" x2="53.9023" y2="53" gradientUnits="userSpaceOnUse">
<stop stop-color="#F4DDC0"/>
<stop offset="1" stop-color="#957C13"/>
</linearGradient>
<linearGradient id="paint3_linear_626_36" x1="68.8535" y1="48.5" x2="68.8535" y2="53" gradientUnits="userSpaceOnUse">
<stop stop-color="#F4DDC0"/>
<stop offset="1" stop-color="#957C13"/>
</linearGradient>
<linearGradient id="paint4_linear_626_36" x1="61.5001" y1="28.7398" x2="61.4486" y2="48.95" gradientUnits="userSpaceOnUse">
<stop stop-color="#F4DDC0"/>
<stop offset="1" stop-color="#957C13"/>
</linearGradient>
<linearGradient id="paint5_linear_626_36" x1="61.5001" y1="28.7398" x2="61.4486" y2="48.95" gradientUnits="userSpaceOnUse">
<stop stop-color="#F4DDC0"/>
<stop offset="1" stop-color="#957C13"/>
</linearGradient>
<linearGradient id="paint6_linear_626_36" x1="61.4983" y1="17" x2="61.4983" y2="28.475" gradientUnits="userSpaceOnUse">
<stop stop-color="#F4DDC0"/>
<stop offset="1" stop-color="#957C13"/>
</linearGradient>
<linearGradient id="paint7_linear_626_36" x1="61.4983" y1="17" x2="61.4983" y2="28.475" gradientUnits="userSpaceOnUse">
<stop stop-color="#F4DDC0"/>
<stop offset="1" stop-color="#957C13"/>
</linearGradient>
<linearGradient id="paint8_linear_626_36" x1="61.5" y1="26.4502" x2="61.5" y2="37.4752" gradientUnits="userSpaceOnUse">
<stop stop-color="#F4DDC0"/>
<stop offset="1" stop-color="#957C13"/>
</linearGradient>
<linearGradient id="paint9_linear_626_36" x1="61.5" y1="26.4502" x2="61.5" y2="37.4752" gradientUnits="userSpaceOnUse">
<stop stop-color="#F4DDC0"/>
<stop offset="1" stop-color="#957C13"/>
</linearGradient>
<linearGradient id="paint10_linear_626_36" x1="61.5005" y1="19.8242" x2="61.5005" y2="43.5686" gradientUnits="userSpaceOnUse">
<stop stop-color="#F4DDC0"/>
<stop offset="1" stop-color="#957C13"/>
</linearGradient>
<linearGradient id="paint11_linear_626_36" x1="61.5005" y1="19.8242" x2="61.5005" y2="43.5686" gradientUnits="userSpaceOnUse">
<stop stop-color="#F4DDC0"/>
<stop offset="1" stop-color="#957C13"/>
</linearGradient>
<linearGradient id="paint12_linear_626_36" x1="61.4995" y1="23.75" x2="61.4995" y2="36.8" gradientUnits="userSpaceOnUse">
<stop stop-color="#F1C81F"/>
<stop offset="1" stop-color="#8B7312"/>
</linearGradient>
<linearGradient id="paint13_linear_626_36" x1="61.4995" y1="23.75" x2="61.4995" y2="36.8" gradientUnits="userSpaceOnUse">
<stop stop-color="#F1C81F"/>
<stop offset="1" stop-color="#8B7312"/>
</linearGradient>
<linearGradient id="paint14_linear_626_36" x1="0.490196" y1="0" x2="0.490196" y2="4.49999" gradientUnits="userSpaceOnUse">
<stop stop-color="#F4DDC0"/>
<stop offset="1" stop-color="#957C13"/>
</linearGradient>
<linearGradient id="paint15_linear_626_36" x1="0.490196" y1="0" x2="0.490196" y2="4.49999" gradientUnits="userSpaceOnUse">
<stop stop-color="#F4DDC0"/>
<stop offset="1" stop-color="#957C13"/>
</linearGradient>
<linearGradient id="paint16_linear_626_36" x1="0.490196" y1="0" x2="0.490196" y2="4.49999" gradientUnits="userSpaceOnUse">
<stop stop-color="#F4DDC0"/>
<stop offset="1" stop-color="#957C13"/>
</linearGradient>
<linearGradient id="paint17_linear_626_36" x1="0.490196" y1="0" x2="0.490196" y2="4.49999" gradientUnits="userSpaceOnUse">
<stop stop-color="#F4DDC0"/>
<stop offset="1" stop-color="#957C13"/>
</linearGradient>
<linearGradient id="paint18_linear_626_36" x1="366.5" y1="28.7398" x2="366.551" y2="48.95" gradientUnits="userSpaceOnUse">
<stop stop-color="#F4DDC0"/>
<stop offset="1" stop-color="#957C13"/>
</linearGradient>
<linearGradient id="paint19_linear_626_36" x1="366.5" y1="28.7398" x2="366.551" y2="48.95" gradientUnits="userSpaceOnUse">
<stop stop-color="#F4DDC0"/>
<stop offset="1" stop-color="#957C13"/>
</linearGradient>
<linearGradient id="paint20_linear_626_36" x1="366.502" y1="17" x2="366.502" y2="28.475" gradientUnits="userSpaceOnUse">
<stop stop-color="#F4DDC0"/>
<stop offset="1" stop-color="#957C13"/>
</linearGradient>
<linearGradient id="paint21_linear_626_36" x1="366.502" y1="17" x2="366.502" y2="28.475" gradientUnits="userSpaceOnUse">
<stop stop-color="#F4DDC0"/>
<stop offset="1" stop-color="#957C13"/>
</linearGradient>
<linearGradient id="paint22_linear_626_36" x1="366.5" y1="26.4502" x2="366.5" y2="37.4752" gradientUnits="userSpaceOnUse">
<stop stop-color="#F4DDC0"/>
<stop offset="1" stop-color="#957C13"/>
</linearGradient>
<linearGradient id="paint23_linear_626_36" x1="366.5" y1="26.4502" x2="366.5" y2="37.4752" gradientUnits="userSpaceOnUse">
<stop stop-color="#F4DDC0"/>
<stop offset="1" stop-color="#957C13"/>
</linearGradient>
<linearGradient id="paint24_linear_626_36" x1="366.5" y1="19.8242" x2="366.5" y2="43.5686" gradientUnits="userSpaceOnUse">
<stop stop-color="#F4DDC0"/>
<stop offset="1" stop-color="#957C13"/>
</linearGradient>
<linearGradient id="paint25_linear_626_36" x1="366.5" y1="19.8242" x2="366.5" y2="43.5686" gradientUnits="userSpaceOnUse">
<stop stop-color="#F4DDC0"/>
<stop offset="1" stop-color="#957C13"/>
</linearGradient>
<linearGradient id="paint26_linear_626_36" x1="366.501" y1="23.75" x2="366.501" y2="36.8" gradientUnits="userSpaceOnUse">
<stop stop-color="#F1C81F"/>
<stop offset="1" stop-color="#8B7312"/>
</linearGradient>
<linearGradient id="paint27_linear_626_36" x1="366.501" y1="23.75" x2="366.501" y2="36.8" gradientUnits="userSpaceOnUse">
<stop stop-color="#F1C81F"/>
<stop offset="1" stop-color="#8B7312"/>
</linearGradient>
</defs>
</svg>
