<svg width="428" height="244" viewBox="0 0 428 244" fill="none" xmlns="http://www.w3.org/2000/svg">
<g filter="url(#filter0_d_632_466)">
<path d="M136.352 197.004H136.258C135.617 198.512 134.602 201.051 133.211 204.621C131.828 208.191 130.707 210.938 129.848 212.859C129.809 212.953 129.617 213 129.273 213C128.93 213 128.734 212.953 128.688 212.859C128.688 212.859 128.098 211.648 126.918 209.227L123.848 202.594C123.848 202.594 122.812 200.262 120.742 195.598C120.438 194.887 120.137 194.461 119.84 194.32C119.738 194.273 119.688 194.176 119.688 194.027C119.688 193.879 119.738 193.805 119.84 193.805H124.082C124.184 193.805 124.234 193.875 124.234 194.016C124.234 194.148 124.215 194.23 124.176 194.262C124.145 194.285 124.098 194.312 124.035 194.344C123.973 194.367 123.922 194.398 123.883 194.438C123.453 194.867 123.332 195.352 123.52 195.891L129.461 209.133H129.543L134.641 195.891C134.656 195.836 134.688 195.746 134.734 195.621C134.781 195.496 134.812 195.41 134.828 195.363C134.844 195.309 134.867 195.234 134.898 195.141C134.93 195.047 134.945 194.977 134.945 194.93V194.742C134.945 194.562 134.863 194.438 134.699 194.367C134.535 194.289 134.453 194.211 134.453 194.133C134.453 193.914 134.504 193.805 134.605 193.805H138.484C138.586 193.805 138.637 193.875 138.637 194.016C138.637 194.148 138.617 194.23 138.578 194.262C138.547 194.285 138.5 194.312 138.438 194.344C138.375 194.367 138.316 194.406 138.262 194.461C138.215 194.508 138.18 194.566 138.156 194.637C138.141 194.707 138.145 194.797 138.168 194.906C138.191 195.062 138.254 195.266 138.355 195.516L138.496 195.891L144.438 209.133H144.52L149.641 195.891C149.828 195.352 149.707 194.867 149.277 194.438C149.246 194.406 149.18 194.367 149.078 194.32C148.977 194.273 148.926 194.176 148.926 194.027C148.926 193.879 148.977 193.805 149.078 193.805H152.77C152.871 193.805 152.922 193.875 152.922 194.016C152.922 194.148 152.902 194.23 152.863 194.262C152.832 194.285 152.785 194.312 152.723 194.344C152.465 194.461 152.18 194.879 151.867 195.598C151.023 197.496 149.855 200.363 148.363 204.199C146.871 208.027 145.691 210.914 144.824 212.859C144.785 212.953 144.594 213 144.25 213C143.906 213 143.711 212.953 143.664 212.859L140.992 207.328L136.352 197.004ZM160.105 204.855C159.645 203.535 158.648 202.875 157.117 202.875C156.422 202.875 155.785 203.062 155.207 203.438C154.629 203.805 154.184 204.277 153.871 204.855C153.566 205.426 153.414 205.965 153.414 206.473C153.414 206.98 153.43 207.23 153.461 207.223L160.082 204.914V204.844L160.105 204.855ZM153.719 208.465C154.055 209.387 154.621 210.109 155.418 210.633C156.215 211.156 157.121 211.418 158.137 211.418C159.426 211.418 160.602 210.812 161.664 209.602C161.828 209.445 162.07 209.527 162.391 209.848C162.414 209.871 162.41 209.906 162.379 209.953C161.488 211.188 160.797 211.977 160.305 212.32C159.469 212.914 158.504 213.211 157.41 213.211C156.668 213.211 155.949 213.062 155.254 212.766C153.824 212.141 152.805 211.141 152.195 209.766C151.883 209.062 151.727 208.23 151.727 207.27C151.727 206.301 151.969 205.371 152.453 204.48C152.945 203.582 153.652 202.875 154.574 202.359C155.504 201.844 156.57 201.586 157.773 201.586C159.242 201.586 160.547 202.266 161.688 203.625C162.266 204.312 162.555 204.859 162.555 205.266L153.719 208.465ZM171.848 195.762L171.859 195.551C171.859 195.512 171.879 195.48 171.918 195.457C171.965 195.426 171.992 195.406 172 195.398L174.109 193.84C174.141 193.816 174.223 193.805 174.355 193.805C174.496 193.805 174.598 193.824 174.66 193.863C174.723 193.895 174.754 193.996 174.754 194.168C174.754 201.207 174.766 206.652 174.789 210.504C174.812 210.629 174.801 210.688 174.754 210.68C174.746 210.68 174.766 210.703 174.812 210.75C174.867 210.789 174.965 210.812 175.105 210.82C175.246 210.828 175.34 210.852 175.387 210.891C175.434 210.922 175.457 211.012 175.457 211.16C175.457 211.301 175.438 211.383 175.398 211.406L173.453 213C173.422 213.023 173.32 213.035 173.148 213.035C172.984 213.035 172.883 213.02 172.844 212.988C172.812 212.949 172.797 212.898 172.797 212.836C172.797 212.766 172.801 212.699 172.809 212.637C172.824 212.566 172.82 212.48 172.797 212.379C172.773 212.277 172.742 212.223 172.703 212.215C172.672 212.199 172.609 212.223 172.516 212.285L172.199 212.484C171.402 212.969 170.598 213.211 169.785 213.211C168.973 213.211 168.219 213.062 167.523 212.766C166.836 212.469 166.23 212.07 165.707 211.57C165.191 211.07 164.773 210.469 164.453 209.766C164.141 209.062 163.984 208.23 163.984 207.27C163.984 206.309 164.23 205.375 164.723 204.469C165.215 203.562 165.922 202.855 166.844 202.348C167.766 201.84 168.828 201.586 170.031 201.586C170.508 201.586 171.008 201.703 171.531 201.938C172.062 202.164 172.465 202.414 172.738 202.688H172.867C172.867 200.141 172.852 198.152 172.82 196.723C172.82 196.473 172.758 196.293 172.633 196.184C172.508 196.074 172.375 196.016 172.234 196.008C172.094 196 172 195.977 171.953 195.938C171.883 195.891 171.848 195.832 171.848 195.762ZM172.809 210.34L172.844 205.23C172.477 204.59 171.949 204.086 171.262 203.719C170.574 203.352 169.801 203.168 168.941 203.168C167.809 203.168 166.898 203.746 166.211 204.902C165.852 205.52 165.672 206.105 165.672 206.66C165.672 208.105 166.121 209.285 167.02 210.199C167.918 211.105 169.074 211.559 170.488 211.559C170.887 211.559 171.297 211.438 171.719 211.195C172.148 210.953 172.512 210.668 172.809 210.34ZM184.668 195.762L184.68 195.551C184.68 195.512 184.699 195.48 184.738 195.457C184.785 195.426 184.812 195.406 184.82 195.398L186.93 193.84C186.961 193.816 187.043 193.805 187.176 193.805C187.316 193.805 187.418 193.824 187.48 193.863C187.543 193.895 187.574 193.996 187.574 194.168C187.574 201.207 187.586 206.652 187.609 210.504C187.633 210.629 187.621 210.688 187.574 210.68C187.566 210.68 187.586 210.703 187.633 210.75C187.688 210.789 187.785 210.812 187.926 210.82C188.066 210.828 188.16 210.852 188.207 210.891C188.254 210.922 188.277 211.012 188.277 211.16C188.277 211.301 188.258 211.383 188.219 211.406L186.273 213C186.242 213.023 186.141 213.035 185.969 213.035C185.805 213.035 185.703 213.02 185.664 212.988C185.633 212.949 185.617 212.898 185.617 212.836C185.617 212.766 185.621 212.699 185.629 212.637C185.645 212.566 185.641 212.48 185.617 212.379C185.594 212.277 185.562 212.223 185.523 212.215C185.492 212.199 185.43 212.223 185.336 212.285L185.02 212.484C184.223 212.969 183.418 213.211 182.605 213.211C181.793 213.211 181.039 213.062 180.344 212.766C179.656 212.469 179.051 212.07 178.527 211.57C178.012 211.07 177.594 210.469 177.273 209.766C176.961 209.062 176.805 208.23 176.805 207.27C176.805 206.309 177.051 205.375 177.543 204.469C178.035 203.562 178.742 202.855 179.664 202.348C180.586 201.84 181.648 201.586 182.852 201.586C183.328 201.586 183.828 201.703 184.352 201.938C184.883 202.164 185.285 202.414 185.559 202.688H185.688C185.688 200.141 185.672 198.152 185.641 196.723C185.641 196.473 185.578 196.293 185.453 196.184C185.328 196.074 185.195 196.016 185.055 196.008C184.914 196 184.82 195.977 184.773 195.938C184.703 195.891 184.668 195.832 184.668 195.762ZM185.629 210.34L185.664 205.23C185.297 204.59 184.77 204.086 184.082 203.719C183.395 203.352 182.621 203.168 181.762 203.168C180.629 203.168 179.719 203.746 179.031 204.902C178.672 205.52 178.492 206.105 178.492 206.66C178.492 208.105 178.941 209.285 179.84 210.199C180.738 211.105 181.895 211.559 183.309 211.559C183.707 211.559 184.117 211.438 184.539 211.195C184.969 210.953 185.332 210.668 185.629 210.34ZM192.895 195.996V196.945C192.895 197.023 192.875 197.078 192.836 197.109C192.797 197.141 192.629 197.211 192.332 197.32C192.043 197.43 191.828 197.52 191.688 197.59C191.547 197.66 191.426 197.711 191.324 197.742C191.23 197.773 191.172 197.777 191.148 197.754C191.125 197.723 191.113 197.57 191.113 197.297V196.184C191.113 196.16 191.109 196.125 191.102 196.078C191.102 196.031 191.102 196 191.102 195.984C191.109 195.969 191.113 195.945 191.113 195.914C191.121 195.883 191.141 195.852 191.172 195.82C191.203 195.789 191.363 195.719 191.652 195.609C191.949 195.5 192.168 195.41 192.309 195.34C192.629 195.191 192.805 195.137 192.836 195.176C192.875 195.207 192.895 195.48 192.895 195.996ZM190.223 213C190.121 213 190.07 212.93 190.07 212.789C190.07 212.648 190.102 212.559 190.164 212.52C190.227 212.48 190.309 212.441 190.41 212.402C190.793 212.246 190.988 211.871 190.996 211.277V204.75C190.996 204.5 190.934 204.32 190.809 204.211C190.684 204.102 190.551 204.043 190.41 204.035C190.27 204.027 190.172 204.004 190.117 203.965C190.062 203.926 190.035 203.848 190.035 203.73C190.035 203.605 190.039 203.535 190.047 203.52C190.062 203.504 190.086 203.488 190.117 203.473C190.148 203.449 190.168 203.434 190.176 203.426L192.285 201.867C192.34 201.828 192.383 201.82 192.414 201.844C192.445 201.859 192.539 201.891 192.695 201.938C192.852 201.984 192.93 202.07 192.93 202.195V211.324C192.93 211.895 193.121 212.254 193.504 212.402C193.73 212.496 193.844 212.586 193.844 212.672C193.844 212.891 193.793 213 193.691 213H190.223ZM196.129 213C196.027 213 195.977 212.93 195.977 212.789C195.977 212.648 196.008 212.559 196.07 212.52C196.141 212.48 196.223 212.441 196.316 212.402C196.418 212.363 196.496 212.316 196.551 212.262C196.793 212.02 196.91 211.75 196.902 211.453C196.902 211.148 196.902 210.98 196.902 210.949V204.75C196.902 204.5 196.84 204.32 196.715 204.211C196.59 204.102 196.457 204.043 196.316 204.035C196.176 204.027 196.082 204.008 196.035 203.977C195.996 203.938 195.969 203.902 195.953 203.871C195.945 203.84 195.938 203.812 195.93 203.789C195.93 203.766 195.93 203.73 195.93 203.684C195.938 203.637 195.941 203.602 195.941 203.578C195.941 203.555 195.945 203.535 195.953 203.52C195.969 203.504 195.992 203.488 196.023 203.473C196.055 203.449 196.074 203.434 196.082 203.426L198.191 201.867C198.223 201.844 198.309 201.832 198.449 201.832C198.59 201.832 198.691 201.852 198.754 201.891C198.816 201.922 198.848 202.023 198.848 202.195V203.062L199.445 202.711L199.797 202.535C200.883 201.988 201.898 201.715 202.844 201.715C203.789 201.715 204.719 202.051 205.633 202.723C206.047 203.027 206.383 203.398 206.641 203.836C206.906 204.266 207.039 204.715 207.039 205.184V211.453C207.039 211.625 207.086 211.809 207.18 212.004C207.273 212.191 207.426 212.328 207.637 212.414C207.848 212.5 207.953 212.586 207.953 212.672C207.953 212.891 207.902 213 207.801 213H204.367C204.266 213 204.215 212.93 204.215 212.789C204.215 212.648 204.246 212.559 204.309 212.52C204.379 212.48 204.461 212.441 204.555 212.402C204.656 212.363 204.738 212.312 204.801 212.25C204.871 212.188 204.93 212.117 204.977 212.039C205.023 211.961 205.055 211.871 205.07 211.77C205.094 211.66 205.105 211.582 205.105 211.535C205.113 211.48 205.113 211.383 205.105 211.242C205.105 211.094 205.105 210.996 205.105 210.949V205.477C205.105 205.008 204.949 204.598 204.637 204.246C204.035 203.59 203.191 203.262 202.105 203.262C201.02 203.262 199.93 203.535 198.836 204.082V211.453C198.836 211.625 198.883 211.809 198.977 212.004C199.07 212.191 199.223 212.328 199.434 212.414C199.645 212.5 199.75 212.586 199.75 212.672C199.75 212.891 199.699 213 199.598 213H196.129ZM212.113 209.895C211.887 209.973 211.941 210.133 212.277 210.375C212.621 210.609 213.16 210.809 213.895 210.973C214.629 211.129 215.254 211.25 215.77 211.336C216.293 211.414 216.836 211.539 217.398 211.711C217.969 211.875 218.457 212.062 218.863 212.273C219.277 212.477 219.617 212.766 219.883 213.141C220.148 213.516 220.281 213.953 220.281 214.453C220.281 214.953 220.168 215.406 219.941 215.812C219.191 217.172 217.383 217.852 214.516 217.852C213.203 217.852 212.027 217.539 210.988 216.914C209.949 216.289 209.316 215.398 209.09 214.242V214.102C209.09 214.039 209.086 213.992 209.078 213.961L211.105 212.227C211.168 212.227 211.25 212.277 211.352 212.379C211.453 212.48 211.504 212.562 211.504 212.625C211.504 212.688 211.441 212.781 211.316 212.906C211.191 213.031 211.129 213.375 211.129 213.938C211.129 214.5 211.363 215.008 211.832 215.461C212.301 215.922 212.859 216.238 213.508 216.41C214.906 216.645 216.098 216.57 217.082 216.188C217.426 216.055 217.707 215.852 217.926 215.578C218.145 215.312 218.254 215.023 218.254 214.711C218.254 214.406 218.098 214.156 217.785 213.961C217.355 213.695 216.277 213.363 214.551 212.965C212.832 212.566 211.547 212.191 210.695 211.84C210.516 211.762 210.426 211.703 210.426 211.664C210.426 211.617 210.543 211.367 210.777 210.914C211.02 210.461 211.289 210.012 211.586 209.566C211.047 209.176 210.613 208.684 210.285 208.09C209.965 207.496 209.805 206.863 209.805 206.191C209.805 204.879 210.215 203.809 211.035 202.98C211.863 202.152 212.891 201.738 214.117 201.738C215.352 201.738 216.367 202.125 217.164 202.898L217.211 202.887C217.508 202.254 217.664 201.922 217.68 201.891C217.703 201.852 217.73 201.832 217.762 201.832H219.719C219.773 201.832 219.828 201.891 219.883 202.008C219.945 202.117 219.957 202.184 219.918 202.207C219.738 202.293 219.52 202.391 219.262 202.5C218.73 202.727 218.285 203.195 217.926 203.906C218.285 204.578 218.465 205.289 218.465 206.039C218.465 207.273 218.043 208.305 217.199 209.133C216.363 209.961 215.305 210.375 214.023 210.375C213.367 210.375 212.73 210.215 212.113 209.895ZM213.484 203.168C211.984 203.168 211.234 203.984 211.234 205.617C211.234 206.57 211.59 207.371 212.301 208.02C213.02 208.66 213.801 208.98 214.645 208.98C215.496 208.98 216.098 208.793 216.449 208.418C216.801 208.043 216.977 207.414 216.977 206.531C216.977 205.648 216.641 204.867 215.969 204.188C215.305 203.508 214.477 203.168 213.484 203.168ZM242.383 197.004H242.289C241.648 198.512 240.633 201.051 239.242 204.621C237.859 208.191 236.738 210.938 235.879 212.859C235.84 212.953 235.648 213 235.305 213C234.961 213 234.766 212.953 234.719 212.859C234.719 212.859 234.129 211.648 232.949 209.227L229.879 202.594C229.879 202.594 228.844 200.262 226.773 195.598C226.469 194.887 226.168 194.461 225.871 194.32C225.77 194.273 225.719 194.176 225.719 194.027C225.719 193.879 225.77 193.805 225.871 193.805H230.113C230.215 193.805 230.266 193.875 230.266 194.016C230.266 194.148 230.246 194.23 230.207 194.262C230.176 194.285 230.129 194.312 230.066 194.344C230.004 194.367 229.953 194.398 229.914 194.438C229.484 194.867 229.363 195.352 229.551 195.891L235.492 209.133H235.574L240.672 195.891C240.688 195.836 240.719 195.746 240.766 195.621C240.812 195.496 240.844 195.41 240.859 195.363C240.875 195.309 240.898 195.234 240.93 195.141C240.961 195.047 240.977 194.977 240.977 194.93V194.742C240.977 194.562 240.895 194.438 240.73 194.367C240.566 194.289 240.484 194.211 240.484 194.133C240.484 193.914 240.535 193.805 240.637 193.805H244.516C244.617 193.805 244.668 193.875 244.668 194.016C244.668 194.148 244.648 194.23 244.609 194.262C244.578 194.285 244.531 194.312 244.469 194.344C244.406 194.367 244.348 194.406 244.293 194.461C244.246 194.508 244.211 194.566 244.188 194.637C244.172 194.707 244.176 194.797 244.199 194.906C244.223 195.062 244.285 195.266 244.387 195.516L244.527 195.891L250.469 209.133H250.551L255.672 195.891C255.859 195.352 255.738 194.867 255.309 194.438C255.277 194.406 255.211 194.367 255.109 194.32C255.008 194.273 254.957 194.176 254.957 194.027C254.957 193.879 255.008 193.805 255.109 193.805H258.801C258.902 193.805 258.953 193.875 258.953 194.016C258.953 194.148 258.934 194.23 258.895 194.262C258.863 194.285 258.816 194.312 258.754 194.344C258.496 194.461 258.211 194.879 257.898 195.598C257.055 197.496 255.887 200.363 254.395 204.199C252.902 208.027 251.723 210.914 250.855 212.859C250.816 212.953 250.625 213 250.281 213C249.938 213 249.742 212.953 249.695 212.859L247.023 207.328L242.383 197.004ZM262.27 195.996V196.945C262.27 197.023 262.25 197.078 262.211 197.109C262.172 197.141 262.004 197.211 261.707 197.32C261.418 197.43 261.203 197.52 261.062 197.59C260.922 197.66 260.801 197.711 260.699 197.742C260.605 197.773 260.547 197.777 260.523 197.754C260.5 197.723 260.488 197.57 260.488 197.297V196.184C260.488 196.16 260.484 196.125 260.477 196.078C260.477 196.031 260.477 196 260.477 195.984C260.484 195.969 260.488 195.945 260.488 195.914C260.496 195.883 260.516 195.852 260.547 195.82C260.578 195.789 260.738 195.719 261.027 195.609C261.324 195.5 261.543 195.41 261.684 195.34C262.004 195.191 262.18 195.137 262.211 195.176C262.25 195.207 262.27 195.48 262.27 195.996ZM259.598 213C259.496 213 259.445 212.93 259.445 212.789C259.445 212.648 259.477 212.559 259.539 212.52C259.602 212.48 259.684 212.441 259.785 212.402C260.168 212.246 260.363 211.871 260.371 211.277V204.75C260.371 204.5 260.309 204.32 260.184 204.211C260.059 204.102 259.926 204.043 259.785 204.035C259.645 204.027 259.547 204.004 259.492 203.965C259.438 203.926 259.41 203.848 259.41 203.73C259.41 203.605 259.414 203.535 259.422 203.52C259.438 203.504 259.461 203.488 259.492 203.473C259.523 203.449 259.543 203.434 259.551 203.426L261.66 201.867C261.715 201.828 261.758 201.82 261.789 201.844C261.82 201.859 261.914 201.891 262.07 201.938C262.227 201.984 262.305 202.07 262.305 202.195V211.324C262.305 211.895 262.496 212.254 262.879 212.402C263.105 212.496 263.219 212.586 263.219 212.672C263.219 212.891 263.168 213 263.066 213H259.598ZM272.254 204.223C272.254 204.309 272.176 204.352 272.02 204.352C271.863 204.344 271.77 204.34 271.738 204.34C271.645 204.34 271.574 204.273 271.527 204.141C271.355 203.734 270.996 203.402 270.449 203.145C269.902 202.879 269.367 202.746 268.844 202.746C268.32 202.746 267.867 202.875 267.484 203.133C267.102 203.391 266.91 203.719 266.91 204.117C266.91 204.508 267.086 204.836 267.438 205.102C267.789 205.367 268.145 205.598 268.504 205.793C268.871 205.98 269.113 206.109 269.23 206.18L270.344 206.812C271.344 207.359 272.008 207.938 272.336 208.547C272.562 208.969 272.676 209.488 272.676 210.105C272.676 210.715 272.5 211.273 272.148 211.781C271.469 212.758 270.332 213.246 268.738 213.246C267.926 213.246 266.949 213.105 265.809 212.824C265.777 212.809 265.723 212.793 265.645 212.777C265.566 212.762 265.492 212.738 265.422 212.707C265.359 212.676 265.324 212.594 265.316 212.461C265.309 212.328 265.258 212.055 265.164 211.641C265.07 211.219 265.023 210.949 265.023 210.832C265.023 210.715 265.031 210.645 265.047 210.621C265.07 210.59 265.094 210.566 265.117 210.551C265.141 210.527 265.176 210.508 265.223 210.492C265.27 210.469 265.305 210.453 265.328 210.445C265.352 210.438 265.387 210.426 265.434 210.41C265.613 210.355 265.777 210.445 265.926 210.68C266.082 210.906 266.523 211.164 267.25 211.453C267.984 211.734 268.617 211.875 269.148 211.875C269.68 211.875 270.109 211.742 270.438 211.477C270.773 211.203 270.941 210.84 270.941 210.387C270.941 209.754 270.562 209.238 269.805 208.84L267.695 207.715C267.125 207.395 266.738 207.148 266.535 206.977C266.051 206.555 265.711 206.152 265.516 205.77C265.32 205.387 265.223 204.953 265.223 204.469C265.223 203.516 265.574 202.801 266.277 202.324C266.988 201.848 267.961 201.609 269.195 201.609C269.742 201.609 270.344 201.648 271 201.727C271.664 201.805 272.074 201.926 272.23 202.09C272.254 202.113 272.266 202.41 272.266 202.98C272.273 203.551 272.27 203.965 272.254 204.223ZM274.41 195.762L274.422 195.551C274.422 195.527 274.469 195.477 274.562 195.398L276.672 193.84C276.703 193.816 276.789 193.805 276.93 193.805C277.07 193.805 277.168 193.824 277.223 193.863C277.277 193.895 277.305 193.996 277.305 194.168V203.062C277.57 202.906 277.77 202.793 277.902 202.723L278.266 202.535C279.367 201.988 280.387 201.715 281.324 201.715C282.27 201.715 283.199 202.051 284.113 202.723C284.527 203.027 284.863 203.398 285.121 203.836C285.387 204.266 285.52 204.715 285.52 205.184V210.949C285.52 210.988 285.516 211.074 285.508 211.207C285.508 211.332 285.512 211.414 285.52 211.453C285.574 211.953 285.738 212.262 286.012 212.379C286.293 212.488 286.434 212.586 286.434 212.672C286.434 212.891 286.383 213 286.281 213H282.824C282.723 213 282.672 212.93 282.672 212.789C282.672 212.648 282.703 212.559 282.766 212.52C282.828 212.48 282.91 212.441 283.012 212.402C283.113 212.363 283.195 212.312 283.258 212.25C283.32 212.188 283.375 212.117 283.422 212.039C283.477 211.961 283.512 211.871 283.527 211.77C283.551 211.668 283.562 211.594 283.562 211.547C283.57 211.492 283.57 211.391 283.562 211.242C283.562 211.094 283.562 210.996 283.562 210.949V205.477C283.562 205 283.402 204.586 283.082 204.234C282.488 203.586 281.648 203.262 280.562 203.262C279.484 203.262 278.398 203.535 277.305 204.082V210.949C277.305 210.988 277.301 211.074 277.293 211.207C277.293 211.332 277.293 211.414 277.293 211.453C277.355 211.953 277.523 212.262 277.797 212.379C278.078 212.488 278.219 212.586 278.219 212.672C278.219 212.891 278.168 213 278.066 213H274.609C274.508 213 274.457 212.93 274.457 212.789C274.457 212.648 274.488 212.559 274.551 212.52C274.613 212.48 274.695 212.441 274.797 212.402C274.898 212.363 274.977 212.316 275.031 212.262C275.273 212.02 275.391 211.75 275.383 211.453C275.383 211.148 275.383 210.98 275.383 210.949V196.723C275.383 196.473 275.32 196.293 275.195 196.184C275.07 196.074 274.938 196.016 274.797 196.008C274.656 196 274.562 195.977 274.516 195.938C274.445 195.891 274.41 195.832 274.41 195.762ZM296.371 204.855C295.91 203.535 294.914 202.875 293.383 202.875C292.688 202.875 292.051 203.062 291.473 203.438C290.895 203.805 290.449 204.277 290.137 204.855C289.832 205.426 289.68 205.965 289.68 206.473C289.68 206.98 289.695 207.23 289.727 207.223L296.348 204.914V204.844L296.371 204.855ZM289.984 208.465C290.32 209.387 290.887 210.109 291.684 210.633C292.48 211.156 293.387 211.418 294.402 211.418C295.691 211.418 296.867 210.812 297.93 209.602C298.094 209.445 298.336 209.527 298.656 209.848C298.68 209.871 298.676 209.906 298.645 209.953C297.754 211.188 297.062 211.977 296.57 212.32C295.734 212.914 294.77 213.211 293.676 213.211C292.934 213.211 292.215 213.062 291.52 212.766C290.09 212.141 289.07 211.141 288.461 209.766C288.148 209.062 287.992 208.23 287.992 207.27C287.992 206.301 288.234 205.371 288.719 204.48C289.211 203.582 289.918 202.875 290.84 202.359C291.77 201.844 292.836 201.586 294.039 201.586C295.508 201.586 296.812 202.266 297.953 203.625C298.531 204.312 298.82 204.859 298.82 205.266L289.984 208.465ZM307.551 204.223C307.551 204.309 307.473 204.352 307.316 204.352C307.16 204.344 307.066 204.34 307.035 204.34C306.941 204.34 306.871 204.273 306.824 204.141C306.652 203.734 306.293 203.402 305.746 203.145C305.199 202.879 304.664 202.746 304.141 202.746C303.617 202.746 303.164 202.875 302.781 203.133C302.398 203.391 302.207 203.719 302.207 204.117C302.207 204.508 302.383 204.836 302.734 205.102C303.086 205.367 303.441 205.598 303.801 205.793C304.168 205.98 304.41 206.109 304.527 206.18L305.641 206.812C306.641 207.359 307.305 207.938 307.633 208.547C307.859 208.969 307.973 209.488 307.973 210.105C307.973 210.715 307.797 211.273 307.445 211.781C306.766 212.758 305.629 213.246 304.035 213.246C303.223 213.246 302.246 213.105 301.105 212.824C301.074 212.809 301.02 212.793 300.941 212.777C300.863 212.762 300.789 212.738 300.719 212.707C300.656 212.676 300.621 212.594 300.613 212.461C300.605 212.328 300.555 212.055 300.461 211.641C300.367 211.219 300.32 210.949 300.32 210.832C300.32 210.715 300.328 210.645 300.344 210.621C300.367 210.59 300.391 210.566 300.414 210.551C300.438 210.527 300.473 210.508 300.52 210.492C300.566 210.469 300.602 210.453 300.625 210.445C300.648 210.438 300.684 210.426 300.73 210.41C300.91 210.355 301.074 210.445 301.223 210.68C301.379 210.906 301.82 211.164 302.547 211.453C303.281 211.734 303.914 211.875 304.445 211.875C304.977 211.875 305.406 211.742 305.734 211.477C306.07 211.203 306.238 210.84 306.238 210.387C306.238 209.754 305.859 209.238 305.102 208.84L302.992 207.715C302.422 207.395 302.035 207.148 301.832 206.977C301.348 206.555 301.008 206.152 300.812 205.77C300.617 205.387 300.52 204.953 300.52 204.469C300.52 203.516 300.871 202.801 301.574 202.324C302.285 201.848 303.258 201.609 304.492 201.609C305.039 201.609 305.641 201.648 306.297 201.727C306.961 201.805 307.371 201.926 307.527 202.09C307.551 202.113 307.562 202.41 307.562 202.98C307.57 203.551 307.566 203.965 307.551 204.223Z" fill="#502B01"/>
</g>
<g filter="url(#filter1_d_632_466)">
<rect x="348.95" y="215.745" width="0.490196" height="4.0098" rx="0.245098" fill="url(#paint0_linear_632_466)" stroke="#7A4200" stroke-width="0.490196"/>
<rect x="343.56" y="215.745" width="0.490196" height="4.0098" rx="0.245098" fill="url(#paint1_linear_632_466)" stroke="#7A4200" stroke-width="0.490196"/>
<rect x="338.657" y="215.745" width="0.490196" height="4.0098" rx="0.245098" fill="url(#paint2_linear_632_466)" stroke="#7A4200" stroke-width="0.490196"/>
<rect x="353.608" y="215.745" width="0.490196" height="4.0098" rx="0.245098" fill="url(#paint3_linear_632_466)" stroke="#7A4200" stroke-width="0.490196"/>
<path d="M354.343 215.95L355.937 204.475H354.588H353.608H352.628H351.647H350.422L349.319 215.95H354.343Z" fill="url(#paint4_linear_632_466)"/>
<path d="M338.412 215.95L336.941 204.25H338.289H339.27H340.25H341.231H342.456L343.682 215.95H338.412Z" fill="url(#paint5_linear_632_466)"/>
<path d="M351.647 204.475H350.422L349.319 215.95H354.343L355.937 204.475H354.588M351.647 204.475L351.157 208.3M351.647 204.475H352.628M352.628 204.475L352.015 210.1M352.628 204.475H353.608M353.608 204.475L352.75 212.125M353.608 204.475H354.588M354.588 204.475L353.608 215.05M341.231 204.25H342.456L343.682 215.95H338.412L336.941 204.25H338.289M341.231 204.25L341.721 208.075M341.231 204.25H340.25M340.25 204.25L340.863 209.875M340.25 204.25H339.27M339.27 204.25L340.128 211.9M339.27 204.25H338.289M338.289 204.25L339.27 214.825" stroke="#7A4200" stroke-width="0.5" stroke-linecap="round"/>
<path d="M346.498 195.475V191.13C352.262 191.13 354.946 186.377 355.567 184L352.834 195.475H346.498Z" fill="url(#paint6_linear_632_466)"/>
<path d="M346.498 195.475V191.13C340.734 191.13 338.051 186.377 337.43 184L340.163 195.475H346.498Z" fill="url(#paint7_linear_632_466)"/>
<path d="M346.498 191.13V195.475M346.498 191.13C352.262 191.13 354.946 186.377 355.567 184L352.834 195.475H346.498M346.498 191.13C340.734 191.13 338.051 186.377 337.43 184L340.163 195.475H346.498" stroke="#7A4200" stroke-width="0.5"/>
<path d="M346.5 204.475V200.65C359 200.65 358.51 193.788 359 193.45L356.426 204.475H346.5Z" fill="url(#paint8_linear_632_466)"/>
<path d="M346.5 204.475V200.65C334 200.65 334.49 193.788 334 193.45L336.574 204.475H346.5Z" fill="url(#paint9_linear_632_466)"/>
<path d="M346.5 200.65V204.475M346.5 200.65C359 200.65 358.51 193.788 359 193.45L356.426 204.475H346.5M346.5 200.65C334 200.65 334.49 193.788 334 193.45L336.574 204.475H346.5" stroke="#7A4200" stroke-width="0.5"/>
<path d="M351.157 195.475L350.426 203.012L349.128 216.4H347.814H346.501V210.775V203.012V195.475H348.247H349.411H351.157Z" fill="url(#paint10_linear_632_466)"/>
<path d="M341.844 195.475L342.575 203.012L343.874 216.4H345.187H346.501V210.775V203.012V195.475H344.754H343.59H341.844Z" fill="url(#paint11_linear_632_466)"/>
<path d="M350.426 203.012L351.157 195.475H349.411M350.426 203.012L349.128 216.4M350.426 203.012L346.501 210.775M350.426 203.012H348.463M349.128 216.4L346.501 210.775M349.128 216.4H347.814M346.501 216.4V210.775M346.501 216.4H347.814M346.501 216.4H345.187M346.501 210.775V203.012M346.501 210.775L342.575 203.012M346.501 210.775L343.874 216.4M346.501 203.012H347.482M346.501 203.012H345.519M346.501 203.012V195.475M348.463 203.012V204.812M348.463 203.012H347.482M347.482 203.012V206.275M349.411 195.475V197.5M349.411 195.475H348.247M346.501 195.475H348.247M346.501 195.475H344.754M348.247 195.475V196.825M347.814 216.4V215.275M342.575 203.012L341.844 195.475H343.59M342.575 203.012L343.874 216.4M342.575 203.012H344.538M343.874 216.4H345.187M344.538 203.012V204.812M344.538 203.012H345.519M345.519 203.012V206.275M343.59 195.475V197.5M343.59 195.475H344.754M344.754 195.475V196.825M345.187 216.4V215.275" stroke="#7A4200" stroke-width="0.5" stroke-linecap="round"/>
<path d="M353.362 203.8C347.747 200.987 346.749 190.975 346.499 190.75V198.512C347.697 201.302 349.91 203.2 350.867 203.8H353.362Z" fill="url(#paint12_linear_632_466)"/>
<path d="M339.637 203.8C345.252 200.987 346.25 190.975 346.499 190.75V198.512C345.302 201.302 343.089 203.2 342.132 203.8H339.637Z" fill="url(#paint13_linear_632_466)"/>
<path d="M346.499 190.75C346.749 190.975 347.747 200.987 353.362 203.8H350.867C349.91 203.2 347.697 201.302 346.499 198.512M346.499 190.75V198.512M346.499 190.75C346.25 190.975 345.252 200.987 339.637 203.8H342.132C343.089 203.2 345.302 201.302 346.499 198.512" stroke="#7A4200" stroke-width="0.5"/>
</g>
<g filter="url(#filter2_d_632_466)">
<rect x="83.9502" y="215.745" width="0.490196" height="4.0098" rx="0.245098" fill="url(#paint14_linear_632_466)" stroke="#7A4200" stroke-width="0.490196"/>
<rect x="78.5596" y="215.745" width="0.490196" height="4.0098" rx="0.245098" fill="url(#paint15_linear_632_466)" stroke="#7A4200" stroke-width="0.490196"/>
<rect x="73.6572" y="215.745" width="0.490196" height="4.0098" rx="0.245098" fill="url(#paint16_linear_632_466)" stroke="#7A4200" stroke-width="0.490196"/>
<rect x="88.6084" y="215.745" width="0.490196" height="4.0098" rx="0.245098" fill="url(#paint17_linear_632_466)" stroke="#7A4200" stroke-width="0.490196"/>
<path d="M89.3434 215.95L90.9365 204.475H89.5885H88.6081H87.6277H86.6473H85.4218L84.3189 215.95H89.3434Z" fill="url(#paint18_linear_632_466)"/>
<path d="M73.412 215.95L71.9414 204.25H73.2894H74.2698H75.2502H76.2306H77.4561L78.6816 215.95H73.412Z" fill="url(#paint19_linear_632_466)"/>
<path d="M86.6473 204.475H85.4218L84.3189 215.95H89.3434L90.9365 204.475H89.5885M86.6473 204.475L86.1571 208.3M86.6473 204.475H87.6277M87.6277 204.475L87.0149 210.1M87.6277 204.475H88.6081M88.6081 204.475L87.7502 212.125M88.6081 204.475H89.5885M89.5885 204.475L88.6081 215.05M76.2306 204.25H77.4561L78.6816 215.95H73.412L71.9414 204.25H73.2894M76.2306 204.25L76.7208 208.075M76.2306 204.25H75.2502M75.2502 204.25L75.863 209.875M75.2502 204.25H74.2698M74.2698 204.25L75.1277 211.9M74.2698 204.25H73.2894M73.2894 204.25L74.2698 214.825" stroke="#7A4200" stroke-width="0.5" stroke-linecap="round"/>
<path d="M81.4983 195.475V191.13C87.2625 191.13 89.9458 186.377 90.5669 184L87.8339 195.475H81.4983Z" fill="url(#paint20_linear_632_466)"/>
<path d="M81.4983 195.475V191.13C75.7341 191.13 73.0508 186.377 72.4297 184L75.1627 195.475H81.4983Z" fill="url(#paint21_linear_632_466)"/>
<path d="M81.4983 191.13V195.475M81.4983 191.13C87.2625 191.13 89.9458 186.377 90.5669 184L87.8339 195.475H81.4983M81.4983 191.13C75.7341 191.13 73.0508 186.377 72.4297 184L75.1627 195.475H81.4983" stroke="#7A4200" stroke-width="0.5"/>
<path d="M81.5 204.475V200.65C94 200.65 93.5098 193.788 94 193.45L91.4265 204.475H81.5Z" fill="url(#paint22_linear_632_466)"/>
<path d="M81.5 204.475V200.65C69 200.65 69.4902 193.788 69 193.45L71.5735 204.475H81.5Z" fill="url(#paint23_linear_632_466)"/>
<path d="M81.5 200.65V204.475M81.5 200.65C94 200.65 93.5098 193.788 94 193.45L91.4265 204.475H81.5M81.5 200.65C69 200.65 69.4902 193.788 69 193.45L71.5735 204.475H81.5" stroke="#7A4200" stroke-width="0.5"/>
<path d="M86.1575 195.475L85.4263 203.012L84.1276 216.4H82.8141H81.5006V210.775V203.012V195.475H83.2469H84.4112H86.1575Z" fill="url(#paint24_linear_632_466)"/>
<path d="M76.8438 195.475L77.575 203.012L78.8737 216.4H80.1871H81.5006V210.775V203.012V195.475H79.7543H78.5901H76.8438Z" fill="url(#paint25_linear_632_466)"/>
<path d="M85.4263 203.012L86.1575 195.475H84.4112M85.4263 203.012L84.1276 216.4M85.4263 203.012L81.5006 210.775M85.4263 203.012H83.4634M84.1276 216.4L81.5006 210.775M84.1276 216.4H82.8141M81.5006 216.4V210.775M81.5006 216.4H82.8141M81.5006 216.4H80.1871M81.5006 210.775V203.012M81.5006 210.775L77.575 203.012M81.5006 210.775L78.8737 216.4M81.5006 203.012H82.482M81.5006 203.012H80.5192M81.5006 203.012V195.475M83.4634 203.012V204.812M83.4634 203.012H82.482M82.482 203.012V206.275M84.4112 195.475V197.5M84.4112 195.475H83.2469M81.5006 195.475H83.2469M81.5006 195.475H79.7543M83.2469 195.475V196.825M82.8141 216.4V215.275M77.575 203.012L76.8438 195.475H78.5901M77.575 203.012L78.8737 216.4M77.575 203.012H79.5378M78.8737 216.4H80.1871M79.5378 203.012V204.812M79.5378 203.012H80.5192M80.5192 203.012V206.275M78.5901 195.475V197.5M78.5901 195.475H79.7543M79.7543 195.475V196.825M80.1871 216.4V215.275" stroke="#7A4200" stroke-width="0.5" stroke-linecap="round"/>
<path d="M88.3622 203.8C82.7472 200.987 81.749 190.975 81.4995 190.75V198.512C82.6973 201.302 84.91 203.2 85.8667 203.8H88.3622Z" fill="url(#paint26_linear_632_466)"/>
<path d="M74.6367 203.8C80.2517 200.987 81.2499 190.975 81.4995 190.75V198.512C80.3016 201.302 78.0889 203.2 77.1323 203.8H74.6367Z" fill="url(#paint27_linear_632_466)"/>
<path d="M81.4995 190.75C81.749 190.975 82.7472 200.987 88.3622 203.8H85.8667C84.91 203.2 82.6973 201.302 81.4995 198.512M81.4995 190.75V198.512M81.4995 190.75C81.2499 190.975 80.2517 200.987 74.6367 203.8H77.1323C78.0889 203.2 80.3016 201.302 81.4995 198.512" stroke="#7A4200" stroke-width="0.5"/>
</g>
<defs>
<filter id="filter0_d_632_466" x="115.688" y="193.805" width="196.285" height="32.0469" filterUnits="userSpaceOnUse" color-interpolation-filters="sRGB">
<feFlood flood-opacity="0" result="BackgroundImageFix"/>
<feColorMatrix in="SourceAlpha" type="matrix" values="0 0 0 0 0 0 0 0 0 0 0 0 0 0 0 0 0 0 127 0" result="hardAlpha"/>
<feOffset dy="4"/>
<feGaussianBlur stdDeviation="2"/>
<feComposite in2="hardAlpha" operator="out"/>
<feColorMatrix type="matrix" values="0 0 0 0 0 0 0 0 0 0 0 0 0 0 0 0 0 0 0.25 0"/>
<feBlend mode="normal" in2="BackgroundImageFix" result="effect1_dropShadow_632_466"/>
<feBlend mode="normal" in="SourceGraphic" in2="effect1_dropShadow_632_466" result="shape"/>
</filter>
<filter id="filter1_d_632_466" x="313.609" y="167.937" width="65.7812" height="76.063" filterUnits="userSpaceOnUse" color-interpolation-filters="sRGB">
<feFlood flood-opacity="0" result="BackgroundImageFix"/>
<feColorMatrix in="SourceAlpha" type="matrix" values="0 0 0 0 0 0 0 0 0 0 0 0 0 0 0 0 0 0 127 0" result="hardAlpha"/>
<feOffset dy="4"/>
<feGaussianBlur stdDeviation="10"/>
<feComposite in2="hardAlpha" operator="out"/>
<feColorMatrix type="matrix" values="0 0 0 0 0 0 0 0 0 0 0 0 0 0 0 0 0 0 0.7 0"/>
<feBlend mode="normal" in2="BackgroundImageFix" result="effect1_dropShadow_632_466"/>
<feBlend mode="normal" in="SourceGraphic" in2="effect1_dropShadow_632_466" result="shape"/>
</filter>
<filter id="filter2_d_632_466" x="48.6094" y="167.937" width="65.7812" height="76.063" filterUnits="userSpaceOnUse" color-interpolation-filters="sRGB">
<feFlood flood-opacity="0" result="BackgroundImageFix"/>
<feColorMatrix in="SourceAlpha" type="matrix" values="0 0 0 0 0 0 0 0 0 0 0 0 0 0 0 0 0 0 127 0" result="hardAlpha"/>
<feOffset dy="4"/>
<feGaussianBlur stdDeviation="10"/>
<feComposite in2="hardAlpha" operator="out"/>
<feColorMatrix type="matrix" values="0 0 0 0 0 0 0 0 0 0 0 0 0 0 0 0 0 0 0.7 0"/>
<feBlend mode="normal" in2="BackgroundImageFix" result="effect1_dropShadow_632_466"/>
<feBlend mode="normal" in="SourceGraphic" in2="effect1_dropShadow_632_466" result="shape"/>
</filter>
<linearGradient id="paint0_linear_632_466" x1="349.195" y1="215.5" x2="349.195" y2="220" gradientUnits="userSpaceOnUse">
<stop stop-color="#F4DDC0"/>
<stop offset="1" stop-color="#957C13"/>
</linearGradient>
<linearGradient id="paint1_linear_632_466" x1="343.805" y1="215.5" x2="343.805" y2="220" gradientUnits="userSpaceOnUse">
<stop stop-color="#F4DDC0"/>
<stop offset="1" stop-color="#957C13"/>
</linearGradient>
<linearGradient id="paint2_linear_632_466" x1="338.902" y1="215.5" x2="338.902" y2="220" gradientUnits="userSpaceOnUse">
<stop stop-color="#F4DDC0"/>
<stop offset="1" stop-color="#957C13"/>
</linearGradient>
<linearGradient id="paint3_linear_632_466" x1="353.853" y1="215.5" x2="353.853" y2="220" gradientUnits="userSpaceOnUse">
<stop stop-color="#F4DDC0"/>
<stop offset="1" stop-color="#957C13"/>
</linearGradient>
<linearGradient id="paint4_linear_632_466" x1="346.5" y1="195.74" x2="346.449" y2="215.95" gradientUnits="userSpaceOnUse">
<stop stop-color="#F4DDC0"/>
<stop offset="1" stop-color="#957C13"/>
</linearGradient>
<linearGradient id="paint5_linear_632_466" x1="346.5" y1="195.74" x2="346.449" y2="215.95" gradientUnits="userSpaceOnUse">
<stop stop-color="#F4DDC0"/>
<stop offset="1" stop-color="#957C13"/>
</linearGradient>
<linearGradient id="paint6_linear_632_466" x1="346.498" y1="184" x2="346.498" y2="195.475" gradientUnits="userSpaceOnUse">
<stop stop-color="#F4DDC0"/>
<stop offset="1" stop-color="#957C13"/>
</linearGradient>
<linearGradient id="paint7_linear_632_466" x1="346.498" y1="184" x2="346.498" y2="195.475" gradientUnits="userSpaceOnUse">
<stop stop-color="#F4DDC0"/>
<stop offset="1" stop-color="#957C13"/>
</linearGradient>
<linearGradient id="paint8_linear_632_466" x1="346.5" y1="193.45" x2="346.5" y2="204.475" gradientUnits="userSpaceOnUse">
<stop stop-color="#F4DDC0"/>
<stop offset="1" stop-color="#957C13"/>
</linearGradient>
<linearGradient id="paint9_linear_632_466" x1="346.5" y1="193.45" x2="346.5" y2="204.475" gradientUnits="userSpaceOnUse">
<stop stop-color="#F4DDC0"/>
<stop offset="1" stop-color="#957C13"/>
</linearGradient>
<linearGradient id="paint10_linear_632_466" x1="346.5" y1="186.824" x2="346.5" y2="210.569" gradientUnits="userSpaceOnUse">
<stop stop-color="#F4DDC0"/>
<stop offset="1" stop-color="#957C13"/>
</linearGradient>
<linearGradient id="paint11_linear_632_466" x1="346.5" y1="186.824" x2="346.5" y2="210.569" gradientUnits="userSpaceOnUse">
<stop stop-color="#F4DDC0"/>
<stop offset="1" stop-color="#957C13"/>
</linearGradient>
<linearGradient id="paint12_linear_632_466" x1="346.499" y1="190.75" x2="346.499" y2="203.8" gradientUnits="userSpaceOnUse">
<stop stop-color="#F1C81F"/>
<stop offset="1" stop-color="#8B7312"/>
</linearGradient>
<linearGradient id="paint13_linear_632_466" x1="346.499" y1="190.75" x2="346.499" y2="203.8" gradientUnits="userSpaceOnUse">
<stop stop-color="#F1C81F"/>
<stop offset="1" stop-color="#8B7312"/>
</linearGradient>
<linearGradient id="paint14_linear_632_466" x1="84.1953" y1="215.5" x2="84.1953" y2="220" gradientUnits="userSpaceOnUse">
<stop stop-color="#F4DDC0"/>
<stop offset="1" stop-color="#957C13"/>
</linearGradient>
<linearGradient id="paint15_linear_632_466" x1="78.8046" y1="215.5" x2="78.8046" y2="220" gradientUnits="userSpaceOnUse">
<stop stop-color="#F4DDC0"/>
<stop offset="1" stop-color="#957C13"/>
</linearGradient>
<linearGradient id="paint16_linear_632_466" x1="73.9023" y1="215.5" x2="73.9023" y2="220" gradientUnits="userSpaceOnUse">
<stop stop-color="#F4DDC0"/>
<stop offset="1" stop-color="#957C13"/>
</linearGradient>
<linearGradient id="paint17_linear_632_466" x1="88.8535" y1="215.5" x2="88.8535" y2="220" gradientUnits="userSpaceOnUse">
<stop stop-color="#F4DDC0"/>
<stop offset="1" stop-color="#957C13"/>
</linearGradient>
<linearGradient id="paint18_linear_632_466" x1="81.5001" y1="195.74" x2="81.4486" y2="215.95" gradientUnits="userSpaceOnUse">
<stop stop-color="#F4DDC0"/>
<stop offset="1" stop-color="#957C13"/>
</linearGradient>
<linearGradient id="paint19_linear_632_466" x1="81.5001" y1="195.74" x2="81.4486" y2="215.95" gradientUnits="userSpaceOnUse">
<stop stop-color="#F4DDC0"/>
<stop offset="1" stop-color="#957C13"/>
</linearGradient>
<linearGradient id="paint20_linear_632_466" x1="81.4983" y1="184" x2="81.4983" y2="195.475" gradientUnits="userSpaceOnUse">
<stop stop-color="#F4DDC0"/>
<stop offset="1" stop-color="#957C13"/>
</linearGradient>
<linearGradient id="paint21_linear_632_466" x1="81.4983" y1="184" x2="81.4983" y2="195.475" gradientUnits="userSpaceOnUse">
<stop stop-color="#F4DDC0"/>
<stop offset="1" stop-color="#957C13"/>
</linearGradient>
<linearGradient id="paint22_linear_632_466" x1="81.5" y1="193.45" x2="81.5" y2="204.475" gradientUnits="userSpaceOnUse">
<stop stop-color="#F4DDC0"/>
<stop offset="1" stop-color="#957C13"/>
</linearGradient>
<linearGradient id="paint23_linear_632_466" x1="81.5" y1="193.45" x2="81.5" y2="204.475" gradientUnits="userSpaceOnUse">
<stop stop-color="#F4DDC0"/>
<stop offset="1" stop-color="#957C13"/>
</linearGradient>
<linearGradient id="paint24_linear_632_466" x1="81.5005" y1="186.824" x2="81.5005" y2="210.569" gradientUnits="userSpaceOnUse">
<stop stop-color="#F4DDC0"/>
<stop offset="1" stop-color="#957C13"/>
</linearGradient>
<linearGradient id="paint25_linear_632_466" x1="81.5005" y1="186.824" x2="81.5005" y2="210.569" gradientUnits="userSpaceOnUse">
<stop stop-color="#F4DDC0"/>
<stop offset="1" stop-color="#957C13"/>
</linearGradient>
<linearGradient id="paint26_linear_632_466" x1="81.4995" y1="190.75" x2="81.4995" y2="203.8" gradientUnits="userSpaceOnUse">
<stop stop-color="#F1C81F"/>
<stop offset="1" stop-color="#8B7312"/>
</linearGradient>
<linearGradient id="paint27_linear_632_466" x1="81.4995" y1="190.75" x2="81.4995" y2="203.8" gradientUnits="userSpaceOnUse">
<stop stop-color="#F1C81F"/>
<stop offset="1" stop-color="#8B7312"/>
</linearGradient>
</defs>
</svg>
